<?xml version="1.0" encoding="utf-8"?>
<!-- Generator: Adobe Illustrator 16.0.3, SVG Export Plug-In . SVG Version: 6.00 Build 0)  -->
<!DOCTYPE svg PUBLIC "-//W3C//DTD SVG 1.1//EN" "http://www.w3.org/Graphics/SVG/1.1/DTD/svg11.dtd">
<svg version="1.1" id="Layer_1" xmlns="http://www.w3.org/2000/svg" xmlns:xlink="http://www.w3.org/1999/xlink" x="0px" y="0px"
	 width="100px" height="100px" viewBox="0 0 100 100" enable-background="new 0 0 100 100" xml:space="preserve">
<g>
	
		<rect x="0.695" y="0.695" fill-rule="evenodd" clip-rule="evenodd" fill="#EF5035" enable-background="new    " width="98.609" height="98.609"/>
	<path fill-rule="evenodd" clip-rule="evenodd" fill="#FFFFFF" d="M0,0v100h100V0H0z M98.608,1.392c0,1.361,0,95.854,0,97.217
		c-1.362,0-95.854,0-97.217,0c0-1.362,0-95.855,0-97.217C2.754,1.392,97.246,1.392,98.608,1.392z"/>
	<g>
		<path fill="#FFFFFF" d="M48.873,53.249H43.63c-0.113,0-0.213,0.058-0.271,0.145l0,0c-0.65,1.125-2.089,2.946-4.82,2.946
			c-3.577,0-5.787-3.141-5.787-6.398c0-3.053,2.064-6.281,5.758-6.281c2.532,0,4.087,1.567,4.868,3.021
			c0.011,0.021,0.022,0.04,0.032,0.061c0.059,0.085,0.157,0.141,0.27,0.141h5.255c0.176,0,0.322-0.146,0.322-0.324
			c0-0.027-0.005-0.055-0.012-0.081c-0.005-0.015-0.01-0.03-0.015-0.046c-1.036-3.313-4.569-7.599-10.691-7.599
			c-7.037,0-11.284,5.642-11.284,11.138c0,5.816,4.596,11.196,11.342,11.196c4.855,0,9.019-2.939,10.573-7.464
			c0.003-0.009,0.006-0.019,0.009-0.027c0.011-0.032,0.019-0.066,0.019-0.102C49.196,53.396,49.05,53.249,48.873,53.249z"/>
		<path fill="#FFFFFF" d="M72.211,53.249h-5.244c-0.113,0-0.212,0.058-0.271,0.145l0,0c-0.65,1.125-2.089,2.946-4.821,2.946
			c-3.576,0-5.786-3.141-5.786-6.398c0-3.053,2.064-6.281,5.758-6.281c2.532,0,4.087,1.567,4.868,3.021
			c0.011,0.021,0.021,0.04,0.032,0.061c0.059,0.085,0.157,0.141,0.27,0.141h5.254c0.177,0,0.323-0.146,0.323-0.324
			c0-0.027-0.005-0.055-0.012-0.081c-0.005-0.015-0.01-0.03-0.015-0.046c-1.037-3.313-4.569-7.599-10.692-7.599
			c-7.037,0-11.283,5.642-11.283,11.138c0,5.816,4.595,11.196,11.342,11.196c4.855,0,9.019-2.939,10.573-7.464
			c0.003-0.009,0.006-0.019,0.009-0.027c0.011-0.032,0.018-0.066,0.018-0.102C72.533,53.396,72.388,53.249,72.211,53.249z"/>
		<path fill="#FFFFFF" d="M20.758,57.847c-0.049-0.116-0.165-0.198-0.301-0.198h-7.012c-0.136,0-0.251,0.082-0.301,0.198
			l-0.989,2.715l-0.001,0.001c-0.049,0.116-0.164,0.197-0.296,0.197H6.66c-0.181,0-0.326-0.146-0.326-0.323
			c0-0.042,0.009-0.081,0.022-0.117l0.006-0.015l8.369-20.852l0.009-0.023c0.052-0.111,0.164-0.19,0.296-0.19h3.898
			c0.126,0,0.236,0.076,0.289,0.185l0.016,0.041l8.274,20.828l0.019,0.045c0.01,0.031,0.017,0.063,0.017,0.099
			c0,0.178-0.146,0.323-0.323,0.323h-5.254c-0.136,0-0.251-0.081-0.3-0.197l-0.003-0.007L20.758,57.847z M19.167,53.058
			l-0.012-0.038l-1.98-6.641c-0.022-0.086-0.1-0.149-0.192-0.149c-0.09,0-0.165,0.06-0.187,0.145l-1.993,6.656l-0.008,0.026
			c-0.002,0.013-0.004,0.024-0.004,0.038c0,0.105,0.086,0.191,0.191,0.191h3.996c0.106,0,0.191-0.086,0.191-0.191
			C19.17,53.082,19.169,53.07,19.167,53.058z"/>
		<path fill="#FFFFFF" d="M86.876,57.847c-0.05-0.116-0.165-0.198-0.301-0.198h-7.012c-0.136,0-0.252,0.082-0.301,0.198l-0.99,2.715
			v0.001c-0.05,0.116-0.165,0.197-0.297,0.197h-5.197c-0.182,0-0.327-0.146-0.327-0.323c0-0.042,0.009-0.081,0.023-0.117
			l0.006-0.015l8.368-20.852l0.01-0.023c0.051-0.111,0.163-0.19,0.295-0.19h3.898c0.126,0,0.236,0.076,0.289,0.185l0.016,0.041
			l8.275,20.828l0.018,0.045c0.01,0.031,0.017,0.063,0.017,0.099c0,0.178-0.146,0.323-0.322,0.323h-5.255
			c-0.135,0-0.25-0.081-0.3-0.197l-0.003-0.007L86.876,57.847z M85.284,53.058l-0.012-0.038l-1.98-6.641
			c-0.022-0.086-0.1-0.149-0.192-0.149c-0.09,0-0.164,0.06-0.186,0.145l-1.993,6.656l-0.009,0.026
			c-0.002,0.013-0.004,0.024-0.004,0.038c0,0.105,0.086,0.191,0.192,0.191h3.996c0.105,0,0.19-0.086,0.19-0.191
			C85.287,53.082,85.286,53.07,85.284,53.058z"/>
	</g>
</g>
</svg>
