<?xml version="1.0" encoding="utf-8"?>
<!-- Generator: Adobe Illustrator 16.0.3, SVG Export Plug-In . SVG Version: 6.00 Build 0)  -->
<!DOCTYPE svg PUBLIC "-//W3C//DTD SVG 1.1//EN" "http://www.w3.org/Graphics/SVG/1.1/DTD/svg11.dtd">
<svg version="1.1" id="Layer_1" xmlns="http://www.w3.org/2000/svg" xmlns:xlink="http://www.w3.org/1999/xlink" x="0px" y="0px"
	 width="200px" height="55px" viewBox="0 0 200 55" enable-background="new 0 0 200 55" xml:space="preserve">
<g>
	<path fill-rule="evenodd" clip-rule="evenodd" fill="#EC1C2E" d="M56.99,15.769c0.909-0.344,2.082-1.091,2.447-1.393
		c-0.606-0.303-1.072-0.648-1.699-1.254c-0.566-0.568-1.901-3.215-7.077-3.215c-5.579,0-7.946,3.861-7.946,6.916
		c0,0.341-0.019,0.807,0.083,1.251c-7.219,3.419-13.706,7.278-20.903,16.073h18.374c-1.049,0.404-2.648,1.031-3.901,2.104
		l1.497,5.294c2.75-0.16,5.358-0.929,7.076-1.696c1.597-0.729,8.532-3.922,11.201-12.674c0.242-0.89,1.334-5.461,1.473-6.146
		c0.124-0.667,0.547-2.284,1.883-3.215c-0.366-0.322-1.396-1.131-2.508-1.636C56.606,16.034,56.606,15.911,56.99,15.769
		L56.99,15.769z"/>
	<path fill-rule="evenodd" clip-rule="evenodd" fill="#009C57" d="M51.228,12.979c-1.556,0-2.81,1.252-2.81,2.79
		c0,1.536,1.254,2.792,2.81,2.792c1.535,0,2.789-1.255,2.789-2.792C54.017,14.231,52.763,12.979,51.228,12.979L51.228,12.979z"/>
	<path fill-rule="evenodd" clip-rule="evenodd" fill="#EC1C2E" d="M45.162,0H18.961l-8.631,25.252h13.585
		c0.446-0.347,1.071-0.871,1.901-1.417L31.78,4.549l4.084,13.322c0.524-0.282,1.878-0.97,2.507-1.272
		c0.322-5.257,4.264-8.208,9.44-8.814L45.162,0L45.162,0z"/>
	<path fill-rule="evenodd" clip-rule="evenodd" fill="#EC1C2E" d="M6.914,35.298L0.343,54.361h15.893l4.688-15.02H10.229
		c0.387-1.254,1.192-3.012,1.981-4.044H6.914L6.914,35.298z"/>
	<path fill-rule="evenodd" clip-rule="evenodd" fill="#009C57" d="M40.757,41.159l4.001,13.202h4.125l-4.37-14.353
		C43.545,40.431,42.091,40.879,40.757,41.159L40.757,41.159z"/>
	<path fill-rule="evenodd" clip-rule="evenodd" fill="#EC1C2E" d="M55.876,30.972c-1.454,2.81-4.182,6.874-9.925,9.706l4.062,13.684
		h13.851L55.876,30.972L55.876,30.972z"/>
	<path fill-rule="evenodd" clip-rule="evenodd" fill="#009C57" d="M66.046,15.627c-0.991-0.385-2.79-1.012-4.992-1.012
		c-0.628,0-1.254-0.08-1.617-0.24c-0.365,0.302-1.538,1.049-2.447,1.393c-0.384,0.142-0.384,0.265,0,0.406
		c1.112,0.505,2.142,1.314,2.508,1.636c1.636-1.191,2.992-0.162,6.548-1.777C66.43,15.89,66.409,15.769,66.046,15.627L66.046,15.627
		z"/>
	<path fill-rule="evenodd" clip-rule="evenodd" fill="#009C57" d="M5.398,30.043l0.141,0.141l-0.141,0.14
		c-2.466,0-4.104,1.739-4.326,3.74h13.644c-0.989,0.951-2.163,2.509-2.829,4.127H32.77l4.791,16.171h4.186l-3.881-12.818
		l-1.497-5.294c1.253-1.072,2.852-1.699,3.901-2.104H21.895c7.198-8.795,13.685-12.654,20.903-16.073
		c-0.101-0.444-0.083-0.91-0.083-1.251c0-3.055,2.367-6.916,7.946-6.916c1.841,0,3.882,0.364,5.397,1.477
		c-0.89-0.829-3.779-2.508-6.912-2.488c-6.208,0.042-9.947,4.024-9.623,8.47c-3.962,1.802-10.836,5.479-15.203,9.04H1.093
		C1.396,28.523,3.014,30.043,5.398,30.043L5.398,30.043z"/>
	<path fill-rule="evenodd" clip-rule="evenodd" fill="#FFFFFF" d="M51.107,16.094l2.709-1.355c-0.302-0.769-0.951-1.375-1.737-1.638
		l-1.275,2.71C50.683,16.113,50.804,16.234,51.107,16.094L51.107,16.094z"/>
	<path fill-rule="evenodd" clip-rule="evenodd" fill="#EC1C2E" d="M121.095,19.852h-11.946l-0.021,15.042
		c0,5.943-1.98,9.704-6.125,9.704c-3.132,0-4.711-2.062-4.711-7.824V19.852H98.13H87.619h-0.79v15.042
		c0,5.943-2.001,9.704-6.145,9.704c-3.155,0-4.712-2.062-4.712-7.824l-0.019-16.922h-13.04l-0.021,20.521
		c0,10.797,5.762,14.069,13.06,14.596c5.196,0.385,9.722-2.768,11.745-4.993c2.364,3.357,6.187,4.669,10.592,4.993
		c5.176,0.385,9.703-2.768,11.727-4.993l-0.02,4.387h0.605h10.673l-0.199-0.061L121.095,19.852L121.095,19.852z"/>
	<path fill-rule="evenodd" clip-rule="evenodd" fill="#EC1C2E" d="M158.192,36.977c0-0.164,0.061-7.238-0.87-9.24
		c-0.93-2.002-2.85-6.732-11.098-8.371c-1.678-0.344-3.398-0.465-5.055-0.465c-6.447,0.022-12.208,2.164-13.242,2.931v8.512
		c0,0,5.681-3.092,10.069-3.092c0.989,0,2.103,0.019,3.173,0.181c2.528,0.364,4.892,1.496,5.073,4.913c0,0-1.736-0.061-4.246-0.061
		h-0.827c-7.904,0.103-17.325,1.879-17.487,11.341c-0.141,7.664,6.612,11.221,12.535,11.059c0,0,2.263,0.121,4.952-0.747
		c1.981-0.629,4.185-1.8,5.884-3.922c0,3.073,0.263,4.345,0.263,4.345h11.2C158.517,54.361,158.192,48.457,158.192,36.977z
		 M141.17,46.519c-2.505,0.503-5.013-0.588-5.155-3.217c-0.143-2.606,2.507-3.618,5.155-3.941c2.286-0.281,4.609-0.038,5.157,0.163
		C146.346,43.689,143.759,45.992,141.17,46.519z"/>
	<polygon fill-rule="evenodd" clip-rule="evenodd" fill="#EC1C2E" points="186.98,19.852 186.98,33.983 175.333,33.983 
		175.374,19.852 162.681,19.852 162.723,54.361 175.295,54.361 175.333,41.728 186.98,41.728 186.999,54.361 199.575,54.361 
		199.657,19.852 186.98,19.852 	"/>
</g>
</svg>
