<?xml version="1.0" encoding="utf-8"?>
<!-- Generator: Adobe Illustrator 16.0.3, SVG Export Plug-In . SVG Version: 6.00 Build 0)  -->
<!DOCTYPE svg PUBLIC "-//W3C//DTD SVG 1.1//EN" "http://www.w3.org/Graphics/SVG/1.1/DTD/svg11.dtd">
<svg version="1.1" id="Layer_1" xmlns="http://www.w3.org/2000/svg" xmlns:xlink="http://www.w3.org/1999/xlink" x="0px" y="0px"
	 width="100px" height="115px" viewBox="0 0 100 115" enable-background="new 0 0 100 115" xml:space="preserve">
<g>
	<g>
		<g>
			<g>
				<path fill="#6D6E70" d="M7.406,98.296c0-1.221-0.844-1.755-1.3-1.954c0.603-0.325,1-1.009,1-1.737
					c0-1.456-0.995-2.291-2.729-2.291H0.631v8.794H4.34C6.259,101.107,7.406,100.056,7.406,98.296z M4.345,99.618H2.263v-2.503
					h2.082c0.885,0,1.334,0.419,1.334,1.245C5.679,99.16,5.192,99.618,4.345,99.618z M4.332,95.684h-2.07v-1.879h1.983
					c0.779,0,1.159,0.31,1.159,0.946C5.404,95.176,5.218,95.684,4.332,95.684z"/>
				<path fill="#6D6E70" d="M10.953,101.244c0.629,0,1.145-0.219,1.535-0.65v0.514h1.587v-6.424h-1.587v3.548
					c0,1.034-0.401,1.559-1.193,1.559c-0.805,0-1.181-0.498-1.181-1.568v-3.538H8.527v3.63
					C8.527,99.408,8.843,101.244,10.953,101.244z"/>
				<path fill="#6D6E70" d="M32.73,97.558c0-1.021,0.421-1.559,1.219-1.559c0.789,0,1.156,0.498,1.156,1.568v3.54h1.587v-3.632
					c0-1.918-0.813-2.932-2.353-2.932c-0.654,0-1.22,0.241-1.609,0.681v-0.541h-1.587v6.424h1.587V97.558z"/>
				<rect x="15.501" y="94.684" fill="#6D6E70" width="1.586" height="6.424"/>
				<polygon fill="#6D6E70" points="18.501,101.107 20.087,101.107 20.087,92.012 18.501,92.806 				"/>
				<path fill="#6D6E70" d="M25.133,95.136c-0.387-0.401-0.885-0.59-1.424-0.59c-1.553,0-2.518,1.259-2.518,3.284
					c0,2.138,0.929,3.414,2.485,3.414c0.533,0,1.032-0.199,1.458-0.628v0.491h1.585v-9.095l-1.585,0.793V95.136z M24.017,99.782
					c-0.552,0-1.209-0.346-1.209-1.989c0-1.482,0.647-1.793,1.189-1.793c0.595,0,0.952,0.354,1.137,0.626v2.523
					C24.897,99.455,24.605,99.782,24.017,99.782z"/>
				<path fill="#6D6E70" d="M59.735,94.546c-0.496,0-1.021,0.222-1.426,0.597v-2.966l-1.585,0.792v8.139h1.585v-0.481
					c0.393,0.405,0.895,0.618,1.458,0.618c1.582,0,2.488-1.244,2.488-3.414C62.256,95.805,61.29,94.546,59.735,94.546z M59.438,96
					c0.579,0,1.197,0.471,1.197,1.793c0,1.338-0.381,1.989-1.164,1.989c-0.596,0-0.99-0.396-1.162-0.604v-2.525
					C58.571,96.247,58.973,96,59.438,96z"/>
				<path fill="#6D6E70" d="M41.699,95.133c-0.382-0.382-0.885-0.59-1.425-0.59c-1.552,0-2.518,1.259-2.518,3.284
					c0,2.138,0.931,3.414,2.484,3.414c0.559,0,1.05-0.209,1.458-0.621v0.15c0,0.703-0.002,1.666-2.053,1.703l-0.071,0.001
					l0.562,1.246h0.031c2.098-0.033,3.116-1.084,3.116-3.213v-5.827h-1.585V95.133z M41.699,96.623v2.522
					c-0.252,0.33-0.557,0.634-1.125,0.634c-0.548,0-1.201-0.346-1.201-1.99c0-1.481,0.646-1.792,1.188-1.792
					C41.157,95.997,41.514,96.352,41.699,96.623z"/>
				<path fill="#6D6E70" d="M48.213,96.26c0.506-0.284,0.979-0.443,1.643-0.443c0.75,0,1.147,0.318,1.147,0.923v0.435
					c-0.367-0.186-0.893-0.304-1.365-0.304c-1.181,0-2.561,0.552-2.561,2.105c0,1.675,1.283,2.269,2.382,2.269
					c0.451,0,1.109-0.176,1.544-0.663v0.526h1.586v-4.331c0-1.396-0.97-2.23-2.594-2.23c-0.879,0-1.656,0.197-2.4,0.621
					L48.213,96.26z M48.664,98.976c0-0.571,0.409-0.912,1.094-0.912c0.47,0,0.877,0.092,1.245,0.316v0.88
					c-0.202,0.336-0.662,0.677-1.245,0.677C49.083,99.937,48.664,99.568,48.664,98.976z"/>
				<path fill="#6D6E70" d="M67.348,99.241c-0.287,0.261-0.683,0.541-1.267,0.541c-0.317,0-1.348-0.102-1.425-1.4h3.937
					c0.01-0.133,0.019-0.32,0.019-0.48c0-2.038-1.058-3.355-2.693-3.355c-1.669,0-2.875,1.411-2.875,3.355
					c0,2.03,1.19,3.343,3.038,3.343c0.847,0,1.665-0.331,2.268-1.008L67.348,99.241z M64.678,97.221
					c0.039-0.785,0.524-1.329,1.194-1.329c0.837,0,1.173,0.678,1.21,1.329H64.678z"/>
				<path fill="#6D6E70" d="M82.658,99.241c-0.288,0.261-0.683,0.541-1.267,0.541c-0.317,0-1.349-0.102-1.425-1.4h3.937
					c0.009-0.133,0.019-0.32,0.019-0.48c0-2.038-1.058-3.355-2.693-3.355c-1.669,0-2.88,1.411-2.88,3.355
					c0,2.03,1.194,3.343,3.043,3.343c0.847,0,1.65-0.331,2.268-1.008L82.658,99.241z M79.987,97.221
					c0.039-0.785,0.525-1.329,1.194-1.329c0.838,0,1.174,0.678,1.211,1.329H79.987z"/>
				<path fill="#6D6E70" d="M76.16,96.171h1.445v-1.487h-1.444v-2.441l-1.587,0.793v1.648h-0.987v1.487h0.987v3.104
					c0,0.908,0.449,1.97,1.713,1.97c0.502,0,0.964-0.104,1.334-0.297l0.187-1.497c-0.293,0.157-0.628,0.291-0.96,0.291
					c-0.471,0-0.688-0.293-0.688-0.864V96.171z"/>
				<path fill="#6D6E70" d="M73.271,99.45c-0.292,0.157-0.628,0.291-0.96,0.291c-0.472,0-0.687-0.293-0.687-0.864v-2.706h1.354
					v-1.487h-1.354v-2.441l-1.586,0.793v1.648h-0.992v1.487h0.992v3.104c0,0.908,0.448,1.97,1.712,1.97
					c0.503,0,0.964-0.104,1.334-0.297L73.271,99.45z"/>
				<path fill="#6D6E70" d="M89.141,94.934c-0.304-0.236-0.769-0.388-1.191-0.388c-0.562,0-1.038,0.212-1.42,0.694v-0.557h-1.587
					v6.424h1.587v-3.481c0-1.019,0.364-1.493,1.146-1.493c0.375,0,0.732,0.132,1.048,0.349L89.141,94.934z"/>
				<rect x="15.501" y="92.18" fill="#6D6E70" width="1.584" height="1.585"/>
				<rect x="28.133" y="94.684" fill="#6D6E70" width="1.587" height="6.424"/>
				<rect x="28.133" y="92.18" fill="#6D6E70" width="1.584" height="1.585"/>
			</g>
			<g>
				<path fill="#6D6E70" d="M73.293,106.354c-0.387-0.401-0.885-0.59-1.425-0.59c-1.554,0-2.518,1.258-2.518,3.284
					c0,2.138,0.929,3.414,2.484,3.414c0.533,0,1.033-0.199,1.458-0.628v0.49h1.585v-9.093l-1.585,0.794V106.354z M72.176,111.001
					c-0.551,0-1.209-0.346-1.209-1.99c0-1.481,0.646-1.793,1.189-1.793c0.595,0,0.951,0.355,1.137,0.627v2.522
					C73.058,110.674,72.766,111.001,72.176,111.001z"/>
				<path fill="#6D6E70" d="M19.82,106.153c-0.304-0.237-0.772-0.388-1.196-0.388c-0.562,0-1.038,0.211-1.419,0.693v-0.557H15.62
					v6.424h1.586v-3.48c0-1.02,0.364-1.494,1.146-1.494c0.375,0,0.732,0.132,1.051,0.349L19.82,106.153z"/>
				<path fill="#6D6E70" d="M6.339,108.265c-0.135,0.605-0.267,1.205-0.34,1.618c-0.095-0.497-0.268-1.193-0.382-1.617L4.947,105.9
					H3.598l-0.669,2.366c-0.118,0.439-0.292,1.132-0.381,1.608c-0.079-0.482-0.232-1.198-0.321-1.574l-0.591-2.4H0l1.804,6.39
					l0.01,0.035h1.372l0.705-2.615c0.117-0.396,0.297-1.188,0.357-1.449c0.086,0.364,0.23,0.928,0.35,1.397l0.712,2.667h1.364
					l1.814-6.425H6.918L6.339,108.265z"/>
				<path fill="#6D6E70" d="M11.722,105.757c-1.69,0-2.918,1.411-2.918,3.354c0,1.945,1.228,3.355,2.918,3.355
					c1.691,0,2.919-1.41,2.919-3.355C14.642,107.168,13.414,105.757,11.722,105.757z M11.722,110.969c-0.791,0-1.3-0.729-1.3-1.857
					c0-1.128,0.509-1.856,1.3-1.856c0.791,0,1.301,0.729,1.301,1.856C13.023,110.24,12.513,110.969,11.722,110.969z"/>
				<path fill="#6D6E70" d="M65.898,106.153c-0.304-0.237-0.772-0.388-1.196-0.388c-0.562,0-1.038,0.211-1.415,0.693v-0.557h-1.586
					v6.424h1.586v-3.48c0-1.02,0.36-1.494,1.142-1.494c0.375,0,0.733,0.132,1.052,0.349L65.898,106.153z"/>
				<path fill="#6D6E70" d="M52.419,108.265c-0.136,0.605-0.267,1.205-0.34,1.618c-0.096-0.497-0.269-1.193-0.382-1.617
					l-0.669-2.365h-1.351l-0.67,2.366c-0.118,0.439-0.292,1.132-0.38,1.608c-0.081-0.482-0.233-1.198-0.323-1.574l-0.59-2.4h-1.636
					l1.805,6.39l0.01,0.035h1.372l0.704-2.615c0.117-0.396,0.296-1.188,0.356-1.449c0.086,0.364,0.229,0.928,0.351,1.397
					l0.713,2.667h1.363l1.814-6.425h-1.569L52.419,108.265z"/>
				<path fill="#6D6E70" d="M57.791,105.76c-1.691,0-2.919,1.411-2.919,3.355s1.228,3.355,2.919,3.355s2.92-1.411,2.92-3.355
					S59.482,105.76,57.791,105.76z M57.791,110.972c-0.791,0-1.302-0.729-1.302-1.856c0-1.129,0.511-1.857,1.302-1.857
					c0.79,0,1.302,0.729,1.302,1.857C59.093,110.243,58.581,110.972,57.791,110.972z"/>
				<path fill="#6D6E70" d="M25.841,105.9h-1.833l-1.267,1.648c-0.169,0.218-0.404,0.521-0.601,0.806v-5.113l-1.58,0.793v8.291h1.58
					V110.4l0.839-1.058l1.35,2.982h1.754l-1.956-4.308L25.841,105.9z"/>
				<path fill="#6D6E70" d="M31.661,108.776c0-1.02,0.422-1.559,1.219-1.559c0.789,0,1.156,0.498,1.156,1.569v3.539h1.586v-3.632
					c0-1.917-0.813-2.931-2.353-2.931c-0.653,0-1.22,0.241-1.609,0.681v-0.542h-1.587v6.424h1.587V108.776z"/>
				<path fill="#6D6E70" d="M40.631,106.352c-0.383-0.381-0.886-0.59-1.426-0.59c-1.551,0-2.518,1.259-2.518,3.284
					c0,2.138,0.931,3.414,2.485,3.414c0.559,0,1.049-0.208,1.458-0.62v0.149c0,0.704-0.002,1.667-2.049,1.703l-0.072,0.002
					l0.558,1.246l0.031-0.001c2.097-0.032,3.117-1.084,3.117-3.213V105.9h-1.585V106.352z M40.631,107.843v2.522
					c-0.253,0.329-0.558,0.633-1.125,0.633c-0.549,0-1.198-0.345-1.198-1.989c0-1.482,0.643-1.793,1.186-1.793
					C40.089,107.216,40.445,107.57,40.631,107.843z"/>
				<rect x="27.064" y="105.902" fill="#6D6E70" width="1.586" height="6.424"/>
				<rect x="27.064" y="103.401" fill="#6D6E70" width="1.584" height="1.582"/>
				<polygon fill="#6D6E70" points="66.651,112.325 68.238,112.325 68.238,103.241 66.651,104.034 				"/>
			</g>
		</g>
	</g>
	<polygon fill="#FFD300" points="0.006,36.556 100,0.06 100,18.892 	"/>
	<g>
		<polygon fill="#6D6E70" points="11.464,69.246 24.527,69.246 24.527,61.661 11.464,61.661 11.464,55.7 25.914,55.7 21.12,47.392 
			0.631,47.392 0.631,83.516 29.528,83.516 29.528,75.207 11.464,75.207 		"/>
		<polygon fill="#6D6E70" points="48.762,47.392 42.625,59.181 36.504,47.392 24.526,47.392 37.147,69.246 37.147,83.516 
			47.948,83.516 47.948,69.246 60.586,47.392 		"/>
	</g>
</g>
</svg>
