<?xml version="1.0" encoding="utf-8"?>
<!-- Generator: Adobe Illustrator 16.0.3, SVG Export Plug-In . SVG Version: 6.00 Build 0)  -->
<!DOCTYPE svg PUBLIC "-//W3C//DTD SVG 1.1//EN" "http://www.w3.org/Graphics/SVG/1.1/DTD/svg11.dtd">
<svg version="1.1" id="Layer_1" xmlns="http://www.w3.org/2000/svg" xmlns:xlink="http://www.w3.org/1999/xlink" x="0px" y="0px"
	 width="63.287px" height="7.7px" viewBox="3.427 30.851 63.287 7.7" enable-background="new 3.427 30.851 63.287 7.7"
	 xml:space="preserve">
<g>
	<g>
		<path d="M22.333,32.954h1.006v1.287h-0.197l-0.072-0.296c-0.188,0.167-0.385,0.352-0.845,0.357
			c-0.234,0.004-0.537-0.131-0.651-0.229c-0.31-0.271-0.424-0.679-0.421-1.018c0.003-0.342,0.111-0.749,0.421-1.019
			c0.115-0.1,0.405-0.243,0.737-0.247c0.181-0.01,0.378,0.022,0.513,0.096c0.408,0.22,0.463,0.513,0.486,0.667h-0.302
			c-0.017-0.2-0.253-0.486-0.697-0.486c-0.213,0-0.434,0.075-0.582,0.23c-0.162,0.167-0.27,0.46-0.263,0.756
			c-0.007,0.293,0.102,0.585,0.263,0.753c0.148,0.155,0.369,0.23,0.582,0.23c0.174,0,0.312-0.043,0.42-0.116
			c0.369-0.246,0.329-0.542,0.333-0.689h-0.73V32.954z"/>
		<path d="M24.464,34.303c-0.314,0-0.778-0.157-0.778-0.926c0-0.771,0.464-0.926,0.778-0.926c0.316,0,0.781,0.155,0.781,0.926
			C25.245,34.146,24.78,34.303,24.464,34.303z M24.464,32.728c-0.361,0-0.496,0.365-0.496,0.649c0,0.282,0.135,0.65,0.496,0.65
			c0.366,0,0.497-0.368,0.497-0.65C24.961,33.093,24.83,32.728,24.464,32.728z"/>
		<path d="M26.033,34.228l-0.604-1.726h0.309l0.447,1.396l0.5-1.396h0.31l-0.661,1.726H26.033z"/>
		<path d="M27.467,33.475c-0.009,0.121-0.002,0.22,0.096,0.374c0.075,0.103,0.188,0.215,0.389,0.215c0.342,0,0.42-0.264,0.46-0.362
			h0.279c-0.022,0.105-0.049,0.224-0.154,0.346c-0.128,0.171-0.353,0.256-0.583,0.256c-0.227,0-0.46-0.088-0.608-0.275
			c-0.116-0.147-0.178-0.398-0.174-0.65c0.002-0.254,0.073-0.507,0.213-0.666c0.187-0.209,0.422-0.275,0.634-0.26
			c0.214,0.017,0.408,0.116,0.514,0.247c0.187,0.254,0.191,0.458,0.194,0.776H27.467z M28.427,33.231
			c0.011-0.161-0.081-0.355-0.124-0.401c-0.037-0.076-0.162-0.138-0.299-0.151c-0.135-0.013-0.286,0.026-0.378,0.151
			c-0.044,0.04-0.142,0.227-0.149,0.401H28.427z"/>
		<path d="M29.094,32.502h0.276v0.269h0.007c0.101-0.196,0.267-0.309,0.391-0.319h0.155v0.29c-0.103,0-0.188,0.013-0.263,0.039
			c-0.194,0.09-0.29,0.251-0.29,0.549v0.898h-0.276V32.502z"/>
		<path d="M30.47,32.502v0.217h0.006c0.052-0.083,0.125-0.155,0.19-0.188c0.083-0.063,0.217-0.082,0.342-0.08
			c0.125,0.004,0.241,0.027,0.282,0.047c0.086,0.046,0.237,0.131,0.274,0.389v1.341h-0.278v-1.2
			c0.003-0.214-0.154-0.325-0.344-0.325c-0.23,0-0.48,0.144-0.474,0.607v0.918h-0.276v-1.726H30.47z"/>
		<path d="M32.024,32.502h0.276v0.22h0.007c0.04-0.066,0.098-0.162,0.174-0.201c0.079-0.042,0.19-0.069,0.325-0.069
			c0.105,0,0.198,0,0.286,0.065c0.062,0.047,0.116,0.086,0.181,0.194c0.073-0.088,0.127-0.167,0.234-0.213
			c0.073-0.033,0.177-0.047,0.252-0.047c0.118-0.002,0.237,0.008,0.32,0.053c0.112,0.063,0.219,0.218,0.219,0.376v1.348h-0.275
			v-1.232c-0.037-0.228-0.162-0.293-0.333-0.293c-0.25,0-0.369,0.178-0.391,0.354v1.171h-0.275v-1.239
			c-0.024-0.229-0.181-0.286-0.321-0.286c-0.217,0-0.387,0.178-0.404,0.414v1.111h-0.276V32.502z"/>
		<path d="M34.959,33.475c-0.011,0.121-0.005,0.22,0.094,0.374c0.076,0.103,0.187,0.215,0.389,0.215c0.342,0,0.421-0.264,0.46-0.362
			h0.279c-0.022,0.105-0.049,0.224-0.154,0.346c-0.129,0.171-0.352,0.256-0.582,0.256c-0.228,0-0.461-0.088-0.609-0.275
			c-0.116-0.147-0.178-0.398-0.174-0.65c0.003-0.254,0.073-0.507,0.214-0.666c0.188-0.209,0.42-0.275,0.635-0.26
			c0.213,0.017,0.407,0.116,0.513,0.247c0.187,0.254,0.19,0.458,0.194,0.776H34.959z M35.919,33.231
			c0.01-0.161-0.082-0.355-0.125-0.401c-0.036-0.076-0.161-0.138-0.299-0.151c-0.135-0.013-0.286,0.026-0.378,0.151
			c-0.043,0.04-0.142,0.227-0.149,0.401H35.919z"/>
		<path d="M36.865,32.502v0.217h0.008c0.053-0.083,0.125-0.155,0.19-0.188c0.082-0.063,0.217-0.082,0.342-0.08
			c0.126,0.004,0.24,0.027,0.283,0.047c0.086,0.046,0.237,0.131,0.272,0.389v1.341h-0.276v-1.2c0.004-0.214-0.153-0.325-0.345-0.325
			c-0.229,0-0.48,0.144-0.475,0.607v0.918H36.59v-1.726H36.865z"/>
		<path d="M38.75,32.502h0.273v0.252H38.75v1.197c0,0.108,0.118,0.115,0.273,0.09v0.243c-0.115,0.019-0.19,0.029-0.299,0.019
			c-0.191-0.019-0.251-0.177-0.251-0.243v-1.306h-0.239v-0.252h0.239v-0.468h0.276V32.502z"/>
		<path d="M21.906,37.591c-0.315,0-0.779-0.156-0.779-0.925c0-0.771,0.464-0.925,0.779-0.925c0.316,0,0.779,0.154,0.779,0.925
			C22.685,37.435,22.222,37.591,21.906,37.591z M21.906,36.016c-0.361,0-0.496,0.366-0.496,0.65c0,0.282,0.135,0.65,0.496,0.65
			c0.365,0,0.497-0.368,0.497-0.65C22.403,36.382,22.271,36.016,21.906,36.016z"/>
		<path d="M23.129,36.044h-0.234v-0.253h0.234v-0.293c0-0.28,0.24-0.375,0.276-0.38c0.085-0.017,0.177-0.017,0.28,0.005v0.23
			c-0.175-0.021-0.28,0-0.28,0.184v0.254h0.276v0.253h-0.276v1.473h-0.276V36.044z"/>
		<path d="M26.526,35.86c-0.105-0.303-0.309-0.504-0.642-0.504c-0.19,0-0.384,0.075-0.516,0.23c-0.142,0.166-0.237,0.457-0.23,0.75
			c-0.007,0.292,0.088,0.582,0.23,0.75c0.132,0.153,0.326,0.229,0.516,0.229c0.352,0,0.57-0.221,0.691-0.678h0.315
			c-0.101,0.548-0.476,0.961-1.023,0.952c-0.298-0.002-0.562-0.147-0.664-0.247c-0.279-0.265-0.384-0.668-0.381-1.007
			c0.003-0.34,0.103-0.745,0.381-1.01c0.103-0.099,0.366-0.243,0.664-0.247c0.507-0.007,0.836,0.292,0.978,0.78H26.526z"/>
		<path d="M28.604,37.254c0,0.049,0.063,0.103,0.132,0.103c0.021,0,0.043,0,0.063-0.013v0.219c-0.067,0.021-0.122,0.028-0.215,0.028
			c-0.125,0-0.247-0.134-0.256-0.248c-0.134,0.101-0.323,0.248-0.549,0.248c-0.385,0-0.625-0.199-0.601-0.537
			c0.019-0.286,0.184-0.398,0.361-0.452c0.313-0.091,0.473-0.061,0.638-0.101c0.036-0.007,0.139-0.04,0.139-0.132v-0.204
			c-0.023-0.121-0.264-0.178-0.447-0.178c-0.326,0-0.346,0.241-0.353,0.319h-0.26l0.011-0.151c0.022-0.099,0.105-0.254,0.286-0.338
			c0.088-0.045,0.198-0.076,0.355-0.076c0.092,0,0.187,0.003,0.295,0.028c0.217,0.049,0.395,0.162,0.4,0.334V37.254z M28.319,36.672
			c-0.224,0.087-0.533,0.082-0.694,0.152c-0.05,0.025-0.161,0.107-0.166,0.236c-0.006,0.213,0.151,0.291,0.303,0.296
			c0.375,0.009,0.557-0.284,0.557-0.34V36.672z"/>
		<path d="M29.375,35.791v0.217h0.006c0.054-0.082,0.126-0.156,0.192-0.189c0.082-0.061,0.217-0.08,0.342-0.077
			c0.124,0.003,0.239,0.027,0.282,0.045c0.085,0.048,0.237,0.132,0.273,0.388v1.343h-0.276v-1.2
			c0.003-0.213-0.155-0.325-0.345-0.325c-0.231,0-0.481,0.145-0.474,0.607v0.918h-0.275v-1.726H29.375z"/>
		<path d="M32.262,37.254c0,0.049,0.062,0.103,0.132,0.103c0.019,0,0.043,0,0.062-0.013v0.219c-0.065,0.021-0.122,0.028-0.213,0.028
			c-0.125,0-0.247-0.134-0.258-0.248c-0.133,0.101-0.322,0.248-0.548,0.248c-0.385,0-0.625-0.199-0.602-0.537
			c0.019-0.286,0.185-0.398,0.361-0.452c0.313-0.091,0.475-0.061,0.639-0.101c0.036-0.007,0.138-0.04,0.138-0.132v-0.204
			c-0.024-0.121-0.263-0.178-0.447-0.178c-0.327,0-0.347,0.241-0.353,0.319h-0.26l0.011-0.151c0.022-0.099,0.104-0.254,0.285-0.338
			c0.089-0.045,0.198-0.076,0.356-0.076c0.091,0,0.187,0.003,0.294,0.028c0.218,0.049,0.396,0.162,0.402,0.334V37.254z
			 M31.976,36.672c-0.223,0.087-0.532,0.082-0.694,0.152c-0.049,0.025-0.161,0.107-0.165,0.236
			c-0.007,0.213,0.151,0.291,0.303,0.296c0.375,0.009,0.556-0.284,0.556-0.34V36.672z"/>
		<path d="M34.152,35.118v2.402h-0.24v-0.201c-0.052,0.063-0.138,0.147-0.236,0.206c-0.067,0.044-0.178,0.065-0.297,0.065
			c-0.118,0-0.247-0.021-0.346-0.066c-0.255-0.129-0.391-0.432-0.417-0.749c-0.03-0.311,0.049-0.637,0.221-0.811
			c0.165-0.172,0.346-0.227,0.507-0.224c0.161,0,0.299,0.056,0.374,0.105c0.079,0.049,0.132,0.108,0.151,0.154h0.007v-0.883H34.152z
			 M33.43,37.333c0.134-0.011,0.266-0.076,0.331-0.188c0.224-0.375,0.077-0.833-0.015-0.958c-0.073-0.101-0.209-0.16-0.344-0.163
			c-0.133-0.009-0.273,0.045-0.361,0.166c-0.146,0.201-0.188,0.691,0.026,0.984C33.156,37.293,33.294,37.343,33.43,37.333z"/>
		<path d="M35.919,37.254c0,0.049,0.063,0.103,0.131,0.103c0.021,0,0.043,0,0.063-0.013v0.219c-0.065,0.021-0.121,0.028-0.215,0.028
			c-0.124,0-0.246-0.134-0.256-0.248c-0.135,0.101-0.322,0.248-0.55,0.248c-0.385,0-0.625-0.199-0.602-0.537
			c0.021-0.286,0.185-0.398,0.363-0.452c0.312-0.091,0.473-0.061,0.638-0.101c0.037-0.007,0.139-0.04,0.139-0.132v-0.204
			c-0.023-0.121-0.263-0.178-0.447-0.178c-0.326,0-0.346,0.241-0.352,0.319h-0.26l0.01-0.151c0.023-0.099,0.106-0.254,0.286-0.338
			c0.088-0.045,0.198-0.076,0.355-0.076c0.092,0,0.187,0.003,0.296,0.028c0.217,0.049,0.395,0.162,0.401,0.334V37.254z
			 M35.633,36.672c-0.224,0.087-0.533,0.082-0.694,0.152c-0.05,0.025-0.162,0.107-0.164,0.236c-0.006,0.213,0.151,0.291,0.301,0.296
			c0.375,0.009,0.557-0.284,0.557-0.34V36.672z"/>
	</g>
	<g>
		<path d="M45.241,32.975h1.008v1.286h-0.198l-0.072-0.297c-0.188,0.169-0.384,0.354-0.846,0.36
			c-0.232,0.002-0.535-0.132-0.65-0.231c-0.309-0.27-0.425-0.677-0.421-1.016c0.003-0.342,0.112-0.75,0.421-1.02
			c0.115-0.099,0.405-0.243,0.736-0.246c0.182-0.01,0.378,0.022,0.514,0.095c0.408,0.221,0.464,0.513,0.486,0.668h-0.303
			c-0.017-0.201-0.252-0.486-0.697-0.486c-0.213,0-0.434,0.075-0.582,0.23c-0.16,0.166-0.269,0.46-0.263,0.755
			c-0.006,0.294,0.103,0.586,0.263,0.754c0.148,0.153,0.369,0.23,0.582,0.23c0.174,0,0.313-0.043,0.421-0.115
			c0.368-0.246,0.329-0.543,0.333-0.691h-0.731V32.975z"/>
		<path d="M47.373,34.324c-0.315,0-0.779-0.158-0.779-0.928s0.464-0.925,0.779-0.925c0.316,0,0.779,0.155,0.779,0.925
			S47.689,34.324,47.373,34.324z M47.373,32.748c-0.361,0-0.496,0.365-0.496,0.648s0.135,0.65,0.496,0.65
			c0.365,0,0.497-0.367,0.497-0.65S47.738,32.748,47.373,32.748z"/>
		<path d="M49.613,34.248v-0.185h-0.007c-0.053,0.082-0.126,0.154-0.191,0.188c-0.088,0.052-0.223,0.072-0.348,0.072
			c-0.122,0-0.234-0.021-0.276-0.04c-0.128-0.068-0.24-0.201-0.273-0.388v-1.375h0.276v1.22c-0.003,0.129,0.046,0.223,0.131,0.276
			c0.043,0.026,0.096,0.043,0.155,0.046c0.059,0.007,0.125,0,0.194-0.02c0.3-0.104,0.339-0.362,0.339-0.585v-0.938h0.275v1.727
			H49.613z"/>
		<path d="M50.771,34.248l-0.605-1.727h0.309l0.448,1.397l0.5-1.397h0.309l-0.66,1.727H50.771z"/>
		<path d="M52.205,33.494c-0.011,0.122-0.004,0.221,0.095,0.376c0.075,0.102,0.188,0.213,0.388,0.213c0.342,0,0.421-0.263,0.46-0.36
			h0.28c-0.022,0.104-0.05,0.223-0.154,0.344c-0.128,0.172-0.353,0.258-0.582,0.258c-0.228,0-0.46-0.09-0.609-0.277
			c-0.114-0.148-0.177-0.397-0.174-0.65c0.003-0.254,0.072-0.507,0.215-0.665c0.187-0.21,0.42-0.275,0.634-0.26
			c0.213,0.017,0.407,0.115,0.513,0.247c0.188,0.254,0.19,0.457,0.194,0.775H52.205z M53.164,33.251
			c0.01-0.16-0.082-0.354-0.125-0.4c-0.035-0.076-0.161-0.138-0.299-0.151c-0.135-0.013-0.286,0.026-0.378,0.151
			c-0.043,0.039-0.142,0.227-0.147,0.4H53.164z"/>
		<path d="M53.832,32.521h0.276v0.27h0.006c0.103-0.197,0.268-0.309,0.393-0.319h0.153v0.29c-0.101,0-0.187,0.013-0.262,0.039
			c-0.194,0.089-0.29,0.25-0.29,0.55v0.897h-0.276V32.521z"/>
		<path d="M55.207,32.521v0.217h0.007c0.053-0.082,0.125-0.154,0.19-0.187c0.082-0.063,0.217-0.082,0.343-0.08
			c0.124,0.004,0.239,0.027,0.282,0.047c0.086,0.046,0.236,0.131,0.272,0.389v1.341h-0.276v-1.2
			c0.004-0.214-0.154-0.326-0.346-0.326c-0.229,0-0.479,0.145-0.473,0.608v0.918H54.93v-1.727H55.207z"/>
		<path d="M56.957,33.494c-0.01,0.122-0.004,0.221,0.095,0.376c0.075,0.102,0.188,0.213,0.388,0.213c0.342,0,0.421-0.263,0.461-0.36
			h0.279c-0.022,0.104-0.049,0.223-0.155,0.344c-0.127,0.172-0.352,0.258-0.581,0.258c-0.227,0-0.461-0.09-0.608-0.277
			c-0.115-0.148-0.178-0.397-0.174-0.65c0.002-0.254,0.071-0.507,0.213-0.665c0.188-0.21,0.421-0.275,0.635-0.26
			c0.215,0.017,0.407,0.115,0.514,0.247c0.188,0.254,0.19,0.457,0.193,0.775H56.957z M57.916,33.251
			c0.011-0.16-0.082-0.354-0.124-0.4c-0.036-0.076-0.162-0.138-0.3-0.151c-0.135-0.013-0.286,0.026-0.378,0.151
			c-0.043,0.039-0.142,0.227-0.148,0.4H57.916z"/>
		<path d="M58.591,32.521h0.276v0.221h0.007c0.039-0.066,0.099-0.162,0.174-0.201c0.078-0.042,0.19-0.069,0.325-0.069
			c0.106,0,0.198,0,0.286,0.066c0.063,0.046,0.115,0.085,0.182,0.193c0.072-0.088,0.128-0.167,0.233-0.213
			c0.072-0.034,0.178-0.047,0.253-0.047c0.119-0.002,0.237,0.007,0.319,0.053c0.112,0.063,0.221,0.218,0.221,0.375v1.349H60.59
			v-1.232c-0.035-0.228-0.16-0.294-0.332-0.294c-0.249,0-0.368,0.178-0.392,0.355v1.171H59.59v-1.24
			c-0.022-0.227-0.18-0.286-0.318-0.286c-0.217,0-0.389,0.178-0.404,0.415v1.111h-0.276V32.521z"/>
		<path d="M61.525,33.494c-0.011,0.122-0.004,0.221,0.094,0.376c0.076,0.102,0.188,0.213,0.389,0.213c0.342,0,0.421-0.263,0.46-0.36
			h0.28c-0.023,0.104-0.05,0.223-0.155,0.344c-0.127,0.172-0.352,0.258-0.581,0.258c-0.229,0-0.461-0.09-0.609-0.277
			c-0.114-0.148-0.177-0.397-0.174-0.65c0.003-0.254,0.072-0.507,0.214-0.665c0.188-0.21,0.421-0.275,0.635-0.26
			c0.213,0.017,0.407,0.115,0.513,0.247c0.188,0.254,0.19,0.457,0.194,0.775H61.525z M62.484,33.251
			c0.01-0.16-0.082-0.354-0.125-0.4c-0.036-0.076-0.161-0.138-0.299-0.151c-0.135-0.013-0.286,0.026-0.378,0.151
			c-0.043,0.039-0.143,0.227-0.148,0.4H62.484z"/>
		<path d="M63.433,32.521v0.217h0.006c0.052-0.082,0.125-0.154,0.19-0.187c0.082-0.063,0.217-0.082,0.342-0.08
			c0.126,0.004,0.24,0.027,0.283,0.047c0.086,0.046,0.237,0.131,0.272,0.389v1.341H64.25v-1.2c0.004-0.214-0.153-0.326-0.345-0.326
			c-0.229,0-0.48,0.145-0.473,0.608v0.918h-0.277v-1.727H63.433z"/>
		<path d="M65.315,32.521h0.273v0.253h-0.273v1.197c0,0.108,0.12,0.115,0.273,0.089v0.243c-0.114,0.021-0.19,0.03-0.299,0.021
			c-0.191-0.021-0.25-0.179-0.25-0.244v-1.306H64.8v-0.253h0.24v-0.467h0.275V32.521z"/>
		<path d="M45.544,35.14v2.401h-0.239v-0.2c-0.053,0.061-0.139,0.146-0.237,0.206c-0.065,0.043-0.178,0.065-0.296,0.065
			c-0.117,0-0.246-0.022-0.346-0.07c-0.256-0.126-0.391-0.429-0.417-0.745c-0.029-0.313,0.049-0.638,0.221-0.813
			c0.164-0.171,0.345-0.227,0.507-0.224c0.161,0,0.299,0.057,0.374,0.106c0.079,0.049,0.131,0.108,0.151,0.153h0.006V35.14H45.544z
			 M44.82,37.352c0.135-0.009,0.268-0.074,0.333-0.187c0.225-0.374,0.075-0.832-0.017-0.957c-0.072-0.102-0.207-0.161-0.342-0.163
			c-0.135-0.008-0.273,0.045-0.361,0.167c-0.146,0.2-0.188,0.691,0.026,0.983C44.548,37.313,44.687,37.363,44.82,37.352z"/>
		<path d="M47.054,37.537v-0.186h-0.006c-0.053,0.083-0.125,0.156-0.19,0.189c-0.09,0.053-0.225,0.071-0.349,0.071
			c-0.123,0-0.233-0.019-0.276-0.039c-0.129-0.069-0.241-0.2-0.273-0.388v-1.374h0.277v1.219c-0.004,0.129,0.045,0.224,0.131,0.275
			c0.043,0.027,0.095,0.045,0.154,0.046c0.059,0.008,0.124,0,0.193-0.019c0.3-0.104,0.339-0.362,0.339-0.585v-0.937h0.276v1.726
			H47.054z"/>
		<path d="M50.35,35.88c-0.105-0.303-0.31-0.504-0.641-0.504c-0.191,0-0.386,0.076-0.517,0.231c-0.142,0.168-0.237,0.456-0.231,0.75
			c-0.006,0.292,0.09,0.581,0.231,0.747c0.131,0.156,0.325,0.231,0.517,0.231c0.352,0,0.568-0.22,0.689-0.678h0.316
			c-0.103,0.55-0.477,0.961-1.023,0.954c-0.299-0.002-0.563-0.147-0.664-0.245c-0.279-0.268-0.385-0.672-0.381-1.01
			c0.002-0.342,0.102-0.744,0.381-1.01c0.102-0.1,0.365-0.246,0.664-0.247c0.507-0.008,0.836,0.292,0.977,0.779H50.35z"/>
		<path d="M52.428,37.273c0,0.049,0.063,0.103,0.131,0.103c0.021,0,0.043,0,0.063-0.009v0.216c-0.065,0.02-0.122,0.029-0.214,0.029
			c-0.125,0-0.246-0.135-0.257-0.249c-0.135,0.102-0.322,0.249-0.549,0.249c-0.385,0-0.624-0.2-0.602-0.539
			c0.019-0.286,0.184-0.397,0.361-0.45c0.312-0.092,0.473-0.063,0.638-0.102c0.037-0.007,0.138-0.04,0.138-0.134v-0.202
			c-0.022-0.122-0.262-0.178-0.446-0.178c-0.326,0-0.346,0.239-0.353,0.319h-0.26l0.01-0.151c0.024-0.099,0.106-0.254,0.286-0.339
			c0.09-0.043,0.198-0.076,0.355-0.076c0.093,0,0.188,0.004,0.297,0.03c0.217,0.049,0.395,0.159,0.4,0.332V37.273z M52.142,36.692
			c-0.224,0.088-0.533,0.082-0.693,0.154c-0.049,0.023-0.161,0.105-0.165,0.232c-0.006,0.215,0.151,0.294,0.303,0.297
			c0.375,0.009,0.556-0.282,0.556-0.338V36.692z"/>
		<path d="M53.198,35.812v0.217h0.006c0.052-0.083,0.125-0.156,0.19-0.188c0.082-0.063,0.217-0.082,0.342-0.079
			c0.126,0.004,0.24,0.025,0.283,0.047c0.086,0.044,0.237,0.131,0.272,0.388v1.342h-0.275v-1.2c0.003-0.214-0.154-0.325-0.346-0.325
			c-0.229,0-0.48,0.144-0.473,0.606v0.919h-0.277v-1.726H53.198z"/>
		<path d="M56.085,37.273c0,0.049,0.063,0.103,0.132,0.103c0.02,0,0.043,0,0.062-0.009v0.216c-0.065,0.02-0.122,0.029-0.214,0.029
			c-0.125,0-0.246-0.135-0.256-0.249c-0.135,0.102-0.322,0.249-0.55,0.249c-0.384,0-0.624-0.2-0.602-0.539
			c0.021-0.286,0.185-0.397,0.362-0.45c0.313-0.092,0.474-0.063,0.638-0.102c0.036-0.007,0.139-0.04,0.139-0.134v-0.202
			c-0.023-0.122-0.264-0.178-0.447-0.178c-0.325,0-0.346,0.239-0.352,0.319h-0.26l0.009-0.151c0.023-0.099,0.105-0.254,0.286-0.339
			c0.089-0.043,0.197-0.076,0.355-0.076c0.092,0,0.188,0.004,0.296,0.03c0.217,0.049,0.395,0.159,0.401,0.332V37.273z
			 M55.799,36.692c-0.224,0.088-0.532,0.082-0.693,0.154c-0.05,0.023-0.162,0.105-0.165,0.232c-0.007,0.215,0.151,0.294,0.303,0.297
			c0.375,0.009,0.556-0.282,0.556-0.338V36.692z"/>
		<path d="M57.976,35.14v2.401h-0.239v-0.2c-0.054,0.061-0.139,0.146-0.237,0.206c-0.065,0.043-0.178,0.065-0.296,0.065
			c-0.119,0-0.246-0.022-0.346-0.07c-0.256-0.126-0.391-0.429-0.417-0.745c-0.029-0.313,0.049-0.638,0.221-0.813
			c0.163-0.171,0.345-0.227,0.505-0.224c0.161,0,0.3,0.057,0.376,0.106c0.079,0.049,0.131,0.108,0.151,0.153h0.006V35.14H57.976z
			 M57.252,37.352c0.135-0.009,0.268-0.074,0.333-0.187c0.223-0.374,0.075-0.832-0.017-0.957c-0.073-0.102-0.208-0.161-0.342-0.163
			c-0.135-0.008-0.273,0.045-0.363,0.167c-0.144,0.2-0.187,0.691,0.027,0.983C56.979,37.313,57.117,37.363,57.252,37.352z"/>
		<path d="M59.741,37.273c0,0.049,0.063,0.103,0.133,0.103c0.019,0,0.043,0,0.062-0.009v0.216c-0.065,0.02-0.121,0.029-0.213,0.029
			c-0.125,0-0.247-0.135-0.257-0.249c-0.136,0.102-0.323,0.249-0.549,0.249c-0.386,0-0.625-0.2-0.603-0.539
			c0.021-0.286,0.185-0.397,0.362-0.45c0.313-0.092,0.474-0.063,0.638-0.102c0.036-0.007,0.139-0.04,0.139-0.134v-0.202
			c-0.024-0.122-0.264-0.178-0.448-0.178c-0.325,0-0.345,0.239-0.352,0.319h-0.26l0.011-0.151c0.022-0.099,0.104-0.254,0.286-0.339
			c0.088-0.043,0.196-0.076,0.354-0.076c0.092,0,0.188,0.004,0.296,0.03c0.217,0.049,0.395,0.159,0.4,0.332V37.273z M59.455,36.692
			c-0.223,0.088-0.532,0.082-0.693,0.154c-0.049,0.023-0.161,0.105-0.165,0.232c-0.006,0.215,0.151,0.294,0.303,0.297
			c0.376,0.009,0.556-0.282,0.556-0.338V36.692z"/>
	</g>
	<g>
		<g>
			<rect x="4.552" y="31.985" fill="#EC1C24" width="2.742" height="5.583"/>
		</g>
		<g>
			<path fill="#EC1C24" d="M9.965,33.191l0.392-0.797l0.389,0.769c0.049,0.081,0.087,0.074,0.166,0.036l0.334-0.166l-0.218,1.073
				c-0.045,0.209,0.075,0.271,0.205,0.128l0.477-0.508l0.126,0.288c0.042,0.088,0.107,0.073,0.191,0.06l0.492-0.104l-0.165,0.621
				l-0.003,0.014c-0.02,0.081-0.059,0.149,0.033,0.188l0.175,0.086l-1.014,0.86c-0.104,0.106-0.068,0.14-0.029,0.259l0.093,0.289
				l-0.946-0.172c-0.116-0.03-0.197-0.03-0.201,0.064l0.04,1.086h-0.286l0.039-1.084c0-0.107-0.081-0.103-0.272-0.063l-0.875,0.168
				l0.113-0.289c0.039-0.109,0.049-0.185-0.039-0.259l-1.038-0.845l0.192-0.117c0.055-0.043,0.058-0.088,0.029-0.183L8.17,33.963
				l0.499,0.107c0.14,0.032,0.178,0,0.214-0.077l0.14-0.286l0.492,0.558c0.088,0.104,0.21,0.036,0.172-0.113L9.45,32.988
				l0.366,0.211c0.058,0.034,0.12,0.045,0.155-0.023"/>
		</g>
		<g>
			<rect x="13.362" y="31.99" fill="#EC1C24" width="2.742" height="5.584"/>
		</g>
	</g>
</g>
</svg>
