<?xml version="1.0" encoding="utf-8"?>
<!-- Generator: Adobe Illustrator 16.0.3, SVG Export Plug-In . SVG Version: 6.00 Build 0)  -->
<!DOCTYPE svg PUBLIC "-//W3C//DTD SVG 1.1//EN" "http://www.w3.org/Graphics/SVG/1.1/DTD/svg11.dtd">
<svg version="1.1" id="Layer_1" xmlns="http://www.w3.org/2000/svg" xmlns:xlink="http://www.w3.org/1999/xlink" x="0px" y="0px"
	 width="50.147px" height="57.92px" viewBox="9.224 5.347 50.147 57.92" enable-background="new 9.224 5.347 50.147 57.92"
	 xml:space="preserve">
<g>
	<path fill="#6A747C" d="M52.058,53.783v5.088c0,0.275,0.139,0.457,0.51,0.457h3.422v-1.197h-2.497v-1.018h2.127v-1.158h-2.127
		v-0.967h2.451v-1.203h-3.886V53.783z M20.381,53.783h-1.386v3.004l-1.343-2.496c-0.139-0.23-0.324-0.508-0.879-0.508h-0.971v5.545
		h1.341v-3.045l1.342,2.539c0.139,0.279,0.325,0.508,0.88,0.508h1.016V53.783z M41.004,55.541c0,0.369-0.276,0.598-0.645,0.598
		h-0.787v-1.203h0.787C40.773,54.936,41.004,55.172,41.004,55.541z M38.138,53.783v5.545h1.435v-2.029h0.925
		c1.11,0,1.896-0.742,1.896-1.805c0-1.02-0.694-1.711-1.896-1.711H38.138z M35.341,55.541c0,0.369-0.276,0.598-0.647,0.598h-0.971
		v-1.203h0.971C35.064,54.936,35.341,55.172,35.341,55.541z M32.288,53.783v5.545h1.435v-2.029h0.646l0.926,2.029h1.619l-1.158-2.26
		c0.558-0.279,0.974-0.832,0.974-1.525c0-1.158-0.833-1.758-1.943-1.758h-2.498V53.783z M26.949,53.783v5.088
		c0,0.275,0.138,0.457,0.508,0.457h3.423v-1.197h-2.498v-1.018h2.128v-1.158h-2.128v-0.967h2.452v-1.203h-3.885V53.783z
		 M43.275,53.783c0.187,0.23,0.232,0.553,0.232,0.783v4.762h1.572v-5.545H43.275z M25.744,53.783h-4.208v1.205h1.295v4.34h1.526
		v-4.34h1.387V53.783z M12.421,53.783c0.093,0.139,0.185,0.414,0.185,0.783v4.762h1.572v-5.545H12.421z M49.58,55.541
		c0,0.369-0.276,0.598-0.646,0.598h-0.785v-1.203h0.785C49.35,54.936,49.58,55.172,49.58,55.541z M46.713,53.783v5.545h1.436v-2.029
		h0.925c1.109,0,1.894-0.742,1.894-1.805c0-1.02-0.692-1.711-1.894-1.711H46.713z"/>
	<path fill="#FFDD00" d="M21.747,48.135H13.3c-0.658,0-1.127-0.514-1.127-1.127V30.621C17.025,34.139,21.17,40.238,21.747,48.135z
		 M46.82,9.286h8.476c0.61,0,1.126,0.517,1.126,1.126v16.622C51.02,22.996,47.313,16.755,46.82,9.286z M56.422,28.013v18.995
		c0,0.613-0.516,1.127-1.126,1.127H22.571c0.626-8.787,5.236-14.744,10.783-18.435c0.598-0.395,0.397-0.938-0.317-0.566
		c-3.905,2.027-7.677,2.619-10.869,2.619c-5.87,0-9.992-2.156-9.992-2.156V10.41c0-0.609,0.469-1.126,1.127-1.126h32.714
		c-0.524,9.14-5.721,15.242-10.804,18.586c-0.563,0.372-0.361,0.917,0.28,0.586c4.057-2.106,7.747-2.642,10.938-2.642
		C52.239,25.816,56.422,28.013,56.422,28.013z"/>
</g>
</svg>
