<?xml version="1.0" encoding="utf-8"?>
<!-- Generator: Adobe Illustrator 16.0.3, SVG Export Plug-In . SVG Version: 6.00 Build 0)  -->
<!DOCTYPE svg PUBLIC "-//W3C//DTD SVG 1.1//EN" "http://www.w3.org/Graphics/SVG/1.1/DTD/svg11.dtd">
<svg version="1.1" id="Layer_1" xmlns="http://www.w3.org/2000/svg" xmlns:xlink="http://www.w3.org/1999/xlink" x="0px" y="0px"
	 width="165px" height="30px" viewBox="0 0 165 30" enable-background="new 0 0 165 30" xml:space="preserve">
<g>
	<g>
		<polygon fill-rule="evenodd" clip-rule="evenodd" points="21.938,24.395 21.938,27.894 0,27.894 0,3.771 3.95,3.771 3.95,24.395 
			21.938,24.395 		"/>
		<polygon fill-rule="evenodd" clip-rule="evenodd" points="18.872,12.545 23.26,4.208 19.083,4.208 15.796,12.545 18.872,12.545 		
			"/>
		<path fill-rule="evenodd" clip-rule="evenodd" d="M54.744,7.733c-1.421-2.249-3.496-4.117-5.947-5.401
			c-2.446-1.292-5.256-1.966-8.086-1.966c-2.809,0-5.624,0.675-8.069,1.966c-2.454,1.284-4.529,3.152-5.954,5.401
			c-1.421,2.236-2.19,4.827-2.19,7.429c0,2.59,0.77,5.189,2.19,7.418c1.425,2.255,3.5,4.13,5.954,5.416
			c2.446,1.286,5.26,1.963,8.069,1.963c2.83,0,5.64-0.677,8.086-1.963c2.451-1.286,4.526-3.161,5.947-5.416
			c1.426-2.229,2.194-4.828,2.194-7.418C56.938,12.56,56.17,9.969,54.744,7.733L54.744,7.733L54.744,7.733L54.744,7.733z
			 M51.329,21.065c-1.057,1.768-2.612,3.236-4.451,4.25c-1.829,1.015-3.945,1.551-6.052,1.551c-2.115,0-4.226-0.536-6.065-1.551
			c-1.839-1.014-3.383-2.482-4.445-4.25c-1.058-1.753-1.634-3.786-1.634-5.824c0-2.023,0.576-4.052,1.634-5.808
			c1.062-1.753,2.606-3.236,4.445-4.25c1.839-1.009,3.95-1.551,6.065-1.551c2.107,0,4.223,0.542,6.052,1.551
			c1.839,1.014,3.395,2.497,4.451,4.25c1.062,1.756,1.636,3.785,1.636,5.808C52.965,17.279,52.391,19.313,51.329,21.065
			L51.329,21.065L51.329,21.065L51.329,21.065z"/>
		<path fill-rule="evenodd" clip-rule="evenodd" d="M84.481,14.176c-0.717,1.569-2.065,2.489-3.121,3.03
			c-1.058,0.547-1.818,0.742-2.59,0.717l0,0l7.687,9.971h-4.395l-7.425-9.646h-9.686v9.646h-3.953V3.771h15.806l0,0
			c1.584,0,3.212,0.318,4.64,1.115c1.429,0.805,2.662,2.026,3.237,3.758C85.266,10.369,85.195,12.598,84.481,14.176L84.481,14.176z
			 M80.063,14.006c0.829-0.7,1.327-1.849,1.274-3c-0.039-1.149-0.613-2.282-1.439-2.976c-0.828-0.692-1.888-0.753-2.88-0.753l0,0
			H64.951v7.467h12.066l0,0C78.084,14.745,79.237,14.711,80.063,14.006L80.063,14.006z"/>
		<polygon fill-rule="evenodd" clip-rule="evenodd" points="107.297,14.082 107.297,17.374 93.906,17.374 93.906,24.395 
			111.908,24.395 111.908,27.894 89.963,27.894 89.963,3.771 111.908,3.771 111.908,7.277 93.906,7.277 93.906,14.082 
			107.297,14.082 		"/>
		<polygon fill-rule="evenodd" clip-rule="evenodd" points="107.52,0.04 101.59,0.04 99.177,3.113 107.52,0.04 		"/>
		<path fill-rule="evenodd" clip-rule="evenodd" d="M119.641,21.761l-3.129,6.133h-3.948l12.288-24.123h3.948l12.29,24.123h-3.951
			l-3.126-6.133H119.641L119.641,21.761z M126.827,7.649l-5.628,11.034h11.252L126.827,7.649L126.827,7.649z"/>
		<polygon fill-rule="evenodd" clip-rule="evenodd" points="165,24.395 165,27.894 143.06,27.894 143.06,3.771 147.013,3.771 
			147.013,24.395 165,24.395 		"/>
	</g>
</g>
</svg>
