<?xml version="1.0" encoding="utf-8"?>
<!-- Generator: Adobe Illustrator 16.0.3, SVG Export Plug-In . SVG Version: 6.00 Build 0)  -->
<!DOCTYPE svg PUBLIC "-//W3C//DTD SVG 1.1//EN" "http://www.w3.org/Graphics/SVG/1.1/DTD/svg11.dtd">
<svg version="1.1" id="Layer_1" xmlns="http://www.w3.org/2000/svg" xmlns:xlink="http://www.w3.org/1999/xlink" x="0px" y="0px"
	 width="120px" height="18.09px" viewBox="39.5 5.955 120 18.09" enable-background="new 39.5 5.955 120 18.09"
	 xml:space="preserve">
<g>
	<rect x="39.5" y="5.933" fill="#B91222" width="18.118" height="18.135"/>
	<g>
		<rect x="57.618" y="5.933" fill="#005995" width="18.119" height="18.135"/>
		<path fill="#005995" d="M66.678,15"/>
	</g>
	<g>
		<path fill="#FBAE17" d="M61.843,18.644l0.408,0.409l1.152-1.154c-0.127-0.146-0.247-0.298-0.354-0.46L61.843,18.644z"/>
		<path fill="#FBAE17" d="M62.667,19.47l0.408,0.409l1.207-1.209c-0.162-0.107-0.315-0.228-0.462-0.354L62.667,19.47z"/>
		<path fill="#FBAE17" d="M70.29,19.868l0.407-0.407l-1.153-1.155c-0.145,0.128-0.297,0.248-0.46,0.356L70.29,19.868z"/>
		<path fill="#FBAE17" d="M69.961,17.888l1.153,1.155l0.407-0.407l-1.208-1.209C70.207,17.589,70.088,17.742,69.961,17.888z"/>
		<path fill="#FBAE17" d="M71.513,11.414l-0.408-0.408l-1.153,1.154c0.128,0.146,0.248,0.298,0.355,0.46L71.513,11.414z"/>
		<path fill="#FBAE17" d="M70.688,10.589l-0.407-0.408l-1.208,1.209c0.163,0.106,0.315,0.226,0.462,0.354L70.688,10.589z"/>
		<path fill="#FBAE17" d="M63.075,10.181l-0.408,0.408l1.153,1.154c0.146-0.128,0.3-0.247,0.462-0.354L63.075,10.181z"/>
		<path fill="#FBAE17" d="M62.251,11.006l-0.408,0.408l1.206,1.206c0.107-0.162,0.228-0.314,0.354-0.46L62.251,11.006z"/>
		<path fill="#FBAE17" d="M62.384,14.328l-3.722,0.675l3.718,0.7c-0.035-0.221-0.058-0.444-0.058-0.675
			C62.322,14.789,62.347,14.557,62.384,14.328z"/>
		<path fill="#FBAE17" d="M65.977,19.327l0.675,3.725l0.699-3.721c-0.22,0.035-0.443,0.059-0.673,0.059
			C66.438,19.39,66.206,19.365,65.977,19.327z"/>
		<path fill="#FBAE17" d="M70.976,15.704l3.718-0.676l-3.722-0.7c0.037,0.229,0.062,0.462,0.062,0.7
			C71.033,15.259,71.01,15.482,70.976,15.704z"/>
		<path fill="#FBAE17" d="M67.351,10.728l-0.673-3.722l-0.7,3.726c0.229-0.038,0.461-0.062,0.7-0.062
			C66.907,10.669,67.131,10.692,67.351,10.728z"/>
	</g>
	<g>
		<path fill="#005995" d="M87.589,17.317l-3.995-7.113h-0.432l-0.654,7.44c-0.093,1.009-0.25,1.44-0.839,1.571v0.289
			c0.393,0,0.786-0.053,1.178-0.053c0.394,0,0.787,0.053,1.179,0.053v-0.289c-0.55-0.104-0.746-0.458-0.746-1.139
			c0-0.275,0.039-0.669,0.053-0.852l0.223-3.891h0.026l3.72,6.209l2.96-6.065h0.025l0.341,3.943
			c0.026,0.183,0.053,0.472,0.053,0.891c0,0.433-0.158,0.852-0.59,0.903v0.289c0.458,0,0.903-0.053,1.361-0.053
			c0.459,0,0.905,0.053,1.363,0.053v-0.289c-0.538-0.025-0.682-0.615-0.734-1.271l-0.588-7.741h-0.392L87.589,17.317z"/>
		<path fill="#005995" d="M112.456,12.208c0.052-0.563,0.471-1.074,1.074-1.074h4.413l-6.142,8.318h6.653
			c0.59,0,1.034,0.025,1.427,0.209l0.354-1.82l-0.485-0.052c-0.249,0.667-0.799,0.877-2.867,0.877c-0.943,0-1.887-0.052-2.829-0.065
			l6.365-8.187h-7.769c-0.222,0-0.444-0.039-0.693-0.105v1.86L112.456,12.208z"/>
		<path fill="#005995" d="M159.382,10.716c-0.785-0.406-1.676-0.511-2.554-0.511c-1.664,0-3.065,1.112-3.065,2.854
			c0,3.42,4.467,2.083,4.467,4.389c0,1.008-0.786,1.663-1.769,1.663c-0.852,0-1.768-0.59-1.978-1.454h-0.471l0.132,1.402
			c0.432,0.288,1.479,0.602,2.331,0.602c1.546,0,3.024-0.969,3.024-2.659c0-3.549-4.466-1.847-4.466-4.61
			c0-0.917,0.813-1.637,1.702-1.637c0.982,0,1.794,0.393,2.148,1.389h0.497V10.716L159.382,10.716z"/>
		<path fill="#005995" d="M103.559,16.846l0.458,1.218c0.092,0.263,0.158,0.485,0.158,0.668c0,0.301-0.158,0.484-0.434,0.484v0.289
			c0.445,0,0.878-0.053,1.323-0.053s0.878,0.053,1.322,0.053v-0.289c-0.47-0.052-0.589-0.484-1.046-1.649l-2.869-7.361h-0.158
			l-2.789,7.047c-0.249,0.629-0.747,1.859-1.271,1.964v0.289c0.379,0,0.746-0.053,1.126-0.053s0.747,0.053,1.126,0.053v-0.289
			c-0.315,0-0.472-0.248-0.472-0.563c0-0.145,0.026-0.433,0.093-0.655l0.353-1.152H103.559z M100.729,16.217L102,12.771l1.322,3.445
			H100.729z"/>
		<path fill="#005995" d="M130.73,16.846l0.459,1.218c0.091,0.263,0.157,0.485,0.157,0.668c0,0.301-0.157,0.484-0.433,0.484v0.289
			c0.445,0,0.878-0.053,1.323-0.053c0.446,0,0.878,0.053,1.323,0.053v-0.289c-0.472-0.052-0.591-0.484-1.049-1.649l-2.867-7.361
			h-0.157l-2.79,7.047c-0.249,0.629-0.747,1.859-1.271,1.964v0.289c0.38,0,0.747-0.053,1.126-0.053c0.38,0,0.747,0.053,1.128,0.053
			v-0.289c-0.315,0-0.472-0.248-0.472-0.563c0-0.145,0.026-0.433,0.091-0.655l0.354-1.152H130.73z M127.901,16.217l1.271-3.445
			l1.323,3.445H127.901z"/>
		<path fill="#005995" d="M142.018,11.2c0-0.328,0.366-0.367,0.707-0.367c1.428,0,1.978,1.074,1.978,2.279
			c0,1.245-1.034,2.057-2.239,2.057c-0.157,0-0.314-0.026-0.512-0.039L142.018,11.2z M139.895,19.504
			c0.473,0,0.918-0.052,1.39-0.052s0.93,0.052,1.4,0.052v-0.288c-0.668-0.144-0.733-0.537-0.733-1.088v-2.593
			c0.314,0,0.59,0.34,0.787,0.564l2.173,2.54c0.157,0.184,0.197,0.302,0.197,0.419c-0.013,0.092-0.053,0.144-0.144,0.157v0.288
			c0.432,0,0.864-0.052,1.296-0.052c0.433,0,0.878,0.052,1.31,0.052v-0.288c-0.353-0.065-0.798-0.498-0.995-0.733l-2.646-3.064
			c1.167-0.289,2.371-1.141,2.371-2.463c0-1.415-1.152-2.594-3.511-2.594c-0.982,0-1.375,0.053-1.769,0.053
			c-0.419,0-0.852-0.053-1.27-0.053v0.288c0.667,0.132,0.733,0.459,0.733,1.074c0,1.113,0.064,2.24,0.064,3.366v3.366
			c0,0.445-0.209,0.655-0.655,0.76V19.504L139.895,19.504z"/>
	</g>
	<path fill="#FBAE17" d="M48.72,17.68l3.659-7.485h0.222l0.38,7.78c0.053,1.058,0.131,1.175,0.706,1.267v0.234
		c-0.38,0-0.771-0.051-1.229-0.051c-0.38,0-0.771,0.051-1.098,0.051v-0.234c0.549-0.039,0.653-0.418,0.653-0.889
		c0-0.496-0.027-0.914-0.04-1.125l-0.261-4.641H51.66l-3.235,6.603l-3.771-6.615H44.59l-0.248,4.104
		c-0.026,0.34-0.026,0.941-0.026,1.281c0,0.915,0.364,1.229,0.809,1.281v0.234c-0.365,0-0.744-0.051-1.136-0.051
		c-0.379,0-0.744,0.051-1.123,0.051v-0.234c0.693-0.157,0.797-0.379,0.875-1.517l0.497-7.53h0.234L48.72,17.68z"/>
</g>
</svg>
