<?xml version="1.0" encoding="utf-8"?>
<!-- Generator: Adobe Illustrator 16.0.3, SVG Export Plug-In . SVG Version: 6.00 Build 0)  -->
<!DOCTYPE svg PUBLIC "-//W3C//DTD SVG 1.1//EN" "http://www.w3.org/Graphics/SVG/1.1/DTD/svg11.dtd">
<svg version="1.1" id="Layer_1" xmlns="http://www.w3.org/2000/svg" xmlns:xlink="http://www.w3.org/1999/xlink" x="0px" y="0px"
	 width="200px" height="40px" viewBox="0 0 200 40" enable-background="new 0 0 200 40" xml:space="preserve">
<g>
	<path fill="#FFD300" d="M18.786,31.986c-8.096-0.772-15.261-4.659-17.916-9.141c0.138,0.84,1.096,2.677,1.535,3.887
		c0.319,0.884,0.784,1.606,1,2.257c3.352,2.373,7.197,3.611,12.484,4.115c5.451,0.521,10.244-0.146,14.023-1.95
		C26.597,31.998,22.943,32.382,18.786,31.986"/>
	<path fill="#FFD300" d="M12.478,15.687C9.691,12.658,7.188,9.595,5.021,6.61C4.729,6.993,4.4,7.441,4.056,7.949
		c-0.477,0.695-0.861,1.348-1.15,1.892C5.038,12.176,7.4,14.535,9.96,16.85c7.295,6.598,14.404,10.88,20.084,13.97
		C24.923,27.051,18.716,22.463,12.478,15.687"/>
	<path fill="#FFD300" d="M23.994,10.334c-2.083-4.147-3.713-6.892-6.113-10.112c-0.312,0.033-0.835,0.295-1.757,0.439
		c-0.691,0.109-1.392,0.038-1.951,0.262c3.5,3.674,6.324,7.518,9.431,13.05c3.534,6.29,5.307,11.307,6.795,16.554
		C29.767,24.486,27.922,18.154,23.994,10.334"/>
	<path fill="#005A9D" d="M20.588,38.4c-10.126,0-18.334-7.938-18.334-17.729S10.412,3.227,20.538,3.227
		c9.929,0,18.063,7.346,18.375,16.874c0.009-0.245,0.016-0.492,0.016-0.738c0-10.685-8.715-19.345-19.464-19.345
		C8.714,0.018,0,8.678,0,19.362c0,10.683,8.714,19.341,19.464,19.341c2.095,0,4.113-0.329,6.004-0.938
		C23.914,38.178,22.278,38.4,20.588,38.4"/>
	<path fill="#B51E82" d="M10.1,11.178c6.939-7.072,17.734-7.609,24.112-1.196c3.895,3.918,5.441,9.826,4.111,14.896
		c1.803-6.031,0.699-12.866-3.882-17.473C27.733,0.659,16.42,1.081,9.481,8.157c-4.569,4.659-6.212,11.106-4.885,16.895
		C4.406,20.192,6.259,15.093,10.1,11.178"/>
	<path fill="#008F66" d="M37.974,21.11c-0.057-4.258-1.685-8.194-4.677-10.255c-5.787-3.981-14.778-0.867-20.382,7.318
		c-2.901,4.237-4.256,8.923-4.09,13.009c-1.284-4.792-0.227-10.73,3.296-15.876c5.605-8.185,15.32-11.261,21.701-6.87
		c3.779,2.601,5.615,7.273,5.257,12.324c0,0-0.114,1.455-0.25,2.091c-0.129,0.603-0.464,1.91-0.597,2.296
		C38.1,25.529,37.974,21.11,37.974,21.11"/>
	<path fill="#F26F21" d="M18.741,18.637c-5.715,6.061-7.008,14.121-2.888,18.006c0.183,0.174,0.373,0.333,0.571,0.483
		c-3.627-3.626-2.538-10.573,2.48-15.995c4.613-4.983,12.459-7.163,16.257-3.58c3.348,3.157,2.9,9.218-0.772,14.342
		c5.088-5.949,6.097-13.48,2.158-17.192C32.427,10.814,24.455,12.577,18.741,18.637"/>
	<path fill="#DA2128" d="M24.076,24.813c-3.847,3.342-5.133,8.159-2.873,10.762c1.771,2.039,5.193,2.111,8.442,0.439
		c-2.731,1.259-5.55,1.104-7.052-0.624c-2.006-2.309-0.907-6.545,2.45-9.464c3.36-2.916,7.708-3.412,9.712-1.104
		c1.503,1.729,1.264,4.541-0.365,7.07c2.108-2.983,2.514-6.383,0.744-8.42C32.874,20.872,27.922,21.471,24.076,24.813"/>
	<path fill="#DA2128" d="M69.013,22.877c-1.447,0.896-2.669,1.172-4.49,1.172h-2.345l-1.397,6.562h-2.893l3.691-17.238h4.489
		c2.122,0,3.393,0.324,4.242,0.898c1.023,0.699,1.572,1.82,1.572,3.068C71.882,19.908,70.708,21.804,69.013,22.877 M66.119,15.717
		h-2.17l-1.271,5.987h2.244c1.373,0,2.121-0.3,2.669-0.874c0.748-0.772,1.197-1.87,1.197-2.918
		C68.788,16.491,68.015,15.717,66.119,15.717"/>
	<path fill="#DA2128" d="M78.969,21.671c-0.221-0.132-0.441-0.176-0.771-0.176c-0.771,0-1.629,0.595-2.598,1.959l-1.519,7.154h-2.4
		l1.585-7.44c0.33-1.519,0.308-2.355,0.088-3.126l2.245-0.925c0.243,0.572,0.331,1.409,0.176,2.18
		c1.014-1.277,2.246-2.092,3.325-2.092c0.396,0,0.594,0.044,0.925,0.177L78.969,21.671z"/>
	<path fill="#DA2128" d="M82.864,30.873c-2.466,0-3.875-1.431-3.875-3.984c0-4.292,2.62-7.684,6.318-7.684
		c2.554,0,3.941,1.476,3.941,3.918C89.249,27.197,86.958,30.873,82.864,30.873 M84.934,21.055c-2.202,0-3.346,3.521-3.346,6.054
		c0,1.344,0.638,1.938,1.717,1.938c2.157,0,3.325-3.303,3.325-6.011C86.629,21.539,85.924,21.055,84.934,21.055"/>
	<path fill="#DA2128" d="M103.283,16.316c-0.773-0.699-1.696-0.973-2.794-0.973c-1.522,0-2.919,0.822-3.941,2.144
		c-1.423,1.822-2.247,5.289-2.247,7.386c0,2.47,1.249,3.767,3.493,3.767c1.147,0,2.121-0.375,3.367-1.174l1.023,1.896
		c-1.597,1.047-3.293,1.547-5.164,1.547c-3.667,0-5.837-2.32-5.837-6.137c0-2.769,1.047-6.087,2.819-8.281
		c1.771-2.221,4.364-3.418,6.909-3.418c1.671,0,3.167,0.523,4.016,1.372L103.283,16.316z"/>
	<path fill="#DA2128" d="M111.068,21.671c-0.22-0.132-0.44-0.176-0.771-0.176c-0.77,0-1.629,0.595-2.598,1.959l-1.519,7.154h-2.399
		l1.584-7.44c0.331-1.519,0.309-2.355,0.089-3.126l2.245-0.925c0.242,0.572,0.331,1.409,0.178,2.18
		c1.012-1.277,2.243-2.092,3.323-2.092c0.396,0,0.595,0.044,0.924,0.177L111.068,21.671z"/>
	<path fill="#DA2128" d="M119.917,24.489c-0.924,0.903-2.443,1.409-4.734,1.409c-0.615,0-1.144-0.088-1.342-0.088
		c-0.043,0.22-0.132,0.814-0.132,1.166c0,1.387,0.815,2.048,2.025,2.048c1.166,0,2.113-0.397,3.147-1.212l0.749,1.498
		c-1.344,1.079-2.663,1.585-4.535,1.585c-2.376,0-3.964-1.432-3.964-4.073c0-2.224,0.97-4.622,2.489-6.097
		c1.1-1.058,2.333-1.52,3.763-1.52c2.16,0,3.524,0.99,3.524,2.971C120.908,23.08,120.556,23.873,119.917,24.489 M117.077,21.011
		c-1.255,0-2.356,0.99-2.84,3.082c0.131,0,0.594,0.065,0.97,0.065c1.342,0,2.267-0.197,2.794-0.726
		c0.286-0.287,0.463-0.639,0.463-1.101C118.464,21.583,118.091,21.011,117.077,21.011"/>
	<path fill="#DA2128" d="M131.297,26.734c-0.506,2.356-0.417,3.061-0.109,3.59l-2.069,0.483c-0.286-0.352-0.462-0.902-0.418-1.607
		c-0.86,1.058-2.004,1.63-3.28,1.63c-2.224,0-3.279-1.321-3.279-3.831c0-2.224,0.879-4.602,2.442-6.143
		c1.058-1.035,2.443-1.563,3.721-1.563c0.989,0,1.761,0.154,2.135,0.354c0-0.111,0.199-1.123,0.288-1.498l0.791-3.742l2.312,0.396
		L131.297,26.734z M128.216,21.253c-0.705,0-1.497,0.352-2.025,1.013c-0.902,1.101-1.52,3.259-1.52,4.777
		c0,1.211,0.44,1.85,1.344,1.85c0.923,0,2.136-0.814,2.817-1.981l1.123-5.218C129.493,21.385,129.03,21.253,128.216,21.253"/>
	<path fill="#DA2128" d="M136.294,30.608h-2.466l2.334-11.007l2.531-0.374L136.294,30.608z M138.122,17.862
		c-0.882,0-1.609-0.727-1.609-1.607c0-0.902,0.728-1.628,1.631-1.628c0.879,0,1.584,0.726,1.584,1.605
		C139.728,17.136,139.022,17.862,138.122,17.862"/>
	<path fill="#DA2128" d="M145.957,21.187h-2.136l-1.255,5.988c-0.087,0.419-0.131,0.793-0.131,1.079
		c0,0.704,0.329,0.925,1.033,0.925c0.353,0,0.771-0.066,1.124-0.221v1.497c-0.771,0.309-1.542,0.462-2.312,0.462
		c-1.498,0-2.334-0.749-2.334-1.87c0-0.396,0.043-0.969,0.154-1.52l1.343-6.341h-1.254l0.352-1.718h1.254
		c0.22-1.012,0.44-1.87,0.727-2.707l2.576-0.594c-0.308,0.945-0.683,2.245-0.902,3.301h2.663L145.957,21.187z"/>
	<path fill="#DA2128" d="M161.808,21.479c1.82,0.35,2.744,1.746,2.744,3.468c0,1.271-0.624,2.843-1.87,4.015
		c-1.299,1.198-2.67,1.648-5.539,1.648h-5.486l3.691-17.238h5.387c3.268,0,4.84,1.423,4.84,3.742
		C165.574,18.985,164.402,20.756,161.808,21.479 M158.689,22.852h-2.544l-1.148,5.413h2.744c1.023,0,1.771-0.275,2.346-0.673
		c0.748-0.524,1.322-1.598,1.322-2.671C161.409,23.55,160.734,22.852,158.689,22.852 M160.012,15.792h-2.396l-0.971,4.689h2.493
		c1.072,0,1.721-0.2,2.221-0.599c0.624-0.499,1.071-1.248,1.071-2.194C162.431,16.441,161.833,15.792,160.012,15.792"/>
	<path fill="#DA2128" d="M175.721,22.595l-0.902,4.404c-0.286,1.343-0.154,1.915,0.397,2.51l-1.982,1.476
		c-0.594-0.485-0.836-1.101-0.836-1.828c-0.793,1.079-1.916,1.718-3.347,1.718c-1.739,0-2.905-1.167-2.905-3.545
		c0-2.465,0.924-4.844,2.354-6.318c1.189-1.211,2.643-1.805,4.425-1.805c1.278,0,2.576,0.263,3.457,0.836
		C176.185,20.659,175.876,21.804,175.721,22.595 M172.64,21.121c-0.991,0-1.695,0.221-2.555,1.232
		c-0.99,1.189-1.452,3.346-1.452,4.909c0,1.211,0.396,1.673,1.211,1.673c1.013,0,2.135-1.013,2.642-2.135l1.189-5.459
		C173.454,21.209,173.013,21.121,172.64,21.121"/>
	<path fill="#DA2128" d="M187.453,22.64l-1.694,7.969h-2.4l1.563-7.374c0.111-0.483,0.155-0.836,0.155-1.078
		c0-0.64-0.288-0.881-0.882-0.881c-0.793,0-1.893,0.551-3.06,2.068l-1.541,7.265h-2.377l1.627-7.705
		c0.266-1.298,0.287-2.046,0.044-2.861l2.247-0.925c0.22,0.507,0.353,1.321,0.197,2.092c1.057-1.276,2.466-1.982,4.007-1.982
		c1.386,0,2.225,0.859,2.225,2.203C187.564,21.804,187.542,22.266,187.453,22.64"/>
	<path fill="#DA2128" d="M194.013,18.259L191.37,30.61h-2.421l2.619-12.308c0.309-1.409,0.353-2.51,0.175-3.191l2.511-0.837
		C194.453,14.891,194.431,16.299,194.013,18.259 M195.266,24.313l3.348,6.143l-2.708,0.308l-3.104-6.517l4.603-4.976l2.597,0.44
		L195.266,24.313z"/>
	<g>
		<path fill="#666666" d="M154.295,38.601h-0.861l0.778-3.672h-1.233l-0.777,3.672h-0.868l0.929-4.357h2.956L154.295,38.601z"/>
		<path fill="#666666" d="M156.429,35.281c0.016,0.029,0.036,0.079,0.054,0.149c0.016,0.066,0.027,0.177,0.027,0.322v0.052
			c0.148-0.162,0.313-0.28,0.498-0.363c0.177-0.081,0.353-0.119,0.514-0.119c0.097,0,0.205,0.018,0.323,0.058
			c0.113,0.042,0.214,0.115,0.299,0.225c0.092,0.117,0.163,0.252,0.188,0.396c0.033,0.142,0.047,0.272,0.047,0.383
			c0,0.02,0,0.067-0.003,0.146c-0.006,0.08-0.022,0.188-0.044,0.311c-0.016,0.125-0.058,0.265-0.101,0.421
			c-0.034,0.159-0.099,0.316-0.184,0.478c-0.085,0.162-0.17,0.294-0.272,0.412c-0.095,0.111-0.225,0.215-0.375,0.307
			c-0.125,0.075-0.254,0.13-0.381,0.168c-0.126,0.027-0.259,0.045-0.404,0.045c-0.157,0-0.28-0.012-0.38-0.041
			c-0.101-0.024-0.179-0.054-0.238-0.089v0.031c0,0.027,0,0.052-0.005,0.069c-0.003,0.02-0.012,0.047-0.02,0.083l-0.216,1.044
			l-0.853,0.215l0.768-3.597c0.014-0.052,0.018-0.113,0.029-0.183c0.003-0.07,0.009-0.137,0.009-0.213
			c0-0.066-0.006-0.134-0.009-0.197c-0.012-0.071-0.021-0.138-0.043-0.204L156.429,35.281z M156.172,37.902
			c0.053,0.049,0.127,0.081,0.211,0.105c0.082,0.02,0.152,0.029,0.213,0.029c0.084,0,0.165-0.01,0.232-0.034
			c0.07-0.027,0.133-0.067,0.18-0.114c0.051-0.058,0.107-0.133,0.163-0.223c0.047-0.089,0.095-0.182,0.125-0.28
			c0.026-0.065,0.041-0.139,0.069-0.219c0.02-0.083,0.038-0.162,0.052-0.254c0.022-0.089,0.035-0.181,0.045-0.268
			c0.012-0.096,0.018-0.18,0.018-0.255c0-0.031-0.006-0.079-0.018-0.14c-0.004-0.058-0.028-0.112-0.073-0.153
			c-0.046-0.045-0.113-0.068-0.188-0.068c-0.063,0-0.133,0.014-0.192,0.034c-0.071,0.024-0.139,0.052-0.186,0.088
			c-0.067,0.051-0.137,0.108-0.2,0.183c-0.064,0.068-0.124,0.138-0.157,0.201L156.172,37.902z"/>
		<path fill="#666666" d="M161.706,36.455c0,0.264-0.03,0.519-0.103,0.773c-0.074,0.255-0.174,0.479-0.307,0.678
			c-0.103,0.161-0.217,0.287-0.353,0.386c-0.128,0.1-0.257,0.178-0.386,0.234c-0.134,0.055-0.271,0.097-0.402,0.114
			c-0.124,0.02-0.248,0.029-0.362,0.029c-0.117,0-0.249-0.018-0.387-0.047c-0.145-0.04-0.277-0.115-0.396-0.227
			c-0.13-0.122-0.215-0.256-0.26-0.414c-0.037-0.151-0.066-0.316-0.066-0.485c0-0.324,0.064-0.63,0.166-0.914
			c0.108-0.284,0.265-0.53,0.471-0.742c0.034-0.042,0.095-0.093,0.162-0.15c0.073-0.06,0.155-0.114,0.257-0.167
			c0.098-0.058,0.215-0.102,0.354-0.144c0.136-0.04,0.282-0.058,0.455-0.058c0.228,0,0.409,0.032,0.547,0.1
			c0.137,0.068,0.243,0.137,0.317,0.206c0.123,0.125,0.206,0.265,0.238,0.411C161.691,36.185,161.706,36.326,161.706,36.455z
			 M160.811,36.424c0-0.061-0.006-0.128-0.022-0.204c-0.011-0.078-0.048-0.141-0.105-0.19c-0.063-0.053-0.136-0.08-0.224-0.08
			c-0.042,0-0.092,0.005-0.146,0.021c-0.054,0.014-0.11,0.045-0.175,0.09c-0.06,0.046-0.124,0.109-0.183,0.199
			c-0.059,0.082-0.117,0.196-0.17,0.337c-0.021,0.073-0.054,0.157-0.076,0.244c-0.029,0.083-0.048,0.168-0.06,0.259
			c-0.026,0.096-0.039,0.18-0.048,0.27c-0.019,0.089-0.022,0.17-0.022,0.246c0,0.052,0.004,0.103,0.022,0.168
			c0.013,0.062,0.048,0.12,0.085,0.169c0.08,0.076,0.17,0.114,0.29,0.114c0.085,0,0.175-0.033,0.271-0.098
			c0.094-0.062,0.179-0.166,0.264-0.314c0.049-0.089,0.1-0.188,0.13-0.295c0.04-0.108,0.069-0.216,0.096-0.324
			c0.023-0.111,0.039-0.216,0.05-0.32C160.805,36.607,160.811,36.513,160.811,36.424z"/>
		<path fill="#666666" d="M166.095,34.755l-0.211,0.05c-0.032,0.006-0.067,0.016-0.102,0.03c-0.04,0.012-0.071,0.029-0.117,0.058
			c-0.064,0.042-0.106,0.098-0.156,0.165c-0.033,0.068-0.056,0.111-0.063,0.121l-0.211,0.426c-0.066,0.137-0.117,0.24-0.162,0.301
			c-0.038,0.066-0.079,0.116-0.11,0.148c-0.059,0.062-0.139,0.11-0.217,0.153c-0.094,0.042-0.179,0.069-0.25,0.092
			c0.127,0.044,0.221,0.111,0.287,0.199c0.031,0.047,0.071,0.115,0.098,0.201c0.033,0.097,0.049,0.176,0.058,0.253L165,37.596
			c0.008,0.057,0.02,0.111,0.026,0.169c0.016,0.062,0.047,0.11,0.111,0.151c0.022,0.016,0.063,0.035,0.105,0.06
			c0.056,0.02,0.096,0.032,0.122,0.042l0.119,0.039L165.2,38.66l-0.463-0.056c-0.085-0.006-0.172-0.04-0.259-0.096
			c-0.095-0.052-0.164-0.109-0.213-0.167c-0.055-0.072-0.081-0.153-0.085-0.236c-0.012-0.088-0.015-0.189-0.016-0.302l-0.019-0.622
			c-0.002-0.072-0.019-0.146-0.047-0.228c-0.021-0.083-0.049-0.144-0.087-0.186c-0.057-0.063-0.119-0.1-0.196-0.109
			c-0.074-0.009-0.133-0.014-0.187-0.014h-0.322l-0.411,1.955h-0.886l0.92-4.357h0.891l-0.359,1.706h0.429
			c0.06,0,0.13-0.015,0.209-0.04c0.085-0.022,0.146-0.053,0.19-0.087c0.047-0.029,0.085-0.083,0.124-0.149
			c0.052-0.065,0.091-0.15,0.134-0.255l0.249-0.561c0.036-0.077,0.077-0.153,0.119-0.227c0.047-0.074,0.104-0.144,0.182-0.209
			c0.071-0.06,0.146-0.097,0.232-0.13c0.081-0.033,0.17-0.049,0.265-0.064l0.447-0.06L166.095,34.755z"/>
		<path fill="#666666" d="M167.244,35.281c0.019,0.029,0.032,0.079,0.047,0.149c0.027,0.066,0.038,0.177,0.038,0.322v0.052
			c0.142-0.162,0.301-0.28,0.486-0.363c0.185-0.081,0.348-0.119,0.517-0.119c0.104,0,0.209,0.018,0.319,0.058
			c0.118,0.042,0.216,0.115,0.313,0.225c0.093,0.117,0.154,0.252,0.18,0.396c0.033,0.142,0.047,0.272,0.047,0.383
			c0,0.02-0.006,0.067-0.006,0.146c-0.004,0.08-0.017,0.188-0.041,0.311c-0.021,0.125-0.049,0.265-0.094,0.421
			c-0.048,0.159-0.111,0.316-0.188,0.478c-0.08,0.162-0.172,0.294-0.272,0.412c-0.103,0.111-0.229,0.215-0.374,0.307
			c-0.12,0.075-0.247,0.13-0.378,0.168c-0.129,0.027-0.264,0.045-0.405,0.045c-0.159,0-0.285-0.012-0.383-0.041
			c-0.102-0.024-0.179-0.054-0.235-0.089v0.031c0,0.027-0.003,0.052-0.003,0.069c-0.008,0.02-0.013,0.047-0.026,0.083l-0.215,1.044
			l-0.851,0.215l0.769-3.597c0.009-0.052,0.02-0.113,0.024-0.183c0.009-0.07,0.016-0.137,0.016-0.213
			c0-0.066-0.007-0.134-0.016-0.197c-0.005-0.071-0.017-0.138-0.047-0.204L167.244,35.281z M166.98,37.902
			c0.065,0.049,0.129,0.081,0.211,0.105c0.085,0.02,0.156,0.029,0.217,0.029c0.087,0,0.167-0.01,0.23-0.034
			c0.073-0.027,0.13-0.067,0.177-0.114c0.056-0.058,0.115-0.133,0.164-0.223c0.054-0.089,0.1-0.182,0.129-0.28
			c0.022-0.065,0.045-0.139,0.069-0.219c0.017-0.083,0.037-0.162,0.061-0.254c0.013-0.089,0.028-0.181,0.04-0.268
			c0.006-0.096,0.012-0.18,0.012-0.255c0-0.031-0.006-0.079-0.012-0.14c-0.009-0.058-0.036-0.112-0.077-0.153
			c-0.046-0.045-0.106-0.068-0.2-0.068c-0.055,0-0.127,0.014-0.189,0.034c-0.063,0.024-0.128,0.052-0.182,0.088
			c-0.066,0.051-0.129,0.108-0.19,0.183c-0.067,0.068-0.121,0.138-0.164,0.201L166.98,37.902z"/>
		<path fill="#666666" d="M172.059,38.232c-0.134,0.1-0.269,0.179-0.39,0.237c-0.127,0.057-0.252,0.099-0.352,0.13
			c-0.109,0.029-0.222,0.052-0.313,0.059c-0.091,0.01-0.174,0.012-0.236,0.012c-0.067,0-0.14-0.002-0.22-0.01
			c-0.078-0.002-0.157-0.02-0.237-0.037c-0.091-0.027-0.162-0.062-0.243-0.104c-0.074-0.046-0.15-0.101-0.216-0.172
			c-0.109-0.115-0.189-0.242-0.231-0.392c-0.04-0.148-0.064-0.3-0.064-0.459c0-0.163,0.021-0.318,0.053-0.482
			c0.036-0.168,0.083-0.324,0.146-0.477c0.066-0.152,0.135-0.298,0.225-0.433c0.088-0.136,0.186-0.256,0.296-0.36
			c0.186-0.179,0.369-0.293,0.554-0.349c0.182-0.049,0.364-0.074,0.54-0.074c0.157,0,0.307,0.017,0.445,0.05
			c0.139,0.032,0.258,0.094,0.378,0.188c0.02,0.017,0.047,0.041,0.071,0.071c0.037,0.034,0.067,0.08,0.09,0.128
			c0.025,0.048,0.052,0.112,0.073,0.185c0.019,0.071,0.029,0.158,0.029,0.253c0,0.179-0.034,0.329-0.105,0.449
			c-0.087,0.114-0.168,0.22-0.281,0.302c-0.171,0.132-0.362,0.224-0.564,0.271c-0.207,0.049-0.433,0.072-0.661,0.072
			c-0.07,0-0.133,0-0.19-0.006s-0.123-0.018-0.192-0.039c-0.018,0.094-0.03,0.192-0.03,0.29c0,0.109,0.021,0.201,0.048,0.267
			c0.033,0.067,0.076,0.118,0.119,0.149c0.056,0.048,0.128,0.076,0.199,0.081c0.068,0.009,0.126,0.016,0.167,0.016
			c0.186,0,0.354-0.04,0.502-0.116c0.15-0.074,0.283-0.147,0.385-0.225L172.059,38.232z M170.598,36.675
			c0.033,0.009,0.068,0.018,0.113,0.024c0.026,0.002,0.077,0.007,0.124,0.007c0.069,0,0.156-0.007,0.259-0.016
			c0.102-0.016,0.197-0.043,0.275-0.087c0.077-0.04,0.138-0.086,0.181-0.144c0.04-0.058,0.063-0.126,0.063-0.209
			c0-0.107-0.024-0.185-0.086-0.236c-0.018-0.022-0.053-0.038-0.091-0.054c-0.028-0.018-0.089-0.026-0.153-0.026
			c-0.104,0-0.188,0.018-0.262,0.056c-0.073,0.039-0.135,0.091-0.195,0.158c-0.067,0.073-0.108,0.163-0.151,0.264
			C170.633,36.516,170.606,36.604,170.598,36.675z"/>
		<path fill="#666666" d="M173.956,33.971c0.073-0.007,0.14-0.015,0.217-0.019c0.072-0.009,0.145-0.014,0.225-0.014
			c0.105,0,0.211,0.009,0.303,0.018c0.106,0.01,0.2,0.024,0.289,0.05c0.126,0.034,0.247,0.088,0.353,0.157
			c0.103,0.072,0.198,0.165,0.281,0.288c0.063,0.09,0.107,0.18,0.139,0.275c0.035,0.096,0.059,0.189,0.074,0.286
			c0.01,0.096,0.021,0.188,0.027,0.276c0,0.087,0.001,0.171,0.001,0.253c0,0.238-0.014,0.483-0.052,0.73
			c-0.028,0.253-0.082,0.495-0.151,0.723c-0.062,0.236-0.144,0.446-0.232,0.644c-0.093,0.195-0.197,0.364-0.309,0.486
			c-0.059,0.068-0.131,0.133-0.212,0.2c-0.086,0.061-0.184,0.124-0.289,0.175c-0.099,0.051-0.221,0.094-0.347,0.125
			c-0.135,0.033-0.278,0.045-0.421,0.045c-0.144,0-0.295-0.021-0.451-0.063c-0.148-0.045-0.276-0.13-0.39-0.253
			c-0.112-0.122-0.18-0.259-0.222-0.406c-0.026-0.147-0.042-0.281-0.042-0.407c0-0.17,0.016-0.342,0.053-0.512
			c0.031-0.164,0.079-0.327,0.14-0.475c0.07-0.151,0.137-0.289,0.216-0.415c0.09-0.124,0.18-0.233,0.278-0.32
			c0.097-0.084,0.22-0.163,0.371-0.238c0.151-0.078,0.333-0.12,0.544-0.12c0.073,0,0.142,0.007,0.201,0.021
			c0.059,0.014,0.118,0.031,0.188,0.053c0.049,0.017,0.103,0.039,0.149,0.062c0.057,0.019,0.105,0.052,0.159,0.101
			c0.016-0.082,0.019-0.173,0.019-0.281c0-0.081-0.003-0.165-0.019-0.246c-0.009-0.083-0.027-0.156-0.045-0.217
			c-0.065-0.142-0.169-0.243-0.301-0.309c-0.092-0.042-0.18-0.071-0.278-0.081c-0.092-0.014-0.175-0.015-0.249-0.015
			c-0.107,0-0.203,0.001-0.281,0.015c-0.068,0.01-0.135,0.029-0.204,0.045L173.956,33.971z M174.925,36.272
			c-0.038-0.032-0.07-0.063-0.109-0.081c-0.031-0.023-0.068-0.042-0.108-0.059c-0.039-0.018-0.079-0.03-0.124-0.039
			c-0.04-0.013-0.089-0.015-0.129-0.015c-0.105,0-0.188,0.022-0.265,0.064c-0.078,0.05-0.141,0.105-0.195,0.168
			c-0.042,0.064-0.084,0.138-0.122,0.213c-0.027,0.071-0.055,0.141-0.075,0.204c-0.071,0.226-0.12,0.412-0.138,0.55
			c-0.02,0.145-0.03,0.248-0.03,0.324c0,0.167,0.04,0.289,0.109,0.355c0.069,0.069,0.145,0.099,0.231,0.099
			c0.075,0,0.153-0.02,0.244-0.062c0.094-0.044,0.185-0.129,0.269-0.27c0.082-0.135,0.147-0.288,0.203-0.471
			c0.06-0.18,0.111-0.399,0.166-0.646L174.925,36.272z"/>
		<path fill="#666666" d="M178.807,37.77c-0.005,0.022-0.01,0.06-0.02,0.108c-0.003,0.05-0.006,0.088-0.006,0.113
			c0,0.067,0.006,0.137,0.021,0.213c0.011,0.073,0.04,0.149,0.063,0.222l-0.717,0.286c-0.025-0.037-0.045-0.089-0.08-0.164
			c-0.036-0.074-0.065-0.163-0.075-0.271c-0.057,0.061-0.116,0.107-0.172,0.148c-0.069,0.038-0.127,0.074-0.188,0.106
			c-0.127,0.062-0.23,0.097-0.332,0.112c-0.09,0.016-0.173,0.025-0.236,0.025c-0.121,0-0.228-0.018-0.33-0.045
			c-0.097-0.038-0.179-0.081-0.25-0.136c-0.033-0.038-0.084-0.093-0.121-0.167c-0.054-0.073-0.067-0.174-0.067-0.295
			c0-0.092,0.002-0.188,0.026-0.289c0.014-0.098,0.026-0.171,0.034-0.219l0.429-2.054l0.866-0.155l-0.437,2.06
			c-0.012,0.026-0.021,0.068-0.029,0.136c-0.011,0.067-0.02,0.121-0.022,0.152c-0.004,0.04-0.014,0.074-0.014,0.094
			c0,0.018,0,0.034,0,0.048c0,0.034,0.01,0.066,0.014,0.092c0.003,0.028,0.022,0.054,0.052,0.084
			c0.04,0.048,0.086,0.072,0.147,0.072c0.038,0,0.076-0.011,0.13-0.024c0.058-0.013,0.125-0.048,0.201-0.109
			c0.137-0.094,0.249-0.207,0.338-0.345l0.446-2.077l0.846-0.17L178.807,37.77z"/>
		<path fill="#666666" d="M180.74,35.281c0.029,0.085,0.053,0.16,0.061,0.221c0.009,0.058,0.013,0.137,0.013,0.225v0.078
			c0.146-0.153,0.306-0.271,0.503-0.363c0.08-0.037,0.164-0.064,0.249-0.087c0.085-0.021,0.182-0.032,0.275-0.032
			c0.175,0,0.319,0.044,0.422,0.133c0.113,0.087,0.172,0.202,0.176,0.35c0.031-0.038,0.089-0.092,0.179-0.164
			c0.081-0.069,0.189-0.134,0.311-0.194c0.178-0.082,0.358-0.124,0.541-0.124c0.095,0,0.185,0.013,0.258,0.035
			c0.08,0.026,0.152,0.068,0.212,0.127c0.045,0.05,0.093,0.114,0.13,0.194c0.028,0.087,0.051,0.188,0.051,0.312
			c0,0.068-0.005,0.143-0.022,0.217c-0.016,0.077-0.023,0.144-0.028,0.203l-0.469,2.19h-0.811l0.451-2.114
			c0.007-0.037,0.015-0.084,0.022-0.134c0.013-0.045,0.015-0.092,0.015-0.128c0-0.021-0.002-0.05-0.007-0.081
			c-0.008-0.028-0.021-0.056-0.039-0.077c-0.023-0.019-0.037-0.025-0.066-0.032c-0.028-0.003-0.054-0.005-0.073-0.005
			c-0.133,0-0.258,0.05-0.379,0.14c-0.127,0.104-0.229,0.214-0.304,0.344l-0.438,2.088h-0.815l0.441-2.083
			c0.007-0.02,0.021-0.063,0.025-0.13c0.02-0.062,0.02-0.123,0.02-0.181c0-0.074-0.02-0.119-0.045-0.141
			c-0.025-0.019-0.046-0.025-0.082-0.032c-0.024-0.003-0.049-0.005-0.067-0.005c-0.071,0-0.144,0.014-0.197,0.044
			c-0.052,0.024-0.103,0.052-0.135,0.075c-0.055,0.045-0.121,0.103-0.188,0.178c-0.063,0.075-0.117,0.134-0.152,0.187l-0.439,2.088
			h-0.818l0.472-2.198c0.012-0.062,0.02-0.135,0.026-0.229c0.004-0.086,0.006-0.158,0.006-0.206c0-0.071-0.002-0.139-0.013-0.2
			c-0.01-0.065-0.02-0.124-0.032-0.178L180.74,35.281z"/>
		<path fill="#666666" d="M189.516,34.243l-0.242,0.739h-1.757l-0.2,0.958h0.696c0.079,0,0.165,0.004,0.251,0.012
			c0.083,0.002,0.176,0.018,0.263,0.038c0.085,0.022,0.17,0.053,0.259,0.097c0.082,0.04,0.155,0.095,0.224,0.162
			c0.068,0.071,0.126,0.166,0.181,0.28c0.054,0.121,0.084,0.273,0.084,0.46c0,0.109-0.016,0.224-0.038,0.345
			c-0.021,0.127-0.071,0.247-0.121,0.368c-0.061,0.124-0.151,0.239-0.247,0.352c-0.1,0.106-0.229,0.208-0.389,0.294
			c-0.142,0.087-0.314,0.149-0.496,0.189c-0.183,0.044-0.353,0.063-0.496,0.063h-1.623l0.928-4.357H189.516z M187.507,37.889
			c0.076,0,0.163-0.014,0.255-0.039c0.096-0.023,0.188-0.088,0.285-0.184c0.067-0.07,0.125-0.16,0.159-0.267
			c0.037-0.109,0.058-0.221,0.058-0.325c0-0.052-0.003-0.1-0.021-0.143c-0.016-0.054-0.037-0.092-0.071-0.136
			c-0.062-0.063-0.125-0.104-0.198-0.119c-0.077-0.016-0.144-0.021-0.208-0.021h-0.602l-0.264,1.233H187.507z"/>
		<path fill="#666666" d="M191.651,38.692c-0.054-0.034-0.095-0.08-0.135-0.142c-0.045-0.059-0.083-0.144-0.103-0.263
			c-0.121,0.121-0.241,0.216-0.39,0.283c-0.146,0.066-0.3,0.099-0.465,0.099c-0.177,0-0.318-0.027-0.424-0.086
			c-0.098-0.053-0.181-0.113-0.231-0.176c-0.093-0.104-0.155-0.22-0.177-0.343c-0.034-0.125-0.051-0.258-0.051-0.399
			c0-0.376,0.068-0.724,0.19-1.053c0.121-0.324,0.28-0.585,0.488-0.793c0.11-0.109,0.227-0.203,0.339-0.27
			c0.109-0.063,0.228-0.113,0.337-0.146c0.116-0.038,0.219-0.057,0.321-0.067c0.102-0.01,0.195-0.015,0.271-0.015
			c0.28,0,0.492,0.018,0.653,0.065c0.165,0.043,0.298,0.097,0.406,0.154c-0.041,0.135-0.073,0.269-0.114,0.41
			c-0.037,0.142-0.067,0.268-0.09,0.38l-0.252,1.212c-0.02,0.065-0.023,0.123-0.023,0.173c-0.005,0.042-0.005,0.071-0.005,0.085
			c0,0.085,0.009,0.154,0.042,0.211c0.02,0.057,0.06,0.108,0.097,0.16L191.651,38.692z M191.738,36.025
			c-0.038-0.025-0.087-0.037-0.136-0.042c-0.053-0.007-0.09-0.012-0.131-0.012c-0.119,0-0.222,0.021-0.307,0.069
			c-0.089,0.04-0.167,0.11-0.231,0.208c-0.088,0.107-0.153,0.22-0.197,0.34c-0.047,0.117-0.078,0.229-0.107,0.329
			c-0.024,0.104-0.045,0.213-0.067,0.343c-0.018,0.129-0.027,0.251-0.027,0.372c0,0.097,0.003,0.165,0.022,0.206
			c0.017,0.044,0.027,0.063,0.029,0.075c0.023,0.044,0.057,0.077,0.093,0.091c0.038,0.013,0.074,0.022,0.115,0.022
			c0.063,0,0.128-0.017,0.187-0.05c0.069-0.03,0.129-0.071,0.185-0.115c0.046-0.049,0.101-0.104,0.142-0.16
			c0.042-0.062,0.08-0.117,0.107-0.176L191.738,36.025z"/>
		<path fill="#666666" d="M192.899,38.601l0.661-3.135l0.859-0.155l-0.273,1.303h0.855l0.238-1.147l0.866-0.155l-0.704,3.29h-0.821
			l0.292-1.397h-0.855l-0.299,1.397H192.899z"/>
		<path fill="#666666" d="M196.25,38.601l0.657-3.135l0.861-0.155l-0.232,1.03l-0.208,0.654h0.013l0.153-0.261
			c0.066-0.12,0.134-0.234,0.198-0.349c0.085-0.113,0.179-0.237,0.316-0.373c0.081-0.083,0.169-0.159,0.253-0.229
			c0.091-0.069,0.187-0.133,0.3-0.188c0.115-0.064,0.24-0.123,0.376-0.169c0.141-0.05,0.275-0.088,0.417-0.116l0.16,0.565
			l-0.129,0.038c-0.093,0.028-0.193,0.063-0.302,0.114c-0.107,0.045-0.213,0.104-0.333,0.174c-0.111,0.065-0.207,0.146-0.326,0.237
			c-0.095,0.09-0.191,0.203-0.278,0.328c0.099,0.005,0.203,0.028,0.278,0.06c0.097,0.035,0.171,0.087,0.229,0.162
			c0.038,0.046,0.064,0.109,0.08,0.175c0.018,0.074,0.031,0.141,0.038,0.202l0.015,0.366c0,0.021,0,0.053,0.005,0.106
			c0.011,0.053,0.023,0.093,0.046,0.119c0.034,0.045,0.077,0.069,0.14,0.083l0.175,0.05l-0.241,0.569l-0.286-0.031
			c-0.096-0.004-0.186-0.028-0.274-0.064c-0.103-0.033-0.176-0.098-0.228-0.192c-0.04-0.071-0.068-0.146-0.07-0.226
			c-0.009-0.081-0.013-0.155-0.013-0.226l-0.017-0.424c0-0.024-0.002-0.049-0.004-0.077c-0.01-0.026-0.031-0.05-0.063-0.072
			c-0.021-0.018-0.056-0.027-0.091-0.031c-0.034-0.009-0.059-0.012-0.084-0.012c-0.135,0.161-0.257,0.34-0.375,0.544
			c-0.109,0.196-0.23,0.445-0.367,0.752H196.25z"/>
	</g>
</g>
</svg>
