<?xml version="1.0" encoding="utf-8"?>
<!-- Generator: Adobe Illustrator 16.0.3, SVG Export Plug-In . SVG Version: 6.00 Build 0)  -->
<!DOCTYPE svg PUBLIC "-//W3C//DTD SVG 1.1//EN" "http://www.w3.org/Graphics/SVG/1.1/DTD/svg11.dtd">
<svg version="1.1" id="Layer_1" xmlns="http://www.w3.org/2000/svg" xmlns:xlink="http://www.w3.org/1999/xlink" x="0px" y="0px"
	 width="40px" height="30px" viewBox="0 0 40 30" enable-background="new 0 0 40 30" xml:space="preserve">
<g>
	<path fill="#231F20" d="M3.958,29.044l1.21,0.271L5.166,30H0.423v-0.686l1.082-0.271v-8.288H0.303v-0.712l2.903-0.882h0.752v0.992
		c1.358-0.81,1.828-0.952,2.523-0.952c1.61,0,2.798,1.483,2.798,3.541c0,2.375-1.585,3.976-4.084,3.976
		c-0.284,0-0.752-0.018-1.238-0.071v2.408V29.044z M20.513,23.084c1.126-1.419,1.523-1.988,1.523-2.688
		c0-0.693-0.552-1.252-1.284-1.252c-0.455,0-0.864,0.216-1.062,0.437v2.89l-1.844,2.457v-5.6h-1.753l-2.914,4.828v-4.828h-1.008
		l-2.643,0.644v0.676l1.442,0.146v5.925h1.865l2.793-4.593v4.593h2.045L20.513,23.084z M26.705,19.952
		c-1.256,0.202-1.896,1.128-1.896,2.759c0,1.642,0.854,2.738,2.165,2.738c0.61,0,1.163-0.201,2.326-0.772v1.327
		c-1.396,0.644-2.219,0.84-3.345,0.84c-1.221,0-2.076-0.321-2.777-1.038c-0.718-0.718-1.077-1.666-1.077-2.722
		c0-2.349,1.739-3.939,4.278-3.939c1.688,0,2.849,0.773,2.849,1.903c0,0.729-0.539,1.23-1.341,1.23
		c-0.412,0-0.748-0.104-1.183-0.356V19.952z M3.958,25.806c0.2,0.01,0.288,0.01,0.411,0.01c1.501,0,2.309-0.936,2.309-2.731
		c0-1.521-0.661-2.328-1.876-2.328c-0.202,0-0.416,0.025-0.844,0.076V25.806z"/>
	<g>
		<g>
			<defs>
				<rect id="SVGID_1_" x="24.711" y="9.08" width="14.986" height="4.434"/>
			</defs>
			<clipPath id="SVGID_2_">
				<use xlink:href="#SVGID_1_"  overflow="visible"/>
			</clipPath>
			<rect x="25.112" y="9.48" clip-path="url(#SVGID_2_)" fill="#EF649D" width="14.183" height="3.629"/>
		</g>
	</g>
	<g>
		<g>
			<defs>
				<rect id="SVGID_3_" x="24.711" y="1.419" width="9.471" height="12.095"/>
			</defs>
			<clipPath id="SVGID_4_">
				<use xlink:href="#SVGID_3_"  overflow="visible"/>
			</clipPath>
			<rect x="25.112" y="1.821" clip-path="url(#SVGID_4_)" fill="#F9B282" width="8.667" height="11.288"/>
		</g>
	</g>
	<g>
		<g>
			<defs>
				<rect id="SVGID_5_" x="24.711" width="8.046" height="13.514"/>
			</defs>
			<clipPath id="SVGID_6_">
				<use xlink:href="#SVGID_5_"  overflow="visible"/>
			</clipPath>
			<rect x="25.112" y="0.403" clip-path="url(#SVGID_6_)" fill="#F6932F" width="7.243" height="12.706"/>
		</g>
	</g>
	<g>
		<g>
			<defs>
				<rect id="SVGID_7_" x="24.711" y="3.63" width="13.146" height="9.884"/>
			</defs>
			<clipPath id="SVGID_8_">
				<use xlink:href="#SVGID_7_"  overflow="visible"/>
			</clipPath>
			<rect x="25.112" y="4.033" clip-path="url(#SVGID_8_)" fill="#FCB823" width="12.341" height="9.076"/>
		</g>
	</g>
	<g>
		<g>
			<defs>
				<rect id="SVGID_9_" x="24.711" y="7.259" width="5.332" height="6.255"/>
			</defs>
			<clipPath id="SVGID_10_">
				<use xlink:href="#SVGID_9_"  overflow="visible"/>
			</clipPath>
			<rect x="25.112" y="7.661" clip-path="url(#SVGID_10_)" fill="#C7A58C" width="4.529" height="5.448"/>
		</g>
	</g>
	<rect x="17.852" y="13.109" fill="#C22C26" width="7.261" height="1.817"/>
</g>
</svg>
