<?xml version="1.0" encoding="utf-8"?>
<!-- Generator: Adobe Illustrator 16.0.3, SVG Export Plug-In . SVG Version: 6.00 Build 0)  -->
<!DOCTYPE svg PUBLIC "-//W3C//DTD SVG 1.1//EN" "http://www.w3.org/Graphics/SVG/1.1/DTD/svg11.dtd">
<svg version="1.1" id="Layer_1" xmlns="http://www.w3.org/2000/svg" xmlns:xlink="http://www.w3.org/1999/xlink" x="0px" y="0px"
	 width="146px" height="30px" viewBox="0 0 146 30" enable-background="new 0 0 146 30" xml:space="preserve">
<g>
	<g>
		<g>
			<linearGradient id="SVGID_1_" gradientUnits="userSpaceOnUse" x1="15.3633" y1="-0.7378" x2="15.3633" y2="30.9307">
				<stop  offset="0" style="stop-color:#008053"/>
				<stop  offset="0.6" style="stop-color:#7FCAAD"/>
				<stop  offset="1" style="stop-color:#00A66D"/>
			</linearGradient>
			<rect x="0.363" fill="url(#SVGID_1_)" width="30" height="30"/>
			<linearGradient id="SVGID_2_" gradientUnits="userSpaceOnUse" x1="15.3169" y1="-7.4536" x2="15.3169" y2="28.1337">
				<stop  offset="0" style="stop-color:#00A66D"/>
				<stop  offset="0.3" style="stop-color:#7FCAAD"/>
				<stop  offset="0.55" style="stop-color:#00A66D"/>
				<stop  offset="0.8352" style="stop-color:#008053"/>
				<stop  offset="0.8861" style="stop-color:#00895C"/>
				<stop  offset="0.969" style="stop-color:#00A173"/>
				<stop  offset="1" style="stop-color:#00AC7D"/>
			</linearGradient>
			<path fill="url(#SVGID_2_)" d="M29.436,15.173c0,6.261,0.29,12.672,0.29,12.672c-0.011,0.721-0.472,1.181-1.05,1.181H2.705
				c-0.577,0-0.981-0.518-1.05-1.181c0,0-0.747-5.474-0.747-13.84c0-8.361,0.747-12.3,0.747-12.3
				c0.089-0.687,0.473-1.179,1.05-1.179h25.971c0.578,0,1.063,0.539,1.05,1.179C29.726,1.705,29.436,8.911,29.436,15.173z"/>
			<g>
				<g>
					<linearGradient id="SVGID_3_" gradientUnits="userSpaceOnUse" x1="21.0181" y1="26.1709" x2="21.0181" y2="3.1396">
						<stop  offset="0" style="stop-color:#00B286"/>
						<stop  offset="1" style="stop-color:#00A66D"/>
					</linearGradient>
					<path fill="url(#SVGID_3_)" d="M23.659,8.101c-1.854,1.087-2.421,1.174-4.435,2.383l0.101-0.225
						c1.054-1.152,1.518-1.638,2.209-2.654c-1.861,0.099-4.556,0.319-6.484,0.747l0,0l0,0l0,0l0.099-0.208
						c1.751-0.851,5-1.697,6.657-1.914c-0.402-0.57-3.695-2.352-4.517-2.692l0,0l0,0l0,0l0.098-0.209
						c2.494,0.28,5.798,1.449,7.241,2.331c0.611-0.192,1.229-0.21,2.358-0.307c0,0-0.167,0.681-1.396,1.523l0,0l0,0l0,0
						c0.304,0.816-0.428,5.342-1.032,6.543l0,0l0,0l0,0C24.531,11.526,24.362,9.138,23.659,8.101z"/>
					<linearGradient id="SVGID_4_" gradientUnits="userSpaceOnUse" x1="6.7305" y1="26.168" x2="6.7305" y2="3.1354">
						<stop  offset="0" style="stop-color:#00B286"/>
						<stop  offset="1" style="stop-color:#00A66D"/>
					</linearGradient>
					<path fill="url(#SVGID_4_)" d="M10.106,24.318l0.094-0.209c-0.986-0.383-1.972-0.683-2.768-1.435l0,0l0,0l0,0l0,0l0,0l0,0l0,0
						l0,0l0,0l0,0l0,0l0,0l0,0l0,0l0,0l0,0l0,0l0,0l0,0l0,0l0,0l0,0l0,0l0,0l0,0l0,0l0,0l0,0l0,0l0,0l0,0
						c0.25-0.699,0.537-1.243,1.006-1.938l0,0l0,0l0,0l0,0l0,0l0,0l0,0l0,0l0,0l0,0l0,0l0,0l0,0l0,0l0,0l0,0l0,0l0,0l0,0l0,0l0,0
						l0,0l0,0l0,0l0,0l0,0l0,0l0,0l0,0l0,0l0,0l0.098-0.212c-0.845,0.128-1.614,0.438-2.348,0.581l0,0l0,0l0,0l0,0l0,0l0,0l0,0l0,0
						l0,0l0,0l0,0l0,0l0,0l0,0l0,0l0,0l0,0l0,0l0,0l0,0l0,0l0,0l0,0l0,0l0,0l0,0l0,0l0,0l0,0l0,0l0,0
						c-0.575-1.014-0.8-2.403-1.087-3.725l-0.101,0.21l0,0l0,0l0,0l0,0l0,0l0,0l0,0l0,0l0,0l0,0l0,0l0,0l0,0l0,0l0,0
						c-0.162,1.509-0.227,2.587-0.012,3.793l0,0l0,0l0,0l0,0l0,0l0,0l0,0l0,0l0,0l0,0l0,0l0,0l0,0l0,0l0,0l0,0l0,0l0,0l0,0l0,0l0,0
						l0,0l0,0l0,0l0,0l0,0l0,0l0,0l0,0l0,0l0,0c-0.61,0.167-1.146,0.192-1.635,0.399l-0.094,0.208l0,0l0,0l0,0l0,0l0,0l0,0l0,0l0,0
						l0,0l0,0l0,0l0,0l0,0l0,0l0,0l0,0l0,0l0,0l0,0l0,0l0,0l0,0l0,0l0,0l0,0l0,0l0,0l0,0l0,0l0,0l0,0
						c0.778,0.483,1.416,0.852,2.301,1.266l0,0l0,0l0,0l0,0l0,0l0,0l0,0l0,0l0,0l0,0l0,0l0,0l0,0l0,0l0,0l0,0l0,0l0,0l0,0l0,0l0,0
						l0,0l0,0l0,0l0,0l0,0l0,0l0,0l0,0l0,0l0,0c0.473,1.017,0.965,1.704,1.756,2.483l0,0l0,0l0,0l0,0l0,0l0,0l0,0l0,0l0,0l0,0l0,0
						l0,0l0,0l0,0l0,0l0,0l0,0l0,0l0,0l0,0l0,0l0,0l0,0l0,0l0,0l0,0l0,0l0,0l0,0l0,0l0,0l0.097-0.206
						c-0.142-0.581-0.327-1.058-0.259-1.689l0,0l0,0l0,0l0,0l0,0l0,0l0,0l0,0l0,0l0,0l0,0l0,0l0,0l0,0l0,0l0,0l0,0l0,0l0,0l0,0l0,0
						l0,0l0,0l0,0l0,0l0,0l0,0l0,0l0,0l0,0l0,0C8.139,24.133,8.981,24.284,10.106,24.318z"/>
					<linearGradient id="SVGID_5_" gradientUnits="userSpaceOnUse" x1="11.1802" y1="26.1611" x2="11.1802" y2="3.1452">
						<stop  offset="0" style="stop-color:#00B286"/>
						<stop  offset="1" style="stop-color:#00A66D"/>
					</linearGradient>
					<path fill="url(#SVGID_5_)" d="M12.841,9.252c0,0-0.396,0.703-0.712,1.634h-0.075l0,0l0,0c2.308,0.313,4.491,1.248,5.038,1.571
						l-0.1,0.207l0,0l0,0l0,0l0,0l0,0l0,0l0,0c-2.397-0.421-3.659-0.376-4.551-0.295l0,0l0,0l0,0
						c-0.892,0.088-1.074,0.196-1.074,0.196l0,0l0,0l0,0l0,0l0,0l0,0l0,0c-0.513,1.125-0.816,2.96-0.937,3.64l-0.098,0.21l0,0l0,0
						l0,0l0,0l0,0l0,0l0,0c-0.44-1.054-1.071-3.162-1.071-3.162l0,0l0,0l0,0l0,0l0,0l0,0l0,0c-1.209,0.651-3.993,3.265-3.993,3.265
						l0,0l0,0l0,0l0,0l0,0l0,0l0,0c1.536-3.062,3.088-4.459,3.088-4.459l0,0l0,0l0,0l0,0l0,0l0,0l0,0
						c-0.538-0.54-1.938-0.812-2.957-0.856l0,0l0,0l0,0l0.094-0.208c0.642-0.187,1.965-0.266,2.849-0.308l0,0l0,0l0,0l0,0l0,0l0,0
						l0,0c1.052-0.032,1.683,0.029,1.683,0.029l0,0l0,0l0,0C10.957,9.974,12.352,9.32,12.841,9.252z"/>
					<linearGradient id="SVGID_6_" gradientUnits="userSpaceOnUse" x1="15.0288" y1="26.167" x2="15.0288" y2="3.1401">
						<stop  offset="0" style="stop-color:#00B286"/>
						<stop  offset="1" style="stop-color:#00A66D"/>
					</linearGradient>
					<path fill="url(#SVGID_6_)" d="M15.779,22.416c-0.485,0.658-0.898,1.174-1.433,1.776l0,0l0,0l0,0l0,0l0,0l0,0l0,0l0,0l0,0l0,0
						l0,0l0,0l0,0l0,0l0,0l0,0l0,0l0,0l0,0l0,0l0,0l0,0l0,0l0,0l0,0l0,0l0,0l0,0l0,0l0,0l0,0c-0.789,0.218-1.736,0.118-2.462,0.144
						l-0.098,0.21l0,0l0,0l0,0l0,0l0,0l0,0l0,0l0,0l0,0l0,0l0,0l0,0l0,0l0,0l0,0l0,0l0,0l0,0l0,0l0,0l0,0l0,0l0,0l0,0l0,0l0,0l0,0
						l0,0l0,0l0,0l0,0c0.547,0.284,1.086,0.455,1.661,0.574l0,0l0,0l0,0l0,0l0,0l0,0l0,0l0,0l0,0l0,0l0,0l0,0l0,0l0,0l0,0l0,0l0,0
						l0,0l0,0l0,0l0,0l0,0l0,0l0,0l0,0l0,0l0,0l0,0l0,0l0,0l0,0c-0.466,0.424-1.089,0.745-1.526,1.042l-0.097,0.205l0,0l0,0l0,0l0,0
						l0,0l0,0l0,0l0,0l0,0l0,0l0,0l0,0l0,0l0,0l0,0l0,0l0,0l0,0l0,0l0,0l0,0l0,0l0,0l0,0l0,0l0,0l0,0l0,0l0,0l0,0l0,0
						c0.937-0.222,2.171-0.618,3.09-1.159l0,0l0,0l0,0l0,0l0,0l0,0l0,0l0,0l0,0l0,0l0,0l0,0l0,0l0,0l0,0l0,0l0,0l0,0l0,0l0,0l0,0
						l0,0l0,0l0,0l0,0l0,0l0,0l0,0l0,0l0,0l0,0c0.478,0.02,0.928-0.013,1.254-0.077l0,0l0,0l0,0l0,0l0,0l0,0l0,0l0,0l0,0l0,0l0,0
						l0,0l0,0l0,0l0,0l0,0l0,0l0,0l0,0l0,0l0,0l0,0l0,0l0,0l0,0l0,0l0,0l0,0l0,0l0,0l0,0c0,0,0.098-0.214,0.098-0.209
						c-0.06-0.212-0.248-0.342-0.304-0.638l0,0l0,0l0,0l0,0l0,0l0,0l0,0l0,0l0,0l0,0l0,0l0,0l0,0l0,0l0,0l0,0l0,0l0,0l0,0l0,0l0,0
						l0,0l0,0l0,0l0,0l0,0l0,0l0,0l0,0l0,0l0,0c0.86-0.669,1.484-1.278,2.207-2.003l0,0l0,0l0,0l0,0l0,0l0,0l0,0l0,0l0,0l0,0l0,0
						l0,0l0,0l0,0l0,0l0,0l0,0l0,0l0,0l0,0l0,0l0,0l0,0l0,0l0,0l0,0l0,0l0,0l0,0l0,0l0,0l0.101-0.21
						c-0.712,0.49-1.576,1.166-2.408,1.561l0,0l0,0l0,0l0,0l0,0l0,0l0,0l0,0l0,0l0,0l0,0l0,0l0,0l0,0l0,0l0,0l0,0l0,0l0,0l0,0l0,0
						l0,0l0,0l0,0l0,0l0,0l0,0l0,0l0,0l0,0l0,0C15.828,23.224,15.801,22.875,15.779,22.416z"/>
				</g>
				<g>
					<path fill="#FFFFFF" d="M23.756,7.889c-1.85,1.089-2.419,1.181-4.431,2.385c1.172-1.272,1.577-1.813,2.305-2.878
						c-1.856,0.099-4.555,0.324-6.481,0.748l0,0l0,0l0,0c1.679-0.896,5.002-1.891,6.758-2.126c-0.407-0.563-3.7-2.346-4.52-2.689
						l0,0l0,0l0,0c2.607,0.203,5.794,1.176,7.336,2.121c0.608-0.19,1.24-0.199,2.371-0.299l0,0l0,0l0,0
						c-0.286,0.495-0.298,0.778-1.409,1.518l0,0l0,0l0,0c0.308,0.821-0.426,5.342-1.031,6.54l0,0l0,0l0,0
						C24.628,11.315,24.463,8.929,23.756,7.889z"/>
					<path fill="#FFFFFF" d="M10.2,24.109c-1.065-0.396-1.829-0.855-2.675-1.645l0,0l0,0l0,0l0,0l0,0l0,0l0,0l0,0l0,0l0,0l0,0l0,0
						l0,0l0,0l0,0l0,0l0,0l0,0l0,0l0,0l0,0l0,0l0,0l0,0l0,0l0,0l0,0l0,0l0,0l0,0l0,0c0.25-0.695,0.541-1.24,1.011-1.939l0,0l0,0l0,0
						l0,0l0,0l0,0l0,0l0,0l0,0l0,0l0,0l0,0l0,0l0,0l0,0l0,0l0,0l0,0l0,0l0,0l0,0l0,0l0,0l0,0l0,0l0,0l0,0l0,0l0,0l0,0l0,0
						c-0.866,0.13-1.503,0.229-2.249,0.368l0,0l0,0l0,0l0,0l0,0l0,0l0,0l0,0l0,0l0,0l0,0l0,0l0,0l0,0l0,0l0,0l0,0l0,0l0,0l0,0l0,0
						l0,0l0,0l0,0l0,0l0,0l0,0l0,0l0,0l0,0l0,0c-0.605-1.06-0.881-2.086-1.186-3.512l0,0l0,0l0,0l0,0l0,0l0,0l0,0l0,0l0,0l0,0l0,0
						l0,0l0,0l0,0l0,0c-0.166,1.51-0.23,2.59-0.019,3.794l0,0l0,0l0,0l0,0l0,0l0,0l0,0l0,0l0,0l0,0l0,0l0,0l0,0l0,0l0,0l0,0l0,0l0,0
						l0,0l0,0l0,0l0,0l0,0l0,0l0,0l0,0l0,0l0,0l0,0l0,0l0,0c-0.681,0.189-1.168,0.356-1.729,0.608l0,0l0,0l0,0l0,0l0,0l0,0l0,0l0,0
						l0,0l0,0l0,0l0,0l0,0l0,0l0,0l0,0l0,0l0,0l0,0l0,0l0,0l0,0l0,0l0,0l0,0l0,0l0,0l0,0l0,0l0,0l0,0
						c0.789,0.483,1.425,0.856,2.304,1.267l0,0l0,0l0,0l0,0l0,0l0,0l0,0l0,0l0,0l0,0l0,0l0,0l0,0l0,0l0,0l0,0l0,0l0,0l0,0l0,0l0,0
						l0,0l0,0l0,0l0,0l0,0l0,0l0,0l0,0l0,0l0,0c0.477,1.016,0.962,1.7,1.756,2.484l0,0l0,0l0,0l0,0l0,0l0,0l0,0l0,0l0,0l0,0l0,0l0,0
						l0,0l0,0l0,0l0,0l0,0l0,0l0,0l0,0l0,0l0,0l0,0l0,0l0,0l0,0l0,0l0,0l0,0l0,0l0,0c-0.185-0.667-0.233-1.199-0.156-1.898l0,0l0,0
						l0,0l0,0l0,0l0,0l0,0l0,0l0,0l0,0l0,0l0,0l0,0l0,0l0,0l0,0l0,0l0,0l0,0l0,0l0,0l0,0l0,0l0,0l0,0l0,0l0,0l0,0l0,0l0,0l0,0
						C8.239,23.925,9.082,24.073,10.2,24.109z"/>
					<path fill="#FFFFFF" d="M12.969,9.072L12.969,9.072L12.969,9.072L12.969,9.072L12.969,9.072
						c-0.329,0.43-0.716,1.231-0.82,1.604l0,0l0,0l0,0c2.743,0.374,4.943,1.781,4.943,1.781l0,0l0,0l0,0l0,0l0,0l0,0l0,0
						c-2.396-0.424-3.661-0.372-4.559-0.293l0,0l0,0l0,0c-0.888,0.085-1.069,0.188-1.069,0.188l0,0l0,0l0,0l0,0l0,0l0,0l0,0
						c-0.644,1.417-1.033,3.853-1.033,3.853l0,0l0,0l0,0l0,0l0,0l0,0l0,0c-0.438-1.052-1.069-3.158-1.069-3.158l0,0l0,0l0,0l0,0l0,0
						l0,0l0,0c-1.21,0.646-3.992,3.262-3.992,3.262l0,0l0,0l0,0l0,0l0,0l0,0l0,0c1.529-3.063,3.084-4.455,3.084-4.455l0,0l0,0l0,0
						l0,0l0,0l0,0l0,0c-0.535-0.543-1.938-0.813-2.96-0.859l0,0l0,0l0,0c0.53-0.216,1.896-0.471,2.945-0.52l0,0l0,0l0,0l0,0l0,0l0,0
						l0,0c1.048-0.027,1.685,0.03,1.685,0.03l0,0l0,0l0,0C11.058,9.767,12.479,9.145,12.969,9.072z"/>
					<path fill="#FFFFFF" d="M15.876,22.208c-0.483,0.659-0.898,1.174-1.436,1.773l0,0l0,0l0,0l0,0l0,0l0,0l0,0l0,0l0,0l0,0l0,0l0,0
						l0,0l0,0l0,0l0,0l0,0l0,0l0,0l0,0l0,0l0,0l0,0l0,0l0,0l0,0l0,0l0,0l0,0l0,0l0,0c-0.922,0.261-1.657,0.354-2.556,0.354l0,0l0,0
						l0,0l0,0l0,0l0,0l0,0l0,0l0,0l0,0l0,0l0,0l0,0l0,0l0,0l0,0l0,0l0,0l0,0l0,0l0,0l0,0l0,0l0,0l0,0l0,0l0,0l0,0l0,0l0,0l0,0
						c0.55,0.286,1.084,0.457,1.658,0.579l0,0l0,0l0,0l0,0l0,0l0,0l0,0l0,0l0,0l0,0l0,0l0,0l0,0l0,0l0,0l0,0l0,0l0,0l0,0l0,0l0,0
						l0,0l0,0l0,0l0,0l0,0l0,0l0,0l0,0l0,0l0,0c-0.574,0.521-1.06,0.89-1.621,1.247l0,0l0,0l0,0l0,0l0,0l0,0l0,0l0,0l0,0l0,0l0,0
						l0,0l0,0l0,0l0,0l0,0l0,0l0,0l0,0l0,0l0,0l0,0l0,0l0,0l0,0l0,0l0,0l0,0l0,0l0,0l0,0c0.937-0.221,2.17-0.62,3.09-1.163l0,0l0,0
						l0,0l0,0l0,0l0,0l0,0l0,0l0,0l0,0l0,0l0,0l0,0l0,0l0,0l0,0l0,0l0,0l0,0l0,0l0,0l0,0l0,0l0,0l0,0l0,0l0,0l0,0l0,0l0,0l0,0
						c0.479,0.02,0.928-0.013,1.255-0.077l0,0l0,0l0,0l0,0l0,0l0,0l0,0l0,0l0,0l0,0l0,0l0,0l0,0l0,0l0,0l0,0l0,0l0,0l0,0l0,0l0,0
						l0,0l0,0l0,0l0,0l0,0l0,0l0,0l0,0l0,0l0,0c-0.083-0.278-0.139-0.485-0.207-0.849l0,0l0,0l0,0l0,0l0,0l0,0l0,0l0,0l0,0l0,0l0,0
						l0,0l0,0l0,0l0,0l0,0l0,0l0,0l0,0l0,0l0,0l0,0l0,0l0,0l0,0l0,0l0,0l0,0l0,0l0,0l0,0c0.865-0.668,1.49-1.274,2.211-2.002l0,0
						l0,0l0,0l0,0l0,0l0,0l0,0l0,0l0,0l0,0l0,0l0,0l0,0l0,0l0,0l0,0l0,0l0,0l0,0l0,0l0,0l0,0l0,0l0,0l0,0l0,0l0,0l0,0l0,0l0,0l0,0
						c-0.764,0.535-1.425,0.933-2.312,1.354l0,0l0,0l0,0l0,0l0,0l0,0l0,0l0,0l0,0l0,0l0,0l0,0l0,0l0,0l0,0l0,0l0,0l0,0l0,0l0,0l0,0
						l0,0l0,0l0,0l0,0l0,0l0,0l0,0l0,0l0,0l0,0C15.921,23.017,15.896,22.668,15.876,22.208z"/>
				</g>
			</g>
		</g>
	</g>
	<g>
		<g>
			<g>
				<g>
					<path fill="#231F20" d="M41.07,20.198c0.995,0,2.085,0.357,2.085,1.276c0,0.498-0.432,0.947-1.068,1.168
						c0.847,0.31,1.338,0.798,1.338,1.437c0,1.116-1.359,1.495-2.634,1.495h-2.922c0.071-0.695,0.092-1.704,0.092-2.823
						c0-0.737-0.011-1.854-0.083-2.553H41.07z M40.25,20.878c-0.259,0-0.518,0.02-0.646,0.039c-0.027,0.699-0.038,1.037-0.038,1.834
						c0,0.969,0,1.328,0.038,2.096h0.778c0.916,0,1.356-0.27,1.356-0.827c0-0.62-0.567-0.911-1.313-0.911h-0.453l0.312-0.806h0.328
						c0.38,0,0.887-0.199,0.887-0.687C41.498,21.096,41.03,20.878,40.25,20.878z"/>
					<path fill="#231F20" d="M49.351,20.198c-0.054,0.607-0.085,2.024-0.085,2.553c0,0.488,0.011,2.085,0.085,2.823h-1.269
						l-2.037-3.003c-0.169-0.237-0.285-0.468-0.336-0.739v1.708c0,0.646,0.02,1.567,0.079,2.034H44.34
						c0.091-0.815,0.101-2.354,0.101-2.823c0-0.509-0.027-1.945-0.068-2.553h1.646l1.716,2.793c0.089,0.141,0.117,0.211,0.156,0.329
						v-3.122H49.351z"/>
					<path fill="#231F20" d="M53.267,20.198c1.169,0,2.574,0.329,2.574,1.576c0,1.099-0.996,1.645-3.021,1.645
						c-0.122,0-0.449,0-0.537-0.009c0.036,0.75,0.026,1.655,0.079,2.164h-1.767c0.071-0.738,0.091-1.953,0.091-2.823
						c0-0.766-0.02-2.044-0.091-2.553H53.267z M52.298,20.946c0,0.349-0.016,0.712-0.016,1.059c0,0.259,0.011,0.458,0.016,0.646
						c0.063,0.012,0.342,0.012,0.521,0.012c0.566,0,1.357-0.16,1.357-0.889c0-0.708-0.811-0.839-1.417-0.839
						C52.681,20.936,52.381,20.936,52.298,20.946z"/>
					<path fill="#231F20" d="M61.403,20.198c1.171,0,2.576,0.329,2.576,1.576c0,1.099-0.996,1.645-3.021,1.645
						c-0.122,0-0.449,0-0.539-0.009c0.041,0.75,0.032,1.655,0.081,2.164h-1.766c0.068-0.738,0.088-1.953,0.088-2.823
						c0-0.766-0.02-2.044-0.088-2.553H61.403z M60.44,20.946c0,0.349-0.021,0.712-0.021,1.059c0,0.259,0.009,0.458,0.021,0.646
						c0.06,0.012,0.338,0.012,0.518,0.012c0.566,0,1.357-0.16,1.357-0.889c0-0.708-0.81-0.839-1.419-0.839
						C60.817,20.936,60.52,20.936,60.44,20.946z"/>
					<path fill="#231F20" d="M67.117,20.198c0.2,0.637,1.972,4.508,2.382,5.376h-1.763c-0.072-0.21-0.209-0.498-0.472-1.177
						c-0.27-0.01-0.548-0.01-0.918-0.01c-0.357,0-0.615,0.01-0.904,0.021c-0.162,0.438-0.3,0.787-0.432,1.166h-1.534
						c0.298-0.669,2.064-4.517,2.383-5.376H67.117z M66.967,23.579c-0.209-0.516-0.498-1.166-0.64-1.615
						c-0.147,0.458-0.468,1.168-0.626,1.615c0.199,0.011,0.468,0.023,0.646,0.023C66.6,23.603,66.728,23.59,66.967,23.579z"/>
					<path fill="#231F20" d="M72.801,20.198c1.178,0,2.584,0.421,2.584,1.666c0,0.669-0.498,1.147-1.279,1.456
						c0.164,0.282,1.469,1.976,1.729,2.254H73.91c-0.342-0.646-0.99-1.765-1.625-2.712c0.764,0.099,1.436-0.268,1.436-1.007
						c0-0.71-0.821-0.92-1.22-0.92c-0.178,0-0.518,0-0.637,0.011c-0.032,0.659-0.043,1.448-0.043,1.805c0,0.469,0,2.008,0.092,2.823
						h-1.796c0.088-0.798,0.11-1.745,0.11-2.823c0-0.908-0.012-2.003-0.091-2.553H72.801z"/>
					<path fill="#231F20" d="M78.307,20.198c-0.037,0.607-0.068,2.044-0.068,2.563c0,0.478,0,2.074,0.068,2.813h-1.775
						c0.092-0.815,0.102-2.354,0.102-2.813c0-0.507-0.031-1.956-0.07-2.563H78.307z"/>
					<path fill="#231F20" d="M82.666,20.198c0.998,0,2.082,0.357,2.082,1.276c0,0.498-0.426,0.947-1.066,1.168
						c0.848,0.31,1.334,0.798,1.334,1.437c0,1.116-1.352,1.495-2.631,1.495h-2.92c0.068-0.695,0.09-1.704,0.09-2.823
						c0-0.737-0.012-1.854-0.082-2.553H82.666z M81.85,20.878c-0.26,0-0.521,0.02-0.648,0.039c-0.031,0.699-0.041,1.037-0.041,1.834
						c0,0.969,0,1.328,0.041,2.096h0.773c0.92,0,1.359-0.27,1.359-0.827c0-0.62-0.568-0.911-1.318-0.911H81.57l0.305-0.806h0.33
						c0.381,0,0.891-0.199,0.891-0.687C83.096,21.096,82.625,20.878,81.85,20.878z"/>
					<path fill="#231F20" d="M88.859,20.198c0.201,0.637,1.973,4.508,2.383,5.376H89.48c-0.072-0.21-0.209-0.498-0.473-1.177
						c-0.27-0.01-0.547-0.01-0.918-0.01c-0.355,0-0.615,0.01-0.906,0.021c-0.162,0.438-0.299,0.787-0.43,1.166h-1.537
						c0.301-0.669,2.068-4.517,2.387-5.376H88.859z M88.711,23.579c-0.209-0.516-0.498-1.166-0.641-1.615
						c-0.148,0.458-0.467,1.168-0.627,1.615c0.199,0.011,0.467,0.023,0.646,0.023C88.34,23.603,88.471,23.59,88.711,23.579z"/>
					<path fill="#231F20" d="M94.016,20.06c0.688,0,1.355,0.1,1.775,0.229v1.37c-0.59-0.342-1.168-0.631-1.938-0.631
						c-0.605,0-0.645,0.24-0.645,0.418c0,0.908,3.061,0.917,3.061,2.542c0,1.059-0.986,1.728-2.631,1.728
						c-0.736,0-1.438-0.149-1.916-0.32v-1.307c1.127,0.53,1.725,0.697,2.242,0.697c0.422,0,0.727-0.188,0.727-0.548
						c0-1.024-3.049-0.926-3.049-2.673C91.643,20.608,92.6,20.06,94.016,20.06z"/>
					<path fill="#231F20" d="M104.961,22.961c-0.029,0.53-0.059,1.648-0.078,2.284c-0.578,0.299-1.488,0.47-2.363,0.47
						c-1.996,0-3.273-1.257-3.273-2.804c0-1.625,1.338-2.852,3.521-2.852c0.5,0,1.246,0.079,1.773,0.209l-0.389,1.059
						c-0.367-0.231-0.984-0.421-1.404-0.421c-1.258,0-1.707,1.118-1.707,2.016c0,1.506,0.809,1.995,1.717,1.995
						c0.109,0,0.459-0.012,0.566-0.038c0-0.65-0.008-1.479-0.057-1.918H104.961z"/>
					<path fill="#231F20" d="M108.682,20.198c1.176,0,2.582,0.421,2.582,1.666c0,0.669-0.496,1.147-1.275,1.456
						c0.158,0.282,1.467,1.976,1.727,2.254h-1.926c-0.34-0.646-0.984-1.765-1.627-2.712c0.77,0.099,1.438-0.268,1.438-1.007
						c0-0.71-0.818-0.92-1.217-0.92c-0.178,0-0.52,0-0.637,0.011c-0.031,0.659-0.043,1.448-0.043,1.805c0,0.469,0,2.008,0.092,2.823
						h-1.797c0.09-0.798,0.113-1.745,0.113-2.823c0-0.908-0.014-2.003-0.092-2.553H108.682z"/>
					<path fill="#231F20" d="M114.924,25.724c-1.672,0-2.93-1.146-2.93-2.831c0-1.696,1.258-2.833,2.93-2.833
						c1.666,0,2.924,1.137,2.924,2.833C117.848,24.577,116.59,25.724,114.924,25.724z M114.924,20.748
						c-0.775,0-1.268,0.757-1.268,2.145c0,1.386,0.492,2.125,1.268,2.125c0.77,0,1.248-0.739,1.248-2.125
						C116.172,21.505,115.693,20.748,114.924,20.748z"/>
					<path fill="#231F20" d="M120.34,20.198c-0.029,0.357-0.039,0.729-0.039,1.107v2.564c0,0.697,0.219,1.105,0.908,1.105
						c0.596,0,1.186-0.237,1.186-1.337v-2.601c0-0.549-0.01-0.611-0.049-0.84h1.484c-0.059,0.47-0.059,1.347-0.059,2.215v1.525
						c0,1.237-0.869,1.776-2.582,1.776c-1.557,0-2.512-0.329-2.512-1.857v-1.962c0-0.498-0.021-1.316-0.082-1.697H120.34z"/>
					<path fill="#231F20" d="M127.553,20.198c1.166,0,2.572,0.329,2.572,1.576c0,1.099-1,1.645-3.021,1.645
						c-0.121,0-0.449,0-0.541-0.009c0.043,0.75,0.031,1.655,0.082,2.164h-1.766c0.068-0.738,0.09-1.953,0.09-2.823
						c0-0.766-0.021-2.044-0.09-2.553H127.553z M126.582,20.946c0,0.349-0.02,0.712-0.02,1.059c0,0.259,0.012,0.458,0.02,0.646
						c0.063,0.012,0.342,0.012,0.521,0.012c0.568,0,1.355-0.16,1.355-0.889c0-0.708-0.807-0.839-1.418-0.839
						C126.963,20.936,126.664,20.936,126.582,20.946z"/>
				</g>
			</g>
		</g>
		<g>
			<g>
				<g>
					<path fill="#231F20" d="M40.678,4.482c-0.063,0.699-0.075,1.382-0.075,2.083v5.475c0,0.981,0.507,1.801,2.083,1.801
						c1.355,0,2.262-0.431,2.262-2.676V6.028c0-1.101-0.027-1.203-0.072-1.546h2.277c-0.12,0.757-0.12,2.527-0.12,4.271v3.021
						c0,2.351-1.386,3.332-4.569,3.332c-2.887,0-4.479-0.761-4.479-3.854V7.725c0-1.012-0.033-2.604-0.121-3.242H40.678z"/>
					<path fill="#231F20" d="M58.935,4.482c-0.552,0.578-3.412,3.777-4.169,4.54c0.596,0.802,4.048,5.252,4.672,5.876h-3.286
						c-0.687-1.131-2.682-3.75-3.632-4.956c0,1.249,0.013,3.706,0.149,4.956H49.78c0.147-1.443,0.165-4.541,0.165-5.446
						c0-1.012-0.063-3.764-0.15-4.97h2.859c-0.077,1.1-0.135,3.467-0.135,4.658c1.86-1.876,2.753-3.199,3.837-4.658H58.935z"/>
					<path fill="#231F20" d="M65.951,4.482c2.188,0,4.792,0.609,4.792,3.02c0,1.354-0.787,2.263-2.348,2.739
						c0.22,0.445,2.733,4.269,3.15,4.657h-3.107c-0.687-1.293-2.232-3.913-3.366-5.61c0.197,0.045,0.479,0.074,0.807,0.074
						c0.906,0,2.189-0.656,2.189-1.86c0-1.503-1.815-1.772-2.727-1.772c-0.46,0-0.906,0.032-1.129,0.062
						c-0.06,1.296-0.092,2.915-0.092,3.646c0,0.92,0,4.003,0.166,5.461h-2.903c0.151-1.443,0.18-3.304,0.18-5.461
						c0-1.817-0.014-3.988-0.149-4.955H65.951z"/>
					<path fill="#231F20" d="M77.215,4.273c1.283,0,2.457,0.192,3.201,0.403v2.289c-0.91-0.505-1.895-0.981-3.543-0.981
						c-1.488,0-1.576,0.551-1.576,0.938c0,1.89,6.043,1.636,6.043,4.939c0,2.038-1.818,3.244-4.883,3.244
						c-1.414,0-2.649-0.253-3.469-0.535v-2.277c1.859,0.877,3.037,1.177,4.092,1.177c1.178,0,1.787-0.343,1.787-1.118
						c0-2.038-6.041-1.739-6.041-5.207C72.826,5.316,74.582,4.273,77.215,4.273z"/>
					<path fill="#231F20" d="M86.588,4.482c-0.088,1.206-0.152,3.943-0.152,4.97c0,0.905,0.02,4.003,0.152,5.446h-2.885
						c0.146-1.443,0.16-4.541,0.16-5.446c0-1.012-0.059-3.764-0.135-4.97H86.588z"/>
					<path fill="#231F20" d="M94.668,4.482c1.855,0,3.822,0.685,3.822,2.408c0,1.043-0.877,1.965-2.203,2.308
						c1.801,0.552,2.738,1.518,2.738,2.842c0,2.115-2.502,2.858-4.881,2.858h-4.834c0.131-1.37,0.162-3.333,0.162-5.461
						c0-1.429-0.016-3.586-0.148-4.955H94.668z M93.059,5.642c-0.34,0-0.73,0.03-0.922,0.06c-0.061,1.386-0.09,2.128-0.09,3.736
						c0,1.889,0,2.68,0.074,4.211c0.342,0.017,0.895,0.017,1.207,0.017c2.008,0,3.004-0.582,3.004-1.743
						c0-1.37-1.648-1.86-2.902-1.86h-0.58l0.58-1.473h0.359c0.85,0,2.055-0.385,2.055-1.429C95.844,6.059,95.098,5.642,93.059,5.642
						z"/>
					<path fill="#231F20" d="M106.254,4.482c1.859,0,3.824,0.685,3.824,2.408c0,1.043-0.875,1.965-2.201,2.308
						c1.801,0.552,2.738,1.518,2.738,2.842c0,2.115-2.502,2.858-4.881,2.858h-4.838c0.135-1.37,0.166-3.333,0.166-5.461
						c0-1.429-0.016-3.586-0.148-4.955H106.254z M104.646,5.642c-0.34,0-0.727,0.03-0.922,0.06
						c-0.059,1.386-0.088,2.128-0.088,3.736c0,1.889,0,2.68,0.074,4.211c0.342,0.017,0.893,0.017,1.205,0.017
						c2.01,0,3.006-0.582,3.006-1.743c0-1.37-1.65-1.86-2.902-1.86h-0.58l0.58-1.473h0.359c0.848,0,2.055-0.385,2.055-1.429
						C107.434,6.059,106.688,5.642,104.646,5.642z"/>
					<path fill="#231F20" d="M117.965,4.482c0.4,1.071,3.824,8.688,4.625,10.416h-2.873c-0.162-0.477-0.504-1.34-0.951-2.456
						c-0.596-0.014-1.205-0.03-2.051-0.03c-0.791,0-1.385,0.017-2.068,0.03c-0.328,0.879-0.596,1.683-0.834,2.456h-2.5
						c0.596-1.293,4.09-8.887,4.643-10.416H117.965z M118.217,11.073c-0.682-1.636-1.279-3.036-1.49-3.526
						c-0.475,1.012-0.996,2.203-1.547,3.526c0.447,0.015,1.057,0.03,1.547,0.03C117.203,11.104,117.711,11.088,118.217,11.073z"/>
					<path fill="#231F20" d="M133.334,4.482c-0.105,1.189-0.166,3.943-0.166,4.955c0,0.92,0.012,4.018,0.178,5.461h-1.947
						l-4.465-6.563c-0.387-0.581-0.492-0.877-0.566-1.146c0,1.594-0.016,2.381-0.016,3.796c0,1.279,0.031,3.111,0.137,3.913h-2.426
						c0.146-1.443,0.162-4.541,0.162-5.461c0-1.012-0.061-3.766-0.131-4.955h2.734l3.334,4.894c0.715,1.043,0.861,1.266,0.982,1.652
						h0.014c-0.088-1.294-0.117-2.633-0.18-3.928l-0.102-2.618H133.334z"/>
					<path fill="#231F20" d="M145.129,4.482c-0.551,0.578-3.406,3.777-4.166,4.54c0.594,0.802,4.047,5.252,4.674,5.876h-3.291
						c-0.682-1.131-2.676-3.75-3.633-4.956c0,1.249,0.02,3.706,0.152,4.956h-2.887c0.148-1.443,0.162-4.541,0.162-5.446
						c0-1.012-0.059-3.764-0.146-4.97h2.855c-0.074,1.1-0.137,3.467-0.137,4.658c1.861-1.876,2.758-3.199,3.842-4.658H145.129z"/>
				</g>
			</g>
		</g>
	</g>
</g>
</svg>
