<?xml version="1.0" encoding="utf-8"?>
<!-- Generator: Adobe Illustrator 16.0.3, SVG Export Plug-In . SVG Version: 6.00 Build 0)  -->
<!DOCTYPE svg PUBLIC "-//W3C//DTD SVG 1.1//EN" "http://www.w3.org/Graphics/SVG/1.1/DTD/svg11.dtd">
<svg version="1.1" id="Layer_1" xmlns="http://www.w3.org/2000/svg" xmlns:xlink="http://www.w3.org/1999/xlink" x="0px" y="0px"
	 width="100px" height="29px" viewBox="0 0 100 29" enable-background="new 0 0 100 29" xml:space="preserve">
<g>
	<g>
		<g>
			<g>
				<path fill="#004B85" d="M34.21,13.216V1.107h4.445c0.956,0,1.579,0.147,2.096,0.386c1.23,0.588,1.782,1.709,1.782,2.737
					c0,1.159-0.479,1.947-1.453,2.537v0.037c1.396,0.311,2.242,1.284,2.242,2.755c0,1.635-0.991,2.885-2.682,3.4
					c-0.607,0.184-1.268,0.257-2.316,0.257H34.21 M39.649,3.183c-0.276-0.127-0.607-0.201-1.14-0.201h-2.223v3.161h2.094
					c0.661,0,1.065-0.111,1.359-0.277c0.479-0.273,0.717-0.734,0.717-1.322C40.457,3.937,40.181,3.441,39.649,3.183 M40.291,8.199
					c-0.293-0.128-0.66-0.201-1.378-0.201h-2.626v3.343h2.479c0.753,0,1.194-0.092,1.544-0.256c0.589-0.293,0.882-0.81,0.882-1.507
					C41.192,8.953,40.861,8.457,40.291,8.199z"/>
				<rect x="55.439" y="1.107" fill="#004B85" width="2.076" height="12.109"/>
				<rect x="70.514" y="1.107" fill="#004B85" width="2.074" height="12.109"/>
				<path fill="#004B85" d="M79.294,0.998c1.305,0,2.628,0.313,3.361,0.68L82.62,3.662c-1.048-0.514-2.114-0.846-3.381-0.846
					c-1.138,0-2.113,0.351-2.113,1.306c0,2.48,6.23,1.488,6.23,5.584c0,2.261-1.912,3.691-4.688,3.691
					c-1.89,0-3.195-0.533-4.096-1.081l0.862-1.691c0.736,0.46,1.914,0.956,3.309,0.956c1.25,0,2.408-0.479,2.408-1.58
					c0-2.594-6.174-1.453-6.174-5.586C74.978,2.209,76.74,0.998,79.294,0.998z"/>
				<polygon fill="#004B85" points="93.185,13.216 93.185,7.998 87.305,7.998 87.305,13.216 85.229,13.216 85.229,1.107 
					87.305,1.107 87.305,6.069 93.185,6.069 93.185,1.107 95.261,1.107 95.261,13.216 				"/>
				<path fill="#004B85" d="M38.794,15.343c1.322,0,2.332,0.259,3.363,0.717l-0.626,1.764c-0.588-0.273-1.361-0.604-2.516-0.604
					c-2.298,0-3.729,1.946-3.729,4.316c0,2.391,1.34,4.336,3.729,4.336c1.154,0,1.928-0.329,2.516-0.606l0.626,1.766
					c-1.031,0.458-2.041,0.715-3.363,0.715c-3.621,0-5.695-2.535-5.695-6.173C33.099,18.174,35.173,15.343,38.794,15.343z"/>
				<path fill="#004B85" d="M84.223,15.343c1.323,0,2.333,0.259,3.361,0.717l-0.624,1.764c-0.589-0.273-1.361-0.604-2.519-0.604
					c-2.297,0-3.729,1.946-3.729,4.316c0,2.391,1.342,4.336,3.729,4.336c1.157,0,1.93-0.329,2.519-0.606l0.624,1.766
					c-1.028,0.458-2.038,0.715-3.361,0.715c-3.622,0-5.698-2.535-5.698-6.173C78.524,18.174,80.601,15.343,84.223,15.343z"/>
				<path fill="#004B85" d="M54.024,21.496c0,3.641-2.316,6.249-5.733,6.249c-3.453,0-5.731-2.518-5.731-6.153
					c0-3.639,2.314-6.249,5.731-6.249C51.748,15.343,54.024,17.862,54.024,21.496 M51.837,21.535c0-2.646-1.505-4.336-3.546-4.336
					c-2.038,0-3.546,1.69-3.546,4.354c0,2.648,1.508,4.337,3.546,4.337C50.332,25.89,51.837,24.201,51.837,21.535z"/>
				<path fill="#004B85" d="M55.428,23.004v-7.55h2.076v7.625c0,2.02,1.085,2.773,2.812,2.773c1.764,0,2.813-0.754,2.813-2.773
					v-7.625h2.076v7.55c0,3.29-1.876,4.741-4.924,4.741C57.284,27.745,55.428,26.294,55.428,23.004z"/>
				<path fill="#004B85" d="M69.106,18.744h-0.037c0.037,0.403,0.055,1.046,0.055,1.617v7.199h-2.076V15.455h2.242l5.62,8.249h0.038
					c-0.038-0.405-0.055-1.048-0.055-1.619v-6.63h2.074v12.105h-1.836L69.106,18.744z"/>
				<rect x="89.215" y="15.454" fill="#004B85" width="2.072" height="12.108"/>
				<polygon fill="#004B85" points="93.185,27.563 93.185,15.454 95.261,15.454 95.261,25.688 100,25.688 100,27.563 				"/>
				<path fill="#004B85" d="M82.46,1.601"/>
			</g>
			<polygon fill="#004B85" points="68.926,1.11 59.098,1.11 59.098,3.002 62.973,3.002 62.973,13.216 65.049,13.216 65.049,3.002 
				68.926,3.002 			"/>
			<path fill="#004B85" d="M51.702,13.216c-1.762-3.655-2.223-4.685-2.957-4.685h-1.929v4.685h-2.075V1.11h4.096
				c3.123,0,4.318,1.653,4.318,3.49c0,1.617-0.937,2.701-2.242,3.103v0.02c0.551,0.313,1.138,1.453,3.159,5.494H51.702z
				 M48.967,2.983h-2.15v3.675h2.058c1.489,0,2.187-0.772,2.187-1.875C51.061,3.792,50.418,2.983,48.967,2.983z"/>
		</g>
	</g>
	<circle fill="#00A2E5" cx="6.925" cy="6.925" r="6.925"/>
	<circle fill="#00A2E5" cx="21.744" cy="6.925" r="6.924"/>
	<circle fill="#00A2E5" cx="6.925" cy="21.743" r="6.925"/>
	<circle fill="#00A2E5" cx="21.744" cy="21.743" r="6.924"/>
</g>
</svg>
