<?xml version="1.0" encoding="utf-8"?>
<!-- Generator: Adobe Illustrator 16.0.3, SVG Export Plug-In . SVG Version: 6.00 Build 0)  -->
<!DOCTYPE svg PUBLIC "-//W3C//DTD SVG 1.1//EN" "http://www.w3.org/Graphics/SVG/1.1/DTD/svg11.dtd">
<svg version="1.1" id="Layer_1" xmlns="http://www.w3.org/2000/svg" xmlns:xlink="http://www.w3.org/1999/xlink" x="0px" y="0px"
	 width="141.813px" height="39px" viewBox="0 0 141.813 39" enable-background="new 0 0 141.813 39" xml:space="preserve">
<g>
	<g>
		<g>
			<g>
				<path fill="#231F20" d="M48.495,10.74c0-1.97,0-2.323-0.025-2.729c-0.025-0.429-0.126-0.63-0.543-0.719
					c-0.1-0.025-0.315-0.038-0.429-0.038c-0.05,0-0.1-0.025-0.1-0.076c0-0.075,0.063-0.102,0.202-0.102
					c0.567,0,1.313,0.038,1.389,0.038c0.113,0,0.847-0.038,1.225-0.038c0.139,0,0.202,0.026,0.202,0.102
					c0,0.051-0.051,0.076-0.101,0.076c-0.088,0-0.164,0.013-0.315,0.038c-0.341,0.063-0.442,0.277-0.468,0.719
					c-0.025,0.405-0.025,0.759-0.025,2.729v0.758h0.051c0.214-0.24,2.5-2.563,2.955-3.056c0.354-0.366,0.683-0.695,0.683-0.91
					c0-0.15-0.063-0.227-0.164-0.265c-0.063-0.025-0.114-0.051-0.114-0.102c0-0.063,0.064-0.089,0.152-0.089
					c0.252,0,0.645,0.038,0.947,0.038c0.064,0,0.897-0.038,1.212-0.038c0.139,0,0.189,0.026,0.189,0.089
					c0,0.063-0.025,0.089-0.126,0.089c-0.189,0-0.454,0.063-0.707,0.177c-0.518,0.227-0.795,0.543-1.364,1.086
					c-0.315,0.303-2.513,2.45-2.777,2.766c0.327,0.366,2.955,3.081,3.472,3.562c1.062,0.984,1.275,1.188,1.882,1.439
					c0.328,0.139,0.694,0.164,0.782,0.164c0.089,0,0.166,0.025,0.166,0.076c0,0.063-0.063,0.1-0.278,0.1H55.82
					c-0.353,0-0.593,0-0.871-0.024c-0.669-0.063-0.985-0.341-1.528-0.771c-0.568-0.467-3.246-3.359-3.852-4.104h-0.063v1.239
					c0,1.211,0,2.209,0.063,2.739c0.038,0.366,0.114,0.644,0.493,0.695c0.176,0.024,0.379,0.05,0.492,0.05
					c0.076,0,0.101,0.038,0.101,0.076c0,0.063-0.063,0.1-0.202,0.1c-0.618,0-1.352-0.037-1.453-0.037s-0.833,0.037-1.211,0.037
					c-0.139,0-0.202-0.024-0.202-0.1c0-0.038,0.025-0.076,0.101-0.076c0.113,0,0.265-0.025,0.378-0.05
					c0.253-0.052,0.316-0.329,0.367-0.695c0.062-0.53,0.062-1.528,0.062-2.739V10.74z"/>
				<path fill="#231F20" d="M58.89,13.91c0-0.565-0.074-0.773-0.233-1.068c-0.086-0.16-1.547-2.481-1.916-3.034
					c-0.258-0.393-0.517-0.626-0.712-0.762c-0.16-0.098-0.369-0.146-0.456-0.146c-0.061,0-0.11-0.05-0.11-0.1
					c0-0.049,0.037-0.072,0.135-0.072c0.209,0,1.02,0.023,1.068,0.023c0.074,0,0.515-0.023,0.934-0.023
					c0.123,0,0.147,0.023,0.147,0.072c0,0.037-0.073,0.074-0.172,0.111c-0.086,0.037-0.135,0.086-0.135,0.172
					c0,0.147,0.074,0.271,0.147,0.405l1.966,3.255c0.221-0.442,1.572-2.678,1.768-3.021c0.135-0.233,0.184-0.405,0.184-0.54
					c0-0.148-0.049-0.233-0.172-0.271c-0.098-0.024-0.159-0.074-0.159-0.123c0-0.037,0.061-0.061,0.172-0.061
					c0.282,0,0.664,0.023,0.75,0.023c0.073,0,0.848-0.023,1.056-0.023c0.074,0,0.135,0.023,0.135,0.061
					c0,0.049-0.049,0.111-0.135,0.111c-0.122,0-0.331,0.036-0.503,0.134c-0.209,0.123-0.307,0.234-0.54,0.517
					c-0.356,0.417-1.879,2.874-2.1,3.315c-0.184,0.369-0.135,0.7-0.135,1.045v0.896c0,0.172,0,0.614,0.036,1.043
					c0.025,0.308,0.099,0.505,0.418,0.554c0.147,0.023,0.394,0.049,0.491,0.049c0.061,0,0.086,0.049,0.086,0.086
					c0,0.049-0.061,0.086-0.172,0.086c-0.602,0-1.302-0.037-1.364-0.037c-0.049,0-0.736,0.037-1.055,0.037
					c-0.123,0-0.172-0.024-0.172-0.086c0-0.037,0.025-0.086,0.086-0.086c0.098,0,0.221-0.025,0.319-0.049
					c0.221-0.049,0.295-0.246,0.319-0.554c0.025-0.429,0.025-0.871,0.025-1.043V13.91z"/>
				<path fill="#231F20" d="M66.054,13.591c0,1.007,0,1.83,0.049,2.259c0.037,0.308,0.074,0.505,0.394,0.554
					c0.16,0.023,0.393,0.049,0.491,0.049c0.061,0,0.086,0.049,0.086,0.086c0,0.049-0.049,0.086-0.172,0.086
					c-0.602,0-1.302-0.037-1.351-0.037c-0.061,0-0.736,0.037-1.068,0.037c-0.11,0-0.172-0.024-0.172-0.086
					c0-0.037,0.025-0.086,0.086-0.086c0.098,0,0.233-0.025,0.332-0.049c0.208-0.049,0.245-0.246,0.282-0.554
					c0.049-0.429,0.061-1.252,0.061-2.259v-1.842c0-1.622,0-1.917-0.024-2.248c-0.025-0.356-0.111-0.516-0.344-0.565
					c-0.123-0.024-0.258-0.036-0.331-0.036c-0.05,0-0.087-0.05-0.087-0.086c0-0.063,0.05-0.086,0.172-0.086
					c0.357,0,1.032,0.023,1.093,0.023c0.049,0,0.75-0.023,1.081-0.023c0.123,0,0.172,0.023,0.172,0.086
					c0,0.036-0.049,0.086-0.086,0.086c-0.074,0-0.147,0-0.271,0.023c-0.295,0.063-0.356,0.21-0.381,0.578
					c-0.012,0.331-0.012,0.626-0.012,2.248V13.591z"/>
				<path fill="#231F20" d="M72.445,15.261c0.626-1.399,2.039-4.962,2.271-5.711c0.05-0.159,0.099-0.308,0.099-0.394
					s-0.037-0.184-0.147-0.221c-0.123-0.036-0.245-0.036-0.368-0.036c-0.062,0-0.123-0.037-0.123-0.086
					c0-0.063,0.074-0.086,0.246-0.086c0.43,0,0.921,0.023,1.057,0.023c0.062,0,0.527-0.023,0.847-0.023
					c0.111,0,0.172,0.023,0.172,0.072c0,0.05-0.037,0.1-0.123,0.1c-0.073,0-0.319,0-0.516,0.122
					c-0.147,0.098-0.318,0.246-0.602,0.958c-0.122,0.295-0.651,1.548-1.204,2.825c-0.663,1.522-1.142,2.652-1.388,3.168
					c-0.294,0.627-0.356,0.787-0.466,0.787c-0.123,0-0.197-0.136-0.405-0.64L69.14,9.722c-0.245-0.589-0.393-0.7-0.748-0.786
					c-0.172-0.036-0.357-0.036-0.418-0.036s-0.086-0.063-0.086-0.1c0-0.061,0.111-0.072,0.282-0.072c0.516,0,1.13,0.023,1.266,0.023
					c0.11,0,0.589-0.023,1.006-0.023c0.197,0,0.295,0.023,0.295,0.072c0,0.05-0.037,0.1-0.11,0.1c-0.123,0-0.295,0.012-0.393,0.049
					c-0.111,0.049-0.123,0.11-0.123,0.185c0,0.135,0.135,0.454,0.295,0.871L72.445,15.261z"/>
				<path fill="#231F20" d="M81.984,16.461c-0.177-0.089-0.189-0.139-0.189-0.48c0-0.631,0.05-1.136,0.063-1.338
					c0.014-0.14,0.038-0.202,0.102-0.202c0.076,0,0.088,0.038,0.088,0.139c0,0.113,0,0.29,0.038,0.468
					c0.19,0.934,1.022,1.287,1.869,1.287c1.213,0,1.806-0.87,1.806-1.679c0-0.871-0.366-1.377-1.452-2.273l-0.567-0.467
					c-1.339-1.099-1.643-1.882-1.643-2.74c0-1.352,1.01-2.274,2.614-2.274c0.492,0,0.858,0.051,1.174,0.127
					c0.24,0.05,0.342,0.063,0.442,0.063s0.126,0.024,0.126,0.088s-0.05,0.479-0.05,1.339c0,0.201-0.025,0.291-0.088,0.291
					c-0.076,0-0.089-0.064-0.102-0.164c-0.013-0.152-0.089-0.493-0.165-0.633c-0.075-0.138-0.416-0.669-1.577-0.669
					c-0.872,0-1.555,0.543-1.555,1.466c0,0.719,0.328,1.173,1.541,2.121l0.354,0.277c1.49,1.175,1.844,1.957,1.844,2.968
					c0,0.518-0.202,1.478-1.072,2.097c-0.544,0.379-1.226,0.53-1.908,0.53C83.081,16.802,82.501,16.713,81.984,16.461z"/>
				<path fill="#231F20" d="M89.473,15.641c-1.057-0.908-1.313-2.099-1.313-3.095c0-0.699,0.257-1.916,1.216-2.85
					c0.651-0.626,1.633-1.117,3.291-1.117c0.43,0,1.044,0.037,1.572,0.123c0.405,0.074,0.749,0.147,1.104,0.16
					c0.111,0,0.136,0.049,0.136,0.11c0,0.086-0.024,0.209-0.049,0.589c-0.012,0.345-0.012,0.922-0.024,1.068
					c-0.013,0.16-0.063,0.222-0.123,0.222c-0.073,0-0.087-0.073-0.087-0.222c0-0.405-0.171-0.822-0.454-1.043
					c-0.38-0.319-1.166-0.577-2.125-0.577c-1.388,0-2.05,0.368-2.431,0.724c-0.799,0.737-0.971,1.671-0.971,2.727
					c0,2.002,1.585,3.783,3.894,3.783c0.811,0,1.351-0.062,1.781-0.491c0.233-0.233,0.38-0.676,0.417-0.871
					c0.024-0.111,0.036-0.148,0.111-0.148c0.049,0,0.097,0.074,0.097,0.148c0,0.072-0.146,0.982-0.257,1.337
					c-0.063,0.197-0.086,0.234-0.271,0.308c-0.442,0.172-1.252,0.234-1.953,0.234C91.413,16.76,90.321,16.378,89.473,15.641z"/>
				<path fill="#231F20" d="M104.473,13.591c0,1.007,0.013,1.83,0.062,2.259c0.036,0.308,0.062,0.505,0.393,0.554
					c0.148,0.023,0.394,0.049,0.479,0.049c0.074,0,0.098,0.049,0.098,0.086c0,0.049-0.061,0.086-0.184,0.086
					c-0.59,0-1.277-0.037-1.339-0.037c-0.049,0-0.749,0.037-1.068,0.037c-0.123,0-0.173-0.024-0.173-0.086
					c0-0.037,0.025-0.086,0.086-0.086c0.1,0,0.222-0.025,0.32-0.049c0.221-0.049,0.258-0.258,0.295-0.565
					c0.05-0.43,0.05-1.216,0.05-2.224v-1.043c0-0.049-0.025-0.062-0.063-0.062h-4.507c-0.037,0-0.062,0.013-0.062,0.062v1.043
					c0,1.008,0,1.807,0.049,2.235c0.036,0.308,0.073,0.505,0.393,0.554c0.16,0.023,0.394,0.049,0.492,0.049
					c0.062,0,0.085,0.049,0.085,0.086c0,0.049-0.049,0.086-0.172,0.086c-0.602,0-1.289-0.037-1.338-0.037
					c-0.062,0-0.749,0.037-1.081,0.037c-0.11,0-0.173-0.024-0.173-0.086c0-0.037,0.025-0.086,0.087-0.086
					c0.098,0,0.233-0.025,0.332-0.049c0.208-0.049,0.232-0.246,0.282-0.554c0.061-0.429,0.061-1.252,0.061-2.259v-1.842
					c0-1.622,0-1.917-0.023-2.248c-0.024-0.356-0.087-0.528-0.442-0.578c-0.086-0.012-0.271-0.023-0.368-0.023
					c-0.037,0-0.086-0.05-0.086-0.086c0-0.063,0.049-0.086,0.171-0.086c0.492,0,1.18,0.023,1.241,0.023
					c0.049,0,0.736-0.023,1.067-0.023c0.123,0,0.173,0.023,0.173,0.086c0,0.036-0.05,0.086-0.087,0.086c-0.073,0-0.146,0-0.27,0.023
					c-0.294,0.063-0.356,0.21-0.38,0.578c-0.013,0.331-0.013,0.651-0.013,2.271v0.222c0,0.061,0.024,0.061,0.062,0.061h4.507
					c0.037,0,0.063,0,0.063-0.061v-0.222c0-1.62-0.014-1.94-0.025-2.271c-0.024-0.356-0.074-0.528-0.43-0.578
					c-0.087-0.012-0.271-0.023-0.368-0.023c-0.05,0-0.087-0.05-0.087-0.086c0-0.063,0.05-0.086,0.173-0.086
					c0.479,0,1.179,0.023,1.228,0.023c0.062,0,0.749-0.023,1.068-0.023c0.123,0,0.186,0.023,0.186,0.086
					c0,0.036-0.051,0.086-0.1,0.086c-0.073,0-0.135,0-0.271,0.023c-0.281,0.063-0.344,0.21-0.368,0.578
					c-0.024,0.331-0.024,0.626-0.024,2.248V13.591z"/>
				<path fill="#231F20" d="M110.88,8.579c2.431,0,4.273,1.486,4.273,3.918c0,2.333-1.731,4.263-4.336,4.263
					c-2.959,0-4.224-2.224-4.224-4.103C106.594,10.975,107.895,8.579,110.88,8.579z M111.125,16.329
					c0.971,0,2.924-0.517,2.924-3.537c0-2.505-1.524-3.819-3.231-3.819c-1.805,0-3.107,1.13-3.107,3.401
					C107.71,14.807,109.172,16.329,111.125,16.329z"/>
				<path fill="#231F20" d="M120.774,8.579c2.433,0,4.274,1.486,4.274,3.918c0,2.333-1.731,4.263-4.335,4.263
					c-2.961,0-4.226-2.224-4.226-4.103C116.488,10.975,117.789,8.579,120.774,8.579z M121.02,16.329c0.97,0,2.923-0.517,2.923-3.537
					c0-2.505-1.522-3.819-3.229-3.819c-1.806,0-3.107,1.13-3.107,3.401C117.606,14.807,119.068,16.329,121.02,16.329z"/>
				<path fill="#231F20" d="M128.189,13.614c0,1.536,0.025,2.162,0.222,2.347c0.172,0.172,0.589,0.245,1.438,0.245
					c0.564,0,1.043-0.012,1.301-0.319c0.136-0.16,0.221-0.38,0.258-0.589c0.013-0.074,0.05-0.136,0.111-0.136
					c0.049,0,0.073,0.05,0.073,0.16s-0.073,0.736-0.159,1.044c-0.074,0.245-0.111,0.282-0.688,0.282
					c-0.773,0-1.375-0.012-1.878-0.037c-0.492-0.012-0.86-0.024-1.18-0.024c-0.049,0-0.233,0-0.442,0.013
					c-0.221,0.012-0.454,0.024-0.626,0.024c-0.11,0-0.173-0.024-0.173-0.086c0-0.037,0.025-0.086,0.087-0.086
					c0.098,0,0.232-0.025,0.331-0.049c0.209-0.049,0.233-0.246,0.283-0.554c0.061-0.429,0.061-1.252,0.061-2.259v-1.842
					c0-1.622,0-1.917-0.024-2.248c-0.024-0.356-0.086-0.528-0.441-0.578c-0.086-0.012-0.271-0.023-0.369-0.023
					c-0.036,0-0.085-0.05-0.085-0.086c0-0.063,0.049-0.086,0.171-0.086c0.491,0,1.166,0.023,1.229,0.023
					c0.049,0,0.859-0.023,1.191-0.023c0.11,0,0.172,0.023,0.172,0.086c0,0.036-0.05,0.073-0.086,0.073
					c-0.074,0-0.234,0.013-0.357,0.024c-0.317,0.062-0.38,0.222-0.405,0.59c-0.012,0.331-0.012,0.626-0.012,2.248V13.614z"/>
				<path fill="#231F20" d="M51.209,22.788c2.432,0,4.274,1.484,4.274,3.918c0,2.333-1.732,4.262-4.336,4.262
					c-2.959,0-4.224-2.225-4.224-4.102C46.923,25.183,48.225,22.788,51.209,22.788z M51.455,30.538c0.971,0,2.923-0.517,2.923-3.538
					c0-2.506-1.523-3.82-3.231-3.82c-1.805,0-3.106,1.131-3.106,3.402C48.041,29.015,49.503,30.538,51.455,30.538z"/>
				<path fill="#231F20" d="M57.642,25.955c0-1.62,0-1.915-0.024-2.247c-0.025-0.356-0.086-0.528-0.442-0.576
					c-0.087-0.012-0.27-0.026-0.368-0.026c-0.037,0-0.087-0.048-0.087-0.086c0-0.06,0.05-0.086,0.172-0.086
					c0.491,0,1.167,0.026,1.229,0.026c0.209,0,2.554,0.012,2.8,0c0.208-0.012,0.394-0.012,0.492-0.05
					c0.061-0.013,0.11-0.063,0.147-0.063c0.049,0,0.074,0.05,0.074,0.101c0,0.071-0.05,0.195-0.087,0.49
					c-0.011,0.098-0.024,0.563-0.048,0.688c-0.013,0.049-0.049,0.11-0.099,0.11c-0.049,0-0.085-0.048-0.085-0.122
					c0-0.086-0.037-0.258-0.099-0.395c-0.061-0.134-0.319-0.306-0.736-0.306L58.71,23.39c-0.062,0-0.086,0.024-0.086,0.11v2.85
					c0,0.06,0,0.098,0.074,0.098l1.474-0.012c0.184,0,0.344,0,0.491-0.014c0.258-0.024,0.405-0.061,0.503-0.183
					c0.049-0.062,0.099-0.112,0.135-0.112c0.049,0,0.062,0.038,0.062,0.087c0,0.062-0.074,0.233-0.098,0.578
					C61.24,27,61.229,27.418,61.229,27.49c0,0.1-0.025,0.21-0.099,0.21c-0.061,0-0.073-0.05-0.073-0.098
					c-0.013-0.112-0.025-0.259-0.074-0.381c-0.049-0.147-0.221-0.284-0.552-0.332c-0.27-0.038-1.548-0.023-1.732-0.023
					c-0.062,0-0.074,0.023-0.074,0.098v0.834c0,1.031,0,1.855,0.049,2.26c0.037,0.308,0.098,0.504,0.394,0.552
					c0.16,0.026,0.393,0.051,0.491,0.051c0.061,0,0.086,0.048,0.086,0.086c0,0.048-0.049,0.086-0.172,0.086
					c-0.601,0-1.301-0.038-1.351-0.038c-0.062,0-0.737,0.038-1.068,0.038c-0.11,0-0.172-0.024-0.172-0.086
					c0-0.038,0.025-0.086,0.086-0.086c0.098,0,0.233-0.036,0.331-0.051c0.209-0.036,0.234-0.244,0.283-0.552
					c0.061-0.431,0.061-1.253,0.061-2.26V25.955z"/>
				<path fill="#231F20" d="M68.909,24.949c0-1.972,0-2.325-0.025-2.729c-0.025-0.429-0.126-0.631-0.543-0.719
					c-0.101-0.026-0.315-0.038-0.429-0.038c-0.051,0-0.101-0.026-0.101-0.076c0-0.076,0.063-0.102,0.202-0.102
					c0.29,0,0.631,0,0.91,0.014l0.517,0.024c0.089,0,2.603,0,2.893-0.013c0.24-0.012,0.442-0.038,0.543-0.063
					c0.063-0.012,0.113-0.063,0.177-0.063c0.038,0,0.051,0.051,0.051,0.114c0,0.088-0.063,0.24-0.102,0.593
					c-0.013,0.126-0.038,0.682-0.063,0.834c-0.014,0.063-0.038,0.138-0.089,0.138c-0.075,0-0.102-0.062-0.102-0.164
					c0-0.088-0.012-0.302-0.075-0.454c-0.089-0.202-0.215-0.354-0.897-0.428c-0.214-0.026-1.59-0.04-1.729-0.04
					c-0.05,0-0.076,0.04-0.076,0.128v3.485c0,0.089,0.013,0.127,0.076,0.127c0.164,0,1.718,0,2.008-0.026
					c0.304-0.026,0.48-0.05,0.594-0.176c0.089-0.103,0.139-0.167,0.189-0.167c0.038,0,0.063,0.026,0.063,0.103
					s-0.063,0.29-0.102,0.706c-0.024,0.255-0.051,0.721-0.051,0.809c0,0.103,0,0.24-0.088,0.24c-0.063,0-0.088-0.05-0.088-0.114
					c0-0.126,0-0.252-0.051-0.416c-0.051-0.176-0.164-0.393-0.656-0.442c-0.342-0.038-1.591-0.062-1.807-0.062
					c-0.063,0-0.089,0.038-0.089,0.088v1.11c0,0.431-0.012,1.895,0,2.161c0.039,0.87,0.228,1.034,1.466,1.034
					c0.328,0,0.884,0,1.212-0.138c0.329-0.14,0.479-0.393,0.568-0.91c0.025-0.139,0.051-0.19,0.113-0.19
					c0.076,0,0.076,0.102,0.076,0.19c0,0.102-0.101,0.96-0.164,1.225c-0.089,0.328-0.189,0.328-0.682,0.328
					c-0.947,0-1.642-0.024-2.135-0.038c-0.492-0.024-0.795-0.038-0.985-0.038c-0.025,0-0.239,0-0.505,0.014
					c-0.252,0-0.542,0.024-0.732,0.024c-0.138,0-0.201-0.024-0.201-0.101c0-0.038,0.025-0.076,0.1-0.076
					c0.114,0,0.267-0.025,0.379-0.05c0.253-0.05,0.316-0.328,0.366-0.694c0.063-0.53,0.063-1.528,0.063-2.741V24.949z"/>
				<path fill="#231F20" d="M76.068,29.85c-1.057-0.909-1.314-2.102-1.314-3.096c0-0.698,0.258-1.915,1.215-2.85
					c0.652-0.626,1.635-1.116,3.293-1.116c0.429,0,1.043,0.035,1.571,0.122c0.405,0.073,0.75,0.147,1.105,0.16
					c0.11,0,0.136,0.05,0.136,0.109c0,0.086-0.025,0.21-0.05,0.591c-0.013,0.344-0.013,0.92-0.024,1.068
					c-0.012,0.16-0.062,0.22-0.123,0.22c-0.074,0-0.086-0.074-0.086-0.22c0-0.406-0.172-0.822-0.454-1.045
					c-0.381-0.32-1.167-0.576-2.124-0.576c-1.388,0-2.053,0.368-2.433,0.725c-0.799,0.736-0.971,1.669-0.971,2.726
					c0,2.003,1.585,3.783,3.894,3.783c0.812,0,1.352-0.062,1.781-0.492c0.233-0.231,0.381-0.674,0.418-0.872
					c0.023-0.11,0.036-0.146,0.109-0.146c0.049,0,0.1,0.074,0.1,0.146c0,0.074-0.148,0.982-0.259,1.339
					c-0.062,0.198-0.086,0.234-0.27,0.308c-0.442,0.173-1.253,0.234-1.953,0.234C78.008,30.968,76.914,30.586,76.068,29.85z"/>
				<path fill="#231F20" d="M87.635,22.788c2.433,0,4.274,1.484,4.274,3.918c0,2.333-1.732,4.262-4.335,4.262
					c-2.96,0-4.225-2.225-4.225-4.102C83.35,25.183,84.651,22.788,87.635,22.788z M87.881,30.538c0.971,0,2.923-0.517,2.923-3.538
					c0-2.506-1.523-3.82-3.229-3.82c-1.806,0-3.107,1.131-3.107,3.402C84.467,29.015,85.928,30.538,87.881,30.538z"/>
				<path fill="#231F20" d="M94.637,29.407c0.023,0.86,0.123,1.118,0.417,1.19c0.197,0.05,0.442,0.063,0.541,0.063
					c0.049,0,0.085,0.035,0.085,0.086c0,0.062-0.073,0.086-0.196,0.086c-0.614,0-1.043-0.038-1.143-0.038
					c-0.098,0-0.552,0.038-1.043,0.038c-0.11,0-0.172-0.013-0.172-0.086c0-0.051,0.037-0.086,0.086-0.086
					c0.086,0,0.282-0.013,0.442-0.063c0.27-0.072,0.307-0.356,0.307-1.301v-5.98c0-0.419,0.062-0.528,0.147-0.528
					c0.123,0,0.307,0.208,0.417,0.317c0.172,0.173,1.744,1.844,3.415,3.563c1.068,1.106,2.223,2.347,2.555,2.689l-0.11-5.231
					c-0.013-0.676-0.074-0.908-0.405-0.97c-0.197-0.036-0.442-0.051-0.528-0.051c-0.074,0-0.086-0.06-0.086-0.098
					c0-0.06,0.086-0.074,0.208-0.074c0.492,0,1.007,0.026,1.13,0.026s0.479-0.026,0.921-0.026c0.111,0,0.197,0.015,0.197,0.074
					c0,0.038-0.049,0.098-0.123,0.098c-0.049,0-0.136,0-0.257,0.026c-0.356,0.074-0.382,0.282-0.382,0.908l-0.024,6.115
					c0,0.688-0.013,0.751-0.087,0.751c-0.109,0-0.22-0.087-0.822-0.639c-0.11-0.098-1.67-1.635-2.813-2.825
					c-1.252-1.315-2.468-2.592-2.8-2.96L94.637,29.407z"/>
				<path fill="#231F20" d="M107.243,22.788c2.431,0,4.274,1.484,4.274,3.918c0,2.333-1.732,4.262-4.336,4.262
					c-2.96,0-4.225-2.225-4.225-4.102C102.957,25.183,104.259,22.788,107.243,22.788z M107.489,30.538
					c0.971,0,2.923-0.517,2.923-3.538c0-2.506-1.522-3.82-3.229-3.82c-1.806,0-3.107,1.131-3.107,3.402
					C104.074,29.015,105.536,30.538,107.489,30.538z"/>
				<path fill="#231F20" d="M121.864,29.493c0.037,0.368,0.11,0.933,0.554,1.08c0.306,0.099,0.589,0.099,0.699,0.099
					c0.049,0,0.086,0.023,0.086,0.074c0,0.062-0.098,0.098-0.221,0.098c-0.247,0-1.45-0.012-1.843-0.05
					c-0.258-0.024-0.307-0.061-0.307-0.11c0-0.036,0.023-0.074,0.073-0.086c0.062-0.012,0.073-0.172,0.049-0.368l-0.516-5.305
					h-0.024l-2.604,5.331c-0.222,0.452-0.282,0.552-0.382,0.552c-0.098,0-0.158-0.1-0.368-0.48
					c-0.282-0.514-0.994-1.854-1.265-2.419c-0.318-0.662-1.191-2.419-1.375-2.85h-0.05l-0.417,4.717
					c-0.013,0.16-0.013,0.356-0.013,0.528c0,0.16,0.099,0.258,0.258,0.294c0.185,0.05,0.345,0.063,0.417,0.063
					c0.037,0,0.087,0.035,0.087,0.073c0,0.074-0.073,0.099-0.196,0.099c-0.405,0-0.922-0.038-1.008-0.038
					c-0.098,0-0.613,0.038-0.908,0.038c-0.111,0-0.185-0.024-0.185-0.099c0-0.038,0.05-0.073,0.11-0.073
					c0.086,0,0.16-0.013,0.32-0.036c0.356-0.063,0.368-0.442,0.417-0.837l0.786-6.815c0.013-0.11,0.062-0.184,0.122-0.184
					c0.074,0,0.16,0.035,0.222,0.16l3.268,6.482l3.144-6.471c0.049-0.099,0.098-0.172,0.172-0.172s0.135,0.086,0.159,0.282
					L121.864,29.493z"/>
				<path fill="#231F20" d="M126.189,27.798c0,1.007,0,1.829,0.049,2.26c0.036,0.308,0.073,0.504,0.394,0.552
					c0.159,0.026,0.394,0.051,0.491,0.051c0.062,0,0.085,0.048,0.085,0.086c0,0.048-0.048,0.086-0.171,0.086
					c-0.603,0-1.303-0.038-1.352-0.038c-0.062,0-0.736,0.038-1.068,0.038c-0.11,0-0.172-0.024-0.172-0.086
					c0-0.038,0.024-0.086,0.085-0.086c0.1,0,0.234-0.024,0.333-0.051c0.209-0.048,0.245-0.244,0.282-0.552
					c0.05-0.431,0.062-1.253,0.062-2.26v-1.843c0-1.62,0-1.915-0.025-2.247c-0.023-0.356-0.109-0.516-0.344-0.564
					c-0.122-0.023-0.257-0.038-0.331-0.038c-0.049,0-0.086-0.048-0.086-0.086c0-0.06,0.049-0.086,0.172-0.086
					c0.356,0,1.031,0.026,1.093,0.026c0.049,0,0.749-0.026,1.081-0.026c0.122,0,0.173,0.026,0.173,0.086
					c0,0.038-0.051,0.086-0.087,0.086c-0.073,0-0.147,0-0.27,0.026c-0.295,0.061-0.356,0.208-0.382,0.576
					c-0.012,0.332-0.012,0.627-0.012,2.247V27.798z"/>
				<path fill="#231F20" d="M129.636,29.85c-1.056-0.909-1.314-2.102-1.314-3.096c0-0.698,0.259-1.915,1.216-2.85
					c0.651-0.626,1.634-1.116,3.292-1.116c0.43,0,1.045,0.035,1.571,0.122c0.406,0.073,0.75,0.147,1.106,0.16
					c0.11,0,0.135,0.05,0.135,0.109c0,0.086-0.024,0.21-0.049,0.591c-0.013,0.344-0.013,0.92-0.025,1.068
					c-0.012,0.16-0.061,0.22-0.122,0.22c-0.074,0-0.086-0.074-0.086-0.22c0-0.406-0.172-0.822-0.454-1.045
					c-0.382-0.32-1.168-0.576-2.125-0.576c-1.388,0-2.052,0.368-2.432,0.725c-0.798,0.736-0.971,1.669-0.971,2.726
					c0,2.003,1.584,3.783,3.894,3.783c0.811,0,1.351-0.062,1.78-0.492c0.233-0.231,0.381-0.674,0.418-0.872
					c0.024-0.11,0.037-0.146,0.11-0.146c0.05,0,0.099,0.074,0.099,0.146c0,0.074-0.147,0.982-0.258,1.339
					c-0.062,0.198-0.087,0.234-0.271,0.308c-0.442,0.173-1.253,0.234-1.953,0.234C131.576,30.968,130.484,30.586,129.636,29.85z"/>
				<path fill="#231F20" d="M137.301,30.684c-0.148-0.074-0.16-0.11-0.16-0.392c0-0.517,0.05-0.935,0.062-1.105
					c0-0.111,0.024-0.172,0.085-0.172c0.063,0,0.1,0.036,0.1,0.122s0,0.232,0.037,0.381c0.171,0.762,0.982,1.032,1.706,1.032
					c1.069,0,1.621-0.603,1.621-1.389c0-0.749-0.405-1.104-1.362-1.817l-0.491-0.368c-1.168-0.872-1.548-1.511-1.548-2.235
					c0-1.229,0.969-1.965,2.395-1.965c0.43,0,0.86,0.061,1.118,0.122c0.208,0.051,0.294,0.051,0.38,0.051s0.111,0.012,0.111,0.071
					c0,0.051-0.049,0.395-0.049,1.106c0,0.16-0.014,0.232-0.086,0.232c-0.074,0-0.087-0.048-0.1-0.134
					c-0.012-0.122-0.098-0.406-0.159-0.517c-0.074-0.122-0.43-0.516-1.399-0.516c-0.786,0-1.438,0.394-1.438,1.13
					c0,0.662,0.332,1.045,1.4,1.77l0.308,0.208c1.313,0.896,1.768,1.62,1.768,2.517c0,0.614-0.233,1.279-1.007,1.781
					c-0.455,0.296-1.131,0.37-1.72,0.37C138.369,30.968,137.742,30.894,137.301,30.684z"/>
			</g>
		</g>
	</g>
	<g>
		<rect x="0.214" y="0.5" fill="#06357A" width="38" height="38"/>
		<g>
			<path fill="#FFFFFF" d="M27.618,16.59c-1.894,0.184-3.363,0.726-4.386,2.312c-1.178,1.821-0.835,3.604-0.749,5.501
				c0.188,4.139-1.198,4.913-2.283,5.259c-1.097,0.351-2.517-0.024-3.151-0.723c-1.678-1.847-0.28-3.972,1.748-4.038
				c0.066,0.013,0.429-0.714,0.414-0.716c-1.546-0.082-3.022,1.154-3.507,2.659c-0.715,2.219,0.667,4.805,3.824,3.914
				c2.462-0.692,4.114-2.842,4.139-5.435c0.021-2.247-0.748-4.94,0.216-6.339c0.801-1.164,2.207-1.181,3.403-1.197
				C27.478,17.785,27.588,16.59,27.618,16.59z"/>
			<path fill="#FFFFFF" d="M30.461,27.26c-1.542,0.665-2.588,0.498-3.188-0.118c-1.214-1.244,0.063-3.571,1.227-4.652
				c1.257-1.166,2.497-1.713,4.071-2.343c0.032-0.019,0.207-1.209,0.133-1.162c-2.645,1.557-3.703,0.931-2.726-0.449
				c0.873-1.229,2.6-2.098,4.354-2.111c0.116-0.001,0.449-1.239,0.299-1.229c-1.994,0.133-3.5,1.229-4.376,2.044
				c-0.828,0.768-1.517,1.729-1.518,2.83c-0.002,0.828,0.779,0.694,0.629,0.814c-3.515,2.359-4.384,4.771-3.577,6.609
				c1.219,2.777,4.831,0.849,7.063-0.746c2.272-1.625,3.682-3,5.352-4.646v-0.692C36.196,23.576,32.983,26.172,30.461,27.26z"/>
			<path fill="#FFFFFF" d="M10.036,26.396c2.509-1.977,5.508-4.188,9.923-5.889c0.312-0.12,0.501-1.309,0.423-1.272
				c-3.782,1.13-9.848,5.795-10.382,6.225c-1.926,1.533-3.814,3.26-5.532,5.024c-0.465,0.479-0.934,0.883-1.126,0.853
				c0,0,0.209-0.845,0.418-1.257c0.662-1.284,1.671-2.985,2.452-4.432c2.061-1.579,3.782-2.602,5.717-4.055
				c4.869-3.656,7.662-6.082,12.01-10.683c1.294-1.368,2.75-3.001,3.845-4.59c0.664-0.964,0.91-2.377-0.341-2.285
				c-1.636,0.12-5.642,3.312-8.85,6.282c-4.381,4.058-9.058,9.598-11.932,13.936c-1.097,0.986-4.165,3.005-6.448,3.731v1.158
				c0.474-0.17,0.935-0.359,1.367-0.538c1.243-0.522,2.715-1.685,3.876-2.383c-0.923,1.486-1.981,3.445-2.467,5.12
				c-0.207,0.715-0.323,1.347-0.023,1.241c0.504-0.175,0.887-0.692,1.23-0.999c0.95-0.856,1.877-1.755,2.828-2.621
				c1.367-1.238,0.958-1.026,2.454-2.151c1.92-0.134,2.509,0.873,2.293,4.778c-0.013,0.248,0.908-0.504,1.075-0.82
				C12.872,28.07,11.972,26.222,10.036,26.396z M24.136,6.631c1.15-0.812,2.469-1.585,3.038-1.438
				c0.416,0.107,0.084,0.93-0.411,1.531c-2.282,2.771-4.459,4.981-7.021,7.308c-4.157,3.774-6.745,5.967-11.932,9.489
				C13.296,15.627,20.575,9.142,24.136,6.631z"/>
		</g>
	</g>
</g>
</svg>
