<?xml version="1.0" encoding="utf-8"?>
<!-- Generator: Adobe Illustrator 16.0.3, SVG Export Plug-In . SVG Version: 6.00 Build 0)  -->
<!DOCTYPE svg PUBLIC "-//W3C//DTD SVG 1.1//EN" "http://www.w3.org/Graphics/SVG/1.1/DTD/svg11.dtd">
<svg version="1.1" id="Layer_1" xmlns="http://www.w3.org/2000/svg" xmlns:xlink="http://www.w3.org/1999/xlink" x="0px" y="0px"
	 width="164px" height="50px" viewBox="0 0 164 50" enable-background="new 0 0 164 50" xml:space="preserve">
<g>
	<g>
		<rect x="0.082" y="25.604" fill-rule="evenodd" clip-rule="evenodd" fill="#003C79" width="10.322" height="10.322"/>
		<rect x="12.469" y="25.604" fill-rule="evenodd" clip-rule="evenodd" fill="#003C79" width="10.322" height="10.322"/>
		<rect x="24.855" y="25.604" fill-rule="evenodd" clip-rule="evenodd" fill="#003C79" width="10.322" height="10.322"/>
		<rect x="0.082" y="13.217" fill-rule="evenodd" clip-rule="evenodd" fill="#003C79" width="10.322" height="10.322"/>
		<rect x="12.469" y="13.217" fill-rule="evenodd" clip-rule="evenodd" fill="#009DDD" width="10.322" height="10.322"/>
		<rect x="24.855" y="13.217" fill-rule="evenodd" clip-rule="evenodd" fill="#009DDD" width="10.322" height="10.322"/>
		<rect x="0.082" y="0.83" fill-rule="evenodd" clip-rule="evenodd" fill="#003D79" width="10.322" height="10.322"/>
		<rect x="12.469" y="0.83" fill-rule="evenodd" clip-rule="evenodd" fill="#009DDD" width="10.322" height="10.322"/>
		<rect x="24.855" y="0.83" fill-rule="evenodd" clip-rule="evenodd" fill="#009CDC" width="10.322" height="10.322"/>
	</g>
	<g>
		<path fill="#003C79" d="M41.962,0.83h2.809v13.171h6.325v2.376h-9.134V0.83z"/>
		<path fill="#003C79" d="M61.6,13.679c0,1.185,0.061,2.083,0.183,2.698h-2.535l-0.205-1.245h-0.068
			c-0.762,0.999-1.857,1.499-3.288,1.499c-1.066,0-1.926-0.346-2.58-1.038c-0.609-0.63-0.914-1.399-0.914-2.307
			c0-2.86,2.2-4.275,6.6-4.244V8.857c0-0.508-0.13-0.931-0.389-1.269c-0.381-0.462-1.005-0.692-1.872-0.692
			c-1.127,0-2.124,0.277-2.991,0.831l-0.548-1.846c0.456-0.277,1.012-0.508,1.667-0.692c0.745-0.199,1.529-0.3,2.352-0.3
			c1.644,0,2.854,0.484,3.631,1.453c0.639,0.8,0.959,1.899,0.959,3.299V13.679z M58.859,10.888c-1.142-0.016-2.04,0.115-2.694,0.392
			c-0.792,0.354-1.188,0.923-1.188,1.707c0,1.076,0.532,1.614,1.599,1.614c1.126,0,1.864-0.515,2.215-1.545
			c0.046-0.139,0.068-0.347,0.068-0.623V10.888z"/>
		<path fill="#003C79" d="M65.983,5.144l1.804,5.698c0.274,0.845,0.525,1.783,0.754,2.813h0.068
			c0.092-0.415,0.205-0.876,0.343-1.384l0.411-1.43l1.78-5.698h2.946l-4.247,11.233h-2.764L62.946,5.144H65.983z"/>
		<path fill="#003C79" d="M75.665,8.765c0-1.537-0.031-2.744-0.092-3.621h2.421l0.114,2.122h0.068
			c0.548-1.583,1.567-2.376,3.06-2.376c0.213,0,0.435,0.023,0.662,0.069v2.653c-0.243-0.047-0.525-0.069-0.845-0.069
			c-1.401,0-2.237,0.715-2.512,2.145c-0.046,0.247-0.068,0.531-0.068,0.854v5.836h-2.809V8.765z"/>
		<path fill="#003C79" d="M85.62,5.213l2.307,6.066c0.167,0.446,0.334,0.931,0.502,1.453l0.479,1.407h0.046l0.799-2.906l1.758-6.021
			h2.627l-3.289,9.526c-0.228,0.615-0.441,1.161-0.639,1.638c-0.487,1.169-0.952,2.076-1.394,2.722
			c-0.929,1.323-2.055,1.984-3.379,1.984c-0.548,0-0.975-0.069-1.278-0.208l0.183-2.283c0.197,0.062,0.486,0.093,0.867,0.093
			c0.533,0,1.005-0.224,1.416-0.67c0.319-0.338,0.586-0.776,0.799-1.314c0.092-0.23,0.076-0.508-0.046-0.83L82.812,5.213H85.62z"/>
		<path fill="#003C79" d="M95.438,8.488c0-0.584-0.008-1.184-0.022-1.799l-0.069-1.546h2.443l0.138,1.684h0.068
			c0.289-0.522,0.715-0.953,1.278-1.291c0.67-0.431,1.431-0.646,2.284-0.646c1.096,0,1.994,0.361,2.694,1.084
			c0.837,0.847,1.256,2.092,1.256,3.737v6.666H102.7v-6.343c0-1.892-0.708-2.838-2.124-2.838c-1.081,0-1.812,0.554-2.191,1.661
			c-0.092,0.23-0.138,0.53-0.138,0.899v6.62h-2.809V8.488z"/>
		<path fill="#003C79" d="M117.404,6.481c1.02,1.076,1.53,2.469,1.53,4.175c0,1.938-0.594,3.453-1.781,4.544
			c-1.065,0.954-2.374,1.431-3.927,1.431c-1.614,0-2.931-0.515-3.951-1.546c-1.081-1.061-1.621-2.476-1.621-4.243
			c0-1.814,0.54-3.269,1.621-4.36c1.051-1.061,2.429-1.592,4.134-1.592C115.053,4.89,116.385,5.421,117.404,6.481z M111.193,8.165
			c-0.426,0.692-0.639,1.562-0.639,2.606c0,1.107,0.251,2.015,0.754,2.723c0.502,0.723,1.171,1.084,2.009,1.084
			c0.807,0,1.462-0.354,1.964-1.062c0.502-0.723,0.754-1.652,0.754-2.791c0-0.999-0.206-1.853-0.617-2.561
			c-0.502-0.814-1.195-1.223-2.078-1.223C112.411,6.942,111.696,7.351,111.193,8.165z"/>
		<path fill="#003C79" d="M122.702,5.144l1.805,5.698c0.273,0.845,0.524,1.783,0.753,2.813h0.068
			c0.092-0.415,0.206-0.876,0.343-1.384l0.411-1.43l1.781-5.698h2.945l-4.247,11.233h-2.763l-4.134-11.233H122.702z"/>
		<path fill="#003C79" d="M134.211,5.213l2.306,6.066c0.168,0.446,0.335,0.931,0.503,1.453l0.479,1.407h0.046l0.799-2.906
			l1.759-6.021h2.625l-3.288,9.526c-0.229,0.615-0.441,1.161-0.639,1.638c-0.487,1.169-0.952,2.076-1.394,2.722
			c-0.929,1.323-2.055,1.984-3.379,1.984c-0.549,0-0.975-0.069-1.279-0.208l0.183-2.283c0.198,0.062,0.487,0.093,0.868,0.093
			c0.533,0,1.005-0.224,1.416-0.67c0.319-0.338,0.585-0.776,0.799-1.314c0.091-0.23,0.076-0.508-0.046-0.83l-4.566-10.657H134.211z"
			/>
		<path fill="#003C79" d="M151.907,16.031c-0.335,0.153-0.762,0.285-1.279,0.393c-0.608,0.122-1.232,0.184-1.872,0.184
			c-1.735,0-3.12-0.522-4.155-1.568c-1.051-1.045-1.576-2.437-1.576-4.175c0-1.737,0.54-3.152,1.621-4.244
			c1.143-1.153,2.664-1.73,4.567-1.73c1.035,0,1.94,0.17,2.717,0.508l-0.502,2.146c-0.579-0.292-1.287-0.438-2.124-0.438
			c-1.05,0-1.888,0.354-2.512,1.061c-0.608,0.677-0.905,1.538-0.891,2.584c0,1.123,0.328,2.015,0.982,2.676
			c0.624,0.631,1.431,0.945,2.42,0.945c0.441,0,0.86-0.046,1.257-0.139c0.319-0.061,0.639-0.161,0.958-0.299L151.907,16.031z"/>
		<path fill="#003C79" d="M153.848,0h2.809v6.666h0.046c0.35-0.538,0.814-0.961,1.393-1.269c0.594-0.338,1.24-0.508,1.941-0.508
			c1.08,0,1.963,0.361,2.648,1.084c0.822,0.862,1.233,2.123,1.233,3.783v6.62h-2.809v-6.32c0-0.86-0.16-1.537-0.479-2.029
			c-0.381-0.554-0.937-0.831-1.667-0.831c-1.066,0-1.797,0.531-2.192,1.592c-0.076,0.216-0.114,0.5-0.114,0.854v6.735h-2.809V0z"/>
		<path fill="#003C79" d="M51.667,35.919c-0.152-0.153-0.343-0.354-0.571-0.6l-0.64-0.692c-1.187,1.031-2.634,1.546-4.338,1.546
			c-1.599,0-2.862-0.453-3.791-1.361c-0.853-0.814-1.278-1.829-1.278-3.045c0-0.999,0.274-1.892,0.822-2.675
			c0.502-0.724,1.218-1.33,2.146-1.823V27.2c-0.822-0.984-1.233-2.022-1.233-3.114c0-1.062,0.365-1.969,1.096-2.722
			c0.792-0.846,1.857-1.269,3.197-1.269c1.11,0,2.024,0.314,2.74,0.945c0.73,0.646,1.096,1.491,1.096,2.537
			c0,1.631-1.059,2.991-3.174,4.083l-0.022,0.069l1.644,1.892c0.608,0.707,1.096,1.261,1.461,1.66
			c0.655-1.015,1.119-2.391,1.394-4.129h2.512c-0.214,1.262-0.503,2.354-0.868,3.276c-0.41,1.015-0.921,1.868-1.529,2.561
			l2.626,2.929H51.667z M49.132,33.013c-0.426-0.445-1.005-1.076-1.735-1.892l-2.123-2.422c-0.442,0.323-0.792,0.661-1.051,1.015
			c-0.335,0.492-0.502,1.03-0.502,1.615c0,0.784,0.259,1.43,0.776,1.938c0.532,0.538,1.218,0.808,2.055,0.808
			C47.571,34.074,48.432,33.72,49.132,33.013z M45.318,23.809c0,0.801,0.373,1.631,1.119,2.491c1.37-0.876,2.056-1.753,2.056-2.629
			c0-0.462-0.122-0.861-0.366-1.2c-0.289-0.369-0.685-0.554-1.187-0.554C45.859,21.917,45.318,22.548,45.318,23.809z"/>
		<path fill="#003C79" d="M61.416,20.579c0.563-0.106,1.172-0.184,1.827-0.23c0.761-0.061,1.583-0.092,2.466-0.092
			c2.01,0,3.517,0.423,4.521,1.269c1.005,0.83,1.507,1.976,1.507,3.438c0,1.491-0.434,2.66-1.302,3.506
			c-1.127,1.123-2.748,1.684-4.864,1.684c-0.593,0-1.05-0.038-1.369-0.115v5.882h-2.786V20.579z M64.202,27.8
			c0.289,0.092,0.746,0.139,1.369,0.139c2.254,0,3.38-0.954,3.38-2.86c0-1.754-1.042-2.63-3.128-2.63
			c-0.365,0-0.693,0.016-0.981,0.046c-0.26,0.016-0.473,0.046-0.64,0.093V27.8z"/>
		<path fill="#003C79" d="M82.218,33.221c0,1.185,0.061,2.083,0.183,2.698h-2.534l-0.206-1.245h-0.068
			c-0.761,0.999-1.857,1.499-3.288,1.499c-1.065,0-1.926-0.346-2.58-1.038c-0.609-0.63-0.913-1.399-0.913-2.307
			c0-2.86,2.199-4.275,6.599-4.244v-0.185c0-0.508-0.129-0.931-0.388-1.269c-0.381-0.462-1.005-0.692-1.873-0.692
			c-1.126,0-2.124,0.277-2.991,0.83l-0.548-1.845c0.457-0.276,1.012-0.508,1.667-0.692c0.746-0.199,1.53-0.3,2.352-0.3
			c1.645,0,2.854,0.484,3.631,1.453c0.64,0.8,0.959,1.899,0.959,3.299V33.221z M79.478,30.43c-1.142-0.016-2.04,0.115-2.694,0.392
			c-0.792,0.354-1.188,0.923-1.188,1.707c0,1.076,0.533,1.614,1.599,1.614c1.126,0,1.864-0.515,2.215-1.545
			c0.046-0.139,0.068-0.347,0.068-0.623V30.43z"/>
		<path fill="#003C79" d="M85.187,28.307c0-1.537-0.031-2.744-0.092-3.621h2.421l0.114,2.122h0.068
			c0.548-1.584,1.567-2.376,3.06-2.376c0.213,0,0.434,0.023,0.662,0.069v2.652c-0.244-0.046-0.525-0.068-0.845-0.068
			c-1.401,0-2.238,0.715-2.512,2.145c-0.046,0.247-0.069,0.53-0.069,0.854v5.836h-2.808V28.307z"/>
		<path fill="#003C79" d="M97.06,21.802v2.884h2.672v2.122H97.06v4.959c0,1.385,0.479,2.076,1.438,2.076
			c0.472,0,0.837-0.038,1.096-0.115l0.046,2.146c-0.502,0.199-1.18,0.3-2.032,0.3c-1.05,0-1.857-0.308-2.42-0.923
			c-0.595-0.614-0.891-1.668-0.891-3.16v-5.282h-1.576v-2.122h1.576v-2.099L97.06,21.802z"/>
		<path fill="#003C79" d="M101.854,28.03c0-0.584-0.008-1.184-0.022-1.799l-0.068-1.546h2.442l0.138,1.684h0.068
			c0.289-0.522,0.716-0.953,1.278-1.291c0.67-0.431,1.431-0.646,2.283-0.646c1.097,0,1.994,0.361,2.695,1.084
			c0.837,0.846,1.256,2.092,1.256,3.737v6.666h-2.809v-6.343c0-1.892-0.708-2.838-2.124-2.838c-1.081,0-1.812,0.554-2.192,1.661
			c-0.091,0.23-0.137,0.53-0.137,0.899v6.62h-2.809V28.03z"/>
		<path fill="#003C79" d="M116.901,31.099c0.03,0.969,0.389,1.706,1.073,2.214c0.594,0.461,1.378,0.692,2.353,0.692
			c0.608,0,1.179-0.046,1.712-0.139c0.441-0.077,0.898-0.199,1.37-0.369l0.411,1.938c-1.096,0.478-2.39,0.715-3.882,0.715
			c-1.781,0-3.189-0.515-4.225-1.545c-1.004-1.015-1.507-2.392-1.507-4.129c0-1.661,0.464-3.061,1.394-4.198
			c1.005-1.23,2.352-1.846,4.041-1.846c1.645,0,2.893,0.601,3.745,1.8c0.7,0.984,1.05,2.206,1.05,3.667
			c0,0.461-0.03,0.861-0.091,1.2H116.901z M121.788,29.114c0.015-0.677-0.13-1.261-0.434-1.753
			c-0.411-0.661-1.035-0.992-1.873-0.992c-0.791,0-1.423,0.315-1.895,0.946c-0.381,0.507-0.609,1.106-0.686,1.799H121.788z"/>
		<path fill="#003C79" d="M126.697,28.307c0-1.537-0.03-2.744-0.091-3.621h2.42l0.114,2.122h0.068
			c0.548-1.584,1.567-2.376,3.06-2.376c0.213,0,0.435,0.023,0.662,0.069v2.652c-0.243-0.046-0.524-0.068-0.845-0.068
			c-1.4,0-2.237,0.715-2.512,2.145c-0.046,0.247-0.068,0.53-0.068,0.854v5.836h-2.809V28.307z"/>
		<path fill="#003C79" d="M134.712,33.289c0.867,0.554,1.812,0.831,2.831,0.831c1.188,0,1.781-0.423,1.781-1.27
			c0-0.646-0.609-1.19-1.827-1.637c-2.04-0.692-3.06-1.784-3.06-3.275c0-1.016,0.381-1.846,1.142-2.492
			c0.776-0.676,1.796-1.015,3.061-1.015c1.172,0,2.161,0.224,2.968,0.669l-0.57,1.984c-0.274-0.17-0.602-0.315-0.982-0.438
			c-0.472-0.139-0.929-0.208-1.37-0.208c-1.035,0-1.553,0.4-1.553,1.2c0,0.553,0.647,1.076,1.941,1.568
			c1.964,0.691,2.953,1.829,2.968,3.413c0,1.062-0.388,1.907-1.164,2.538c-0.808,0.661-1.926,0.991-3.356,0.991
			c-1.325,0-2.451-0.261-3.38-0.784L134.712,33.289z"/>
	</g>
	<g>
		<path fill="#003C79" d="M41.896,42.413h0.926v7.471h-0.926V42.413z"/>
		<path fill="#003C79" d="M47.957,48.663c0,0.491,0.024,0.898,0.073,1.221h-0.831l-0.074-0.642h-0.031
			c-0.154,0.218-0.357,0.393-0.61,0.526C46.195,49.922,45.88,50,45.536,50c-0.491,0-0.88-0.151-1.168-0.453
			c-0.26-0.273-0.389-0.61-0.389-1.01c0-1.276,1.021-1.908,3.062-1.895v-0.104c0-0.127-0.011-0.246-0.031-0.358
			c-0.035-0.146-0.088-0.276-0.158-0.389c-0.189-0.288-0.512-0.429-0.968-0.421c-0.52,0-0.965,0.126-1.337,0.379l-0.21-0.621
			c0.47-0.295,1.031-0.442,1.684-0.442c0.708,0,1.228,0.218,1.558,0.652c0.133,0.19,0.231,0.415,0.294,0.674
			c0.057,0.225,0.085,0.474,0.085,0.747V48.663z M47.063,47.285c-0.281-0.008-0.537,0.004-0.769,0.031
			c-0.267,0.028-0.494,0.081-0.684,0.158c-0.471,0.189-0.705,0.509-0.705,0.957c0,0.589,0.287,0.884,0.862,0.884
			c0.316,0,0.59-0.088,0.821-0.263c0.203-0.154,0.347-0.351,0.431-0.589c0.028-0.092,0.043-0.19,0.043-0.295V47.285z"/>
		<path fill="#003C79" d="M49.735,44.791l0.684,2.589l0.2,0.82c0.069,0.31,0.126,0.575,0.168,0.8h0.031
			c0.05-0.231,0.119-0.494,0.211-0.789l0.179-0.621l0.895-2.799h0.778l0.789,2.547c0.189,0.617,0.341,1.172,0.453,1.662h0.031
			c0.042-0.238,0.099-0.505,0.168-0.8c0.057-0.238,0.13-0.522,0.222-0.852l0.726-2.558h0.916l-1.642,5.093h-0.842l-0.779-2.431
			c-0.098-0.315-0.179-0.59-0.242-0.82c-0.084-0.288-0.154-0.572-0.21-0.853H52.45c-0.057,0.28-0.127,0.568-0.211,0.862
			c-0.07,0.239-0.154,0.513-0.253,0.821l-0.82,2.42h-0.842l-1.536-5.093H49.735z"/>
		<path fill="#003C79" d="M59.437,49.884v-4.388h-0.705v-0.705h0.705v-0.242c0-0.8,0.196-1.393,0.589-1.778
			c0.322-0.315,0.737-0.474,1.242-0.474c0.287,0,0.551,0.05,0.789,0.147l-0.126,0.716c-0.169-0.077-0.365-0.116-0.59-0.116
			c-0.365,0-0.628,0.147-0.789,0.442c-0.134,0.238-0.2,0.582-0.2,1.031v0.273h1.231v0.705h-1.231v4.388H59.437z"/>
		<path fill="#003C79" d="M65.455,46.38c0-0.639-0.014-1.168-0.042-1.589h0.811l0.042,1.011h0.031
			c0.253-0.744,0.726-1.116,1.42-1.116c0.057,0,0.141,0.008,0.253,0.021v0.873c-0.063-0.014-0.168-0.021-0.315-0.021
			c-0.688,0-1.102,0.393-1.242,1.178c-0.021,0.126-0.031,0.271-0.031,0.432v2.715h-0.926V46.38z"/>
		<path fill="#003C79" d="M68.938,46.169c0-0.238-0.003-0.483-0.01-0.736l-0.031-0.642h0.81l0.042,0.832h0.031
			c0.162-0.281,0.358-0.499,0.59-0.653c0.287-0.189,0.628-0.284,1.021-0.284c0.701,0,1.179,0.341,1.431,1.021h0.021
			c0.133-0.252,0.326-0.474,0.578-0.663c0.316-0.237,0.688-0.357,1.116-0.357c0.435,0,0.799,0.147,1.095,0.442
			c0.182,0.176,0.322,0.4,0.42,0.674c0.112,0.309,0.169,0.673,0.169,1.094v2.988h-0.905v-2.872c0-1.046-0.368-1.568-1.105-1.568
			c-0.525,0-0.894,0.277-1.104,0.831c-0.049,0.162-0.073,0.316-0.073,0.463v3.146h-0.905v-3.052c0-0.926-0.354-1.389-1.063-1.389
			c-0.267,0-0.509,0.095-0.726,0.284c-0.204,0.176-0.345,0.39-0.422,0.642c-0.049,0.119-0.073,0.271-0.073,0.453v3.062h-0.905
			V46.169z"/>
		<path fill="#003C79" d="M63.637,42.788v0.884H62.7v-0.884H63.637z M62.7,49.912v-5.63h0.927v5.63H62.7z"/>
	</g>
</g>
</svg>
