<?xml version="1.0" encoding="utf-8"?>
<!-- Generator: Adobe Illustrator 16.0.3, SVG Export Plug-In . SVG Version: 6.00 Build 0)  -->
<!DOCTYPE svg PUBLIC "-//W3C//DTD SVG 1.1//EN" "http://www.w3.org/Graphics/SVG/1.1/DTD/svg11.dtd">
<svg version="1.1" id="Layer_1" xmlns="http://www.w3.org/2000/svg" xmlns:xlink="http://www.w3.org/1999/xlink" x="0px" y="0px"
	 width="100px" height="72px" viewBox="0 0 100 72" enable-background="new 0 0 100 72" xml:space="preserve">
<g>
	<polygon fill-rule="evenodd" clip-rule="evenodd" fill="#72BE44" points="10.707,60.922 89.354,60.922 50.029,21.602 
		10.707,60.922 10.707,60.922 	"/>
	<polygon fill-rule="evenodd" clip-rule="evenodd" fill="#231F20" points="8.892,59.229 15.002,53.18 12.946,51.123 9.134,54.934 
		2.238,48.037 0,50.275 8.892,59.229 8.892,59.229 	"/>
	<polygon fill-rule="evenodd" clip-rule="evenodd" fill="#231F20" points="11.494,42.473 13.006,43.984 16.152,40.838 
		18.028,42.652 14.822,45.799 16.817,47.734 20.69,43.863 22.504,45.678 16.333,51.848 7.38,42.895 13.551,36.725 15.366,38.541 
		11.494,42.473 11.494,42.473 	"/>
	<path fill-rule="evenodd" clip-rule="evenodd" fill="#231F20" d="M31.397,36.785l-6.05-1.753c0.726-1.332,0.362-3.146-0.847-4.356
		c-1.331-1.332-3.57-1.27-5.082,0.241l-4.537,4.537l8.953,8.954l2.238-2.299l-7.259-7.259l1.512-1.452
		c0.605-0.667,1.694-0.667,2.299,0c0.605,0.604,0.605,1.634-0.061,2.299l-1.331,1.33l7.744,2.178L31.397,36.785L31.397,36.785
		L31.397,36.785z"/>
	<path fill-rule="evenodd" clip-rule="evenodd" fill="#231F20" d="M36.418,22.691c-1.27-1.332-2.904-2.057-4.476-2.118
		c-1.634,0-3.206,0.605-4.599,1.996c-2.842,2.844-2.54,6.534,0.061,9.134c1.332,1.332,2.904,2.057,4.538,2.057
		c1.572,0.061,3.206-0.543,4.598-1.935C39.322,28.981,39.08,25.292,36.418,22.691L36.418,22.691L36.418,22.691z M34.785,30.011
		c-0.847,0.846-1.815,1.029-2.843,0.665c-0.667-0.242-1.392-0.726-2.057-1.452c-1.754-1.694-2.178-3.448-0.787-4.838
		c0.848-0.849,1.814-1.029,2.844-0.667c0.665,0.242,1.331,0.726,2.058,1.452C35.692,26.865,36.176,28.619,34.785,30.011
		L34.785,30.011z"/>
	<polygon fill-rule="evenodd" clip-rule="evenodd" fill="#231F20" points="39.141,17.913 37.507,12.83 40.108,10.167 42.347,18.819 
		45.856,22.328 43.557,24.626 40.108,21.117 31.821,18.516 34.3,16.036 39.08,17.851 39.141,17.913 39.141,17.913 	"/>
	<polygon fill-rule="evenodd" clip-rule="evenodd" fill="#231F20" points="80.581,48.703 89.475,39.75 87.114,37.391 78.161,46.344 
		80.581,48.703 80.581,48.703 	"/>
	<polygon fill-rule="evenodd" clip-rule="evenodd" fill="#231F20" points="46.279,14.462 53.237,11.136 48.154,16.278 
		50.212,18.396 59.166,9.442 56.322,6.599 49.546,9.865 52.935,3.21 50.029,0.307 41.077,9.26 43.133,11.317 48.276,6.175 
		44.948,13.132 46.279,14.462 46.279,14.462 	"/>
	<polygon fill-rule="evenodd" clip-rule="evenodd" fill="#231F20" points="61.826,15.734 60.314,17.245 63.703,20.694 
		61.888,22.509 58.439,19.121 56.503,21.057 60.679,25.231 58.863,27.046 52.449,20.573 61.404,11.68 67.815,18.093 66.001,19.907 
		61.826,15.734 61.826,15.734 	"/>
	<polygon fill-rule="evenodd" clip-rule="evenodd" fill="#231F20" points="70.479,38.66 76.527,44.711 78.585,42.652 74.773,38.902 
		81.67,31.947 79.432,29.708 70.479,38.66 70.479,38.66 	"/>
	<polygon fill-rule="evenodd" clip-rule="evenodd" fill="#231F20" points="94.556,44.83 91.714,54.328 97.883,48.158 100,50.275 
		91.048,59.229 88.264,56.385 90.685,46.646 84.574,52.756 82.518,50.699 91.471,41.746 94.556,44.83 94.556,44.83 	"/>
	<path fill-rule="evenodd" clip-rule="evenodd" fill="#231F20" d="M68.783,36.967l1.695-6.11c1.331,0.727,3.146,0.424,4.416-0.846
		c1.271-1.331,1.271-3.57-0.242-5.082l-4.839-4.838l-8.955,8.952l2.299,2.299l7.199-7.26l1.754,1.754
		c0.667,0.666,0.667,1.693,0.062,2.299c-0.604,0.666-1.693,0.605-2.299,0l-1.633-1.634l-1.936,7.985L68.783,36.967L68.783,36.967
		L68.783,36.967z"/>
	<g>
		<path fill="#231F20" d="M18.647,71.693h-1.698l-2.272-6.186l-2.272,6.186h-1.698l3.295-8.322h1.35L18.647,71.693z"/>
		<path fill="#231F20" d="M19.266,63.371h4.465v1.494h-2.924v1.926h2.801v1.494h-2.801v1.912h2.924v1.496h-4.465V63.371z"/>
		<path fill="#231F20" d="M25.115,63.371h2.328c2.666,0,2.98,1.811,2.98,2.598c0,1.047-0.563,2.576-2.98,2.576h-0.787v3.148h-1.541
			V63.371z M26.656,67.049h0.911c0.405,0,1.316-0.068,1.316-1.092s-0.911-1.092-1.316-1.092h-0.911V67.049z"/>
		<path fill="#231F20" d="M34.202,71.693h-1.687l0.979-2.115L30.3,63.371h1.867l2.193,4.43l1.923-4.43h1.687L34.202,71.693z"/>
		<path fill="#231F20" d="M39.5,63.371h1.237l3.464,8.322h-1.699l-0.855-2.148h-3.059l-0.855,2.148h-1.698L39.5,63.371z
			 M41.063,68.049l-0.944-2.43l-0.945,2.43H41.063z"/>
		<path fill="#231F20" d="M47.666,63.371h2.091l2.318,6.365l2.316-6.365h2.092v8.322h-1.54v-6.23l-2.216,6.23h-1.305l-2.217-6.23
			v6.23h-1.541V63.371z"/>
		<path fill="#231F20" d="M58.015,63.371h4.464v1.494h-2.924v1.926h2.801v1.494h-2.801v1.912h2.924v1.496h-4.464V63.371z"/>
		<path fill="#231F20" d="M63.861,63.371h2.329c2.665,0,2.979,1.811,2.979,2.598c0,1.047-0.562,2.576-2.979,2.576h-0.787v3.148
			h-1.542V63.371z M65.403,67.049h0.91c0.405,0,1.317-0.068,1.317-1.092s-0.912-1.092-1.317-1.092h-0.91V67.049z"/>
		<path fill="#231F20" d="M76.368,71.693h-1.697l-2.272-6.186l-2.272,6.186h-1.697l3.294-8.322h1.351L76.368,71.693z"/>
		<path fill="#231F20" d="M76.988,63.371h4.465v1.494h-2.925v1.926h2.801v1.494h-2.801v1.912h2.925v1.496h-4.465V63.371z"/>
		<path fill="#231F20" d="M82.837,63.371h1.54v3.34h3.036v-3.34h1.541v8.322h-1.541v-3.486h-3.036v3.486h-1.54V63.371z"/>
	</g>
</g>
</svg>
