<?xml version="1.0" encoding="utf-8"?>
<!-- Generator: Adobe Illustrator 16.0.3, SVG Export Plug-In . SVG Version: 6.00 Build 0)  -->
<!DOCTYPE svg PUBLIC "-//W3C//DTD SVG 1.1//EN" "http://www.w3.org/Graphics/SVG/1.1/DTD/svg11.dtd">
<svg version="1.1" id="Layer_1" xmlns="http://www.w3.org/2000/svg" xmlns:xlink="http://www.w3.org/1999/xlink" x="0px" y="0px"
	 width="30px" height="30px" viewBox="0 0 30 30" enable-background="new 0 0 30 30" xml:space="preserve">
<g>
	
		<rect x="0.208" y="0.209" fill-rule="evenodd" clip-rule="evenodd" fill="#EF5035" enable-background="new    " width="29.584" height="29.582"/>
	<path fill-rule="evenodd" clip-rule="evenodd" fill="#FFFFFF" d="M-0.001,0v30h30.002V0H-0.001z M29.584,0.417
		c0,0.408,0,28.759,0,29.167c-0.41,0-28.758,0-29.168,0c0-0.408,0-28.759,0-29.167C0.826,0.417,29.174,0.417,29.584,0.417z"/>
	<g>
		<path fill="#FFFFFF" d="M14.662,15.975h-1.574c-0.033,0-0.063,0.017-0.081,0.043l0,0c-0.195,0.338-0.626,0.884-1.447,0.884
			c-1.073,0-1.735-0.942-1.735-1.92c0-0.916,0.618-1.884,1.727-1.884c0.76,0,1.227,0.47,1.46,0.907
			c0.003,0.005,0.008,0.011,0.01,0.018c0.017,0.025,0.046,0.042,0.081,0.042h1.577c0.052,0,0.096-0.044,0.096-0.097
			c0-0.008-0.002-0.018-0.003-0.025c-0.001-0.004-0.003-0.009-0.004-0.014c-0.311-0.994-1.371-2.281-3.208-2.281
			c-2.111,0-3.385,1.693-3.385,3.342c0,1.745,1.379,3.359,3.403,3.359c1.458,0,2.707-0.882,3.173-2.239c0-0.003,0-0.006,0.002-0.008
			c0.002-0.01,0.005-0.021,0.005-0.03C14.758,16.019,14.714,15.975,14.662,15.975z"/>
		<path fill="#FFFFFF" d="M21.663,15.975H20.09c-0.033,0-0.064,0.017-0.081,0.043l0,0c-0.196,0.338-0.628,0.884-1.446,0.884
			c-1.073,0-1.736-0.942-1.736-1.92c0-0.916,0.618-1.884,1.728-1.884c0.759,0,1.226,0.47,1.461,0.907
			c0.003,0.005,0.005,0.011,0.01,0.018c0.017,0.025,0.047,0.042,0.08,0.042h1.577c0.053,0,0.097-0.044,0.097-0.097
			c0-0.008-0.002-0.018-0.005-0.025c0-0.004-0.002-0.009-0.003-0.014c-0.313-0.994-1.372-2.281-3.208-2.281
			c-2.11,0-3.385,1.693-3.385,3.342c0,1.745,1.378,3.359,3.402,3.359c1.457,0,2.707-0.882,3.173-2.239
			c0.001-0.003,0.002-0.006,0.003-0.008c0.003-0.01,0.005-0.021,0.005-0.03C21.76,16.019,21.716,15.975,21.663,15.975z"/>
		<path fill="#FFFFFF" d="M6.227,17.354c-0.016-0.035-0.05-0.06-0.091-0.06H4.033c-0.041,0-0.076,0.024-0.091,0.06l-0.296,0.814
			H3.645c-0.014,0.034-0.049,0.059-0.088,0.059h-1.56c-0.054,0-0.099-0.043-0.099-0.096c0-0.014,0.003-0.025,0.007-0.036
			l0.002-0.003l2.51-6.257l0.002-0.007c0.016-0.033,0.049-0.057,0.089-0.057h1.169c0.039,0,0.071,0.024,0.087,0.055l0.005,0.012
			l2.481,6.25l0.007,0.012c0.002,0.01,0.003,0.021,0.003,0.031c0,0.053-0.042,0.096-0.096,0.096H6.592
			c-0.042,0-0.076-0.024-0.092-0.059v-0.003L6.227,17.354z M5.749,15.917l-0.005-0.011l-0.592-1.993
			c-0.007-0.025-0.03-0.044-0.058-0.044s-0.049,0.018-0.057,0.043L4.44,15.909l-0.002,0.008c-0.001,0.003-0.001,0.008-0.001,0.011
			c0,0.033,0.026,0.058,0.057,0.058h1.2c0.031,0,0.057-0.025,0.057-0.058C5.75,15.925,5.749,15.92,5.749,15.917z"/>
		<path fill="#FFFFFF" d="M26.063,17.354c-0.014-0.035-0.05-0.06-0.092-0.06H23.87c-0.042,0-0.075,0.024-0.091,0.06l-0.298,0.814
			l0,0c-0.015,0.034-0.05,0.059-0.089,0.059h-1.559c-0.056,0-0.097-0.043-0.097-0.096c0-0.014,0-0.025,0.005-0.036l0.001-0.003
			l2.513-6.257l0.003-0.007c0.016-0.033,0.048-0.057,0.088-0.057h1.17c0.038,0,0.07,0.024,0.087,0.055l0.005,0.012l2.481,6.25
			l0.006,0.012c0.001,0.01,0.005,0.021,0.005,0.031c0,0.053-0.044,0.096-0.096,0.096h-1.577c-0.04,0-0.075-0.024-0.091-0.059
			l-0.001-0.003L26.063,17.354z M25.586,15.917l-0.005-0.011l-0.593-1.993c-0.006-0.025-0.031-0.044-0.057-0.044
			c-0.028,0-0.052,0.018-0.056,0.043l-0.599,1.997l-0.003,0.008c0,0.003,0,0.008,0,0.011c0,0.033,0.023,0.058,0.057,0.058h1.199
			c0.03,0,0.057-0.025,0.057-0.058C25.587,15.925,25.586,15.92,25.586,15.917z"/>
	</g>
</g>
</svg>
