<?xml version="1.0" encoding="utf-8"?>
<!-- Generator: Adobe Illustrator 16.0.3, SVG Export Plug-In . SVG Version: 6.00 Build 0)  -->
<!DOCTYPE svg PUBLIC "-//W3C//DTD SVG 1.1//EN" "http://www.w3.org/Graphics/SVG/1.1/DTD/svg11.dtd">
<svg version="1.1" id="Layer_1" xmlns="http://www.w3.org/2000/svg" xmlns:xlink="http://www.w3.org/1999/xlink" x="0px" y="0px"
	 width="110px" height="30px" viewBox="0 0 110 30" enable-background="new 0 0 110 30" xml:space="preserve">
<g>
	<path fill="#EC1C24" d="M70.068,11.345c1.47-0.313,2.449-1.462,2.449-2.9c0-1.707-1.354-2.949-3.225-2.949h-2.968
		c-0.229,0-0.391,0.169-0.391,0.404c0,0.222,0.166,0.391,0.391,0.391h2.89c1.438,0,2.44,0.891,2.44,2.167
		c0,1.277-1.002,2.169-2.44,2.169h-2.89c-0.229,0-0.391,0.167-0.391,0.404c0,0.22,0.166,0.389,0.391,0.389h2.715l2.851,3.805
		c0.104,0.148,0.244,0.23,0.388,0.23c0.234,0,0.416-0.179,0.416-0.417c0-0.112-0.057-0.245-0.168-0.396L70.068,11.345z"/>
	<path fill="#EC1C24" d="M81.267,14.594h-5.697v-4.01h4.876c0.231,0,0.392-0.158,0.392-0.39c0-0.221-0.16-0.376-0.392-0.376h-4.876
		V6.289h5.559c0.228,0,0.393-0.169,0.393-0.402c0-0.225-0.169-0.392-0.393-0.392h-5.992c-0.245,0-0.432,0.18-0.432,0.419v9.043
		c0,0.248,0.182,0.429,0.432,0.429h6.131c0.224,0,0.388-0.17,0.388-0.404C81.654,14.76,81.488,14.594,81.267,14.594"/>
	<path fill="#EC1C24" d="M90.07,5.887c0-0.225-0.171-0.392-0.391-0.392h-6.911c-0.231,0-0.403,0.165-0.403,0.392
		c0,0.234,0.165,0.403,0.403,0.403h3.018v8.735c0,0.25,0.181,0.429,0.432,0.429c0.248,0,0.434-0.179,0.434-0.429V6.29h3.028
		C89.903,6.29,90.07,6.12,90.07,5.887"/>
	<path fill="#EC1C24" d="M94.159,5.823c-0.117-0.268-0.289-0.396-0.526-0.396c-0.242,0-0.406,0.124-0.526,0.41l-3.951,8.938
		c-0.046,0.091-0.084,0.183-0.084,0.273c0,0.242,0.166,0.404,0.416,0.404c0.249,0,0.353-0.212,0.392-0.286l1.283-2.927h4.911
		l1.284,2.927c0.083,0.183,0.235,0.286,0.421,0.286c0.239,0,0.415-0.179,0.415-0.417c0-0.066-0.02-0.146-0.052-0.213L94.159,5.823z
		 M95.731,11.475h-4.238l2.125-4.828L95.731,11.475z"/>
	<path fill="#EC1C24" d="M100.169,5.426c-0.259,0-0.444,0.178-0.444,0.433v9.152c0,0.266,0.182,0.443,0.444,0.443
		c0.268,0,0.449-0.178,0.449-0.443V5.858C100.618,5.604,100.433,5.426,100.169,5.426"/>
	<path fill="#EC1C24" d="M109.528,14.594h-5.289V5.846c0-0.239-0.184-0.42-0.43-0.42c-0.245,0-0.431,0.181-0.431,0.42v9.111
		c0,0.248,0.182,0.429,0.431,0.429h5.719c0.225,0,0.392-0.17,0.392-0.404C109.92,14.76,109.753,14.594,109.528,14.594"/>
	<path fill="#EC1C24" d="M52.341,6.568h-2.288v8.722h2.835V9.237c0.234-0.29,0.854-0.596,1.364-0.596
		c0.836,0,1.309,0.453,1.309,1.269v5.38h2.815V9.53c0-2.108-0.944-3.146-2.907-3.146c-1.475,0-2.327,0.457-2.943,1.146L52.341,6.568
		z M40.458,11.257c0,2.944,1.089,4.215,3.199,4.215c1.291,0,2.182-0.436,2.669-1.144l0.146,0.962h2.31V6.931
		c-0.929-0.29-1.981-0.546-3.964-0.546C42.003,6.385,40.458,8.112,40.458,11.257 M45.944,12.619c-0.252,0.29-0.671,0.6-1.362,0.6
		c-0.761,0-1.182-0.71-1.182-2.073c0-1.671,0.456-2.504,1.363-2.504c0.527,0,0.801,0.037,1.181,0.126V12.619z M33.953,3.298h-2.836
		V15.29h2.836V9.237c0.236-0.29,0.854-0.596,1.363-0.596c0.836,0,1.31,0.453,1.31,1.269v5.38h2.832V9.53
		c0-2.108-0.942-3.146-2.924-3.146c-1.2,0-1.89,0.274-2.581,0.748V3.298z M25.775,10.856c0-1.272,0.727-2.054,2.111-2.054
		c0.742,0,1.342,0.2,1.868,0.546l0.402-2.382c-0.766-0.326-1.583-0.582-2.965-0.582c-2.815,0-4.359,1.619-4.359,4.581
		c0,2.982,1.452,4.506,4.289,4.506c1.362,0,2.671-0.417,3.216-0.782l-0.397-2.214c-0.639,0.327-1.257,0.582-2.04,0.582
		C26.502,13.058,25.775,12.184,25.775,10.856 M19.471,15.29h2.288V6.568h-2.834v6.051c-0.237,0.29-0.853,0.6-1.362,0.6
		c-0.836,0-1.309-0.453-1.309-1.271V6.568h-2.832v5.759c0,2.11,0.942,3.145,2.924,3.145c1.47,0,2.324-0.453,2.943-1.144
		L19.471,15.29z M9.713,15.29h3.288c-1.29-3.545-3.142-8.613-4.615-11.992h-3.69C3.226,6.677,1.371,11.745,0.08,15.29h3.292
		c0.271-0.853,0.598-1.906,0.961-3.054h4.417C9.112,13.384,9.439,14.438,9.713,15.29 M8.022,9.93H5.063
		C5.514,8.492,6.026,7.004,6.55,5.55C7.077,7.004,7.566,8.492,8.022,9.93"/>
	<path fill="#EC1C24" d="M62.197,18.77L62.197,18.77c-0.234,0-0.428-0.19-0.428-0.424V0.425C61.77,0.188,61.963,0,62.197,0
		c0.235,0,0.423,0.188,0.423,0.425v17.921C62.62,18.579,62.433,18.77,62.197,18.77"/>
	<path fill="#EC1C24" d="M35.395,30c-0.135,0-0.277-0.012-0.421-0.036c-0.145-0.025-0.272-0.067-0.383-0.129v-0.63
		c0.117,0.056,0.241,0.098,0.374,0.124c0.127,0.027,0.256,0.041,0.38,0.041c0.125,0,0.238-0.019,0.346-0.057
		c0.105-0.036,0.209-0.102,0.306-0.191c0.096-0.087,0.191-0.21,0.295-0.366c0.1-0.153,0.2-0.352,0.304-0.593l-2.705-5.563h0.766
		l2.28,4.777l2.21-4.777h0.761l-2.649,5.603c-0.161,0.337-0.31,0.619-0.456,0.848c-0.144,0.228-0.288,0.413-0.435,0.554
		c-0.146,0.14-0.291,0.243-0.448,0.304C35.761,29.971,35.589,30,35.395,30z"/>
	<polygon fill="#EC1C24" points="41.742,25.85 42.86,25.85 45.254,22.601 46.08,22.601 43.509,26.129 46.349,29.928 45.521,29.928 
		42.921,26.489 41.742,26.489 41.742,29.928 41.03,29.928 41.03,22.601 41.742,22.601 	"/>
	<path fill="#EC1C24" d="M47.98,26.585h2.345c0.211,0,0.406-0.047,0.58-0.139c0.176-0.095,0.328-0.218,0.453-0.374
		c0.119-0.152,0.217-0.335,0.288-0.536c0.066-0.203,0.104-0.415,0.104-0.637c0-0.227-0.039-0.441-0.121-0.643
		c-0.078-0.202-0.187-0.38-0.32-0.536c-0.132-0.148-0.293-0.266-0.475-0.351c-0.18-0.089-0.372-0.13-0.572-0.13H47.98V26.585z
		 M47.258,29.928v-7.327h3.036c0.313,0,0.604,0.066,0.871,0.2c0.264,0.132,0.495,0.31,0.687,0.523
		c0.193,0.221,0.343,0.468,0.453,0.741c0.11,0.274,0.167,0.553,0.167,0.834c0,0.303-0.053,0.595-0.156,0.873
		c-0.1,0.281-0.246,0.525-0.435,0.739c-0.184,0.213-0.405,0.386-0.665,0.517c-0.257,0.13-0.545,0.197-0.861,0.197H47.98v2.702
		H47.258z"/>
	<path fill="#EC1C24" d="M57.261,27.068l-1.475-3.622l-1.499,3.622H57.261z M55.484,22.601h0.61l3.045,7.327h-0.764l-0.95-2.29
		h-3.292l-0.939,2.29h-0.775L55.484,22.601z"/>
	<path fill="#EC1C24" d="M61.039,21.462v-0.97h0.6v0.97H61.039z M59.499,21.462v-0.97h0.602v0.97H59.499z M60.203,29.928v-7.327
		h0.725v7.327H60.203z"/>
	<polygon fill="#EC1C24" points="68.567,22.601 68.567,29.928 67.851,29.928 67.851,26.502 63.507,26.502 63.507,29.928 
		62.785,29.928 62.785,22.601 63.507,22.601 63.507,25.862 67.851,25.862 67.851,22.601 	"/>
	<path fill="#EC1C24" d="M74.47,27.068l-1.477-3.622l-1.498,3.622H74.47z M72.694,22.601h0.608l3.046,7.327h-0.765l-0.95-2.29
		h-3.291l-0.939,2.29h-0.776L72.694,22.601z"/>
</g>
</svg>
