<?xml version="1.0" encoding="utf-8"?>
<!-- Generator: Adobe Illustrator 16.0.3, SVG Export Plug-In . SVG Version: 6.00 Build 0)  -->
<!DOCTYPE svg PUBLIC "-//W3C//DTD SVG 1.1//EN" "http://www.w3.org/Graphics/SVG/1.1/DTD/svg11.dtd">
<svg version="1.1" id="Layer_1" xmlns="http://www.w3.org/2000/svg" xmlns:xlink="http://www.w3.org/1999/xlink" x="0px" y="0px"
	 width="199px" height="30px" viewBox="0 0 199 30" enable-background="new 0 0 199 30" xml:space="preserve">
<g>
	<rect x="0.254" fill="#B91222" width="29.969" height="30"/>
	<g>
		<rect x="30.223" fill="#005995" width="29.975" height="30"/>
		<path fill="#005995" d="M45.211,15"/>
	</g>
	<g>
		<path fill="#FBAE17" d="M37.211,21.026l0.677,0.673l1.907-1.907c-0.213-0.238-0.412-0.491-0.589-0.763L37.211,21.026z"/>
		<path fill="#FBAE17" d="M38.576,22.394l0.673,0.675l1.999-1.999c-0.27-0.18-0.523-0.376-0.763-0.589L38.576,22.394z"/>
		<path fill="#FBAE17" d="M51.187,23.055l0.673-0.681l-1.907-1.903c-0.244,0.207-0.493,0.407-0.761,0.587L51.187,23.055z"/>
		<path fill="#FBAE17" d="M50.639,19.778l1.909,1.907l0.673-0.675l-1.995-1.999C51.048,19.283,50.852,19.536,50.639,19.778z"/>
		<path fill="#FBAE17" d="M53.209,9.068l-0.677-0.675l-1.907,1.909c0.211,0.241,0.411,0.495,0.587,0.761L53.209,9.068z"/>
		<path fill="#FBAE17" d="M51.844,7.705l-0.675-0.679l-1.997,2.002c0.268,0.172,0.522,0.376,0.765,0.585L51.844,7.705z"/>
		<path fill="#FBAE17" d="M39.249,7.026l-0.673,0.679l1.909,1.909c0.239-0.209,0.493-0.413,0.763-0.585L39.249,7.026z"/>
		<path fill="#FBAE17" d="M37.888,8.393l-0.677,0.675l1.995,1.995c0.177-0.266,0.376-0.52,0.589-0.761L37.888,8.393z"/>
		<path fill="#FBAE17" d="M38.105,13.885l-6.155,1.119l6.147,1.158c-0.053-0.364-0.092-0.732-0.092-1.115
			C38.006,14.65,38.047,14.267,38.105,13.885z"/>
		<path fill="#FBAE17" d="M44.049,22.154l1.117,6.164l1.158-6.155c-0.366,0.057-0.733,0.098-1.113,0.098
			C44.816,22.261,44.429,22.218,44.049,22.154z"/>
		<path fill="#FBAE17" d="M52.319,16.166l6.149-1.119l-6.155-1.162c0.061,0.381,0.102,0.765,0.102,1.162
			C52.415,15.43,52.376,15.798,52.319,16.166z"/>
		<path fill="#FBAE17" d="M46.324,7.931l-1.113-6.155l-1.162,6.163c0.38-0.061,0.768-0.105,1.162-0.105
			C45.591,7.833,45.962,7.873,46.324,7.931z"/>
	</g>
	<g>
		<path fill="#005995" d="M79.8,18.832L73.192,7.069h-0.714l-1.085,12.304c-0.153,1.667-0.413,2.385-1.387,2.602v0.478
			c0.648,0,1.3-0.092,1.949-0.092s1.301,0.092,1.948,0.092v-0.478c-0.909-0.174-1.23-0.761-1.23-1.888
			c0-0.453,0.063-1.104,0.085-1.408l0.369-6.433h0.041l6.153,10.269l4.897-10.03h0.043l0.562,6.521
			c0.047,0.301,0.09,0.778,0.09,1.471c0,0.714-0.26,1.408-0.976,1.498v0.478c0.759,0,1.494-0.092,2.253-0.092
			s1.494,0.092,2.252,0.092v-0.478c-0.885-0.047-1.125-1.021-1.213-2.104L86.256,7.069h-0.649L79.8,18.832z"/>
		<path fill="#005995" d="M120.931,10.38c0.089-0.931,0.783-1.778,1.778-1.778h7.3L119.848,22.36h11.006
			c0.976,0,1.711,0.049,2.362,0.35l0.585-3.01l-0.804-0.09c-0.408,1.104-1.32,1.455-4.745,1.455c-1.557,0-3.117-0.09-4.679-0.111
			l10.529-13.541h-12.845c-0.372,0-0.739-0.066-1.15-0.174v3.079L120.931,10.38z"/>
		<path fill="#005995" d="M198.55,7.91c-1.301-0.671-2.771-0.841-4.225-0.841c-2.75,0-5.069,1.84-5.069,4.724
			c0,5.655,7.391,3.44,7.391,7.256c0,1.666-1.3,2.752-2.924,2.752c-1.412,0-2.924-0.974-3.274-2.406h-0.782l0.222,2.32
			c0.714,0.478,2.442,0.995,3.853,0.995c2.557,0,5.006-1.602,5.006-4.4c0-5.872-7.388-3.053-7.388-7.625
			c0-1.516,1.344-2.707,2.818-2.707c1.623,0,2.967,0.649,3.552,2.296h0.821V7.91z"/>
		<path fill="#005995" d="M106.215,18.051l0.759,2.015c0.15,0.433,0.258,0.801,0.258,1.105c0,0.497-0.258,0.804-0.718,0.804v0.478
			c0.739,0,1.455-0.092,2.191-0.092c0.739,0,1.453,0.092,2.19,0.092v-0.478c-0.78-0.09-0.977-0.804-1.737-2.732l-4.745-12.173
			h-0.256l-4.614,11.653c-0.413,1.041-1.238,3.079-2.103,3.253v0.478c0.628,0,1.232-0.092,1.861-0.092
			c0.628,0,1.237,0.092,1.864,0.092v-0.478c-0.52,0-0.782-0.41-0.782-0.935c0-0.236,0.047-0.714,0.155-1.082l0.582-1.907H106.215z
			 M101.534,17.013l2.101-5.7l2.19,5.7H101.534z"/>
		<path fill="#005995" d="M151.158,18.051l0.761,2.015c0.15,0.433,0.26,0.801,0.26,1.105c0,0.497-0.26,0.804-0.716,0.804v0.478
			c0.735,0,1.451-0.092,2.187-0.092c0.737,0,1.454,0.092,2.191,0.092v-0.478c-0.783-0.09-0.977-0.804-1.735-2.732L149.36,7.069
			h-0.258l-4.616,11.653c-0.411,1.041-1.236,3.079-2.103,3.253v0.478c0.628,0,1.238-0.092,1.866-0.092
			c0.626,0,1.233,0.092,1.861,0.092v-0.478c-0.518,0-0.778-0.41-0.778-0.935c0-0.236,0.041-0.714,0.15-1.082l0.585-1.907H151.158z
			 M146.481,17.013l2.101-5.7l2.19,5.7H146.481z"/>
		<path fill="#005995" d="M169.829,8.714c0-0.54,0.604-0.606,1.168-0.606c2.362,0,3.272,1.776,3.272,3.767
			c0,2.062-1.712,3.403-3.705,3.403c-0.26,0-0.521-0.045-0.845-0.064L169.829,8.714z M166.318,22.452
			c0.78,0,1.516-0.092,2.298-0.092c0.779,0,1.538,0.092,2.316,0.092v-0.478c-1.104-0.238-1.213-0.892-1.213-1.799v-4.288
			c0.521,0,0.976,0.559,1.299,0.927l3.597,4.203c0.263,0.303,0.327,0.503,0.327,0.696c-0.021,0.152-0.09,0.238-0.241,0.26v0.478
			c0.716,0,1.432-0.092,2.146-0.092c0.716,0,1.454,0.092,2.168,0.092v-0.478c-0.583-0.107-1.322-0.821-1.647-1.217l-4.377-5.067
			c1.931-0.477,3.924-1.884,3.924-4.072c0-2.345-1.909-4.289-5.808-4.289c-1.625,0-2.274,0.084-2.924,0.084
			c-0.694,0-1.406-0.084-2.101-0.084v0.477c1.104,0.215,1.21,0.757,1.21,1.774c0,1.841,0.108,3.707,0.108,5.568v5.566
			c0,0.735-0.345,1.086-1.082,1.26V22.452z"/>
	</g>
	<path fill="#FBAE17" d="M15.507,19.43l6.051-12.378h0.368l0.628,12.866c0.086,1.751,0.215,1.944,1.166,2.097v0.39
		c-0.626,0-1.275-0.084-2.03-0.084c-0.626,0-1.275,0.084-1.815,0.084v-0.39c0.903-0.064,1.08-0.692,1.08-1.469
		c0-0.821-0.046-1.516-0.069-1.866l-0.432-7.669h-0.082l-5.355,10.918L8.78,10.988H8.675l-0.411,6.791
		c-0.043,0.558-0.043,1.553-0.043,2.118c0,1.51,0.603,2.03,1.336,2.116v0.39c-0.603,0-1.23-0.084-1.876-0.084
		c-0.628,0-1.234,0.084-1.858,0.084v-0.39c1.146-0.26,1.314-0.628,1.447-2.507L8.088,7.051h0.389L15.507,19.43z"/>
</g>
</svg>
