<?xml version="1.0" encoding="utf-8"?>
<!-- Generator: Adobe Illustrator 16.0.3, SVG Export Plug-In . SVG Version: 6.00 Build 0)  -->
<!DOCTYPE svg PUBLIC "-//W3C//DTD SVG 1.1//EN" "http://www.w3.org/Graphics/SVG/1.1/DTD/svg11.dtd">
<svg version="1.1" id="Layer_1" xmlns="http://www.w3.org/2000/svg" xmlns:xlink="http://www.w3.org/1999/xlink" x="0px" y="0px"
	 width="151px" height="30px" viewBox="0 0 151 30" enable-background="new 0 0 151 30" xml:space="preserve">
<g>
	<path fill="#FFD300" d="M14.539,23.996c-6.077-0.579-11.453-3.497-13.446-6.863c0.103,0.632,0.823,2.013,1.151,2.919
		c0.241,0.664,0.59,1.205,0.751,1.694c2.516,1.781,5.402,2.712,9.37,3.09c4.093,0.39,7.69-0.11,10.526-1.464
		C20.403,24.005,17.66,24.292,14.539,23.996"/>
	<path fill="#FFD300" d="M9.805,11.763C7.714,9.489,5.834,7.188,4.208,4.949C3.987,5.234,3.742,5.572,3.482,5.951
		C3.125,6.475,2.837,6.964,2.62,7.375c1.6,1.752,3.374,3.522,5.295,5.26c5.476,4.953,10.811,8.168,15.074,10.486
		C19.147,20.292,14.488,16.848,9.805,11.763"/>
	<path fill="#FFD300" d="M18.45,7.743c-1.565-3.11-2.787-5.171-4.59-7.589c-0.233,0.023-0.625,0.22-1.319,0.33
		c-0.518,0.079-1.044,0.027-1.464,0.195c2.626,2.757,4.746,5.644,7.08,9.795c2.652,4.724,3.981,8.488,5.099,12.426
		C22.782,18.367,21.397,13.613,18.45,7.743"/>
	<path fill="#005A9D" d="M15.893,28.812c-7.601,0-13.762-5.959-13.762-13.307c0-7.353,6.123-13.096,13.725-13.096
		c7.452,0,13.557,5.513,13.792,12.665c0.006-0.183,0.012-0.37,0.012-0.556C29.659,6.5,23.116,0,15.049,0
		c-8.07,0-14.61,6.5-14.61,14.519c0,8.02,6.54,14.52,14.61,14.52c1.573,0,3.086-0.247,4.505-0.705
		C18.388,28.643,17.16,28.812,15.893,28.812"/>
	<path fill="#B51E82" d="M8.021,8.376c5.208-5.308,13.31-5.711,18.099-0.896c2.922,2.939,4.084,7.376,3.084,11.179
		c1.354-4.526,0.526-9.656-2.914-13.114C21.255,0.48,12.765,0.798,7.556,6.11c-3.431,3.497-4.664,8.337-3.668,12.68
		C3.746,15.143,5.137,11.314,8.021,8.376"/>
	<path fill="#008F66" d="M28.942,15.831c-0.043-3.193-1.264-6.148-3.511-7.695c-4.343-2.99-11.092-0.652-15.298,5.494
		c-2.177,3.18-3.195,6.697-3.071,9.763C6.1,19.796,6.894,15.339,9.537,11.478c4.207-6.143,11.499-8.455,16.29-5.157
		c2.836,1.953,4.214,5.461,3.946,9.249c0,0-0.086,1.093-0.188,1.571c-0.097,0.45-0.348,1.434-0.448,1.723
		C29.037,19.148,28.942,15.831,28.942,15.831"/>
	<path fill="#F26F21" d="M14.507,13.975c-4.291,4.55-5.262,10.6-2.169,13.517c0.138,0.132,0.28,0.249,0.429,0.362
		c-2.721-2.722-1.902-7.937,1.863-12.006c3.463-3.74,9.352-5.376,12.203-2.686c2.513,2.37,2.177,6.917-0.581,10.765
		c3.82-4.469,4.576-10.121,1.621-12.904C24.779,8.104,18.793,9.428,14.507,13.975"/>
	<path fill="#DA2128" d="M18.509,18.61c-2.887,2.508-3.853,6.126-2.157,8.079c1.331,1.53,3.9,1.585,6.337,0.331
		c-2.05,0.943-4.165,0.826-5.293-0.469c-1.505-1.732-0.681-4.912,1.839-7.103c2.522-2.192,5.786-2.563,7.29-0.831
		c1.128,1.299,0.949,3.411-0.274,5.309c1.584-2.239,1.889-4.792,0.558-6.322C25.115,15.651,21.397,16.104,18.509,18.61"/>
	<path fill="#DA2128" d="M52.239,17.157c-1.085,0.676-2.004,0.879-3.368,0.879h-1.762l-1.048,4.927h-2.173l2.771-12.938h3.37
		c1.593,0,2.546,0.243,3.184,0.674c0.769,0.523,1.181,1.368,1.181,2.305C54.395,14.928,53.514,16.351,52.239,17.157 M50.067,11.784
		H48.44l-0.957,4.495h1.687c1.029,0,1.592-0.228,2.004-0.658c0.561-0.579,0.896-1.402,0.896-2.188
		C52.07,12.366,51.492,11.784,50.067,11.784"/>
	<path fill="#DA2128" d="M59.713,16.251c-0.166-0.097-0.331-0.13-0.578-0.13c-0.578,0-1.224,0.447-1.95,1.47l-1.141,5.372h-1.8
		l1.188-5.585c0.248-1.141,0.231-1.771,0.067-2.346l1.685-0.695c0.183,0.431,0.249,1.058,0.132,1.636
		c0.761-0.957,1.685-1.57,2.494-1.57c0.299,0,0.446,0.034,0.694,0.134L59.713,16.251z"/>
	<path fill="#DA2128" d="M62.637,23.159c-1.851,0-2.908-1.071-2.908-2.991c0-3.221,1.967-5.766,4.741-5.766
		c1.918,0,2.96,1.108,2.96,2.942C67.43,20.402,65.71,23.159,62.637,23.159 M64.189,15.79c-1.651,0-2.512,2.646-2.512,4.544
		c0,1.009,0.479,1.458,1.288,1.458c1.62,0,2.496-2.48,2.496-4.514C65.462,16.154,64.935,15.79,64.189,15.79"/>
	<path fill="#DA2128" d="M77.964,12.234c-0.581-0.522-1.272-0.729-2.096-0.729c-1.144,0-2.192,0.616-2.959,1.608
		c-1.068,1.367-1.687,3.969-1.687,5.543c0,1.854,0.937,2.829,2.622,2.829c0.861,0,1.591-0.284,2.527-0.884l0.767,1.423
		c-1.197,0.79-2.47,1.162-3.875,1.162c-2.752,0-4.38-1.74-4.38-4.606c0-2.077,0.784-4.567,2.115-6.214
		c1.329-1.668,3.276-2.567,5.187-2.567c1.252,0,2.376,0.394,3.014,1.03L77.964,12.234z"/>
	<path fill="#DA2128" d="M83.808,16.251c-0.164-0.097-0.33-0.13-0.578-0.13c-0.579,0-1.224,0.447-1.95,1.47l-1.141,5.372h-1.801
		l1.189-5.585c0.248-1.141,0.231-1.771,0.065-2.346l1.687-0.695c0.182,0.431,0.249,1.058,0.132,1.636
		c0.761-0.957,1.686-1.57,2.494-1.57c0.299,0,0.449,0.034,0.695,0.134L83.808,16.251z"/>
	<path fill="#DA2128" d="M90.45,18.37c-0.694,0.676-1.835,1.058-3.554,1.058c-0.463,0-0.86-0.069-1.007-0.069
		c-0.034,0.166-0.102,0.613-0.102,0.879c0,1.041,0.613,1.536,1.522,1.536c0.874,0,1.585-0.299,2.362-0.909l0.562,1.124
		c-1.009,0.809-1.999,1.188-3.403,1.188c-1.785,0-2.976-1.071-2.976-3.055c0-1.672,0.728-3.47,1.868-4.58
		c0.825-0.791,1.749-1.139,2.824-1.139c1.622,0,2.646,0.743,2.646,2.232C91.193,17.309,90.929,17.905,90.45,18.37 M88.317,15.759
		c-0.942,0-1.769,0.741-2.132,2.313c0.1,0,0.446,0.047,0.728,0.047c1.008,0,1.702-0.146,2.099-0.544
		c0.214-0.213,0.346-0.479,0.346-0.823C89.357,16.187,89.078,15.759,88.317,15.759"/>
	<path fill="#DA2128" d="M98.99,20.055c-0.38,1.768-0.313,2.298-0.082,2.693l-1.552,0.362c-0.215-0.263-0.348-0.675-0.314-1.205
		c-0.646,0.792-1.504,1.222-2.462,1.222c-1.669,0-2.462-0.992-2.462-2.876c0-1.668,0.661-3.451,1.833-4.608
		c0.795-0.775,1.834-1.176,2.792-1.176c0.743,0,1.323,0.118,1.604,0.266c0-0.083,0.148-0.841,0.217-1.123l0.593-2.808l1.735,0.297
		L98.99,20.055z M96.678,15.938c-0.527,0-1.122,0.266-1.519,0.761c-0.679,0.827-1.144,2.446-1.144,3.587
		c0,0.909,0.331,1.388,1.011,1.388c0.692,0,1.602-0.61,2.115-1.489l0.842-3.916C97.637,16.038,97.289,15.938,96.678,15.938"/>
	<path fill="#DA2128" d="M102.74,22.963h-1.849l1.751-8.262l1.899-0.282L102.74,22.963z M104.114,13.396
		c-0.662,0-1.208-0.548-1.208-1.208c0-0.677,0.546-1.221,1.224-1.221c0.66,0,1.189,0.544,1.189,1.207
		C105.319,12.848,104.79,13.396,104.114,13.396"/>
	<path fill="#DA2128" d="M109.993,15.89h-1.601l-0.942,4.496c-0.066,0.313-0.099,0.592-0.099,0.81c0,0.527,0.247,0.691,0.776,0.691
		c0.265,0,0.578-0.048,0.843-0.164v1.122c-0.578,0.234-1.157,0.348-1.733,0.348c-1.126,0-1.754-0.561-1.754-1.4
		c0-0.301,0.032-0.729,0.116-1.146l1.009-4.757h-0.942l0.265-1.288h0.941c0.164-0.762,0.33-1.405,0.546-2.032l1.932-0.448
		c-0.23,0.71-0.511,1.688-0.676,2.48h1.999L109.993,15.89z"/>
	<path fill="#DA2128" d="M121.893,16.11c1.366,0.262,2.061,1.309,2.061,2.602c0,0.953-0.469,2.136-1.404,3.014
		c-0.975,0.898-2.005,1.237-4.157,1.237h-4.119l2.771-12.938h4.042c2.453,0,3.634,1.066,3.634,2.81
		C124.72,14.237,123.841,15.566,121.893,16.11 M119.552,17.141h-1.908l-0.863,4.061h2.061c0.768,0,1.329-0.207,1.76-0.506
		c0.563-0.393,0.991-1.195,0.991-2.002C121.592,17.665,121.086,17.141,119.552,17.141 M120.544,11.842h-1.799l-0.728,3.518h1.871
		c0.806,0,1.293-0.147,1.668-0.448c0.468-0.375,0.806-0.937,0.806-1.646C122.362,12.328,121.911,11.842,120.544,11.842"/>
	<path fill="#DA2128" d="M132.336,16.947l-0.678,3.304c-0.215,1.009-0.115,1.439,0.299,1.884l-1.488,1.11
		c-0.446-0.365-0.627-0.826-0.627-1.372c-0.597,0.811-1.438,1.289-2.512,1.289c-1.308,0-2.183-0.878-2.183-2.663
		c0-1.851,0.694-3.635,1.768-4.74c0.894-0.909,1.983-1.356,3.322-1.356c0.959,0,1.933,0.199,2.595,0.63
		C132.684,15.494,132.452,16.351,132.336,16.947 M130.022,15.842c-0.742,0-1.272,0.166-1.918,0.923
		c-0.743,0.893-1.09,2.512-1.09,3.686c0,0.911,0.299,1.254,0.909,1.254c0.761,0,1.602-0.757,1.983-1.602l0.893-4.095
		C130.634,15.908,130.303,15.842,130.022,15.842"/>
	<path fill="#DA2128" d="M141.142,16.982l-1.271,5.98h-1.804l1.175-5.536c0.083-0.361,0.115-0.627,0.115-0.811
		c0-0.479-0.215-0.661-0.661-0.661c-0.593,0-1.421,0.414-2.297,1.554l-1.157,5.454h-1.784l1.222-5.784
		c0.199-0.975,0.218-1.536,0.035-2.146l1.685-0.695c0.166,0.378,0.265,0.991,0.149,1.571c0.792-0.959,1.851-1.489,3.008-1.489
		c1.039,0,1.668,0.645,1.668,1.653C141.225,16.351,141.209,16.699,141.142,16.982"/>
	<path fill="#DA2128" d="M146.065,13.692l-1.983,9.271h-1.816l1.965-9.236c0.233-1.058,0.266-1.885,0.131-2.397l1.887-0.628
		C146.396,11.163,146.38,12.221,146.065,13.692 M147.007,18.236l2.512,4.611l-2.033,0.231l-2.33-4.892l3.455-3.734l1.95,0.331
		L147.007,18.236z"/>
	<g>
		<path fill="#666666" d="M116.253,28.96h-0.646l0.584-2.756h-0.925l-0.584,2.756h-0.652l0.697-3.27h2.218L116.253,28.96z"/>
		<path fill="#666666" d="M117.854,26.469c0.013,0.021,0.028,0.059,0.04,0.113c0.013,0.05,0.021,0.132,0.021,0.242v0.037
			c0.112-0.119,0.233-0.21,0.374-0.271c0.132-0.063,0.264-0.09,0.385-0.09c0.072,0,0.153,0.014,0.244,0.046
			c0.086,0.03,0.159,0.086,0.224,0.164c0.067,0.09,0.121,0.189,0.141,0.3c0.026,0.106,0.035,0.203,0.035,0.285
			c0,0.014,0,0.053-0.003,0.11c-0.003,0.059-0.015,0.142-0.032,0.235c-0.011,0.093-0.043,0.195-0.075,0.313
			c-0.027,0.12-0.075,0.238-0.139,0.357c-0.062,0.124-0.126,0.221-0.203,0.31c-0.07,0.088-0.168,0.163-0.282,0.231
			c-0.093,0.056-0.189,0.097-0.286,0.128c-0.095,0.021-0.193,0.03-0.304,0.03c-0.116,0-0.21-0.006-0.283-0.027
			c-0.077-0.021-0.135-0.042-0.18-0.069v0.024c0,0.021,0,0.038-0.005,0.053c-0.001,0.014-0.008,0.033-0.014,0.061l-0.162,0.787
			L116.711,30l0.576-2.7c0.01-0.041,0.013-0.087,0.021-0.138c0.002-0.053,0.008-0.104,0.008-0.16c0-0.05-0.006-0.103-0.008-0.151
			c-0.009-0.051-0.017-0.103-0.032-0.15L117.854,26.469z M117.661,28.436c0.04,0.039,0.096,0.063,0.16,0.08
			c0.062,0.014,0.113,0.02,0.159,0.02c0.063,0,0.124-0.006,0.175-0.022c0.052-0.021,0.1-0.053,0.135-0.088
			c0.037-0.041,0.08-0.1,0.121-0.164c0.037-0.068,0.072-0.138,0.095-0.211c0.019-0.051,0.031-0.106,0.053-0.164
			c0.016-0.063,0.029-0.121,0.038-0.19c0.017-0.069,0.026-0.138,0.034-0.204c0.009-0.072,0.014-0.133,0.014-0.188
			c0-0.024-0.005-0.058-0.014-0.107c-0.004-0.041-0.021-0.082-0.056-0.113c-0.033-0.033-0.084-0.052-0.141-0.052
			c-0.046,0-0.1,0.011-0.145,0.027c-0.054,0.019-0.104,0.038-0.141,0.065c-0.05,0.039-0.102,0.08-0.149,0.136
			c-0.049,0.05-0.093,0.103-0.117,0.151L117.661,28.436z"/>
		<path fill="#666666" d="M121.816,27.351c0,0.196-0.021,0.39-0.077,0.579c-0.055,0.193-0.132,0.362-0.231,0.509
			c-0.075,0.121-0.161,0.218-0.264,0.29c-0.097,0.077-0.191,0.135-0.288,0.177c-0.103,0.041-0.204,0.071-0.302,0.086
			c-0.096,0.014-0.188,0.02-0.273,0.02c-0.089,0-0.187-0.009-0.289-0.034c-0.109-0.03-0.209-0.085-0.299-0.168
			c-0.097-0.094-0.16-0.193-0.195-0.31c-0.027-0.115-0.049-0.238-0.049-0.367c0-0.243,0.049-0.47,0.126-0.685
			c0.081-0.213,0.197-0.398,0.353-0.559c0.025-0.03,0.07-0.068,0.121-0.113c0.055-0.044,0.116-0.086,0.193-0.124
			c0.073-0.045,0.16-0.075,0.265-0.105c0.103-0.032,0.212-0.046,0.342-0.046c0.17,0,0.307,0.024,0.411,0.076
			c0.103,0.051,0.183,0.1,0.239,0.155c0.09,0.093,0.153,0.196,0.178,0.307C121.806,27.148,121.816,27.254,121.816,27.351z
			 M121.144,27.327c0-0.046-0.004-0.097-0.018-0.151c-0.008-0.06-0.035-0.107-0.079-0.146c-0.046-0.037-0.102-0.059-0.167-0.059
			c-0.031,0-0.069,0.003-0.109,0.014s-0.083,0.035-0.13,0.069c-0.045,0.035-0.094,0.079-0.139,0.148
			c-0.043,0.062-0.087,0.147-0.127,0.252c-0.016,0.055-0.041,0.119-0.057,0.186c-0.023,0.061-0.037,0.124-0.045,0.192
			c-0.021,0.072-0.028,0.135-0.036,0.203c-0.014,0.065-0.017,0.128-0.017,0.184c0,0.041,0.003,0.078,0.017,0.127
			c0.011,0.045,0.036,0.089,0.064,0.128c0.06,0.055,0.127,0.085,0.216,0.085c0.064,0,0.134-0.027,0.205-0.074
			s0.134-0.125,0.198-0.235c0.037-0.065,0.073-0.141,0.097-0.221c0.029-0.082,0.054-0.162,0.072-0.245
			c0.018-0.083,0.028-0.161,0.036-0.24C121.14,27.464,121.144,27.392,121.144,27.327z"/>
		<path fill="#666666" d="M125.11,26.073l-0.157,0.037c-0.025,0.008-0.051,0.014-0.077,0.024c-0.029,0.008-0.054,0.021-0.089,0.041
			c-0.048,0.031-0.078,0.075-0.116,0.125c-0.026,0.052-0.042,0.085-0.046,0.093l-0.16,0.316c-0.049,0.104-0.087,0.182-0.121,0.229
			c-0.028,0.05-0.06,0.085-0.082,0.11c-0.043,0.047-0.104,0.082-0.163,0.116c-0.07,0.03-0.133,0.052-0.188,0.069
			c0.095,0.03,0.166,0.082,0.216,0.148c0.023,0.033,0.054,0.086,0.072,0.15c0.026,0.073,0.037,0.132,0.043,0.189l0.048,0.483
			c0.006,0.044,0.016,0.086,0.02,0.127c0.011,0.048,0.035,0.083,0.083,0.113c0.017,0.011,0.046,0.028,0.08,0.045
			c0.041,0.014,0.071,0.024,0.09,0.03l0.091,0.032l-0.215,0.451l-0.345-0.042c-0.064-0.003-0.131-0.03-0.194-0.071
			c-0.071-0.039-0.125-0.083-0.161-0.125c-0.042-0.055-0.061-0.113-0.063-0.179c-0.009-0.066-0.012-0.142-0.012-0.225l-0.014-0.469
			c-0.002-0.055-0.014-0.11-0.035-0.169c-0.018-0.063-0.037-0.11-0.064-0.141c-0.043-0.048-0.091-0.075-0.149-0.083
			c-0.055-0.006-0.1-0.011-0.14-0.011h-0.24l-0.309,1.469h-0.666l0.689-3.27h0.668l-0.268,1.281h0.321
			c0.045,0,0.097-0.014,0.157-0.03c0.063-0.018,0.108-0.042,0.144-0.066c0.034-0.024,0.063-0.062,0.092-0.113
			c0.04-0.048,0.067-0.11,0.1-0.19l0.188-0.42c0.028-0.058,0.057-0.116,0.089-0.172c0.036-0.055,0.079-0.106,0.137-0.154
			c0.054-0.045,0.109-0.072,0.174-0.1c0.061-0.024,0.128-0.035,0.199-0.046l0.335-0.048L125.11,26.073z"/>
		<path fill="#666666" d="M125.974,26.469c0.013,0.021,0.023,0.059,0.035,0.113c0.021,0.05,0.027,0.132,0.027,0.242v0.037
			c0.107-0.119,0.226-0.21,0.365-0.271c0.14-0.063,0.263-0.09,0.388-0.09c0.08,0,0.156,0.014,0.239,0.046
			c0.091,0.03,0.163,0.086,0.236,0.164c0.069,0.09,0.116,0.189,0.135,0.3c0.024,0.106,0.034,0.203,0.034,0.285
			c0,0.014-0.004,0.053-0.004,0.11c-0.003,0.059-0.014,0.142-0.03,0.235c-0.016,0.093-0.038,0.195-0.07,0.313
			c-0.037,0.12-0.085,0.238-0.142,0.357c-0.061,0.124-0.13,0.221-0.205,0.31c-0.078,0.088-0.17,0.163-0.28,0.231
			c-0.091,0.056-0.186,0.097-0.285,0.128c-0.097,0.021-0.198,0.03-0.302,0.03c-0.122,0-0.215-0.006-0.289-0.027
			c-0.075-0.021-0.135-0.042-0.178-0.069v0.024c0,0.021-0.001,0.038-0.001,0.053c-0.005,0.014-0.008,0.033-0.019,0.061l-0.163,0.787
			L124.83,30l0.575-2.7c0.006-0.041,0.015-0.087,0.019-0.138c0.007-0.053,0.012-0.104,0.012-0.16c0-0.05-0.005-0.103-0.012-0.151
			c-0.004-0.051-0.013-0.103-0.036-0.15L125.974,26.469z M125.774,28.436c0.051,0.039,0.097,0.063,0.159,0.08
			c0.063,0.014,0.117,0.02,0.163,0.02c0.064,0,0.124-0.006,0.173-0.022c0.056-0.021,0.097-0.053,0.132-0.088
			c0.041-0.041,0.088-0.1,0.123-0.164c0.041-0.068,0.075-0.138,0.098-0.211c0.016-0.051,0.032-0.106,0.052-0.164
			c0.013-0.063,0.028-0.121,0.047-0.19c0.009-0.069,0.021-0.138,0.028-0.204c0.007-0.072,0.01-0.133,0.01-0.188
			c0-0.024-0.003-0.058-0.01-0.107c-0.006-0.041-0.027-0.082-0.058-0.113c-0.034-0.033-0.08-0.052-0.15-0.052
			c-0.041,0-0.097,0.011-0.143,0.027c-0.046,0.019-0.095,0.038-0.137,0.065c-0.049,0.039-0.097,0.08-0.143,0.136
			c-0.051,0.05-0.089,0.103-0.122,0.151L125.774,28.436z"/>
		<path fill="#666666" d="M129.587,28.685c-0.1,0.075-0.202,0.135-0.293,0.179c-0.095,0.042-0.189,0.072-0.264,0.097
			c-0.081,0.023-0.165,0.037-0.235,0.045c-0.068,0.006-0.129,0.006-0.177,0.006c-0.051,0-0.104,0-0.166-0.006
			c-0.058,0-0.116-0.014-0.178-0.028c-0.067-0.021-0.121-0.044-0.182-0.076c-0.056-0.034-0.114-0.075-0.163-0.131
			c-0.081-0.085-0.141-0.182-0.175-0.292c-0.029-0.11-0.047-0.225-0.047-0.346c0-0.124,0.015-0.237,0.039-0.361
			c0.028-0.127,0.063-0.244,0.11-0.357c0.05-0.113,0.102-0.224,0.169-0.323c0.066-0.104,0.14-0.193,0.223-0.272
			c0.14-0.136,0.277-0.222,0.417-0.263c0.135-0.033,0.271-0.055,0.404-0.055c0.116,0,0.229,0.014,0.334,0.038
			c0.104,0.024,0.193,0.068,0.282,0.141c0.016,0.011,0.037,0.031,0.054,0.053c0.029,0.027,0.051,0.061,0.069,0.097
			c0.019,0.033,0.036,0.085,0.055,0.138c0.014,0.055,0.021,0.119,0.021,0.188c0,0.135-0.026,0.248-0.08,0.337
			c-0.064,0.088-0.126,0.166-0.21,0.229c-0.127,0.1-0.271,0.169-0.423,0.202c-0.155,0.039-0.325,0.056-0.497,0.056
			c-0.052,0-0.1,0-0.143-0.003c-0.043-0.007-0.094-0.014-0.144-0.031c-0.015,0.069-0.023,0.145-0.023,0.217
			c0,0.082,0.016,0.151,0.037,0.2c0.024,0.051,0.057,0.089,0.089,0.114c0.041,0.033,0.095,0.055,0.148,0.058
			c0.051,0.008,0.095,0.014,0.126,0.014c0.14,0,0.265-0.03,0.377-0.089c0.112-0.055,0.213-0.11,0.286-0.165L129.587,28.685z
			 M128.491,27.516c0.024,0.008,0.051,0.011,0.084,0.018c0.021,0,0.059,0.004,0.094,0.004c0.052,0,0.116-0.004,0.194-0.011
			c0.075-0.011,0.148-0.03,0.207-0.065c0.059-0.031,0.103-0.062,0.134-0.105c0.032-0.047,0.049-0.097,0.049-0.16
			c0-0.079-0.02-0.138-0.066-0.175c-0.014-0.019-0.039-0.027-0.067-0.041c-0.021-0.014-0.067-0.021-0.114-0.021
			c-0.08,0-0.142,0.014-0.196,0.044c-0.056,0.028-0.102,0.066-0.147,0.118c-0.051,0.056-0.081,0.125-0.113,0.199
			C128.517,27.396,128.499,27.461,128.491,27.516z"/>
		<path fill="#666666" d="M131.012,25.483c0.055-0.003,0.104-0.01,0.164-0.014c0.053-0.003,0.106-0.01,0.167-0.01
			c0.078,0,0.157,0.007,0.227,0.014c0.081,0.007,0.15,0.021,0.219,0.037c0.093,0.027,0.185,0.066,0.263,0.118
			c0.078,0.055,0.148,0.124,0.212,0.216c0.047,0.069,0.079,0.135,0.104,0.207c0.026,0.072,0.045,0.142,0.056,0.218
			c0.009,0.069,0.017,0.138,0.021,0.207c0,0.064,0.001,0.127,0.001,0.188c0,0.18-0.011,0.362-0.039,0.548
			c-0.021,0.189-0.063,0.372-0.114,0.541c-0.047,0.179-0.107,0.337-0.175,0.485c-0.068,0.145-0.146,0.273-0.231,0.365
			c-0.044,0.052-0.097,0.1-0.159,0.148c-0.063,0.045-0.138,0.094-0.216,0.131c-0.075,0.038-0.166,0.071-0.261,0.097
			c-0.102,0.024-0.209,0.03-0.316,0.03c-0.108,0-0.222-0.014-0.338-0.045c-0.112-0.033-0.207-0.1-0.293-0.188
			c-0.085-0.093-0.135-0.196-0.167-0.307c-0.019-0.11-0.031-0.21-0.031-0.307c0-0.128,0.013-0.256,0.04-0.383
			c0.023-0.124,0.06-0.248,0.104-0.358c0.054-0.114,0.101-0.217,0.162-0.31c0.067-0.093,0.134-0.175,0.209-0.241
			c0.071-0.062,0.165-0.124,0.278-0.18c0.114-0.058,0.25-0.089,0.408-0.089c0.055,0,0.107,0.003,0.151,0.018
			c0.043,0.011,0.088,0.02,0.142,0.038c0.036,0.014,0.075,0.03,0.111,0.048c0.043,0.014,0.078,0.038,0.12,0.071
			c0.011-0.058,0.012-0.127,0.012-0.21c0-0.058-0.001-0.124-0.012-0.183c-0.008-0.061-0.021-0.116-0.035-0.165
			c-0.048-0.103-0.126-0.183-0.226-0.23c-0.069-0.03-0.135-0.052-0.209-0.063c-0.068-0.009-0.13-0.009-0.185-0.009
			c-0.082,0-0.153,0-0.214,0.009c-0.05,0.011-0.101,0.024-0.153,0.035L131.012,25.483z M131.738,27.213
			c-0.028-0.023-0.054-0.048-0.082-0.062c-0.022-0.018-0.05-0.031-0.082-0.042c-0.029-0.014-0.059-0.024-0.093-0.03
			c-0.028-0.011-0.067-0.011-0.096-0.011c-0.08,0-0.142,0.017-0.2,0.048c-0.058,0.038-0.104,0.079-0.146,0.129
			c-0.03,0.047-0.064,0.103-0.09,0.157c-0.023,0.053-0.043,0.103-0.059,0.152c-0.052,0.171-0.091,0.31-0.103,0.413
			c-0.016,0.109-0.024,0.186-0.024,0.244c0,0.124,0.032,0.218,0.083,0.266c0.052,0.052,0.108,0.076,0.175,0.076
			c0.057,0,0.114-0.019,0.182-0.049c0.071-0.03,0.14-0.097,0.201-0.199c0.063-0.104,0.112-0.218,0.153-0.355
			c0.044-0.134,0.083-0.299,0.124-0.486L131.738,27.213z"/>
		<path fill="#666666" d="M134.652,28.336c-0.003,0.018-0.008,0.045-0.014,0.083c-0.003,0.038-0.005,0.066-0.005,0.086
			c0,0.049,0.005,0.1,0.016,0.158c0.006,0.055,0.029,0.114,0.047,0.165l-0.538,0.218c-0.02-0.03-0.035-0.069-0.061-0.124
			c-0.028-0.056-0.048-0.124-0.057-0.204c-0.042,0.046-0.086,0.08-0.129,0.11c-0.053,0.032-0.096,0.056-0.14,0.08
			c-0.097,0.047-0.172,0.075-0.25,0.086c-0.067,0.011-0.129,0.017-0.178,0.017c-0.091,0-0.17-0.009-0.249-0.03
			c-0.071-0.031-0.133-0.062-0.187-0.104c-0.024-0.027-0.062-0.068-0.092-0.124c-0.038-0.055-0.049-0.132-0.049-0.224
			c0-0.069,0.001-0.141,0.02-0.218c0.011-0.072,0.02-0.127,0.026-0.161l0.32-1.544l0.651-0.116l-0.328,1.546
			c-0.008,0.021-0.016,0.052-0.021,0.104c-0.009,0.048-0.016,0.089-0.017,0.113c-0.005,0.031-0.011,0.056-0.011,0.069
			s0,0.027,0,0.038c0,0.023,0.006,0.048,0.011,0.069c0.001,0.02,0.017,0.037,0.038,0.062c0.03,0.035,0.064,0.055,0.11,0.055
			c0.027,0,0.057-0.011,0.097-0.02c0.043-0.008,0.095-0.035,0.151-0.08c0.104-0.072,0.188-0.154,0.253-0.259l0.336-1.561
			l0.635-0.127L134.652,28.336z"/>
		<path fill="#666666" d="M136.104,26.469c0.021,0.066,0.038,0.121,0.044,0.166c0.008,0.044,0.011,0.103,0.011,0.168v0.059
			c0.11-0.113,0.229-0.202,0.377-0.271c0.059-0.027,0.123-0.049,0.188-0.065c0.063-0.014,0.135-0.024,0.205-0.024
			c0.132,0,0.239,0.035,0.317,0.1c0.084,0.065,0.129,0.151,0.134,0.262c0.021-0.027,0.064-0.069,0.133-0.124
			c0.062-0.051,0.142-0.1,0.233-0.145c0.132-0.063,0.269-0.093,0.406-0.093c0.07,0,0.138,0.011,0.193,0.027
			c0.06,0.019,0.113,0.052,0.157,0.094c0.035,0.038,0.071,0.086,0.099,0.148c0.021,0.064,0.038,0.141,0.038,0.232
			c0,0.05-0.003,0.107-0.017,0.163c-0.011,0.059-0.018,0.107-0.021,0.151l-0.353,1.644h-0.609l0.341-1.585
			c0.005-0.027,0.013-0.066,0.017-0.1c0.01-0.035,0.011-0.069,0.011-0.097c0-0.017-0.001-0.038-0.006-0.063
			c-0.005-0.021-0.016-0.04-0.029-0.059c-0.017-0.014-0.027-0.017-0.049-0.023c-0.021,0-0.04-0.004-0.056-0.004
			c-0.1,0-0.192,0.038-0.285,0.107c-0.093,0.075-0.171,0.157-0.227,0.254l-0.329,1.568h-0.613l0.332-1.561
			c0.007-0.017,0.016-0.049,0.021-0.1c0.014-0.046,0.014-0.094,0.014-0.135c0-0.056-0.014-0.089-0.034-0.107
			c-0.019-0.014-0.033-0.017-0.062-0.023c-0.02,0-0.036-0.004-0.05-0.004c-0.056,0-0.107,0.011-0.147,0.035
			c-0.04,0.017-0.078,0.038-0.103,0.055c-0.042,0.034-0.091,0.075-0.142,0.134c-0.046,0.055-0.087,0.102-0.114,0.138l-0.33,1.568
			h-0.614l0.355-1.651c0.008-0.044,0.014-0.1,0.019-0.171c0.003-0.062,0.004-0.117,0.004-0.155c0-0.052-0.001-0.104-0.009-0.148
			c-0.008-0.051-0.014-0.092-0.024-0.134L136.104,26.469z"/>
		<path fill="#666666" d="M142.691,25.69l-0.183,0.555h-1.318l-0.151,0.721h0.524c0.058,0,0.124,0.003,0.187,0.006
			c0.063,0.003,0.134,0.014,0.198,0.03c0.064,0.015,0.129,0.039,0.194,0.074c0.062,0.027,0.116,0.067,0.167,0.119
			c0.053,0.056,0.096,0.124,0.137,0.21c0.04,0.091,0.063,0.204,0.063,0.346c0,0.082-0.012,0.168-0.03,0.257
			c-0.014,0.097-0.051,0.188-0.089,0.279c-0.045,0.094-0.113,0.18-0.186,0.262c-0.075,0.08-0.174,0.16-0.291,0.221
			c-0.107,0.066-0.238,0.114-0.373,0.142c-0.138,0.035-0.265,0.049-0.374,0.049h-1.217l0.695-3.27H142.691z M141.182,28.425
			c0.06,0,0.122-0.009,0.191-0.027c0.072-0.017,0.141-0.069,0.216-0.137c0.05-0.055,0.093-0.121,0.118-0.2
			c0.027-0.083,0.043-0.166,0.043-0.244c0-0.041-0.001-0.076-0.016-0.107c-0.012-0.041-0.027-0.068-0.053-0.103
			c-0.047-0.049-0.093-0.08-0.147-0.091c-0.06-0.011-0.109-0.017-0.158-0.017h-0.45l-0.198,0.926H141.182z"/>
		<path fill="#666666" d="M144.294,29.029c-0.04-0.024-0.072-0.06-0.102-0.107c-0.034-0.041-0.063-0.107-0.077-0.196
			c-0.092,0.094-0.181,0.162-0.292,0.213c-0.11,0.049-0.225,0.072-0.349,0.072c-0.133,0-0.239-0.017-0.318-0.062
			c-0.072-0.041-0.137-0.086-0.175-0.135c-0.067-0.075-0.115-0.161-0.132-0.255c-0.026-0.096-0.038-0.192-0.038-0.299
			c0-0.283,0.052-0.544,0.143-0.792c0.092-0.242,0.211-0.438,0.367-0.597c0.083-0.08,0.169-0.151,0.253-0.199
			c0.083-0.049,0.172-0.088,0.253-0.11c0.088-0.027,0.166-0.041,0.241-0.052c0.078-0.007,0.146-0.011,0.204-0.011
			c0.21,0,0.37,0.014,0.49,0.049c0.124,0.033,0.224,0.072,0.305,0.116c-0.03,0.1-0.055,0.199-0.084,0.307s-0.052,0.204-0.069,0.287
			l-0.187,0.909c-0.017,0.047-0.021,0.093-0.021,0.13c-0.003,0.03-0.003,0.052-0.003,0.063c0,0.064,0.007,0.117,0.032,0.158
			c0.014,0.045,0.046,0.083,0.072,0.121L144.294,29.029z M144.357,27.027c-0.027-0.018-0.063-0.028-0.101-0.031
			c-0.04-0.003-0.067-0.008-0.099-0.008c-0.09,0-0.165,0.014-0.231,0.053c-0.064,0.027-0.124,0.082-0.171,0.154
			c-0.068,0.08-0.115,0.166-0.149,0.255c-0.035,0.087-0.058,0.173-0.079,0.248c-0.021,0.077-0.035,0.159-0.053,0.256
			c-0.012,0.096-0.019,0.188-0.019,0.282c0,0.072,0.002,0.12,0.016,0.152c0.011,0.033,0.021,0.047,0.021,0.058
			c0.017,0.031,0.043,0.059,0.069,0.069c0.029,0.006,0.057,0.014,0.087,0.014c0.048,0,0.097-0.011,0.14-0.035
			c0.052-0.023,0.097-0.056,0.138-0.089c0.035-0.035,0.077-0.077,0.107-0.118c0.032-0.048,0.06-0.089,0.081-0.134L144.357,27.027z"
			/>
		<path fill="#666666" d="M145.23,28.96l0.496-2.354l0.646-0.116l-0.205,0.979h0.643l0.178-0.862l0.649-0.116l-0.528,2.47h-0.616
			l0.221-1.047h-0.645l-0.224,1.047H145.23z"/>
		<path fill="#666666" d="M147.744,28.96l0.495-2.354l0.646-0.116l-0.175,0.774l-0.156,0.489h0.011l0.115-0.193
			c0.051-0.092,0.1-0.175,0.148-0.261c0.063-0.087,0.134-0.18,0.237-0.283c0.061-0.062,0.128-0.117,0.189-0.169
			c0.068-0.056,0.139-0.1,0.227-0.141c0.086-0.053,0.178-0.094,0.282-0.128c0.104-0.038,0.207-0.065,0.311-0.089l0.121,0.427
			l-0.097,0.027c-0.068,0.021-0.146,0.049-0.227,0.086c-0.081,0.035-0.159,0.079-0.25,0.132c-0.083,0.047-0.154,0.11-0.245,0.175
			c-0.07,0.068-0.143,0.154-0.208,0.248c0.073,0.003,0.151,0.021,0.208,0.045c0.072,0.027,0.127,0.065,0.172,0.121
			c0.027,0.033,0.049,0.082,0.062,0.13c0.012,0.056,0.021,0.107,0.027,0.151l0.013,0.276c0,0.017,0,0.041,0.003,0.08
			c0.006,0.041,0.017,0.068,0.033,0.089c0.026,0.035,0.059,0.052,0.104,0.063l0.132,0.037l-0.181,0.428l-0.215-0.021
			c-0.072-0.003-0.14-0.023-0.207-0.051c-0.075-0.024-0.13-0.072-0.17-0.142c-0.029-0.055-0.051-0.11-0.053-0.173
			c-0.006-0.059-0.011-0.113-0.011-0.169l-0.011-0.317c0-0.017-0.003-0.036-0.004-0.058c-0.007-0.021-0.021-0.038-0.046-0.056
			c-0.018-0.011-0.042-0.02-0.069-0.022c-0.024-0.005-0.043-0.008-0.062-0.008c-0.103,0.121-0.193,0.254-0.283,0.406
			c-0.081,0.148-0.172,0.337-0.274,0.565H147.744z"/>
	</g>
</g>
</svg>
