<?xml version="1.0" encoding="utf-8"?>
<!-- Generator: Adobe Illustrator 16.0.3, SVG Export Plug-In . SVG Version: 6.00 Build 0)  -->
<!DOCTYPE svg PUBLIC "-//W3C//DTD SVG 1.1//EN" "http://www.w3.org/Graphics/SVG/1.1/DTD/svg11.dtd">
<svg version="1.1" id="Layer_1" xmlns="http://www.w3.org/2000/svg" xmlns:xlink="http://www.w3.org/1999/xlink" x="0px" y="0px"
	 width="154px" height="30px" viewBox="0 0 154 30" enable-background="new 0 0 154 30" xml:space="preserve">
<g>
	<polygon fill-rule="evenodd" clip-rule="evenodd" fill="#00498F" points="0.11,18.542 0.11,19.726 153.89,19.726 153.89,18.542 
		0.11,18.542 	"/>
	<path fill-rule="evenodd" clip-rule="evenodd" fill="#00498F" d="M141.768,5.705c0,1.126,0.324,1.126,1.793,1.126
		c1.084,0,2.949,0.022,4.355-0.093c0.904-0.079,1.08-0.956,1.262-1.646c0.033-0.14,0.146-0.406,0.467-0.406
		c0.18,0,0.4,0.047,0.4,0.245c-0.039,0.659-0.111,1.374-0.186,2.045c0.074,0.758,0.142,1.479,0.186,2.24
		c0,0.37-0.221,0.422-0.4,0.422c-0.32,0-0.434-0.265-0.467-0.403c-0.182-0.689-0.467-1.408-1.262-1.523
		C146.514,7.5,144.645,7.5,143.561,7.5c-1.436,0-1.793,0-1.793,0.804v4.143c0,2.19,1.58,2.214,4.424,2.214
		c3.087-0.002,5.067-0.048,6.292-2.142c0.118-0.165,0.361-0.806,0.798-0.806c0.247-0.002,0.361,0.091,0.361,0.258
		c0,0.192-0.074,0.383-0.146,0.574l-0.537,2.518c-0.035,0.169-0.114,0.145-0.398,0.145h-14.072c-0.712,0-1.505,0.097-2.227,0.097
		c-0.332,0-0.608-0.097-0.608-0.359c0-0.262,0.576-0.284,0.936-0.284c2.478-0.002,2.333-0.479,2.333-2.001V2.978
		c0-1.477,0.145-1.954-2.333-1.954c-0.359,0-0.936,0-0.936-0.287c0-0.237,0.276-0.359,0.608-0.359c2.227,0,4.529,0.1,6.76,0.1
		c3.098,0,6.121-0.1,9.178-0.1c0.688,0,0.503,0.574,0.503,0.885V3.31c0,0.145,0.038,0.496-0.317,0.496
		c-0.326,0-0.476-0.304-0.58-0.471l-0.546-0.672c-0.532-0.737-1.038-1.162-2.228-1.401c-1.188-0.238-2.736-0.238-3.961-0.238
		c-0.576,0-2.158,0-2.732,0.145c-0.68,0.163-0.57,0.686-0.57,1.095V5.705L141.768,5.705z M115.107,12.735
		c0,1.523-0.145,1.947,2.333,1.972c0.326,0,0.934-0.024,0.934,0.287c0,0.261-0.287,0.31-0.609,0.31
		c-1.367,0-2.657-0.097-4.024-0.097c-1.369,0-2.736,0.097-4.105,0.097c-0.32,0-0.611-0.049-0.611-0.31
		c0-0.312,0.576-0.287,0.9-0.287c2.516,0,2.342-0.475,2.342-1.972V2.978c0-1.506,0.174-1.954-2.342-1.954c-0.324,0-0.9,0-0.9-0.308
		c0-0.262,0.254-0.339,0.611-0.339c1.369,0,2.664,0.1,4.031,0.1c1.362,0,2.731-0.1,4.099-0.1c0.322,0,0.609,0.077,0.609,0.339
		c0,0.308-0.609,0.308-0.934,0.308c-2.513,0-2.333,0.448-2.333,1.954v3.064c0,0.884-0.079,0.884,1.26,0.884h10.067
		c1.193,0,1.258-0.072,1.258-0.882V2.978c0-1.506,0.184-1.954-2.336-1.954c-0.326,0-0.895,0-0.895-0.308
		c0-0.262,0.25-0.339,0.611-0.339c1.361,0,2.66,0.1,4.027,0.1c1.369,0,2.732-0.1,4.102-0.1c0.328,0,0.608,0.077,0.608,0.339
		c0,0.308-0.608,0.308-0.936,0.308c-2.517,0-2.331,0.448-2.331,1.954v9.758c0,1.523-0.148,1.947,2.331,1.972
		c0.327,0,0.936-0.024,0.936,0.287c0,0.261-0.282,0.31-0.608,0.31c-1.369,0-2.658-0.097-4.027-0.097
		c-1.371,0-2.74,0.097-4.102,0.097c-0.326,0-0.611-0.049-0.611-0.31c0-0.312,0.566-0.287,0.895-0.287
		c2.52,0,2.336-0.475,2.336-1.972V8.473c0-0.88,0-0.88-1.258-0.88h-9.958c-1.264,0-1.369,0.054-1.369,0.88V12.735L115.107,12.735z
		 M106.615,3.398c0,0.192-0.104,0.31-0.386,0.31c-0.942-0.002-1.227-3.044-6.803-3.044c-6.045,0-9.035,3.433-9.035,6.999
		c0,1.689,0.719,3.286,2.234,4.663c1.652,1.501,3.883,2.53,6.801,2.53c5.576,0,6.005-3.742,6.98-3.742
		c0.286,0,0.425,0.141,0.394,0.312l-0.186,1.929c-0.07,0.737-0.031,0.778-1.152,1.143c-2.116,0.662-4.137,0.993-6.501,0.993
		c-6.551,0-11.771-3.592-11.771-7.805C87.19,3.285,93.087,0,99.668,0c1.628,0,4.139,0.284,5.689,0.646
		c1.05,0.231,0.904,0.55,1.01,1.208L106.615,3.398L106.615,3.398z M75.678,7.876c-2.625-0.76-5.223-1.737-5.223-3.85
		C70.455,1.521,73.881,0,77.404,0c1.4,0,3.49,0.163,4.824,0.528c0.688,0.163,0.611,0.446,0.645,0.88
		c0.043,0.619,0.107,1.234,0.143,1.853c0,0.165-0.143,0.291-0.396,0.291c-0.391,0-0.465-0.389-0.574-0.558
		c-0.789-1.636-1.869-2.518-4.678-2.518c-2.369,0-4.637,0.815-4.637,2.544c0,2.047,3.955,2.888,6.291,3.548
		c1.193,0.357,2.699,0.857,3.572,1.477c1.039,0.763,1.714,1.812,1.714,2.832c0.007,1.336-0.968,2.523-2.517,3.382
		c-1.615,0.88-3.666,1.231-5.752,1.231c-1.762,0-3.922-0.331-5.434-0.926c-0.615-0.264-0.501-0.9-0.501-1.334
		c0-0.617,0-1.212,0.099-1.827c0.043-0.194,0.148-0.483,0.545-0.483c0.465,0,0.465,0.599,0.502,0.793
		c0.361,2.04,2.014,3.331,5.291,3.331c2.693,0,5.365-1.217,5.365-3.098c0-1.904-1.949-2.829-4.393-3.542L75.678,7.876L75.678,7.876z
		 M51.869,2.994c0-1.522,0.174-1.971-2.334-1.971c-0.332,0-0.906,0-0.906-0.287c0-0.26,0.252-0.359,0.648-0.359
		c1.15,0,2.371,0.1,3.529,0.1c2.079,0,4.091-0.1,6.147-0.1c3.412,0,6.801,1.124,6.801,3.623c0,2.166-2.705,3.426-5.686,3.686
		c1.15,0.124,1.691,0.95,2.195,1.567l2.91,3.718c0.648,0.832,1.195,1.736,2.771,1.736c0.293,0,0.936,0,0.936,0.337
		c0,0.237-0.357,0.26-0.643,0.26h-3.818c-0.723,0-0.936-0.447-1.223-0.807l-3.531-4.641c-1.287-1.669-1.249-1.86-3.981-1.86
		c-0.291,0-0.62-0.021-0.8,0.119c-0.21,0.17-0.177,0.737-0.177,0.952v3.668c0,1.523-0.145,1.947,2.339,1.972
		c0.322,0,0.934-0.024,0.934,0.287c0.002,0.261-0.284,0.31-0.611,0.31c-1.369,0-2.661-0.097-4.03-0.097
		c-1.37,0-2.732,0.097-4.102,0.097c-0.32,0-0.609-0.049-0.609-0.31c0-0.312,0.574-0.287,0.906-0.287
		c2.508,0,2.334-0.475,2.334-1.972V2.994L51.869,2.994z M54.709,7.046c0,0.601,1.222,0.428,1.827,0.428
		c1.662,0,3.131-0.094,4.502-0.781c1.186-0.599,1.656-1.48,1.656-2.431c0-2.195-1.977-3.385-5.18-3.385
		c-2.736,0-2.806,0.242-2.806,1.91V7.046L54.709,7.046z M33.562,0c6.838,0,12.521,3.145,12.521,7.733
		c0,4.593-5.684,7.757-12.521,7.757c-6.472,0-12.558-3.429-12.558-7.757C21.004,3.398,27.09,0,33.562,0L33.562,0z M40.433,2.813
		c-1.729-1.359-4.102-2.167-6.799-2.167c-2.807,0-5.398,0.779-7.127,2.229c-1.654,1.365-2.266,3.149-2.266,4.859
		c0,1.788,0.645,3.591,2.41,4.975c1.727,1.384,4.242,2.115,6.982,2.115c2.768,0,5.219-0.878,6.943-2.278
		c1.691-1.431,2.23-3.023,2.23-4.812C42.808,5.908,42.233,4.262,40.433,2.813L40.433,2.813L40.433,2.813z M3.599,2.978
		c0-1.506,0.217-1.954-2.311-1.954c-0.322,0-0.896,0-0.896-0.308c0-0.262,0.252-0.339,0.613-0.339c1.295,0,2.516,0.1,3.816,0.1
		c1.939,0,3.811-0.1,5.714-0.1c1.73,0,3.383,0.151,4.83,0.818c1.582,0.708,2.621,1.997,2.621,3.259c0,2.542-3.271,4.354-6.978,4.354
		c-0.653,0-0.9-0.048-1.477-0.172l-1.725-0.38c-0.254-0.046-0.504-0.12-0.791-0.12c-0.646,0-0.58,0.357-0.58,0.672v3.928
		c0,1.523-0.147,1.947,2.344,1.972c0.324,0,0.934-0.024,0.934,0.287c0,0.261-0.294,0.31-0.609,0.31
		c-1.365,0-2.668-0.097-4.033-0.097c-1.367,0-2.732,0.097-4.105,0.097c-0.322,0-0.609-0.049-0.609-0.31
		c0-0.312,0.574-0.287,0.898-0.287c2.523,0,2.344-0.475,2.344-1.972V2.978L3.599,2.978z M6.437,6.379
		c0,0.522-0.178,0.975,0.58,1.268c0.723,0.279,2.049,0.469,2.874,0.469c2.988,0,5.109-1.664,5.109-3.57
		c0-1.067-0.615-2.188-1.866-2.901c-1.118-0.669-2.627-0.83-4.104-0.83C6.544,0.812,6.437,1.381,6.437,2.857V6.379L6.437,6.379z"/>
	<path fill-rule="evenodd" clip-rule="evenodd" fill="#00498F" d="M144.902,24.928c0,0.595,0.17,0.595,0.95,0.595
		c0.57,0,1.555,0.01,2.297-0.048c0.48-0.043,0.571-0.508,0.669-0.871c0.019-0.074,0.074-0.215,0.248-0.215
		c0.093,0,0.208,0.024,0.208,0.128c-0.019,0.349-0.056,0.725-0.095,1.084c0.039,0.398,0.074,0.781,0.095,1.18
		c0,0.198-0.115,0.227-0.208,0.227c-0.174,0-0.229-0.14-0.248-0.215c-0.098-0.363-0.25-0.743-0.669-0.807
		c-0.739-0.11-1.727-0.11-2.297-0.11c-0.76,0-0.95,0-0.95,0.424v2.189c0,1.158,0.839,1.173,2.338,1.173
		c1.632-0.002,2.679-0.027,3.327-1.134c0.058-0.085,0.188-0.426,0.417-0.426c0.135,0,0.194,0.048,0.194,0.137
		c0,0.101-0.041,0.204-0.079,0.304l-0.284,1.331c-0.017,0.087-0.061,0.075-0.211,0.075h-7.433c-0.378,0-0.797,0.052-1.179,0.052
		c-0.174,0-0.32-0.052-0.32-0.19s0.306-0.148,0.493-0.148c1.312-0.002,1.233-0.254,1.233-1.058v-5.117
		c0-0.781,0.078-1.035-1.233-1.035c-0.188,0-0.493,0-0.493-0.15c0-0.124,0.146-0.186,0.32-0.186c1.179,0,2.394,0.049,3.574,0.049
		c1.634,0,3.234-0.049,4.847-0.049c0.361,0,0.267,0.301,0.267,0.464v1.083c0,0.078,0.022,0.264-0.169,0.264
		c-0.17,0-0.248-0.161-0.304-0.252l-0.289-0.355c-0.281-0.386-0.552-0.613-1.177-0.739c-0.628-0.128-1.45-0.128-2.095-0.128
		c-0.306,0-1.14,0-1.443,0.079c-0.359,0.087-0.302,0.361-0.302,0.578V24.928L144.902,24.928z"/>
	<path fill-rule="evenodd" clip-rule="evenodd" fill="#00498F" d="M11.143,23.765c0,0.122-0.064,0.235-0.267,0.235
		c-0.609,0-0.271-1.536-3.465-1.536c-1.423,0-2.71,0.295-3.631,1.049c-0.849,0.676-1.297,1.691-1.297,2.551
		c0,0.913,0.374,1.751,1.297,2.44c1.028,0.791,2.346,1.066,3.899,1.066c0.617-0.002,1.553-0.063,2.057-0.333
		c0.384-0.208,0.341-0.721,0.341-1.001v-0.998c0-0.667-0.17-0.778-1.223-0.778c-0.182,0-0.434,0.013-0.434-0.139
		c0-0.152,0.25-0.152,0.421-0.152c0.645,0,1.295,0.039,1.949,0.039c0.609,0,1.228-0.039,1.859-0.039
		c0.146,0,0.306,0.017,0.306,0.145c0,0.136-0.18,0.146-0.348,0.146l-0.341,0.029c-0.16,0.012-0.434,0.012-0.562,0.095
		c-0.233,0.124-0.196,0.475-0.196,0.658v1.374c0,0.308,0.085,0.436-0.319,0.621c-1.128,0.478-2.536,0.652-3.852,0.652
		c-1.626,0-3.147-0.254-4.407-0.929c-1.338-0.725-2.096-1.66-2.096-2.809c0-2.388,3.396-4.037,6.868-4.037
		c0.917,0,2.032,0.104,2.901,0.334c0.613,0.151,0.448,0.424,0.508,0.808L11.143,23.765L11.143,23.765z M14.509,23.629
		c0-0.765,0.085-0.993-1.177-0.993c-0.164,0-0.455,0-0.455-0.143c0-0.135,0.126-0.185,0.326-0.185c0.579,0,1.192,0.05,1.778,0.05
		c1.047,0,2.053-0.05,3.092-0.05c1.72,0,3.424,0.566,3.424,1.822c0,1.092-1.361,1.73-2.862,1.862
		c0.58,0.056,0.853,0.473,1.103,0.785l1.469,1.87c0.322,0.418,0.601,0.876,1.394,0.876c0.146,0,0.469,0,0.469,0.165
		c0,0.12-0.182,0.135-0.322,0.135l-1.918-0.002c-0.368,0-0.471-0.226-0.62-0.405l-1.775-2.34c-0.646-0.836-0.63-0.934-2.006-0.934
		c-0.145,0-0.31-0.01-0.398,0.061c-0.111,0.084-0.091,0.369-0.091,0.479v1.847c0,0.769-0.07,0.982,1.178,0.995
		c0.163,0,0.469-0.013,0.469,0.141c0.004,0.132-0.145,0.159-0.306,0.159c-0.694-0.002-1.341-0.05-2.03-0.05
		c-0.691,0-1.373,0.05-2.063,0.05c-0.161-0.002-0.308-0.027-0.308-0.159c0-0.153,0.291-0.141,0.455-0.141
		c1.262,0,1.177-0.239,1.177-0.995V23.629L14.509,23.629z M15.938,25.665c0,0.299,0.615,0.215,0.921,0.215
		c0.833,0,1.574-0.044,2.266-0.395c0.593-0.3,0.832-0.741,0.832-1.219c0-1.104-0.993-1.706-2.607-1.706
		c-1.376,0-1.411,0.12-1.411,0.965V25.665L15.938,25.665z M28.804,22.117c3.44,0,6.305,1.586,6.305,3.895
		c0,2.313-2.864,3.905-6.305,3.905c-3.257,0-6.319-1.729-6.319-3.905C22.484,23.833,25.547,22.117,28.804,22.117L28.804,22.117z
		 M32.263,23.533c-0.869-0.679-2.067-1.084-3.42-1.084c-1.415,0-2.718,0.389-3.587,1.117c-0.835,0.688-1.141,1.586-1.141,2.445
		c0,0.902,0.322,1.807,1.211,2.505c0.867,0.696,2.133,1.065,3.517,1.065c1.39,0,2.62-0.443,3.494-1.152
		c0.849-0.716,1.121-1.516,1.121-2.418C33.458,25.093,33.167,24.267,32.263,23.533L32.263,23.533L32.263,23.533z M48.168,23.62
		c0-0.756,0.104-0.984-1.162-0.984c-0.165,0-0.457,0-0.457-0.155c0-0.132,0.135-0.172,0.313-0.172c0.65,0,1.264,0.05,1.918,0.05
		c0.981,0,1.917-0.05,2.875-0.05c0.873,0,1.706,0.079,2.433,0.409c0.799,0.359,1.319,1.008,1.319,1.644
		c0,1.278-1.647,2.191-3.511,2.191c-0.33,0-0.456-0.024-0.743-0.087l-0.871-0.189c-0.124-0.025-0.252-0.061-0.393-0.061
		c-0.326,0-0.291,0.18-0.291,0.337v1.977c0,0.769-0.077,0.982,1.179,0.995c0.161,0,0.467-0.013,0.467,0.141
		c0,0.132-0.146,0.159-0.306,0.159c-0.691-0.002-1.34-0.05-2.032-0.05c-0.688,0-1.375,0.05-2.064,0.05
		c-0.157-0.002-0.308-0.027-0.308-0.159c0-0.153,0.289-0.141,0.458-0.141c1.266,0,1.177-0.239,1.177-0.995V23.62L48.168,23.62z
		 M49.598,25.328c0,0.263-0.091,0.491,0.291,0.636c0.357,0.143,1.028,0.24,1.443,0.24c1.506,0,2.573-0.839,2.573-1.795
		c0-0.541-0.31-1.103-0.943-1.462c-0.558-0.337-1.318-0.419-2.065-0.419c-1.247,0-1.299,0.289-1.299,1.03V25.328L49.598,25.328z
		 M39.441,22.388c0.033,0.062,0.047,0.113,0.047,0.148c0,0.022-0.012,0.056-0.026,0.105c-0.137,0.024-0.25,0.039-0.339,0.039
		c-0.035,0-0.099-0.004-0.189-0.011c-0.085-0.008-0.161-0.008-0.215-0.008c-0.248,0-0.44,0.035-0.585,0.107
		c-0.097,0.039-0.157,0.097-0.174,0.165l-0.084,0.657l0.022,2.862c0.006,1.045,0.058,1.699,0.146,1.951
		c0.091,0.256,0.242,0.469,0.463,0.634c0.211,0.163,0.532,0.304,0.967,0.411c0.429,0.105,0.849,0.161,1.26,0.161
		c0.912,0,1.608-0.093,2.096-0.283c0.485-0.189,0.853-0.439,1.045-0.78c0.461-0.812,0.452-3.52,0.38-4.529
		c-0.039-0.558-0.078-0.888-0.13-0.986c-0.054-0.098-0.124-0.176-0.219-0.224c-0.213-0.111-0.609-0.208-1.192-0.291
		c-0.028-0.054-0.045-0.109-0.051-0.167c0.212-0.015,0.421-0.023,0.623-0.023c0.211,0,0.438,0.005,0.676,0.017
		c0.353,0.017,0.547,0.029,0.58,0.029l1.272-0.029l0.25,0.007l-0.009,0.208c-0.661,0.064-1.058,0.135-1.186,0.215
		c-0.13,0.083-0.194,0.237-0.194,0.459c0,0.119,0.013,0.382,0.033,0.782c0.058,1.156,0.05,2.738-0.189,3.857
		c-0.087,0.383-0.211,0.682-0.37,0.905c-0.159,0.227-0.39,0.425-0.686,0.606c-0.304,0.178-0.708,0.326-1.206,0.442
		C41.752,29.939,41.261,30,40.773,30c-0.767,0-1.32-0.042-1.654-0.118c-0.624-0.134-1.109-0.31-1.477-0.524
		c-0.363-0.213-0.613-0.432-0.758-0.646c-0.182-0.283-0.279-0.702-0.279-1.249v-0.399l-0.026-1.612l0.026-1.31v-0.873
		c0-0.228-0.045-0.383-0.132-0.469c-0.058-0.064-0.143-0.094-0.254-0.094l-0.476,0.005c-0.357,0-0.582-0.027-0.68-0.083
		c-0.012-0.035-0.022-0.066-0.022-0.091c0-0.035,0.017-0.062,0.048-0.083c0.06-0.028,0.134-0.045,0.217-0.045h0.211l0.543-0.006
		h1.27L39.441,22.388L39.441,22.388z"/>
	<path fill="#00498F" d="M121.003,29.956c0.669-0.013,1.58-0.035,2.439-0.035c0.838,0,1.64,0.022,2.437,0.035v-0.33h-0.337
		c-0.882,0-1.262-0.188-1.262-0.907v-5.373c0-0.717,0.38-0.906,1.262-0.906h0.337v-0.331c-0.797,0.015-1.599,0.037-2.437,0.037
		c-0.859,0-1.771-0.022-2.439-0.037v0.331h0.345c0.876,0,1.258,0.189,1.258,0.906v5.373c0,0.719-0.382,0.907-1.258,0.907h-0.345
		V29.956z"/>
	<path fill-rule="evenodd" clip-rule="evenodd" fill="#00498F" d="M93.919,29.904c0.661-0.01,1.569-0.035,2.418-0.035
		c0.833,0,1.63,0.025,2.46,0.035v-0.332h-0.55c-0.756,0-1.077-0.118-1.077-1.161v-2.064c1.462,0.021,1.705,0.039,2.141,0.445
		l2.21,2.088c1.004,0.959,1.776,1.076,3.442,1.076c0.357,0,0.702-0.008,1.06-0.008v-0.229c-1.534-0.054-1.834-0.122-2.874-1.107
		l-2.534-2.428c0.945-0.178,2.683-0.616,2.683-2.047c0-0.506-0.602-2.028-3.948-2.028c-0.833,0-1.741,0.037-3.012,0.037
		c-0.849,0-1.757-0.022-2.418-0.037v0.335h0.339c0.875,0,1.249,0.184,1.249,0.896v5.332c0,0.717-0.374,0.9-1.249,0.9h-0.339V29.904z
		 M97.17,22.569c0.38-0.021,0.739-0.041,1.189-0.041c2.631,0,3.2,1.334,3.2,1.813c0,1.143-1.399,1.591-3.1,1.591
		c-0.493,0-0.969-0.015-1.29-0.079V22.569z"/>
	<path fill="#00498F" d="M70.517,22.108c-0.784,0.011-1.586,0.033-2.368,0.033c-0.828,0-1.638-0.022-2.396-0.033v0.326h0.334
		c0.692,0,1.198,0.139,1.198,0.833v3.407c0,1.132,0.504,2.021,1.776,2.569c1.175,0.508,2.261,0.712,3.626,0.712
		c1.555,0,3.162-0.393,3.946-0.89c0.993-0.637,1.464-1.526,1.464-2.683v-2.768c0-1.03,0.463-1.182,1.137-1.182h0.282v-0.326
		c-0.675,0.011-1.33,0.033-2.003,0.033c-0.691,0-1.441-0.022-1.96-0.033v0.326h0.389c0.469,0,0.677,0.042,0.88,0.289
		c0.152,0.207,0.373,1.365,0.373,2.819v1.145c0,0.768-0.297,1.441-0.896,1.924c-0.43,0.361-1.836,0.934-3.499,0.934
		c-1.53,0-2.523-0.382-3.104-0.867c-0.504-0.409-0.767-0.83-0.767-1.749c0-1.142,0.056-2.288,0.072-3.422
		c0.021-0.911,0.45-1.049,1.163-1.072h0.351V22.108z"/>
	<path fill-rule="evenodd" clip-rule="evenodd" fill="#00498F" d="M114.863,26.458h-3.763l1.708-2.903L114.863,26.458z
		 M106.669,29.956c0.438-0.021,1.119-0.035,1.813-0.035c0.863,0,1.612,0.015,2.255,0.035v-0.32h-0.407
		c-0.565,0-0.749-0.145-0.749-0.336c0-0.233,0.184-0.55,0.312-0.765l0.973-1.675h4.272l1.337,1.908
		c0.074,0.1,0.256,0.382,0.256,0.531c0,0.223-0.35,0.336-0.938,0.336h-0.457v0.32c0.68-0.021,1.558-0.035,2.528-0.035
		c0.954,0,1.797,0.015,2.492,0.035v-0.32h-0.386c-0.841,0-1.404-0.411-1.851-1.024l-4.706-6.496h-0.352l-4.194,6.377
		c-0.569,0.882-0.973,1.144-1.979,1.144h-0.221V29.956z"/>
	<path fill="#00498F" d="M126.729,29.859c0.578-0.009,1.353-0.033,2.067-0.033c0.698,0,1.447,0.024,2.069,0.033v-0.326h-0.374
		c-0.886,0-1.188-0.25-1.223-1.143c-0.078-1.685-0.113-3.362-0.113-5.049h0.035l9.33,6.614h0.563l0.341-6.34
		c0.056-1.058,0.602-1.179,1.186-1.179h0.3v-0.329c-0.678,0.015-1.355,0.037-2.028,0.037c-0.7,0-1.452-0.022-2.036-0.037v0.329
		h0.225c1.019,0,1.302,0.26,1.337,1.514l0.113,4.46h-0.037l-8.857-6.303c-0.471,0.015-0.96,0.037-1.487,0.037
		c-0.584,0-1.147-0.022-1.656-0.037v0.329h0.522c0.944,0,1.355,0.163,1.355,0.947c0,1.26-0.035,3.331-0.107,4.769
		c-0.058,1.138-0.229,1.38-1.221,1.38h-0.304V29.859z"/>
	<path fill="#00498F" d="M80.163,29.956c0.665-0.013,1.582-0.035,2.439-0.035c0.836,0,1.638,0.022,2.474,0.035v-0.33h-0.552
		c-0.766,0-1.086-0.12-1.086-1.169v-1.686l0.991-0.606l3.899,2.594c1.09,0.714,1.147,0.875,1.243,1.197
		c0.608-0.013,1.236-0.035,1.848-0.035c0.609,0,1.235,0.022,1.845,0.035v-0.33h-0.285c-0.783,0-1.334-0.109-2.399-0.837
		l-4.913-3.326l3.676-2.239c1.121-0.682,1.447-0.78,2.379-0.78h0.345v-0.328c-0.762,0.008-1.503,0.03-2.268,0.03
		c-0.745,0-1.54-0.022-2.247-0.03v0.328h0.339c0.368,0,0.628,0.085,0.628,0.283c0,0.221-0.721,0.662-0.913,0.784l-4.167,2.687
		v-2.585c0-1.049,0.32-1.169,1.086-1.169h0.552v-0.328c-0.836,0.008-1.638,0.03-2.474,0.03c-0.857,0-1.774-0.022-2.439-0.03v0.328
		h0.343c0.872,0,1.256,0.186,1.256,0.902v5.376c0,0.716-0.384,0.904-1.256,0.904h-0.343V29.956z"/>
</g>
</svg>
