<?xml version="1.0" encoding="utf-8"?>
<!-- Generator: Adobe Illustrator 16.0.3, SVG Export Plug-In . SVG Version: 6.00 Build 0)  -->
<!DOCTYPE svg PUBLIC "-//W3C//DTD SVG 1.1//EN" "http://www.w3.org/Graphics/SVG/1.1/DTD/svg11.dtd">
<svg version="1.1" id="Layer_1" xmlns="http://www.w3.org/2000/svg" xmlns:xlink="http://www.w3.org/1999/xlink" x="0px" y="0px"
	 width="59px" height="30px" viewBox="0 0 59 30" enable-background="new 0 0 59 30" xml:space="preserve">
<g>
	<g>
		<path fill="#FFFFFF" d="M48.108,20.697c-0.284,0-0.535-0.064-0.746-0.194c-0.215-0.129-0.378-0.308-0.49-0.529
			c-0.107-0.215-0.163-0.457-0.163-0.716c0-0.305,0.068-0.569,0.202-0.787c0.135-0.219,0.313-0.386,0.524-0.492
			c0.211-0.106,0.433-0.159,0.664-0.159c0.283,0,0.537,0.074,0.755,0.22c0.052,0.036,0.083,0.098,0.083,0.159v0.687
			c0,0.078-0.049,0.151-0.124,0.179c-0.075,0.026-0.16,0.005-0.213-0.055c-0.125-0.147-0.261-0.217-0.414-0.217
			c-0.09,0-0.161,0.02-0.219,0.06c-0.064,0.044-0.11,0.101-0.14,0.171c-0.038,0.08-0.054,0.164-0.054,0.255
			c0,0.097,0.016,0.177,0.055,0.246c0.035,0.064,0.081,0.112,0.142,0.147c0.065,0.035,0.135,0.053,0.216,0.053
			c0.151,0,0.291-0.065,0.424-0.2c0.056-0.053,0.138-0.07,0.21-0.04c0.071,0.028,0.117,0.098,0.117,0.175v0.672
			c0,0.063-0.031,0.122-0.083,0.157C48.652,20.627,48.401,20.697,48.108,20.697z M48.1,18.202c-0.174,0-0.333,0.038-0.491,0.118
			c-0.151,0.075-0.272,0.189-0.37,0.352c-0.097,0.155-0.146,0.354-0.146,0.586c0,0.2,0.041,0.383,0.122,0.545
			c0.079,0.159,0.193,0.281,0.344,0.374c0.151,0.092,0.338,0.138,0.55,0.138c0.172,0,0.323-0.031,0.448-0.093v-0.193
			c-0.252,0.112-0.546,0.104-0.772-0.024c-0.125-0.07-0.224-0.17-0.293-0.298c-0.066-0.125-0.101-0.269-0.101-0.429
			c0-0.145,0.03-0.283,0.087-0.409c0.059-0.136,0.149-0.246,0.271-0.329c0.219-0.154,0.542-0.173,0.808-0.046v-0.187
			C48.422,18.235,48.272,18.202,48.1,18.202z M40.016,20.697c-0.288,0-0.548-0.063-0.767-0.188
			c-0.223-0.125-0.397-0.299-0.518-0.521c-0.116-0.219-0.175-0.464-0.175-0.73s0.059-0.514,0.175-0.73
			c0.12-0.221,0.295-0.397,0.519-0.522c0.22-0.124,0.479-0.186,0.766-0.186s0.545,0.062,0.766,0.186
			c0.224,0.125,0.397,0.302,0.517,0.522c0.118,0.217,0.176,0.464,0.176,0.73c0,0.203-0.032,0.392-0.101,0.567
			c-0.066,0.175-0.164,0.332-0.294,0.462c-0.127,0.132-0.284,0.233-0.468,0.305C40.43,20.66,40.23,20.697,40.016,20.697z
			 M40.016,18.202c-0.226,0-0.413,0.043-0.579,0.136c-0.161,0.092-0.283,0.213-0.366,0.371c-0.088,0.16-0.132,0.345-0.132,0.549
			c0,0.206,0.042,0.386,0.132,0.549c0.083,0.157,0.205,0.28,0.365,0.37c0.163,0.092,0.357,0.138,0.58,0.138
			c0.168,0,0.322-0.027,0.457-0.078c0.133-0.053,0.244-0.124,0.333-0.217c0.092-0.093,0.162-0.204,0.211-0.331
			c0.05-0.13,0.075-0.275,0.075-0.431c0-0.204-0.045-0.39-0.131-0.549c-0.084-0.158-0.205-0.279-0.367-0.371
			C40.429,18.245,40.238,18.202,40.016,18.202z M34.866,20.697c-0.289,0-0.548-0.063-0.768-0.188
			c-0.222-0.125-0.396-0.299-0.517-0.521c-0.116-0.217-0.175-0.464-0.175-0.73s0.059-0.515,0.175-0.73
			c0.12-0.221,0.295-0.397,0.519-0.522c0.22-0.124,0.477-0.186,0.766-0.186c0.287,0,0.545,0.062,0.766,0.186
			c0.224,0.125,0.396,0.302,0.516,0.522c0.118,0.217,0.177,0.464,0.177,0.73c0,0.203-0.034,0.392-0.099,0.567
			c-0.068,0.175-0.168,0.332-0.296,0.462c-0.127,0.132-0.284,0.233-0.469,0.305C35.281,20.66,35.082,20.697,34.866,20.697z
			 M34.866,18.202c-0.223,0-0.417,0.045-0.579,0.136c-0.161,0.092-0.282,0.213-0.366,0.371c-0.088,0.159-0.132,0.345-0.132,0.549
			c0,0.206,0.043,0.386,0.132,0.549c0.084,0.157,0.205,0.28,0.365,0.37c0.163,0.092,0.357,0.138,0.58,0.138
			c0.167,0,0.32-0.027,0.457-0.078c0.131-0.053,0.246-0.124,0.333-0.217c0.092-0.093,0.163-0.203,0.212-0.331
			c0.048-0.13,0.074-0.275,0.074-0.431c0-0.204-0.045-0.39-0.131-0.549c-0.086-0.158-0.205-0.279-0.366-0.371
			C35.279,18.245,35.091,18.202,34.866,18.202z M13.542,20.697c-0.288,0-0.547-0.063-0.767-0.188
			c-0.223-0.125-0.396-0.299-0.517-0.521c-0.117-0.217-0.176-0.464-0.176-0.73s0.059-0.515,0.176-0.73
			c0.12-0.221,0.294-0.397,0.517-0.522c0.221-0.124,0.479-0.186,0.767-0.186c0.287,0,0.545,0.062,0.766,0.186
			c0.225,0.125,0.398,0.302,0.517,0.522C14.942,18.744,15,18.991,15,19.258c0,0.201-0.033,0.392-0.099,0.566
			c-0.067,0.176-0.167,0.333-0.293,0.463c-0.13,0.132-0.288,0.233-0.471,0.305C13.959,20.66,13.758,20.697,13.542,20.697z
			 M13.542,18.202c-0.226,0-0.414,0.043-0.579,0.136c-0.161,0.092-0.282,0.213-0.367,0.371c-0.087,0.159-0.129,0.345-0.129,0.549
			c0,0.206,0.041,0.386,0.129,0.549c0.085,0.157,0.206,0.28,0.367,0.37c0.161,0.092,0.357,0.138,0.579,0.138
			c0.168,0,0.321-0.027,0.458-0.078c0.131-0.053,0.242-0.124,0.333-0.217c0.09-0.093,0.162-0.204,0.21-0.332
			c0.049-0.129,0.074-0.274,0.074-0.43c0-0.204-0.041-0.39-0.129-0.549c-0.085-0.158-0.206-0.279-0.367-0.371
			C13.957,18.245,13.767,18.202,13.542,18.202z M57.602,20.629h-0.709c-0.065,0-0.128-0.032-0.161-0.089
			c-0.035-0.057-0.039-0.128-0.011-0.186l0.278-0.564l-0.842-1.625c-0.031-0.059-0.03-0.129,0.005-0.187s0.098-0.091,0.164-0.091
			h0.778c0.074,0,0.144,0.041,0.174,0.108l0.271,0.581l0.217-0.568c0.029-0.072,0.101-0.121,0.18-0.121h0.719
			c0.064,0,0.125,0.032,0.16,0.086c0.035,0.056,0.04,0.124,0.013,0.182l-1.062,2.361C57.743,20.587,57.676,20.629,57.602,20.629z
			 M57.199,20.247h0.278l0.891-1.979h-0.293l-0.329,0.868c-0.028,0.074-0.096,0.122-0.173,0.124s-0.148-0.04-0.181-0.11l-0.41-0.882
			h-0.342l0.742,1.433c0.028,0.051,0.028,0.116,0.001,0.171L57.199,20.247z M55.996,20.629c-0.004,0-0.004,0-0.007,0h-0.777
			c-0.07,0-0.133-0.036-0.168-0.096l-0.284-0.498l-0.302,0.503c-0.034,0.056-0.098,0.091-0.164,0.091h-0.756
			c-0.07,0-0.137-0.039-0.17-0.103c-0.033-0.063-0.026-0.139,0.013-0.198l0.787-1.131l-0.701-1.011
			c-0.041-0.058-0.046-0.135-0.014-0.196c0.035-0.064,0.098-0.103,0.169-0.103h0.793c0.07,0,0.134,0.036,0.168,0.098l0.183,0.334
			l0.183-0.334c0.034-0.062,0.099-0.098,0.167-0.098h0.75c0.07,0,0.137,0.037,0.17,0.101c0.032,0.063,0.028,0.139-0.012,0.197
			l-0.665,0.979l0.769,1.137c0.037,0.035,0.06,0.083,0.06,0.138C56.187,20.544,56.102,20.629,55.996,20.629z M55.32,20.247h0.31
			l-0.661-0.976c-0.043-0.064-0.043-0.15,0-0.216l0.536-0.788h-0.275l-0.297,0.54c-0.066,0.122-0.267,0.122-0.335,0l-0.295-0.54
			H53.99l0.567,0.819c0.048,0.066,0.048,0.154,0,0.22l-0.653,0.94h0.281l0.416-0.687c0.035-0.057,0.098-0.091,0.164-0.091h0.003
			c0.067,0,0.13,0.036,0.163,0.095L55.32,20.247z M52.988,20.629h-0.66c-0.106,0-0.192-0.085-0.192-0.19v-2.359
			c0-0.107,0.086-0.191,0.192-0.191h0.66c0.105,0,0.191,0.084,0.191,0.191v2.359C53.18,20.544,53.094,20.629,52.988,20.629z
			 M52.519,20.247h0.278v-1.979h-0.278V20.247z M51.543,20.629h-0.661c-0.108,0-0.191-0.085-0.191-0.19v-1.603h-0.4v1.603
			c0,0.105-0.087,0.19-0.191,0.19h-0.661c-0.105,0-0.191-0.085-0.191-0.19v-2.359c0-0.107,0.086-0.191,0.191-0.191h2.105
			c0.105,0,0.189,0.084,0.189,0.191v2.359C51.732,20.544,51.648,20.629,51.543,20.629z M51.07,20.247h0.281v-1.979h-1.723v1.979
			h0.278v-1.604c0-0.104,0.086-0.191,0.191-0.191h0.783c0.104,0,0.188,0.087,0.188,0.191V20.247z M45.395,20.629h-0.709
			c-0.065,0-0.127-0.032-0.161-0.089c-0.035-0.057-0.04-0.128-0.01-0.186l0.277-0.564l-0.842-1.625
			c-0.031-0.059-0.029-0.129,0.006-0.187s0.097-0.091,0.163-0.091h0.777c0.075,0,0.145,0.041,0.176,0.108l0.27,0.581l0.218-0.568
			c0.027-0.072,0.099-0.121,0.178-0.121h0.719c0.065,0,0.125,0.032,0.16,0.086c0.035,0.056,0.042,0.124,0.013,0.182l-1.061,2.361
			C45.537,20.587,45.469,20.629,45.395,20.629z M44.993,20.247h0.275l0.892-1.979h-0.291l-0.33,0.868
			c-0.028,0.074-0.096,0.122-0.173,0.124c-0.079,0.002-0.147-0.04-0.18-0.11l-0.41-0.882h-0.342l0.741,1.433
			c0.028,0.051,0.028,0.116,0.002,0.171L44.993,20.247z M37.477,20.629h-0.661c-0.105,0-0.191-0.085-0.191-0.19v-2.359
			c0-0.107,0.086-0.191,0.191-0.191h1.415c0.106,0,0.191,0.084,0.191,0.191v0.564c0,0.105-0.085,0.192-0.191,0.192h-0.563v1.603
			C37.668,20.544,37.58,20.629,37.477,20.629z M37.007,20.247h0.276v-1.604c0-0.104,0.088-0.191,0.193-0.191h0.563v-0.185h-1.032
			V20.247z M32.917,20.629h-3.116c-0.105,0-0.193-0.085-0.193-0.19v-2.359c0-0.107,0.088-0.191,0.193-0.191h0.66
			c0.105,0,0.191,0.084,0.191,0.191v1.602h0.185v-1.602c0-0.107,0.086-0.191,0.191-0.191h0.66c0.106,0,0.191,0.084,0.191,0.191
			v1.602h0.185v-1.602c0-0.107,0.085-0.191,0.191-0.191h0.661c0.105,0,0.189,0.084,0.189,0.191v2.359
			C33.106,20.544,33.022,20.629,32.917,20.629z M29.992,20.247h2.734v-1.979h-0.278v1.604c0,0.106-0.086,0.192-0.191,0.192h-0.567
			c-0.104,0-0.19-0.086-0.19-0.192v-1.604H31.22v1.604c0,0.106-0.086,0.192-0.191,0.192h-0.567c-0.105,0-0.191-0.086-0.191-0.192
			v-1.604h-0.278V20.247z M29.251,20.629h-0.708c-0.084,0-0.157-0.054-0.183-0.133l-0.087-0.272H27.75l-0.087,0.274
			c-0.026,0.078-0.1,0.131-0.184,0.131h-0.707c-0.062,0-0.121-0.028-0.155-0.081c-0.038-0.05-0.046-0.115-0.024-0.174l0.838-2.36
			c0.029-0.076,0.101-0.126,0.181-0.126h0.803c0.081,0,0.154,0.05,0.181,0.126l0.837,2.361c0.021,0.058,0.012,0.124-0.024,0.173
			C29.372,20.601,29.313,20.629,29.251,20.629z M28.683,20.247h0.297l-0.699-1.979h-0.534l-0.702,1.979h0.297l0.089-0.274
			c0.025-0.079,0.099-0.134,0.182-0.134h0.803c0.084,0,0.158,0.055,0.183,0.135L28.683,20.247z M25.569,20.629h-1.207
			c-0.107,0-0.19-0.085-0.19-0.19v-2.359c0-0.107,0.083-0.191,0.19-0.191h1.142c0.243,0,0.431,0.046,0.57,0.142
			c0.138,0.098,0.229,0.21,0.272,0.338c0.035,0.107,0.055,0.213,0.055,0.311c0,0.155-0.049,0.297-0.142,0.42
			c-0.013,0.015-0.025,0.032-0.039,0.047c0.034,0.025,0.068,0.053,0.102,0.086c0.139,0.131,0.21,0.316,0.21,0.551
			c0,0.159-0.038,0.306-0.115,0.435c-0.078,0.133-0.195,0.235-0.344,0.31C25.928,20.594,25.759,20.629,25.569,20.629z
			 M24.551,20.247h1.018c0.132,0,0.244-0.022,0.336-0.066c0.082-0.04,0.144-0.093,0.183-0.161c0.043-0.07,0.063-0.148,0.063-0.238
			c0-0.127-0.031-0.217-0.093-0.274c-0.077-0.075-0.162-0.121-0.26-0.144c-0.087-0.021-0.146-0.097-0.146-0.186
			c0-0.035,0.01-0.071,0.026-0.103c-0.072,0.069-0.189,0.125-0.379,0.125h-0.276c-0.106,0-0.192-0.087-0.192-0.191V18.55
			c0-0.105,0.086-0.191,0.192-0.191h0.276c0.16,0,0.284,0.042,0.367,0.124s0.127,0.187,0.127,0.305c0,0.046-0.008,0.146-0.07,0.233
			c0.018-0.014,0.035-0.023,0.056-0.029c0.073-0.026,0.132-0.068,0.176-0.126c0.041-0.055,0.063-0.117,0.063-0.188
			c0-0.058-0.011-0.123-0.033-0.19c-0.017-0.048-0.061-0.097-0.13-0.145c-0.047-0.032-0.148-0.075-0.351-0.075h-0.952V20.247z
			 M25.213,18.816h0.086c0.088,0,0.113-0.018,0.113-0.018c-0.002-0.028-0.004-0.033-0.017-0.045c0.004,0-0.019-0.013-0.097-0.013
			h-0.086V18.816z M21.208,20.629h-0.661c-0.106,0-0.191-0.085-0.191-0.19v-0.213l-0.187,0.311
			c-0.034,0.058-0.099,0.093-0.165,0.093h-0.708c-0.072,0-0.137-0.039-0.17-0.104s-0.027-0.141,0.014-0.198l0.489-0.682
			c-0.079-0.044-0.152-0.104-0.217-0.175c-0.066-0.074-0.118-0.165-0.158-0.27c-0.036-0.102-0.057-0.216-0.057-0.338
			c0-0.299,0.097-0.54,0.283-0.716c0.184-0.174,0.44-0.26,0.76-0.26h0.968c0.105,0,0.191,0.084,0.191,0.191v2.359
			C21.4,20.544,21.314,20.629,21.208,20.629z M20.739,20.247h0.278v-1.979h-0.776c-0.224,0-0.385,0.053-0.498,0.158
			c-0.107,0.103-0.161,0.246-0.161,0.438c0,0.079,0.011,0.146,0.032,0.205c0.022,0.062,0.051,0.109,0.084,0.147
			c0.036,0.042,0.076,0.074,0.119,0.096c0.047,0.025,0.096,0.041,0.149,0.052c0.063,0.011,0.119,0.055,0.144,0.115
			c0.026,0.061,0.018,0.131-0.022,0.185l-0.418,0.584h0.228l0.426-0.709c0.034-0.058,0.098-0.094,0.163-0.094h0.062
			c0.105,0,0.191,0.085,0.191,0.191V20.247z M18.674,20.629h-0.661c-0.105,0-0.189-0.085-0.189-0.19v-2.359
			c0-0.107,0.084-0.191,0.189-0.191h0.661c0.106,0,0.192,0.084,0.192,0.191v2.359C18.867,20.544,18.781,20.629,18.674,20.629z
			 M18.207,20.247h0.279v-1.979h-0.279V20.247z M16.153,20.629h-0.661c-0.106,0-0.191-0.085-0.191-0.19v-2.359
			c0-0.107,0.085-0.191,0.191-0.191h0.993c0.229,0,0.426,0.046,0.585,0.138c0.16,0.094,0.281,0.218,0.357,0.373
			c0.075,0.146,0.111,0.303,0.111,0.469c0,0.165-0.036,0.324-0.111,0.472c-0.076,0.155-0.197,0.28-0.358,0.375
			c-0.16,0.09-0.355,0.138-0.584,0.138h-0.142v0.587C16.343,20.544,16.258,20.629,16.153,20.629z M15.682,20.247h0.278v-0.589
			c0-0.104,0.086-0.188,0.192-0.188h0.332c0.16,0,0.292-0.03,0.391-0.088c0.099-0.057,0.166-0.127,0.21-0.215
			c0.047-0.094,0.069-0.192,0.069-0.3c0-0.108-0.022-0.204-0.069-0.3c-0.043-0.086-0.111-0.155-0.208-0.212
			c-0.1-0.058-0.232-0.088-0.393-0.088h-0.803V20.247z M11.262,20.629h-0.66c-0.106,0-0.193-0.085-0.193-0.19v-1.603h-0.327
			c-0.104,0-0.191-0.087-0.191-0.192v-0.564c0-0.107,0.087-0.191,0.191-0.191h1.7c0.106,0,0.191,0.084,0.191,0.191v0.564
			c0,0.105-0.085,0.192-0.191,0.192h-0.327v1.603C11.455,20.544,11.367,20.629,11.262,20.629z M10.793,20.247h0.276v-1.604
			c0-0.104,0.088-0.191,0.192-0.191h0.329v-0.185h-1.317v0.185h0.328c0.104,0,0.191,0.087,0.191,0.191V20.247z M9.485,20.629H8.848
			c-0.106,0-0.191-0.085-0.191-0.19V19.68l-0.548,0.861c-0.035,0.057-0.095,0.088-0.16,0.088H7.288c-0.106,0-0.191-0.085-0.191-0.19
			v-2.359c0-0.107,0.085-0.191,0.191-0.191h0.638c0.104,0,0.191,0.084,0.191,0.191v0.767l0.562-0.872
			c0.035-0.054,0.094-0.086,0.16-0.086h0.646c0.104,0,0.192,0.084,0.192,0.191v2.359C9.677,20.544,9.589,20.629,9.485,20.629z
			 M9.038,20.247h0.255v-1.979H8.942l-0.856,1.329c-0.047,0.073-0.134,0.105-0.216,0.08c-0.08-0.022-0.138-0.098-0.138-0.183v-1.227
			H7.477v1.979h0.365l0.845-1.328c0.046-0.071,0.133-0.104,0.213-0.081c0.084,0.023,0.138,0.099,0.138,0.185V20.247z M5.423,20.629
			h-0.66c-0.104,0-0.192-0.085-0.192-0.19v-2.359c0-0.107,0.088-0.191,0.192-0.191h0.996c0.228,0,0.424,0.046,0.583,0.138
			c0.16,0.094,0.28,0.218,0.357,0.373c0.073,0.144,0.11,0.303,0.11,0.469c0,0.165-0.037,0.324-0.11,0.472
			c-0.077,0.155-0.197,0.28-0.36,0.375c-0.158,0.09-0.354,0.138-0.58,0.138H5.617v0.587C5.617,20.544,5.53,20.629,5.423,20.629z
			 M4.956,20.247h0.276v-0.589c0-0.104,0.088-0.188,0.191-0.188h0.336c0.159,0,0.289-0.03,0.39-0.088
			c0.098-0.057,0.164-0.127,0.208-0.215c0.046-0.092,0.07-0.192,0.07-0.3c0-0.108-0.022-0.204-0.07-0.3
			c-0.044-0.086-0.11-0.155-0.208-0.212c-0.101-0.058-0.23-0.088-0.39-0.088H4.956V20.247z M4.049,20.629H2.633
			c-0.106,0-0.192-0.085-0.192-0.19v-2.359c0-0.107,0.086-0.191,0.192-0.191h1.416c0.105,0,0.189,0.084,0.189,0.191v0.564
			c0,0.089-0.058,0.162-0.138,0.185c0.041,0.035,0.067,0.089,0.067,0.146v0.52c0,0.091-0.062,0.168-0.147,0.187h0.028
			c0.105,0,0.189,0.086,0.189,0.19v0.567C4.239,20.544,4.155,20.629,4.049,20.629z M2.824,20.247h1.034v-0.184H3.294
			c-0.106,0-0.19-0.086-0.19-0.192v-0.377c0-0.105,0.084-0.191,0.19-0.191h0.493v-0.137H3.294c-0.106,0-0.19-0.086-0.19-0.191
			v-0.331c0-0.104,0.084-0.191,0.19-0.191h0.563v-0.185H2.824V20.247z M1.516,20.629h-0.66c-0.105,0-0.19-0.085-0.19-0.19v-1.603
			H0.337c-0.105,0-0.192-0.087-0.192-0.192v-0.564c0-0.107,0.087-0.191,0.192-0.191h1.699c0.105,0,0.19,0.084,0.19,0.191v0.564
			c0,0.105-0.085,0.192-0.19,0.192H1.708v1.603C1.708,20.544,1.623,20.629,1.516,20.629z M1.046,20.247h0.277v-1.604
			c0-0.104,0.087-0.191,0.192-0.191h0.329v-0.185H0.528v0.185h0.328c0.104,0,0.19,0.087,0.19,0.191V20.247z M25.326,20.158h-0.303
			c-0.106,0-0.192-0.088-0.192-0.191v-0.485c0-0.107,0.086-0.191,0.192-0.191h0.303c0.129,0,0.235,0.019,0.328,0.059
			c0.082,0.035,0.217,0.13,0.217,0.367C25.871,19.818,25.832,20.158,25.326,20.158z M25.213,19.773h0.112
			c0.164,0,0.164-0.037,0.164-0.058c0-0.023-0.005-0.032-0.005-0.032c-0.026-0.003-0.085-0.013-0.159-0.013h-0.112V19.773z
			 M40.016,20.131c-0.131,0-0.256-0.031-0.371-0.096c-0.122-0.063-0.223-0.165-0.298-0.299c-0.072-0.131-0.11-0.292-0.11-0.479
			c0-0.186,0.038-0.346,0.11-0.478c0.075-0.134,0.176-0.234,0.297-0.299c0.236-0.127,0.507-0.127,0.741-0.002
			c0.124,0.066,0.224,0.167,0.3,0.301c0.072,0.132,0.108,0.292,0.108,0.478c0,0.187-0.036,0.346-0.108,0.479
			c-0.076,0.135-0.178,0.236-0.301,0.301C40.269,20.1,40.144,20.131,40.016,20.131z M40.016,18.768
			c-0.066,0-0.131,0.018-0.191,0.049c-0.058,0.033-0.105,0.08-0.146,0.151c-0.039,0.072-0.061,0.171-0.061,0.29
			c0,0.12,0.021,0.218,0.062,0.292c0.04,0.069,0.087,0.118,0.145,0.15c0.124,0.064,0.258,0.064,0.382,0
			c0.058-0.032,0.104-0.081,0.143-0.15c0.041-0.074,0.063-0.172,0.063-0.292c0-0.119-0.021-0.218-0.062-0.29
			c-0.038-0.071-0.085-0.118-0.144-0.151C40.144,18.785,40.081,18.768,40.016,18.768z M34.866,20.131
			c-0.129,0-0.254-0.031-0.372-0.096c-0.12-0.063-0.222-0.164-0.297-0.299c-0.072-0.131-0.109-0.292-0.109-0.479
			c0-0.186,0.035-0.346,0.108-0.478c0.076-0.134,0.175-0.234,0.298-0.299c0.236-0.127,0.506-0.127,0.741-0.002
			c0.123,0.066,0.224,0.167,0.299,0.301c0.072,0.132,0.109,0.292,0.109,0.478c0,0.187-0.037,0.348-0.111,0.479
			c-0.073,0.135-0.175,0.236-0.298,0.301C35.119,20.1,34.994,20.131,34.866,20.131z M34.866,18.768
			c-0.066,0-0.129,0.018-0.191,0.049c-0.058,0.033-0.104,0.08-0.146,0.151c-0.039,0.072-0.061,0.171-0.061,0.29
			c0,0.12,0.021,0.218,0.062,0.292c0.042,0.069,0.087,0.118,0.145,0.15c0.124,0.064,0.258,0.064,0.379,0
			c0.06-0.032,0.106-0.081,0.146-0.15c0.041-0.074,0.062-0.172,0.062-0.292c0-0.119-0.021-0.218-0.061-0.29
			c-0.038-0.071-0.087-0.118-0.146-0.151C34.994,18.785,34.93,18.768,34.866,18.768z M13.542,20.131
			c-0.129,0-0.254-0.031-0.372-0.096c-0.12-0.063-0.222-0.164-0.298-0.299c-0.071-0.131-0.11-0.292-0.11-0.479
			c0-0.186,0.039-0.346,0.11-0.478c0.075-0.134,0.177-0.234,0.297-0.299c0.238-0.127,0.508-0.126,0.743-0.002
			c0.122,0.066,0.224,0.167,0.299,0.301c0.071,0.132,0.109,0.292,0.109,0.478c0,0.187-0.038,0.348-0.11,0.479
			c-0.076,0.135-0.177,0.236-0.3,0.301C13.795,20.1,13.67,20.131,13.542,20.131z M13.542,18.768c-0.066,0-0.127,0.018-0.192,0.049
			c-0.057,0.033-0.103,0.08-0.142,0.151c-0.041,0.072-0.062,0.171-0.062,0.29c0,0.12,0.021,0.218,0.062,0.292
			c0.039,0.069,0.086,0.118,0.143,0.15c0.125,0.064,0.258,0.064,0.381,0c0.058-0.032,0.105-0.081,0.145-0.15
			c0.041-0.074,0.061-0.172,0.061-0.292c0-0.119-0.02-0.218-0.061-0.29c-0.039-0.071-0.086-0.118-0.144-0.151
			C13.669,18.785,13.609,18.768,13.542,18.768z M28.283,19.703h-0.538c-0.062,0-0.119-0.028-0.155-0.077
			c-0.035-0.049-0.047-0.111-0.03-0.171l0.271-0.891c0.024-0.081,0.1-0.135,0.184-0.135l0,0c0.085,0,0.159,0.054,0.183,0.135
			l0.27,0.891c0.019,0.06,0.007,0.122-0.029,0.171S28.343,19.703,28.283,19.703z M20.547,19.355h-0.182
			c-0.123,0-0.233-0.026-0.328-0.078c-0.092-0.05-0.2-0.159-0.2-0.396c0-0.297,0.197-0.475,0.528-0.475h0.182
			c0.105,0,0.191,0.085,0.191,0.191v0.566C20.739,19.269,20.653,19.355,20.547,19.355z M20.356,18.788
			c-0.137,0.002-0.137,0.037-0.137,0.093c0,0.053,0.01,0.068,0.01,0.068c0.026,0.013,0.071,0.022,0.127,0.022V18.788z M16.341,19.33
			h-0.188c-0.106,0-0.192-0.085-0.192-0.19v-0.542c0-0.106,0.086-0.191,0.192-0.191h0.188c0.323,0,0.516,0.171,0.516,0.461
			S16.665,19.33,16.341,19.33z M16.343,18.788v0.16c0.131,0,0.131-0.029,0.131-0.081C16.474,18.818,16.474,18.789,16.343,18.788z
			 M5.614,19.33h-0.19c-0.104,0-0.191-0.085-0.191-0.19v-0.542c0-0.106,0.088-0.191,0.191-0.191h0.19
			c0.322,0,0.515,0.171,0.515,0.461S5.936,19.33,5.614,19.33z M5.617,18.788v0.16c0.13,0,0.13-0.029,0.13-0.081
			C5.747,18.818,5.747,18.789,5.617,18.788z"/>
	</g>
	<path fill="#3578BC" d="M0.856,20.438v-1.795H0.337v-0.564h1.699v0.564H1.516v1.795H0.856L0.856,20.438z M2.633,20.438v-2.359
		h1.416v0.564H3.294v0.331h0.684v0.52H3.294v0.377h0.755v0.567H2.633L2.633,20.438z M4.763,20.438v-2.359h0.996
		c0.194,0,0.357,0.037,0.484,0.111c0.131,0.075,0.225,0.172,0.285,0.292c0.061,0.121,0.09,0.249,0.09,0.385
		c0,0.138-0.029,0.266-0.09,0.387c-0.061,0.12-0.154,0.218-0.285,0.292c-0.129,0.076-0.29,0.112-0.484,0.112H5.423v0.78H4.763
		L4.763,20.438z M5.423,18.598v0.542h0.19c0.216,0,0.323-0.09,0.323-0.272c0-0.18-0.107-0.27-0.323-0.27H5.423L5.423,18.598z
		 M7.288,18.079h0.638v1.415l0.913-1.415h0.646v2.359H8.848v-1.416l-0.899,1.416H7.288V18.079L7.288,18.079z M10.602,20.438v-1.795
		h-0.521v-0.564h1.7v0.564h-0.52v1.795H10.602L10.602,20.438z M13.542,20.507c-0.257,0-0.48-0.056-0.672-0.164
		c-0.193-0.106-0.34-0.256-0.442-0.446s-0.153-0.402-0.153-0.639c0-0.238,0.051-0.45,0.153-0.641
		c0.103-0.188,0.249-0.337,0.442-0.445c0.192-0.108,0.415-0.16,0.672-0.16s0.479,0.052,0.673,0.16
		c0.193,0.108,0.34,0.257,0.441,0.445c0.103,0.19,0.152,0.402,0.152,0.641c0,0.18-0.027,0.346-0.088,0.498
		c-0.058,0.153-0.14,0.286-0.251,0.397c-0.109,0.112-0.242,0.199-0.401,0.259C13.911,20.475,13.736,20.507,13.542,20.507
		L13.542,20.507z M13.542,19.939c0.096,0,0.19-0.023,0.279-0.07c0.089-0.049,0.164-0.124,0.222-0.227
		c0.058-0.104,0.084-0.23,0.084-0.385c0-0.155-0.026-0.282-0.084-0.384c-0.058-0.104-0.131-0.177-0.22-0.226
		c-0.091-0.049-0.186-0.071-0.281-0.071c-0.099,0-0.191,0.022-0.281,0.071c-0.091,0.049-0.163,0.122-0.221,0.226
		c-0.057,0.102-0.086,0.229-0.086,0.384c0,0.154,0.029,0.281,0.086,0.385c0.058,0.103,0.133,0.178,0.222,0.227
		C13.351,19.916,13.444,19.939,13.542,19.939L13.542,19.939z M15.492,20.438v-2.359h0.993c0.198,0,0.358,0.037,0.487,0.111
		c0.128,0.075,0.225,0.172,0.283,0.292c0.062,0.121,0.092,0.249,0.092,0.385c0,0.138-0.03,0.266-0.092,0.387
		c-0.059,0.12-0.155,0.218-0.283,0.292c-0.129,0.076-0.292,0.112-0.487,0.112h-0.332v0.78H15.492L15.492,20.438z M16.153,18.598
		v0.542h0.188c0.217,0,0.324-0.09,0.324-0.272c0-0.18-0.107-0.27-0.324-0.27H16.153L16.153,18.598z M18.013,20.438v-2.359h0.661
		v2.359H18.013L18.013,20.438z M19.296,20.438l0.637-0.887c-0.075-0.013-0.144-0.036-0.206-0.07c-0.064-0.035-0.12-0.08-0.172-0.138
		c-0.052-0.056-0.09-0.128-0.12-0.209c-0.031-0.08-0.044-0.172-0.044-0.271c0-0.244,0.074-0.438,0.222-0.575
		c0.147-0.141,0.355-0.209,0.628-0.209h0.968v2.359h-0.661v-0.803h-0.062l-0.481,0.803H19.296L19.296,20.438z M20.547,19.164v-0.566
		h-0.182c-0.226,0-0.338,0.093-0.338,0.283c0,0.116,0.033,0.192,0.101,0.229c0.066,0.035,0.146,0.055,0.237,0.055H20.547
		L20.547,19.164z M24.362,18.079h1.142c0.203,0,0.356,0.035,0.46,0.107c0.104,0.071,0.172,0.151,0.2,0.24
		c0.029,0.089,0.045,0.172,0.045,0.251c0,0.112-0.033,0.214-0.101,0.303c-0.068,0.088-0.157,0.152-0.266,0.189v0.008
		c0.13,0.029,0.245,0.093,0.347,0.19c0.102,0.095,0.151,0.231,0.151,0.413c0,0.125-0.028,0.236-0.088,0.337
		c-0.06,0.099-0.147,0.178-0.266,0.234c-0.116,0.058-0.255,0.086-0.418,0.086h-1.207V18.079L24.362,18.079z M25.023,19.009h0.276
		c0.202,0,0.304-0.074,0.304-0.222c0-0.066-0.024-0.122-0.072-0.168c-0.045-0.047-0.121-0.069-0.231-0.069h-0.276V19.009
		L25.023,19.009z M25.023,19.967h0.303c0.237,0,0.354-0.083,0.354-0.251c0-0.098-0.034-0.161-0.101-0.191
		c-0.067-0.029-0.152-0.043-0.253-0.043h-0.303V19.967L25.023,19.967z M26.773,20.438l0.839-2.359h0.803l0.837,2.359h-0.708
		l-0.129-0.407h-0.803l-0.132,0.407H26.773L26.773,20.438z M28.014,18.62l-0.27,0.891h0.538L28.014,18.62L28.014,18.62z
		 M29.801,20.438v-2.359h0.66v1.792h0.567v-1.792h0.66v1.792h0.567v-1.792h0.661v2.359H29.801L29.801,20.438z M34.866,20.507
		c-0.257,0-0.481-0.056-0.673-0.164c-0.192-0.106-0.341-0.256-0.442-0.446c-0.103-0.19-0.155-0.402-0.155-0.639
		c0-0.238,0.053-0.45,0.155-0.641c0.102-0.188,0.25-0.337,0.442-0.445c0.191-0.108,0.416-0.16,0.673-0.16
		c0.254,0,0.479,0.052,0.673,0.16c0.191,0.108,0.339,0.257,0.442,0.445c0.101,0.19,0.151,0.402,0.151,0.641
		c0,0.18-0.03,0.346-0.088,0.498c-0.058,0.153-0.141,0.286-0.252,0.397c-0.108,0.112-0.243,0.199-0.399,0.259
		C35.234,20.475,35.059,20.507,34.866,20.507L34.866,20.507z M34.866,19.939c0.095,0,0.189-0.023,0.278-0.07
		c0.091-0.049,0.165-0.124,0.223-0.227c0.057-0.104,0.084-0.23,0.084-0.385c0-0.155-0.027-0.282-0.084-0.384
		c-0.058-0.104-0.132-0.177-0.222-0.226s-0.185-0.071-0.279-0.071c-0.099,0-0.191,0.022-0.282,0.071
		c-0.09,0.049-0.162,0.122-0.22,0.226c-0.057,0.102-0.087,0.229-0.087,0.384c0,0.154,0.03,0.281,0.088,0.385
		c0.057,0.103,0.129,0.178,0.219,0.227C34.675,19.916,34.768,19.939,34.866,19.939L34.866,19.939z M36.815,20.438v-2.359h1.415
		v0.564h-0.754v1.795H36.815L36.815,20.438z M40.016,20.507c-0.257,0-0.479-0.056-0.673-0.164c-0.192-0.106-0.339-0.256-0.442-0.446
		c-0.102-0.19-0.152-0.402-0.152-0.639c0-0.238,0.051-0.45,0.152-0.641c0.104-0.188,0.25-0.337,0.442-0.445
		c0.193-0.108,0.416-0.16,0.673-0.16c0.254,0,0.479,0.052,0.673,0.16c0.191,0.108,0.339,0.257,0.441,0.445
		c0.102,0.19,0.153,0.402,0.153,0.641c0,0.18-0.03,0.346-0.088,0.498c-0.059,0.153-0.142,0.286-0.252,0.397
		c-0.108,0.112-0.244,0.199-0.401,0.259C40.384,20.475,40.208,20.507,40.016,20.507L40.016,20.507z M40.016,19.939
		c0.097,0,0.19-0.023,0.279-0.07c0.09-0.049,0.164-0.124,0.222-0.227c0.058-0.104,0.085-0.23,0.085-0.385
		c0-0.155-0.027-0.282-0.085-0.384c-0.057-0.104-0.132-0.177-0.222-0.226c-0.089-0.049-0.183-0.071-0.279-0.071
		c-0.098,0-0.191,0.022-0.28,0.071c-0.091,0.049-0.164,0.122-0.222,0.226c-0.057,0.102-0.086,0.229-0.086,0.384
		c0,0.154,0.029,0.281,0.087,0.385c0.057,0.103,0.13,0.178,0.221,0.227C39.824,19.916,39.918,19.939,40.016,19.939L40.016,19.939z
		 M44.686,20.438l0.32-0.651l-0.887-1.708h0.777l0.463,0.989l0.378-0.989h0.719l-1.062,2.359H44.686L44.686,20.438z M48.746,20.33
		c-0.171,0.119-0.384,0.177-0.638,0.177c-0.251,0-0.466-0.057-0.648-0.168c-0.184-0.11-0.321-0.261-0.416-0.451
		c-0.094-0.189-0.143-0.401-0.143-0.63c0-0.271,0.058-0.5,0.174-0.688c0.116-0.189,0.266-0.33,0.448-0.421
		c0.183-0.093,0.375-0.138,0.576-0.138c0.245,0,0.462,0.061,0.646,0.187v0.687c-0.162-0.189-0.349-0.285-0.56-0.285
		c-0.128,0-0.238,0.031-0.329,0.096c-0.091,0.063-0.16,0.146-0.205,0.25c-0.048,0.104-0.07,0.216-0.07,0.332
		c0,0.129,0.025,0.239,0.078,0.337c0.054,0.097,0.125,0.171,0.218,0.224c0.092,0.053,0.194,0.078,0.309,0.078
		c0.202,0,0.389-0.086,0.56-0.258V20.33L48.746,20.33z M49.438,20.438v-2.359h2.105v2.359h-0.661v-1.795h-0.783v1.795H49.438
		L49.438,20.438z M52.328,20.438v-2.359h0.66v2.359H52.328L52.328,20.438z M54.766,19.658l-0.472,0.78h-0.756l0.864-1.241
		l-0.78-1.118h0.793l0.351,0.635l0.35-0.635h0.75l-0.738,1.085l0.862,1.274h-0.777L54.766,19.658L54.766,19.658z M56.893,20.438
		l0.32-0.651l-0.887-1.708h0.778l0.462,0.989l0.379-0.989h0.719l-1.063,2.359H56.893L56.893,20.438z"/>
	<path fill-rule="evenodd" clip-rule="evenodd" fill="#3578BC" d="M48.849,14.591c0.017-0.157,0.158-0.286,0.285-0.27
		c0.145,0.015,0.239,0.16,0.225,0.319c-0.032,0.174-0.16,0.318-0.305,0.302C48.912,14.926,48.816,14.768,48.849,14.591
		L48.849,14.591z M45.553,14.273c0.033-0.159,0.145-0.27,0.255-0.254c0.126,0,0.19,0.145,0.159,0.303
		c-0.033,0.16-0.159,0.254-0.27,0.239C45.586,14.561,45.521,14.434,45.553,14.273L45.553,14.273z M47.129,14.434
		c0.031-0.161,0.159-0.288,0.271-0.271c0.145,0.016,0.225,0.158,0.191,0.318c-0.032,0.142-0.16,0.27-0.286,0.253
		C47.178,14.735,47.098,14.576,47.129,14.434L47.129,14.434z M57.508,2.716c0-0.112,0.129-0.224,0.288-0.271
		c0.159-0.032,0.302,0.031,0.316,0.143c0.018,0.128-0.109,0.255-0.285,0.287C57.667,2.909,57.524,2.843,57.508,2.716L57.508,2.716z
		 M57.922,7.922c-0.016-0.159,0.144-0.303,0.335-0.319c0.19-0.016,0.365,0.097,0.382,0.254c0.017,0.16-0.144,0.305-0.334,0.319
		C58.098,8.194,57.938,8.064,57.922,7.922L57.922,7.922z M57.637,4.261c-0.017-0.129,0.127-0.256,0.302-0.287
		c0.159-0.017,0.318,0.047,0.335,0.19c0.016,0.128-0.128,0.254-0.304,0.287C57.796,4.484,57.651,4.389,57.637,4.261L57.637,4.261z
		 M44.294,5.534c0.018-0.079,0.113-0.159,0.176-0.176c0.08-0.015,0.128,0.033,0.095,0.113c-0.029,0.095-0.109,0.174-0.19,0.191
		C44.312,5.677,44.263,5.613,44.294,5.534L44.294,5.534z M50.822,14.799c0.017-0.19,0.158-0.317,0.318-0.303
		c0.16,0.016,0.271,0.159,0.255,0.352c-0.017,0.19-0.159,0.333-0.317,0.302C50.918,15.15,50.807,14.974,50.822,14.799L50.822,14.799
		z M51.331,5.358c0.033-0.303,0.351-0.604,0.685-0.667c0.368-0.064,0.637,0.126,0.605,0.444c-0.016,0.336-0.334,0.638-0.7,0.701
		C51.555,5.899,51.301,5.677,51.331,5.358L51.331,5.358z M47.988,7.299c0.08-0.38,0.414-0.716,0.779-0.778
		c0.366-0.047,0.638,0.208,0.574,0.604c-0.063,0.398-0.43,0.765-0.827,0.797C48.148,7.97,47.909,7.683,47.988,7.299L47.988,7.299z
		 M51.172,6.887c0.031-0.334,0.351-0.652,0.717-0.7c0.366-0.064,0.652,0.175,0.621,0.525c-0.016,0.35-0.351,0.685-0.732,0.718
		C51.396,7.476,51.141,7.239,51.172,6.887L51.172,6.887z M48.387,1.443c0.016-0.08,0.095-0.16,0.191-0.191
		c0.08-0.03,0.143,0.016,0.125,0.078c-0.015,0.08-0.094,0.177-0.188,0.193C48.434,1.554,48.37,1.506,48.387,1.443L48.387,1.443z
		 M49.58,1.061c0.017-0.079,0.111-0.159,0.208-0.192c0.079-0.031,0.143,0,0.143,0.08c-0.016,0.081-0.11,0.175-0.208,0.192
		C49.629,1.172,49.565,1.141,49.58,1.061L49.58,1.061z M48.26,5.899c0.063-0.349,0.398-0.684,0.747-0.746
		c0.366-0.065,0.622,0.159,0.559,0.524c-0.065,0.366-0.415,0.717-0.78,0.765C48.418,6.505,48.195,6.25,48.26,5.899L48.26,5.899z
		 M49.962,4.324c0.048-0.271,0.335-0.54,0.638-0.619c0.304-0.064,0.541,0.094,0.51,0.38c-0.031,0.287-0.336,0.573-0.653,0.638
		C50.139,4.786,49.931,4.611,49.962,4.324L49.962,4.324z M49.311,8.639c0.048-0.352,0.366-0.653,0.699-0.7
		c0.351-0.031,0.605,0.237,0.559,0.604c-0.049,0.367-0.382,0.701-0.732,0.716C49.485,9.275,49.246,9.004,49.311,8.639L49.311,8.639z
		 M50.839,0.664c0.016-0.08,0.094-0.177,0.206-0.207c0.096-0.032,0.176,0.016,0.158,0.095c0,0.08-0.094,0.175-0.206,0.208
		C50.903,0.791,50.822,0.743,50.839,0.664L50.839,0.664z M49.422,7.111c0.063-0.382,0.429-0.749,0.811-0.813
		c0.415-0.063,0.717,0.224,0.671,0.622c-0.049,0.413-0.447,0.796-0.861,0.844C49.629,7.811,49.358,7.509,49.422,7.111L49.422,7.111z
		 M52.239,0.233c0-0.096,0.096-0.174,0.207-0.223c0.112-0.032,0.191,0.016,0.191,0.095c-0.017,0.08-0.112,0.176-0.225,0.208
		C52.304,0.344,52.222,0.313,52.239,0.233L52.239,0.233z M47.813,8.765c0.065-0.333,0.367-0.636,0.669-0.669
		c0.319-0.032,0.543,0.224,0.478,0.575c-0.047,0.349-0.364,0.666-0.699,0.684C47.941,9.371,47.75,9.116,47.813,8.765L47.813,8.765z
		 M48.609,4.611c0.063-0.255,0.335-0.526,0.604-0.59c0.287-0.063,0.495,0.096,0.447,0.368c-0.048,0.285-0.318,0.557-0.621,0.62
		C48.752,5.073,48.562,4.881,48.609,4.611L48.609,4.611z M51.49,4.005c0.032-0.285,0.319-0.572,0.652-0.652
		c0.335-0.079,0.606,0.095,0.589,0.382c-0.031,0.303-0.333,0.604-0.684,0.684C51.697,4.484,51.459,4.292,51.49,4.005L51.49,4.005z
		 M45.601,7.62c0.064-0.239,0.271-0.445,0.462-0.461c0.207-0.033,0.334,0.126,0.27,0.365c-0.063,0.222-0.27,0.446-0.477,0.462
		C45.648,8.017,45.537,7.842,45.601,7.62L45.601,7.62z M45.25,8.99c0.063-0.256,0.271-0.463,0.478-0.479
		c0.206-0.031,0.335,0.16,0.271,0.414c-0.064,0.255-0.286,0.478-0.492,0.478C45.299,9.419,45.188,9.229,45.25,8.99L45.25,8.99z
		 M46.252,5.121c0.05-0.207,0.239-0.398,0.431-0.43c0.192-0.048,0.304,0.079,0.271,0.285c-0.063,0.191-0.254,0.398-0.445,0.431
		C46.317,5.455,46.206,5.312,46.252,5.121L46.252,5.121z M50.997,8.495c0.048-0.365,0.367-0.684,0.747-0.731
		c0.384-0.032,0.685,0.238,0.654,0.62c-0.031,0.382-0.383,0.732-0.78,0.749C51.236,9.164,50.949,8.878,50.997,8.495L50.997,8.495z
		 M45.934,6.297c0.064-0.206,0.272-0.398,0.463-0.445c0.191-0.033,0.303,0.112,0.255,0.335c-0.047,0.207-0.255,0.414-0.462,0.446
		C45.998,6.666,45.888,6.521,45.934,6.297L45.934,6.297z M46.429,8.878c0.063-0.32,0.349-0.591,0.637-0.622
		c0.286-0.032,0.461,0.208,0.397,0.541c-0.063,0.335-0.365,0.638-0.668,0.653C46.508,9.465,46.35,9.211,46.429,8.878L46.429,8.878z
		 M53.29,3.624c0.016-0.238,0.253-0.478,0.541-0.541c0.302-0.063,0.541,0.08,0.526,0.318c0,0.239-0.257,0.493-0.558,0.542
		C53.496,4.005,53.274,3.863,53.29,3.624L53.29,3.624z M49.182,10.374c0.031-0.302,0.304-0.558,0.574-0.572
		c0.286-0.018,0.492,0.222,0.445,0.54c-0.032,0.319-0.303,0.59-0.604,0.59C49.326,10.931,49.134,10.676,49.182,10.374L49.182,10.374
		z M47.718,3.655c0.032-0.189,0.239-0.381,0.431-0.429c0.207-0.047,0.333,0.063,0.301,0.255c-0.047,0.191-0.254,0.398-0.444,0.445
		C47.798,3.974,47.67,3.846,47.718,3.655L47.718,3.655z M48.959,3.353c0.048-0.207,0.239-0.397,0.463-0.462
		c0.207-0.048,0.366,0.064,0.334,0.255c-0.033,0.207-0.239,0.413-0.463,0.461C49.071,3.672,48.928,3.544,48.959,3.353L48.959,3.353z
		 M47.624,10.421c0.046-0.287,0.3-0.525,0.556-0.541c0.254-0.017,0.43,0.206,0.382,0.508c-0.064,0.304-0.319,0.558-0.573,0.558
		C47.718,10.946,47.559,10.709,47.624,10.421L47.624,10.421z M53.21,5.041c0.016-0.255,0.271-0.51,0.572-0.557
		c0.304-0.065,0.558,0.094,0.543,0.364c0,0.255-0.271,0.526-0.574,0.575C53.433,5.471,53.195,5.294,53.21,5.041L53.21,5.041z
		 M47.336,4.881c0.063-0.255,0.317-0.51,0.573-0.558c0.271-0.063,0.446,0.095,0.382,0.351c-0.049,0.271-0.319,0.541-0.589,0.605
		C47.431,5.327,47.271,5.153,47.336,4.881L47.336,4.881z M46.158,10.47c0.079-0.287,0.303-0.51,0.541-0.526
		c0.223-0.017,0.382,0.208,0.317,0.495c-0.063,0.285-0.303,0.54-0.54,0.54C46.237,10.979,46.096,10.74,46.158,10.47L46.158,10.47z
		 M53.131,6.633c0-0.287,0.271-0.542,0.589-0.59s0.59,0.144,0.572,0.431c0,0.286-0.286,0.572-0.604,0.604
		C53.354,7.111,53.115,6.904,53.131,6.633L53.131,6.633z M50.281,3.02c0.031-0.21,0.238-0.416,0.477-0.463
		c0.239-0.064,0.399,0.047,0.383,0.253c-0.031,0.21-0.237,0.416-0.493,0.479C50.408,3.336,50.248,3.226,50.281,3.02L50.281,3.02z
		 M49.645,5.663c0.063-0.368,0.413-0.717,0.796-0.781c0.382-0.079,0.669,0.159,0.638,0.525c-0.049,0.383-0.416,0.748-0.83,0.813
		C49.851,6.283,49.597,6.029,49.645,5.663L49.645,5.663z M53.035,8.32c0.016-0.303,0.286-0.574,0.621-0.604
		c0.334-0.032,0.604,0.192,0.604,0.509c-0.016,0.318-0.303,0.604-0.652,0.621C53.274,8.878,53.019,8.639,53.035,8.32L53.035,8.32z
		 M50.949,10.308c0.031-0.315,0.302-0.587,0.621-0.604c0.318-0.015,0.558,0.239,0.525,0.574c-0.016,0.333-0.302,0.619-0.637,0.619
		C51.141,10.916,50.918,10.644,50.949,10.308L50.949,10.308z M46.747,7.46c0.063-0.302,0.334-0.573,0.621-0.605
		c0.271-0.048,0.462,0.159,0.397,0.478c-0.063,0.319-0.352,0.59-0.637,0.622C46.842,7.986,46.683,7.763,46.747,7.46L46.747,7.46z
		 M47.049,6.107c0.065-0.271,0.336-0.541,0.604-0.588c0.271-0.048,0.446,0.126,0.383,0.413c-0.048,0.287-0.334,0.573-0.605,0.621
		C47.16,6.583,46.986,6.394,47.049,6.107L47.049,6.107z M51.761,2.653C51.777,2.446,52,2.223,52.255,2.16
		c0.255-0.065,0.445,0.047,0.429,0.254c-0.015,0.223-0.237,0.444-0.508,0.51C51.921,2.987,51.729,2.858,51.761,2.653L51.761,2.653z
		 M49.278,2.16c0.032-0.128,0.174-0.271,0.318-0.32C49.756,1.793,49.867,1.873,49.851,2c-0.03,0.143-0.174,0.285-0.334,0.333
		C49.373,2.382,49.262,2.303,49.278,2.16L49.278,2.16z M52,1.395c0.016-0.144,0.176-0.287,0.351-0.351
		c0.175-0.048,0.318,0.017,0.302,0.159c0,0.144-0.158,0.303-0.349,0.365C52.128,1.618,51.985,1.54,52,1.395L52,1.395z M55.296,4.674
		c0-0.19,0.19-0.382,0.444-0.43c0.239-0.048,0.446,0.079,0.462,0.271c0,0.207-0.19,0.398-0.444,0.446
		C55.502,4.994,55.296,4.866,55.296,4.674L55.296,4.674z M50.887,12.396c0.031-0.255,0.238-0.462,0.478-0.462
		s0.43,0.224,0.396,0.495c-0.017,0.27-0.238,0.476-0.478,0.476C51.045,12.889,50.87,12.666,50.887,12.396L50.887,12.396z
		 M57.779,6.029c-0.016-0.145,0.127-0.288,0.304-0.304c0.19-0.032,0.348,0.064,0.364,0.207S58.32,6.219,58.13,6.235
		C57.938,6.25,57.796,6.155,57.779,6.029L57.779,6.029z M55.312,6.346c0-0.224,0.207-0.414,0.461-0.447
		c0.256-0.047,0.478,0.097,0.494,0.32c0,0.223-0.207,0.429-0.477,0.462C55.519,6.712,55.312,6.553,55.312,6.346L55.312,6.346z
		 M50.568,1.793c0.017-0.128,0.174-0.271,0.335-0.318c0.175-0.048,0.285,0.016,0.269,0.158c-0.015,0.128-0.175,0.287-0.333,0.336
		C50.662,2.015,50.552,1.937,50.568,1.793L50.568,1.793z M44.535,7.746c0.047-0.158,0.188-0.301,0.334-0.315
		c0.127-0.018,0.205,0.094,0.158,0.253c-0.049,0.174-0.19,0.318-0.335,0.334C44.564,8.034,44.486,7.922,44.535,7.746L44.535,7.746z
		 M47.399,12.3c0.031-0.239,0.225-0.431,0.413-0.414c0.192,0,0.319,0.19,0.287,0.43c-0.048,0.237-0.238,0.43-0.43,0.43
		C47.463,12.73,47.352,12.538,47.399,12.3L47.399,12.3z M55.28,3.194c0-0.174,0.189-0.351,0.43-0.413
		c0.237-0.049,0.43,0.047,0.43,0.239c0.017,0.174-0.175,0.365-0.43,0.413C55.486,3.481,55.28,3.368,55.28,3.194L55.28,3.194z
		 M45.233,5.343c0.048-0.143,0.176-0.288,0.304-0.318c0.128-0.016,0.206,0.063,0.175,0.207c-0.047,0.143-0.191,0.287-0.317,0.302
		C45.267,5.566,45.202,5.471,45.233,5.343L45.233,5.343z M48.068,2.51c0.031-0.128,0.159-0.256,0.302-0.304
		c0.145-0.047,0.239,0.033,0.208,0.159c-0.017,0.127-0.16,0.271-0.318,0.319C48.132,2.716,48.036,2.636,48.068,2.51L48.068,2.51z
		 M55.328,8.129c0-0.239,0.205-0.446,0.478-0.461c0.271-0.033,0.51,0.143,0.524,0.38c0,0.239-0.222,0.463-0.51,0.479
		C55.551,8.558,55.328,8.369,55.328,8.129L55.328,8.129z M44.9,6.49c0.048-0.161,0.19-0.303,0.318-0.318
		c0.128-0.017,0.207,0.079,0.158,0.223c-0.03,0.159-0.175,0.302-0.317,0.318C44.934,6.745,44.852,6.633,44.9,6.49L44.9,6.49z
		 M49.024,12.346c0.029-0.254,0.237-0.444,0.444-0.444c0.223,0,0.367,0.206,0.334,0.462c-0.032,0.255-0.237,0.461-0.461,0.446
		C49.134,12.81,48.991,12.585,49.024,12.346L49.024,12.346z M45.871,12.252c0.063-0.225,0.239-0.398,0.413-0.398
		c0.177,0,0.271,0.191,0.239,0.413c-0.063,0.224-0.239,0.416-0.413,0.398C45.934,12.666,45.823,12.475,45.871,12.252L45.871,12.252z
		"/>
	<path fill="#EC1C24" d="M29.381,11.11h2.056c0.449,0,0.721,0.066,0.819,0.195c0.124,0.162,0.096,0.506-0.086,1.036
		c-0.181,0.526-0.386,0.87-0.615,1.031c-0.19,0.134-0.511,0.2-0.96,0.2h-1.214l-0.271,0.799h-0.84L29.381,11.11L29.381,11.11z
		 M29.671,12.73h1.212c0.101,0,0.186-0.025,0.254-0.078c0.081-0.06,0.146-0.164,0.197-0.311c0.048-0.143,0.053-0.245,0.014-0.31
		c-0.033-0.053-0.1-0.077-0.199-0.077h-1.214L29.671,12.73L29.671,12.73z M33.382,11.115h0.839l-0.824,2.413h1.907l-0.288,0.844
		h-2.747L33.382,11.115L33.382,11.115z M40.354,11.115l-0.679,1.983c-0.202,0.591-0.436,0.962-0.705,1.113
		c-0.243,0.141-0.738,0.209-1.484,0.209c-0.744,0-1.19-0.068-1.338-0.209c-0.164-0.155-0.144-0.526,0.056-1.113l0.679-1.983h0.839
		l-0.678,1.983c-0.067,0.199-0.064,0.324,0.009,0.379c0.087,0.066,0.326,0.101,0.722,0.101c0.39,0,0.647-0.03,0.772-0.094
		c0.127-0.062,0.222-0.189,0.288-0.386l0.68-1.983H40.354L40.354,11.115z M41.928,13.638c0.406,0,0.642-0.009,0.712-0.022
		c0.067-0.017,0.12-0.075,0.155-0.18c0.041-0.124,0.025-0.203-0.053-0.235c-0.079-0.03-0.296-0.048-0.648-0.048
		c-0.7,0-1.121-0.06-1.262-0.182c-0.143-0.122-0.133-0.423,0.031-0.903c0.153-0.444,0.37-0.729,0.65-0.853
		c0.216-0.094,0.639-0.142,1.271-0.142c0.563,0,0.913,0.018,1.051,0.054c0.325,0.085,0.378,0.445,0.164,1.077h-0.841
		c0.058-0.173,0.062-0.274,0.008-0.303c-0.054-0.029-0.27-0.045-0.646-0.045c-0.382,0-0.602,0.01-0.667,0.026
		c-0.063,0.016-0.114,0.078-0.15,0.185c-0.038,0.113-0.013,0.186,0.075,0.219c0.086,0.033,0.285,0.051,0.594,0.051
		c0.691,0,1.116,0.064,1.272,0.197c0.154,0.129,0.151,0.431-0.009,0.901c-0.149,0.435-0.357,0.714-0.622,0.836
		c-0.229,0.103-0.682,0.155-1.359,0.155c-0.522,0-0.855-0.014-1.001-0.042c-0.227-0.042-0.355-0.142-0.387-0.299
		c-0.034-0.157,0.015-0.429,0.147-0.813h0.841c-0.063,0.182-0.066,0.287-0.011,0.319C41.302,13.622,41.528,13.638,41.928,13.638
		L41.928,13.638z"/>
	<path fill="#3578BC" d="M40.304,4.518h2.908l0.92,5.493h-1.979l-0.222-0.915h-3.355l-0.824,0.915h-1.977L40.304,4.518L40.304,4.518
		z M41.482,5.756h-0.262l-1.546,1.917h2.086L41.482,5.756L41.482,5.756z M31.841,5.933l0.468-1.422h6.55l-0.468,1.422h-2.425
		l-1.339,4.078h-1.694l1.341-4.078H31.841L31.841,5.933z M31.214,7.265c-0.439,1.34-0.866,2.141-1.274,2.402
		c-0.44,0.281-1.54,0.422-3.295,0.422c-1.281,0-2.109-0.047-2.478-0.138c-0.465-0.118-0.699-0.375-0.703-0.77
		c-0.002-0.303,0.156-0.941,0.478-1.917c0.438-1.338,0.86-2.14,1.265-2.4c0.443-0.288,1.542-0.431,3.297-0.431
		c1.75,0,2.752,0.14,3.008,0.422C31.754,5.123,31.653,5.927,31.214,7.265L31.214,7.265z M25.634,7.265
		c-0.232,0.702-0.286,1.112-0.162,1.229c0.124,0.115,0.672,0.173,1.64,0.173c0.978,0,1.563-0.058,1.764-0.173
		c0.198-0.116,0.413-0.526,0.646-1.229c0.231-0.708,0.287-1.12,0.161-1.235c-0.124-0.115-0.67-0.173-1.64-0.173
		c-0.974,0-1.562,0.058-1.762,0.173C26.083,6.145,25.867,6.557,25.634,7.265L25.634,7.265z M18.199,7.812h2.931
		c0.159,0,0.271,0.031,0.335,0.097c0.063,0.063,0.066,0.183,0.009,0.356c-0.092,0.277-0.301,0.416-0.629,0.416h-2.934L18.199,7.812
		L18.199,7.812z M17.588,4.511l-1.809,5.5h5.119c0.605,0,1.076-0.115,1.414-0.344c0.337-0.232,0.598-0.625,0.779-1.178
		c0.212-0.643,0.101-1.076-0.334-1.303c0.183-0.071,0.36-0.203,0.532-0.399c0.172-0.194,0.305-0.437,0.399-0.723
		c0.213-0.651,0.181-1.094-0.105-1.324c-0.188-0.154-0.55-0.229-1.077-0.229H17.588L17.588,4.511z M18.845,5.841h3.001
		c0.139,0,0.235,0.028,0.288,0.086c0.054,0.056,0.058,0.15,0.014,0.284c-0.041,0.128-0.109,0.221-0.204,0.279
		c-0.093,0.062-0.207,0.09-0.34,0.09h-3.002L18.845,5.841L18.845,5.841z M11.528,4.518h2.908l0.919,5.493h-1.979l-0.222-0.915H9.799
		l-0.824,0.915H6.997L11.528,4.518L11.528,4.518z M12.705,5.756h-0.261l-1.545,1.917h2.085L12.705,5.756L12.705,5.756z M2.058,4.511
		h4.925c0.605,0,0.998,0.108,1.178,0.328c0.191,0.242,0.189,0.665-0.01,1.271C7.996,6.582,7.824,6.933,7.637,7.159
		c-0.188,0.225-0.439,0.393-0.76,0.506c0.265,0.134,0.424,0.268,0.48,0.401c0.056,0.133,0.028,0.371-0.084,0.716l-0.406,1.229H5.174
		l0.324-0.983c0.047-0.145,0.048-0.264,0.003-0.361C5.446,8.538,5.321,8.473,5.126,8.473H2.448l-0.505,1.538H0.25L2.058,4.511
		L2.058,4.511z M3.282,5.933L2.916,7.049h2.718c0.185,0,0.33-0.039,0.436-0.119c0.105-0.079,0.192-0.225,0.262-0.435
		c0.07-0.21,0.076-0.357,0.021-0.438C6.296,5.974,6.179,5.933,6,5.933H3.282L3.282,5.933z"/>
	<path fill="#3578BC" d="M2.906,27.175l-0.501,1.54H1.641l-1.197-2.951h1.049l0.557,1.582l0.491-1.582h0.731l0.489,1.582
		l0.558-1.582H5.37l-1.198,2.951H3.407L2.906,27.175L2.906,27.175z M7.7,27.175l-0.502,1.54H6.434l-1.198-2.951h1.051l0.557,1.582
		l0.489-1.582h0.731l0.491,1.582l0.556-1.582h1.052l-1.198,2.951H8.201L7.7,27.175L7.7,27.175z M12.494,27.175l-0.503,1.54h-0.764
		l-1.197-2.951h1.051l0.555,1.582l0.491-1.582h0.731l0.491,1.582l0.556-1.582h1.05l-1.197,2.951h-0.763L12.494,27.175L12.494,27.175
		z M15.274,28.201c0-0.173,0.062-0.321,0.186-0.442c0.123-0.12,0.27-0.179,0.438-0.179s0.314,0.059,0.437,0.179
		c0.124,0.121,0.186,0.27,0.186,0.442c0,0.114-0.028,0.219-0.085,0.314c-0.057,0.095-0.134,0.173-0.228,0.228
		c-0.096,0.056-0.199,0.083-0.31,0.083c-0.111,0-0.216-0.027-0.31-0.083c-0.096-0.055-0.173-0.133-0.229-0.228
		C15.301,28.42,15.274,28.315,15.274,28.201L15.274,28.201z M18.276,26.148c0.11-0.158,0.242-0.272,0.393-0.345
		c0.151-0.073,0.299-0.107,0.444-0.107c0.069,0,0.16,0.009,0.275,0.023v0.941c-0.068-0.033-0.16-0.049-0.275-0.049
		c-0.236,0-0.413,0.058-0.532,0.175c-0.116,0.115-0.189,0.235-0.219,0.356c-0.028,0.123-0.044,0.227-0.044,0.313v1.258h-1.07v-2.951
		h1.028V26.148L18.276,26.148z M21.958,26.123v-0.359h1.027v2.951h-1.027v-0.349c-0.245,0.307-0.568,0.46-0.967,0.46
		c-0.283,0-0.53-0.073-0.738-0.218c-0.209-0.145-0.366-0.339-0.476-0.581c-0.107-0.245-0.161-0.508-0.161-0.792
		c0-0.26,0.047-0.51,0.144-0.754c0.094-0.241,0.245-0.438,0.453-0.596c0.21-0.156,0.467-0.233,0.778-0.233
		c0.196,0,0.371,0.033,0.526,0.102C21.674,25.822,21.819,25.946,21.958,26.123L21.958,26.123z M21.356,27.945
		c0.189,0,0.344-0.063,0.463-0.191c0.12-0.128,0.179-0.3,0.179-0.519c0-0.141-0.026-0.265-0.081-0.372
		c-0.054-0.104-0.129-0.188-0.229-0.245c-0.098-0.057-0.208-0.084-0.331-0.084c-0.206,0-0.365,0.069-0.473,0.209
		c-0.108,0.139-0.163,0.304-0.163,0.492c0,0.199,0.055,0.365,0.164,0.505C20.993,27.877,21.151,27.945,21.356,27.945L21.356,27.945z
		 M24.697,28.366v0.349h-1.028v-4.493h1.07v1.845c0.144-0.155,0.285-0.262,0.423-0.323c0.139-0.06,0.307-0.091,0.505-0.091
		c0.278,0,0.52,0.067,0.729,0.201c0.208,0.137,0.369,0.323,0.479,0.565c0.113,0.241,0.168,0.513,0.168,0.816
		c0,0.285-0.055,0.55-0.165,0.793c-0.109,0.243-0.268,0.437-0.476,0.581c-0.21,0.144-0.452,0.217-0.734,0.217
		C25.275,28.826,24.95,28.673,24.697,28.366L24.697,28.366z M25.293,27.945c0.19,0,0.346-0.063,0.463-0.19
		c0.12-0.128,0.181-0.301,0.181-0.52c0-0.141-0.027-0.265-0.083-0.371c-0.054-0.105-0.13-0.188-0.228-0.245
		c-0.098-0.058-0.211-0.085-0.333-0.085c-0.154,0-0.281,0.036-0.377,0.109c-0.096,0.075-0.164,0.168-0.204,0.273
		c-0.039,0.109-0.06,0.214-0.06,0.318c0,0.108,0.021,0.214,0.06,0.324c0.04,0.106,0.108,0.199,0.204,0.274
		C25.012,27.908,25.139,27.945,25.293,27.945L25.293,27.945z M29.176,28.826c-0.378,0-0.7-0.069-0.967-0.207
		c-0.266-0.137-0.465-0.327-0.599-0.567c-0.135-0.24-0.202-0.514-0.202-0.816c0-0.222,0.039-0.427,0.111-0.619
		c0.071-0.19,0.184-0.358,0.331-0.503c0.149-0.145,0.336-0.259,0.558-0.34c0.224-0.08,0.479-0.121,0.768-0.121
		c0.289,0,0.545,0.041,0.769,0.121c0.223,0.081,0.409,0.195,0.554,0.338c0.148,0.146,0.258,0.313,0.333,0.505
		c0.072,0.192,0.109,0.398,0.109,0.619c0,0.222-0.037,0.429-0.109,0.621c-0.075,0.193-0.186,0.362-0.334,0.506
		c-0.147,0.146-0.332,0.261-0.555,0.342C29.721,28.785,29.465,28.826,29.176,28.826L29.176,28.826z M29.176,28.055
		c0.192,0,0.338-0.053,0.438-0.163c0.098-0.106,0.16-0.223,0.184-0.342c0.025-0.118,0.038-0.225,0.038-0.314
		c0-0.242-0.058-0.438-0.171-0.588c-0.115-0.15-0.276-0.226-0.489-0.226s-0.378,0.075-0.491,0.225
		c-0.112,0.149-0.17,0.346-0.17,0.589c0,0.09,0.013,0.196,0.038,0.314c0.024,0.119,0.086,0.235,0.185,0.342
		C28.835,28.002,28.982,28.055,29.176,28.055L29.176,28.055z M31.556,28.715v-2.18H31.17v-0.771h0.386v-0.814h1.069v0.814h0.599
		v0.771h-0.599v2.18H31.556L31.556,28.715z M35.791,26.123v-0.359h1.028v2.951h-1.028v-0.349c-0.243,0.307-0.567,0.46-0.966,0.46
		c-0.283,0-0.529-0.073-0.737-0.218c-0.21-0.145-0.368-0.339-0.476-0.581c-0.109-0.245-0.163-0.508-0.163-0.792
		c0-0.26,0.049-0.51,0.145-0.754c0.094-0.241,0.246-0.438,0.454-0.596c0.208-0.156,0.468-0.233,0.777-0.233
		c0.195,0,0.372,0.033,0.525,0.102C35.509,25.822,35.654,25.946,35.791,26.123L35.791,26.123z M35.19,27.945
		c0.19,0,0.346-0.063,0.464-0.191c0.12-0.128,0.179-0.3,0.179-0.519c0-0.141-0.027-0.265-0.081-0.372
		c-0.054-0.104-0.131-0.188-0.229-0.245c-0.099-0.057-0.21-0.084-0.333-0.084c-0.206,0-0.364,0.069-0.472,0.209
		c-0.109,0.139-0.164,0.304-0.164,0.492c0,0.199,0.055,0.365,0.165,0.505C34.827,27.877,34.985,27.945,35.19,27.945L35.19,27.945z
		 M38.532,25.764v0.36c0.133-0.168,0.277-0.285,0.428-0.36c0.148-0.074,0.33-0.111,0.542-0.111c0.278,0,0.521,0.067,0.728,0.201
		c0.209,0.137,0.37,0.323,0.479,0.565c0.113,0.241,0.168,0.513,0.168,0.816c0,0.285-0.055,0.55-0.165,0.793s-0.27,0.437-0.478,0.581
		c-0.209,0.144-0.452,0.217-0.732,0.217c-0.369,0-0.68-0.138-0.93-0.411V30h-1.069v-4.236H38.532L38.532,25.764z M39.129,27.945
		c0.19,0,0.344-0.063,0.465-0.19c0.117-0.128,0.176-0.301,0.176-0.52c0-0.141-0.025-0.265-0.08-0.371
		c-0.055-0.105-0.13-0.188-0.229-0.245c-0.097-0.058-0.21-0.085-0.332-0.085c-0.155,0-0.282,0.036-0.377,0.109
		c-0.097,0.075-0.164,0.168-0.204,0.273c-0.04,0.109-0.06,0.214-0.06,0.318c0,0.108,0.02,0.214,0.06,0.324
		c0.04,0.106,0.107,0.199,0.204,0.274C38.847,27.908,38.974,27.945,39.129,27.945L39.129,27.945z M41.403,28.715v-4.493h1.069v4.493
		H41.403L41.403,28.715z M43.118,25.764h1.069v1.613c0,0.151,0.026,0.285,0.084,0.398s0.186,0.17,0.386,0.17
		c0.201,0,0.328-0.057,0.385-0.17s0.087-0.247,0.087-0.398v-1.613h1.069v1.591c0,0.214-0.032,0.428-0.098,0.643
		c-0.065,0.214-0.213,0.405-0.441,0.574c-0.229,0.168-0.562,0.255-1.002,0.255c-0.438,0-0.771-0.087-1.002-0.256
		c-0.228-0.169-0.373-0.362-0.439-0.577c-0.066-0.216-0.098-0.429-0.098-0.639V25.764L43.118,25.764z M46.625,28.531l0.3-0.74
		c0.283,0.185,0.558,0.276,0.825,0.276c0.119,0,0.203-0.024,0.246-0.069c0.043-0.046,0.066-0.093,0.066-0.138
		c0-0.129-0.114-0.211-0.343-0.245c-0.329-0.052-0.577-0.146-0.743-0.278c-0.17-0.136-0.252-0.349-0.252-0.644
		c0-0.172,0.036-0.336,0.112-0.491c0.073-0.158,0.2-0.291,0.381-0.394c0.181-0.104,0.42-0.156,0.715-0.156
		c0.407,0,0.792,0.085,1.156,0.257l-0.337,0.686c-0.234-0.158-0.461-0.239-0.678-0.239s-0.324,0.086-0.324,0.252
		c0,0.068,0.026,0.127,0.08,0.168c0.054,0.045,0.176,0.078,0.367,0.101c0.235,0.021,0.448,0.091,0.644,0.21
		c0.193,0.122,0.29,0.351,0.29,0.688c0,0.304-0.104,0.557-0.31,0.76c-0.206,0.202-0.539,0.304-0.998,0.304
		C47.341,28.837,46.941,28.735,46.625,28.531L46.625,28.531z M49.731,28.201c0-0.173,0.062-0.321,0.185-0.442
		c0.124-0.12,0.268-0.179,0.438-0.179c0.169,0,0.314,0.059,0.438,0.179c0.124,0.121,0.186,0.27,0.186,0.442
		c0,0.114-0.029,0.219-0.086,0.314c-0.056,0.095-0.134,0.173-0.228,0.228c-0.097,0.056-0.2,0.083-0.311,0.083
		s-0.215-0.027-0.31-0.083c-0.096-0.055-0.172-0.133-0.228-0.228C49.76,28.42,49.731,28.315,49.731,28.201L49.731,28.201z
		 M51.663,25.764h1.069v1.613c0,0.151,0.029,0.285,0.087,0.398c0.057,0.113,0.185,0.17,0.386,0.17c0.198,0,0.327-0.057,0.384-0.17
		c0.056-0.113,0.085-0.247,0.085-0.398v-1.613h1.07v1.591c0,0.214-0.032,0.428-0.098,0.643c-0.063,0.214-0.211,0.405-0.439,0.574
		c-0.23,0.168-0.563,0.255-1.002,0.255c-0.439,0-0.772-0.087-1.002-0.256c-0.229-0.169-0.375-0.362-0.441-0.577
		c-0.064-0.216-0.099-0.429-0.099-0.639V25.764L51.663,25.764z M57.569,26.123v-0.359h1.027v2.951h-1.027v-0.349
		c-0.246,0.307-0.569,0.46-0.967,0.46c-0.283,0-0.53-0.073-0.739-0.218c-0.208-0.145-0.367-0.339-0.475-0.581
		c-0.108-0.245-0.162-0.508-0.162-0.792c0-0.26,0.048-0.51,0.145-0.754c0.094-0.241,0.245-0.438,0.454-0.596
		c0.208-0.156,0.468-0.233,0.777-0.233c0.195,0,0.37,0.033,0.527,0.102C57.286,25.822,57.432,25.946,57.569,26.123L57.569,26.123z
		 M56.968,27.945c0.19,0,0.344-0.063,0.464-0.191c0.119-0.128,0.178-0.3,0.178-0.519c0-0.141-0.026-0.265-0.082-0.372
		c-0.054-0.104-0.129-0.188-0.229-0.245c-0.098-0.057-0.208-0.084-0.331-0.084c-0.207,0-0.365,0.069-0.474,0.209
		c-0.107,0.139-0.162,0.304-0.162,0.492c0,0.199,0.055,0.365,0.165,0.505C56.604,27.877,56.763,27.945,56.968,27.945L56.968,27.945z
		"/>
	<g>
		<rect x="0.363" y="22.26" fill="#EC1C24" width="58.249" height="0.256"/>
	</g>
</g>
</svg>
