<?xml version="1.0" encoding="utf-8"?>
<!-- Generator: Adobe Illustrator 16.0.3, SVG Export Plug-In . SVG Version: 6.00 Build 0)  -->
<!DOCTYPE svg PUBLIC "-//W3C//DTD SVG 1.1//EN" "http://www.w3.org/Graphics/SVG/1.1/DTD/svg11.dtd">
<svg version="1.1" id="Layer_1" xmlns="http://www.w3.org/2000/svg" xmlns:xlink="http://www.w3.org/1999/xlink" x="0px" y="0px"
	 width="70px" height="70px" viewBox="0 0 70 70" enable-background="new 0 0 70 70" xml:space="preserve">
<rect fill="#FFFFFF" width="70" height="70"/>
<g>
	<rect x="20.209" y="20.209" fill="#EF5035" width="29.582" height="29.582"/>
	<path fill="#FFFFFF" d="M20,20v30h30V20H20z M49.583,20.417c0,0.408,0,28.756,0,29.166c-0.409,0-28.757,0-29.166,0
		c0-0.41,0-28.757,0-29.166C20.826,20.417,49.174,20.417,49.583,20.417z"/>
	<g>
		<path fill="#FFFFFF" d="M34.663,35.975h-1.574c-0.034,0-0.063,0.017-0.081,0.044l0,0c-0.194,0.337-0.627,0.884-1.446,0.884
			c-1.073,0-1.736-0.942-1.736-1.919c0-0.916,0.619-1.885,1.727-1.885c0.76,0,1.227,0.47,1.461,0.907
			c0.002,0.006,0.006,0.012,0.009,0.018c0.018,0.026,0.047,0.042,0.081,0.042h1.577c0.053,0,0.097-0.044,0.097-0.097
			c0-0.008-0.001-0.017-0.003-0.024c-0.001-0.004-0.003-0.009-0.004-0.013c-0.311-0.994-1.371-2.28-3.208-2.28
			c-2.111,0-3.385,1.692-3.385,3.341c0,1.745,1.379,3.359,3.402,3.359c1.457,0,2.706-0.883,3.172-2.239
			c0-0.003,0.002-0.005,0.003-0.008c0.003-0.01,0.006-0.02,0.006-0.031C34.759,36.019,34.715,35.975,34.663,35.975z"/>
		<path fill="#FFFFFF" d="M41.663,35.975H40.09c-0.034,0-0.063,0.017-0.081,0.044l0,0c-0.194,0.337-0.627,0.884-1.446,0.884
			c-1.073,0-1.736-0.942-1.736-1.919c0-0.916,0.619-1.885,1.728-1.885c0.76,0,1.226,0.47,1.461,0.907
			c0.003,0.006,0.006,0.012,0.009,0.018c0.018,0.026,0.048,0.042,0.082,0.042h1.576c0.053,0,0.097-0.044,0.097-0.097
			c0-0.008-0.001-0.017-0.004-0.024c-0.001-0.004-0.003-0.009-0.005-0.013c-0.312-0.994-1.37-2.28-3.207-2.28
			c-2.111,0-3.386,1.692-3.386,3.341c0,1.745,1.379,3.359,3.402,3.359c1.458,0,2.707-0.883,3.173-2.239
			c0-0.003,0.002-0.005,0.002-0.008c0.004-0.01,0.007-0.02,0.007-0.031C41.761,36.019,41.716,35.975,41.663,35.975z"/>
		<path fill="#FFFFFF" d="M26.228,37.354c-0.015-0.035-0.05-0.06-0.09-0.06h-2.104c-0.041,0-0.075,0.024-0.09,0.06l-0.297,0.814l0,0
			c-0.015,0.035-0.049,0.059-0.089,0.059h-1.56c-0.055,0-0.098-0.044-0.098-0.097c0-0.013,0.002-0.024,0.006-0.035l0.002-0.004
			l2.511-6.256l0.003-0.007c0.015-0.034,0.049-0.058,0.088-0.058h1.169c0.038,0,0.071,0.023,0.087,0.056l0.005,0.013l2.482,6.248
			l0.006,0.014c0.002,0.01,0.004,0.018,0.004,0.029c0,0.053-0.044,0.097-0.097,0.097h-1.577c-0.041,0-0.075-0.023-0.09-0.059
			l0-0.003L26.228,37.354z M25.75,35.918l-0.004-0.012l-0.594-1.993c-0.007-0.026-0.03-0.045-0.058-0.045s-0.049,0.019-0.056,0.043
			l-0.598,1.997l-0.002,0.007c0,0.005-0.001,0.009-0.001,0.014c0,0.03,0.026,0.056,0.058,0.056h1.199
			c0.032,0,0.057-0.025,0.057-0.056C25.751,35.925,25.75,35.921,25.75,35.918z"/>
		<path fill="#FFFFFF" d="M46.063,37.354c-0.014-0.035-0.049-0.06-0.09-0.06h-2.104c-0.041,0-0.075,0.024-0.09,0.06l-0.297,0.814
			l0,0c-0.015,0.035-0.05,0.059-0.089,0.059h-1.56c-0.055,0-0.098-0.044-0.098-0.097c0-0.013,0.003-0.024,0.007-0.035l0.002-0.004
			l2.511-6.256l0.003-0.007c0.016-0.034,0.05-0.058,0.088-0.058h1.17c0.037,0,0.07,0.023,0.087,0.056l0.004,0.013l2.483,6.248
			l0.006,0.014c0.003,0.01,0.005,0.018,0.005,0.029c0,0.053-0.043,0.097-0.097,0.097h-1.576c-0.04,0-0.075-0.023-0.09-0.059
			l-0.001-0.003L46.063,37.354z M45.586,35.918l-0.005-0.012l-0.593-1.993c-0.008-0.026-0.031-0.045-0.059-0.045
			c-0.026,0-0.049,0.019-0.056,0.043l-0.598,1.997l-0.003,0.007c0,0.005-0.001,0.009-0.001,0.014c0,0.03,0.025,0.056,0.058,0.056
			h1.198c0.032,0,0.058-0.025,0.058-0.056C45.587,35.925,45.586,35.921,45.586,35.918z"/>
	</g>
</g>
</svg>
