<?xml version="1.0" encoding="utf-8"?>
<!-- Generator: Adobe Illustrator 16.0.3, SVG Export Plug-In . SVG Version: 6.00 Build 0)  -->
<!DOCTYPE svg PUBLIC "-//W3C//DTD SVG 1.1//EN" "http://www.w3.org/Graphics/SVG/1.1/DTD/svg11.dtd">
<svg version="1.1" id="Layer_1" xmlns="http://www.w3.org/2000/svg" xmlns:xlink="http://www.w3.org/1999/xlink" x="0px" y="0px"
	 width="70px" height="70px" viewBox="20 0 70 70" enable-background="new 20 0 70 70" xml:space="preserve">
<rect x="20" fill="#FFFFFF" width="70" height="70"/>
<g>
	<path fill="#EC1C24" d="M61.859,33.336c0.669-0.143,1.115-0.665,1.115-1.32c0-0.777-0.617-1.342-1.469-1.342h-1.351
		c-0.104,0-0.178,0.076-0.178,0.184c0,0.102,0.075,0.178,0.178,0.178h1.315c0.654,0,1.11,0.406,1.11,0.986
		c0,0.582-0.456,0.988-1.11,0.988h-1.315c-0.104,0-0.178,0.076-0.178,0.184c0,0.1,0.075,0.177,0.178,0.177h1.235l1.298,1.732
		c0.048,0.067,0.111,0.104,0.177,0.104c0.106,0,0.188-0.082,0.188-0.189c0-0.051-0.025-0.111-0.076-0.181L61.859,33.336z"/>
	<path fill="#EC1C24" d="M66.957,34.815h-2.593V32.99h2.219c0.105,0,0.179-0.072,0.179-0.178c0-0.101-0.073-0.172-0.179-0.172
		h-2.219v-1.605h2.53c0.104,0,0.179-0.077,0.179-0.184c0-0.102-0.077-0.178-0.179-0.178h-2.729c-0.11,0-0.196,0.082-0.196,0.189
		v4.117c0,0.113,0.083,0.195,0.196,0.195h2.791c0.103,0,0.177-0.077,0.177-0.184C67.133,34.891,67.058,34.815,66.957,34.815"/>
	<path fill="#EC1C24" d="M70.964,30.852c0-0.102-0.078-0.178-0.178-0.178H67.64c-0.104,0-0.183,0.074-0.183,0.178
		c0,0.106,0.075,0.184,0.183,0.184h1.374v3.977c0,0.113,0.083,0.195,0.197,0.195c0.112,0,0.197-0.082,0.197-0.195v-3.977h1.378
		C70.888,31.035,70.964,30.958,70.964,30.852"/>
	<path fill="#EC1C24" d="M72.825,30.822c-0.053-0.121-0.131-0.18-0.239-0.18c-0.11,0-0.185,0.057-0.239,0.187l-1.799,4.068
		c-0.021,0.042-0.038,0.083-0.038,0.124c0,0.11,0.076,0.184,0.189,0.184s0.16-0.096,0.179-0.129l0.584-1.333h2.235l0.584,1.333
		c0.038,0.082,0.107,0.129,0.192,0.129c0.108,0,0.188-0.081,0.188-0.189c0-0.029-0.009-0.066-0.023-0.097L72.825,30.822z
		 M73.541,33.396h-1.929l0.967-2.198L73.541,33.396z"/>
	<path fill="#EC1C24" d="M75.562,30.643c-0.118,0-0.202,0.08-0.202,0.196v4.166c0,0.121,0.083,0.202,0.202,0.202
		c0.122,0,0.204-0.082,0.204-0.202v-4.167C75.766,30.723,75.682,30.643,75.562,30.643"/>
	<path fill="#EC1C24" d="M79.821,34.815h-2.407v-3.982c0-0.108-0.084-0.19-0.196-0.19c-0.11,0-0.195,0.082-0.195,0.19v4.147
		c0,0.113,0.083,0.195,0.195,0.195h2.604c0.103,0,0.179-0.077,0.179-0.184C80,34.891,79.924,34.815,79.821,34.815"/>
	<path fill="#EC1C24" d="M53.79,31.162h-1.042v3.97h1.291v-2.755c0.106-0.133,0.389-0.271,0.621-0.271
		c0.38,0,0.596,0.206,0.596,0.577v2.449h1.282V32.51c0-0.959-0.431-1.432-1.324-1.432c-0.671,0-1.059,0.208-1.34,0.521L53.79,31.162
		z M48.38,33.297c0,1.34,0.496,1.918,1.457,1.918c0.587,0,0.993-0.199,1.215-0.521l0.066,0.438h1.051v-3.805
		c-0.423-0.132-0.902-0.249-1.804-0.249C49.083,31.078,48.38,31.864,48.38,33.297 M50.877,33.916
		c-0.115,0.132-0.305,0.273-0.62,0.273c-0.347,0-0.538-0.323-0.538-0.943c0-0.762,0.208-1.141,0.621-1.141
		c0.24,0,0.364,0.018,0.537,0.058V33.916z M45.419,29.674h-1.291v5.458h1.291v-2.755c0.107-0.133,0.389-0.271,0.62-0.271
		c0.381,0,0.597,0.206,0.597,0.577v2.449h1.289V32.51c0-0.959-0.429-1.432-1.331-1.432c-0.546,0-0.86,0.125-1.175,0.34V29.674z
		 M41.696,33.113c0-0.578,0.331-0.935,0.961-0.935c0.338,0,0.611,0.091,0.851,0.249l0.183-1.085
		c-0.349-0.148-0.721-0.265-1.35-0.265c-1.282,0-1.984,0.736-1.984,2.086c0,1.356,0.661,2.051,1.952,2.051
		c0.62,0,1.216-0.189,1.464-0.356l-0.181-1.008c-0.291,0.149-0.572,0.265-0.929,0.265C42.027,34.116,41.696,33.719,41.696,33.113
		 M38.827,35.132h1.041v-3.97h-1.29v2.754c-0.107,0.132-0.388,0.273-0.62,0.273c-0.381,0-0.596-0.207-0.596-0.579v-2.448h-1.289
		v2.621c0,0.961,0.429,1.432,1.331,1.432c0.669,0,1.058-0.206,1.34-0.521L38.827,35.132z M34.385,35.132h1.497
		c-0.587-1.613-1.431-3.921-2.101-5.458h-1.68c-0.669,1.537-1.513,3.845-2.101,5.458h1.499c0.124-0.388,0.272-0.867,0.438-1.39
		h2.011C34.111,34.265,34.26,34.744,34.385,35.132 M33.615,32.692h-1.347c0.206-0.655,0.438-1.332,0.677-1.994
		C33.185,31.36,33.408,32.037,33.615,32.692"/>
	<path fill="#EC1C24" d="M58.276,36.716L58.276,36.716c-0.106,0-0.194-0.086-0.194-0.192v-8.158c0-0.107,0.088-0.193,0.194-0.193
		s0.192,0.086,0.192,0.193v8.158C58.469,36.629,58.384,36.716,58.276,36.716"/>
	<path fill="#EC1C24" d="M46.076,41.828c-0.062,0-0.126-0.005-0.191-0.016c-0.066-0.012-0.124-0.031-0.175-0.06v-0.287
		c0.053,0.026,0.11,0.045,0.17,0.057c0.058,0.013,0.117,0.019,0.173,0.019c0.057,0,0.108-0.008,0.158-0.025
		c0.048-0.017,0.095-0.047,0.139-0.087c0.043-0.04,0.087-0.096,0.134-0.167c0.045-0.069,0.091-0.16,0.139-0.27l-1.231-2.533h0.349
		l1.038,2.175l1.006-2.175h0.346l-1.206,2.551c-0.073,0.153-0.141,0.282-0.208,0.387c-0.065,0.104-0.131,0.188-0.198,0.252
		c-0.066,0.063-0.132,0.11-0.204,0.138C46.242,41.814,46.164,41.828,46.076,41.828z"/>
	<polygon fill="#EC1C24" points="48.965,39.938 49.474,39.938 50.563,38.46 50.939,38.46 49.769,40.066 51.062,41.795 
		50.685,41.795 49.501,40.229 48.965,40.229 48.965,41.795 48.641,41.795 48.641,38.46 48.965,38.46 	"/>
	<path fill="#EC1C24" d="M51.804,40.273h1.068c0.096,0,0.185-0.021,0.264-0.063c0.08-0.043,0.149-0.099,0.206-0.17
		c0.054-0.069,0.099-0.152,0.131-0.244c0.03-0.092,0.047-0.188,0.047-0.29c0-0.104-0.018-0.2-0.055-0.293
		c-0.036-0.091-0.085-0.173-0.146-0.243c-0.06-0.067-0.133-0.121-0.216-0.16c-0.082-0.041-0.169-0.06-0.26-0.06h-1.039V40.273z
		 M51.476,41.795V38.46h1.382c0.142,0,0.275,0.03,0.396,0.091c0.12,0.061,0.225,0.142,0.313,0.238
		c0.088,0.101,0.156,0.213,0.207,0.337c0.05,0.126,0.076,0.252,0.076,0.38c0,0.138-0.024,0.271-0.071,0.397
		c-0.046,0.128-0.112,0.239-0.198,0.337c-0.083,0.097-0.184,0.175-0.303,0.234c-0.117,0.06-0.248,0.09-0.392,0.09h-1.082v1.23
		H51.476L51.476,41.795z"/>
	<path fill="#EC1C24" d="M56.029,40.493l-0.671-1.648l-0.683,1.648H56.029z M55.22,38.46h0.278l1.386,3.335h-0.348l-0.433-1.042
		h-1.498l-0.428,1.042h-0.353L55.22,38.46z"/>
	<path fill="#EC1C24" d="M57.749,37.941V37.5h0.273v0.441H57.749z M57.048,37.941V37.5h0.274v0.441H57.048z M57.368,41.795V38.46
		h0.33v3.335H57.368z"/>
	<polygon fill="#EC1C24" points="61.176,38.46 61.176,41.795 60.851,41.795 60.851,40.235 58.872,40.235 58.872,41.795 
		58.544,41.795 58.544,38.46 58.872,38.46 58.872,39.944 60.851,39.944 60.851,38.46 	"/>
	<path fill="#EC1C24" d="M63.862,40.493l-0.672-1.648l-0.682,1.648H63.862z M63.054,38.46h0.277l1.387,3.335h-0.349l-0.432-1.042
		h-1.499l-0.427,1.042h-0.354L63.054,38.46z"/>
</g>
</svg>
