<?xml version="1.0" encoding="utf-8"?>
<!-- Generator: Adobe Illustrator 16.0.3, SVG Export Plug-In . SVG Version: 6.00 Build 0)  -->
<!DOCTYPE svg PUBLIC "-//W3C//DTD SVG 1.1//EN" "http://www.w3.org/Graphics/SVG/1.1/DTD/svg11.dtd">
<svg version="1.1" id="Layer_1" xmlns="http://www.w3.org/2000/svg" xmlns:xlink="http://www.w3.org/1999/xlink" x="0px" y="0px"
	 width="70px" height="70px" viewBox="4.5 0 70 70" enable-background="new 4.5 0 70 70" xml:space="preserve">
<rect x="4.5" fill="#FFFFFF" width="70" height="70"/>
<g>
	<path fill="none" d="M21.068,40.002L21.068,40.002L21.068,40.002z"/>
	<path fill="#21409A" d="M34.866,40.002L34.866,40.002L34.866,40.002z"/>
	<g>
		<path fill="#21409A" d="M23.983,33.357h1.742c2.863,0,4.32,0.627,4.32,2.301c0,1.484-1.171,2.111-3.002,2.111
			c-0.481,0-2.135,0-2.788,0l-3.188,2.232l0,0L27.019,40c3.564,0,5.964-1.281,5.964-4.254c0-2.588-2.122-3.605-4.018-3.605
			c1.309,0,2.855-1.174,2.855-3.164c0-1.989-1.817-3.419-3.896-3.419h-6.073h-1.315l0.532,1.183v12.223l2.915-2.041V33.357z
			 M23.983,27.789h3.055c0.841,0,1.904,0.204,1.904,1.627c0,1.425-1.519,2.006-2.645,2.006h-2.314V27.789z"/>
		<path fill="#21409A" d="M37.78,27.789h1.985c0.821,0,5.001,0.209,5.001,4.99c0,5.457-5.001,4.988-5.001,4.988l-1.715,0.002
			l-3.186,2.232l0,0h5.721c3.565,0,7.218-2.193,7.218-7.223c0-4.459-3.189-7.221-7.218-7.221h-6.255l0.534,1.182v12.223l2.915-2.041
			V27.789z"/>
		<path fill="#21409A" d="M49.15,32.779c0,5.764,4.657,7.383,7.677,7.383c3.017,0,7.673-1.619,7.673-7.383
			c0-5.762-4.656-7.379-7.673-7.379C53.808,25.4,49.15,27.018,49.15,32.779z M52.189,32.779c0-4.083,2.815-5.23,4.638-5.23
			c1.821,0,4.636,1.147,4.636,5.23c0,4.086-2.814,5.232-4.636,5.232C55.005,38.012,52.189,36.865,52.189,32.779z"/>
	</g>
	<g>
		<polygon fill="#ED1A3B" points="14.5,25.559 14.5,43.563 17.35,41.566 17.35,25.559 		"/>
		<polygon fill="#ED1A3B" points="17.881,42.232 14.5,44.6 64.341,44.6 64.341,42.232 		"/>
	</g>
</g>
</svg>
