<?xml version="1.0" encoding="utf-8"?>
<!-- Generator: Adobe Illustrator 16.0.3, SVG Export Plug-In . SVG Version: 6.00 Build 0)  -->
<!DOCTYPE svg PUBLIC "-//W3C//DTD SVG 1.1//EN" "http://www.w3.org/Graphics/SVG/1.1/DTD/svg11.dtd">
<svg version="1.1" id="Layer_1" xmlns="http://www.w3.org/2000/svg" xmlns:xlink="http://www.w3.org/1999/xlink" x="0px" y="0px"
	 width="79px" height="30px" viewBox="0 0 79 30" enable-background="new 0 0 79 30" xml:space="preserve">
<g>
	<polygon fill="none" points="10.7,22.816 10.7,22.816 10.7,22.816 	"/>
	<polygon fill="#21409A" points="32.26,22.816 32.26,22.816 32.26,22.816 	"/>
	<g>
		<path fill="#21409A" d="M15.255,12.435h2.722c4.474,0,6.751,0.979,6.751,3.595c0,2.32-1.829,3.299-4.691,3.299
			c-0.752,0-3.336,0-4.356,0L10.7,22.816l0,0l9.298-0.003c5.57,0,9.319-2.002,9.319-6.646c0-4.045-3.316-5.635-6.278-5.635
			c2.044,0,4.462-1.834,4.462-4.944c0-3.107-2.841-5.341-6.087-5.341h-9.489H9.869L10.7,2.096v19.095l4.555-3.188V12.435z
			 M15.255,3.735h4.774c1.314,0,2.975,0.317,2.975,2.541c0,2.226-2.373,3.133-4.132,3.133h-3.617V3.735z"/>
		<path fill="#21409A" d="M36.813,3.735h3.103c1.282,0,7.813,0.325,7.813,7.796c0,8.525-7.813,7.793-7.813,7.793l-2.68,0.004
			l-4.977,3.488l0,0h8.938c5.571,0,11.277-3.428,11.277-11.285c0-6.966-4.983-11.283-11.277-11.283h-9.773l0.835,1.848v19.095
			l4.554-3.188V3.735z"/>
		<path fill="#21409A" d="M54.579,11.531c0,9.006,7.276,11.535,11.994,11.535c4.714,0,11.989-2.529,11.989-11.535
			C78.563,2.528,71.287,0,66.573,0C61.855,0,54.579,2.528,54.579,11.531z M59.326,11.531c0-6.38,4.4-8.173,7.247-8.173
			c2.846,0,7.243,1.793,7.243,8.173c0,6.383-4.397,8.174-7.243,8.174C63.727,19.705,59.326,17.914,59.326,11.531z"/>
	</g>
	<g>
		<polygon fill="#ED1A3B" points="0.438,0.248 0.438,28.379 4.89,25.26 4.89,0.248 		"/>
		<polygon fill="#ED1A3B" points="5.721,26.303 0.438,30 78.313,30 78.313,26.303 		"/>
	</g>
</g>
</svg>
