<?xml version="1.0" encoding="utf-8"?>
<!-- Generator: Adobe Illustrator 16.0.3, SVG Export Plug-In . SVG Version: 6.00 Build 0)  -->
<!DOCTYPE svg PUBLIC "-//W3C//DTD SVG 1.1//EN" "http://www.w3.org/Graphics/SVG/1.1/DTD/svg11.dtd">
<svg version="1.1" id="Layer_1" xmlns="http://www.w3.org/2000/svg" xmlns:xlink="http://www.w3.org/1999/xlink" x="0px" y="0px"
	 width="70px" height="70px" viewBox="0 0 70 70" enable-background="new 0 0 70 70" xml:space="preserve">
<rect fill="#FFFFFF" width="70" height="70"/>
<g>
	<path fill="#231F20" d="M20.608,36.123v-2.297c0-0.638-0.072-0.889-0.341-1.202c-0.215-0.251-0.512-0.385-0.843-0.385
		c-0.226,0-0.412,0.044-1.149,0.287c-0.115,0.045-0.296,0.098-0.52,0.17v-0.484l-1.678,0.295c0.386,0.526,0.597,1.197,0.597,1.979
		c0,0.567-0.108,1.082-0.31,1.529l-0.025,0.057l-0.039,0.08c-0.111,0.217-0.243,0.416-0.396,0.6h2.426v-0.277l-0.574-0.352v-3.086
		c0.323-0.045,0.467-0.054,0.69-0.054c0.619,0,0.78,0.233,0.78,1.121v2.019l-0.537,0.352v0.277h2.683v-0.277L20.608,36.123"/>
	<path fill="#231F20" d="M9.128,36.258l0.502-1.202h0.529l-0.117,1.454c-0.305,0.088-0.403,0.115-0.789,0.188
		c-0.574,0.105-0.889,0.145-1.292,0.145c-1.955,0-3.131-1.123-3.131-2.979c0-1.939,1.328-3.186,3.399-3.186
		c0.646,0,1.338,0.108,1.867,0.287v1.453H9.576l-0.458-1.212c-0.197-0.009-0.359-0.009-0.484-0.009
		c-1.435,0-2.287,0.962-2.287,2.594c0,1.642,0.763,2.51,2.206,2.51C8.741,36.301,8.858,36.293,9.128,36.258"/>
	<path fill="#231F20" d="M10.856,34.67c0-1.444,0.979-2.387,2.504-2.387c1.472,0,2.404,0.87,2.404,2.233
		c0,1.427-0.996,2.37-2.504,2.37C11.8,36.887,10.856,36.014,10.856,34.67L10.856,34.67z M12.283,34.49
		c0,0.556,0.108,1.066,0.297,1.418c0.17,0.313,0.385,0.438,0.735,0.438c0.654,0,1.022-0.6,1.022-1.694
		c0-0.547-0.108-1.049-0.297-1.417c-0.17-0.314-0.403-0.457-0.744-0.457C12.643,32.777,12.283,33.379,12.283,34.49"/>
	<path fill="#231F20" d="M21.977,32.867h-0.664v-0.359c0.574-0.188,0.843-0.314,0.979-0.449c0.045-0.045,0.125-0.152,0.233-0.341
		c0.09-0.143,0.161-0.269,0.215-0.376c0.009-0.019,0.026-0.046,0.036-0.081h0.583v1.067h1.39v0.539h-1.39v2.538
		c0,0.583,0.18,0.788,0.682,0.788c0.206,0,0.412-0.018,0.69-0.07l0.099,0.402c-0.593,0.189-1.238,0.316-1.624,0.316
		c-0.852,0-1.229-0.342-1.229-1.123V32.867"/>
	<path fill="#231F20" d="M27.443,33.072v3.051l0.934,0.352v0.277h-3.078v-0.277l0.754-0.352v-3.022l-0.754-0.233v-0.278l2.145-0.377
		v0.502c0.682-0.358,0.969-0.475,1.192-0.475c0.208,0,0.413,0.071,0.683,0.224v1.167h-0.978l-0.252-0.646
		C27.747,32.983,27.667,32.992,27.443,33.072"/>
	<path fill="#231F20" d="M29.746,34.67c0-1.444,0.979-2.387,2.504-2.387c1.471,0,2.403,0.87,2.403,2.233
		c0,1.427-0.995,2.37-2.503,2.37C30.689,36.887,29.746,36.014,29.746,34.67L29.746,34.67z M31.174,34.49
		c0,0.556,0.107,1.066,0.296,1.418c0.171,0.313,0.385,0.438,0.735,0.438c0.655,0,1.022-0.6,1.022-1.694
		c0-0.547-0.108-1.049-0.297-1.417c-0.17-0.314-0.403-0.457-0.743-0.457C31.532,32.777,31.174,33.379,31.174,34.49"/>
	<polyline fill="#231F20" points="35.646,36.123 35.646,31.306 34.884,31.072 34.884,30.794 37.027,30.39 37.027,36.123 
		37.788,36.475 37.788,36.752 34.884,36.752 34.884,36.475 35.646,36.123 	"/>
	<path fill="#006F66" d="M40.487,34.248v1.875l0.753,0.352v0.277h-2.941v-0.277l0.753-0.352v-4.728l-0.753-0.351v-0.278h2.61
		c0.906,0,1.427,0.1,1.821,0.351c0.422,0.26,0.699,0.789,0.699,1.336c0,1.077-0.96,1.795-2.386,1.795H40.487L40.487,34.248z
		 M40.487,33.809h0.216c0.834,0,1.256-0.449,1.256-1.336c0-0.854-0.368-1.257-1.131-1.257h-0.341V33.809"/>
	<path fill="#006F66" d="M45.264,32.769l-0.412,0.816h-0.906v-0.906c0.915-0.288,1.461-0.396,1.991-0.396
		c0.439,0,0.735,0.063,1.005,0.197c0.412,0.206,0.528,0.432,0.528,0.961v2.367v0.119v0.051c0.01,0.055,0.055,0.09,0.171,0.117
		l0.592,0.145v0.27l-0.206,0.063l-0.386,0.107c-0.215,0.063-0.35,0.098-0.404,0.117c-0.116,0.025-0.251,0.045-0.385,0.045
		c-0.358,0-0.521-0.1-0.673-0.432l-0.341,0.17c-0.421,0.207-0.61,0.262-0.951,0.262c-0.78,0-1.345-0.486-1.345-1.168
		c0-0.564,0.376-0.968,1.031-1.103c0.341-0.072,1.067-0.161,1.525-0.197h0.035v-0.97c0-0.475-0.144-0.654-0.52-0.654
		C45.515,32.75,45.398,32.75,45.264,32.769L45.264,32.769z M46.134,34.76l-0.144,0.018c-0.063,0.009-0.162,0.026-0.296,0.045
		c-0.592,0.072-0.808,0.261-0.808,0.682c0,0.424,0.233,0.619,0.754,0.619c0.162,0,0.277-0.01,0.493-0.045V34.76"/>
	<path fill="#006F66" d="M50.086,36.762l-1.659-3.805l-0.538-0.351v-0.278h2.548v0.278l-0.583,0.351l0.629,1.722l0.152,0.377
		l0.108,0.287l0.905-2.386l-0.592-0.351v-0.278h1.785v0.278l-0.521,0.351l-1.849,4.432c-0.26,0.607-0.493,0.934-0.834,1.119
		c-0.251,0.146-0.529,0.207-0.861,0.207c-0.271,0-0.493-0.027-0.798-0.107v-0.922h0.833l0.161,0.59
		c0.423-0.09,0.63-0.314,0.89-0.951L50.086,36.762"/>
	<g>
		<path fill="#006F66" d="M58.148,36.84c0-0.254-0.089-0.672-0.424-1.125c-0.337-0.449-2.285-1.736-2.524-3.741
			c-0.695,0.896-0.952,2.052-0.952,2.893c0,0.827,0.21,2.226,0.884,3.024c0.356,0.426,0.799,0.664,1.33,0.664
			C57.394,38.555,58.148,37.787,58.148,36.84"/>
	</g>
	<g>
		<path fill="#006F66" d="M57.871,33.441c0.252,0,0.671-0.089,1.123-0.425c0.45-0.336,1.738-2.285,3.741-2.525
			c-0.896-0.694-2.052-0.952-2.891-0.952c-0.829,0-2.227,0.211-3.026,0.885c-0.427,0.357-0.662,0.799-0.662,1.331
			C56.156,32.686,56.924,33.441,57.871,33.441"/>
	</g>
	<g>
		<path fill="#006F66" d="M61.27,33.164c0,0.251,0.088,0.672,0.424,1.121c0.336,0.451,2.284,1.738,2.524,3.742
			c0.694-0.896,0.952-2.051,0.952-2.891c0-0.828-0.211-2.225-0.884-3.026c-0.357-0.426-0.799-0.663-1.33-0.663
			C62.025,31.447,61.27,32.217,61.27,33.164"/>
	</g>
	<g>
		<path fill="#006F66" d="M61.547,36.561c-0.252,0-0.672,0.09-1.122,0.424c-0.452,0.338-1.738,2.285-3.743,2.525
			c0.896,0.693,2.052,0.951,2.892,0.951c0.828,0,2.226-0.211,3.025-0.883c0.427-0.359,0.664-0.799,0.664-1.33
			C63.263,37.314,62.494,36.561,61.547,36.561"/>
	</g>
</g>
</svg>
