<?xml version="1.0" encoding="utf-8"?>
<!-- Generator: Adobe Illustrator 16.0.3, SVG Export Plug-In . SVG Version: 6.00 Build 0)  -->
<!DOCTYPE svg PUBLIC "-//W3C//DTD SVG 1.1//EN" "http://www.w3.org/Graphics/SVG/1.1/DTD/svg11.dtd">
<svg version="1.1" id="Layer_1" xmlns="http://www.w3.org/2000/svg" xmlns:xlink="http://www.w3.org/1999/xlink" x="0px" y="0px"
	 width="70px" height="70px" viewBox="-3.5 0 70 70" enable-background="new -3.5 0 70 70" xml:space="preserve">
<rect x="-3.5" fill="#FFFFFF" width="70" height="70"/>
<g>
	<polygon fill="#FFD400" points="28.954,23.071 6.5,31.267 28.954,27.3 	"/>
	<path fill="#6D6E71" d="M28.436,41.215c0-0.42-0.29-0.603-0.447-0.671c0.207-0.113,0.344-0.349,0.344-0.597
		c0-0.5-0.342-0.788-0.938-0.788h-1.286v3.02h1.274C28.041,42.179,28.436,41.818,28.436,41.215z M27.384,41.668H26.67V40.81h0.714
		c0.305,0,0.458,0.145,0.458,0.427C27.842,41.512,27.675,41.668,27.384,41.668z M27.379,40.318h-0.71v-0.646h0.68
		c0.269,0,0.398,0.107,0.398,0.325C27.747,40.145,27.684,40.318,27.379,40.318z M28.82,41.22v-1.246h0.545v1.215
		c0,0.368,0.129,0.539,0.406,0.539c0.271,0,0.409-0.181,0.409-0.536v-1.218h0.546v2.205H30.18v-0.177
		c-0.134,0.149-0.311,0.224-0.526,0.224C28.929,42.227,28.82,41.596,28.82,41.22z M37.13,42.179h-0.545v-2.205h0.545v0.187
		c0.134-0.15,0.328-0.234,0.552-0.234c0.528,0,0.809,0.349,0.809,1.007v1.246h-0.546v-1.214c0-0.368-0.126-0.539-0.396-0.539
		c-0.274,0-0.419,0.185-0.419,0.535V42.179z M31.76,40.749v1.43h-0.546v-2.204h0.546V40.749z M32.245,39.329l0.545-0.272v1.641v1.48
		h-0.545V39.329z M34.521,40.129c-0.133-0.139-0.304-0.202-0.488-0.202c-0.534,0-0.865,0.432-0.865,1.128
		c0,0.733,0.319,1.172,0.853,1.172c0.184,0,0.355-0.068,0.501-0.215v0.167h0.545v-3.122l-0.545,0.272V40.129z M34.138,41.725
		c-0.189,0-0.414-0.118-0.414-0.683c0-0.509,0.221-0.615,0.407-0.615c0.205,0,0.327,0.121,0.391,0.215v0.866
		C34.441,41.612,34.341,41.725,34.138,41.725z M46.402,39.927c-0.171,0-0.352,0.076-0.489,0.205v-1.018l-0.546,0.272v2.792h0.546
		v-0.164c0.134,0.139,0.307,0.212,0.5,0.212c0.543,0,0.854-0.427,0.854-1.172C47.268,40.358,46.936,39.927,46.402,39.927z
		 M46.3,40.426c0.198,0,0.411,0.161,0.411,0.615c0,0.459-0.13,0.683-0.399,0.683c-0.205,0-0.34-0.137-0.398-0.208v-0.866
		C46.001,40.511,46.141,40.426,46.3,40.426z M40.21,40.129c-0.131-0.132-0.304-0.203-0.489-0.203c-0.533,0-0.865,0.432-0.865,1.127
		c0,0.733,0.319,1.172,0.854,1.172c0.191,0,0.359-0.071,0.5-0.213v0.051c0,0.242-0.001,0.573-0.704,0.584l-0.025,0.002l0.192,0.427
		h0.012c0.721-0.011,1.069-0.372,1.069-1.103v-2.001H40.21V40.129z M40.21,40.64v0.867c-0.086,0.113-0.191,0.217-0.386,0.217
		c-0.188,0-0.413-0.117-0.413-0.683c0-0.509,0.222-0.615,0.408-0.615C40.024,40.424,40.146,40.547,40.21,40.64z M42.447,40.516
		c0.173-0.098,0.336-0.151,0.563-0.151c0.257,0,0.394,0.109,0.394,0.316v0.148c-0.126-0.063-0.307-0.104-0.469-0.104
		c-0.406,0-0.88,0.189-0.88,0.722c0,0.576,0.442,0.779,0.818,0.779c0.155,0,0.381-0.06,0.53-0.228v0.18h0.544v-1.486
		c0-0.479-0.333-0.766-0.89-0.766c-0.302,0-0.569,0.068-0.824,0.215L42.447,40.516z M42.602,41.447c0-0.195,0.141-0.313,0.375-0.313
		c0.161,0,0.302,0.031,0.428,0.108v0.302c-0.07,0.116-0.227,0.233-0.428,0.233C42.745,41.777,42.602,41.651,42.602,41.447z
		 M49.017,41.539c-0.099,0.09-0.235,0.186-0.436,0.186c-0.108,0-0.463-0.035-0.488-0.48h1.353c0.001-0.046,0.004-0.11,0.004-0.165
		c0-0.7-0.361-1.152-0.923-1.152c-0.574,0-0.989,0.484-0.989,1.152c0,0.698,0.41,1.147,1.044,1.147c0.291,0,0.572-0.114,0.779-0.347
		L49.017,41.539z M48.101,40.845c0.013-0.269,0.18-0.455,0.409-0.455c0.288,0,0.404,0.231,0.416,0.455H48.101z M54.273,41.539
		c-0.099,0.09-0.234,0.186-0.436,0.186c-0.108,0-0.463-0.035-0.488-0.48H54.7c0.003-0.046,0.007-0.11,0.007-0.165
		c0-0.7-0.363-1.152-0.926-1.152c-0.572,0-0.987,0.484-0.987,1.152c0,0.698,0.41,1.147,1.044,1.147c0.291,0,0.566-0.114,0.779-0.347
		L54.273,41.539z M53.355,40.845c0.014-0.269,0.181-0.455,0.41-0.455c0.288,0,0.403,0.231,0.417,0.455H53.355z M52.043,41.413
		c0,0.196,0.073,0.297,0.235,0.297c0.114,0,0.229-0.047,0.329-0.1l-0.063,0.514c-0.127,0.066-0.284,0.103-0.458,0.103
		c-0.434,0-0.588-0.364-0.588-0.677v-1.065h-0.339v-0.512h0.339v-0.565l0.545-0.272v0.838h0.496v0.512h-0.496V41.413L52.043,41.413z
		 M50.986,42.124c-0.127,0.066-0.285,0.103-0.458,0.103c-0.434,0-0.588-0.364-0.588-0.677v-1.065h-0.34v-0.512h0.34v-0.565
		l0.546-0.272v0.838h0.465v0.512h-0.465v0.929c0,0.196,0.074,0.297,0.235,0.297c0.115,0,0.229-0.047,0.329-0.1L50.986,42.124z
		 M56.356,40.59c-0.11-0.072-0.232-0.118-0.361-0.118c-0.269,0-0.394,0.163-0.394,0.513v1.194h-0.545v-2.204h0.545v0.191
		c0.131-0.165,0.295-0.239,0.487-0.239c0.146,0,0.307,0.053,0.411,0.134L56.356,40.59z M31.759,39.387v0.271h-0.545v-0.544h0.545
		V39.387z M35.552,39.974h0.545v0.695v1.51h-0.545V39.974z M36.095,39.387v0.271h-0.544v-0.544h0.544V39.387z M51.058,43.981
		c-0.133-0.138-0.304-0.201-0.488-0.201c-0.532,0-0.865,0.431-0.865,1.126c0,0.734,0.319,1.173,0.854,1.173
		c0.183,0,0.354-0.068,0.5-0.216v0.169h0.545v-3.123l-0.545,0.273V43.981z M50.674,45.578c-0.189,0-0.414-0.12-0.414-0.684
		c0-0.51,0.221-0.615,0.407-0.615c0.205,0,0.328,0.121,0.391,0.214v0.867C50.978,45.464,50.877,45.578,50.674,45.578z
		 M32.554,44.443c-0.109-0.075-0.232-0.119-0.36-0.119c-0.269,0-0.394,0.163-0.394,0.514v1.195h-0.545v-2.206H31.8v0.191
		c0.132-0.165,0.294-0.238,0.487-0.238c0.145,0,0.306,0.052,0.41,0.133L32.554,44.443z M28.269,43.825h0.538l-0.623,2.206h-0.467
		l-0.246-0.915c-0.041-0.161-0.09-0.355-0.119-0.481c-0.021,0.09-0.083,0.362-0.123,0.499l-0.242,0.897h-0.471l-0.623-2.206h0.562
		l0.203,0.825c0.031,0.128,0.083,0.374,0.111,0.541c0.03-0.165,0.09-0.401,0.13-0.554l0.23-0.813h0.463l0.23,0.813
		c0.039,0.146,0.098,0.384,0.13,0.557c0.025-0.144,0.071-0.349,0.117-0.557L28.269,43.825z M29.917,43.776
		c-0.58,0-1.002,0.484-1.002,1.152c0,0.666,0.421,1.15,1.002,1.15c0.582,0,1.004-0.484,1.004-1.15
		C30.921,44.261,30.498,43.776,29.917,43.776z M29.917,45.565c-0.271,0-0.446-0.25-0.446-0.637c0-0.388,0.175-0.639,0.446-0.639
		s0.448,0.25,0.448,0.639C30.363,45.315,30.188,45.565,29.917,45.565z M48.375,44.443c-0.108-0.075-0.23-0.119-0.359-0.119
		c-0.269,0-0.395,0.163-0.395,0.514v1.195h-0.544v-2.206h0.544v0.191c0.132-0.165,0.295-0.238,0.488-0.238
		c0.146,0,0.306,0.052,0.41,0.133L48.375,44.443z M44.089,43.825h0.539l-0.623,2.206h-0.468l-0.245-0.915
		c-0.042-0.161-0.091-0.355-0.12-0.481c-0.021,0.09-0.082,0.362-0.122,0.499l-0.242,0.897h-0.472l-0.003-0.013l-0.619-2.193h0.562
		l0.203,0.823c0.03,0.129,0.082,0.375,0.11,0.541c0.031-0.163,0.09-0.4,0.13-0.553l0.23-0.812h0.464l0.229,0.812
		c0.041,0.147,0.1,0.385,0.132,0.556c0.025-0.142,0.07-0.348,0.117-0.556L44.089,43.825z M45.734,43.777
		c-0.58,0-1.002,0.483-1.002,1.151s0.421,1.152,1.002,1.152c0.58,0,1.002-0.484,1.002-1.152S46.315,43.777,45.734,43.777z
		 M45.734,45.566c-0.272,0-0.447-0.25-0.447-0.638s0.175-0.639,0.447-0.639c0.271,0,0.447,0.251,0.447,0.639
		S46.006,45.566,45.734,45.566z M34.176,44.553l0.672,1.479h-0.603l-0.464-1.023l-0.287,0.362v0.661h-0.543v-2.847l0.543-0.272
		v1.756c0.067-0.099,0.147-0.202,0.207-0.277l0.435-0.565h0.629L34.176,44.553z M36.764,46.032h-0.547v-2.207h0.547v0.188
		c0.133-0.151,0.327-0.233,0.552-0.233c0.528,0,0.808,0.348,0.808,1.006v1.247h-0.545v-1.216c0-0.368-0.126-0.538-0.397-0.538
		c-0.273,0-0.417,0.185-0.417,0.535V46.032z M39.844,43.98c-0.132-0.131-0.304-0.202-0.489-0.202c-0.534,0-0.865,0.432-0.865,1.128
		c0,0.733,0.318,1.172,0.854,1.172c0.19,0,0.36-0.071,0.501-0.215v0.053c0,0.241-0.001,0.572-0.705,0.584h-0.024l0.192,0.429h0.011
		c0.72-0.012,1.07-0.372,1.07-1.104v-2h-0.544V43.98z M39.844,44.492v0.866c-0.088,0.113-0.192,0.218-0.387,0.218
		c-0.188,0-0.413-0.118-0.413-0.684c0-0.508,0.223-0.614,0.409-0.614C39.657,44.277,39.779,44.398,39.844,44.492z M35.185,43.825
		h0.545v0.946v1.261h-0.545V43.825z M35.728,43.238v0.272h-0.544v-0.544h0.544V43.238z M48.778,43.185l0.545-0.272v1.125v1.994
		h-0.545V43.185z M10.104,41.544h4.106v-2.385h-4.106v-1.874h4.543l-1.508-2.611H6.697v11.357h9.086v-2.612h-5.68V41.544z
		 M21.83,34.674L19.9,38.38l-1.925-3.706H14.21l3.969,6.872v4.486h3.396v-4.486l3.975-6.872H21.83z"/>
</g>
</svg>
