<?xml version="1.0" encoding="utf-8"?>
<!-- Generator: Adobe Illustrator 16.0.3, SVG Export Plug-In . SVG Version: 6.00 Build 0)  -->
<!DOCTYPE svg PUBLIC "-//W3C//DTD SVG 1.1//EN" "http://www.w3.org/Graphics/SVG/1.1/DTD/svg11.dtd">
<svg version="1.1" id="Layer_1" xmlns="http://www.w3.org/2000/svg" xmlns:xlink="http://www.w3.org/1999/xlink" x="0px" y="0px"
	 width="63px" height="30px" viewBox="0 0 63 30" enable-background="new 0 0 63 30" xml:space="preserve">
<g>
	<polygon fill="#FFD400" points="28.299,0 0.064,10.305 28.299,5.317 	"/>
	<path fill="#6D6E71" d="M27.646,22.814c0-0.527-0.364-0.758-0.562-0.844c0.26-0.141,0.432-0.436,0.432-0.75
		c0-0.629-0.43-0.989-1.179-0.989h-1.617v3.796h1.602C27.151,24.027,27.646,23.574,27.646,22.814z M26.324,23.385h-0.898v-1.081
		h0.898c0.383,0,0.576,0.182,0.576,0.538C26.9,23.188,26.69,23.385,26.324,23.385z M26.318,21.687h-0.893v-0.812h0.855
		c0.337,0,0.5,0.134,0.5,0.408C26.781,21.468,26.701,21.687,26.318,21.687z M28.13,22.821v-1.567h0.685v1.528
		c0,0.462,0.163,0.677,0.511,0.677c0.342,0,0.515-0.226,0.515-0.673v-1.532h0.686v2.773H29.84v-0.222
		c-0.168,0.187-0.391,0.281-0.662,0.281C28.267,24.087,28.13,23.294,28.13,22.821z M38.579,24.027h-0.685v-2.773h0.685v0.234
		c0.168-0.189,0.413-0.294,0.694-0.294c0.665,0,1.017,0.438,1.017,1.266v1.567h-0.686V22.5c0-0.463-0.159-0.678-0.499-0.678
		c-0.344,0-0.526,0.232-0.526,0.673V24.027z M31.826,22.229v1.799h-0.686v-2.773h0.686V22.229z M32.437,20.444l0.685-0.343v2.063
		v1.862h-0.685V20.444z M35.3,21.45c-0.167-0.174-0.383-0.255-0.615-0.255c-0.671,0-1.087,0.543-1.087,1.418
		c0,0.923,0.401,1.474,1.072,1.474c0.23,0,0.446-0.086,0.63-0.271v0.212h0.684v-3.926L35.3,20.444V21.45z M34.817,23.456
		c-0.238,0-0.521-0.149-0.521-0.859c0-0.64,0.278-0.773,0.513-0.773c0.257,0,0.411,0.152,0.491,0.27v1.09
		C35.198,23.314,35.072,23.456,34.817,23.456z M50.238,21.195c-0.214,0-0.441,0.096-0.615,0.258v-1.28l-0.685,0.342v3.513h0.685
		V23.82c0.169,0.175,0.386,0.267,0.629,0.267c0.683,0,1.074-0.537,1.074-1.474C51.326,21.738,50.909,21.195,50.238,21.195z
		 M50.11,21.823c0.25,0,0.517,0.203,0.517,0.773c0,0.578-0.164,0.859-0.502,0.859c-0.258,0-0.428-0.172-0.502-0.262v-1.09
		C49.735,21.93,49.909,21.823,50.11,21.823z M42.452,21.449c-0.165-0.165-0.382-0.255-0.615-0.255c-0.671,0-1.088,0.543-1.088,1.418
		c0,0.922,0.401,1.473,1.074,1.473c0.241,0,0.453-0.09,0.629-0.268v0.064c0,0.305-0.001,0.72-0.886,0.735l-0.031,0.001l0.242,0.538
		h0.014c0.906-0.015,1.346-0.469,1.346-1.388v-2.515h-0.685V21.449z M42.452,22.092v1.089c-0.108,0.143-0.24,0.273-0.485,0.273
		c-0.236,0-0.519-0.148-0.519-0.858c0-0.64,0.279-0.774,0.513-0.774C42.219,21.821,42.372,21.975,42.452,22.092z M45.265,21.936
		c0.218-0.123,0.423-0.191,0.709-0.191c0.323,0,0.495,0.137,0.495,0.397v0.188c-0.158-0.08-0.386-0.131-0.59-0.131
		c-0.51,0-1.105,0.238-1.105,0.909c0,0.723,0.555,0.979,1.028,0.979c0.195,0,0.479-0.076,0.667-0.286v0.227h0.684v-1.869
		c0-0.604-0.418-0.963-1.119-0.963c-0.379,0-0.715,0.085-1.036,0.268L45.265,21.936z M45.459,23.107
		c0-0.246,0.177-0.394,0.473-0.394c0.202,0,0.378,0.039,0.537,0.137v0.379c-0.088,0.146-0.286,0.293-0.537,0.293
		C45.64,23.522,45.459,23.363,45.459,23.107z M53.526,23.222c-0.124,0.113-0.295,0.234-0.547,0.234
		c-0.137,0-0.582-0.044-0.615-0.604h1.7c0.003-0.058,0.007-0.139,0.007-0.208c0-0.88-0.456-1.448-1.162-1.448
		c-0.721,0-1.243,0.609-1.243,1.448c0,0.877,0.516,1.443,1.313,1.443c0.365,0,0.719-0.144,0.979-0.436L53.526,23.222z M52.374,22.35
		c0.017-0.339,0.226-0.573,0.515-0.573c0.362,0,0.507,0.292,0.523,0.573H52.374z M60.136,23.222
		c-0.124,0.113-0.295,0.234-0.547,0.234c-0.137,0-0.582-0.044-0.615-0.604h1.699c0.004-0.058,0.008-0.139,0.008-0.208
		c0-0.88-0.456-1.448-1.163-1.448c-0.72,0-1.242,0.609-1.242,1.448c0,0.877,0.516,1.443,1.313,1.443
		c0.365,0,0.712-0.144,0.979-0.436L60.136,23.222z M58.982,22.35c0.017-0.339,0.227-0.573,0.516-0.573
		c0.362,0,0.507,0.292,0.523,0.573H58.982z M57.331,23.064c0,0.247,0.093,0.373,0.296,0.373c0.144,0,0.288-0.058,0.414-0.125
		l-0.08,0.646c-0.159,0.084-0.358,0.129-0.575,0.129c-0.546,0-0.74-0.458-0.74-0.851v-1.34H56.22v-0.643h0.426v-0.711l0.686-0.342
		v1.053h0.623v0.643h-0.623V23.064z M56.003,23.958c-0.16,0.084-0.358,0.129-0.576,0.129c-0.545,0-0.739-0.458-0.739-0.851v-1.34
		H54.26v-0.643h0.428v-0.711l0.686-0.342v1.053h0.584v0.643h-0.584v1.168c0,0.247,0.093,0.373,0.296,0.373
		c0.144,0,0.288-0.058,0.414-0.125L56.003,23.958z M62.755,22.03c-0.138-0.093-0.292-0.15-0.454-0.15
		c-0.337,0-0.494,0.205-0.494,0.646v1.502h-0.686v-2.773h0.686v0.241c0.164-0.208,0.37-0.3,0.612-0.3
		c0.183,0,0.386,0.065,0.517,0.167L62.755,22.03z M31.825,20.516v0.342h-0.685v-0.684h0.685V20.516z M36.595,21.254h0.685v0.875
		v1.898h-0.685V21.254z M37.278,20.516v0.342h-0.684v-0.684h0.684V20.516z M56.093,26.293c-0.167-0.173-0.382-0.253-0.615-0.253
		c-0.67,0-1.087,0.542-1.087,1.417c0,0.923,0.401,1.474,1.073,1.474c0.229,0,0.445-0.086,0.629-0.271v0.212h0.685v-3.926
		l-0.685,0.343V26.293z M55.61,28.3c-0.238,0-0.521-0.149-0.521-0.859c0-0.64,0.278-0.773,0.513-0.773
		c0.258,0,0.411,0.152,0.491,0.27v1.09C55.991,28.158,55.865,28.3,55.61,28.3z M32.825,26.874c-0.138-0.094-0.292-0.15-0.453-0.15
		c-0.338,0-0.495,0.205-0.495,0.646v1.503h-0.685v-2.774h0.685v0.241c0.165-0.208,0.37-0.299,0.612-0.299
		c0.183,0,0.385,0.064,0.517,0.166L32.825,26.874z M27.436,26.098h0.677l-0.783,2.773h-0.588l-0.309-1.151
		c-0.051-0.203-0.113-0.446-0.15-0.604c-0.026,0.113-0.104,0.455-0.154,0.626l-0.305,1.129h-0.592l-0.783-2.773h0.706l0.255,1.036
		c0.039,0.162,0.104,0.471,0.14,0.68c0.038-0.206,0.113-0.504,0.164-0.695l0.289-1.021h0.583l0.289,1.021
		c0.049,0.184,0.123,0.483,0.164,0.699c0.032-0.179,0.089-0.438,0.147-0.699L27.436,26.098z M29.51,26.036
		c-0.73,0-1.261,0.608-1.261,1.448c0,0.839,0.53,1.448,1.261,1.448s1.261-0.609,1.261-1.448
		C30.771,26.645,30.24,26.036,29.51,26.036z M29.51,28.286c-0.342,0-0.562-0.315-0.562-0.802c0-0.487,0.22-0.803,0.562-0.803
		c0.341,0,0.562,0.315,0.562,0.803C30.071,27.971,29.851,28.286,29.51,28.286z M52.72,26.874c-0.137-0.094-0.291-0.15-0.453-0.15
		c-0.338,0-0.495,0.205-0.495,0.646v1.503h-0.685v-2.774h0.685v0.241c0.165-0.208,0.37-0.299,0.613-0.299
		c0.183,0,0.385,0.064,0.516,0.166L52.72,26.874z M47.33,26.098h0.678l-0.783,2.773h-0.589l-0.309-1.151
		c-0.052-0.203-0.113-0.446-0.15-0.604c-0.026,0.113-0.104,0.455-0.153,0.626l-0.305,1.129h-0.593l-0.004-0.015l-0.779-2.759h0.707
		l0.254,1.036c0.039,0.162,0.104,0.471,0.14,0.68c0.038-0.206,0.113-0.504,0.164-0.695l0.289-1.021h0.583l0.288,1.021
		c0.05,0.184,0.125,0.483,0.166,0.699c0.031-0.179,0.088-0.438,0.146-0.699L47.33,26.098z M49.399,26.037
		c-0.73,0-1.261,0.608-1.261,1.448s0.53,1.448,1.261,1.448c0.729,0,1.26-0.608,1.26-1.448S50.129,26.037,49.399,26.037z
		 M49.399,28.287c-0.342,0-0.563-0.314-0.563-0.802s0.221-0.803,0.563-0.803c0.341,0,0.562,0.315,0.562,0.803
		S49.74,28.287,49.399,28.287z M34.865,27.012l0.845,1.859h-0.758l-0.583-1.287l-0.361,0.456v0.831h-0.683v-3.58l0.683-0.342v2.208
		c0.085-0.123,0.186-0.254,0.259-0.348l0.547-0.712h0.792L34.865,27.012z M38.118,28.872h-0.686v-2.774h0.686v0.235
		c0.168-0.191,0.412-0.294,0.694-0.294c0.664,0,1.016,0.438,1.016,1.265v1.568h-0.685v-1.528c0-0.463-0.159-0.677-0.5-0.677
		c-0.344,0-0.525,0.232-0.525,0.673V28.872z M41.991,26.292c-0.165-0.164-0.382-0.254-0.615-0.254c-0.671,0-1.088,0.543-1.088,1.418
		c0,0.923,0.401,1.474,1.073,1.474c0.241,0,0.453-0.091,0.63-0.269v0.065c0,0.304-0.001,0.719-0.886,0.734l-0.031,0.001L41.316,30
		h0.014c0.905-0.015,1.346-0.469,1.346-1.388v-2.516h-0.685V26.292z M41.991,26.936v1.09c-0.109,0.142-0.241,0.273-0.486,0.273
		c-0.235,0-0.519-0.149-0.519-0.859c0-0.64,0.28-0.773,0.514-0.773C41.757,26.666,41.911,26.818,41.991,26.936z M36.133,26.098
		h0.685v1.189v1.585h-0.685V26.098z M36.817,25.359v0.343h-0.685v-0.685h0.685V25.359z M53.226,25.291l0.685-0.342v1.414v2.508
		h-0.685V25.291z M4.595,23.229h5.164V20.23H4.595v-2.356h5.713l-1.896-3.285H0.312v14.282h11.425v-3.285H4.595V23.229z
		 M19.341,14.589l-2.427,4.661l-2.42-4.661H9.759l4.99,8.641v5.642h4.27v-5.642l4.997-8.641H19.341z"/>
</g>
</svg>
