<?xml version="1.0" encoding="utf-8"?>
<!-- Generator: Adobe Illustrator 16.0.3, SVG Export Plug-In . SVG Version: 6.00 Build 0)  -->
<!DOCTYPE svg PUBLIC "-//W3C//DTD SVG 1.1//EN" "http://www.w3.org/Graphics/SVG/1.1/DTD/svg11.dtd">
<svg version="1.1" id="Layer_1" xmlns="http://www.w3.org/2000/svg" xmlns:xlink="http://www.w3.org/1999/xlink" x="0px" y="0px"
	 width="70px" height="70px" viewBox="0 0 70 70" enable-background="new 0 0 70 70" xml:space="preserve">
<rect fill="#FFFFFF" width="70" height="70"/>
<g>
	<g>
		<linearGradient id="SVGID_1_" gradientUnits="userSpaceOnUse" x1="21.3027" y1="51.9648" x2="27.8905" y2="45.3771">
			<stop  offset="0" style="stop-color:#5A5A5D"/>
			<stop  offset="1" style="stop-color:#424242"/>
		</linearGradient>
		<path fill="url(#SVGID_1_)" d="M22.594,52.096c0.263,0.422,0.69,0.635,1.282,0.635c0.493,0,0.933-0.046,1.319-0.136
			c0.386-0.091,0.657-0.271,0.813-0.544v-2.279h-1.405v-0.456h2.983v0.468h-0.493v2.157l0.012,0.58l-0.061,0.061
			c-0.478,0.182-0.993,0.328-1.548,0.438s-1.153,0.167-1.794,0.167c-0.847,0-1.5-0.264-1.961-0.789
			c-0.46-0.526-0.69-1.262-0.69-2.207v-2.898c0-0.436,0.063-0.836,0.191-1.203c0.128-0.364,0.307-0.681,0.536-0.948
			c0.229-0.267,0.504-0.475,0.82-0.623c0.316-0.146,0.659-0.222,1.029-0.222c0.296,0,0.563,0.006,0.801,0.019
			c0.239,0.012,0.456,0.035,0.654,0.067c0.197,0.033,0.384,0.072,0.561,0.117s0.359,0.098,0.549,0.154
			c0.083,0.042,0.144,0.062,0.186,0.062c0.058,0,0.099-0.029,0.124-0.087c0.049-0.105,0.073-0.181,0.073-0.221h0.345v2.392
			l-0.493,0.012l-0.012-0.728c-0.14-0.246-0.313-0.456-0.519-0.629c-0.205-0.171-0.43-0.31-0.672-0.413
			c-0.242-0.102-0.493-0.176-0.752-0.222c-0.26-0.045-0.512-0.067-0.758-0.067c-0.519,0-0.9,0.218-1.146,0.653
			c-0.248,0.436-0.37,1.053-0.37,1.85v2.972C22.199,51.049,22.331,51.671,22.594,52.096z"/>
		<linearGradient id="SVGID_2_" gradientUnits="userSpaceOnUse" x1="27.5098" y1="52.4434" x2="32.0181" y2="47.935">
			<stop  offset="0" style="stop-color:#5A5A5D"/>
			<stop  offset="1" style="stop-color:#424242"/>
		</linearGradient>
		<path fill="url(#SVGID_2_)" d="M30.904,52.631v0.456h-2.75v-0.456h0.888v-4.426h-0.888v-0.444h1.109
			c0.173,0,0.312-0.013,0.413-0.037c0.103-0.024,0.199-0.065,0.29-0.124v0.766c0.164-0.264,0.365-0.453,0.604-0.567
			c0.238-0.114,0.497-0.174,0.776-0.174c0.222,0,0.392,0.052,0.512,0.156c0.119,0.102,0.205,0.221,0.259,0.356
			c0.054,0.135,0.084,0.277,0.093,0.425c0.008,0.149,0.013,0.264,0.013,0.346c0,0.206-0.123,0.31-0.37,0.31
			c-0.255,0.007-0.44-0.079-0.555-0.261c0-0.057,0.002-0.114,0.005-0.172c0.005-0.057,0.011-0.119,0.02-0.186
			c0.008-0.064,0.022-0.129,0.043-0.191c0.021-0.062,0.047-0.121,0.08-0.178c0-0.066-0.023-0.109-0.068-0.129
			c-0.045-0.021-0.112-0.032-0.203-0.032c-0.156,0-0.308,0.033-0.456,0.1c-0.147,0.065-0.278,0.152-0.388,0.259
			c-0.112,0.107-0.2,0.229-0.266,0.37c-0.066,0.14-0.099,0.283-0.099,0.432v3.416L30.904,52.631z"/>
		<linearGradient id="SVGID_3_" gradientUnits="userSpaceOnUse" x1="33.2842" y1="52.9268" x2="37.5084" y2="48.7025">
			<stop  offset="0" style="stop-color:#5A5A5D"/>
			<stop  offset="1" style="stop-color:#424242"/>
		</linearGradient>
		<path fill="url(#SVGID_3_)" d="M35.213,53.087c-0.366,0.05-0.733,0.074-1.104,0.074c-0.396,0-0.684-0.092-0.869-0.277
			s-0.277-0.45-0.277-0.795v-0.766c0-0.394,0.163-0.693,0.493-0.898c0.329-0.206,0.813-0.313,1.455-0.32l1.307-0.014v-1.405
			c0-0.255-0.066-0.422-0.197-0.499c-0.132-0.078-0.329-0.118-0.592-0.118h-0.616c-0.256,0-0.456,0.04-0.604,0.118
			c-0.147,0.077-0.222,0.204-0.222,0.375c0.008,0.092,0.045,0.178,0.111,0.26c0.065,0.082,0.098,0.197,0.098,0.346
			c-0.09,0.172-0.245,0.258-0.469,0.258c-0.254-0.017-0.411-0.127-0.469-0.333v-0.394c0-0.346,0.121-0.611,0.365-0.796
			c0.241-0.185,0.597-0.278,1.065-0.278h0.839c0.518,0,0.916,0.104,1.195,0.31s0.419,0.518,0.419,0.937v3.354
			c0,0.165,0.012,0.281,0.032,0.352c0.02,0.069,0.071,0.104,0.153,0.104c0.107,0,0.23-0.032,0.37-0.1
			c0.14-0.064,0.246-0.118,0.32-0.159l0.062,0.407c-0.172,0.098-0.367,0.179-0.585,0.24c-0.219,0.061-0.459,0.092-0.722,0.092
			c-0.157,0-0.279-0.041-0.37-0.124c-0.09-0.081-0.148-0.168-0.172-0.258C35.918,52.936,35.579,53.037,35.213,53.087z
			 M36.218,50.498l-1.196,0.013c-0.42,0.007-0.707,0.081-0.863,0.221c-0.155,0.142-0.233,0.371-0.233,0.691v0.444
			c0,0.279,0.045,0.48,0.136,0.603c0.09,0.125,0.279,0.187,0.566,0.187c0.419,0,0.754-0.045,1.005-0.136
			c0.25-0.091,0.446-0.202,0.586-0.333V50.498z"/>
		<linearGradient id="SVGID_4_" gradientUnits="userSpaceOnUse" x1="38.9287" y1="52.5088" x2="45.2182" y2="46.2193">
			<stop  offset="0" style="stop-color:#5A5A5D"/>
			<stop  offset="1" style="stop-color:#424242"/>
		</linearGradient>
		<path fill="url(#SVGID_4_)" d="M40.347,53.161c-0.542,0-0.963-0.166-1.263-0.499c-0.301-0.333-0.45-0.795-0.45-1.388v-1.714
			c0-0.279,0.041-0.537,0.123-0.776c0.082-0.237,0.198-0.444,0.352-0.616c0.151-0.173,0.333-0.306,0.542-0.4
			c0.209-0.096,0.438-0.144,0.684-0.144c0.371,0,0.724,0.052,1.062,0.156c0.337,0.102,0.628,0.269,0.876,0.498v-3.464h-0.851v-0.443
			h1.084c0.165,0,0.301-0.013,0.406-0.038c0.107-0.024,0.206-0.066,0.297-0.123v8.421h0.789v0.456h-1.726v-0.469
			C41.77,52.98,41.128,53.161,40.347,53.161z M42.271,49.08c-0.082-0.296-0.277-0.539-0.586-0.728
			c-0.309-0.189-0.713-0.284-1.215-0.284c-0.338,0-0.563,0.111-0.679,0.333c-0.114,0.223-0.172,0.567-0.172,1.036v1.936
			c0,0.485,0.058,0.831,0.172,1.037c0.115,0.204,0.354,0.308,0.716,0.308c0.493,0,0.902-0.082,1.227-0.248
			c0.324-0.163,0.504-0.364,0.537-0.603V49.08z"/>
		<linearGradient id="SVGID_5_" gradientUnits="userSpaceOnUse" x1="44.8682" y1="52.4209" x2="48.8075" y2="48.4815">
			<stop  offset="0" style="stop-color:#5A5A5D"/>
			<stop  offset="1" style="stop-color:#424242"/>
		</linearGradient>
		<path fill="url(#SVGID_5_)" d="M48.954,51.743c-0.042,0.271-0.108,0.499-0.203,0.685s-0.212,0.331-0.353,0.438
			c-0.139,0.107-0.295,0.183-0.468,0.229c-0.174,0.045-0.357,0.067-0.556,0.067H46.34c-0.526,0-0.935-0.166-1.227-0.499
			c-0.293-0.333-0.438-0.787-0.438-1.362v-1.739c0-0.271,0.041-0.525,0.123-0.764c0.083-0.238,0.194-0.444,0.333-0.617
			c0.141-0.172,0.31-0.308,0.507-0.406c0.196-0.1,0.41-0.149,0.641-0.149h0.888c0.246,0,0.475,0.04,0.685,0.119
			c0.209,0.077,0.39,0.186,0.542,0.325c0.152,0.141,0.273,0.303,0.364,0.488c0.091,0.184,0.139,0.389,0.147,0.61
			c0.008,0.164,0.008,0.313,0,0.443c-0.009,0.132-0.016,0.255-0.024,0.37c-0.017,0.223-0.049,0.332-0.099,0.332h-3.12v1.53
			c0,0.583,0.28,0.875,0.839,0.875h0.789c0.674,0,1.069-0.35,1.185-1.049V51.46h0.48V51.743z M47.893,49.869l0.025-0.9
			c0.008-0.32-0.054-0.551-0.185-0.69c-0.132-0.139-0.337-0.21-0.616-0.21h-0.642c-0.542,0-0.814,0.316-0.814,0.95v0.851H47.893z"/>
	</g>
	<g>
		<path fill="#636468" d="M22.39,57.648c-0.014,0.089-0.036,0.165-0.068,0.227c-0.03,0.062-0.07,0.109-0.116,0.146
			c-0.046,0.035-0.098,0.061-0.154,0.075c-0.058,0.015-0.119,0.022-0.185,0.022h-0.343c-0.176,0-0.311-0.055-0.407-0.166
			c-0.097-0.109-0.146-0.261-0.146-0.451v-0.575c0-0.091,0.014-0.176,0.041-0.255c0.027-0.078,0.064-0.147,0.11-0.204
			s0.103-0.102,0.167-0.135c0.066-0.033,0.137-0.048,0.214-0.048h0.293c0.082,0,0.158,0.012,0.228,0.037
			c0.069,0.026,0.129,0.063,0.18,0.108c0.051,0.047,0.091,0.101,0.12,0.162c0.031,0.062,0.047,0.128,0.049,0.202
			c0.004,0.055,0.004,0.104,0,0.146c-0.002,0.045-0.005,0.086-0.007,0.124c-0.006,0.073-0.017,0.109-0.033,0.109h-1.033v0.507
			c0,0.193,0.092,0.291,0.276,0.291h0.263c0.223,0,0.354-0.116,0.392-0.348v-0.069h0.16V57.648z M22.037,57.027l0.009-0.299
			c0.003-0.106-0.018-0.183-0.062-0.229c-0.044-0.047-0.111-0.07-0.204-0.07h-0.212c-0.181,0-0.27,0.106-0.27,0.315v0.282H22.037z"
			/>
		<path fill="#636468" d="M23.432,58.118c-0.18,0-0.32-0.055-0.419-0.166c-0.1-0.109-0.149-0.263-0.149-0.459v-0.567
			c0-0.094,0.014-0.18,0.041-0.258c0.027-0.079,0.065-0.147,0.116-0.204c0.051-0.058,0.11-0.102,0.18-0.134
			c0.07-0.032,0.146-0.046,0.227-0.046c0.123,0,0.24,0.016,0.353,0.05c0.111,0.034,0.207,0.09,0.29,0.166v-1.149h-0.282v-0.146
			h0.359c0.056,0,0.1-0.004,0.135-0.012c0.036-0.009,0.067-0.022,0.099-0.042v2.792h0.261v0.151h-0.571v-0.155
			C23.902,58.06,23.69,58.118,23.432,58.118z M24.069,56.765c-0.028-0.097-0.093-0.178-0.194-0.241
			c-0.104-0.062-0.236-0.094-0.402-0.094c-0.112,0-0.187,0.037-0.225,0.111c-0.039,0.073-0.058,0.188-0.058,0.343v0.642
			c0,0.161,0.019,0.275,0.058,0.343c0.038,0.069,0.116,0.104,0.236,0.104c0.164,0,0.299-0.027,0.406-0.082
			c0.108-0.055,0.168-0.121,0.179-0.2V56.765z"/>
		<path fill="#636468" d="M26.513,57.942h0.286v0.151h-0.597v-0.192c-0.081,0.079-0.179,0.134-0.293,0.168
			c-0.111,0.033-0.231,0.049-0.356,0.049c-0.289,0-0.434-0.126-0.434-0.376v-1.263h-0.286v-0.151c0.028,0,0.061,0,0.099,0
			c0.04,0,0.088-0.001,0.143-0.005c0.054-0.002,0.102-0.005,0.143-0.01c0.041-0.004,0.077-0.008,0.106-0.015l0.103-0.015v1.458
			c0,0.153,0.069,0.229,0.208,0.229c0.079,0,0.152-0.01,0.222-0.029c0.067-0.02,0.127-0.042,0.178-0.072
			c0.05-0.027,0.09-0.06,0.12-0.093c0.03-0.035,0.046-0.066,0.049-0.097v-1.201H25.92v-0.151c0.03,0,0.066,0,0.106,0
			c0.041,0,0.089-0.001,0.143-0.005c0.055-0.002,0.104-0.005,0.144-0.01c0.041-0.004,0.076-0.008,0.106-0.015l0.094-0.015V57.942z"
			/>
		<path fill="#636468" d="M28.522,57.551c-0.002,0.077-0.012,0.152-0.027,0.222c-0.017,0.07-0.04,0.13-0.07,0.18
			c-0.029,0.052-0.065,0.092-0.108,0.12c-0.041,0.03-0.088,0.046-0.141,0.046h-0.434c-0.09,0-0.172-0.015-0.246-0.042
			c-0.076-0.029-0.14-0.069-0.191-0.121c-0.055-0.053-0.095-0.113-0.124-0.184c-0.028-0.072-0.043-0.15-0.043-0.238v-0.617
			c0-0.09,0.015-0.173,0.048-0.251c0.03-0.078,0.075-0.144,0.132-0.2c0.058-0.055,0.125-0.1,0.205-0.133
			c0.078-0.033,0.164-0.048,0.258-0.048c0.163,0,0.304,0.015,0.42,0.048c0.117,0.033,0.212,0.078,0.283,0.135v0.271
			c-0.022,0.063-0.076,0.095-0.16,0.098c-0.087,0-0.14-0.033-0.159-0.098c0.006-0.058,0.015-0.104,0.028-0.136
			c0.016-0.041,0.025-0.078,0.025-0.11c-0.033-0.014-0.08-0.027-0.14-0.04c-0.061-0.015-0.154-0.021-0.282-0.021
			c-0.117,0-0.201,0.029-0.255,0.089c-0.053,0.059-0.08,0.152-0.08,0.283v0.772c0,0.131,0.023,0.23,0.072,0.296
			c0.047,0.068,0.128,0.102,0.242,0.102h0.277c0.053,0,0.098-0.013,0.138-0.037c0.039-0.024,0.072-0.058,0.099-0.099
			c0.025-0.041,0.046-0.086,0.062-0.137c0.014-0.05,0.023-0.1,0.025-0.148H28.522z"/>
		<path fill="#636468" d="M29.658,58.094c-0.122,0.016-0.243,0.024-0.366,0.024c-0.131,0-0.228-0.03-0.288-0.092
			c-0.062-0.063-0.092-0.149-0.092-0.265v-0.253c0-0.131,0.054-0.229,0.163-0.299c0.109-0.067,0.27-0.103,0.482-0.105l0.434-0.004
			v-0.467c0-0.083-0.021-0.139-0.066-0.164c-0.043-0.027-0.108-0.04-0.195-0.04h-0.204c-0.085,0-0.152,0.013-0.201,0.04
			c-0.049,0.025-0.072,0.066-0.072,0.124c0.002,0.03,0.014,0.059,0.036,0.086c0.021,0.027,0.032,0.065,0.032,0.114
			c-0.03,0.058-0.081,0.086-0.155,0.086c-0.084-0.006-0.137-0.043-0.155-0.11v-0.13c0-0.116,0.04-0.203,0.121-0.265
			c0.08-0.062,0.197-0.091,0.353-0.091h0.278c0.172,0,0.305,0.033,0.396,0.101c0.093,0.068,0.139,0.172,0.139,0.312v1.111
			c0,0.054,0.003,0.094,0.011,0.116c0.007,0.024,0.023,0.035,0.051,0.035c0.035,0,0.077-0.011,0.123-0.032
			c0.046-0.022,0.081-0.04,0.105-0.054l0.021,0.135c-0.058,0.032-0.121,0.06-0.193,0.08c-0.072,0.02-0.152,0.03-0.239,0.03
			c-0.052,0-0.093-0.013-0.123-0.041c-0.03-0.027-0.049-0.056-0.057-0.085C29.891,58.044,29.779,58.077,29.658,58.094z
			 M29.991,57.235l-0.396,0.004c-0.139,0.003-0.235,0.027-0.286,0.074c-0.053,0.047-0.078,0.122-0.078,0.229v0.146
			c0,0.093,0.016,0.16,0.045,0.2c0.03,0.04,0.093,0.061,0.188,0.061c0.139,0,0.25-0.015,0.332-0.045
			c0.084-0.029,0.149-0.066,0.195-0.11V57.235z"/>
		<path fill="#636468" d="M31.421,57.932c0.026,0.026,0.074,0.04,0.143,0.04c0.063,0,0.117-0.017,0.162-0.048
			s0.069-0.059,0.075-0.083l0.029,0.036v0.086c-0.027,0.038-0.068,0.072-0.12,0.106c-0.054,0.033-0.138,0.049-0.252,0.049
			c-0.256,0-0.385-0.107-0.385-0.323v-1.319h-0.294v-0.147h0.14c0.097-0.052,0.168-0.128,0.214-0.228
			c0.045-0.099,0.074-0.223,0.088-0.369h0.159v0.597h0.417v0.147H31.38v1.315C31.38,57.858,31.394,57.906,31.421,57.932z"/>
		<path fill="#636468" d="M33.162,57.942v0.151h-0.879v-0.151h0.298l-0.008-1.467h-0.29v-0.147h0.364
			c0.057,0,0.103-0.005,0.137-0.012c0.033-0.009,0.067-0.022,0.1-0.042v1.672L33.162,57.942z M32.573,55.556
			c0.038-0.038,0.086-0.057,0.144-0.057c0.057,0,0.104,0.019,0.144,0.057c0.038,0.038,0.057,0.084,0.057,0.14
			c0,0.057-0.019,0.105-0.057,0.143c-0.039,0.039-0.087,0.058-0.144,0.058c-0.058,0-0.105-0.019-0.144-0.058
			c-0.037-0.037-0.058-0.084-0.058-0.139C32.516,55.642,32.536,55.594,32.573,55.556z"/>
		<path fill="#636468" d="M34.896,57.946c-0.106,0.114-0.252,0.172-0.436,0.172h-0.367c-0.184,0-0.327-0.058-0.433-0.172
			c-0.106-0.114-0.16-0.27-0.16-0.466V56.92c0-0.195,0.054-0.35,0.161-0.466c0.108-0.113,0.252-0.17,0.432-0.17h0.367
			c0.188,0,0.335,0.057,0.44,0.17c0.104,0.116,0.156,0.271,0.156,0.466v0.561C35.058,57.677,35.005,57.832,34.896,57.946z
			 M34.728,56.814c0-0.138-0.024-0.237-0.071-0.296c-0.048-0.06-0.138-0.089-0.269-0.089h-0.22c-0.127,0-0.213,0.029-0.263,0.089
			c-0.048,0.059-0.073,0.158-0.073,0.296v0.772c0,0.139,0.025,0.238,0.073,0.296c0.05,0.06,0.136,0.089,0.263,0.089h0.22
			c0.131,0,0.221-0.029,0.269-0.089c0.047-0.058,0.071-0.157,0.071-0.296V56.814z"/>
		<path fill="#636468" d="M37.358,57.942v0.151h-0.87v-0.151h0.29v-1.32c0-0.129-0.06-0.192-0.18-0.192
			c-0.081,0-0.157,0.009-0.227,0.023c-0.07,0.015-0.132,0.034-0.187,0.06c-0.054,0.023-0.1,0.051-0.135,0.079
			s-0.057,0.055-0.064,0.079v1.275l0.273-0.004v0.151h-0.867v-0.151h0.287v-1.467h-0.29v-0.147h0.363
			c0.057,0,0.103-0.005,0.138-0.012c0.033-0.009,0.064-0.022,0.096-0.042V56.5c0.089-0.073,0.19-0.128,0.302-0.164
			c0.112-0.035,0.229-0.052,0.355-0.052c0.143,0,0.251,0.029,0.328,0.091c0.075,0.062,0.113,0.152,0.113,0.276v1.295L37.358,57.942z
			"/>
		<path fill="#636468" d="M40.306,57.551c-0.004,0.077-0.013,0.152-0.028,0.222c-0.017,0.07-0.04,0.13-0.069,0.18
			c-0.03,0.052-0.066,0.092-0.108,0.12c-0.043,0.03-0.09,0.046-0.142,0.046h-0.433c-0.091,0-0.173-0.015-0.248-0.042
			c-0.074-0.029-0.139-0.069-0.192-0.121c-0.052-0.053-0.094-0.113-0.121-0.184c-0.03-0.072-0.045-0.15-0.045-0.238v-0.617
			c0-0.09,0.017-0.173,0.049-0.251c0.031-0.078,0.075-0.144,0.132-0.2c0.057-0.055,0.126-0.1,0.205-0.133
			c0.08-0.033,0.164-0.048,0.257-0.048c0.163,0,0.304,0.015,0.422,0.048c0.116,0.033,0.21,0.078,0.281,0.135v0.271
			c-0.021,0.063-0.075,0.095-0.16,0.098c-0.086,0-0.14-0.033-0.158-0.098c0.005-0.058,0.014-0.104,0.027-0.136
			c0.018-0.041,0.025-0.078,0.025-0.11c-0.033-0.014-0.079-0.027-0.14-0.04c-0.06-0.015-0.153-0.021-0.282-0.021
			c-0.116,0-0.202,0.029-0.254,0.089c-0.054,0.059-0.08,0.152-0.08,0.283v0.772c0,0.131,0.022,0.23,0.071,0.296
			c0.047,0.068,0.129,0.102,0.242,0.102h0.279c0.052,0,0.097-0.013,0.136-0.037c0.04-0.024,0.072-0.058,0.099-0.099
			c0.025-0.041,0.046-0.086,0.062-0.137c0.015-0.05,0.024-0.1,0.026-0.148H40.306z"/>
		<path fill="#636468" d="M42.119,57.648c-0.012,0.089-0.036,0.165-0.066,0.227c-0.032,0.062-0.07,0.109-0.117,0.146
			c-0.046,0.035-0.098,0.061-0.154,0.075c-0.058,0.015-0.118,0.022-0.185,0.022h-0.343c-0.175,0-0.311-0.055-0.407-0.166
			c-0.096-0.109-0.145-0.261-0.145-0.451v-0.575c0-0.091,0.014-0.176,0.04-0.255c0.028-0.078,0.064-0.147,0.111-0.204
			c0.046-0.057,0.102-0.102,0.167-0.135c0.066-0.033,0.136-0.048,0.213-0.048h0.294c0.082,0,0.157,0.012,0.227,0.037
			c0.069,0.026,0.129,0.063,0.181,0.108c0.051,0.047,0.09,0.101,0.12,0.162c0.029,0.062,0.046,0.128,0.049,0.202
			c0.004,0.055,0.004,0.104,0,0.146c-0.003,0.045-0.005,0.086-0.009,0.124c-0.005,0.073-0.016,0.109-0.032,0.109h-1.034v0.507
			c0,0.193,0.093,0.291,0.277,0.291h0.263c0.225,0,0.354-0.116,0.392-0.348v-0.069h0.159V57.648z M41.769,57.027l0.009-0.299
			c0.002-0.106-0.019-0.183-0.062-0.229c-0.044-0.047-0.112-0.07-0.205-0.07h-0.212c-0.181,0-0.271,0.106-0.271,0.315v0.282H41.769z
			"/>
		<path fill="#636468" d="M44.399,57.942v0.151H43.53v-0.151h0.29v-1.32c0-0.129-0.06-0.192-0.18-0.192
			c-0.082,0-0.157,0.009-0.227,0.023c-0.07,0.015-0.132,0.034-0.187,0.06c-0.054,0.023-0.1,0.051-0.135,0.079
			c-0.036,0.028-0.058,0.055-0.065,0.079v1.275l0.274-0.004v0.151h-0.868v-0.151h0.286v-1.467h-0.289v-0.147h0.364
			c0.057,0,0.104-0.005,0.136-0.012c0.034-0.009,0.065-0.022,0.097-0.042V56.5c0.09-0.073,0.191-0.128,0.303-0.164
			c0.11-0.035,0.229-0.052,0.355-0.052c0.141,0,0.25,0.029,0.327,0.091c0.075,0.062,0.114,0.152,0.114,0.276v1.295L44.399,57.942z"
			/>
		<path fill="#636468" d="M45.223,57.932c0.026,0.026,0.074,0.04,0.143,0.04c0.063,0,0.116-0.017,0.161-0.048
			c0.046-0.031,0.071-0.059,0.076-0.083l0.028,0.036v0.086c-0.027,0.038-0.067,0.072-0.121,0.106
			c-0.054,0.033-0.137,0.049-0.251,0.049c-0.257,0-0.384-0.107-0.384-0.323v-1.319H44.58v-0.147h0.14
			c0.098-0.052,0.169-0.128,0.215-0.228c0.044-0.099,0.073-0.223,0.087-0.369h0.159v0.597h0.417v0.147h-0.417v1.315
			C45.181,57.858,45.194,57.906,45.223,57.932z"/>
		<path fill="#636468" d="M47.367,57.648c-0.013,0.089-0.036,0.165-0.066,0.227c-0.032,0.062-0.071,0.109-0.118,0.146
			c-0.045,0.035-0.098,0.061-0.154,0.075c-0.058,0.015-0.118,0.022-0.184,0.022h-0.344c-0.173,0-0.311-0.055-0.406-0.166
			c-0.097-0.109-0.146-0.261-0.146-0.451v-0.575c0-0.091,0.015-0.176,0.042-0.255c0.027-0.078,0.063-0.147,0.111-0.204
			c0.045-0.057,0.102-0.102,0.167-0.135s0.135-0.048,0.213-0.048h0.293c0.082,0,0.157,0.012,0.227,0.037
			c0.07,0.026,0.131,0.063,0.181,0.108c0.05,0.047,0.091,0.101,0.119,0.162c0.031,0.062,0.048,0.128,0.05,0.202
			c0.004,0.055,0.004,0.104,0,0.146c-0.002,0.045-0.004,0.086-0.008,0.124c-0.006,0.073-0.017,0.109-0.031,0.109h-1.035v0.507
			c0,0.193,0.092,0.291,0.278,0.291h0.262c0.223,0,0.354-0.116,0.391-0.348v-0.069h0.16V57.648z M47.016,57.027l0.009-0.299
			c0.002-0.106-0.019-0.183-0.062-0.229c-0.044-0.047-0.111-0.07-0.204-0.07h-0.213c-0.181,0-0.27,0.106-0.27,0.315v0.282H47.016z"
			/>
		<path fill="#636468" d="M48.598,57.942v0.151h-0.911v-0.151h0.295v-1.467h-0.295v-0.147h0.368c0.057,0,0.102-0.005,0.136-0.012
			c0.034-0.009,0.066-0.022,0.097-0.042v0.253c0.056-0.086,0.12-0.148,0.2-0.187c0.079-0.039,0.165-0.057,0.258-0.057
			c0.073,0,0.13,0.016,0.17,0.05s0.067,0.073,0.085,0.119c0.019,0.045,0.027,0.092,0.031,0.141c0.003,0.049,0.004,0.087,0.004,0.113
			c0,0.068-0.041,0.104-0.123,0.104c-0.085,0.002-0.146-0.025-0.184-0.086c0-0.02,0-0.039,0.003-0.057
			c0-0.021,0.002-0.04,0.006-0.062c0.002-0.022,0.006-0.043,0.015-0.063c0.006-0.02,0.015-0.041,0.024-0.06
			c0-0.021-0.007-0.036-0.021-0.044c-0.015-0.005-0.037-0.01-0.066-0.01c-0.053,0-0.104,0.012-0.152,0.034
			c-0.049,0.021-0.092,0.05-0.13,0.084c-0.034,0.036-0.063,0.077-0.087,0.123c-0.021,0.047-0.032,0.094-0.032,0.144v1.132
			L48.598,57.942z"/>
	</g>
	<g>
		<g opacity="0.7">
			<g>
				<linearGradient id="SVGID_6_" gradientUnits="userSpaceOnUse" x1="22.2109" y1="27.1084" x2="47.792" y2="27.1084">
					<stop  offset="0" style="stop-color:#E63131"/>
					<stop  offset="0.2" style="stop-color:#F8E419"/>
					<stop  offset="0.4" style="stop-color:#009D52"/>
					<stop  offset="0.6" style="stop-color:#0EA2DC"/>
					<stop  offset="0.8" style="stop-color:#34398E"/>
					<stop  offset="1" style="stop-color:#E51585"/>
				</linearGradient>
				<path fill="url(#SVGID_6_)" d="M34.27,39.898l-2.051-7.025l-6.779,2.762l3.515-6.422l-6.743-2.836l7.024-2.056l-2.762-6.774
					l6.421,3.516l2.837-6.744l2.055,7.024l6.769-2.754l-3.509,6.412l6.746,2.838l-7.025,2.05l2.756,6.77l-6.417-3.504L34.27,39.898z
					 M32.368,32.565l1.94,6.649l2.685-6.383l6.075,3.316l-2.609-6.409l6.649-1.94l-6.385-2.685l3.322-6.07l-6.408,2.607L35.691,15
					l-2.685,6.385l-6.078-3.328l2.614,6.413l-6.649,1.945l6.383,2.687L25.95,35.18L32.368,32.565z"/>
			</g>
		</g>
		<g opacity="0.6">
			<g>
				<linearGradient id="SVGID_7_" gradientUnits="userSpaceOnUse" x1="21.8135" y1="27.1025" x2="48.1768" y2="27.1025">
					<stop  offset="0" style="stop-color:#E63131"/>
					<stop  offset="0.2" style="stop-color:#F8E419"/>
					<stop  offset="0.4" style="stop-color:#009D52"/>
					<stop  offset="0.6" style="stop-color:#0EA2DC"/>
					<stop  offset="0.8" style="stop-color:#34398E"/>
					<stop  offset="1" style="stop-color:#E51585"/>
				</linearGradient>
				<path fill="url(#SVGID_7_)" d="M34.014,40.283l-1.986-7.273l-7.047,2.728l3.743-6.563l-6.91-3.048l7.288-1.996l-2.729-7.041
					l6.563,3.742l3.049-6.909l1.995,7.287l7.042-2.729l-3.743,6.564l6.899,3.043l-7.274,1.995l2.726,7.045l-6.563-3.741
					L34.014,40.283z M32.182,32.705l1.883,6.896l2.895-6.541l6.224,3.549l-2.586-6.682l6.898-1.892l-6.542-2.885l3.549-6.226
					l-6.678,2.588l-1.892-6.91l-2.891,6.552l-6.225-3.548l2.59,6.676l-6.912,1.893l6.553,2.891l-3.55,6.225L32.182,32.705z"/>
			</g>
		</g>
		<g opacity="0.6">
			<g>
				<linearGradient id="SVGID_8_" gradientUnits="userSpaceOnUse" x1="21.3623" y1="27.1025" x2="48.6387" y2="27.1025">
					<stop  offset="0" style="stop-color:#E63131"/>
					<stop  offset="0.2" style="stop-color:#F8E419"/>
					<stop  offset="0.4" style="stop-color:#009D52"/>
					<stop  offset="0.6" style="stop-color:#0EA2DC"/>
					<stop  offset="0.8" style="stop-color:#34398E"/>
					<stop  offset="1" style="stop-color:#E51585"/>
				</linearGradient>
				<path fill="url(#SVGID_8_)" d="M33.707,40.735l-1.912-7.58l-7.351,2.685l4.013-6.722l-7.095-3.301l7.59-1.916l-2.683-7.349
					l6.721,4.01l3.299-7.093l1.917,7.589l7.35-2.682l-4.012,6.721l7.095,3.3l-7.59,1.916l2.679,7.34l-6.718-4.002L33.707,40.735z
					 M31.954,32.854l1.817,7.201l3.139-6.73l6.382,3.803l-2.546-6.974l7.212-1.82l-6.74-3.136l3.811-6.386l-6.982,2.548l-1.821-7.21
					l-3.134,6.738l-6.386-3.809l2.549,6.981l-7.211,1.82l6.741,3.136l-3.813,6.386L31.954,32.854z"/>
			</g>
		</g>
		<g opacity="0.45">
			<g>
				<linearGradient id="SVGID_9_" gradientUnits="userSpaceOnUse" x1="20.8994" y1="27.1025" x2="49.0908" y2="27.1025">
					<stop  offset="0" style="stop-color:#E63131"/>
					<stop  offset="0.2" style="stop-color:#F8E419"/>
					<stop  offset="0.4" style="stop-color:#009D52"/>
					<stop  offset="0.6" style="stop-color:#0EA2DC"/>
					<stop  offset="0.8" style="stop-color:#34398E"/>
					<stop  offset="1" style="stop-color:#E51585"/>
				</linearGradient>
				<path fill="url(#SVGID_9_)" d="M33.366,41.198l-1.818-7.893l-7.672,2.618l4.3-6.876l-7.276-3.571l7.899-1.816l-2.615-7.678
					l6.876,4.302l3.573-7.277l1.82,7.905l7.667-2.611l-4.296,6.867l7.267,3.568l-7.89,1.82l2.612,7.667l-6.867-4.292L33.366,41.198z
					 M31.714,33.007l1.73,7.514l3.409-6.918l6.536,4.086l-2.487-7.298l7.51-1.732l-6.916-3.396l4.089-6.536l-7.298,2.484
					l-1.732-7.523l-3.402,6.926l-6.544-4.095l2.489,7.309l-7.519,1.729l6.926,3.4l-4.094,6.544L31.714,33.007z"/>
			</g>
		</g>
		<g opacity="0.45">
			<g>
				<linearGradient id="SVGID_10_" gradientUnits="userSpaceOnUse" x1="20.4092" y1="27.1079" x2="49.5918" y2="27.1079">
					<stop  offset="0" style="stop-color:#E63131"/>
					<stop  offset="0.2" style="stop-color:#F8E419"/>
					<stop  offset="0.4" style="stop-color:#009D52"/>
					<stop  offset="0.6" style="stop-color:#0EA2DC"/>
					<stop  offset="0.8" style="stop-color:#34398E"/>
					<stop  offset="1" style="stop-color:#E51585"/>
				</linearGradient>
				<path fill="url(#SVGID_10_)" d="M32.997,41.7l-1.715-8.239l-8.016,2.549l4.613-7.038l-7.471-3.866l8.239-1.715l-2.551-8.017
					l7.04,4.612l3.865-7.471l1.715,8.239l8.017-2.55l-4.613,7.039l7.471,3.867l-8.239,1.715l2.546,8.006l-7.034-4.604L32.997,41.7z
					 M31.455,33.166l1.635,7.856l3.688-7.124l6.708,4.389l-2.428-7.634l7.856-1.636l-7.123-3.688l4.397-6.711l-7.644,2.432
					l-1.635-7.857l-3.687,7.123l-6.712-4.398l2.432,7.646l-7.857,1.635l7.124,3.688l-4.398,6.71L31.455,33.166z"/>
			</g>
		</g>
		<g opacity="0.15">
			<g>
				<linearGradient id="SVGID_11_" gradientUnits="userSpaceOnUse" x1="19.7734" y1="27.103" x2="50.2266" y2="27.103">
					<stop  offset="0" style="stop-color:#E63131"/>
					<stop  offset="0.2" style="stop-color:#F8E419"/>
					<stop  offset="0.4" style="stop-color:#009D52"/>
					<stop  offset="0.6" style="stop-color:#0EA2DC"/>
					<stop  offset="0.8" style="stop-color:#34398E"/>
					<stop  offset="1" style="stop-color:#E51585"/>
				</linearGradient>
				<path fill="url(#SVGID_11_)" d="M32.561,42.324l-1.604-8.654l-8.454,2.476l4.998-7.258l-7.728-4.225l8.665-1.599l-2.476-8.452
					l7.258,4.996l4.226-7.727l1.598,8.664l8.452-2.475L42.5,25.327l7.727,4.226l-8.661,1.594l2.473,8.457l-7.258-4.996
					L32.561,42.324z M31.136,33.379l1.532,8.271l4.032-7.376l6.937,4.775l-2.362-8.082l8.278-1.523l-7.386-4.037l4.775-6.936
					l-8.078,2.365l-1.526-8.28L33.3,19.941l-6.937-4.775l2.366,8.077l-8.281,1.528l7.386,4.038l-4.776,6.936L31.136,33.379z"/>
			</g>
		</g>
		<g opacity="0.45">
			<g>
				<linearGradient id="SVGID_12_" gradientUnits="userSpaceOnUse" x1="25.7393" y1="27.1074" x2="44.252" y2="27.1074">
					<stop  offset="0" style="stop-color:#E63131"/>
					<stop  offset="0.2" style="stop-color:#F8E419"/>
					<stop  offset="0.4" style="stop-color:#009D52"/>
					<stop  offset="0.6" style="stop-color:#0EA2DC"/>
					<stop  offset="0.8" style="stop-color:#34398E"/>
					<stop  offset="1" style="stop-color:#E51585"/>
				</linearGradient>
				<path fill="url(#SVGID_12_)" d="M38.807,36.361l-3.819-4.25l-3.839,4.229l0.309-5.702l-5.718,0.281l4.257-3.825l-4.24-3.839
					l5.715,0.303l-0.275-5.705l3.813,4.249l3.843-4.23l-0.305,5.705l5.705-0.282l-4.247,3.826l4.23,3.838l-5.704-0.303
					L38.807,36.361z M34.987,31.77l3.559,3.959l-0.256-5.314l5.315,0.282l-3.943-3.576l3.958-3.564l-5.315,0.263l0.284-5.316
					l-3.581,3.942l-3.553-3.959l0.256,5.314l-5.324-0.281l3.952,3.577l-3.967,3.564l5.327-0.262l-0.287,5.313L34.987,31.77z"/>
			</g>
		</g>
		<g opacity="0.45">
			<g>
				<linearGradient id="SVGID_13_" gradientUnits="userSpaceOnUse" x1="25.5527" y1="27.106" x2="44.4404" y2="27.106">
					<stop  offset="0" style="stop-color:#E63131"/>
					<stop  offset="0.2" style="stop-color:#F8E419"/>
					<stop  offset="0.4" style="stop-color:#009D52"/>
					<stop  offset="0.6" style="stop-color:#0EA2DC"/>
					<stop  offset="0.8" style="stop-color:#34398E"/>
					<stop  offset="1" style="stop-color:#E51585"/>
				</linearGradient>
				<path fill="url(#SVGID_13_)" d="M38.746,36.544l-3.824-4.358l-3.952,4.25l0.384-5.794l-5.801,0.212l4.37-3.826l-4.251-3.95
					l5.795,0.384l-0.207-5.793l3.82,4.362l3.95-4.241l-0.384,5.783l5.794-0.204l-4.362,3.818l4.241,3.952l-5.786-0.384
					L38.746,36.544z M34.926,31.845l3.567,4.065l-0.197-5.401l5.396,0.358l-3.956-3.686l4.069-3.562l-5.405,0.19l0.359-5.396
					l-3.686,3.958l-3.563-4.07l0.192,5.403L26.3,23.348l3.964,3.686l-4.075,3.567l5.41-0.197l-0.357,5.405L34.926,31.845z"/>
			</g>
		</g>
		<g opacity="0.45">
			<g>
				<linearGradient id="SVGID_14_" gradientUnits="userSpaceOnUse" x1="25.3096" y1="27.103" x2="44.6797" y2="27.103">
					<stop  offset="0" style="stop-color:#E63131"/>
					<stop  offset="0.2" style="stop-color:#F8E419"/>
					<stop  offset="0.4" style="stop-color:#009D52"/>
					<stop  offset="0.6" style="stop-color:#0EA2DC"/>
					<stop  offset="0.8" style="stop-color:#34398E"/>
					<stop  offset="1" style="stop-color:#E51585"/>
				</linearGradient>
				<path fill="url(#SVGID_14_)" d="M38.673,36.788l-3.833-4.505l-4.095,4.264l0.486-5.89L25.31,30.78l4.516-3.833l-4.271-4.095
					l5.899,0.48l-0.126-5.915l3.833,4.514l4.088-4.265l-0.474,5.894l5.905-0.125l-4.504,3.831l4.271,4.097l-5.899-0.482
					L38.673,36.788z M34.85,31.942l3.58,4.207l-0.116-5.517l5.51,0.45l-3.989-3.826l4.207-3.578l-5.516,0.117l0.442-5.507
					l-3.817,3.984l-3.58-4.216l0.117,5.525l-5.511-0.449l3.989,3.823l-4.217,3.581l5.532-0.115l-0.454,5.5L34.85,31.942z"/>
			</g>
		</g>
		<g opacity="0.45">
			<g>
				<linearGradient id="SVGID_15_" gradientUnits="userSpaceOnUse" x1="25.002" y1="27.1123" x2="44.999" y2="27.1123">
					<stop  offset="0" style="stop-color:#E63131"/>
					<stop  offset="0.2" style="stop-color:#F8E419"/>
					<stop  offset="0.4" style="stop-color:#009D52"/>
					<stop  offset="0.6" style="stop-color:#0EA2DC"/>
					<stop  offset="0.8" style="stop-color:#34398E"/>
					<stop  offset="1" style="stop-color:#E51585"/>
				</linearGradient>
				<path fill="url(#SVGID_15_)" d="M38.561,37.107l-3.831-4.702l-4.283,4.292l0.616-6.035l-6.061,0.008l4.7-3.832l-4.29-4.283
					l6.029,0.62l-0.001-6.058l3.832,4.692l4.282-4.29l-0.616,6.034l6.061-0.006l-4.702,3.831l4.292,4.281l-6.03-0.618L38.561,37.107
					z M34.746,32.064l3.585,4.399l-0.002-5.675l5.642,0.578l-4.015-4.005l4.399-3.585l-5.671,0.006l0.577-5.646l-4.007,4.014
					l-3.586-4.392l0.002,5.668l-5.642-0.579l4.014,4.007l-4.397,3.584l5.671-0.006l-0.577,5.645L34.746,32.064z"/>
			</g>
		</g>
		<g opacity="0.45">
			<g>
				<linearGradient id="SVGID_16_" gradientUnits="userSpaceOnUse" x1="24.6367" y1="27.104" x2="45.3643" y2="27.104">
					<stop  offset="0" style="stop-color:#E63131"/>
					<stop  offset="0.2" style="stop-color:#F8E419"/>
					<stop  offset="0.4" style="stop-color:#009D52"/>
					<stop  offset="0.6" style="stop-color:#0EA2DC"/>
					<stop  offset="0.8" style="stop-color:#34398E"/>
					<stop  offset="1" style="stop-color:#E51585"/>
				</linearGradient>
				<path fill="url(#SVGID_16_)" d="M38.431,37.461l-3.829-4.912l-4.499,4.313l0.769-6.188l-6.234-0.131l4.923-3.832l-4.316-4.5
					l6.19,0.769l0.13-6.233l3.829,4.92l4.504-4.304l-0.769,6.18l6.236,0.13l-4.923,3.828l4.316,4.503l-6.188-0.771L38.431,37.461z
					 M34.627,32.208l3.59,4.605l0.131-5.839l5.799,0.723l-4.046-4.221l4.613-3.589l-5.845-0.122l0.721-5.793l-4.222,4.035
					l-3.589-4.611l-0.122,5.842l-5.803-0.721l4.045,4.219l-4.613,3.593l5.844,0.122l-0.722,5.8L34.627,32.208z"/>
			</g>
		</g>
		<g opacity="0.45">
			<g>
				<linearGradient id="SVGID_17_" gradientUnits="userSpaceOnUse" x1="24.2236" y1="27.1016" x2="45.7852" y2="27.1016">
					<stop  offset="0" style="stop-color:#E63131"/>
					<stop  offset="0.2" style="stop-color:#F8E419"/>
					<stop  offset="0.4" style="stop-color:#009D52"/>
					<stop  offset="0.6" style="stop-color:#0EA2DC"/>
					<stop  offset="0.8" style="stop-color:#34398E"/>
					<stop  offset="1" style="stop-color:#E51585"/>
				</linearGradient>
				<path fill="url(#SVGID_17_)" d="M38.283,37.878l-3.826-5.171l-4.748,4.335l0.944-6.366l-6.43-0.293l5.178-3.831l-4.341-4.755
					l6.372,0.95l0.3-6.422l3.825,5.168l4.755-4.338l-0.954,6.366l6.427,0.304l-5.17,3.82l4.339,4.761l-6.367-0.954L38.283,37.878z
					 M34.491,32.367l3.594,4.857l0.285-6.036l5.98,0.896l-4.075-4.473l4.855-3.588l-6.037-0.286l0.897-5.98l-4.468,4.075
					l-3.593-4.854l-0.281,6.033l-5.984-0.894l4.076,4.467l-4.864,3.599l6.041,0.275l-0.888,5.979L34.491,32.367z"/>
			</g>
		</g>
		<g opacity="0.45">
			<g>
				<linearGradient id="SVGID_18_" gradientUnits="userSpaceOnUse" x1="23.7559" y1="27.1128" x2="46.2383" y2="27.1128">
					<stop  offset="0" style="stop-color:#E63131"/>
					<stop  offset="0.2" style="stop-color:#F8E419"/>
					<stop  offset="0.4" style="stop-color:#009D52"/>
					<stop  offset="0.6" style="stop-color:#0EA2DC"/>
					<stop  offset="0.8" style="stop-color:#34398E"/>
					<stop  offset="1" style="stop-color:#E51585"/>
				</linearGradient>
				<path fill="url(#SVGID_18_)" d="M38.111,38.354l-3.829-5.459l-5.033,4.355l1.152-6.556l-6.646-0.476l5.458-3.822l-4.355-5.04
					l6.556,1.152l0.476-6.637l3.828,5.449l5.029-4.358L39.6,23.523l6.639,0.48l-5.451,3.816l4.363,5.039l-6.563-1.155L38.111,38.354
					z M34.325,32.556l3.604,5.14l0.449-6.261l6.178,1.088l-4.107-4.744l5.131-3.594l-6.249-0.452l1.08-6.176l-4.733,4.104
					l-3.605-5.131l-0.446,6.249l-6.174-1.085l4.101,4.745l-5.137,3.599l6.255,0.446l-1.084,6.173L34.325,32.556z"/>
			</g>
		</g>
		<g opacity="0.45">
			<g>
				<linearGradient id="SVGID_19_" gradientUnits="userSpaceOnUse" x1="23.2051" y1="27.104" x2="46.7881" y2="27.104">
					<stop  offset="0" style="stop-color:#E63131"/>
					<stop  offset="0.2" style="stop-color:#F8E419"/>
					<stop  offset="0.4" style="stop-color:#009D52"/>
					<stop  offset="0.6" style="stop-color:#0EA2DC"/>
					<stop  offset="0.8" style="stop-color:#34398E"/>
					<stop  offset="1" style="stop-color:#E51585"/>
				</linearGradient>
				<path fill="url(#SVGID_19_)" d="M37.913,38.887l-3.824-5.778l-5.365,4.396l1.387-6.797l-6.905-0.684l5.791-3.825l-4.395-5.354
					l6.796,1.379l0.685-6.901l3.829,5.788l5.365-4.398l-1.386,6.798l6.897,0.688l-5.784,3.816l4.4,5.367l-6.799-1.389L37.913,38.887
					z M34.14,32.771l3.61,5.453l0.653-6.508l6.414,1.311l-4.151-5.065l5.459-3.601l-6.51-0.65l1.309-6.414l-5.063,4.15l-3.614-5.463
					l-0.646,6.513l-6.413-1.302l4.146,5.054l-5.465,3.609l6.516,0.646l-1.309,6.415L34.14,32.771z"/>
			</g>
		</g>
		<g opacity="0.45">
			<g>
				<linearGradient id="SVGID_20_" gradientUnits="userSpaceOnUse" x1="22.5234" y1="27.1118" x2="47.4775" y2="27.1118">
					<stop  offset="0" style="stop-color:#E63131"/>
					<stop  offset="0.2" style="stop-color:#F8E419"/>
					<stop  offset="0.4" style="stop-color:#009D52"/>
					<stop  offset="0.6" style="stop-color:#0EA2DC"/>
					<stop  offset="0.8" style="stop-color:#34398E"/>
					<stop  offset="1" style="stop-color:#E51585"/>
				</linearGradient>
				<path fill="url(#SVGID_20_)" d="M37.685,39.592l-3.836-6.207l-5.771,4.442l1.67-7.095l-7.224-0.946l6.2-3.829l-4.442-5.772
					l7.094,1.672l0.939-7.225l3.832,6.198l5.776-4.442l-1.67,7.094l7.225,0.947l-6.199,3.825l4.438,5.782l-7.087-1.678
					L37.685,39.592z M33.909,33.049l3.631,5.876l0.896-6.849l6.707,1.589l-4.201-5.473l5.866-3.62l-6.837-0.896l1.581-6.715
					l-5.467,4.205L32.458,15.3l-0.889,6.837l-6.715-1.582l4.205,5.464l-5.867,3.625l6.836,0.896l-1.58,6.715L33.909,33.049z"/>
			</g>
		</g>
		<g opacity="0.7">
			<g>
				<linearGradient id="SVGID_21_" gradientUnits="userSpaceOnUse" x1="22.3203" y1="27.1133" x2="47.6816" y2="27.1133">
					<stop  offset="0" style="stop-color:#E63131"/>
					<stop  offset="0.2" style="stop-color:#F8E419"/>
					<stop  offset="0.4" style="stop-color:#009D52"/>
					<stop  offset="0.6" style="stop-color:#0EA2DC"/>
					<stop  offset="0.8" style="stop-color:#34398E"/>
					<stop  offset="1" style="stop-color:#E51585"/>
				</linearGradient>
				<path fill="url(#SVGID_21_)" d="M34.633,39.799l-2.229-6.904l-6.635,2.928l3.303-6.46l-6.751-2.624l6.89-2.225l-2.923-6.639
					l6.458,3.303l2.618-6.75l2.235,6.892l6.629-2.916l-3.297,6.45l6.751,2.617l-6.891,2.23l2.924,6.64l-6.458-3.302L34.633,39.799z
					 M32.542,32.583l2.11,6.532l2.482-6.396l6.111,3.125l-2.767-6.284l6.519-2.109l-6.387-2.476l3.12-6.104l-6.272,2.759
					l-2.114-6.521l-2.479,6.387l-6.11-3.125l2.766,6.282l-6.519,2.104l6.388,2.481l-3.125,6.112L32.542,32.583z"/>
			</g>
		</g>
		<g opacity="0.7">
			<g>
				<linearGradient id="SVGID_22_" gradientUnits="userSpaceOnUse" x1="22.3701" y1="27.1079" x2="47.6191" y2="27.1079">
					<stop  offset="0" style="stop-color:#E63131"/>
					<stop  offset="0.2" style="stop-color:#F8E419"/>
					<stop  offset="0.4" style="stop-color:#009D52"/>
					<stop  offset="0.6" style="stop-color:#0EA2DC"/>
					<stop  offset="0.8" style="stop-color:#34398E"/>
					<stop  offset="1" style="stop-color:#E51585"/>
				</linearGradient>
				<path fill="url(#SVGID_22_)" d="M35.003,39.736l-2.417-6.799l-6.513,3.103l3.097-6.52l-6.8-2.41l6.8-2.419l-3.102-6.511
					l6.518,3.097l2.41-6.798l2.421,6.798l6.506-3.093l-3.093,6.504l6.789,2.421l-6.786,2.41l3.1,6.516l-6.512-3.099L35.003,39.736z
					 M32.716,32.621l2.287,6.432l2.287-6.432l6.16,2.931l-2.933-6.163l6.419-2.28l-6.423-2.289l2.926-6.151l-6.154,2.925
					l-2.289-6.43l-2.278,6.43l-6.165-2.929l2.934,6.158l-6.432,2.288l6.432,2.279l-2.93,6.167L32.716,32.621z"/>
			</g>
		</g>
		<g opacity="0.4">
			<g>
				<linearGradient id="SVGID_23_" gradientUnits="userSpaceOnUse" x1="22.4492" y1="27.103" x2="47.5527" y2="27.103">
					<stop  offset="0" style="stop-color:#E63131"/>
					<stop  offset="0.2" style="stop-color:#F8E419"/>
					<stop  offset="0.4" style="stop-color:#009D52"/>
					<stop  offset="0.6" style="stop-color:#0EA2DC"/>
					<stop  offset="0.8" style="stop-color:#34398E"/>
					<stop  offset="1" style="stop-color:#E51585"/>
				</linearGradient>
				<path fill="url(#SVGID_23_)" d="M35.357,39.647l-2.592-6.679l-6.384,3.27l2.894-6.568l-6.826-2.2l6.688-2.598l-3.267-6.383
					l6.564,2.893l2.202-6.823l2.599,6.687l6.383-3.267l-2.893,6.565l6.826,2.203l-6.688,2.592l3.259,6.377l-6.56-2.882
					L35.357,39.647z M32.887,32.649l2.45,6.314l2.089-6.441l6.202,2.725l-3.082-6.03l6.322-2.45l-6.453-2.083l2.735-6.208
					l-6.035,3.09l-2.456-6.323l-2.084,6.451l-6.206-2.734l3.087,6.034l-6.323,2.456l6.454,2.082l-2.735,6.209L32.887,32.649z"/>
			</g>
		</g>
		<g opacity="0.25">
			<g>
				<linearGradient id="SVGID_24_" gradientUnits="userSpaceOnUse" x1="22.6973" y1="27.1074" x2="47.3037" y2="27.1074">
					<stop  offset="0" style="stop-color:#E63131"/>
					<stop  offset="0.2" style="stop-color:#F8E419"/>
					<stop  offset="0.4" style="stop-color:#009D52"/>
					<stop  offset="0.6" style="stop-color:#0EA2DC"/>
					<stop  offset="0.8" style="stop-color:#34398E"/>
					<stop  offset="1" style="stop-color:#E51585"/>
				</linearGradient>
				<path fill="url(#SVGID_24_)" d="M35.727,39.421l-2.747-6.491l-6.171,3.399l2.646-6.534l-6.758-1.963l6.479-2.745l-3.397-6.171
					l6.532,2.646l1.959-6.768l2.745,6.488l6.177-3.396l-2.647,6.528l6.759,1.971l-6.479,2.739l3.396,6.177l-6.527-2.648
					L35.727,39.421z M33.091,32.607l2.597,6.131l1.858-6.394l6.165,2.502l-3.208-5.835l6.119-2.587l-6.385-1.861l2.501-6.167
					l-5.835,3.208l-2.592-6.128l-1.851,6.393L26.29,19.37l3.21,5.828l-6.121,2.594l6.383,1.854l-2.499,6.173L33.091,32.607z"/>
			</g>
		</g>
	</g>
</g>
</svg>
