<?xml version="1.0" encoding="utf-8"?>
<!-- Generator: Adobe Illustrator 16.0.3, SVG Export Plug-In . SVG Version: 6.00 Build 0)  -->
<!DOCTYPE svg PUBLIC "-//W3C//DTD SVG 1.1//EN" "http://www.w3.org/Graphics/SVG/1.1/DTD/svg11.dtd">
<svg version="1.1" id="Layer_1" xmlns="http://www.w3.org/2000/svg" xmlns:xlink="http://www.w3.org/1999/xlink" x="0px" y="0px"
	 width="70px" height="70px" viewBox="0 0 70 70" enable-background="new 0 0 70 70" xml:space="preserve">
<rect fill="#FFFFFF" width="70" height="70"/>
<g>
	<path fill-rule="evenodd" clip-rule="evenodd" fill="#6A747C" d="M47.041,48.205v3.449c0,0.188,0.094,0.311,0.346,0.311h2.32
		v-0.813h-1.693v-0.689h1.442v-0.785h-1.442v-0.656h1.662v-0.816H47.041z M25.564,48.205h-0.94v2.037l-0.91-1.693
		c-0.094-0.156-0.22-0.344-0.596-0.344H22.46v3.76h0.909v-2.066l0.91,1.723c0.094,0.189,0.22,0.344,0.596,0.344h0.689V48.205z
		 M39.547,49.396c0,0.25-0.188,0.406-0.438,0.406h-0.533v-0.816h0.533C39.391,48.986,39.547,49.146,39.547,49.396z M37.603,48.205
		v3.76h0.973v-1.377h0.627c0.753,0,1.285-0.502,1.285-1.223c0-0.691-0.47-1.16-1.285-1.16H37.603z M35.707,49.396
		c0,0.25-0.188,0.406-0.439,0.406h-0.658v-0.816h0.658C35.519,48.986,35.707,49.146,35.707,49.396z M33.637,48.205v3.76h0.973
		v-1.377h0.438l0.628,1.377h1.098l-0.785-1.533c0.377-0.189,0.659-0.564,0.659-1.035c0-0.785-0.564-1.191-1.317-1.191H33.637z
		 M30.017,48.205v3.449c0,0.188,0.094,0.311,0.345,0.311h2.32v-0.813h-1.693v-0.689h1.442v-0.785h-1.442v-0.656h1.662v-0.816H30.017
		z M41.087,48.205c0.126,0.156,0.157,0.375,0.157,0.531v3.229h1.066v-3.76H41.087z M29.2,48.205h-2.853v0.816h0.878v2.943h1.035
		v-2.943H29.2V48.205z M20.167,48.205c0.063,0.094,0.125,0.281,0.125,0.531v3.229h1.066v-3.76H20.167z M45.362,49.396
		c0,0.25-0.188,0.406-0.439,0.406H44.39v-0.816h0.533C45.205,48.986,45.362,49.146,45.362,49.396z M43.417,48.205v3.76h0.973v-1.377
		h0.627c0.752,0,1.285-0.502,1.285-1.223c0-0.691-0.47-1.16-1.285-1.16H43.417z"/>
	<path fill-rule="evenodd" clip-rule="evenodd" fill="#FFDD00" d="M26.49,44.375h-5.727c-0.446,0-0.764-0.348-0.764-0.764v-11.11
		C23.289,34.886,26.099,39.021,26.49,44.375z M43.49,18.035h5.747c0.413,0,0.763,0.351,0.763,0.764v11.269
		C46.337,27.331,43.824,23.1,43.49,18.035z M50,30.732v12.879c0,0.416-0.35,0.764-0.763,0.764H27.049
		c0.424-5.957,3.55-9.996,7.311-12.499c0.405-0.268,0.27-0.636-0.215-0.384c-2.648,1.374-5.205,1.776-7.369,1.776
		c-3.98,0-6.775-1.462-6.775-1.462V18.798c0-0.413,0.318-0.764,0.764-0.764h22.181c-0.356,6.197-3.879,10.334-7.326,12.602
		c-0.382,0.252-0.245,0.622,0.19,0.397c2.751-1.428,5.252-1.791,7.416-1.791C47.164,29.243,50,30.732,50,30.732z"/>
</g>
</svg>
