<?xml version="1.0" encoding="utf-8"?>
<!-- Generator: Adobe Illustrator 16.0.3, SVG Export Plug-In . SVG Version: 6.00 Build 0)  -->
<!DOCTYPE svg PUBLIC "-//W3C//DTD SVG 1.1//EN" "http://www.w3.org/Graphics/SVG/1.1/DTD/svg11.dtd">
<svg version="1.1" id="Layer_1" xmlns="http://www.w3.org/2000/svg" xmlns:xlink="http://www.w3.org/1999/xlink" x="0px" y="0px"
	 width="70px" height="70px" viewBox="47.5 0 70 70" enable-background="new 47.5 0 70 70" xml:space="preserve">
<rect x="47.5" fill="#FFFFFF" width="70" height="70"/>
<g>
	<g>
		<polygon points="64.148,37.848 64.148,38.908 57.5,38.908 57.5,31.598 58.697,31.598 58.697,37.848 		"/>
		<polygon points="63.219,34.257 64.548,31.73 63.283,31.73 62.287,34.257 		"/>
		<path d="M74.089,32.798c-0.431-0.681-1.06-1.247-1.802-1.637c-0.741-0.391-1.593-0.596-2.451-0.596
			c-0.851,0-1.704,0.205-2.445,0.596c-0.744,0.39-1.373,0.956-1.804,1.637c-0.431,0.678-0.664,1.463-0.664,2.252
			c0,0.785,0.233,1.572,0.664,2.248c0.432,0.683,1.061,1.251,1.804,1.641c0.741,0.39,1.594,0.595,2.445,0.595
			c0.858,0,1.709-0.205,2.451-0.595c0.743-0.39,1.372-0.958,1.802-1.641c0.432-0.676,0.665-1.463,0.665-2.248
			C74.754,34.261,74.521,33.476,74.089,32.798L74.089,32.798L74.089,32.798L74.089,32.798z M73.054,36.838
			c-0.32,0.536-0.792,0.981-1.349,1.288c-0.554,0.308-1.195,0.47-1.834,0.47c-0.641,0-1.281-0.162-1.838-0.47
			c-0.557-0.307-1.025-0.752-1.347-1.288c-0.32-0.53-0.495-1.146-0.495-1.765c0-0.612,0.175-1.228,0.495-1.76
			c0.322-0.531,0.79-0.98,1.347-1.288c0.557-0.306,1.197-0.47,1.838-0.47c0.639,0,1.28,0.164,1.834,0.47
			c0.557,0.308,1.029,0.757,1.349,1.288c0.322,0.532,0.496,1.147,0.496,1.76C73.55,35.691,73.376,36.308,73.054,36.838
			L73.054,36.838L73.054,36.838L73.054,36.838z"/>
		<path d="M83.101,34.751c-0.218,0.476-0.626,0.754-0.946,0.918c-0.32,0.166-0.551,0.225-0.785,0.218l0,0l2.33,3.021h-1.332
			l-2.25-2.923h-2.935v2.923h-1.198v-7.311h4.79l0,0c0.48,0,0.973,0.097,1.406,0.338c0.433,0.244,0.806,0.614,0.981,1.139
			C83.338,33.597,83.316,34.272,83.101,34.751L83.101,34.751z M81.762,34.699c0.251-0.212,0.402-0.561,0.386-0.909
			c-0.012-0.349-0.186-0.691-0.436-0.901c-0.251-0.21-0.572-0.229-0.873-0.229l0,0h-3.657v2.263h3.656l0,0
			C81.162,34.923,81.511,34.913,81.762,34.699L81.762,34.699z"/>
		<polygon points="90.015,34.723 90.015,35.72 85.956,35.72 85.956,37.848 91.411,37.848 91.411,38.908 84.762,38.908 
			84.762,31.598 91.411,31.598 91.411,32.66 85.956,32.66 85.956,34.723 		"/>
		<polygon points="90.082,30.467 88.285,30.467 87.554,31.398 		"/>
		<path d="M93.755,37.05l-0.948,1.858H91.61l3.724-7.311h1.196l3.725,7.311h-1.197L98.11,37.05H93.755L93.755,37.05z M95.933,32.772
			l-1.706,3.345h3.41L95.933,32.772L95.933,32.772z"/>
		<polygon points="107.5,37.848 107.5,38.908 100.852,38.908 100.852,31.598 102.05,31.598 102.05,37.848 		"/>
	</g>
</g>
</svg>
