<?xml version="1.0" encoding="utf-8"?>
<!-- Generator: Adobe Illustrator 16.0.3, SVG Export Plug-In . SVG Version: 6.00 Build 0)  -->
<!DOCTYPE svg PUBLIC "-//W3C//DTD SVG 1.1//EN" "http://www.w3.org/Graphics/SVG/1.1/DTD/svg11.dtd">
<svg version="1.1" id="Layer_1" xmlns="http://www.w3.org/2000/svg" xmlns:xlink="http://www.w3.org/1999/xlink" x="0px" y="0px"
	 width="70px" height="70px" viewBox="25 0 70 70" enable-background="new 25 0 70 70" xml:space="preserve">
<rect x="25" y="0" fill="#FFFFFF" width="70" height="70"/>
<g>
	<rect x="35" y="31.222" fill="#B91222" width="7.549" height="7.557"/>
	<g>
		<rect x="42.549" y="31.222" fill="#005995" width="7.549" height="7.557"/>
		<path fill="#005995" d="M46.323,35"/>
	</g>
	<g>
		<path fill="#FBAE17" d="M44.309,36.519l0.171,0.17l0.479-0.48c-0.053-0.061-0.103-0.124-0.147-0.192L44.309,36.519z"/>
		<path fill="#FBAE17" d="M44.652,36.863l0.17,0.171l0.503-0.504c-0.067-0.045-0.131-0.096-0.192-0.147L44.652,36.863z"/>
		<path fill="#FBAE17" d="M47.829,37.029l0.169-0.17l-0.48-0.481c-0.061,0.054-0.123,0.104-0.191,0.149L47.829,37.029z"/>
		<path fill="#FBAE17" d="M47.691,36.203l0.48,0.481l0.17-0.17l-0.504-0.504C47.794,36.079,47.744,36.143,47.691,36.203z"/>
		<path fill="#FBAE17" d="M48.339,33.506l-0.17-0.17l-0.48,0.48c0.053,0.061,0.103,0.124,0.147,0.192L48.339,33.506z"/>
		<path fill="#FBAE17" d="M47.994,33.162l-0.169-0.17l-0.503,0.504c0.067,0.044,0.131,0.094,0.192,0.146L47.994,33.162z"/>
		<path fill="#FBAE17" d="M44.822,32.992l-0.17,0.17l0.48,0.48c0.061-0.054,0.125-0.103,0.192-0.147L44.822,32.992z"/>
		<path fill="#FBAE17" d="M44.479,33.336l-0.171,0.17l0.503,0.503c0.045-0.068,0.096-0.132,0.147-0.192L44.479,33.336z"/>
		<path fill="#FBAE17" d="M44.534,34.72l-1.551,0.281l1.55,0.292c-0.015-0.093-0.024-0.186-0.024-0.281
			C44.509,34.912,44.52,34.816,44.534,34.72z"/>
		<path fill="#FBAE17" d="M46.031,36.803l0.282,1.552l0.291-1.55c-0.092,0.015-0.185,0.024-0.281,0.024
			C46.224,36.829,46.127,36.819,46.031,36.803z"/>
		<path fill="#FBAE17" d="M48.115,35.293l1.548-0.281l-1.55-0.292c0.015,0.096,0.025,0.192,0.025,0.292
			C48.139,35.108,48.129,35.2,48.115,35.293z"/>
		<path fill="#FBAE17" d="M46.604,33.22l-0.281-1.551l-0.291,1.553c0.096-0.017,0.192-0.026,0.291-0.026
			C46.419,33.196,46.513,33.205,46.604,33.22z"/>
	</g>
	<g>
		<path fill="#005995" d="M55.037,35.965l-1.665-2.963h-0.18l-0.272,3.1c-0.039,0.42-0.104,0.601-0.35,0.654v0.121
			c0.164,0,0.327-0.022,0.491-0.022s0.327,0.022,0.49,0.022v-0.121c-0.229-0.043-0.311-0.19-0.311-0.475
			c0-0.114,0.016-0.278,0.022-0.354l0.093-1.621h0.011l1.55,2.587l1.233-2.527h0.011l0.142,1.644
			c0.012,0.075,0.022,0.196,0.022,0.371c0,0.18-0.065,0.354-0.246,0.376v0.12c0.191,0,0.377-0.022,0.567-0.022
			c0.191,0,0.377,0.022,0.567,0.022v-0.12c-0.224-0.011-0.284-0.257-0.306-0.53L56.663,33H56.5L55.037,35.965z"/>
		<path fill="#005995" d="M65.398,33.837c0.021-0.235,0.195-0.448,0.447-0.448h1.839l-2.56,3.466h2.772
			c0.246,0,0.431,0.011,0.595,0.087l0.146-0.758l-0.201-0.021c-0.104,0.278-0.333,0.365-1.195,0.365
			c-0.393,0-0.786-0.021-1.178-0.027l2.651-3.411h-3.236c-0.093,0-0.186-0.016-0.289-0.044v0.775L65.398,33.837z"/>
		<path fill="#005995" d="M84.951,33.215c-0.327-0.169-0.699-0.213-1.064-0.213c-0.693,0-1.277,0.463-1.277,1.189
			c0,1.425,1.861,0.867,1.861,1.828c0,0.421-0.328,0.693-0.737,0.693c-0.354,0-0.736-0.246-0.824-0.606h-0.196l0.056,0.585
			c0.18,0.12,0.616,0.25,0.971,0.25c0.645,0,1.261-0.403,1.261-1.107c0-1.479-1.861-0.77-1.861-1.921
			c0-0.382,0.339-0.682,0.709-0.682c0.409,0,0.748,0.163,0.896,0.578h0.207L84.951,33.215L84.951,33.215z"/>
		<path fill="#005995" d="M61.69,35.77l0.191,0.507c0.038,0.109,0.065,0.202,0.065,0.278c0,0.125-0.065,0.202-0.181,0.202v0.12
			c0.186,0,0.366-0.022,0.552-0.022c0.185,0,0.365,0.022,0.551,0.022v-0.12c-0.196-0.021-0.246-0.202-0.437-0.688l-1.195-3.066
			h-0.065l-1.162,2.936c-0.104,0.263-0.312,0.774-0.529,0.818v0.121c0.157,0,0.311-0.022,0.469-0.022s0.312,0.022,0.469,0.022
			v-0.121c-0.131,0-0.196-0.104-0.196-0.234c0-0.061,0.011-0.181,0.039-0.272l0.146-0.48H61.69L61.69,35.77z M60.512,35.507
			l0.529-1.436l0.552,1.436H60.512L60.512,35.507z"/>
		<path fill="#005995" d="M73.013,35.77l0.191,0.507c0.037,0.109,0.064,0.202,0.064,0.278c0,0.125-0.064,0.202-0.18,0.202v0.12
			c0.185,0,0.365-0.022,0.551-0.022s0.366,0.022,0.551,0.022v-0.12c-0.196-0.021-0.246-0.202-0.437-0.688l-1.194-3.066h-0.065
			l-1.163,2.936c-0.104,0.263-0.311,0.774-0.529,0.818v0.121c0.158,0,0.312-0.022,0.469-0.022c0.159,0,0.312,0.022,0.471,0.022
			v-0.121c-0.131,0-0.197-0.104-0.197-0.234c0-0.061,0.011-0.181,0.038-0.272l0.147-0.48H73.013L73.013,35.77z M71.833,35.507
			l0.53-1.436l0.551,1.436H71.833z"/>
		<path fill="#005995" d="M77.716,33.416c0-0.136,0.152-0.152,0.294-0.152c0.596,0,0.825,0.447,0.825,0.949
			c0,0.519-0.432,0.857-0.934,0.857c-0.065,0-0.131-0.011-0.213-0.017L77.716,33.416z M76.831,36.877
			c0.197,0,0.383-0.022,0.579-0.022s0.388,0.022,0.584,0.022v-0.12c-0.278-0.061-0.306-0.224-0.306-0.453v-1.081
			c0.131,0,0.245,0.142,0.328,0.235l0.905,1.059c0.064,0.076,0.082,0.125,0.082,0.174c-0.006,0.038-0.022,0.061-0.061,0.065v0.12
			c0.18,0,0.36-0.021,0.54-0.021c0.181,0,0.366,0.021,0.546,0.021v-0.12c-0.147-0.027-0.332-0.207-0.414-0.306l-1.103-1.276
			c0.486-0.12,0.987-0.476,0.987-1.026c0-0.589-0.479-1.081-1.463-1.081c-0.408,0-0.572,0.022-0.736,0.022
			c-0.175,0-0.355-0.022-0.529-0.022v0.12c0.277,0.056,0.306,0.191,0.306,0.448c0,0.464,0.026,0.933,0.026,1.402v1.402
			c0,0.186-0.088,0.272-0.273,0.316L76.831,36.877L76.831,36.877z"/>
	</g>
	<path fill="#FBAE17" d="M38.841,36.116l1.525-3.118h0.092l0.158,3.241c0.022,0.44,0.055,0.489,0.295,0.528v0.098
		c-0.158,0-0.321-0.021-0.513-0.021c-0.158,0-0.321,0.021-0.457,0.021v-0.098c0.229-0.017,0.271-0.175,0.271-0.371
		c0-0.206-0.011-0.381-0.017-0.469l-0.108-1.934h-0.021l-1.349,2.752l-1.571-2.757H37.12l-0.104,1.71
		c-0.011,0.142-0.011,0.393-0.011,0.534c0,0.381,0.152,0.512,0.338,0.533v0.098c-0.152,0-0.311-0.021-0.474-0.021
		c-0.158,0-0.311,0.021-0.468,0.021v-0.098c0.288-0.064,0.332-0.157,0.364-0.632l0.207-3.138h0.098L38.841,36.116z"/>
</g>
</svg>
