<?xml version="1.0" encoding="utf-8"?>
<!-- Generator: Adobe Illustrator 16.0.3, SVG Export Plug-In . SVG Version: 6.00 Build 0)  -->
<!DOCTYPE svg PUBLIC "-//W3C//DTD SVG 1.1//EN" "http://www.w3.org/Graphics/SVG/1.1/DTD/svg11.dtd">
<svg version="1.1" id="Layer_1" xmlns="http://www.w3.org/2000/svg" xmlns:xlink="http://www.w3.org/1999/xlink" x="0px" y="0px"
	 width="70px" height="70px" viewBox="0 0 70 70" enable-background="new 0 0 70 70" xml:space="preserve">
<rect fill="#FFFFFF" width="70" height="70"/>
<g>
	<g>
		<g>
			<path fill="#231C34" d="M52.807,37.701h0.155v1.08h-0.155V37.701z"/>
			<path fill="#231C34" d="M54.061,37.701h0.146v1.08h-0.133l-0.723-0.834v0.834h-0.146v-1.08h0.126l0.729,0.838V37.701z"/>
			<path fill="#231C34" d="M54.348,37.699h0.901v0.137h-0.376v0.945h-0.156v-0.945h-0.369V37.699z"/>
			<path fill="#231C34" d="M55.396,37.701h0.612v0.137H55.55v0.33h0.444v0.137H55.55v0.336h0.473v0.139h-0.626V37.701z"/>
			<path fill="#231C34" d="M56.193,38.781v-1.08h0.271c0.108,0,0.196,0.027,0.261,0.082c0.063,0.053,0.096,0.125,0.096,0.219
				c0,0.063-0.016,0.117-0.047,0.164c-0.032,0.045-0.077,0.078-0.136,0.102c0.034,0.021,0.067,0.055,0.102,0.092
				c0.032,0.041,0.079,0.109,0.139,0.205c0.038,0.063,0.068,0.107,0.091,0.141l0.058,0.076h-0.185l-0.048-0.07
				c-0.001-0.004-0.005-0.01-0.008-0.014l-0.03-0.043l-0.048-0.078l-0.053-0.086c-0.031-0.043-0.061-0.08-0.088-0.105
				c-0.026-0.025-0.05-0.045-0.072-0.057c-0.021-0.012-0.057-0.018-0.107-0.018h-0.04v0.471H56.193z M56.394,37.832h-0.046v0.34
				h0.059c0.079,0,0.133-0.006,0.161-0.018c0.029-0.016,0.052-0.035,0.068-0.061c0.016-0.029,0.024-0.059,0.024-0.094
				s-0.01-0.066-0.027-0.092c-0.019-0.027-0.043-0.049-0.075-0.059C56.523,37.838,56.47,37.832,56.394,37.832z"/>
			<path fill="#231C34" d="M58.004,37.701h0.147v1.08h-0.133l-0.724-0.834v0.834H57.15v-1.08h0.125l0.729,0.838V37.701z"/>
			<path fill="#231C34" d="M58.728,37.693h0.108l0.484,1.088h-0.158l-0.144-0.32h-0.461l-0.136,0.32h-0.158L58.728,37.693z
				 M58.954,38.324l-0.174-0.393l-0.162,0.393H58.954z"/>
			<path fill="#231C34" d="M59.188,37.699h0.902v0.137h-0.376v0.945h-0.156v-0.945h-0.37V37.699z"/>
			<path fill="#231C34" d="M60.239,37.701h0.155v1.08h-0.155V37.701z"/>
			<path fill="#231C34" d="M61.164,37.684c0.167,0,0.306,0.055,0.417,0.16c0.11,0.105,0.167,0.238,0.167,0.396
				c0,0.16-0.057,0.291-0.168,0.396c-0.112,0.105-0.254,0.156-0.425,0.156c-0.163,0-0.299-0.051-0.406-0.156
				c-0.108-0.105-0.164-0.236-0.164-0.393c0-0.16,0.056-0.295,0.165-0.4C60.858,37.738,60.997,37.684,61.164,37.684z M61.17,37.832
				c-0.124,0-0.225,0.039-0.305,0.115c-0.08,0.078-0.12,0.176-0.12,0.297c0,0.117,0.041,0.213,0.12,0.291
				c0.08,0.076,0.18,0.115,0.3,0.115s0.222-0.039,0.303-0.117c0.08-0.078,0.12-0.178,0.12-0.295c0-0.115-0.04-0.211-0.12-0.289
				C61.387,37.871,61.288,37.832,61.17,37.832z"/>
			<path fill="#231C34" d="M62.797,37.701h0.146v1.08h-0.133l-0.723-0.834v0.834h-0.146v-1.08h0.125l0.729,0.838V37.701z"/>
			<path fill="#231C34" d="M63.521,37.693h0.108l0.484,1.088h-0.158l-0.145-0.32H63.35l-0.135,0.32h-0.159L63.521,37.693z
				 M63.748,38.324l-0.176-0.393l-0.16,0.393H63.748z"/>
			<path fill="#231C34" d="M64.232,37.701h0.153v0.939h0.487v0.141h-0.641V37.701z"/>
		</g>
		<g>
			<path fill="#231C34" d="M47.506,32.792h0.28l1.251,2.942h-0.409l-0.372-0.867h-1.19l-0.348,0.867h-0.41L47.506,32.792z
				 M48.093,34.495l-0.45-1.06l-0.418,1.06H48.093z"/>
			<path fill="#231C34" d="M48.696,32.805h2.33v0.373h-0.974v2.557h-0.401v-2.557h-0.955V32.805z"/>
			<path fill="#231C34" d="M53.808,35.056v0.461c-0.292,0.166-0.631,0.25-1.015,0.25c-0.312,0-0.575-0.064-0.792-0.197
				c-0.218-0.13-0.389-0.312-0.517-0.541c-0.126-0.23-0.188-0.48-0.188-0.748c0-0.425,0.145-0.784,0.434-1.074
				c0.29-0.29,0.646-0.435,1.071-0.435c0.293,0,0.619,0.08,0.977,0.241v0.45c-0.325-0.195-0.645-0.293-0.956-0.293
				c-0.319,0-0.585,0.106-0.796,0.317c-0.21,0.212-0.316,0.477-0.316,0.795c0,0.321,0.104,0.585,0.312,0.792s0.474,0.31,0.797,0.31
				C53.156,35.383,53.486,35.273,53.808,35.056z"/>
		</g>
		<g>
			<g>
				<path fill="#231C34" d="M42.805,34.378l3.129-1.88c0,0-1.057,0.635-1.057,1.88c0,1.245,1.072,1.897,1.072,1.897L42.805,34.378z"
					/>
				<path fill="#231C34" d="M45.932,36.301l-3.189-1.923l3.176-1.907l0,0l0.032,0.055c-0.01,0.006-1.041,0.641-1.041,1.853
					c0,1.211,1.046,1.862,1.056,1.868L45.932,36.301z M42.867,34.378l2.706,1.631c-0.316-0.309-0.729-0.859-0.729-1.631
					c0-0.77,0.403-1.313,0.716-1.618L42.867,34.378z"/>
			</g>
			<g>
				<path fill="#231C34" d="M57.332,34.394l-3.13,1.882c0,0,1.058-0.635,1.058-1.882c0-1.245-1.071-1.896-1.071-1.896L57.332,34.394
					z"/>
				<path fill="#231C34" d="M54.219,36.301l-0.032-0.055l0,0l0,0c0.014-0.008,1.04-0.643,1.04-1.853
					c0-1.212-1.045-1.861-1.056-1.868l0.034-0.055l0,0l0,0l3.188,1.924L54.219,36.301L54.219,36.301z M54.563,32.762
					c0.315,0.309,0.728,0.859,0.728,1.631c0,0.771-0.402,1.313-0.715,1.618l2.693-1.618L54.563,32.762z"/>
			</g>
			<g>
				<path fill="#231C34" d="M47.029,31.874l3.029-1.819l3.036,1.816c0,0-1.237-0.58-3.06-0.58
					C48.214,31.292,47.029,31.874,47.029,31.874z"/>
				<path fill="#231C34" d="M47.044,31.903l-0.03-0.057l3.045-1.829l0.017,0.01l3.036,1.816l-0.03,0.057
					c-0.012-0.006-1.252-0.576-3.046-0.576C48.243,31.324,47.056,31.897,47.044,31.903z M50.035,31.259
					c1.24,0,2.219,0.271,2.716,0.443l-2.692-1.61l-2.667,1.602C47.883,31.52,48.822,31.259,50.035,31.259z"/>
			</g>
			<g>
				<path fill="#231C34" d="M53.087,36.855l-3.028,1.82l-3.037-1.816c0,0,1.238,0.58,3.06,0.58S53.087,36.855,53.087,36.855z"/>
				<path fill="#231C34" d="M50.059,38.713l-0.016-0.01l-3.038-1.816l0.03-0.057c0.012,0.006,1.254,0.576,3.046,0.576
					c1.794,0,2.98-0.572,2.992-0.578l0.03,0.057L50.059,38.713z M47.365,37.029l2.693,1.609l2.667-1.602
					c-0.491,0.174-1.431,0.436-2.645,0.436C48.842,37.473,47.862,37.199,47.365,37.029z"/>
			</g>
		</g>
		<line fill="#231C34" x1="42.8" y1="34.324" x2="50.567" y2="39.014"/>
	</g>
	<g>
		<g>
			<g>
				<path fill="#682666" d="M36.731,36.133v-0.084h0.069v0.084H36.731z M36.731,36.701v-0.459h0.069v0.459H36.731z"/>
				<path fill="#682666" d="M36.956,36.701v-0.459h0.069v0.092c0.018-0.047,0.051-0.08,0.1-0.094
					c0.026-0.008,0.074-0.012,0.145-0.012c0.051,0,0.088,0.004,0.112,0.01c0.048,0.008,0.081,0.029,0.102,0.057
					c0.018,0.027,0.024,0.064,0.024,0.117v0.289h-0.069v-0.285c0-0.043-0.008-0.074-0.024-0.09
					c-0.024-0.021-0.079-0.031-0.162-0.031c-0.07,0-0.12,0.006-0.152,0.018c-0.049,0.021-0.074,0.061-0.074,0.119v0.27H36.956z"/>
				<path fill="#682666" d="M37.58,36.301v-0.059h0.111l0.001-0.104h0.069l-0.002,0.104h0.315v0.059h-0.316l-0.004,0.23
					c0,0.031,0.001,0.051,0.006,0.066c0.009,0.023,0.023,0.037,0.047,0.043c0.02,0.006,0.052,0.01,0.094,0.01
					c0.06,0,0.096-0.012,0.11-0.035c0.007-0.012,0.012-0.047,0.012-0.098v-0.016h0.062v0.018c0,0.039-0.001,0.064-0.002,0.074
					c-0.002,0.029-0.01,0.053-0.021,0.066c-0.025,0.033-0.081,0.049-0.165,0.049c-0.047,0-0.082-0.002-0.105-0.008
					c-0.039-0.008-0.068-0.025-0.086-0.053c-0.014-0.021-0.021-0.061-0.02-0.117l0.006-0.23H37.58z"/>
				<path fill="#682666" d="M38.191,36.701v-0.652h0.07v0.652H38.191z"/>
			</g>
		</g>
		<path fill="#682666" d="M5.127,36.746c0,0,0-0.352,0-0.703l0,0c0-0.35,0-0.701,0-0.702l0,0c0-0.539,0-1.039,0-1.087l0,0
			c0.002-0.185,0.036-0.454,0.204-0.696l0,0c0.168-0.244,0.485-0.43,0.944-0.426l0,0h6.671c0.459-0.004,0.776,0.182,0.943,0.426l0,0
			c0.168,0.242,0.202,0.511,0.203,0.696l0,0v2.453h-0.382v-2.453c0.001-0.136-0.03-0.332-0.133-0.476l0,0
			c-0.105-0.141-0.265-0.26-0.632-0.264l0,0H6.275c-0.366,0.004-0.527,0.123-0.631,0.264l0,0c-0.104,0.144-0.136,0.341-0.135,0.476
			l0,0c0,0.049,0,0.548,0,1.087l0,0l0,0l0,0c0,0.007,0,0.354,0,0.702l0,0c0,0.352,0,0.703,0,0.703l0,0H5.127L5.127,36.746z"/>
		<g>
			<path fill="#682666" d="M17.415,36.754h-1.937c-0.455,0.004-0.77-0.182-0.936-0.424l0,0c-0.168-0.24-0.201-0.508-0.202-0.689l0,0
				c0,0,0-1.285,0-1.395l0,0c0.001-0.183,0.034-0.449,0.202-0.689l0,0c0.166-0.243,0.48-0.428,0.936-0.424l0,0h1.993v0v0.382h-1.993
				c-0.362,0.004-0.521,0.122-0.624,0.261l0,0c-0.102,0.142-0.133,0.336-0.132,0.47l0,0c0,0.11,0,1.395,0,1.395l0,0
				c-0.001,0.133,0.03,0.328,0.132,0.469l0,0c0.104,0.141,0.262,0.258,0.624,0.264l0,0h1.937c0.362-0.006,0.521-0.123,0.623-0.264
				l0,0c0.103-0.141,0.134-0.336,0.133-0.469l0,0c0-0.109,0-1.401,0-1.401l0,0h0.382c0,0,0,1.292,0,1.401l0,0
				c-0.002,0.182-0.035,0.449-0.202,0.689l0,0c-0.165,0.238-0.475,0.424-0.922,0.424l0,0C17.424,36.754,17.419,36.754,17.415,36.754
				L17.415,36.754z"/>
			<path fill="#682666" d="M18.171,35.641c0,0,0-1.285,0-1.395l0,0c0.001-0.134-0.03-0.329-0.132-0.47l0,0
				c-0.103-0.14-0.262-0.258-0.624-0.262l0,0h-1.884v-0.382h1.884c0.455-0.004,0.77,0.181,0.937,0.423l0,0
				c0.167,0.241,0.201,0.507,0.202,0.69l0,0c0,0.11,0,1.395,0,1.395l0,0H18.171L18.171,35.641z"/>
		</g>
		<path fill="#682666" d="M26.558,36.777h-1.937c-0.453,0.002-0.77-0.184-0.936-0.426l0,0c-0.168-0.24-0.202-0.506-0.202-0.691l0,0
			v-0.756c0-0.11,0-0.636,0-0.636l0,0c0-0.183,0.034-0.449,0.202-0.689l0,0c0.166-0.242,0.482-0.428,0.936-0.424l0,0h1.243v0.382
			h-1.243c-0.362,0.004-0.521,0.122-0.624,0.262l0,0c-0.102,0.142-0.133,0.337-0.132,0.47l0,0c0,0,0,0.526,0,0.636l0,0v0.756
			c-0.001,0.137,0.03,0.33,0.132,0.473l0,0c0.104,0.139,0.262,0.258,0.624,0.262l0,0h1.937c0.361-0.004,0.521-0.123,0.623-0.262l0,0
			c0.102-0.143,0.133-0.336,0.132-0.473l0,0v-0.02c0.001-0.135-0.03-0.33-0.132-0.472l0,0c-0.103-0.14-0.262-0.258-0.623-0.262l0,0
			H25.82h-0.026v-0.382h0.026h0.737c0.454-0.004,0.769,0.182,0.936,0.424l0,0c0.167,0.24,0.201,0.507,0.202,0.691l0,0v0.02
			c-0.001,0.186-0.035,0.451-0.202,0.691l0,0c-0.164,0.24-0.475,0.426-0.922,0.426l0,0C26.566,36.777,26.562,36.777,26.558,36.777
			L26.558,36.777z M25.794,34.907L25.794,34.907L25.794,34.907L25.794,34.907z"/>
		<path fill="#682666" d="M20.377,36.33c-0.153-0.223-0.193-0.469-0.199-0.648l0,0c-0.001-0.006-0.001-0.012-0.001-0.016l0,0v-0.025
			c0-0.01,0.001-0.02,0.002-0.025l0,0c0.006-0.102,0.032-0.229,0.114-0.352l0,0c0.099-0.148,0.296-0.261,0.548-0.257l0,0h0.236
			h0.027h1.168c0.358-0.005,0.515-0.128,0.62-0.28l0,0c0.095-0.142,0.13-0.33,0.135-0.463l0,0c-0.005-0.133-0.04-0.322-0.135-0.463
			l0,0c-0.105-0.153-0.262-0.276-0.62-0.281l0,0h-2.399c-0.362,0.004-0.521,0.122-0.623,0.262l0,0
			c-0.102,0.142-0.132,0.337-0.132,0.471l0,0c0,0,0,2.338,0,2.449l0,0h-0.382c0-0.055,0-0.666,0-1.266l0,0c0-0.599,0-1.183,0-1.183
			l0,0c0.002-0.183,0.034-0.45,0.201-0.69l0,0c0.167-0.243,0.481-0.429,0.936-0.424l0,0h2.399c0.46-0.005,0.776,0.198,0.938,0.451
			l0,0c0.134,0.206,0.181,0.427,0.193,0.6l0,0c0.004,0.013,0.005,0.027,0.005,0.041l0,0v0.068c0,0.014-0.001,0.027-0.005,0.041l0,0
			c-0.013,0.174-0.06,0.394-0.193,0.6l0,0c-0.162,0.252-0.479,0.455-0.938,0.451l0,0h-1.168h-0.027h-0.236
			c-0.157,0.004-0.196,0.046-0.232,0.092l0,0c-0.034,0.045-0.049,0.12-0.05,0.174l0,0c0.001,0.133,0.033,0.32,0.133,0.459l0,0
			c0.103,0.143,0.26,0.26,0.623,0.264l0,0l0,0v0.383c-0.005,0-0.011,0-0.016,0l0,0C20.853,36.76,20.542,36.574,20.377,36.33
			L20.377,36.33z"/>
		<path fill="#682666" d="M32.275,36.701c0-0.109,0-2.463,0-2.463l0,0c0.001-0.183,0.035-0.448,0.201-0.689l0,0
			c0.166-0.243,0.482-0.428,0.938-0.424l0,0h1.906c0.457-0.004,0.771,0.182,0.938,0.424l0,0c0.168,0.24,0.201,0.508,0.202,0.689l0,0
			c0,0.11,0,2.458,0,2.458l0,0h-0.382c0,0,0-2.348,0-2.458l0,0c0-0.133-0.03-0.328-0.132-0.47l0,0
			c-0.104-0.14-0.263-0.258-0.627-0.262l0,0h-1.906c-0.364,0.004-0.521,0.122-0.624,0.262l0,0c-0.103,0.142-0.134,0.337-0.132,0.47
			l0,0c0,0,0,2.354,0,2.463l0,0l0,0H32.275L32.275,36.701z"/>
		<g>
			<path fill="#682666" d="M28.003,36.33c-0.167-0.24-0.199-0.508-0.2-0.689l0,0c0-0.109,0-1.395,0-1.395l0,0
				c0.001-0.183,0.033-0.449,0.2-0.689l0,0c0.166-0.243,0.482-0.428,0.938-0.424l0,0h1.936c0.455-0.003,0.771,0.181,0.936,0.423l0,0
				c0.168,0.241,0.201,0.508,0.202,0.69l0,0c0,0.11,0,2.456,0,2.456l0,0h-0.382c0,0,0-2.346,0-2.456l0,0
				c0.002-0.134-0.03-0.329-0.132-0.47l0,0c-0.103-0.14-0.261-0.257-0.624-0.261l0,0H28.94c-0.364,0.004-0.521,0.122-0.625,0.261
				l0,0c-0.102,0.142-0.133,0.336-0.132,0.47l0,0c0,0,0,1.286,0,1.395l0,0c-0.001,0.133,0.03,0.328,0.132,0.469l0,0
				c0.104,0.141,0.261,0.258,0.625,0.264l0,0h1.29l0,0v0.381h-1.29c-0.005,0-0.011,0-0.016,0l0,0
				C28.478,36.754,28.168,36.568,28.003,36.33L28.003,36.33z"/>
			<path fill="#682666" d="M30.146,36.754h-1.373v-0.381h1.373c0.363-0.006,0.521-0.121,0.624-0.262l0,0
				c0.102-0.143,0.132-0.336,0.132-0.471l0,0h0.382c-0.001,0.184-0.034,0.449-0.202,0.689l0,0c-0.164,0.24-0.475,0.424-0.922,0.424
				l0,0C30.155,36.754,30.15,36.754,30.146,36.754L30.146,36.754z"/>
		</g>
		<g>
			<g>
				<path fill="#682666" d="M13.711,38.736v-0.9h0.096v0.361c0.023-0.047,0.07-0.078,0.14-0.092c0.034-0.006,0.094-0.01,0.178-0.01
					c0.17,0,0.279,0.02,0.327,0.063c0.051,0.045,0.076,0.133,0.076,0.264c0,0.129-0.025,0.217-0.076,0.262
					c-0.048,0.041-0.158,0.063-0.328,0.063c-0.083,0-0.143-0.004-0.177-0.01c-0.069-0.014-0.116-0.047-0.14-0.092v0.092H13.711z
					 M14.117,38.176c-0.069,0-0.117,0.002-0.144,0.004c-0.063,0.01-0.106,0.025-0.129,0.053c-0.025,0.031-0.038,0.094-0.038,0.186
					c0,0.104,0.017,0.172,0.048,0.203c0.032,0.029,0.12,0.045,0.262,0.045c0.068,0,0.116-0.002,0.145-0.006
					c0.064-0.008,0.107-0.023,0.128-0.051c0.027-0.033,0.04-0.096,0.04-0.188c0-0.104-0.017-0.17-0.049-0.201
					C14.347,38.191,14.26,38.176,14.117,38.176z"/>
				<path fill="#682666" d="M14.83,38.439c0.001,0.047,0.002,0.078,0.006,0.096c0.011,0.059,0.042,0.098,0.095,0.113
					c0.032,0.012,0.102,0.018,0.207,0.018c0.093,0,0.152-0.004,0.179-0.008c0.069-0.016,0.108-0.053,0.115-0.109h0.099
					c-0.009,0.1-0.064,0.16-0.171,0.182c-0.05,0.01-0.126,0.016-0.228,0.016c-0.168,0-0.276-0.021-0.324-0.063
					c-0.051-0.045-0.077-0.133-0.077-0.262c0-0.131,0.026-0.219,0.077-0.264c0.048-0.043,0.155-0.063,0.323-0.063
					c0.087,0,0.149,0.004,0.189,0.008c0.077,0.016,0.132,0.043,0.162,0.086c0.034,0.043,0.05,0.127,0.049,0.25H14.83z
					 M15.431,38.361c0-0.045-0.007-0.08-0.019-0.104c-0.021-0.041-0.063-0.066-0.126-0.076c-0.023-0.004-0.074-0.006-0.155-0.006
					c-0.116,0-0.193,0.01-0.229,0.029c-0.045,0.023-0.067,0.076-0.071,0.156H15.431z"/>
				<path fill="#682666" d="M15.628,38.104h0.104l0.314,0.57l0.284-0.57h0.1l-0.341,0.686c-0.03,0.057-0.048,0.094-0.055,0.107
					c-0.024,0.041-0.049,0.072-0.073,0.092c-0.044,0.035-0.105,0.055-0.184,0.055c-0.008,0-0.021,0-0.038-0.002v-0.078
					c0.013,0,0.022,0,0.029,0c0.061,0,0.106-0.016,0.139-0.047c0.022-0.02,0.049-0.063,0.082-0.127l0.025-0.053h-0.036
					L15.628,38.104z"/>
				<path fill="#682666" d="M16.942,38.096c0.175,0,0.287,0.02,0.335,0.063c0.051,0.045,0.076,0.135,0.076,0.266
					c0,0.129-0.025,0.215-0.076,0.26c-0.048,0.041-0.159,0.063-0.334,0.063s-0.286-0.021-0.334-0.063
					c-0.053-0.045-0.078-0.133-0.078-0.262c0-0.131,0.025-0.219,0.078-0.264C16.656,38.115,16.767,38.096,16.942,38.096z
					 M16.944,38.176c-0.07,0-0.118,0.002-0.145,0.004c-0.064,0.01-0.107,0.025-0.13,0.053c-0.025,0.031-0.038,0.096-0.038,0.189
					c0,0.1,0.017,0.168,0.049,0.199c0.032,0.029,0.12,0.045,0.263,0.045c0.068,0,0.116-0.002,0.144-0.006
					c0.064-0.008,0.106-0.023,0.128-0.051c0.026-0.033,0.04-0.094,0.04-0.186c0-0.105-0.017-0.172-0.049-0.203
					C17.173,38.191,17.086,38.176,16.944,38.176z"/>
				<path fill="#682666" d="M17.574,38.736v-0.633h0.095v0.127c0.024-0.068,0.07-0.109,0.139-0.129
					c0.035-0.01,0.102-0.014,0.2-0.014c0.067,0,0.119,0.002,0.152,0.01c0.067,0.014,0.114,0.039,0.141,0.08
					c0.022,0.035,0.034,0.09,0.034,0.162v0.396h-0.096v-0.395c0-0.061-0.012-0.1-0.034-0.121c-0.034-0.029-0.109-0.043-0.225-0.043
					c-0.095,0-0.164,0.008-0.208,0.025c-0.068,0.027-0.104,0.082-0.104,0.162v0.371H17.574z"/>
				<path fill="#682666" d="M19.374,38.736h-0.096v-0.092c-0.023,0.045-0.07,0.078-0.14,0.092c-0.035,0.006-0.094,0.01-0.178,0.01
					c-0.171,0-0.279-0.021-0.327-0.063c-0.052-0.045-0.078-0.133-0.078-0.262c0-0.131,0.026-0.219,0.078-0.264
					c0.047-0.043,0.156-0.063,0.328-0.063c0.083,0,0.142,0.004,0.177,0.01c0.068,0.014,0.115,0.045,0.14,0.092v-0.361h0.096V38.736z
					 M18.969,38.176c-0.069,0-0.117,0.002-0.145,0.004c-0.064,0.01-0.107,0.025-0.13,0.053c-0.025,0.031-0.038,0.096-0.038,0.189
					c0,0.1,0.017,0.168,0.049,0.199c0.033,0.029,0.119,0.045,0.262,0.045c0.068,0,0.116-0.002,0.144-0.006
					c0.064-0.008,0.107-0.023,0.128-0.051c0.027-0.033,0.04-0.094,0.04-0.186c0-0.105-0.017-0.172-0.049-0.203
					C19.196,38.191,19.11,38.176,18.969,38.176z"/>
				<path fill="#682666" d="M19.969,38.104h0.095v0.094c0.024-0.047,0.071-0.078,0.142-0.092c0.033-0.006,0.093-0.01,0.176-0.01
					c0.172,0,0.28,0.02,0.328,0.063c0.051,0.045,0.077,0.133,0.077,0.262c0,0.131-0.026,0.219-0.077,0.264
					c-0.048,0.041-0.157,0.063-0.328,0.063c-0.084,0-0.143-0.004-0.178-0.01c-0.069-0.016-0.115-0.047-0.14-0.092v0.361h-0.095
					V38.104z M20.375,38.176c-0.068,0-0.116,0.002-0.144,0.004c-0.064,0.01-0.106,0.025-0.128,0.053
					c-0.026,0.031-0.04,0.094-0.04,0.186c0,0.104,0.017,0.172,0.049,0.203c0.033,0.029,0.12,0.045,0.261,0.045
					c0.068,0,0.117-0.002,0.145-0.006c0.065-0.008,0.108-0.023,0.13-0.051c0.025-0.033,0.039-0.096,0.039-0.189
					c0-0.102-0.017-0.168-0.049-0.199C20.604,38.191,20.518,38.176,20.375,38.176z"/>
				<path fill="#682666" d="M21.007,38.736v-0.633h0.094v0.125c0.021-0.061,0.059-0.1,0.114-0.117
					c0.032-0.012,0.09-0.016,0.174-0.016c0.104,0,0.175,0.014,0.213,0.043c0.047,0.035,0.07,0.102,0.07,0.199v0.037h-0.096v-0.033
					c0-0.076-0.019-0.125-0.058-0.145c-0.028-0.014-0.08-0.021-0.155-0.021c-0.084,0-0.146,0.01-0.183,0.031
					c-0.053,0.029-0.08,0.082-0.08,0.156v0.373H21.007z"/>
				<path fill="#682666" d="M22.252,38.096c0.174,0,0.285,0.02,0.333,0.063c0.052,0.045,0.078,0.135,0.078,0.266
					c0,0.129-0.026,0.215-0.078,0.26c-0.048,0.041-0.158,0.063-0.333,0.063s-0.286-0.021-0.334-0.063
					c-0.052-0.045-0.077-0.133-0.077-0.262c0-0.131,0.025-0.219,0.077-0.264C21.966,38.115,22.076,38.096,22.252,38.096z
					 M22.254,38.176c-0.07,0-0.119,0.002-0.145,0.004c-0.065,0.01-0.108,0.025-0.13,0.053c-0.026,0.031-0.04,0.096-0.04,0.189
					c0,0.1,0.017,0.168,0.05,0.199c0.032,0.029,0.12,0.045,0.263,0.045c0.068,0,0.116-0.002,0.143-0.006
					c0.064-0.008,0.107-0.023,0.129-0.051c0.026-0.033,0.04-0.094,0.04-0.186c0-0.105-0.017-0.172-0.05-0.203
					C22.481,38.191,22.395,38.176,22.254,38.176z"/>
				<path fill="#682666" d="M22.914,38.736v-0.551h-0.139v-0.082h0.139v-0.049c0-0.115,0.041-0.186,0.124-0.209
					c0.041-0.012,0.108-0.018,0.203-0.018h0.083v0.08H23.26c-0.104,0-0.171,0.01-0.199,0.025c-0.034,0.021-0.051,0.059-0.051,0.117
					v0.053h0.314v0.082H23.01v0.551H22.914z"/>
				<path fill="#682666" d="M23.544,38.439c0.002,0.047,0.003,0.078,0.006,0.096c0.011,0.059,0.042,0.098,0.095,0.113
					c0.033,0.012,0.102,0.018,0.208,0.018c0.092,0,0.151-0.004,0.178-0.008c0.069-0.016,0.108-0.053,0.116-0.109h0.098
					c-0.008,0.1-0.063,0.16-0.17,0.182c-0.052,0.01-0.126,0.016-0.228,0.016c-0.168,0-0.276-0.021-0.324-0.063
					c-0.052-0.045-0.077-0.133-0.077-0.262c0-0.131,0.025-0.219,0.077-0.264c0.048-0.043,0.155-0.063,0.323-0.063
					c0.086,0,0.149,0.004,0.188,0.008c0.077,0.016,0.132,0.043,0.162,0.086c0.034,0.043,0.051,0.127,0.05,0.25H23.544z
					 M24.146,38.361c0-0.045-0.007-0.08-0.019-0.104c-0.021-0.041-0.063-0.066-0.126-0.076c-0.023-0.004-0.075-0.006-0.155-0.006
					c-0.117,0-0.194,0.01-0.23,0.029c-0.044,0.023-0.067,0.076-0.071,0.156H24.146z"/>
				<path fill="#682666" d="M25.11,38.283V38.27c0-0.037-0.011-0.061-0.031-0.07c-0.032-0.016-0.107-0.025-0.229-0.025
					c-0.158,0-0.196,0-0.119-0.002c-0.055,0.002-0.098,0.01-0.128,0.021c-0.039,0.018-0.06,0.047-0.06,0.088
					s0.015,0.066,0.044,0.078c0.021,0.006,0.102,0.012,0.242,0.014c0.057,0,0.111,0,0.167,0c0.073,0.002,0.129,0.014,0.161,0.029
					c0.047,0.023,0.07,0.076,0.07,0.152c0,0.084-0.029,0.141-0.087,0.164c-0.036,0.014-0.089,0.023-0.155,0.025
					c-0.02,0.002-0.072,0.002-0.158,0.002c-0.088,0-0.143-0.002-0.167-0.002c-0.077-0.004-0.131-0.018-0.161-0.037
					c-0.028-0.018-0.047-0.043-0.056-0.072c-0.006-0.021-0.01-0.053-0.01-0.096v-0.016h0.099v0.016c0,0.053,0.01,0.084,0.032,0.098
					c0.03,0.02,0.127,0.029,0.288,0.029c0.187,0,0.226,0,0.113,0.004c0.049-0.004,0.086-0.01,0.111-0.021
					c0.033-0.02,0.05-0.049,0.05-0.09c0-0.033-0.007-0.061-0.021-0.074c-0.015-0.016-0.038-0.023-0.072-0.027
					c-0.029-0.002-0.098-0.002-0.209-0.004c-0.055,0-0.109,0-0.163,0c-0.077-0.004-0.129-0.012-0.16-0.031
					c-0.038-0.023-0.058-0.07-0.058-0.141c0-0.076,0.024-0.125,0.073-0.15c0.048-0.023,0.148-0.035,0.3-0.035
					c0.089,0,0.147,0,0.173,0.002c0.077,0.006,0.133,0.021,0.164,0.045c0.035,0.023,0.053,0.066,0.053,0.131v0.01H25.11z"/>
				<path fill="#682666" d="M26.088,38.283V38.27c0-0.037-0.01-0.061-0.031-0.07c-0.03-0.016-0.107-0.025-0.229-0.025
					c-0.157,0-0.196,0-0.119-0.002c-0.055,0.002-0.097,0.01-0.127,0.021c-0.04,0.018-0.06,0.047-0.06,0.088s0.014,0.066,0.043,0.078
					c0.021,0.006,0.103,0.012,0.243,0.014c0.056,0,0.11,0,0.166,0c0.074,0.002,0.129,0.014,0.161,0.029
					c0.047,0.023,0.07,0.076,0.07,0.152c0,0.084-0.029,0.141-0.086,0.164c-0.036,0.014-0.089,0.023-0.155,0.025
					c-0.021,0.002-0.072,0.002-0.159,0.002c-0.086,0-0.143-0.002-0.167-0.002c-0.077-0.004-0.131-0.018-0.161-0.037
					c-0.027-0.018-0.046-0.043-0.056-0.072c-0.006-0.021-0.01-0.053-0.01-0.096v-0.016h0.099v0.016c0,0.053,0.011,0.084,0.032,0.098
					c0.032,0.02,0.128,0.029,0.288,0.029c0.188,0,0.226,0,0.113,0.004c0.05-0.004,0.087-0.01,0.111-0.021
					c0.034-0.02,0.051-0.049,0.051-0.09c0-0.033-0.008-0.061-0.021-0.074c-0.016-0.016-0.039-0.023-0.072-0.027
					c-0.029-0.002-0.099-0.002-0.208-0.004c-0.056,0-0.109,0-0.166,0c-0.075-0.004-0.128-0.012-0.158-0.031
					c-0.039-0.023-0.059-0.07-0.059-0.141c0-0.076,0.024-0.125,0.073-0.15c0.048-0.023,0.148-0.035,0.3-0.035
					c0.09,0,0.147,0,0.173,0.002c0.077,0.006,0.133,0.021,0.165,0.045c0.035,0.023,0.053,0.066,0.053,0.131v0.01H26.088z"/>
				<path fill="#682666" d="M26.417,37.953v-0.117h0.095v0.117H26.417z M26.417,38.736v-0.633h0.095v0.633H26.417z"/>
				<path fill="#682666" d="M27.144,38.096c0.175,0,0.286,0.02,0.334,0.063c0.052,0.045,0.077,0.135,0.077,0.266
					c0,0.129-0.025,0.215-0.077,0.26c-0.048,0.041-0.158,0.063-0.333,0.063c-0.176,0-0.286-0.021-0.334-0.063
					c-0.052-0.045-0.078-0.133-0.078-0.262c0-0.131,0.026-0.219,0.078-0.264C26.857,38.115,26.969,38.096,27.144,38.096z
					 M27.146,38.176c-0.07,0-0.119,0.002-0.145,0.004c-0.065,0.01-0.108,0.025-0.13,0.053c-0.026,0.031-0.039,0.096-0.039,0.189
					c0,0.1,0.016,0.168,0.049,0.199c0.032,0.029,0.12,0.045,0.263,0.045c0.068,0,0.116-0.002,0.144-0.006
					c0.063-0.008,0.107-0.023,0.128-0.051c0.027-0.033,0.04-0.094,0.04-0.186c0-0.105-0.017-0.172-0.049-0.203
					C27.374,38.191,27.288,38.176,27.146,38.176z"/>
				<path fill="#682666" d="M27.775,38.736v-0.633h0.096v0.127c0.023-0.068,0.069-0.109,0.138-0.129
					c0.035-0.01,0.102-0.014,0.199-0.014c0.068,0,0.119,0.002,0.153,0.01c0.067,0.014,0.114,0.039,0.14,0.08
					c0.023,0.035,0.035,0.09,0.035,0.162v0.396H28.44v-0.395c0-0.061-0.012-0.1-0.035-0.121c-0.033-0.029-0.107-0.043-0.224-0.043
					c-0.095,0-0.164,0.008-0.208,0.025c-0.068,0.027-0.103,0.082-0.103,0.162v0.371H27.775z"/>
				<path fill="#682666" d="M28.776,38.287c0.002-0.078,0.024-0.129,0.069-0.154c0.044-0.025,0.136-0.037,0.273-0.037
					c0.088,0,0.146,0.002,0.175,0.004c0.073,0.008,0.128,0.023,0.163,0.051c0.028,0.021,0.046,0.053,0.054,0.09
					c0.005,0.021,0.007,0.059,0.007,0.107v0.389h-0.096v-0.084c-0.02,0.047-0.062,0.078-0.128,0.09
					c-0.021,0.002-0.076,0.004-0.167,0.004c-0.09,0-0.143,0-0.161-0.002c-0.073-0.004-0.125-0.018-0.154-0.037
					c-0.042-0.031-0.063-0.084-0.063-0.158c0-0.076,0.018-0.127,0.055-0.152c0.04-0.027,0.143-0.041,0.307-0.041
					c0.097,0,0.155,0.002,0.173,0.004c0.072,0.01,0.119,0.037,0.139,0.082v-0.066c0-0.045-0.001-0.074-0.003-0.092
					c-0.008-0.035-0.021-0.061-0.044-0.076c-0.031-0.021-0.116-0.031-0.253-0.031c-0.091,0-0.144,0.002-0.158,0.006
					c-0.057,0.012-0.084,0.047-0.086,0.105H28.776z M29.136,38.436c-0.104,0-0.164,0.002-0.181,0.006
					c-0.072,0.012-0.109,0.049-0.109,0.111c0,0.055,0.022,0.088,0.064,0.1c0.03,0.01,0.104,0.014,0.219,0.014
					c0.111,0,0.184-0.006,0.218-0.018c0.051-0.016,0.075-0.051,0.075-0.104c0-0.041-0.017-0.07-0.051-0.088
					C29.343,38.443,29.265,38.436,29.136,38.436z"/>
				<path fill="#682666" d="M29.756,38.736v-0.9h0.095v0.9H29.756z"/>
				<path fill="#682666" d="M30.332,38.186v-0.082h0.152l0.002-0.139h0.096l-0.002,0.139h0.434v0.082h-0.436l-0.006,0.316
					c-0.001,0.041,0.003,0.072,0.009,0.092c0.01,0.031,0.032,0.051,0.065,0.061c0.026,0.008,0.069,0.012,0.128,0.012
					c0.081,0,0.132-0.016,0.151-0.049c0.011-0.018,0.017-0.061,0.017-0.133v-0.021h0.085v0.025c0,0.053-0.001,0.086-0.002,0.1
					c-0.004,0.041-0.014,0.072-0.03,0.094c-0.035,0.043-0.111,0.064-0.228,0.064c-0.064,0-0.112-0.004-0.144-0.01
					c-0.056-0.012-0.096-0.037-0.12-0.072c-0.019-0.029-0.028-0.084-0.027-0.162l0.008-0.316H30.332z"/>
				<path fill="#682666" d="M31.198,38.736v-0.633h0.096v0.125c0.02-0.061,0.059-0.1,0.114-0.117
					c0.031-0.012,0.09-0.016,0.173-0.016c0.104,0,0.175,0.014,0.213,0.043c0.047,0.035,0.07,0.102,0.07,0.199v0.037h-0.096v-0.033
					c0-0.076-0.019-0.125-0.057-0.145c-0.029-0.014-0.081-0.021-0.155-0.021c-0.084,0-0.146,0.01-0.185,0.031
					c-0.052,0.029-0.078,0.082-0.078,0.156v0.373H31.198z"/>
				<path fill="#682666" d="M32.043,38.287c0.001-0.078,0.024-0.129,0.068-0.154c0.045-0.025,0.136-0.037,0.273-0.037
					c0.089,0,0.147,0.002,0.175,0.004c0.074,0.008,0.129,0.023,0.164,0.051c0.026,0.021,0.045,0.053,0.054,0.09
					c0.004,0.021,0.007,0.059,0.007,0.107v0.389h-0.096v-0.084c-0.021,0.047-0.063,0.078-0.129,0.09
					c-0.021,0.002-0.075,0.004-0.168,0.004c-0.089,0-0.143,0-0.16-0.002c-0.073-0.004-0.124-0.018-0.153-0.037
					c-0.042-0.031-0.064-0.084-0.064-0.158c0-0.076,0.019-0.127,0.055-0.152c0.041-0.027,0.144-0.041,0.309-0.041
					c0.097,0,0.153,0.002,0.173,0.004c0.072,0.01,0.117,0.037,0.139,0.082v-0.066c0-0.045-0.001-0.074-0.005-0.092
					c-0.006-0.035-0.021-0.061-0.043-0.076c-0.03-0.021-0.116-0.031-0.254-0.031c-0.09,0-0.142,0.002-0.158,0.006
					c-0.055,0.012-0.084,0.047-0.084,0.105H32.043z M32.402,38.436c-0.105,0-0.165,0.002-0.182,0.006
					c-0.073,0.012-0.109,0.049-0.109,0.111c0,0.055,0.021,0.088,0.063,0.1c0.031,0.01,0.104,0.014,0.221,0.014
					c0.11,0,0.183-0.006,0.217-0.018c0.05-0.016,0.076-0.051,0.076-0.104c0-0.041-0.018-0.07-0.052-0.088
					C32.608,38.443,32.53,38.436,32.402,38.436z"/>
				<path fill="#682666" d="M33.021,37.953v-0.117h0.096v0.117H33.021z M33.021,38.736v-0.633h0.096v0.633H33.021z"/>
				<path fill="#682666" d="M33.354,38.736v-0.633h0.096v0.127c0.023-0.068,0.068-0.109,0.138-0.129
					c0.036-0.01,0.103-0.014,0.199-0.014c0.069,0,0.12,0.002,0.154,0.01c0.066,0.014,0.113,0.039,0.139,0.08
					c0.023,0.035,0.035,0.09,0.035,0.162v0.396H34.02v-0.395c0-0.061-0.012-0.1-0.035-0.121c-0.032-0.029-0.107-0.043-0.223-0.043
					c-0.096,0-0.164,0.008-0.209,0.025c-0.067,0.027-0.103,0.082-0.103,0.162v0.371H33.354z"/>
				<path fill="#682666" d="M34.354,37.953v-0.117h0.096v0.117H34.354z M34.354,38.736v-0.633h0.096v0.633H34.354z"/>
				<path fill="#682666" d="M34.688,38.736v-0.633h0.096v0.127c0.022-0.068,0.068-0.109,0.138-0.129
					c0.034-0.01,0.102-0.014,0.199-0.014c0.068,0,0.119,0.002,0.154,0.01c0.066,0.014,0.113,0.039,0.139,0.08
					c0.023,0.035,0.035,0.09,0.035,0.162v0.396h-0.096v-0.395c0-0.061-0.012-0.1-0.035-0.121c-0.033-0.029-0.107-0.043-0.223-0.043
					c-0.096,0-0.166,0.008-0.209,0.025c-0.069,0.027-0.103,0.082-0.103,0.162v0.371H34.688z"/>
				<path fill="#682666" d="M36.486,38.104v0.572c0,0.117-0.012,0.199-0.035,0.244c-0.028,0.055-0.084,0.09-0.164,0.105
					c-0.038,0.006-0.107,0.01-0.205,0.01c-0.166,0-0.273-0.018-0.321-0.053c-0.052-0.041-0.077-0.094-0.077-0.164v-0.012h0.099
					v0.012c0,0.072,0.04,0.115,0.122,0.129c0.035,0.006,0.096,0.01,0.182,0.01c0.119,0,0.196-0.01,0.23-0.029
					c0.042-0.02,0.065-0.066,0.07-0.137c0.003-0.031,0.004-0.08,0.004-0.146c-0.027,0.047-0.074,0.078-0.141,0.092
					c-0.031,0.006-0.09,0.01-0.175,0.01c-0.172,0-0.28-0.021-0.328-0.063c-0.052-0.045-0.077-0.133-0.077-0.264
					c0-0.129,0.025-0.217,0.077-0.262c0.048-0.043,0.157-0.063,0.329-0.063c0.084,0,0.143,0.004,0.175,0.01
					c0.065,0.014,0.112,0.045,0.14,0.092v-0.094H36.486z M36.077,38.176c-0.108,0-0.178,0.004-0.209,0.016
					c-0.046,0.014-0.076,0.045-0.091,0.092c-0.01,0.029-0.014,0.076-0.014,0.137c0,0.102,0.016,0.168,0.05,0.201
					c0.024,0.021,0.065,0.037,0.125,0.041c0.021,0.002,0.065,0.004,0.137,0.004c0.105,0,0.175-0.006,0.206-0.016
					c0.044-0.016,0.074-0.045,0.091-0.092c0.01-0.029,0.015-0.074,0.015-0.135c0-0.105-0.017-0.172-0.051-0.203
					c-0.023-0.021-0.065-0.035-0.125-0.041C36.189,38.178,36.145,38.176,36.077,38.176z"/>
			</g>
		</g>
	</g>
	<g>
		<rect x="40.424" y="30.055" fill="#682666" width="0.214" height="9.927"/>
	</g>
</g>
</svg>
