<?xml version="1.0" encoding="utf-8"?>
<!-- Generator: Adobe Illustrator 16.0.3, SVG Export Plug-In . SVG Version: 6.00 Build 0)  -->
<!DOCTYPE svg PUBLIC "-//W3C//DTD SVG 1.1//EN" "http://www.w3.org/Graphics/SVG/1.1/DTD/svg11.dtd">
<svg version="1.1" id="Layer_1" xmlns="http://www.w3.org/2000/svg" xmlns:xlink="http://www.w3.org/1999/xlink" x="0px" y="0px"
	 width="70px" height="70px" viewBox="34 0 70 70" enable-background="new 34 0 70 70" xml:space="preserve">
<rect x="34" fill="#FFFFFF" width="70" height="70"/>
<g>
	<path fill="#E74D3C" d="M64.952,35.369c-0.368,0.313-0.891,0.47-1.571,0.47h-1.306v2.315h-1.3v-6.436h2.69
		c0.62,0,1.115,0.165,1.483,0.497c0.368,0.331,0.552,0.845,0.552,1.54C65.5,34.518,65.317,35.054,64.952,35.369L64.952,35.369z
		 M63.953,33.049c-0.166-0.143-0.397-0.214-0.696-0.214h-1.181v1.896h1.181c0.299,0,0.531-0.075,0.696-0.23
		c0.166-0.155,0.249-0.398,0.249-0.734C64.202,33.432,64.119,33.192,63.953,33.049L63.953,33.049z M69.812,31.872
		c0.439,0.148,0.796,0.422,1.067,0.817c0.216,0.313,0.368,0.667,0.447,1.039c0.079,0.373,0.119,0.729,0.119,1.065
		c0,0.856-0.167,1.582-0.503,2.176c-0.454,0.8-1.153,1.199-2.101,1.199h-2.701v-6.436h2.701c0.389,0.007,0.712,0.053,0.97,0.141
		V31.872z M67.412,32.851v4.201h1.209c0.619,0,1.05-0.313,1.294-0.937c0.133-0.345,0.2-0.754,0.2-1.229
		c0-0.654-0.101-1.158-0.3-1.509c-0.201-0.349-0.598-0.526-1.194-0.526H67.412L67.412,32.851z M72.084,31.742h4.467v1.131h-3.166
		v1.479h2.808v1.118h-2.808v2.699h-1.301V31.742z"/>
	<path fill="#868787" d="M79.583,31.675c0.062,0.004,0.146,0.01,0.255,0.019v1.015c-0.113-0.013-0.229-0.019-0.342-0.021
		c-0.161-0.003-0.271,0.032-0.331,0.111c-0.063,0.076-0.093,0.161-0.093,0.256v0.399h0.795v0.879h-0.795v3.839h-1.203v-3.839h-0.678
		v-0.879h0.661v-0.306c0-0.509,0.083-0.86,0.25-1.052c0.176-0.286,0.601-0.428,1.271-0.428
		C79.452,31.668,79.52,31.669,79.583,31.675L79.583,31.675z M81.734,32.827h-1.228V31.68h1.228V32.827L81.734,32.827z
		 M80.507,33.395h1.228v4.762h-1.228V33.395L80.507,33.395z M83.586,38.156h-1.211v-6.438h1.211V38.156z M85.437,38.156h-1.211
		v-6.438h1.211V38.156z M89.46,33.492c0.323,0.147,0.59,0.384,0.8,0.704c0.189,0.282,0.312,0.611,0.368,0.984
		c0.034,0.218,0.047,0.533,0.041,0.944h-3.373c0.018,0.479,0.18,0.813,0.482,1.005c0.187,0.118,0.409,0.178,0.67,0.178
		c0.275,0,0.5-0.072,0.672-0.217c0.095-0.081,0.177-0.189,0.249-0.328h1.235c-0.031,0.281-0.181,0.568-0.446,0.86
		c-0.417,0.463-0.998,0.694-1.744,0.694c-0.616,0-1.16-0.195-1.632-0.587c-0.471-0.391-0.706-1.025-0.706-1.905
		c0-0.824,0.214-1.456,0.638-1.897c0.425-0.439,0.979-0.66,1.657-0.66C88.773,33.268,89.137,33.342,89.46,33.492L89.46,33.492
		L89.46,33.492z M87.647,34.567c-0.171,0.183-0.279,0.426-0.323,0.737h2.087c-0.022-0.329-0.13-0.582-0.324-0.752
		c-0.192-0.172-0.433-0.258-0.717-0.258C88.06,34.295,87.818,34.387,87.647,34.567L87.647,34.567z M93.896,33.283
		c0.014,0.002,0.05,0.005,0.104,0.007v1.275c-0.115-0.013-0.232-0.021-0.349-0.021c-0.487,0-0.813,0.163-0.981,0.49
		c-0.094,0.183-0.141,0.465-0.141,0.847v2.275h-1.22v-4.762h1.156v0.831c0.186-0.317,0.35-0.534,0.488-0.65
		c0.227-0.196,0.521-0.292,0.885-0.292C93.862,33.283,93.881,33.283,93.896,33.283L93.896,33.283z"/>
	<path fill="#CF4435" d="M56.069,29.543l-6.133,10.914h4.49l3.886-6.919L56.069,29.543L56.069,29.543z"/>
	<path fill="#E85E50" d="M51.962,36.103l-0.908-1.734h-4.489l3.163,5.711L51.962,36.103L51.962,36.103z"/>
	<path fill="#676767" d="M55.649,29.543H44l2.238,3.995h7.165L55.649,29.543z"/>
</g>
</svg>
