<?xml version="1.0" encoding="utf-8"?>
<!-- Generator: Adobe Illustrator 16.0.3, SVG Export Plug-In . SVG Version: 6.00 Build 0)  -->
<!DOCTYPE svg PUBLIC "-//W3C//DTD SVG 1.1//EN" "http://www.w3.org/Graphics/SVG/1.1/DTD/svg11.dtd">
<svg version="1.1" id="Layer_1" xmlns="http://www.w3.org/2000/svg" xmlns:xlink="http://www.w3.org/1999/xlink" x="0px" y="0px"
	 width="153.757px" height="30px" viewBox="-8.378 -1.5 153.757 30" enable-background="new -8.378 -1.5 153.757 30"
	 xml:space="preserve">
<g id="Layer_2">
</g>
<g>
	<polygon fill="#00498F" points="-8.378,17.043 -8.378,18.226 145.379,18.226 145.379,17.043 	"/>
	<path fill="#00498F" d="M133.259,4.209c0,1.126,0.325,1.126,1.795,1.126c1.081,0,2.947,0.02,4.354-0.094
		c0.903-0.077,1.079-0.958,1.26-1.647c0.036-0.14,0.147-0.406,0.47-0.406c0.178,0,0.398,0.048,0.398,0.245
		c-0.037,0.66-0.111,1.375-0.185,2.044c0.073,0.76,0.144,1.479,0.185,2.24c0,0.371-0.219,0.424-0.398,0.424
		c-0.324,0-0.435-0.264-0.47-0.404c-0.181-0.689-0.464-1.408-1.26-1.526c-1.402-0.21-3.272-0.21-4.354-0.21
		c-1.436,0-1.796,0-1.796,0.803l0.001,4.141c0,2.192,1.583,2.217,4.424,2.217c3.088-0.002,5.066-0.05,6.292-2.144
		c0.115-0.163,0.358-0.806,0.795-0.806c0.252-0.001,0.363,0.092,0.363,0.26c0,0.191-0.076,0.383-0.145,0.573l-0.539,2.52
		c-0.035,0.167-0.116,0.144-0.396,0.144h-14.068c-0.717,0-1.506,0.096-2.227,0.096c-0.33,0-0.609-0.096-0.609-0.36
		c0-0.262,0.575-0.283,0.937-0.283c2.477-0.002,2.332-0.479,2.332-2.004V1.481c0-1.476,0.145-1.953-2.332-1.953
		c-0.361,0-0.937,0-0.937-0.287c0-0.236,0.279-0.358,0.609-0.358c2.227,0,4.529,0.101,6.757,0.101c3.1,0,6.123-0.101,9.179-0.101
		c0.686,0,0.507,0.575,0.507,0.884v2.049c0,0.145,0.036,0.494-0.321,0.494c-0.325,0-0.474-0.304-0.58-0.471l-0.546-0.671
		c-0.533-0.735-1.039-1.162-2.227-1.402c-1.187-0.237-2.739-0.237-3.962-0.237c-0.575,0-2.157,0-2.731,0.145
		c-0.68,0.164-0.572,0.686-0.572,1.094L133.259,4.209L133.259,4.209z M106.604,11.236c0,1.525-0.144,1.948,2.335,1.976
		c0.324,0,0.934-0.026,0.934,0.286c0,0.257-0.289,0.308-0.611,0.308c-1.366,0-2.655-0.096-4.024-0.096
		c-1.37,0-2.737,0.096-4.103,0.096c-0.322,0-0.615-0.051-0.615-0.308c0-0.313,0.58-0.286,0.902-0.286
		c2.517,0,2.339-0.478,2.339-1.975V1.481c0-1.504,0.178-1.953-2.339-1.953c-0.322,0-0.902,0-0.902-0.307
		c0-0.263,0.256-0.338,0.615-0.338c1.368,0,2.661,0.101,4.027,0.101c1.365,0,2.733-0.101,4.1-0.101c0.322,0,0.611,0.075,0.611,0.338
		c0,0.307-0.611,0.307-0.934,0.307c-2.516,0-2.335,0.451-2.335,1.953v3.066c0,0.882-0.078,0.882,1.26,0.882h10.066
		c1.192,0,1.257-0.074,1.257-0.881V1.481c0-1.504,0.185-1.953-2.337-1.953c-0.327,0-0.895,0-0.895-0.307
		c0-0.263,0.25-0.338,0.611-0.338c1.363,0,2.66,0.101,4.028,0.101c1.366,0,2.729-0.101,4.1-0.101c0.329,0,0.609,0.075,0.609,0.338
		c0,0.307-0.609,0.307-0.934,0.307c-2.518,0-2.333,0.451-2.333,1.953v9.755c0,1.525-0.148,1.948,2.333,1.976
		c0.324,0,0.934-0.026,0.934,0.286c0,0.257-0.284,0.308-0.609,0.308c-1.37,0-2.657-0.096-4.026-0.096
		c-1.37,0-2.736,0.096-4.101,0.096c-0.325,0-0.611-0.051-0.611-0.308c0-0.313,0.567-0.286,0.895-0.286
		c2.521,0,2.337-0.478,2.337-1.975V6.975c0-0.879,0-0.879-1.256-0.879h-9.96c-1.265,0-1.368,0.052-1.368,0.879V11.236
		L106.604,11.236z M98.111,1.902c0,0.192-0.102,0.31-0.388,0.31c-0.938-0.001-1.225-3.044-6.802-3.044c-6.044,0-9.033,3.432-9.033,7
		c0,1.687,0.719,3.284,2.232,4.663c1.654,1.5,3.883,2.526,6.801,2.526c5.577,0,6.007-3.741,6.979-3.741
		c0.287,0,0.43,0.14,0.397,0.313l-0.188,1.926c-0.069,0.738-0.032,0.782-1.15,1.143c-2.117,0.663-4.136,0.995-6.501,0.995
		c-6.552,0-11.77-3.595-11.77-7.803c0-4.405,5.896-7.689,12.479-7.689c1.625,0,4.14,0.286,5.685,0.646
		c1.049,0.234,0.903,0.549,1.011,1.209L98.111,1.902L98.111,1.902z M67.179,6.38c-2.625-0.762-5.22-1.737-5.22-3.853
		c0-2.5,3.424-4.025,6.946-4.025c1.402,0,3.493,0.165,4.823,0.529c0.688,0.165,0.612,0.449,0.645,0.881
		c0.044,0.617,0.107,1.235,0.143,1.852c0,0.164-0.143,0.29-0.396,0.29c-0.393,0-0.466-0.387-0.574-0.556
		c-0.789-1.637-1.871-2.515-4.677-2.515c-2.37,0-4.636,0.813-4.636,2.544c0.002,2.045,3.952,2.882,6.29,3.544
		c1.192,0.358,2.697,0.857,3.57,1.477c1.039,0.76,1.717,1.808,1.717,2.832c0.002,1.336-0.97,2.522-2.521,3.382
		c-1.613,0.878-3.664,1.232-5.75,1.232c-1.762,0-3.921-0.332-5.431-0.926c-0.615-0.267-0.502-0.902-0.502-1.335
		c0-0.617,0-1.209,0.1-1.827c0.042-0.195,0.147-0.482,0.545-0.482c0.462,0,0.462,0.6,0.5,0.791c0.36,2.042,2.016,3.333,5.292,3.333
		c2.692,0,5.362-1.217,5.362-3.1c0-1.9-1.947-2.827-4.389-3.542L67.179,6.38L67.179,6.38z M43.371,1.498
		c0-1.521,0.175-1.97-2.332-1.97c-0.334,0-0.907,0-0.907-0.287c0.002-0.257,0.253-0.358,0.648-0.358c1.15,0,2.371,0.101,3.529,0.101
		c2.08,0,4.093-0.101,6.148-0.101c3.413,0,6.801,1.123,6.801,3.622c0,2.165-2.702,3.425-5.685,3.688
		c1.15,0.119,1.692,0.947,2.196,1.564l2.908,3.718c0.649,0.83,1.196,1.738,2.771,1.738c0.294,0,0.937,0,0.937,0.335
		c0,0.235-0.359,0.259-0.643,0.259h-3.819c-0.722,0-0.934-0.45-1.221-0.807l-3.533-4.645C49.883,6.69,49.921,6.5,47.19,6.5
		c-0.293,0-0.619-0.021-0.801,0.117c-0.211,0.17-0.176,0.738-0.176,0.951v3.668c0,1.525-0.144,1.948,2.341,1.976
		c0.322,0,0.933-0.026,0.933,0.286c0.001,0.257-0.285,0.308-0.61,0.308c-1.372,0-2.663-0.096-4.032-0.096
		c-1.37,0-2.733,0.096-4.102,0.096c-0.32,0-0.609-0.051-0.609-0.308c0.002-0.313,0.573-0.286,0.907-0.286
		c2.507,0,2.332-0.478,2.332-1.975L43.371,1.498L43.371,1.498z M46.212,5.548c0,0.601,1.222,0.425,1.828,0.425
		c1.659,0,3.13-0.092,4.5-0.78c1.185-0.596,1.656-1.478,1.656-2.429c0-2.194-1.974-3.382-5.176-3.382
		c-2.737,0-2.807,0.238-2.807,1.907L46.212,5.548L46.212,5.548z M25.067-1.498c6.836,0,12.521,3.146,12.521,7.735
		c0,4.592-5.684,7.756-12.521,7.756c-6.472,0-12.557-3.43-12.557-7.756C12.51,1.902,18.595-1.498,25.067-1.498L25.067-1.498z
		 M31.94,1.316c-1.732-1.358-4.105-2.168-6.8-2.168c-2.807,0-5.399,0.781-7.13,2.232c-1.651,1.362-2.26,3.143-2.26,4.857
		c0,1.789,0.645,3.59,2.41,4.972c1.724,1.384,4.24,2.119,6.981,2.119c2.766,0,5.216-0.88,6.941-2.282
		c1.688-1.431,2.229-3.02,2.229-4.809C34.312,4.408,33.739,2.765,31.94,1.316L31.94,1.316L31.94,1.316z M-4.893,1.481
		c0-1.504,0.216-1.953-2.307-1.953c-0.326,0-0.9,0-0.9-0.307c0-0.263,0.255-0.338,0.614-0.338c1.295,0,2.517,0.101,3.813,0.101
		c1.94,0,3.812-0.101,5.717-0.101c1.731,0,3.382,0.149,4.826,0.816c1.585,0.708,2.623,1.994,2.623,3.258
		c0,2.543-3.271,4.351-6.977,4.351c-0.651,0-0.902-0.046-1.477-0.168l-1.724-0.38c-0.254-0.045-0.502-0.118-0.789-0.118
		c-0.647,0-0.581,0.356-0.581,0.667v3.928c0,1.525-0.146,1.948,2.343,1.976c0.325,0,0.933-0.026,0.933,0.286
		c0,0.257-0.292,0.308-0.608,0.308c-1.366,0-2.666-0.096-4.033-0.096c-1.368,0-2.734,0.096-4.104,0.096
		c-0.321,0-0.61-0.051-0.61-0.308c0-0.313,0.577-0.286,0.899-0.286c2.523,0,2.342-0.478,2.342-1.975L-4.893,1.481L-4.893,1.481z
		 M-2.052,4.88c0,0.524-0.179,0.978,0.58,1.269c0.721,0.28,2.05,0.468,2.872,0.468c2.99,0,5.109-1.663,5.109-3.57
		c0-1.069-0.616-2.187-1.87-2.9c-1.116-0.667-2.623-0.831-4.1-0.831c-2.486-0.002-2.591,0.569-2.591,2.045V4.88L-2.052,4.88z"/>
	<path fill="#00498F" d="M136.395,23.429c0,0.594,0.172,0.594,0.948,0.594c0.569,0,1.557,0.01,2.299-0.049
		c0.479-0.041,0.57-0.507,0.667-0.869c0.021-0.074,0.078-0.214,0.249-0.214c0.094,0,0.211,0.025,0.211,0.128
		c-0.021,0.35-0.059,0.726-0.097,1.079c0.038,0.4,0.075,0.782,0.097,1.185c0,0.196-0.117,0.223-0.211,0.223
		c-0.17,0-0.229-0.141-0.249-0.212c-0.095-0.362-0.246-0.744-0.667-0.806c-0.74-0.111-1.729-0.111-2.299-0.111
		c-0.759,0-0.949,0-0.949,0.423v2.188c0,1.159,0.835,1.173,2.337,1.173c1.633,0,2.676-0.025,3.325-1.135
		c0.059-0.086,0.189-0.425,0.42-0.425c0.132,0,0.191,0.048,0.191,0.138c0,0.102-0.04,0.203-0.074,0.304l-0.285,1.332
		c-0.02,0.088-0.061,0.073-0.211,0.073h-7.433c-0.378,0-0.796,0.054-1.177,0.054c-0.174,0-0.321-0.054-0.321-0.191
		c0-0.139,0.304-0.149,0.494-0.149c1.309,0,1.232-0.254,1.232-1.057v-5.116c0-0.777,0.076-1.032-1.232-1.032
		c-0.19,0-0.494,0-0.494-0.151c0-0.125,0.147-0.188,0.321-0.188c1.177,0,2.394,0.053,3.57,0.053c1.637,0,3.233-0.053,4.85-0.053
		c0.361,0,0.267,0.303,0.267,0.467v1.083c0,0.076,0.02,0.261-0.169,0.261c-0.172,0-0.252-0.16-0.305-0.25l-0.289-0.354
		c-0.282-0.39-0.548-0.613-1.176-0.741c-0.628-0.126-1.448-0.126-2.094-0.126c-0.304,0-1.14,0-1.441,0.076
		c-0.359,0.088-0.305,0.363-0.305,0.579L136.395,23.429L136.395,23.429z"/>
	<path fill="#00498F" d="M2.652,22.263c0,0.125-0.062,0.241-0.269,0.241c-0.609,0-0.266-1.541-3.463-1.541
		c-1.42,0-2.708,0.297-3.631,1.05c-0.846,0.678-1.296,1.692-1.296,2.554c0,0.908,0.374,1.748,1.296,2.439
		c1.028,0.789,2.347,1.062,3.901,1.062c0.614,0,1.553-0.061,2.056-0.331c0.382-0.21,0.341-0.721,0.341-1v-0.995
		c0-0.668-0.17-0.78-1.221-0.78c-0.183,0-0.433,0.011-0.433-0.141c0-0.15,0.248-0.152,0.419-0.152c0.646,0,1.295,0.041,1.949,0.041
		c0.609,0,1.227-0.041,1.857-0.041c0.148,0,0.308,0.019,0.308,0.146c0,0.137-0.179,0.147-0.345,0.147l-0.343,0.024
		c-0.159,0.013-0.432,0.014-0.561,0.096c-0.233,0.13-0.196,0.479-0.196,0.661v1.375c0,0.304,0.084,0.435-0.32,0.619
		c-1.125,0.478-2.536,0.653-3.853,0.653c-1.623,0-3.146-0.252-4.405-0.928c-1.338-0.725-2.097-1.66-2.097-2.81
		c0-2.39,3.399-4.037,6.867-4.037c0.917,0,2.034,0.106,2.905,0.334c0.61,0.153,0.444,0.424,0.505,0.812L2.652,22.263L2.652,22.263z
		 M6.019,22.129c0-0.767,0.084-0.991-1.176-0.991c-0.165,0-0.455,0-0.455-0.145c0-0.131,0.124-0.182,0.326-0.182
		c0.58,0,1.193,0.051,1.776,0.051c1.048,0,2.056-0.051,3.092-0.051c1.72,0,3.424,0.565,3.424,1.823c0,1.09-1.36,1.726-2.862,1.858
		c0.579,0.058,0.854,0.474,1.104,0.784l1.468,1.871c0.323,0.419,0.601,0.877,1.393,0.877c0.147,0,0.469,0,0.469,0.164
		c0,0.119-0.181,0.135-0.322,0.135l-1.919-0.003c-0.366,0-0.47-0.227-0.618-0.403l-1.775-2.337c-0.649-0.837-0.63-0.934-2.006-0.934
		c-0.146,0-0.31-0.015-0.398,0.06c-0.111,0.083-0.09,0.37-0.09,0.478v1.846c0,0.771-0.072,0.982,1.176,0.995
		c0.163,0,0.469-0.011,0.469,0.143c0.001,0.132-0.145,0.16-0.306,0.16c-0.69-0.004-1.339-0.051-2.029-0.051
		c-0.691,0-1.375,0.051-2.063,0.051c-0.161-0.004-0.306-0.026-0.306-0.16c0-0.153,0.289-0.143,0.455-0.143
		c1.261,0,1.176-0.241,1.176-0.995L6.019,22.129L6.019,22.129z M7.447,24.165c0,0.303,0.615,0.215,0.92,0.215
		c0.834,0,1.574-0.044,2.265-0.396c0.593-0.299,0.834-0.742,0.834-1.22c0-1.103-0.996-1.705-2.607-1.705
		c-1.377,0-1.411,0.12-1.411,0.964L7.447,24.165L7.447,24.165z M20.31,20.621c3.441,0,6.303,1.583,6.303,3.893
		c0,2.313-2.862,3.904-6.303,3.904c-3.254,0-6.317-1.726-6.317-3.904C13.992,22.333,17.056,20.621,20.31,20.621L20.31,20.621z
		 M23.771,22.034c-0.872-0.677-2.068-1.087-3.422-1.087c-1.415,0-2.719,0.391-3.587,1.121c-0.833,0.687-1.14,1.583-1.14,2.443
		c0,0.903,0.323,1.806,1.212,2.504c0.867,0.695,2.133,1.065,3.516,1.065c1.39,0,2.623-0.443,3.492-1.149
		c0.85-0.718,1.123-1.52,1.123-2.42C24.963,23.595,24.673,22.766,23.771,22.034L23.771,22.034L23.771,22.034z M39.671,22.12
		c0-0.758,0.106-0.982-1.163-0.982c-0.162,0-0.452,0-0.452-0.156c0-0.133,0.131-0.17,0.309-0.17c0.652,0,1.266,0.051,1.919,0.051
		c0.98,0,1.917-0.051,2.875-0.051c0.873,0,1.707,0.078,2.431,0.409c0.796,0.358,1.321,1.005,1.321,1.642
		c0,1.281-1.649,2.19-3.513,2.19c-0.329,0-0.453-0.023-0.741-0.087l-0.87-0.189c-0.126-0.023-0.254-0.059-0.396-0.059
		c-0.328,0-0.292,0.18-0.292,0.335v1.978c0,0.771-0.075,0.982,1.178,0.995c0.162,0,0.469-0.013,0.469,0.141
		c0,0.131-0.146,0.161-0.307,0.161c-0.687-0.004-1.34-0.051-2.03-0.051c-0.688,0-1.375,0.051-2.063,0.051
		c-0.159-0.004-0.309-0.027-0.309-0.161c0-0.153,0.289-0.141,0.456-0.141c1.267,0,1.177-0.241,1.177-0.995V22.12L39.671,22.12z
		 M41.1,23.831c0,0.264-0.091,0.49,0.292,0.637c0.36,0.141,1.029,0.236,1.445,0.236c1.503,0,2.571-0.837,2.571-1.797
		c0-0.537-0.31-1.101-0.942-1.461c-0.562-0.332-1.318-0.418-2.064-0.418c-1.249,0-1.301,0.285-1.301,1.029L41.1,23.831L41.1,23.831z
		 M30.949,20.889c0.029,0.063,0.043,0.113,0.043,0.147c0,0.023-0.009,0.059-0.025,0.106c-0.138,0.026-0.25,0.042-0.336,0.042
		c-0.037,0-0.101-0.005-0.191-0.013c-0.085-0.008-0.16-0.008-0.213-0.008c-0.248,0-0.442,0.038-0.588,0.106
		c-0.094,0.042-0.154,0.096-0.174,0.166l-0.082,0.657l0.021,2.858c0.006,1.047,0.057,1.699,0.147,1.955
		c0.091,0.255,0.242,0.467,0.459,0.632c0.215,0.164,0.536,0.305,0.968,0.409c0.43,0.105,0.85,0.16,1.262,0.16
		c0.912,0,1.609-0.092,2.097-0.28c0.485-0.188,0.854-0.44,1.046-0.782c0.458-0.81,0.45-3.517,0.379-4.524
		c-0.039-0.56-0.08-0.891-0.131-0.991c-0.052-0.099-0.123-0.173-0.218-0.223c-0.212-0.11-0.607-0.209-1.193-0.289
		c-0.026-0.054-0.045-0.11-0.051-0.17c0.212-0.013,0.42-0.02,0.624-0.02c0.211,0,0.437,0.003,0.673,0.016
		c0.354,0.02,0.548,0.028,0.579,0.028l1.272-0.028l0.25,0.004l-0.008,0.211c-0.66,0.063-1.056,0.134-1.184,0.215
		c-0.13,0.083-0.194,0.238-0.194,0.459c0,0.117,0.014,0.38,0.033,0.779c0.057,1.159,0.047,2.74-0.193,3.858
		c-0.084,0.385-0.21,0.684-0.368,0.907c-0.16,0.226-0.389,0.425-0.686,0.604c-0.304,0.18-0.707,0.329-1.205,0.444
		c-0.504,0.115-1,0.17-1.487,0.17c-0.768,0-1.319-0.038-1.654-0.116c-0.619-0.132-1.107-0.31-1.475-0.524
		c-0.363-0.213-0.616-0.43-0.757-0.646c-0.184-0.283-0.281-0.701-0.281-1.247v-0.398l-0.023-1.614l0.023-1.307V21.77
		c0-0.227-0.042-0.382-0.129-0.471c-0.059-0.063-0.145-0.092-0.257-0.092l-0.472,0.005c-0.358,0-0.583-0.023-0.679-0.081
		c-0.013-0.034-0.023-0.065-0.023-0.094c0-0.033,0.016-0.062,0.047-0.079c0.06-0.029,0.135-0.046,0.22-0.046h0.209l0.541-0.007
		h1.271L30.949,20.889L30.949,20.889z"/>
	<path fill="#00498F" d="M112.5,28.456c0.665-0.012,1.579-0.034,2.436-0.034c0.841,0,1.638,0.024,2.44,0.034v-0.33h-0.34
		c-0.882,0-1.26-0.187-1.26-0.905v-5.377c0-0.717,0.378-0.904,1.26-0.904h0.34v-0.33c-0.802,0.014-1.6,0.035-2.44,0.035
		c-0.856,0-1.771-0.023-2.436-0.035v0.33h0.342c0.879,0,1.26,0.188,1.26,0.904v5.377c0,0.719-0.381,0.905-1.26,0.905H112.5V28.456z"
		/>
	<path fill="#00498F" d="M85.419,28.402c0.66-0.011,1.566-0.035,2.417-0.035c0.833,0,1.629,0.024,2.458,0.035v-0.329h-0.547
		c-0.757,0-1.078-0.119-1.078-1.161v-2.067c1.46,0.023,1.705,0.044,2.137,0.448l2.212,2.087c1.002,0.959,1.778,1.077,3.441,1.077
		c0.355,0,0.7-0.013,1.057-0.013v-0.229c-1.532-0.055-1.83-0.12-2.875-1.106l-2.531-2.428c0.945-0.175,2.684-0.615,2.684-2.044
		c0-0.505-0.604-2.028-3.951-2.028c-0.833,0-1.739,0.035-3.008,0.035c-0.852,0-1.757-0.023-2.418-0.035v0.333h0.336
		c0.876,0,1.251,0.185,1.251,0.899v5.333c0,0.713-0.375,0.898-1.251,0.898h-0.336L85.419,28.402L85.419,28.402z M88.669,21.071
		c0.379-0.023,0.738-0.043,1.191-0.043c2.631,0,3.199,1.333,3.199,1.815c0,1.14-1.4,1.588-3.099,1.588
		c-0.494,0-0.969-0.015-1.29-0.078v-3.282H88.669z"/>
	<path fill="#00498F" d="M62.021,20.609c-0.787,0.012-1.585,0.034-2.373,0.034c-0.824,0-1.632-0.023-2.394-0.034v0.326h0.335
		c0.691,0,1.198,0.139,1.198,0.832v3.408c0,1.129,0.502,2.022,1.777,2.566c1.176,0.511,2.259,0.715,3.625,0.715
		c1.554,0,3.163-0.393,3.943-0.89c0.996-0.636,1.463-1.525,1.463-2.681v-2.77c0-1.03,0.467-1.182,1.142-1.182h0.28v-0.326
		c-0.674,0.014-1.327,0.034-2.001,0.034c-0.691,0-1.441-0.022-1.962-0.034v0.326h0.391c0.469,0,0.675,0.043,0.879,0.289
		c0.152,0.207,0.373,1.369,0.373,2.818v1.145c0,0.769-0.296,1.439-0.896,1.923c-0.428,0.361-1.834,0.933-3.496,0.933
		c-1.532,0-2.525-0.379-3.104-0.866c-0.506-0.409-0.763-0.83-0.763-1.749c0-1.138,0.051-2.287,0.067-3.421
		c0.022-0.91,0.452-1.046,1.163-1.071h0.354L62.021,20.609L62.021,20.609z"/>
	<path fill="#00498F" d="M106.358,24.96h-3.76l1.706-2.904L106.358,24.96z M98.169,28.456c0.438-0.021,1.116-0.034,1.808-0.034
		c0.864,0,1.616,0.014,2.254,0.034v-0.318h-0.403c-0.565,0-0.749-0.146-0.749-0.336c0-0.235,0.184-0.554,0.311-0.768l0.973-1.674
		h4.273l1.336,1.909c0.071,0.096,0.253,0.379,0.253,0.532c0,0.222-0.346,0.336-0.934,0.336h-0.458v0.318
		c0.679-0.021,1.558-0.034,2.531-0.034c0.95,0,1.793,0.014,2.489,0.034v-0.318h-0.384c-0.843,0-1.41-0.412-1.853-1.027l-4.704-6.496
		h-0.352l-4.195,6.379c-0.567,0.883-0.969,1.146-1.979,1.146h-0.217V28.456L98.169,28.456L98.169,28.456z"/>
	<path fill="#00498F" d="M118.222,28.358c0.581-0.009,1.356-0.034,2.069-0.034c0.697,0,1.446,0.023,2.07,0.034v-0.326h-0.378
		c-0.883,0-1.184-0.25-1.219-1.143c-0.076-1.687-0.116-3.36-0.116-5.048h0.039l9.329,6.614h0.562l0.342-6.342
		c0.055-1.058,0.599-1.175,1.186-1.175h0.301v-0.328c-0.679,0.012-1.354,0.034-2.031,0.034c-0.698,0-1.451-0.022-2.035-0.034v0.328
		h0.224c1.018,0,1.301,0.26,1.337,1.512l0.114,4.463h-0.037l-8.858-6.302c-0.472,0.013-0.962,0.035-1.488,0.035
		c-0.583,0-1.146-0.024-1.656-0.035v0.328h0.526c0.941,0,1.354,0.162,1.354,0.947c0,1.261-0.035,3.33-0.108,4.765
		c-0.061,1.141-0.229,1.381-1.225,1.381h-0.303v0.326L118.222,28.358L118.222,28.358z"/>
	<path fill="#00498F" d="M71.663,28.456c0.666-0.012,1.583-0.034,2.438-0.034c0.836,0,1.637,0.024,2.474,0.034v-0.33h-0.552
		c-0.764,0-1.086-0.12-1.086-1.169v-1.684l0.992-0.608l3.9,2.591c1.088,0.715,1.146,0.879,1.24,1.199
		c0.609-0.011,1.237-0.034,1.847-0.034s1.239,0.023,1.847,0.034v-0.331h-0.286c-0.779,0-1.333-0.109-2.398-0.834l-4.914-3.331
		l3.677-2.236c1.12-0.681,1.447-0.778,2.38-0.778h0.344v-0.33c-0.761,0.011-1.503,0.034-2.267,0.034
		c-0.744,0-1.541-0.023-2.246-0.034v0.33h0.341c0.366,0,0.628,0.085,0.628,0.281c0,0.223-0.723,0.664-0.912,0.784l-4.168,2.688
		v-2.587c0-1.05,0.321-1.168,1.084-1.168h0.554v-0.33c-0.839,0.01-1.638,0.034-2.476,0.034c-0.857,0-1.771-0.024-2.44-0.034v0.33
		h0.346c0.873,0,1.257,0.186,1.257,0.902v5.375c0,0.718-0.382,0.903-1.257,0.903h-0.346V28.456L71.663,28.456z"/>
</g>
</svg>
