<?xml version="1.0" encoding="utf-8"?>
<!-- Generator: Adobe Illustrator 16.0.3, SVG Export Plug-In . SVG Version: 6.00 Build 0)  -->
<!DOCTYPE svg PUBLIC "-//W3C//DTD SVG 1.1//EN" "http://www.w3.org/Graphics/SVG/1.1/DTD/svg11.dtd">
<svg version="1.1" id="Layer_1" xmlns="http://www.w3.org/2000/svg" xmlns:xlink="http://www.w3.org/1999/xlink" x="0px" y="0px"
	 width="70px" height="70px" viewBox="41.878 0 70 70" enable-background="new 41.878 0 70 70" xml:space="preserve">
<g id="Layer_2">
</g>
<rect x="41.878" fill="#FFFFFF" width="70" height="70"/>
<g>
	<polygon fill="#00498F" points="51.878,36.151 51.878,36.536 101.878,36.536 101.878,36.151 	"/>
	<path fill="#00498F" d="M97.937,31.978c0,0.366,0.105,0.366,0.584,0.366c0.352,0,0.958,0.007,1.416-0.03
		c0.293-0.025,0.351-0.312,0.409-0.535c0.012-0.046,0.048-0.133,0.153-0.133c0.058,0,0.129,0.016,0.129,0.08
		c-0.012,0.215-0.036,0.447-0.06,0.665c0.023,0.247,0.047,0.48,0.06,0.729c0,0.12-0.071,0.138-0.129,0.138
		c-0.105,0-0.142-0.086-0.153-0.132c-0.059-0.224-0.15-0.458-0.409-0.496c-0.456-0.068-1.064-0.068-1.416-0.068
		c-0.467,0-0.585,0-0.585,0.262l0.001,1.346c0,0.713,0.515,0.722,1.438,0.722c1.005-0.001,1.647-0.017,2.046-0.697
		c0.038-0.054,0.117-0.263,0.259-0.263c0.082,0,0.118,0.03,0.118,0.085c0,0.063-0.024,0.124-0.047,0.187l-0.176,0.819
		c-0.012,0.054-0.037,0.047-0.129,0.047h-4.574c-0.233,0-0.49,0.031-0.725,0.031c-0.107,0-0.198-0.031-0.198-0.117
		c0-0.085,0.188-0.092,0.305-0.092c0.806-0.001,0.759-0.156,0.759-0.652v-3.146c0-0.48,0.047-0.635-0.759-0.635
		c-0.117,0-0.305,0-0.305-0.094c0-0.077,0.091-0.116,0.198-0.116c0.725,0,1.473,0.032,2.197,0.032c1.008,0,1.991-0.032,2.985-0.032
		c0.223,0,0.165,0.187,0.165,0.287V31.2c0,0.047,0.012,0.16-0.104,0.16c-0.105,0-0.154-0.099-0.188-0.153l-0.178-0.218
		c-0.174-0.239-0.338-0.378-0.725-0.456c-0.386-0.077-0.891-0.077-1.288-0.077c-0.188,0-0.701,0-0.889,0.047
		c-0.221,0.054-0.186,0.224-0.186,0.356L97.937,31.978L97.937,31.978z M89.269,34.263c0,0.496-0.047,0.634,0.76,0.643
		c0.105,0,0.304-0.008,0.304,0.094c0,0.083-0.095,0.1-0.199,0.1c-0.444,0-0.863-0.031-1.309-0.031s-0.89,0.031-1.334,0.031
		c-0.104,0-0.2-0.017-0.2-0.1c0-0.103,0.188-0.094,0.293-0.094c0.819,0,0.761-0.155,0.761-0.642v-3.173
		c0-0.489,0.059-0.635-0.761-0.635c-0.104,0-0.293,0-0.293-0.101c0-0.085,0.083-0.109,0.2-0.109c0.445,0,0.865,0.032,1.31,0.032
		c0.443,0,0.889-0.032,1.333-0.032c0.104,0,0.199,0.024,0.199,0.109c0,0.101-0.199,0.101-0.304,0.101
		c-0.818,0-0.76,0.146-0.76,0.635v0.997c0,0.287-0.025,0.287,0.41,0.287h3.273c0.388,0,0.408-0.024,0.408-0.287v-0.997
		c0-0.489,0.061-0.635-0.76-0.635c-0.106,0-0.291,0-0.291-0.101c0-0.085,0.081-0.109,0.198-0.109c0.443,0,0.865,0.032,1.31,0.032
		c0.445,0,0.889-0.032,1.334-0.032c0.106,0,0.198,0.024,0.198,0.109c0,0.101-0.198,0.101-0.304,0.101
		c-0.819,0-0.759,0.146-0.759,0.635v3.172c0,0.496-0.048,0.634,0.759,0.643c0.105,0,0.304-0.008,0.304,0.094
		c0,0.083-0.093,0.1-0.198,0.1c-0.445,0-0.864-0.031-1.31-0.031s-0.89,0.031-1.333,0.031c-0.106,0-0.199-0.017-0.199-0.1
		c0-0.103,0.185-0.094,0.291-0.094c0.82,0,0.76-0.155,0.76-0.642v-1.386c0-0.286,0-0.286-0.408-0.286h-3.238
		c-0.412,0-0.445,0.017-0.445,0.286V34.263L89.269,34.263z M86.507,31.228c0,0.063-0.033,0.101-0.126,0.101
		c-0.306,0-0.398-0.989-2.212-0.989c-1.966,0-2.938,1.116-2.938,2.276c0,0.549,0.233,1.067,0.726,1.517
		c0.538,0.487,1.263,0.821,2.212,0.821c1.813,0,1.953-1.217,2.27-1.217c0.093,0,0.14,0.046,0.129,0.102l-0.062,0.626
		c-0.021,0.24-0.01,0.255-0.374,0.372c-0.688,0.216-1.344,0.323-2.113,0.323c-2.131,0-3.828-1.169-3.828-2.537
		c0-1.433,1.918-2.5,4.059-2.5c0.528,0,1.346,0.093,1.849,0.21c0.341,0.076,0.294,0.179,0.328,0.393L86.507,31.228L86.507,31.228z
		 M76.449,32.684c-0.854-0.248-1.698-0.564-1.698-1.253c0-0.813,1.113-1.309,2.259-1.309c0.457,0,1.136,0.054,1.568,0.172
		c0.225,0.054,0.199,0.146,0.211,0.287c0.014,0.2,0.034,0.401,0.046,0.602c0,0.054-0.046,0.095-0.129,0.095
		c-0.128,0-0.151-0.126-0.187-0.181c-0.257-0.533-0.608-0.818-1.521-0.818c-0.771,0-1.507,0.265-1.507,0.827
		c0,0.665,1.285,0.938,2.046,1.152c0.387,0.117,0.877,0.279,1.16,0.48c0.338,0.247,0.559,0.588,0.559,0.921
		c0,0.435-0.315,0.82-0.82,1.101c-0.524,0.285-1.191,0.4-1.87,0.4c-0.573,0-1.275-0.108-1.766-0.302
		c-0.2-0.086-0.163-0.293-0.163-0.434c0-0.201,0-0.394,0.033-0.595c0.014-0.063,0.048-0.156,0.177-0.156
		c0.15,0,0.15,0.195,0.163,0.257c0.117,0.664,0.655,1.084,1.721,1.084c0.875,0,1.744-0.396,1.744-1.008
		c0-0.618-0.634-0.919-1.427-1.152L76.449,32.684L76.449,32.684z M68.707,31.097c0-0.495,0.057-0.641-0.758-0.641
		c-0.109,0-0.295,0-0.295-0.094c0.001-0.084,0.083-0.116,0.211-0.116c0.374,0,0.771,0.032,1.147,0.032c0.677,0,1.331-0.032,2-0.032
		c1.11,0,2.211,0.365,2.211,1.178c0,0.704-0.878,1.114-1.849,1.199c0.374,0.039,0.55,0.308,0.714,0.509l0.945,1.209
		c0.211,0.27,0.389,0.565,0.901,0.565c0.096,0,0.305,0,0.305,0.108c0,0.076-0.117,0.085-0.209,0.085h-1.242
		c-0.235,0-0.304-0.146-0.397-0.263l-1.149-1.511c-0.418-0.541-0.406-0.604-1.294-0.604c-0.095,0-0.201-0.007-0.26,0.038
		c-0.069,0.056-0.058,0.24-0.058,0.31v1.192c0,0.496-0.047,0.634,0.762,0.643c0.104,0,0.303-0.008,0.303,0.094
		c0,0.083-0.093,0.1-0.198,0.1c-0.446,0-0.866-0.031-1.312-0.031s-0.889,0.031-1.333,0.031c-0.104,0-0.198-0.017-0.198-0.1
		c0-0.103,0.187-0.094,0.295-0.094c0.815,0,0.758-0.155,0.758-0.642L68.707,31.097L68.707,31.097z M69.63,32.413
		c0,0.195,0.397,0.139,0.594,0.139c0.54,0,1.018-0.03,1.463-0.254c0.385-0.193,0.539-0.48,0.539-0.79c0-0.713-0.642-1.1-1.683-1.1
		c-0.89,0-0.913,0.077-0.913,0.62V32.413L69.63,32.413z M62.754,30.122c2.223,0,4.072,1.023,4.072,2.516
		c0,1.493-1.848,2.521-4.072,2.521c-2.104,0-4.083-1.115-4.083-2.521C58.67,31.228,60.649,30.122,62.754,30.122L62.754,30.122z
		 M64.989,31.037c-0.563-0.441-1.335-0.705-2.211-0.705c-0.913,0-1.755,0.254-2.319,0.726c-0.537,0.443-0.735,1.022-0.735,1.58
		c0,0.581,0.21,1.167,0.784,1.616c0.56,0.45,1.378,0.689,2.27,0.689c0.899,0,1.696-0.286,2.257-0.742
		c0.549-0.466,0.725-0.982,0.725-1.563C65.761,32.043,65.574,31.509,64.989,31.037L64.989,31.037L64.989,31.037z M53.011,31.091
		c0-0.489,0.07-0.635-0.75-0.635c-0.106,0-0.292,0-0.292-0.101c0-0.085,0.083-0.109,0.2-0.109c0.421,0,0.818,0.032,1.24,0.032
		c0.631,0,1.24-0.032,1.859-0.032c0.563,0,1.1,0.048,1.57,0.266c0.515,0.229,0.853,0.648,0.853,1.06
		c0,0.826-1.063,1.414-2.269,1.414c-0.212,0-0.293-0.015-0.48-0.055l-0.561-0.123c-0.083-0.015-0.163-0.038-0.257-0.038
		c-0.21,0-0.189,0.115-0.189,0.217v1.277c0,0.496-0.047,0.633,0.762,0.643c0.105,0,0.303-0.009,0.303,0.093
		c0,0.084-0.095,0.101-0.198,0.101c-0.444,0-0.867-0.031-1.312-0.031S52.602,35.1,52.156,35.1c-0.104,0-0.198-0.017-0.198-0.101
		c0-0.102,0.188-0.093,0.292-0.093c0.82,0,0.761-0.156,0.761-0.643V31.091L53.011,31.091z M53.936,32.196
		c0,0.17-0.059,0.317,0.188,0.412c0.234,0.092,0.667,0.152,0.934,0.152c0.973,0,1.662-0.54,1.662-1.16
		c0-0.348-0.2-0.712-0.608-0.943c-0.363-0.217-0.853-0.271-1.333-0.271c-0.809-0.001-0.842,0.186-0.842,0.665V32.196L53.936,32.196z
		"/>
	<path fill="#00498F" d="M98.957,38.229c0,0.192,0.057,0.192,0.309,0.192c0.185,0,0.506,0.004,0.748-0.016
		c0.155-0.014,0.185-0.165,0.217-0.282c0.007-0.024,0.025-0.07,0.081-0.07c0.03,0,0.068,0.008,0.068,0.042
		c-0.007,0.113-0.02,0.236-0.032,0.351c0.013,0.13,0.025,0.254,0.032,0.386c0,0.063-0.038,0.072-0.068,0.072
		c-0.056,0-0.074-0.046-0.081-0.069c-0.031-0.117-0.08-0.241-0.217-0.262c-0.241-0.036-0.563-0.036-0.748-0.036
		c-0.247,0-0.309,0-0.309,0.138v0.712c0,0.376,0.271,0.381,0.76,0.381c0.531,0,0.871-0.008,1.081-0.369
		c0.02-0.028,0.063-0.138,0.137-0.138c0.043,0,0.063,0.015,0.063,0.044c0,0.034-0.014,0.066-0.024,0.1l-0.093,0.433
		c-0.006,0.029-0.02,0.023-0.068,0.023h-2.417c-0.123,0-0.259,0.019-0.383,0.019c-0.057,0-0.104-0.019-0.104-0.063
		c0-0.045,0.099-0.049,0.16-0.049c0.426,0,0.401-0.082,0.401-0.343V37.76c0-0.253,0.024-0.336-0.401-0.336
		c-0.062,0-0.16,0-0.16-0.049c0-0.041,0.048-0.062,0.104-0.062c0.383,0,0.778,0.018,1.161,0.018c0.532,0,1.052-0.018,1.577-0.018
		c0.117,0,0.086,0.099,0.086,0.152v0.352c0,0.025,0.007,0.086-0.054,0.086c-0.057,0-0.082-0.053-0.1-0.082l-0.094-0.115
		c-0.092-0.126-0.179-0.199-0.383-0.241c-0.204-0.041-0.471-0.041-0.681-0.041c-0.099,0-0.371,0-0.469,0.025
		c-0.117,0.028-0.1,0.117-0.1,0.188V38.229L98.957,38.229z"/>
	<path fill="#00498F" d="M55.465,37.849c0,0.041-0.02,0.078-0.087,0.078c-0.198,0-0.086-0.501-1.126-0.501
		c-0.462,0-0.881,0.097-1.181,0.342c-0.275,0.221-0.421,0.55-0.421,0.83c0,0.295,0.122,0.568,0.421,0.793
		c0.334,0.257,0.763,0.346,1.269,0.346c0.2,0,0.505-0.02,0.668-0.107c0.124-0.068,0.111-0.234,0.111-0.325V38.98
		c0-0.218-0.055-0.254-0.397-0.254c-0.06,0-0.141,0.003-0.141-0.046s0.081-0.05,0.136-0.05c0.21,0,0.421,0.014,0.633,0.014
		c0.198,0,0.399-0.014,0.604-0.014c0.048,0,0.1,0.006,0.1,0.048c0,0.044-0.058,0.048-0.112,0.048l-0.112,0.008
		c-0.052,0.004-0.14,0.004-0.183,0.031c-0.076,0.042-0.063,0.155-0.063,0.215v0.446c0,0.1,0.027,0.142-0.104,0.202
		c-0.366,0.155-0.825,0.213-1.253,0.213c-0.528,0-1.023-0.082-1.433-0.303c-0.435-0.235-0.682-0.539-0.682-0.913
		c0-0.777,1.105-1.313,2.233-1.313c0.298,0,0.662,0.034,0.945,0.109c0.198,0.049,0.144,0.138,0.164,0.264L55.465,37.849
		L55.465,37.849z M56.56,37.805c0-0.249,0.027-0.321-0.383-0.321c-0.054,0-0.147,0-0.147-0.048c0-0.043,0.04-0.06,0.105-0.06
		c0.189,0,0.388,0.017,0.578,0.017c0.34,0,0.668-0.017,1.005-0.017c0.559,0,1.113,0.185,1.113,0.594
		c0,0.354-0.442,0.561-0.931,0.604c0.188,0.02,0.278,0.154,0.359,0.255l0.478,0.608c0.105,0.137,0.195,0.285,0.453,0.285
		c0.048,0,0.153,0,0.153,0.054c0,0.039-0.059,0.044-0.105,0.044l-0.624-0.001c-0.119,0-0.152-0.073-0.201-0.131l-0.577-0.76
		c-0.211-0.272-0.205-0.304-0.652-0.304c-0.048,0-0.101-0.005-0.129,0.02c-0.036,0.026-0.029,0.12-0.029,0.155v0.6
		c0,0.251-0.023,0.319,0.382,0.324c0.053,0,0.152-0.004,0.152,0.046c0,0.044-0.047,0.053-0.099,0.053
		c-0.225-0.002-0.436-0.017-0.66-0.017s-0.447,0.017-0.671,0.017c-0.052-0.002-0.099-0.009-0.099-0.053
		c0-0.049,0.094-0.046,0.148-0.046c0.41,0,0.382-0.079,0.382-0.324L56.56,37.805L56.56,37.805z M57.024,38.467
		c0,0.1,0.2,0.07,0.299,0.07c0.271,0,0.512-0.015,0.736-0.129c0.193-0.097,0.271-0.241,0.271-0.396c0-0.359-0.324-0.555-0.848-0.555
		c-0.448,0-0.458,0.039-0.458,0.313L57.024,38.467L57.024,38.467z M61.207,37.314c1.119,0,2.05,0.515,2.05,1.267
		s-0.931,1.27-2.05,1.27c-1.058,0-2.054-0.562-2.054-1.27C59.153,37.871,60.149,37.314,61.207,37.314L61.207,37.314z M62.333,37.774
		c-0.283-0.221-0.672-0.354-1.113-0.354c-0.46,0-0.884,0.127-1.166,0.364c-0.271,0.224-0.371,0.515-0.371,0.795
		c0,0.293,0.105,0.587,0.394,0.814c0.282,0.226,0.694,0.346,1.144,0.346c0.452,0,0.853-0.145,1.135-0.373
		c0.277-0.234,0.365-0.495,0.365-0.787C62.72,38.282,62.626,38.012,62.333,37.774L62.333,37.774L62.333,37.774z M67.503,37.802
		c0-0.246,0.035-0.318-0.378-0.318c-0.053,0-0.147,0-0.147-0.051c0-0.044,0.042-0.056,0.101-0.056c0.212,0,0.412,0.017,0.624,0.017
		c0.319,0,0.624-0.017,0.935-0.017c0.284,0,0.555,0.025,0.79,0.133c0.259,0.116,0.43,0.327,0.43,0.534
		c0,0.417-0.536,0.712-1.142,0.712c-0.107,0-0.147-0.008-0.241-0.028l-0.283-0.062c-0.041-0.008-0.083-0.019-0.129-0.019
		c-0.106,0-0.095,0.059-0.095,0.108v0.644c0,0.251-0.024,0.319,0.383,0.323c0.053,0,0.153-0.004,0.153,0.046
		c0,0.043-0.048,0.053-0.1,0.053c-0.224-0.002-0.436-0.017-0.66-0.017c-0.224,0-0.447,0.017-0.671,0.017
		c-0.052-0.002-0.101-0.009-0.101-0.053c0-0.05,0.094-0.046,0.148-0.046c0.412,0,0.383-0.078,0.383-0.323V37.802L67.503,37.802z
		 M67.968,38.358c0,0.086-0.03,0.159,0.095,0.208c0.117,0.045,0.334,0.076,0.47,0.076c0.489,0,0.836-0.272,0.836-0.585
		c0-0.174-0.101-0.357-0.306-0.475c-0.183-0.108-0.429-0.136-0.671-0.136c-0.406,0-0.423,0.093-0.423,0.334L67.968,38.358
		L67.968,38.358z M64.667,37.401c0.009,0.021,0.014,0.037,0.014,0.048c0,0.008-0.003,0.02-0.008,0.035
		c-0.045,0.008-0.082,0.014-0.109,0.014c-0.012,0-0.033-0.002-0.062-0.005c-0.028-0.002-0.052-0.002-0.069-0.002
		c-0.081,0-0.144,0.012-0.191,0.034c-0.03,0.014-0.05,0.031-0.057,0.055l-0.026,0.213l0.007,0.93
		c0.002,0.34,0.019,0.552,0.048,0.636c0.029,0.083,0.079,0.151,0.149,0.205s0.174,0.1,0.315,0.133
		c0.14,0.034,0.276,0.053,0.411,0.053c0.296,0,0.523-0.03,0.682-0.091c0.158-0.062,0.278-0.144,0.34-0.255
		c0.149-0.264,0.146-1.144,0.123-1.472c-0.013-0.182-0.026-0.289-0.042-0.321c-0.017-0.032-0.04-0.057-0.071-0.072
		c-0.069-0.036-0.197-0.068-0.388-0.095c-0.008-0.018-0.015-0.036-0.017-0.055c0.069-0.005,0.137-0.007,0.203-0.007
		c0.068,0,0.142,0.001,0.219,0.005c0.115,0.007,0.178,0.01,0.188,0.01l0.414-0.01l0.081,0.002l-0.002,0.068
		c-0.215,0.021-0.343,0.043-0.385,0.07c-0.042,0.026-0.063,0.077-0.063,0.148c0,0.038,0.004,0.124,0.011,0.254
		c0.019,0.377,0.015,0.891-0.063,1.254c-0.027,0.125-0.068,0.223-0.12,0.295c-0.052,0.074-0.126,0.139-0.223,0.196
		c-0.099,0.06-0.23,0.107-0.392,0.145c-0.164,0.038-0.325,0.056-0.483,0.056c-0.25,0-0.429-0.013-0.538-0.038
		c-0.201-0.043-0.36-0.101-0.479-0.17c-0.118-0.069-0.2-0.14-0.246-0.21c-0.06-0.092-0.091-0.228-0.091-0.406v-0.129l-0.008-0.524
		l0.008-0.426v-0.283c0-0.074-0.014-0.124-0.042-0.153c-0.02-0.021-0.047-0.03-0.083-0.03l-0.154,0.002
		c-0.116,0-0.189-0.007-0.221-0.026c-0.004-0.011-0.007-0.021-0.007-0.03c0-0.011,0.005-0.021,0.015-0.026
		c0.02-0.009,0.044-0.015,0.072-0.015h0.068l0.176-0.002h0.414L64.667,37.401L64.667,37.401z"/>
	<path fill="#00498F" d="M91.186,39.862c0.217-0.004,0.514-0.011,0.793-0.011c0.273,0,0.532,0.008,0.793,0.011v-0.107h-0.11
		c-0.287,0-0.41-0.061-0.41-0.294v-1.749c0-0.232,0.123-0.294,0.41-0.294h0.11v-0.107c-0.261,0.005-0.521,0.012-0.793,0.012
		c-0.279,0-0.576-0.007-0.793-0.012v0.107h0.111c0.286,0,0.41,0.062,0.41,0.294v1.749c0,0.233-0.124,0.294-0.41,0.294h-0.111V39.862
		z"/>
	<path fill="#00498F" d="M82.38,39.845c0.215-0.003,0.509-0.011,0.785-0.011c0.271,0,0.529,0.008,0.8,0.011v-0.107h-0.178
		c-0.247,0-0.351-0.038-0.351-0.377v-0.672c0.475,0.007,0.555,0.014,0.695,0.146l0.719,0.679c0.326,0.313,0.578,0.351,1.119,0.351
		c0.115,0,0.228-0.005,0.344-0.005v-0.074c-0.498-0.018-0.596-0.039-0.936-0.359l-0.822-0.79c0.307-0.057,0.873-0.199,0.873-0.665
		c0-0.163-0.197-0.659-1.285-0.659c-0.271,0-0.566,0.012-0.979,0.012c-0.277,0-0.571-0.008-0.786-0.012v0.108h0.109
		c0.284,0,0.406,0.061,0.406,0.293v1.733c0,0.232-0.122,0.292-0.406,0.292h-0.109L82.38,39.845L82.38,39.845z M83.437,37.461
		c0.123-0.007,0.24-0.014,0.387-0.014c0.856,0,1.041,0.434,1.041,0.59c0,0.371-0.455,0.517-1.008,0.517
		c-0.16,0-0.314-0.005-0.42-0.025V37.461L83.437,37.461z"/>
	<path fill="#00498F" d="M74.771,37.311c-0.256,0.004-0.515,0.011-0.771,0.011c-0.268,0-0.531-0.007-0.778-0.011v0.106h0.109
		c0.225,0,0.39,0.045,0.39,0.271v1.108c0,0.367,0.163,0.657,0.578,0.834c0.382,0.166,0.735,0.232,1.179,0.232
		c0.505,0,1.029-0.128,1.282-0.289c0.324-0.207,0.476-0.496,0.476-0.872v-0.9c0-0.335,0.152-0.385,0.371-0.385h0.092v-0.105
		c-0.219,0.004-0.432,0.011-0.651,0.011c-0.225,0-0.469-0.007-0.638-0.011v0.105h0.127c0.152,0,0.219,0.015,0.286,0.095
		c0.049,0.067,0.122,0.445,0.122,0.916v0.372c0,0.25-0.097,0.468-0.292,0.625c-0.139,0.118-0.597,0.304-1.137,0.304
		c-0.499,0-0.821-0.123-1.01-0.281c-0.165-0.134-0.248-0.27-0.248-0.569c0-0.37,0.017-0.743,0.022-1.112
		c0.007-0.296,0.147-0.34,0.378-0.349h0.115L74.771,37.311L74.771,37.311z"/>
	<path fill="#00498F" d="M89.189,38.726h-1.223l0.555-0.944L89.189,38.726z M86.526,39.862c0.143-0.007,0.363-0.011,0.588-0.011
		c0.281,0,0.526,0.004,0.733,0.011V39.76h-0.131c-0.184,0-0.244-0.048-0.244-0.109c0-0.077,0.061-0.181,0.102-0.251l0.316-0.544
		h1.39l0.435,0.621c0.022,0.031,0.082,0.123,0.082,0.173c0,0.072-0.113,0.109-0.304,0.109h-0.148v0.104
		c0.22-0.007,0.506-0.011,0.822-0.011c0.309,0,0.583,0.004,0.81,0.011v-0.104h-0.125c-0.273,0-0.458-0.134-0.603-0.334l-1.529-2.112
		h-0.115l-1.364,2.074c-0.184,0.287-0.314,0.373-0.643,0.373h-0.071V39.862L86.526,39.862L86.526,39.862z"/>
	<path fill="#00498F" d="M93.047,39.83c0.188-0.002,0.44-0.011,0.673-0.011c0.227,0,0.47,0.008,0.673,0.011v-0.105H94.27
		c-0.287,0-0.385-0.081-0.396-0.372c-0.024-0.549-0.037-1.092-0.037-1.641h0.013l3.033,2.15h0.183l0.111-2.063
		c0.019-0.344,0.195-0.382,0.386-0.382h0.099v-0.107c-0.222,0.005-0.441,0.012-0.661,0.012c-0.228,0-0.472-0.007-0.662-0.012v0.107
		h0.073c0.331,0,0.423,0.084,0.435,0.491l0.037,1.451h-0.012l-2.881-2.049c-0.153,0.004-0.313,0.012-0.484,0.012
		c-0.188,0-0.372-0.008-0.538-0.012v0.106h0.172c0.306,0,0.439,0.053,0.439,0.309c0,0.409-0.011,1.083-0.035,1.549
		c-0.02,0.371-0.074,0.449-0.398,0.449h-0.098V39.83L93.047,39.83L93.047,39.83z"/>
	<path fill="#00498F" d="M77.907,39.862c0.216-0.004,0.515-0.011,0.793-0.011c0.271,0,0.532,0.008,0.804,0.011v-0.107h-0.179
		c-0.249,0-0.354-0.039-0.354-0.38v-0.547l0.323-0.198l1.268,0.843c0.354,0.232,0.373,0.285,0.403,0.39
		c0.198-0.004,0.402-0.011,0.601-0.011s0.403,0.007,0.601,0.011v-0.107h-0.093c-0.253,0-0.434-0.035-0.779-0.271L79.696,38.4
		l1.196-0.728c0.363-0.222,0.47-0.253,0.773-0.253h0.111v-0.107c-0.247,0.004-0.488,0.011-0.736,0.011
		c-0.242,0-0.502-0.007-0.73-0.011v0.107h0.111c0.118,0,0.203,0.027,0.203,0.092c0,0.072-0.234,0.216-0.297,0.255l-1.354,0.874V37.8
		c0-0.342,0.104-0.38,0.353-0.38h0.18v-0.107c-0.272,0.003-0.532,0.011-0.805,0.011c-0.279,0-0.576-0.008-0.793-0.011v0.107h0.111
		c0.284,0,0.409,0.06,0.409,0.293v1.748c0,0.233-0.124,0.293-0.409,0.293h-0.111L77.907,39.862L77.907,39.862z"/>
</g>
</svg>
