<?xml version="1.0" encoding="utf-8"?>
<!-- Generator: Adobe Illustrator 16.0.3, SVG Export Plug-In . SVG Version: 6.00 Build 0)  -->
<!DOCTYPE svg PUBLIC "-//W3C//DTD SVG 1.1//EN" "http://www.w3.org/Graphics/SVG/1.1/DTD/svg11.dtd">
<svg version="1.1" id="Layer_1" xmlns="http://www.w3.org/2000/svg" xmlns:xlink="http://www.w3.org/1999/xlink" x="0px" y="0px"
	 width="70px" height="70px" viewBox="65 0 70 70" enable-background="new 65 0 70 70" xml:space="preserve">
<rect x="65" fill="#FFFFFF" width="70" height="70"/>
<g>
	<path fill="#FFD300" d="M79.696,37.996c-2.024-0.192-3.815-1.165-4.479-2.285c0.035,0.21,0.274,0.669,0.384,0.972
		c0.08,0.221,0.196,0.401,0.25,0.564c0.838,0.593,1.799,0.902,3.121,1.028c1.363,0.131,2.561-0.036,3.506-0.487
		C81.649,37.999,80.736,38.096,79.696,37.996"/>
	<path fill="#FFD300" d="M78.12,33.922c-0.697-0.758-1.323-1.523-1.864-2.27c-0.073,0.096-0.155,0.208-0.241,0.335
		c-0.12,0.174-0.215,0.337-0.288,0.473c0.533,0.584,1.124,1.174,1.763,1.752c1.824,1.649,3.601,2.721,5.021,3.493
		C81.23,36.763,79.679,35.615,78.12,33.922"/>
	<path fill="#FFD300" d="M80.999,32.583c-0.521-1.036-0.928-1.723-1.528-2.527c-0.078,0.008-0.209,0.073-0.439,0.109
		c-0.172,0.027-0.348,0.01-0.488,0.065c0.875,0.919,1.581,1.88,2.358,3.263c0.884,1.572,1.327,2.826,1.699,4.139
		C82.442,36.121,81.98,34.538,80.999,32.583"/>
	<path fill="#005A9D" d="M80.147,39.6c-2.532,0-4.583-1.984-4.583-4.433c0-2.447,2.04-4.36,4.571-4.36
		c2.482,0,4.516,1.836,4.594,4.219c0.002-0.062,0.004-0.123,0.004-0.185c0-2.672-2.179-4.837-4.866-4.837
		c-2.688,0-4.866,2.165-4.866,4.836s2.178,4.836,4.866,4.836c0.524,0,1.028-0.082,1.501-0.234
		C80.979,39.544,80.569,39.6,80.147,39.6"/>
	<path fill="#B51E82" d="M77.525,32.794c1.735-1.768,4.434-1.902,6.028-0.299c0.974,0.979,1.36,2.457,1.028,3.725
		c0.451-1.508,0.175-3.217-0.97-4.369c-1.677-1.687-4.505-1.581-6.24,0.188c-1.142,1.165-1.553,2.776-1.221,4.224
		C76.102,35.048,76.564,33.773,77.525,32.794"/>
	<path fill="#008F66" d="M84.494,35.277c-0.015-1.064-0.421-2.049-1.169-2.563c-1.447-0.996-3.694-0.217-5.096,1.829
		c-0.725,1.06-1.064,2.23-1.022,3.252c-0.321-1.197-0.057-2.683,0.824-3.969c1.401-2.046,3.83-2.815,5.425-1.718
		c0.945,0.65,1.404,1.818,1.314,3.081c0,0-0.028,0.364-0.063,0.523c-0.032,0.15-0.116,0.478-0.149,0.573
		S84.494,35.277,84.494,35.277"/>
	<path fill="#F26F21" d="M79.685,34.659c-1.429,1.515-1.752,3.53-0.722,4.501c0.045,0.044,0.093,0.084,0.143,0.121
		c-0.907-0.906-0.635-2.644,0.62-3.999c1.153-1.245,3.115-1.79,4.064-0.895c0.837,0.789,0.725,2.305-0.193,3.585
		c1.272-1.487,1.524-3.37,0.54-4.298C83.106,32.703,81.114,33.144,79.685,34.659"/>
	<path fill="#DA2128" d="M81.019,36.203c-0.962,0.835-1.283,2.04-0.718,2.69c0.443,0.51,1.298,0.527,2.11,0.109
		c-0.683,0.315-1.388,0.276-1.763-0.155c-0.501-0.577-0.227-1.637,0.613-2.366c0.84-0.729,1.927-0.854,2.428-0.276
		c0.376,0.433,0.316,1.136-0.091,1.768c0.527-0.746,0.628-1.596,0.186-2.104C83.218,35.218,81.98,35.367,81.019,36.203"/>
	<path fill="#DA2128" d="M92.253,35.719c-0.362,0.225-0.667,0.293-1.123,0.293h-0.586l-0.349,1.641h-0.724l0.923-4.31h1.122
		c0.531,0,0.849,0.081,1.061,0.225c0.256,0.175,0.393,0.455,0.393,0.768C92.97,34.977,92.677,35.451,92.253,35.719 M91.53,33.929
		h-0.542l-0.318,1.497h0.561c0.343,0,0.53-0.075,0.667-0.219c0.187-0.192,0.299-0.468,0.299-0.729
		C92.197,34.122,92.003,33.929,91.53,33.929"/>
	<path fill="#DA2128" d="M94.742,35.417c-0.055-0.032-0.11-0.044-0.193-0.044c-0.193,0-0.407,0.149-0.649,0.49l-0.38,1.788h-0.6
		l0.396-1.859c0.083-0.38,0.077-0.589,0.022-0.782l0.561-0.23c0.061,0.143,0.083,0.352,0.044,0.545
		c0.254-0.319,0.562-0.523,0.832-0.523c0.099,0,0.148,0.011,0.231,0.045L94.742,35.417z"/>
	<path fill="#DA2128" d="M95.716,37.718c-0.617,0-0.969-0.357-0.969-0.996c0-1.072,0.655-1.921,1.58-1.921
		c0.638,0,0.985,0.369,0.985,0.979C97.312,36.799,96.739,37.718,95.716,37.718 M96.233,35.264c-0.551,0-0.836,0.88-0.836,1.514
		c0,0.336,0.159,0.484,0.429,0.484c0.539,0,0.831-0.826,0.831-1.503C96.657,35.385,96.481,35.264,96.233,35.264"/>
	<path fill="#DA2128" d="M100.82,34.079c-0.193-0.175-0.424-0.243-0.698-0.243c-0.38,0-0.73,0.205-0.985,0.535
		c-0.355,0.456-0.562,1.322-0.562,1.847c0,0.618,0.312,0.942,0.873,0.942c0.287,0,0.53-0.094,0.842-0.294l0.256,0.474
		c-0.399,0.262-0.823,0.387-1.291,0.387c-0.917,0-1.459-0.579-1.459-1.534c0-0.691,0.262-1.521,0.705-2.07
		c0.442-0.555,1.091-0.854,1.727-0.854c0.418,0,0.792,0.131,1.004,0.344L100.82,34.079z"/>
	<path fill="#DA2128" d="M102.767,35.417c-0.055-0.032-0.11-0.044-0.192-0.044c-0.192,0-0.407,0.149-0.649,0.49l-0.38,1.788h-0.6
		l0.396-1.859c0.083-0.38,0.077-0.589,0.022-0.782l0.562-0.23c0.061,0.143,0.082,0.352,0.044,0.545
		c0.253-0.319,0.561-0.523,0.831-0.523c0.099,0,0.148,0.011,0.23,0.045L102.767,35.417z"/>
	<path fill="#DA2128" d="M104.979,36.122c-0.23,0.226-0.61,0.353-1.183,0.353c-0.154,0-0.286-0.022-0.336-0.022
		c-0.011,0.055-0.033,0.204-0.033,0.292c0,0.347,0.204,0.512,0.507,0.512c0.291,0,0.528-0.1,0.786-0.303l0.188,0.374
		c-0.336,0.27-0.666,0.396-1.134,0.396c-0.594,0-0.991-0.358-0.991-1.019c0-0.556,0.243-1.155,0.622-1.524
		c0.275-0.265,0.584-0.38,0.941-0.38c0.54,0,0.881,0.248,0.881,0.743C105.227,35.77,105.139,35.968,104.979,36.122 M104.269,35.253
		c-0.313,0-0.589,0.247-0.71,0.771c0.033,0,0.148,0.016,0.243,0.016c0.335,0,0.566-0.049,0.698-0.182
		c0.071-0.071,0.115-0.159,0.115-0.274C104.615,35.396,104.522,35.253,104.269,35.253"/>
	<path fill="#DA2128" d="M107.824,36.684c-0.127,0.589-0.104,0.765-0.027,0.897l-0.518,0.12c-0.071-0.088-0.115-0.226-0.104-0.401
		c-0.215,0.265-0.501,0.407-0.82,0.407c-0.556,0-0.819-0.33-0.819-0.957c0-0.557,0.22-1.151,0.61-1.536
		c0.265-0.259,0.611-0.391,0.931-0.391c0.247,0,0.44,0.038,0.533,0.088c0-0.027,0.05-0.28,0.072-0.374l0.198-0.936l0.577,0.099
		L107.824,36.684z M107.054,35.313c-0.177,0-0.374,0.089-0.506,0.254c-0.226,0.275-0.381,0.814-0.381,1.194
		c0,0.303,0.11,0.462,0.337,0.462c0.23,0,0.533-0.203,0.704-0.495l0.28-1.305C107.373,35.346,107.257,35.313,107.054,35.313"/>
	<path fill="#DA2128" d="M109.073,37.651h-0.616l0.583-2.751l0.633-0.094L109.073,37.651z M109.53,34.465
		c-0.221,0-0.402-0.182-0.402-0.401c0-0.226,0.182-0.407,0.408-0.407c0.22,0,0.396,0.182,0.396,0.401
		C109.932,34.284,109.755,34.465,109.53,34.465"/>
	<path fill="#DA2128" d="M111.489,35.297h-0.534l-0.313,1.497c-0.022,0.104-0.033,0.198-0.033,0.27c0,0.176,0.082,0.231,0.258,0.231
		c0.089,0,0.193-0.017,0.281-0.056v0.374c-0.192,0.077-0.386,0.116-0.578,0.116c-0.374,0-0.583-0.188-0.583-0.468
		c0-0.1,0.011-0.242,0.038-0.38l0.336-1.586h-0.313l0.088-0.429h0.313c0.056-0.254,0.11-0.468,0.182-0.677l0.645-0.149
		c-0.077,0.236-0.171,0.562-0.226,0.826h0.666L111.489,35.297z"/>
	<path fill="#DA2128" d="M115.452,35.369c0.454,0.088,0.686,0.437,0.686,0.867c0,0.318-0.156,0.711-0.468,1.004
		c-0.324,0.3-0.667,0.412-1.385,0.412h-1.371l0.923-4.31h1.347c0.816,0,1.21,0.355,1.21,0.936
		C116.394,34.746,116.101,35.188,115.452,35.369 M114.672,35.713h-0.636l-0.287,1.354h0.686c0.256,0,0.443-0.069,0.587-0.169
		c0.187-0.131,0.33-0.399,0.33-0.667C115.352,35.888,115.184,35.713,114.672,35.713 M115.003,33.947h-0.6l-0.242,1.173h0.623
		c0.268,0,0.431-0.05,0.556-0.149c0.155-0.125,0.268-0.313,0.268-0.549C115.607,34.11,115.458,33.947,115.003,33.947"/>
	<path fill="#DA2128" d="M118.93,35.648l-0.226,1.102c-0.071,0.335-0.038,0.479,0.1,0.627l-0.495,0.369
		c-0.148-0.121-0.209-0.275-0.209-0.457c-0.198,0.27-0.479,0.43-0.837,0.43c-0.435,0-0.727-0.292-0.727-0.887
		c0-0.616,0.231-1.211,0.589-1.579c0.297-0.303,0.66-0.451,1.105-0.451c0.32,0,0.645,0.065,0.864,0.209
		C119.046,35.164,118.969,35.451,118.93,35.648 M118.16,35.28c-0.248,0-0.424,0.055-0.64,0.308
		c-0.247,0.298-0.362,0.837-0.362,1.228c0,0.303,0.099,0.418,0.303,0.418c0.253,0,0.533-0.253,0.66-0.533l0.297-1.365
		C118.363,35.302,118.253,35.28,118.16,35.28"/>
	<path fill="#DA2128" d="M121.863,35.66l-0.424,1.992h-0.6l0.391-1.844c0.027-0.121,0.038-0.209,0.038-0.27
		c0-0.16-0.071-0.221-0.22-0.221c-0.198,0-0.474,0.138-0.766,0.518l-0.385,1.816h-0.595l0.407-1.927
		c0.066-0.324,0.071-0.512,0.011-0.715l0.562-0.231c0.056,0.127,0.089,0.33,0.05,0.522c0.264-0.318,0.616-0.495,1.001-0.495
		c0.347,0,0.557,0.215,0.557,0.551C121.891,35.451,121.885,35.566,121.863,35.66"/>
	<path fill="#DA2128" d="M123.503,34.564l-0.661,3.088h-0.604l0.654-3.077c0.077-0.353,0.088-0.628,0.044-0.798l0.628-0.209
		C123.613,33.723,123.607,34.074,123.503,34.564 M123.816,36.078l0.837,1.536l-0.677,0.076l-0.776-1.629l1.15-1.244l0.649,0.11
		L123.816,36.078z"/>
	<g>
		<path fill="#666666" d="M113.573,39.65h-0.215l0.194-0.918h-0.309l-0.194,0.918h-0.217l0.232-1.09h0.739L113.573,39.65z"/>
		<path fill="#666666" d="M114.107,38.82c0.004,0.007,0.009,0.02,0.013,0.037c0.004,0.017,0.007,0.044,0.007,0.08v0.014
			c0.037-0.041,0.078-0.07,0.125-0.091c0.044-0.021,0.088-0.03,0.128-0.03c0.024,0,0.052,0.005,0.081,0.015
			c0.028,0.011,0.054,0.029,0.075,0.057c0.022,0.029,0.04,0.063,0.047,0.099c0.008,0.035,0.012,0.068,0.012,0.096
			c0,0.005,0,0.017-0.001,0.036c-0.002,0.021-0.006,0.048-0.011,0.078c-0.004,0.031-0.015,0.066-0.025,0.105
			c-0.009,0.04-0.025,0.079-0.046,0.119c-0.021,0.041-0.043,0.073-0.068,0.104c-0.023,0.027-0.057,0.054-0.094,0.076
			c-0.031,0.019-0.063,0.033-0.095,0.042c-0.032,0.007-0.065,0.012-0.102,0.012c-0.039,0-0.07-0.003-0.095-0.011
			c-0.025-0.006-0.045-0.014-0.06-0.021v0.007c0,0.007,0,0.014-0.001,0.018c-0.001,0.005-0.003,0.012-0.006,0.021l-0.054,0.262
			l-0.213,0.054l0.191-0.899c0.004-0.013,0.005-0.028,0.008-0.046c0.001-0.018,0.002-0.034,0.002-0.054
			c0-0.016-0.001-0.033-0.002-0.049c-0.003-0.018-0.006-0.034-0.011-0.051L114.107,38.82z M114.043,39.476
			c0.013,0.012,0.031,0.02,0.053,0.026c0.021,0.005,0.038,0.007,0.053,0.007c0.021,0,0.041-0.003,0.059-0.009
			c0.018-0.007,0.033-0.017,0.045-0.028c0.013-0.015,0.026-0.033,0.04-0.056c0.012-0.022,0.024-0.046,0.031-0.07
			c0.007-0.016,0.011-0.034,0.018-0.055c0.005-0.021,0.01-0.04,0.013-0.063c0.006-0.022,0.009-0.045,0.012-0.066
			c0.003-0.024,0.005-0.045,0.005-0.064c0-0.008-0.002-0.02-0.005-0.034c-0.001-0.015-0.007-0.028-0.019-0.039
			s-0.028-0.017-0.047-0.017c-0.016,0-0.033,0.004-0.048,0.009c-0.018,0.006-0.035,0.013-0.047,0.021
			c-0.017,0.013-0.034,0.027-0.05,0.046c-0.016,0.017-0.031,0.034-0.039,0.05L114.043,39.476z"/>
		<path fill="#666666" d="M115.426,39.113c0,0.066-0.007,0.13-0.025,0.193s-0.043,0.12-0.077,0.17
			c-0.025,0.04-0.054,0.071-0.088,0.097c-0.032,0.024-0.064,0.044-0.097,0.058c-0.033,0.015-0.067,0.024-0.101,0.029
			c-0.03,0.005-0.062,0.007-0.09,0.007c-0.029,0-0.063-0.005-0.097-0.012c-0.037-0.01-0.069-0.028-0.1-0.057
			c-0.032-0.03-0.054-0.064-0.064-0.104c-0.01-0.038-0.017-0.079-0.017-0.121c0-0.081,0.016-0.158,0.041-0.229
			c0.027-0.071,0.066-0.133,0.118-0.186c0.009-0.011,0.023-0.023,0.04-0.038c0.019-0.015,0.039-0.028,0.064-0.041
			c0.024-0.015,0.054-0.025,0.089-0.036c0.034-0.01,0.07-0.015,0.113-0.015c0.058,0,0.103,0.008,0.137,0.025
			c0.034,0.017,0.061,0.034,0.079,0.051c0.031,0.031,0.052,0.066,0.06,0.104C115.423,39.046,115.426,39.081,115.426,39.113z
			 M115.202,39.105c0-0.015-0.001-0.031-0.005-0.051c-0.003-0.02-0.013-0.035-0.026-0.048c-0.016-0.013-0.034-0.02-0.057-0.02
			c-0.01,0-0.022,0.001-0.036,0.005s-0.027,0.012-0.044,0.022c-0.015,0.012-0.03,0.027-0.046,0.05
			c-0.015,0.021-0.029,0.05-0.042,0.085c-0.005,0.018-0.014,0.039-0.02,0.061c-0.007,0.021-0.012,0.042-0.015,0.064
			c-0.007,0.024-0.01,0.045-0.012,0.068c-0.005,0.021-0.006,0.042-0.006,0.061c0,0.014,0.001,0.026,0.006,0.042
			c0.003,0.016,0.012,0.03,0.021,0.043c0.02,0.019,0.042,0.028,0.072,0.028c0.021,0,0.044-0.009,0.067-0.024
			s0.045-0.042,0.066-0.079c0.012-0.021,0.024-0.047,0.032-0.073c0.01-0.027,0.018-0.054,0.024-0.081
			c0.005-0.027,0.01-0.054,0.012-0.08C115.201,39.151,115.202,39.128,115.202,39.105z"/>
		<path fill="#666666" d="M116.523,38.688l-0.053,0.013c-0.008,0.001-0.017,0.004-0.025,0.008c-0.01,0.003-0.018,0.007-0.029,0.014
			c-0.016,0.011-0.026,0.024-0.039,0.042c-0.008,0.017-0.014,0.027-0.016,0.03l-0.053,0.106c-0.017,0.034-0.029,0.06-0.041,0.075
			c-0.009,0.017-0.02,0.028-0.027,0.037c-0.015,0.015-0.034,0.027-0.054,0.038c-0.023,0.011-0.045,0.017-0.063,0.022
			c0.031,0.012,0.055,0.028,0.071,0.05c0.008,0.012,0.018,0.029,0.024,0.051c0.009,0.024,0.013,0.044,0.015,0.063l0.016,0.161
			c0.002,0.015,0.005,0.028,0.006,0.043c0.004,0.015,0.012,0.027,0.028,0.037c0.005,0.004,0.016,0.009,0.026,0.016
			c0.014,0.005,0.023,0.008,0.03,0.01l0.029,0.01l-0.07,0.151l-0.116-0.015c-0.021-0.001-0.043-0.01-0.064-0.023
			c-0.023-0.013-0.041-0.027-0.053-0.042c-0.015-0.018-0.021-0.038-0.021-0.059c-0.003-0.022-0.004-0.048-0.004-0.076l-0.005-0.155
			c-0.001-0.018-0.005-0.036-0.012-0.057c-0.006-0.021-0.013-0.036-0.022-0.047c-0.014-0.016-0.029-0.024-0.049-0.027
			c-0.019-0.002-0.033-0.003-0.047-0.003h-0.08l-0.103,0.488h-0.222l0.229-1.089h0.224l-0.09,0.426h0.107
			c0.015,0,0.032-0.003,0.052-0.01c0.021-0.005,0.036-0.013,0.048-0.021c0.012-0.007,0.021-0.021,0.03-0.037
			c0.014-0.017,0.023-0.038,0.034-0.063l0.062-0.141c0.01-0.02,0.02-0.038,0.03-0.057c0.012-0.019,0.026-0.036,0.046-0.053
			c0.018-0.015,0.036-0.024,0.058-0.032c0.021-0.008,0.042-0.013,0.066-0.016l0.111-0.016L116.523,38.688z"/>
		<path fill="#666666" d="M116.811,38.82c0.005,0.007,0.008,0.02,0.012,0.037c0.007,0.017,0.01,0.044,0.01,0.08v0.014
			c0.035-0.041,0.075-0.07,0.121-0.091c0.047-0.021,0.087-0.03,0.13-0.03c0.025,0,0.052,0.005,0.079,0.015
			c0.03,0.011,0.055,0.029,0.078,0.057c0.023,0.029,0.039,0.063,0.046,0.099c0.008,0.035,0.012,0.068,0.012,0.096
			c0,0.005-0.002,0.017-0.002,0.036c-0.001,0.021-0.004,0.048-0.01,0.078c-0.006,0.031-0.013,0.066-0.024,0.105
			c-0.012,0.04-0.027,0.079-0.047,0.119c-0.02,0.041-0.043,0.073-0.067,0.104c-0.026,0.027-0.058,0.054-0.094,0.076
			c-0.03,0.019-0.062,0.033-0.095,0.042c-0.032,0.007-0.065,0.012-0.101,0.012c-0.04,0-0.071-0.003-0.097-0.011
			c-0.025-0.006-0.044-0.014-0.059-0.021v0.007c0,0.007,0,0.014,0,0.018c-0.003,0.005-0.004,0.012-0.007,0.021l-0.054,0.262
			l-0.213,0.054l0.192-0.899c0.002-0.013,0.005-0.028,0.006-0.046c0.002-0.018,0.004-0.034,0.004-0.054
			c0-0.016-0.002-0.033-0.004-0.049c-0.001-0.018-0.004-0.034-0.012-0.051L116.811,38.82z M116.745,39.476
			c0.016,0.012,0.032,0.02,0.053,0.026c0.021,0.005,0.039,0.007,0.054,0.007c0.021,0,0.042-0.003,0.058-0.009
			c0.019-0.007,0.032-0.017,0.044-0.028c0.015-0.015,0.029-0.033,0.041-0.056c0.014-0.022,0.025-0.046,0.032-0.07
			c0.006-0.016,0.012-0.034,0.018-0.055c0.004-0.021,0.009-0.04,0.016-0.063c0.003-0.022,0.007-0.045,0.01-0.066
			c0.001-0.024,0.003-0.045,0.003-0.064c0-0.008-0.002-0.02-0.003-0.034c-0.002-0.015-0.009-0.028-0.02-0.039
			c-0.012-0.011-0.026-0.017-0.05-0.017c-0.014,0-0.032,0.004-0.047,0.009c-0.017,0.006-0.032,0.013-0.046,0.021
			c-0.017,0.013-0.032,0.027-0.048,0.046c-0.017,0.017-0.03,0.034-0.041,0.05L116.745,39.476z"/>
		<path fill="#666666" d="M118.015,39.558c-0.034,0.025-0.067,0.045-0.098,0.06c-0.032,0.014-0.063,0.024-0.088,0.032
			c-0.027,0.008-0.056,0.013-0.078,0.015c-0.023,0.003-0.044,0.003-0.06,0.003c-0.017,0-0.035,0-0.055-0.002
			c-0.02-0.001-0.039-0.005-0.06-0.01c-0.022-0.007-0.04-0.016-0.061-0.025c-0.019-0.012-0.037-0.025-0.054-0.043
			c-0.027-0.029-0.048-0.061-0.058-0.099c-0.011-0.037-0.017-0.075-0.017-0.114c0-0.041,0.006-0.08,0.014-0.121
			c0.009-0.042,0.021-0.081,0.036-0.119c0.017-0.038,0.034-0.074,0.057-0.108c0.021-0.033,0.046-0.063,0.074-0.09
			c0.046-0.045,0.092-0.073,0.138-0.087c0.046-0.013,0.092-0.019,0.136-0.019c0.039,0,0.076,0.004,0.111,0.013
			c0.034,0.008,0.064,0.023,0.094,0.047c0.005,0.004,0.012,0.01,0.019,0.018c0.009,0.009,0.017,0.021,0.022,0.032
			s0.013,0.028,0.018,0.046s0.008,0.04,0.008,0.063c0,0.045-0.009,0.082-0.026,0.112c-0.021,0.028-0.042,0.055-0.07,0.075
			c-0.043,0.033-0.091,0.057-0.142,0.068c-0.052,0.012-0.107,0.018-0.165,0.018c-0.018,0-0.033,0-0.047-0.002
			c-0.015-0.001-0.031-0.004-0.049-0.009c-0.004,0.023-0.007,0.048-0.007,0.072c0,0.027,0.005,0.05,0.012,0.066
			c0.009,0.017,0.02,0.029,0.03,0.037c0.014,0.013,0.031,0.02,0.049,0.021c0.018,0.002,0.032,0.004,0.042,0.004
			c0.047,0,0.089-0.01,0.126-0.029c0.037-0.019,0.07-0.036,0.096-0.056L118.015,39.558z M117.649,39.169
			c0.008,0.002,0.017,0.004,0.028,0.006c0.006,0,0.019,0.002,0.03,0.002c0.018,0,0.039-0.002,0.065-0.005
			c0.025-0.004,0.049-0.011,0.068-0.021c0.02-0.01,0.034-0.021,0.045-0.036s0.017-0.031,0.017-0.052c0-0.027-0.007-0.047-0.021-0.06
			c-0.005-0.005-0.014-0.009-0.023-0.013c-0.007-0.005-0.021-0.007-0.038-0.007c-0.025,0-0.047,0.004-0.065,0.014
			s-0.034,0.023-0.049,0.04c-0.017,0.018-0.027,0.04-0.038,0.065C117.658,39.129,117.651,39.15,117.649,39.169z"/>
		<path fill="#666666" d="M118.488,38.492c0.019-0.001,0.035-0.003,0.055-0.005c0.018-0.002,0.036-0.003,0.057-0.003
			c0.025,0,0.053,0.002,0.075,0.005c0.026,0.002,0.05,0.006,0.072,0.012c0.031,0.009,0.062,0.022,0.088,0.04s0.05,0.041,0.07,0.071
			c0.017,0.022,0.027,0.045,0.035,0.069c0.009,0.023,0.015,0.047,0.019,0.071c0.003,0.023,0.005,0.047,0.007,0.069
			c0,0.021,0,0.042,0,0.063c0,0.06-0.003,0.121-0.013,0.183c-0.007,0.063-0.021,0.124-0.038,0.181
			c-0.016,0.06-0.036,0.111-0.058,0.161c-0.023,0.049-0.05,0.091-0.077,0.122c-0.015,0.017-0.033,0.033-0.054,0.05
			c-0.021,0.015-0.046,0.03-0.072,0.044c-0.024,0.013-0.055,0.023-0.086,0.031c-0.034,0.008-0.07,0.011-0.105,0.011
			c-0.036,0-0.074-0.005-0.113-0.016c-0.037-0.012-0.068-0.032-0.098-0.063c-0.027-0.03-0.045-0.064-0.055-0.102
			c-0.007-0.036-0.011-0.07-0.011-0.102c0-0.042,0.004-0.086,0.013-0.128c0.008-0.041,0.021-0.082,0.035-0.119
			c0.018-0.037,0.034-0.072,0.055-0.104c0.022-0.031,0.045-0.059,0.069-0.08c0.024-0.021,0.055-0.041,0.093-0.06
			c0.037-0.02,0.083-0.029,0.136-0.029c0.019,0,0.035,0.001,0.05,0.005c0.016,0.004,0.03,0.008,0.048,0.013
			c0.012,0.005,0.025,0.01,0.037,0.016c0.014,0.005,0.026,0.014,0.039,0.025c0.005-0.021,0.005-0.043,0.005-0.07
			c0-0.02,0-0.041-0.005-0.062c-0.002-0.021-0.006-0.039-0.011-0.054c-0.017-0.036-0.042-0.061-0.075-0.077
			c-0.023-0.011-0.045-0.019-0.069-0.021c-0.023-0.004-0.044-0.004-0.063-0.004c-0.026,0-0.051,0-0.07,0.004
			c-0.017,0.002-0.034,0.007-0.051,0.011L118.488,38.492z M118.73,39.067c-0.009-0.008-0.017-0.016-0.026-0.02
			c-0.008-0.006-0.018-0.011-0.027-0.015c-0.01-0.005-0.02-0.008-0.031-0.01c-0.01-0.004-0.022-0.004-0.032-0.004
			c-0.026,0-0.047,0.005-0.066,0.016c-0.02,0.013-0.035,0.026-0.049,0.042c-0.01,0.017-0.021,0.034-0.03,0.054
			c-0.007,0.018-0.014,0.035-0.019,0.051c-0.018,0.057-0.03,0.103-0.034,0.138c-0.005,0.036-0.008,0.062-0.008,0.081
			c0,0.041,0.01,0.072,0.027,0.089s0.036,0.024,0.058,0.024c0.019,0,0.038-0.005,0.061-0.016c0.024-0.011,0.047-0.032,0.067-0.067
			c0.021-0.034,0.037-0.072,0.051-0.118c0.016-0.045,0.028-0.1,0.042-0.161L118.73,39.067z"/>
		<path fill="#666666" d="M119.701,39.442c-0.001,0.006-0.002,0.015-0.005,0.027c-0.001,0.012-0.001,0.021-0.001,0.027
			c0,0.018,0.001,0.035,0.005,0.054c0.003,0.019,0.01,0.037,0.016,0.056l-0.179,0.071c-0.007-0.009-0.012-0.022-0.021-0.041
			s-0.017-0.041-0.019-0.067c-0.015,0.015-0.029,0.026-0.043,0.037c-0.018,0.009-0.032,0.019-0.047,0.026
			c-0.032,0.016-0.058,0.024-0.083,0.027c-0.022,0.004-0.044,0.007-0.06,0.007c-0.03,0-0.057-0.005-0.082-0.012
			c-0.024-0.009-0.045-0.02-0.063-0.034c-0.009-0.009-0.021-0.022-0.03-0.041c-0.014-0.019-0.017-0.044-0.017-0.074
			c0-0.022,0-0.047,0.006-0.072c0.004-0.024,0.007-0.043,0.009-0.055l0.107-0.514l0.217-0.038l-0.109,0.515
			c-0.003,0.007-0.006,0.017-0.008,0.034c-0.003,0.017-0.005,0.03-0.005,0.038c-0.001,0.01-0.004,0.019-0.004,0.023
			c0,0.004,0,0.008,0,0.012c0,0.009,0.003,0.017,0.004,0.023c0,0.007,0.005,0.013,0.013,0.021c0.01,0.012,0.021,0.019,0.037,0.019
			c0.009,0,0.019-0.003,0.032-0.007c0.015-0.003,0.031-0.012,0.05-0.026c0.034-0.024,0.063-0.052,0.085-0.087l0.111-0.52
			l0.212-0.042L119.701,39.442z"/>
		<path fill="#666666" d="M120.185,38.82c0.008,0.021,0.014,0.04,0.016,0.055s0.003,0.034,0.003,0.057v0.02
			c0.036-0.038,0.076-0.068,0.126-0.091c0.02-0.01,0.041-0.016,0.063-0.021c0.021-0.006,0.045-0.009,0.068-0.009
			c0.044,0,0.08,0.012,0.105,0.034c0.028,0.021,0.043,0.05,0.044,0.087c0.008-0.01,0.022-0.022,0.045-0.041
			c0.021-0.018,0.047-0.033,0.078-0.049c0.044-0.021,0.089-0.03,0.135-0.03c0.023,0,0.046,0.003,0.064,0.009
			c0.021,0.006,0.038,0.017,0.053,0.031c0.012,0.013,0.023,0.028,0.033,0.049c0.007,0.021,0.013,0.047,0.013,0.078
			c0,0.017-0.002,0.035-0.006,0.054c-0.004,0.02-0.006,0.036-0.007,0.051L120.9,39.65h-0.203l0.113-0.528
			c0.001-0.01,0.003-0.021,0.005-0.034c0.004-0.011,0.004-0.022,0.004-0.031c0-0.006,0-0.013-0.002-0.021
			c-0.002-0.007-0.005-0.014-0.01-0.02c-0.006-0.005-0.009-0.006-0.017-0.008c-0.007-0.001-0.013-0.001-0.018-0.001
			c-0.033,0-0.064,0.013-0.095,0.035c-0.032,0.025-0.058,0.053-0.076,0.086l-0.109,0.521h-0.204l0.11-0.521
			c0.002-0.005,0.005-0.016,0.006-0.032c0.006-0.016,0.006-0.031,0.006-0.046c0-0.019-0.006-0.029-0.012-0.035
			c-0.006-0.005-0.012-0.006-0.021-0.008c-0.006-0.001-0.013-0.001-0.017-0.001c-0.018,0-0.036,0.003-0.05,0.011
			c-0.013,0.006-0.025,0.013-0.033,0.019c-0.014,0.012-0.03,0.026-0.047,0.045c-0.016,0.019-0.029,0.033-0.038,0.047l-0.11,0.521
			h-0.204l0.118-0.55c0.003-0.015,0.005-0.033,0.007-0.057c0.001-0.021,0.001-0.04,0.001-0.052c0-0.018,0-0.034-0.003-0.05
			c-0.003-0.017-0.005-0.031-0.008-0.045L120.185,38.82z"/>
		<path fill="#666666" d="M122.379,38.561l-0.061,0.185h-0.439l-0.05,0.239h0.174c0.02,0,0.041,0.001,0.063,0.003
			c0.021,0.001,0.044,0.005,0.066,0.01c0.021,0.006,0.042,0.014,0.064,0.024c0.021,0.01,0.039,0.023,0.056,0.041
			c0.018,0.018,0.031,0.041,0.046,0.069c0.013,0.03,0.021,0.068,0.021,0.115c0,0.027-0.004,0.056-0.01,0.086
			c-0.005,0.032-0.018,0.063-0.03,0.092c-0.015,0.031-0.037,0.061-0.062,0.089c-0.024,0.026-0.057,0.052-0.097,0.073
			c-0.036,0.021-0.079,0.037-0.124,0.047c-0.046,0.012-0.089,0.016-0.124,0.016h-0.406l0.232-1.089H122.379z M121.876,39.472
			c0.02,0,0.041-0.003,0.064-0.01c0.023-0.006,0.047-0.021,0.071-0.046c0.017-0.018,0.031-0.04,0.039-0.066
			c0.01-0.027,0.015-0.056,0.015-0.081c0-0.014-0.001-0.025-0.005-0.036c-0.004-0.014-0.01-0.022-0.018-0.034
			c-0.016-0.016-0.031-0.025-0.05-0.029c-0.02-0.004-0.036-0.006-0.052-0.006h-0.15l-0.066,0.309H121.876L121.876,39.472z"/>
		<path fill="#666666" d="M122.912,39.673c-0.013-0.009-0.023-0.021-0.033-0.035c-0.012-0.016-0.021-0.036-0.026-0.066
			c-0.03,0.03-0.06,0.055-0.097,0.071s-0.075,0.024-0.116,0.024c-0.045,0-0.08-0.007-0.106-0.021
			c-0.024-0.014-0.045-0.028-0.058-0.044c-0.023-0.026-0.039-0.055-0.044-0.086c-0.009-0.031-0.014-0.064-0.014-0.1
			c0-0.094,0.018-0.181,0.048-0.264c0.03-0.08,0.07-0.146,0.122-0.198c0.027-0.026,0.057-0.051,0.085-0.067
			c0.027-0.016,0.057-0.028,0.084-0.036c0.029-0.01,0.055-0.015,0.08-0.017c0.025-0.003,0.049-0.004,0.068-0.004
			c0.069,0,0.123,0.005,0.163,0.017c0.041,0.011,0.074,0.023,0.102,0.038c-0.011,0.034-0.019,0.067-0.028,0.103
			s-0.018,0.067-0.022,0.095l-0.063,0.304c-0.005,0.016-0.006,0.03-0.006,0.043c-0.001,0.011-0.001,0.018-0.001,0.021
			c0,0.021,0.002,0.038,0.011,0.053c0.005,0.014,0.015,0.026,0.023,0.04L122.912,39.673z M122.935,39.006
			c-0.01-0.006-0.022-0.009-0.034-0.011c-0.014-0.001-0.022-0.003-0.033-0.003c-0.029,0-0.056,0.006-0.076,0.018
			c-0.022,0.01-0.042,0.027-0.058,0.052c-0.022,0.027-0.039,0.056-0.05,0.085c-0.012,0.029-0.02,0.058-0.026,0.083
			c-0.006,0.025-0.012,0.053-0.017,0.085s-0.007,0.063-0.007,0.094c0,0.023,0,0.041,0.005,0.051c0.005,0.012,0.007,0.016,0.008,0.02
			c0.006,0.011,0.014,0.019,0.023,0.022c0.009,0.003,0.018,0.005,0.028,0.005c0.016,0,0.032-0.004,0.047-0.012
			c0.017-0.008,0.032-0.019,0.046-0.029c0.012-0.012,0.025-0.025,0.036-0.04c0.01-0.016,0.02-0.029,0.026-0.044L122.935,39.006z"/>
		<path fill="#666666" d="M123.225,39.65l0.165-0.784l0.215-0.039l-0.068,0.326h0.214l0.06-0.287l0.217-0.038l-0.177,0.822h-0.205
			l0.073-0.35h-0.214l-0.075,0.35H123.225L123.225,39.65z"/>
		<path fill="#666666" d="M124.063,39.65l0.164-0.784l0.215-0.039l-0.058,0.258l-0.052,0.164h0.003l0.038-0.065
			c0.017-0.03,0.033-0.059,0.05-0.088c0.021-0.028,0.045-0.059,0.079-0.093c0.02-0.021,0.042-0.04,0.063-0.058
			c0.023-0.017,0.047-0.033,0.075-0.047c0.029-0.016,0.061-0.03,0.094-0.042c0.035-0.013,0.069-0.022,0.104-0.029l0.04,0.142
			l-0.032,0.01c-0.023,0.007-0.048,0.016-0.075,0.028c-0.027,0.011-0.054,0.025-0.084,0.043c-0.027,0.017-0.051,0.037-0.081,0.06
			c-0.023,0.022-0.048,0.051-0.069,0.082c0.024,0.001,0.051,0.007,0.069,0.015c0.024,0.009,0.043,0.022,0.058,0.041
			c0.01,0.011,0.016,0.027,0.02,0.044c0.005,0.018,0.008,0.035,0.01,0.05l0.004,0.092c0,0.005,0,0.013,0.001,0.026
			c0.003,0.014,0.006,0.023,0.012,0.03c0.009,0.011,0.019,0.017,0.034,0.021l0.045,0.013l-0.061,0.142l-0.072-0.008
			c-0.023-0.001-0.046-0.007-0.067-0.016c-0.026-0.009-0.045-0.024-0.058-0.048c-0.01-0.018-0.017-0.037-0.018-0.057
			c-0.002-0.021-0.003-0.039-0.003-0.057l-0.004-0.106c0-0.006-0.001-0.012-0.001-0.019c-0.003-0.007-0.008-0.013-0.017-0.019
			c-0.005-0.004-0.014-0.007-0.022-0.008c-0.009-0.002-0.015-0.003-0.021-0.003c-0.034,0.041-0.064,0.085-0.094,0.137
			c-0.027,0.049-0.058,0.111-0.092,0.188L124.063,39.65L124.063,39.65z"/>
	</g>
</g>
</svg>
