<?xml version="1.0" encoding="utf-8"?>
<!-- Generator: Adobe Illustrator 16.0.3, SVG Export Plug-In . SVG Version: 6.00 Build 0)  -->
<!DOCTYPE svg PUBLIC "-//W3C//DTD SVG 1.1//EN" "http://www.w3.org/Graphics/SVG/1.1/DTD/svg11.dtd">
<svg version="1.1" id="Layer_1" xmlns="http://www.w3.org/2000/svg" xmlns:xlink="http://www.w3.org/1999/xlink" x="0px" y="0px"
	 width="70px" height="70px" viewBox="0 0 70 70" enable-background="new 0 0 70 70" xml:space="preserve">
<rect fill="#FFFFFF" width="70" height="70"/>
<g>
	
		<radialGradient id="SVGID_1_" cx="-1421.4351" cy="779.4258" r="26.1751" gradientTransform="matrix(1.0667 0 0 1.0667 1542.397 -806.0068)" gradientUnits="userSpaceOnUse">
		<stop  offset="0" style="stop-color:#6DCEF5"/>
		<stop  offset="0.15" style="stop-color:#00B2EF"/>
		<stop  offset="0.333" style="stop-color:#0082C9"/>
		<stop  offset="0.5" style="stop-color:#005AA9"/>
		<stop  offset="1" style="stop-color:#001C54"/>
	</radialGradient>
	<polygon fill="url(#SVGID_1_)" points="34.283,39.27 34.294,39.237 37.63,29.021 31.939,29.021 32.271,30.721 35.123,30.721 
		35.113,30.75 31.655,41.078 37.813,41.078 37.41,39.27 	"/>
	
		<radialGradient id="SVGID_2_" cx="-1421.3188" cy="779.4258" r="25.9607" gradientTransform="matrix(1.0667 0 0 1.0667 1542.397 -806.0068)" gradientUnits="userSpaceOnUse">
		<stop  offset="0" style="stop-color:#6DCEF5"/>
		<stop  offset="0.15" style="stop-color:#00B2EF"/>
		<stop  offset="0.333" style="stop-color:#0082C9"/>
		<stop  offset="0.5" style="stop-color:#005AA9"/>
		<stop  offset="1" style="stop-color:#001C54"/>
	</radialGradient>
	<path fill="url(#SVGID_2_)" d="M29.865,32.08h-2.933l0.208,1.383v4.475h1.646v-1.403h0.021c0,0,0.96,0.003,1.057,0.003
		c1.202,0,2.213-1.042,2.213-2.242C32.078,33.09,31.067,32.08,29.865,32.08z M29.72,35.235c-0.011,0-0.911,0-0.911,0h-0.022v-1.769
		h0.021c0,0,0.881-0.002,0.911-0.002c0.462,0,0.867,0.404,0.867,0.867C30.585,34.792,30.182,35.235,29.72,35.235z"/>
	
		<radialGradient id="SVGID_3_" cx="-1421.3242" cy="779.3711" r="26.0157" gradientTransform="matrix(1.0667 0 0 1.0667 1542.397 -806.0068)" gradientUnits="userSpaceOnUse">
		<stop  offset="0" style="stop-color:#6DCEF5"/>
		<stop  offset="0.15" style="stop-color:#00B2EF"/>
		<stop  offset="0.333" style="stop-color:#0082C9"/>
		<stop  offset="0.5" style="stop-color:#005AA9"/>
		<stop  offset="1" style="stop-color:#001C54"/>
	</radialGradient>
	<path fill="url(#SVGID_3_)" d="M41.344,35.557c0,0.55-0.445,0.96-0.958,0.96c-0.51,0-0.955-0.41-0.955-0.96
		c0-0.047,0.003-3.296,0.003-3.616L37.77,32.21v3.27c0,1.47,1.188,2.62,2.616,2.62c1.435,0,2.616-1.15,2.616-2.62v-3.54
		l-1.664,0.269C41.34,32.479,41.344,35.512,41.344,35.557z"/>
	
		<radialGradient id="SVGID_4_" cx="-1421.3179" cy="779.4268" r="25.9651" gradientTransform="matrix(1.0667 0 0 1.0667 1542.397 -806.0068)" gradientUnits="userSpaceOnUse">
		<stop  offset="0" style="stop-color:#6DCEF5"/>
		<stop  offset="0.15" style="stop-color:#00B2EF"/>
		<stop  offset="0.333" style="stop-color:#0082C9"/>
		<stop  offset="0.5" style="stop-color:#005AA9"/>
		<stop  offset="1" style="stop-color:#001C54"/>
	</radialGradient>
	<path fill="url(#SVGID_4_)" d="M35,20c-8.27,0.002-15,6.731-15,15.002C20,43.271,26.73,50,35,50c8.271,0,14.999-6.729,15-14.998
		C49.999,26.731,43.271,20.002,35,20z M35.002,45.547c-5.808-0.01-10.539-4.74-10.549-10.548c0.01-5.807,4.743-10.536,10.547-10.547
		h0.002c5.804,0.011,10.535,4.74,10.548,10.547C45.537,40.807,40.807,45.537,35.002,45.547z"/>
</g>
</svg>
