<?xml version="1.0" encoding="utf-8"?>
<!-- Generator: Adobe Illustrator 16.0.3, SVG Export Plug-In . SVG Version: 6.00 Build 0)  -->
<!DOCTYPE svg PUBLIC "-//W3C//DTD SVG 1.1//EN" "http://www.w3.org/Graphics/SVG/1.1/DTD/svg11.dtd">
<svg version="1.1" id="Layer_1" xmlns="http://www.w3.org/2000/svg" xmlns:xlink="http://www.w3.org/1999/xlink" x="0px" y="0px"
	 width="70px" height="70px" viewBox="-5.5 0 70 70" enable-background="new -5.5 0 70 70" xml:space="preserve">
<rect x="-5.5" fill="#FFFFFF" width="70" height="70"/>
<g>
	<g>
		<path fill="#FFFFFF" d="M45.347,39.852c-0.241,0-0.455-0.055-0.635-0.165c-0.184-0.109-0.321-0.262-0.417-0.45
			c-0.091-0.183-0.139-0.389-0.139-0.61c0-0.26,0.058-0.483,0.172-0.67s0.267-0.329,0.446-0.419s0.369-0.135,0.565-0.135
			c0.241,0,0.457,0.063,0.643,0.187c0.045,0.031,0.071,0.084,0.071,0.136v0.586c0,0.066-0.041,0.128-0.106,0.151
			c-0.063,0.022-0.137,0.005-0.182-0.047c-0.106-0.125-0.222-0.185-0.353-0.185c-0.076,0-0.136,0.017-0.186,0.052
			c-0.056,0.036-0.094,0.085-0.119,0.145c-0.032,0.068-0.046,0.14-0.046,0.218c0,0.082,0.014,0.15,0.047,0.21
			c0.029,0.055,0.068,0.095,0.12,0.124c0.056,0.03,0.115,0.045,0.184,0.045c0.129,0,0.248-0.055,0.361-0.169
			c0.048-0.045,0.118-0.061,0.18-0.035c0.06,0.024,0.1,0.084,0.1,0.149v0.572c0,0.053-0.026,0.104-0.071,0.133
			C45.811,39.792,45.597,39.852,45.347,39.852z M45.34,37.727c-0.147,0-0.282,0.033-0.417,0.102
			c-0.129,0.063-0.232,0.161-0.315,0.299c-0.082,0.132-0.125,0.301-0.125,0.499c0,0.171,0.035,0.326,0.104,0.464
			c0.067,0.136,0.164,0.24,0.293,0.319c0.129,0.078,0.287,0.117,0.469,0.117c0.146,0,0.274-0.027,0.381-0.078v-0.165
			c-0.215,0.095-0.465,0.088-0.657-0.021c-0.106-0.06-0.191-0.146-0.249-0.254c-0.057-0.106-0.087-0.229-0.087-0.366
			c0-0.123,0.025-0.24,0.075-0.348c0.05-0.116,0.126-0.209,0.23-0.28c0.186-0.131,0.461-0.147,0.688-0.039v-0.159
			C45.614,37.755,45.486,37.727,45.34,37.727z M38.455,39.852c-0.244,0-0.466-0.053-0.652-0.159
			c-0.19-0.106-0.339-0.255-0.441-0.444c-0.099-0.187-0.148-0.396-0.148-0.622c0-0.226,0.05-0.438,0.148-0.622
			c0.103-0.188,0.251-0.338,0.442-0.444c0.187-0.104,0.407-0.157,0.651-0.157c0.245,0,0.465,0.053,0.653,0.157
			c0.19,0.106,0.339,0.258,0.44,0.444c0.101,0.186,0.149,0.396,0.149,0.622c0,0.173-0.026,0.335-0.086,0.482
			c-0.056,0.149-0.14,0.283-0.25,0.395c-0.108,0.112-0.242,0.197-0.399,0.26C38.809,39.82,38.639,39.852,38.455,39.852z
			 M38.455,37.727c-0.191,0-0.351,0.037-0.492,0.116c-0.138,0.078-0.241,0.182-0.313,0.316c-0.075,0.136-0.111,0.294-0.111,0.467
			c0,0.177,0.035,0.329,0.111,0.468c0.071,0.135,0.175,0.238,0.312,0.315c0.14,0.078,0.304,0.117,0.493,0.117
			c0.144,0,0.275-0.022,0.39-0.066c0.113-0.045,0.208-0.105,0.284-0.186c0.078-0.078,0.138-0.173,0.18-0.28
			c0.042-0.112,0.063-0.235,0.063-0.368c0-0.173-0.038-0.332-0.111-0.467c-0.071-0.135-0.175-0.238-0.313-0.316
			C38.809,37.764,38.646,37.727,38.455,37.727z M34.07,39.852c-0.246,0-0.467-0.053-0.654-0.159
			c-0.189-0.106-0.337-0.255-0.44-0.444c-0.099-0.185-0.148-0.396-0.148-0.622c0-0.226,0.05-0.439,0.148-0.622
			c0.103-0.188,0.251-0.338,0.441-0.444c0.188-0.104,0.407-0.157,0.653-0.157c0.243,0,0.464,0.053,0.651,0.157
			c0.19,0.106,0.337,0.258,0.44,0.444c0.1,0.186,0.15,0.396,0.15,0.622c0,0.173-0.029,0.335-0.084,0.482
			c-0.058,0.149-0.143,0.283-0.253,0.395c-0.107,0.112-0.241,0.197-0.399,0.26C34.424,39.82,34.254,39.852,34.07,39.852z
			 M34.07,37.727c-0.19,0-0.355,0.039-0.493,0.116c-0.138,0.078-0.24,0.182-0.313,0.316c-0.074,0.135-0.112,0.294-0.112,0.467
			c0,0.177,0.037,0.329,0.112,0.468c0.072,0.135,0.175,0.238,0.312,0.315c0.139,0.078,0.304,0.117,0.494,0.117
			c0.142,0,0.271-0.022,0.389-0.066c0.111-0.045,0.209-0.105,0.284-0.186c0.078-0.078,0.138-0.173,0.181-0.28
			c0.04-0.112,0.062-0.235,0.062-0.368c0-0.173-0.038-0.332-0.111-0.467s-0.175-0.238-0.311-0.316
			C34.422,37.764,34.262,37.727,34.07,37.727z M15.91,39.852c-0.246,0-0.466-0.053-0.653-0.159c-0.19-0.106-0.337-0.255-0.44-0.444
			c-0.1-0.185-0.15-0.396-0.15-0.622c0-0.226,0.05-0.439,0.15-0.622c0.102-0.188,0.25-0.338,0.44-0.444
			c0.188-0.104,0.408-0.157,0.653-0.157c0.244,0,0.464,0.053,0.652,0.157c0.191,0.106,0.339,0.258,0.44,0.444
			c0.099,0.185,0.149,0.395,0.149,0.622c0,0.172-0.028,0.335-0.084,0.482c-0.057,0.149-0.142,0.283-0.25,0.395
			c-0.111,0.112-0.246,0.197-0.401,0.26C16.265,39.82,16.093,39.852,15.91,39.852z M15.91,37.727c-0.193,0-0.353,0.037-0.493,0.116
			c-0.137,0.078-0.24,0.182-0.313,0.316c-0.074,0.135-0.11,0.294-0.11,0.467c0,0.177,0.035,0.329,0.11,0.468
			c0.072,0.135,0.175,0.238,0.313,0.315c0.137,0.078,0.304,0.117,0.493,0.117c0.143,0,0.273-0.022,0.39-0.066
			c0.111-0.045,0.206-0.105,0.283-0.186c0.077-0.078,0.138-0.173,0.179-0.282c0.042-0.11,0.063-0.233,0.063-0.366
			c0-0.173-0.035-0.332-0.11-0.467c-0.072-0.135-0.175-0.238-0.312-0.316C16.263,37.764,16.101,37.727,15.91,37.727z M53.433,39.794
			h-0.604c-0.056,0-0.108-0.026-0.137-0.076c-0.03-0.049-0.033-0.108-0.01-0.158l0.236-0.48l-0.717-1.384
			c-0.026-0.051-0.025-0.11,0.005-0.158c0.029-0.051,0.083-0.079,0.14-0.079h0.662c0.063,0,0.123,0.035,0.147,0.093l0.231,0.495
			l0.185-0.484c0.024-0.062,0.087-0.104,0.153-0.104h0.612c0.055,0,0.106,0.028,0.137,0.073c0.029,0.049,0.034,0.106,0.011,0.155
			l-0.905,2.011C53.553,39.758,53.496,39.794,53.433,39.794z M53.09,39.469h0.236l0.759-1.686h-0.249l-0.28,0.74
			c-0.024,0.062-0.082,0.103-0.147,0.104s-0.126-0.033-0.153-0.094l-0.35-0.751h-0.291l0.631,1.221
			c0.024,0.043,0.024,0.098,0.001,0.146L53.09,39.469z M52.065,39.794c-0.004,0-0.004,0-0.006,0h-0.662
			c-0.06,0-0.113-0.03-0.144-0.082l-0.241-0.424l-0.258,0.429c-0.028,0.047-0.084,0.077-0.14,0.077h-0.644
			c-0.06,0-0.117-0.033-0.145-0.088c-0.028-0.054-0.022-0.118,0.011-0.168l0.67-0.964l-0.597-0.861
			c-0.035-0.049-0.039-0.114-0.012-0.166c0.03-0.055,0.083-0.089,0.144-0.089h0.676c0.059,0,0.114,0.032,0.143,0.084l0.156,0.284
			l0.156-0.284c0.028-0.052,0.084-0.084,0.142-0.084h0.639c0.06,0,0.117,0.032,0.146,0.087c0.027,0.054,0.023,0.118-0.011,0.168
			l-0.566,0.833l0.655,0.969c0.031,0.029,0.051,0.071,0.051,0.118C52.229,39.722,52.155,39.794,52.065,39.794z M51.489,39.469h0.264
			l-0.563-0.831c-0.037-0.055-0.037-0.128,0-0.185l0.456-0.67h-0.233l-0.253,0.459c-0.057,0.104-0.228,0.104-0.286,0l-0.251-0.459
			h-0.267l0.482,0.696c0.042,0.057,0.042,0.132,0,0.188l-0.555,0.8h0.239l0.354-0.586c0.028-0.048,0.083-0.076,0.14-0.076h0.001
			c0.058,0,0.112,0.03,0.14,0.08L51.489,39.469z M49.504,39.794h-0.563c-0.09,0-0.164-0.072-0.164-0.161v-2.01
			c0-0.092,0.074-0.163,0.164-0.163h0.563c0.089,0,0.163,0.071,0.163,0.163v2.01C49.667,39.722,49.594,39.794,49.504,39.794z
			 M49.104,39.469h0.236v-1.686h-0.236V39.469z M48.272,39.794H47.71c-0.093,0-0.162-0.072-0.162-0.161v-1.366h-0.342v1.366
			c0,0.089-0.073,0.161-0.162,0.161h-0.563c-0.09,0-0.163-0.072-0.163-0.161v-2.01c0-0.092,0.073-0.163,0.163-0.163h1.792
			c0.089,0,0.16,0.071,0.16,0.163v2.01C48.434,39.722,48.362,39.794,48.272,39.794z M47.87,39.469h0.239v-1.686h-1.468v1.686h0.237
			v-1.366c0-0.089,0.073-0.163,0.163-0.163h0.666c0.089,0,0.16,0.074,0.16,0.163v1.366H47.87z M43.036,39.794h-0.604
			c-0.055,0-0.108-0.026-0.137-0.076c-0.029-0.049-0.034-0.108-0.008-0.158l0.235-0.48l-0.717-1.384
			c-0.026-0.051-0.025-0.11,0.005-0.158c0.03-0.051,0.082-0.079,0.139-0.079h0.662c0.063,0,0.123,0.035,0.149,0.093l0.229,0.495
			l0.187-0.484c0.022-0.062,0.084-0.104,0.151-0.104h0.612c0.055,0,0.106,0.028,0.137,0.073c0.029,0.049,0.035,0.106,0.011,0.155
			l-0.904,2.011C43.158,39.758,43.1,39.794,43.036,39.794z M42.694,39.469h0.234l0.76-1.686H43.44l-0.281,0.74
			c-0.023,0.062-0.081,0.103-0.146,0.104c-0.067,0.002-0.126-0.033-0.154-0.094l-0.35-0.751h-0.291l0.632,1.221
			c0.023,0.043,0.023,0.098,0.001,0.146L42.694,39.469z M36.293,39.794h-0.562c-0.09,0-0.163-0.072-0.163-0.161v-2.01
			c0-0.092,0.073-0.163,0.163-0.163h1.204c0.091,0,0.163,0.071,0.163,0.163v0.48c0,0.089-0.072,0.163-0.163,0.163h-0.479v1.366
			C36.456,39.722,36.381,39.794,36.293,39.794z M35.894,39.469h0.235v-1.366c0-0.089,0.074-0.163,0.164-0.163h0.479v-0.156h-0.879
			V39.469z M32.41,39.794h-2.654c-0.089,0-0.165-0.072-0.165-0.161v-2.01c0-0.092,0.075-0.163,0.165-0.163h0.562
			c0.09,0,0.163,0.071,0.163,0.163v1.364h0.157v-1.364c0-0.092,0.073-0.163,0.162-0.163h0.563c0.091,0,0.163,0.071,0.163,0.163
			v1.364h0.157v-1.364c0-0.092,0.072-0.163,0.162-0.163h0.563c0.09,0,0.161,0.071,0.161,0.163v2.01
			C32.57,39.722,32.499,39.794,32.41,39.794z M29.919,39.469h2.329v-1.686h-0.237v1.366c0,0.091-0.074,0.164-0.163,0.164h-0.483
			c-0.088,0-0.161-0.073-0.161-0.164v-1.366h-0.238v1.366c0,0.091-0.073,0.164-0.162,0.164h-0.483c-0.089,0-0.162-0.073-0.162-0.164
			v-1.366H29.92L29.919,39.469L29.919,39.469z M29.288,39.794h-0.603c-0.072,0-0.134-0.047-0.156-0.113l-0.074-0.231H28.01
			l-0.074,0.233c-0.022,0.066-0.085,0.111-0.157,0.111h-0.602c-0.053,0-0.103-0.023-0.132-0.068
			c-0.032-0.043-0.04-0.098-0.021-0.148l0.714-2.011c0.024-0.064,0.086-0.106,0.154-0.106h0.684c0.069,0,0.131,0.042,0.154,0.106
			l0.712,2.011c0.018,0.051,0.01,0.106-0.02,0.148C29.391,39.771,29.341,39.794,29.288,39.794z M28.804,39.469h0.253l-0.595-1.686
			h-0.455l-0.598,1.686h0.253l0.076-0.233c0.021-0.067,0.084-0.113,0.154-0.113h0.684c0.072,0,0.135,0.046,0.156,0.114
			L28.804,39.469z M26.152,39.794h-1.028c-0.091,0-0.162-0.072-0.162-0.161v-2.01c0-0.092,0.071-0.163,0.162-0.163h0.973
			c0.207,0,0.367,0.04,0.486,0.122c0.117,0.083,0.194,0.178,0.231,0.287c0.03,0.092,0.047,0.182,0.047,0.265
			c0,0.132-0.042,0.253-0.121,0.357c-0.011,0.014-0.021,0.028-0.033,0.04c0.029,0.021,0.058,0.045,0.087,0.073
			c0.118,0.111,0.179,0.27,0.179,0.469c0,0.137-0.033,0.262-0.098,0.371c-0.067,0.113-0.166,0.2-0.293,0.265
			C26.458,39.764,26.314,39.794,26.152,39.794z M25.285,39.469h0.867c0.113,0,0.208-0.02,0.287-0.056
			c0.069-0.035,0.123-0.08,0.156-0.139c0.037-0.06,0.054-0.125,0.054-0.202c0-0.108-0.026-0.185-0.079-0.233
			c-0.066-0.063-0.138-0.103-0.222-0.123c-0.074-0.017-0.125-0.081-0.125-0.158c0-0.029,0.009-0.06,0.022-0.088
			c-0.061,0.06-0.16,0.106-0.323,0.106h-0.235c-0.09,0-0.163-0.073-0.163-0.161v-0.391c0-0.09,0.073-0.163,0.163-0.163h0.235
			c0.137,0,0.242,0.034,0.313,0.104c0.071,0.069,0.108,0.159,0.108,0.261c0,0.039-0.006,0.123-0.059,0.198
			c0.015-0.012,0.029-0.02,0.047-0.024c0.062-0.022,0.112-0.059,0.15-0.108c0.035-0.047,0.054-0.1,0.054-0.16
			c0-0.049-0.01-0.104-0.028-0.161c-0.015-0.042-0.052-0.083-0.11-0.123c-0.04-0.028-0.126-0.064-0.299-0.064h-0.811L25.285,39.469
			L25.285,39.469z M25.849,38.25h0.073c0.076,0,0.097-0.015,0.097-0.015c-0.001-0.025-0.003-0.028-0.015-0.039
			c0.003,0-0.016-0.011-0.083-0.011h-0.073L25.849,38.25L25.849,38.25z M22.438,39.794h-0.563c-0.09,0-0.163-0.072-0.163-0.161
			v-0.182l-0.159,0.265c-0.029,0.05-0.084,0.079-0.141,0.079H20.81c-0.061,0-0.116-0.032-0.145-0.089
			c-0.028-0.056-0.023-0.12,0.012-0.168l0.416-0.581c-0.067-0.038-0.129-0.089-0.185-0.149c-0.056-0.063-0.101-0.14-0.135-0.229
			c-0.031-0.087-0.048-0.185-0.048-0.288c0-0.255,0.083-0.461,0.241-0.61c0.157-0.148,0.375-0.222,0.647-0.222h0.824
			c0.09,0,0.163,0.072,0.163,0.163v2.01C22.602,39.722,22.528,39.794,22.438,39.794z M22.039,39.469h0.236v-1.686h-0.661
			c-0.191,0-0.328,0.045-0.424,0.135c-0.092,0.088-0.138,0.209-0.138,0.372c0,0.068,0.009,0.125,0.028,0.175
			c0.018,0.053,0.043,0.093,0.071,0.126c0.03,0.035,0.064,0.063,0.101,0.082c0.041,0.021,0.082,0.035,0.127,0.043
			c0.054,0.01,0.102,0.048,0.123,0.099c0.022,0.052,0.016,0.111-0.019,0.157l-0.356,0.498h0.194l0.363-0.604
			c0.029-0.05,0.083-0.079,0.139-0.079h0.053c0.089,0,0.163,0.071,0.163,0.163L22.039,39.469L22.039,39.469z M20.28,39.794h-0.563
			c-0.089,0-0.161-0.072-0.161-0.161v-2.01c0-0.092,0.071-0.163,0.161-0.163h0.563c0.091,0,0.164,0.071,0.164,0.163v2.01
			C20.445,39.722,20.372,39.794,20.28,39.794z M19.882,39.469h0.238v-1.686h-0.238V39.469z M18.133,39.794H17.57
			c-0.091,0-0.163-0.072-0.163-0.161v-2.01c0-0.092,0.072-0.163,0.163-0.163h0.846c0.195,0,0.363,0.04,0.498,0.118
			c0.136,0.08,0.239,0.186,0.304,0.317c0.064,0.124,0.095,0.258,0.095,0.399c0,0.14-0.031,0.276-0.095,0.402
			c-0.064,0.132-0.167,0.238-0.305,0.319c-0.136,0.077-0.302,0.117-0.497,0.117h-0.121v0.5
			C18.295,39.722,18.222,39.794,18.133,39.794z M17.732,39.469h0.237v-0.502c0-0.088,0.073-0.159,0.164-0.159h0.283
			c0.136,0,0.249-0.026,0.333-0.075c0.084-0.05,0.142-0.108,0.179-0.184c0.04-0.081,0.059-0.164,0.059-0.255
			c0-0.092-0.019-0.174-0.059-0.257c-0.037-0.073-0.094-0.131-0.177-0.18c-0.085-0.05-0.197-0.074-0.334-0.074h-0.684L17.732,39.469
			L17.732,39.469z M13.968,39.794h-0.562c-0.09,0-0.164-0.072-0.164-0.161v-1.366h-0.279c-0.088,0-0.163-0.074-0.163-0.163v-0.48
			c0-0.092,0.074-0.163,0.163-0.163h1.448c0.09,0,0.163,0.071,0.163,0.163v0.48c0,0.089-0.072,0.163-0.163,0.163h-0.278v1.366
			C14.132,39.722,14.057,39.794,13.968,39.794z M13.568,39.469h0.235v-1.366c0-0.089,0.075-0.163,0.164-0.163h0.28v-0.156h-1.122
			v0.156h0.279c0.089,0,0.163,0.074,0.163,0.163L13.568,39.469L13.568,39.469z M12.454,39.794h-0.542
			c-0.09,0-0.163-0.072-0.163-0.161v-0.647l-0.467,0.733c-0.029,0.049-0.081,0.075-0.136,0.075h-0.563
			c-0.09,0-0.163-0.072-0.163-0.161v-2.01c0-0.092,0.072-0.163,0.163-0.163h0.543c0.089,0,0.163,0.071,0.163,0.163v0.653
			l0.479-0.743c0.03-0.046,0.08-0.073,0.136-0.073h0.55c0.089,0,0.164,0.071,0.164,0.163v2.01
			C12.618,39.722,12.543,39.794,12.454,39.794z M12.074,39.469h0.217v-1.686h-0.299l-0.729,1.133
			c-0.04,0.062-0.114,0.088-0.184,0.067c-0.068-0.02-0.118-0.084-0.118-0.156v-1.044h-0.217v1.685h0.311l0.72-1.131
			c0.039-0.061,0.113-0.088,0.181-0.069c0.072,0.02,0.118,0.084,0.118,0.157V39.469z M8.995,39.794H8.433
			c-0.088,0-0.164-0.072-0.164-0.161v-2.01c0-0.092,0.076-0.163,0.164-0.163h0.848c0.194,0,0.362,0.04,0.497,0.118
			c0.137,0.08,0.239,0.186,0.305,0.317c0.062,0.123,0.093,0.258,0.093,0.399c0,0.14-0.031,0.276-0.093,0.402
			c-0.066,0.132-0.168,0.238-0.307,0.319c-0.134,0.077-0.301,0.117-0.494,0.117h-0.12v0.5C9.161,39.722,9.086,39.794,8.995,39.794z
			 M8.597,39.469h0.235v-0.502c0-0.088,0.075-0.159,0.163-0.159h0.286c0.136,0,0.247-0.026,0.333-0.075
			c0.083-0.05,0.14-0.108,0.177-0.184c0.039-0.079,0.06-0.164,0.06-0.255c0-0.092-0.019-0.174-0.06-0.257
			c-0.038-0.073-0.094-0.131-0.177-0.18c-0.086-0.05-0.196-0.074-0.333-0.074H8.597V39.469z M7.825,39.794H6.619
			c-0.09,0-0.163-0.072-0.163-0.161v-2.01c0-0.092,0.073-0.163,0.163-0.163h1.206c0.089,0,0.161,0.071,0.161,0.163v0.48
			c0,0.075-0.049,0.139-0.118,0.157c0.035,0.029,0.057,0.076,0.057,0.124v0.443c0,0.077-0.053,0.144-0.125,0.159h0.023
			c0.089,0,0.161,0.073,0.161,0.162v0.483C7.987,39.722,7.916,39.794,7.825,39.794z M6.782,39.469h0.88v-0.157h-0.48
			c-0.09,0-0.162-0.073-0.162-0.163v-0.321c0-0.09,0.072-0.163,0.162-0.163h0.42v-0.116h-0.42c-0.09,0-0.162-0.073-0.162-0.163
			v-0.281c0-0.089,0.072-0.163,0.162-0.163h0.479v-0.157H6.782V39.469z M5.668,39.794H5.105c-0.089,0-0.162-0.072-0.162-0.161
			v-1.366h-0.28c-0.089,0-0.164-0.074-0.164-0.163v-0.48c0-0.092,0.074-0.163,0.164-0.163h1.447c0.089,0,0.162,0.071,0.162,0.163
			v0.48c0,0.089-0.072,0.163-0.162,0.163h-0.28v1.366C5.831,39.722,5.759,39.794,5.668,39.794z M5.267,39.469h0.236v-1.366
			c0-0.089,0.074-0.163,0.164-0.163h0.28v-0.156H4.826v0.156h0.279c0.089,0,0.162,0.074,0.162,0.163V39.469z M25.945,39.393h-0.258
			c-0.09,0-0.163-0.074-0.163-0.163v-0.412c0-0.092,0.073-0.163,0.163-0.163h0.258c0.11,0,0.2,0.017,0.279,0.05
			c0.07,0.03,0.185,0.111,0.185,0.313C26.41,39.104,26.376,39.393,25.945,39.393z M25.849,39.065h0.095c0.14,0,0.14-0.032,0.14-0.05
			c0-0.021-0.005-0.027-0.005-0.027c-0.022-0.003-0.072-0.011-0.135-0.011h-0.095V39.065z M38.455,39.37
			c-0.111,0-0.218-0.027-0.315-0.082c-0.104-0.053-0.189-0.141-0.253-0.255c-0.062-0.111-0.095-0.249-0.095-0.407
			c0-0.159,0.033-0.296,0.095-0.407c0.063-0.115,0.149-0.2,0.253-0.255c0.2-0.107,0.431-0.107,0.63-0.001
			c0.106,0.056,0.191,0.141,0.257,0.256c0.061,0.111,0.091,0.248,0.091,0.407c0,0.158-0.03,0.295-0.091,0.407
			c-0.065,0.115-0.152,0.202-0.257,0.257C38.672,39.343,38.565,39.37,38.455,39.37z M38.455,38.209
			c-0.056,0-0.111,0.015-0.162,0.041c-0.049,0.028-0.09,0.068-0.123,0.13c-0.034,0.061-0.053,0.145-0.053,0.246
			c0,0.103,0.018,0.187,0.053,0.25c0.033,0.058,0.074,0.1,0.123,0.126c0.106,0.055,0.22,0.055,0.325,0
			c0.051-0.026,0.089-0.068,0.122-0.126c0.035-0.063,0.054-0.147,0.054-0.25c0-0.102-0.018-0.186-0.053-0.246
			c-0.033-0.062-0.072-0.102-0.123-0.13C38.565,38.224,38.512,38.209,38.455,38.209z M34.07,39.37c-0.11,0-0.217-0.027-0.317-0.082
			c-0.102-0.053-0.189-0.14-0.253-0.255c-0.062-0.111-0.093-0.249-0.093-0.407c0-0.159,0.03-0.296,0.092-0.407
			c0.064-0.115,0.149-0.2,0.254-0.255c0.201-0.107,0.431-0.107,0.631-0.001c0.104,0.056,0.191,0.141,0.255,0.256
			c0.061,0.111,0.093,0.248,0.093,0.407c0,0.158-0.032,0.296-0.094,0.407c-0.063,0.115-0.149,0.202-0.254,0.257
			C34.285,39.343,34.179,39.37,34.07,39.37z M34.07,38.209c-0.057,0-0.11,0.015-0.163,0.041c-0.049,0.028-0.089,0.068-0.124,0.13
			c-0.033,0.061-0.053,0.145-0.053,0.246c0,0.103,0.019,0.187,0.054,0.25c0.035,0.058,0.074,0.1,0.123,0.126
			c0.105,0.055,0.221,0.055,0.323,0c0.051-0.026,0.09-0.068,0.124-0.126c0.035-0.063,0.053-0.147,0.053-0.25
			c0-0.102-0.018-0.186-0.052-0.246c-0.032-0.062-0.074-0.102-0.125-0.13C34.179,38.224,34.124,38.209,34.07,38.209z M15.91,39.37
			c-0.11,0-0.216-0.027-0.317-0.082c-0.103-0.053-0.189-0.14-0.254-0.255c-0.061-0.111-0.093-0.249-0.093-0.407
			c0-0.159,0.033-0.296,0.093-0.407c0.064-0.115,0.15-0.2,0.253-0.255c0.203-0.107,0.433-0.107,0.633-0.001
			c0.104,0.056,0.19,0.141,0.254,0.256c0.061,0.111,0.093,0.248,0.093,0.407c0,0.158-0.032,0.296-0.093,0.407
			c-0.065,0.115-0.151,0.202-0.255,0.257C16.125,39.343,16.019,39.37,15.91,39.37z M15.91,38.209c-0.056,0-0.108,0.015-0.164,0.041
			c-0.049,0.028-0.088,0.068-0.121,0.13c-0.035,0.061-0.053,0.145-0.053,0.246c0,0.103,0.018,0.187,0.053,0.25
			c0.033,0.058,0.073,0.1,0.122,0.126c0.106,0.055,0.219,0.055,0.324,0c0.049-0.026,0.089-0.068,0.124-0.126
			c0.035-0.063,0.052-0.147,0.052-0.25c0-0.102-0.017-0.186-0.052-0.246c-0.033-0.062-0.073-0.102-0.123-0.13
			C16.018,38.224,15.966,38.209,15.91,38.209z M28.464,39.006h-0.458c-0.053,0-0.102-0.023-0.132-0.066
			c-0.029-0.042-0.04-0.094-0.025-0.146l0.231-0.759c0.021-0.069,0.085-0.114,0.157-0.114l0,0c0.072,0,0.135,0.045,0.156,0.114
			l0.229,0.759c0.016,0.052,0.006,0.104-0.025,0.146C28.565,38.982,28.515,39.006,28.464,39.006z M21.875,38.709h-0.154
			c-0.105,0-0.199-0.022-0.28-0.066c-0.079-0.043-0.17-0.136-0.17-0.338c0-0.252,0.168-0.403,0.45-0.403h0.154
			c0.089,0,0.163,0.071,0.163,0.162v0.482C22.039,38.636,21.965,38.709,21.875,38.709z M21.712,38.227
			c-0.117,0.001-0.117,0.03-0.117,0.078c0,0.045,0.009,0.059,0.009,0.059c0.022,0.011,0.06,0.019,0.108,0.019V38.227z
			 M18.293,38.688h-0.16c-0.09,0-0.163-0.072-0.163-0.161v-0.463c0-0.09,0.073-0.162,0.163-0.162h0.16
			c0.275,0,0.439,0.146,0.439,0.393S18.569,38.688,18.293,38.688z M18.295,38.227v0.135c0.112,0,0.112-0.023,0.112-0.067
			C18.407,38.252,18.407,38.227,18.295,38.227z M9.158,38.688H8.996c-0.088,0-0.163-0.072-0.163-0.161v-0.463
			c0-0.09,0.075-0.162,0.163-0.162h0.162c0.274,0,0.438,0.146,0.438,0.393S9.432,38.688,9.158,38.688z M9.161,38.227v0.135
			c0.11,0,0.11-0.023,0.11-0.067C9.271,38.252,9.271,38.227,9.161,38.227z"/>
	</g>
	<path fill="#3578BC" d="M5.105,39.631v-1.528H4.664v-0.48h1.447v0.48H5.668v1.528H5.105L5.105,39.631z M6.619,39.631v-2.009h1.206
		v0.48H7.182v0.282h0.583v0.442H7.182v0.321h0.643v0.482H6.619L6.619,39.631z M8.433,39.631v-2.009h0.848
		c0.166,0,0.305,0.031,0.413,0.094c0.112,0.065,0.191,0.146,0.243,0.25c0.052,0.104,0.077,0.211,0.077,0.328
		s-0.025,0.226-0.077,0.329c-0.052,0.103-0.131,0.187-0.243,0.248c-0.11,0.065-0.247,0.096-0.413,0.096H8.995v0.664H8.433
		L8.433,39.631z M8.995,38.063v0.463h0.162c0.184,0,0.275-0.076,0.275-0.232c0-0.153-0.091-0.23-0.275-0.23H8.995L8.995,38.063z
		 M10.583,37.622h0.543v1.205l0.778-1.205h0.55v2.009h-0.542v-1.206l-0.766,1.206h-0.563V37.622L10.583,37.622z M13.406,39.631
		v-1.528h-0.444v-0.48h1.448v0.48h-0.443v1.528H13.406L13.406,39.631z M15.91,39.69c-0.219,0-0.409-0.048-0.572-0.14
		c-0.165-0.091-0.29-0.219-0.377-0.381c-0.086-0.161-0.13-0.342-0.13-0.544c0-0.203,0.043-0.383,0.13-0.546
		c0.088-0.159,0.212-0.287,0.377-0.379c0.163-0.092,0.354-0.137,0.572-0.137s0.408,0.045,0.573,0.137
		c0.165,0.092,0.29,0.22,0.376,0.379c0.087,0.162,0.129,0.343,0.129,0.546c0,0.153-0.023,0.295-0.075,0.425
		c-0.049,0.129-0.119,0.243-0.214,0.337c-0.093,0.097-0.206,0.17-0.341,0.222C16.224,39.662,16.075,39.69,15.91,39.69L15.91,39.69z
		 M15.91,39.207c0.082,0,0.162-0.021,0.237-0.061c0.076-0.041,0.14-0.105,0.189-0.192c0.05-0.089,0.072-0.196,0.072-0.328
		c0-0.133-0.022-0.241-0.072-0.327c-0.049-0.089-0.111-0.151-0.187-0.193c-0.078-0.042-0.158-0.06-0.239-0.06
		c-0.084,0-0.163,0.018-0.24,0.06s-0.138,0.104-0.188,0.193c-0.048,0.086-0.073,0.194-0.073,0.327c0,0.13,0.025,0.239,0.073,0.328
		c0.05,0.087,0.113,0.151,0.189,0.192C15.747,39.187,15.826,39.207,15.91,39.207L15.91,39.207z M17.57,39.631v-2.009h0.846
		c0.168,0,0.305,0.031,0.415,0.094c0.109,0.065,0.192,0.146,0.241,0.25c0.053,0.104,0.079,0.211,0.079,0.328
		s-0.026,0.226-0.079,0.329c-0.051,0.103-0.132,0.187-0.241,0.248c-0.11,0.065-0.249,0.096-0.415,0.096h-0.283v0.664H17.57
		L17.57,39.631z M18.133,38.063v0.463h0.16c0.185,0,0.276-0.076,0.276-0.232c0-0.153-0.091-0.23-0.276-0.23H18.133L18.133,38.063z
		 M19.717,39.631v-2.009h0.563v2.009H19.717L19.717,39.631z M20.81,39.631l0.543-0.755c-0.064-0.011-0.123-0.03-0.176-0.061
		c-0.054-0.029-0.102-0.067-0.146-0.116c-0.044-0.048-0.077-0.109-0.103-0.178c-0.026-0.068-0.038-0.147-0.038-0.231
		c0-0.208,0.063-0.372,0.189-0.49c0.125-0.12,0.302-0.178,0.535-0.178h0.824v2.009h-0.563v-0.684h-0.053l-0.41,0.684H20.81
		L20.81,39.631z M21.875,38.546v-0.482h-0.154c-0.193,0-0.289,0.08-0.289,0.241c0,0.1,0.028,0.163,0.086,0.195
		c0.056,0.029,0.124,0.047,0.202,0.047L21.875,38.546L21.875,38.546z M25.124,37.622h0.973c0.173,0,0.303,0.029,0.392,0.091
		c0.089,0.062,0.146,0.129,0.171,0.205s0.038,0.146,0.038,0.214c0,0.095-0.028,0.182-0.086,0.258
		c-0.058,0.075-0.134,0.13-0.227,0.161v0.007c0.111,0.024,0.208,0.078,0.295,0.162c0.087,0.08,0.128,0.196,0.128,0.351
		c0,0.106-0.023,0.201-0.075,0.288c-0.051,0.084-0.125,0.151-0.227,0.199c-0.099,0.048-0.217,0.073-0.356,0.073h-1.028
		L25.124,37.622L25.124,37.622z M25.687,38.415h0.235c0.172,0,0.259-0.063,0.259-0.189c0-0.057-0.021-0.104-0.061-0.144
		c-0.039-0.04-0.103-0.058-0.197-0.058h-0.235L25.687,38.415L25.687,38.415z M25.687,39.229h0.258c0.202,0,0.302-0.069,0.302-0.213
		c0-0.084-0.029-0.138-0.086-0.162c-0.057-0.025-0.129-0.037-0.215-0.037h-0.258V39.229L25.687,39.229z M27.178,39.631l0.714-2.009
		h0.684l0.712,2.009h-0.603l-0.11-0.346h-0.684l-0.112,0.346H27.178L27.178,39.631z M28.234,38.083l-0.229,0.76h0.458L28.234,38.083
		L28.234,38.083z M29.756,39.631v-2.009h0.562v1.526h0.482v-1.526h0.563v1.526h0.482v-1.526h0.563v2.009H29.756L29.756,39.631z
		 M34.07,39.69c-0.219,0-0.41-0.048-0.573-0.14c-0.164-0.091-0.291-0.219-0.377-0.381c-0.087-0.161-0.132-0.342-0.132-0.544
		c0-0.203,0.045-0.383,0.132-0.546c0.088-0.159,0.213-0.287,0.377-0.379c0.162-0.092,0.354-0.137,0.573-0.137
		c0.216,0,0.407,0.045,0.573,0.137c0.162,0.092,0.288,0.22,0.376,0.379c0.086,0.162,0.129,0.343,0.129,0.546
		c0,0.153-0.026,0.295-0.075,0.425c-0.049,0.129-0.121,0.243-0.215,0.337c-0.092,0.097-0.207,0.17-0.34,0.222
		C34.384,39.662,34.234,39.69,34.07,39.69L34.07,39.69z M34.07,39.207c0.08,0,0.16-0.021,0.236-0.061
		c0.077-0.041,0.141-0.105,0.19-0.192c0.048-0.089,0.071-0.196,0.071-0.328c0-0.133-0.023-0.241-0.071-0.327
		c-0.05-0.089-0.113-0.151-0.19-0.193c-0.076-0.042-0.156-0.06-0.236-0.06c-0.084,0-0.163,0.018-0.24,0.06s-0.139,0.104-0.188,0.193
		c-0.049,0.086-0.074,0.194-0.074,0.327c0,0.13,0.025,0.239,0.075,0.328c0.048,0.087,0.109,0.151,0.187,0.192
		C33.907,39.187,33.986,39.207,34.07,39.207L34.07,39.207z M35.729,39.631v-2.009h1.206v0.48h-0.643v1.528H35.729L35.729,39.631z
		 M38.455,39.69c-0.218,0-0.407-0.048-0.572-0.14c-0.164-0.091-0.289-0.219-0.377-0.381c-0.087-0.161-0.129-0.342-0.129-0.544
		c0-0.203,0.043-0.383,0.129-0.546c0.089-0.159,0.213-0.287,0.377-0.379s0.354-0.137,0.572-0.137c0.217,0,0.409,0.045,0.574,0.137
		c0.162,0.092,0.288,0.22,0.375,0.379c0.088,0.162,0.131,0.343,0.131,0.546c0,0.153-0.025,0.295-0.075,0.425
		c-0.051,0.129-0.121,0.243-0.214,0.337c-0.093,0.097-0.208,0.17-0.342,0.222C38.77,39.662,38.619,39.69,38.455,39.69L38.455,39.69z
		 M38.455,39.207c0.084,0,0.163-0.021,0.238-0.061c0.076-0.041,0.14-0.105,0.189-0.192c0.049-0.089,0.071-0.196,0.071-0.328
		c0-0.133-0.022-0.241-0.071-0.327c-0.049-0.089-0.113-0.151-0.189-0.193c-0.075-0.042-0.156-0.06-0.238-0.06
		c-0.083,0-0.162,0.018-0.237,0.06c-0.078,0.042-0.14,0.104-0.189,0.193c-0.049,0.086-0.073,0.194-0.073,0.327
		c0,0.13,0.024,0.239,0.074,0.328c0.049,0.087,0.11,0.151,0.188,0.192C38.293,39.187,38.372,39.207,38.455,39.207L38.455,39.207z
		 M42.433,39.631l0.272-0.554l-0.755-1.455h0.662l0.395,0.843l0.32-0.843h0.613l-0.904,2.009H42.433L42.433,39.631z M45.891,39.539
		c-0.146,0.102-0.327,0.151-0.544,0.151c-0.213,0-0.396-0.05-0.551-0.143c-0.157-0.095-0.274-0.223-0.354-0.385
		c-0.08-0.161-0.122-0.343-0.122-0.537c0-0.231,0.05-0.426,0.148-0.585c0.099-0.162,0.227-0.281,0.382-0.359s0.319-0.117,0.49-0.117
		c0.208,0,0.393,0.052,0.55,0.158v0.586c-0.138-0.161-0.297-0.243-0.477-0.243c-0.109,0-0.202,0.026-0.281,0.082
		c-0.076,0.055-0.136,0.124-0.174,0.213c-0.04,0.09-0.06,0.185-0.06,0.282c0,0.11,0.021,0.205,0.066,0.288
		c0.046,0.082,0.106,0.145,0.186,0.191c0.078,0.045,0.165,0.065,0.263,0.065c0.173,0,0.332-0.073,0.478-0.221V39.539L45.891,39.539z
		 M46.479,39.631v-2.009h1.793v2.009H47.71v-1.528h-0.666v1.528H46.479L46.479,39.631z M48.941,39.631v-2.009h0.563v2.009H48.941
		L48.941,39.631z M51.018,38.967l-0.402,0.664h-0.644l0.736-1.057l-0.665-0.952h0.676l0.299,0.542l0.298-0.542h0.639l-0.628,0.924
		l0.734,1.085h-0.662L51.018,38.967L51.018,38.967z M52.829,39.631l0.272-0.554l-0.755-1.455h0.662l0.394,0.843l0.323-0.843h0.611
		l-0.904,2.009H52.829L52.829,39.631z"/>
	<path fill="#3578BC" d="M45.979,34.652c0.015-0.134,0.135-0.244,0.242-0.23c0.124,0.013,0.204,0.137,0.192,0.271
		c-0.027,0.148-0.137,0.271-0.26,0.258C46.032,34.938,45.95,34.803,45.979,34.652L45.979,34.652z M43.171,34.381
		c0.028-0.136,0.124-0.229,0.218-0.216c0.106,0,0.162,0.123,0.135,0.258c-0.028,0.136-0.135,0.216-0.229,0.203
		C43.199,34.626,43.145,34.519,43.171,34.381L43.171,34.381z M44.514,34.519c0.026-0.138,0.136-0.246,0.231-0.231
		c0.123,0.014,0.19,0.135,0.162,0.271c-0.027,0.121-0.136,0.229-0.244,0.215C44.555,34.774,44.487,34.639,44.514,34.519
		L44.514,34.519z M53.353,24.539c0-0.096,0.11-0.191,0.245-0.231c0.136-0.027,0.258,0.026,0.269,0.122
		c0.017,0.109-0.092,0.218-0.241,0.244C53.488,24.703,53.366,24.647,53.353,24.539L53.353,24.539z M53.705,28.973
		c-0.013-0.136,0.123-0.259,0.285-0.272s0.312,0.083,0.325,0.217c0.016,0.137-0.122,0.26-0.284,0.271
		C53.855,29.204,53.719,29.093,53.705,28.973L53.705,28.973z M53.463,25.854c-0.015-0.109,0.107-0.218,0.258-0.244
		c0.135-0.015,0.27,0.04,0.284,0.161c0.014,0.109-0.108,0.217-0.259,0.244C53.598,26.044,53.474,25.964,53.463,25.854L53.463,25.854
		z M42.1,26.938c0.016-0.067,0.096-0.136,0.149-0.149c0.068-0.013,0.108,0.028,0.08,0.096c-0.023,0.081-0.092,0.148-0.161,0.163
		C42.115,27.061,42.073,27.006,42.1,26.938L42.1,26.938z M47.659,34.829c0.014-0.162,0.135-0.271,0.271-0.258
		c0.136,0.014,0.23,0.135,0.217,0.3c-0.015,0.161-0.135,0.283-0.27,0.257C47.74,35.128,47.646,34.979,47.659,34.829L47.659,34.829z
		 M48.092,26.789c0.028-0.258,0.299-0.515,0.583-0.568c0.314-0.055,0.543,0.107,0.516,0.378c-0.013,0.286-0.284,0.544-0.596,0.597
		C48.282,27.249,48.066,27.061,48.092,26.789L48.092,26.789z M45.245,28.442c0.068-0.324,0.353-0.61,0.664-0.663
		c0.311-0.04,0.543,0.177,0.488,0.515c-0.055,0.339-0.366,0.651-0.705,0.679C45.382,29.014,45.178,28.769,45.245,28.442
		L45.245,28.442z M47.957,28.091c0.026-0.284,0.299-0.556,0.61-0.596c0.312-0.055,0.556,0.148,0.528,0.446
		c-0.013,0.299-0.298,0.584-0.623,0.612C48.148,28.593,47.93,28.391,47.957,28.091L47.957,28.091z M45.585,23.454
		c0.013-0.068,0.081-0.136,0.163-0.162c0.068-0.025,0.121,0.014,0.106,0.066c-0.014,0.067-0.08,0.151-0.16,0.164
		C45.625,23.549,45.57,23.509,45.585,23.454L45.585,23.454z M46.601,23.129c0.016-0.067,0.096-0.135,0.178-0.163
		c0.067-0.026,0.122,0,0.122,0.067c-0.014,0.069-0.095,0.149-0.178,0.164C46.643,23.224,46.588,23.197,46.601,23.129L46.601,23.129z
		 M45.477,27.249c0.054-0.297,0.34-0.582,0.637-0.635c0.312-0.056,0.529,0.136,0.477,0.446c-0.057,0.312-0.354,0.61-0.665,0.651
		C45.611,27.766,45.422,27.549,45.477,27.249L45.477,27.249z M46.926,25.908c0.041-0.23,0.286-0.46,0.544-0.527
		c0.259-0.055,0.46,0.08,0.434,0.323c-0.025,0.245-0.286,0.488-0.556,0.544C47.077,26.302,46.9,26.152,46.926,25.908L46.926,25.908z
		 M46.371,29.583c0.042-0.3,0.313-0.557,0.596-0.597c0.3-0.026,0.516,0.202,0.476,0.515c-0.041,0.313-0.324,0.597-0.623,0.61
		C46.52,30.125,46.316,29.894,46.371,29.583L46.371,29.583z M47.673,22.791c0.015-0.068,0.081-0.15,0.176-0.176
		c0.081-0.027,0.149,0.014,0.135,0.081c0,0.067-0.08,0.148-0.176,0.177C47.728,22.899,47.659,22.858,47.673,22.791L47.673,22.791z
		 M46.467,28.281c0.053-0.325,0.365-0.638,0.689-0.691c0.354-0.055,0.611,0.19,0.572,0.529c-0.041,0.352-0.381,0.678-0.733,0.719
		C46.643,28.878,46.411,28.621,46.467,28.281L46.467,28.281z M48.865,22.424c0-0.081,0.082-0.147,0.176-0.189
		c0.097-0.027,0.163,0.014,0.163,0.081c-0.014,0.067-0.095,0.149-0.191,0.177C48.922,22.519,48.852,22.492,48.865,22.424
		L48.865,22.424z M45.096,29.69c0.056-0.283,0.313-0.542,0.57-0.569c0.271-0.028,0.463,0.19,0.407,0.489
		c-0.04,0.297-0.311,0.567-0.596,0.582C45.205,30.206,45.043,29.989,45.096,29.69L45.096,29.69z M45.774,26.152
		c0.053-0.217,0.284-0.448,0.514-0.502c0.245-0.054,0.422,0.081,0.381,0.313c-0.041,0.242-0.271,0.474-0.528,0.528
		C45.896,26.546,45.734,26.383,45.774,26.152L45.774,26.152z M48.228,25.637c0.027-0.243,0.271-0.487,0.556-0.556
		c0.284-0.067,0.516,0.081,0.501,0.325c-0.026,0.259-0.283,0.515-0.582,0.583C48.404,26.044,48.201,25.881,48.228,25.637
		L48.228,25.637z M43.213,28.715c0.054-0.203,0.23-0.379,0.393-0.393c0.176-0.028,0.284,0.107,0.23,0.312
		c-0.055,0.188-0.23,0.38-0.407,0.393C43.253,29.054,43.158,28.904,43.213,28.715L43.213,28.715z M42.913,29.882
		c0.054-0.218,0.231-0.395,0.408-0.407c0.174-0.027,0.284,0.136,0.229,0.353c-0.054,0.217-0.243,0.406-0.419,0.406
		C42.955,30.247,42.86,30.085,42.913,29.882L42.913,29.882z M43.767,26.587c0.043-0.177,0.204-0.339,0.368-0.366
		c0.162-0.041,0.258,0.067,0.229,0.243c-0.054,0.162-0.216,0.339-0.379,0.366C43.821,26.871,43.728,26.75,43.767,26.587
		L43.767,26.587z M47.808,29.46c0.041-0.311,0.313-0.582,0.637-0.622c0.326-0.027,0.584,0.202,0.557,0.528
		c-0.026,0.325-0.326,0.623-0.664,0.638C48.012,30.03,47.767,29.786,47.808,29.46L47.808,29.46z M43.495,27.589
		c0.056-0.176,0.232-0.34,0.395-0.38c0.163-0.027,0.259,0.096,0.218,0.286c-0.04,0.176-0.218,0.353-0.394,0.38
		C43.551,27.902,43.457,27.779,43.495,27.589L43.495,27.589z M43.918,29.786c0.054-0.272,0.296-0.503,0.542-0.529
		c0.243-0.027,0.393,0.178,0.338,0.461c-0.053,0.285-0.311,0.543-0.568,0.556C43.984,30.287,43.85,30.07,43.918,29.786
		L43.918,29.786z M49.761,25.312c0.014-0.202,0.215-0.406,0.461-0.46c0.257-0.054,0.46,0.067,0.448,0.271
		c0,0.204-0.22,0.42-0.476,0.462C49.937,25.637,49.746,25.516,49.761,25.312L49.761,25.312z M46.262,31.061
		c0.026-0.258,0.26-0.476,0.489-0.487c0.243-0.016,0.419,0.189,0.379,0.46c-0.027,0.271-0.258,0.503-0.514,0.503
		C46.385,31.535,46.221,31.318,46.262,31.061L46.262,31.061z M45.015,25.338c0.028-0.16,0.204-0.324,0.367-0.365
		c0.177-0.039,0.284,0.054,0.257,0.218c-0.041,0.163-0.217,0.339-0.378,0.379C45.083,25.61,44.975,25.501,45.015,25.338
		L45.015,25.338z M46.072,25.081c0.041-0.176,0.203-0.338,0.395-0.394c0.176-0.04,0.312,0.055,0.284,0.218
		c-0.028,0.176-0.203,0.352-0.395,0.393C46.167,25.354,46.046,25.244,46.072,25.081L46.072,25.081z M44.936,31.101
		c0.039-0.244,0.255-0.447,0.473-0.461c0.217-0.015,0.366,0.176,0.326,0.433c-0.055,0.259-0.271,0.476-0.488,0.476
		C45.015,31.548,44.88,31.346,44.936,31.101L44.936,31.101z M49.692,26.519c0.015-0.217,0.23-0.435,0.487-0.475
		c0.259-0.055,0.475,0.08,0.463,0.311c0,0.217-0.23,0.448-0.489,0.49C49.883,26.885,49.68,26.734,49.692,26.519L49.692,26.519z
		 M44.689,26.383c0.054-0.218,0.27-0.435,0.488-0.476c0.23-0.054,0.381,0.081,0.325,0.299c-0.041,0.23-0.271,0.461-0.501,0.516
		C44.771,26.762,44.635,26.614,44.689,26.383L44.689,26.383z M43.687,31.143c0.066-0.244,0.258-0.435,0.461-0.448
		c0.189-0.015,0.325,0.177,0.27,0.422c-0.053,0.242-0.258,0.46-0.459,0.46C43.753,31.576,43.634,31.372,43.687,31.143L43.687,31.143
		z M49.625,27.875c0-0.245,0.231-0.462,0.502-0.503s0.503,0.123,0.487,0.367c0,0.244-0.244,0.487-0.516,0.514
		C49.814,28.281,49.611,28.105,49.625,27.875L49.625,27.875z M47.198,24.798c0.026-0.179,0.203-0.354,0.406-0.395
		c0.203-0.055,0.34,0.04,0.325,0.216c-0.026,0.179-0.201,0.354-0.419,0.407C47.307,25.066,47.17,24.973,47.198,24.798L47.198,24.798
		z M46.656,27.049c0.054-0.313,0.353-0.611,0.679-0.665c0.325-0.067,0.568,0.135,0.543,0.446c-0.042,0.326-0.354,0.638-0.707,0.693
		C46.832,27.576,46.616,27.36,46.656,27.049L46.656,27.049z M49.544,29.312c0.013-0.258,0.242-0.489,0.528-0.515
		c0.284-0.027,0.515,0.163,0.515,0.434c-0.014,0.271-0.258,0.515-0.556,0.529C49.746,29.786,49.53,29.583,49.544,29.312
		L49.544,29.312z M47.767,31.005c0.027-0.27,0.258-0.5,0.529-0.515c0.271-0.013,0.475,0.203,0.446,0.488
		c-0.013,0.284-0.257,0.527-0.542,0.527C47.93,31.522,47.74,31.291,47.767,31.005L47.767,31.005z M44.188,28.579
		c0.054-0.258,0.284-0.488,0.529-0.516c0.229-0.041,0.393,0.136,0.338,0.407c-0.054,0.271-0.3,0.503-0.543,0.53
		C44.269,29.026,44.135,28.837,44.188,28.579L44.188,28.579z M44.445,27.427c0.056-0.231,0.286-0.461,0.514-0.501
		c0.231-0.041,0.381,0.107,0.327,0.352c-0.041,0.245-0.284,0.488-0.515,0.529C44.54,27.832,44.393,27.671,44.445,27.427
		L44.445,27.427z M48.458,24.485c0.015-0.177,0.204-0.366,0.421-0.421s0.379,0.041,0.365,0.217c-0.013,0.19-0.201,0.378-0.433,0.435
		C48.595,24.77,48.431,24.659,48.458,24.485L48.458,24.485z M46.343,24.064c0.028-0.108,0.149-0.229,0.271-0.271
		c0.137-0.04,0.231,0.027,0.218,0.136c-0.026,0.122-0.148,0.242-0.284,0.284C46.425,24.255,46.33,24.188,46.343,24.064
		L46.343,24.064z M48.662,23.414c0.013-0.123,0.149-0.245,0.299-0.3c0.148-0.04,0.271,0.015,0.257,0.136
		c0,0.123-0.134,0.259-0.296,0.311C48.771,23.604,48.648,23.537,48.662,23.414L48.662,23.414z M51.469,26.206
		c0-0.162,0.162-0.325,0.379-0.366c0.202-0.041,0.379,0.067,0.393,0.231c0,0.176-0.162,0.339-0.378,0.379
		C51.645,26.479,51.469,26.369,51.469,26.206L51.469,26.206z M47.714,32.782c0.026-0.217,0.203-0.393,0.407-0.393
		c0.205,0,0.366,0.19,0.337,0.421c-0.014,0.229-0.202,0.405-0.406,0.405C47.849,33.202,47.699,33.013,47.714,32.782L47.714,32.782z
		 M53.584,27.36c-0.014-0.123,0.108-0.246,0.259-0.259c0.162-0.027,0.297,0.055,0.31,0.176c0.014,0.122-0.107,0.245-0.27,0.258
		C53.719,27.549,53.598,27.468,53.584,27.36L53.584,27.36z M51.483,27.63c0-0.19,0.176-0.353,0.393-0.381
		c0.218-0.04,0.406,0.083,0.421,0.273c0,0.189-0.177,0.365-0.407,0.394C51.659,27.941,51.483,27.807,51.483,27.63L51.483,27.63z
		 M47.442,23.753c0.015-0.109,0.148-0.231,0.285-0.271c0.149-0.04,0.242,0.014,0.229,0.135c-0.013,0.109-0.149,0.244-0.284,0.286
		C47.522,23.941,47.429,23.875,47.442,23.753L47.442,23.753z M42.305,28.822c0.04-0.135,0.159-0.256,0.284-0.268
		c0.108-0.016,0.175,0.079,0.135,0.215c-0.041,0.148-0.162,0.271-0.286,0.284C42.329,29.067,42.263,28.973,42.305,28.822
		L42.305,28.822z M44.743,32.701c0.026-0.204,0.192-0.368,0.353-0.353c0.163,0,0.271,0.161,0.244,0.366
		c-0.041,0.201-0.202,0.366-0.366,0.366C44.798,33.067,44.703,32.903,44.743,32.701L44.743,32.701z M51.456,24.945
		c0-0.147,0.16-0.298,0.365-0.352c0.202-0.042,0.367,0.04,0.367,0.204c0.014,0.147-0.149,0.311-0.367,0.352
		C51.631,25.19,51.456,25.094,51.456,24.945L51.456,24.945z M42.898,26.776c0.042-0.122,0.15-0.245,0.26-0.271
		c0.108-0.013,0.175,0.054,0.148,0.177c-0.04,0.121-0.162,0.244-0.271,0.257C42.929,26.966,42.873,26.885,42.898,26.776
		L42.898,26.776z M45.313,24.363c0.026-0.108,0.135-0.218,0.257-0.259c0.124-0.04,0.204,0.027,0.178,0.135
		c-0.016,0.108-0.137,0.231-0.271,0.272C45.367,24.539,45.286,24.471,45.313,24.363L45.313,24.363z M51.496,29.148
		c0-0.203,0.175-0.38,0.408-0.393c0.229-0.027,0.434,0.122,0.445,0.324c0,0.203-0.189,0.395-0.435,0.407
		C51.686,29.514,51.496,29.353,51.496,29.148L51.496,29.148z M42.615,27.753c0.041-0.137,0.162-0.258,0.271-0.271
		c0.109-0.015,0.177,0.066,0.135,0.189c-0.025,0.136-0.148,0.257-0.271,0.271C42.644,27.97,42.574,27.875,42.615,27.753
		L42.615,27.753z M46.127,32.74c0.025-0.217,0.202-0.379,0.379-0.379c0.19,0,0.313,0.176,0.284,0.394
		c-0.027,0.218-0.202,0.393-0.393,0.38C46.221,33.135,46.1,32.943,46.127,32.74L46.127,32.74z M43.442,32.66
		c0.053-0.192,0.203-0.339,0.352-0.339c0.15,0,0.23,0.162,0.204,0.352c-0.055,0.19-0.204,0.354-0.353,0.339
		C43.495,33.013,43.401,32.85,43.442,32.66L43.442,32.66z"/>
	<path fill="#EC1C24" d="M29.398,31.688h1.752c0.382,0,0.613,0.057,0.696,0.166c0.106,0.138,0.082,0.431-0.073,0.883
		c-0.153,0.447-0.328,0.74-0.523,0.878c-0.161,0.114-0.436,0.17-0.816,0.17h-1.035l-0.23,0.681h-0.715L29.398,31.688L29.398,31.688z
		 M29.646,33.067h1.032c0.087,0,0.158-0.021,0.216-0.067c0.069-0.05,0.125-0.14,0.168-0.264c0.041-0.123,0.045-0.209,0.012-0.265
		c-0.028-0.045-0.085-0.065-0.169-0.065h-1.034L29.646,33.067L29.646,33.067z M32.806,31.691h0.715l-0.702,2.055h1.625l-0.246,0.72
		h-2.339L32.806,31.691L32.806,31.691z M38.743,31.691l-0.578,1.689c-0.172,0.503-0.371,0.819-0.601,0.947
		c-0.207,0.12-0.628,0.178-1.263,0.178c-0.634,0-1.014-0.058-1.14-0.178c-0.14-0.132-0.123-0.447,0.048-0.947l0.577-1.689h0.716
		l-0.578,1.689c-0.058,0.169-0.054,0.275,0.008,0.322c0.074,0.057,0.277,0.086,0.615,0.086c0.332,0,0.551-0.025,0.657-0.08
		c0.107-0.053,0.189-0.161,0.245-0.328l0.579-1.689H38.743L38.743,31.691z M40.084,33.841c0.346,0,0.547-0.008,0.607-0.02
		c0.057-0.014,0.102-0.063,0.131-0.153c0.035-0.105,0.021-0.173-0.045-0.2c-0.067-0.025-0.253-0.041-0.552-0.041
		c-0.596,0-0.955-0.051-1.075-0.154c-0.121-0.104-0.112-0.36,0.027-0.77c0.13-0.378,0.314-0.62,0.554-0.726
		c0.183-0.08,0.544-0.122,1.082-0.122c0.479,0,0.777,0.017,0.895,0.047c0.277,0.072,0.322,0.379,0.14,0.917h-0.716
		c0.049-0.147,0.053-0.233,0.007-0.258c-0.047-0.025-0.229-0.039-0.551-0.039c-0.324,0-0.513,0.009-0.567,0.022
		c-0.054,0.014-0.097,0.066-0.128,0.157c-0.032,0.097-0.012,0.159,0.063,0.187c0.074,0.028,0.243,0.044,0.507,0.044
		c0.588,0,0.95,0.055,1.083,0.167c0.131,0.11,0.128,0.368-0.008,0.768c-0.127,0.371-0.305,0.608-0.529,0.713
		c-0.195,0.087-0.581,0.132-1.157,0.132c-0.445,0-0.729-0.012-0.854-0.036c-0.193-0.035-0.302-0.121-0.329-0.255
		c-0.028-0.133,0.013-0.365,0.125-0.692h0.716c-0.053,0.155-0.057,0.245-0.009,0.272C39.551,33.827,39.743,33.841,40.084,33.841
		L40.084,33.841z"/>
	<path fill="#3578BC" d="M38.702,26.073h2.476l0.783,4.679h-1.686l-0.188-0.779h-2.857l-0.702,0.779h-1.683L38.702,26.073
		L38.702,26.073z M39.705,27.128h-0.224l-1.317,1.633h1.777L39.705,27.128L39.705,27.128z M31.493,27.278l0.398-1.211h5.579
		l-0.399,1.211h-2.064l-1.141,3.474h-1.442l1.142-3.474H31.493L31.493,27.278z M30.96,28.413c-0.374,1.141-0.738,1.823-1.085,2.045
		c-0.375,0.239-1.312,0.36-2.806,0.36c-1.09,0-1.796-0.041-2.11-0.118c-0.396-0.101-0.595-0.319-0.599-0.655
		c-0.001-0.259,0.133-0.802,0.407-1.633c0.373-1.14,0.732-1.822,1.077-2.044c0.377-0.246,1.313-0.367,2.808-0.367
		c1.49,0,2.343,0.119,2.561,0.359C31.42,26.589,31.333,27.273,30.96,28.413L30.96,28.413z M26.208,28.413
		c-0.198,0.598-0.243,0.946-0.138,1.046c0.105,0.099,0.572,0.147,1.396,0.147c0.833,0,1.331-0.049,1.502-0.147
		c0.168-0.099,0.352-0.447,0.55-1.046c0.197-0.604,0.245-0.954,0.137-1.053c-0.105-0.098-0.57-0.146-1.396-0.146
		c-0.83,0-1.331,0.049-1.5,0.146C26.59,27.459,26.406,27.81,26.208,28.413L26.208,28.413z M19.876,28.879h2.496
		c0.136,0,0.231,0.026,0.285,0.082c0.054,0.054,0.057,0.156,0.008,0.304c-0.079,0.235-0.257,0.354-0.536,0.354H19.63L19.876,28.879
		L19.876,28.879z M19.355,26.067l-1.541,4.685h4.36c0.515,0,0.917-0.099,1.204-0.294c0.287-0.197,0.509-0.532,0.663-1.003
		c0.181-0.547,0.086-0.916-0.284-1.109c0.156-0.061,0.307-0.173,0.453-0.34c0.146-0.165,0.26-0.372,0.34-0.616
		c0.181-0.554,0.154-0.932-0.089-1.128c-0.16-0.131-0.468-0.194-0.917-0.194H19.355L19.355,26.067z M20.425,27.2h2.557
		c0.118,0,0.2,0.023,0.245,0.073c0.046,0.048,0.049,0.127,0.012,0.241c-0.035,0.109-0.093,0.188-0.174,0.238
		c-0.079,0.053-0.176,0.076-0.29,0.076h-2.557L20.425,27.2L20.425,27.2z M14.194,26.073h2.477l0.783,4.679h-1.686l-0.189-0.779
		h-2.857l-0.702,0.779h-1.685L14.194,26.073L14.194,26.073z M15.197,27.128h-0.223l-1.315,1.633h1.775L15.197,27.128L15.197,27.128z
		 M6.129,26.067h4.194c0.515,0,0.85,0.092,1.003,0.279c0.163,0.206,0.161,0.566-0.009,1.082c-0.132,0.402-0.278,0.701-0.438,0.894
		c-0.16,0.192-0.374,0.335-0.647,0.432c0.226,0.114,0.361,0.228,0.409,0.341s0.023,0.316-0.072,0.609l-0.345,1.048H8.783
		l0.276-0.838c0.04-0.123,0.041-0.225,0.002-0.308c-0.047-0.109-0.153-0.165-0.319-0.165H6.461l-0.43,1.311H4.589L6.129,26.067
		L6.129,26.067z M7.172,27.278L6.86,28.229h2.314c0.158,0,0.281-0.033,0.372-0.102c0.089-0.067,0.164-0.192,0.223-0.371
		c0.06-0.179,0.065-0.304,0.018-0.373c-0.049-0.07-0.148-0.105-0.301-0.105H7.172L7.172,27.278z"/>
	<path fill="#3578BC" d="M6.852,45.369L6.425,46.68h-0.65l-1.02-2.513h0.894l0.474,1.347l0.418-1.347h0.623l0.417,1.347l0.475-1.347
		H8.95L7.93,46.68H7.278L6.852,45.369L6.852,45.369z M10.935,45.369l-0.428,1.311H9.856l-1.021-2.513h0.896l0.474,1.347l0.417-1.347
		h0.623l0.418,1.347l0.473-1.347h0.896l-1.021,2.513h-0.65L10.935,45.369L10.935,45.369z M15.017,45.369l-0.428,1.311h-0.651
		l-1.019-2.513h0.895l0.473,1.347l0.418-1.347h0.623l0.418,1.347l0.474-1.347h0.894l-1.02,2.513h-0.649L15.017,45.369L15.017,45.369
		z M17.384,46.242c0-0.147,0.053-0.273,0.159-0.375c0.105-0.104,0.23-0.153,0.373-0.153s0.267,0.05,0.372,0.153
		c0.105,0.102,0.159,0.229,0.159,0.375c0,0.097-0.024,0.187-0.073,0.269c-0.048,0.079-0.114,0.146-0.194,0.192
		c-0.082,0.049-0.17,0.072-0.264,0.072s-0.184-0.023-0.264-0.072c-0.082-0.046-0.147-0.113-0.195-0.192
		C17.407,46.429,17.384,46.339,17.384,46.242L17.384,46.242z M19.941,44.494c0.094-0.135,0.207-0.231,0.335-0.294
		c0.128-0.062,0.254-0.092,0.378-0.092c0.059,0,0.136,0.009,0.234,0.021v0.802c-0.058-0.028-0.136-0.042-0.234-0.042
		c-0.201,0-0.352,0.049-0.453,0.148c-0.099,0.098-0.161,0.201-0.187,0.304c-0.023,0.105-0.037,0.193-0.037,0.267v1.071h-0.911
		v-2.514h0.875V44.494L19.941,44.494z M23.077,44.473v-0.306h0.875v2.513h-0.875v-0.297c-0.209,0.263-0.484,0.393-0.824,0.393
		c-0.241,0-0.452-0.063-0.628-0.187c-0.178-0.123-0.312-0.288-0.406-0.494c-0.091-0.21-0.137-0.433-0.137-0.676
		c0-0.221,0.04-0.434,0.122-0.642c0.081-0.205,0.209-0.373,0.386-0.508c0.179-0.133,0.398-0.197,0.663-0.197
		c0.167,0,0.316,0.028,0.448,0.086C22.835,44.217,22.958,44.321,23.077,44.473L23.077,44.473z M22.564,46.024
		c0.161,0,0.293-0.053,0.395-0.163c0.102-0.108,0.152-0.255,0.152-0.442c0-0.119-0.022-0.225-0.069-0.315
		c-0.046-0.089-0.11-0.16-0.195-0.21c-0.084-0.048-0.177-0.071-0.282-0.071c-0.175,0-0.311,0.06-0.403,0.178
		c-0.092,0.12-0.139,0.26-0.139,0.419c0,0.17,0.047,0.312,0.14,0.432C22.255,45.967,22.39,46.024,22.564,46.024L22.564,46.024z
		 M25.41,46.383v0.297h-0.875v-3.825h0.912v1.57c0.122-0.132,0.242-0.223,0.36-0.274c0.118-0.052,0.261-0.078,0.43-0.078
		c0.236,0,0.443,0.058,0.621,0.171c0.177,0.116,0.314,0.276,0.408,0.481c0.096,0.206,0.143,0.437,0.143,0.694
		c0,0.243-0.047,0.47-0.141,0.676c-0.093,0.208-0.229,0.372-0.406,0.495c-0.179,0.123-0.384,0.186-0.625,0.186
		C25.902,46.775,25.625,46.646,25.41,46.383L25.41,46.383z M25.917,46.024c0.162,0,0.295-0.053,0.395-0.162
		c0.102-0.108,0.154-0.256,0.154-0.443c0-0.119-0.023-0.225-0.071-0.315c-0.046-0.089-0.111-0.16-0.194-0.208
		c-0.083-0.05-0.18-0.073-0.284-0.073c-0.131,0-0.239,0.031-0.321,0.093c-0.082,0.065-0.14,0.144-0.174,0.233
		c-0.033,0.093-0.051,0.182-0.051,0.271c0,0.092,0.018,0.182,0.051,0.276c0.034,0.09,0.092,0.17,0.174,0.233
		C25.678,45.993,25.786,46.024,25.917,46.024L25.917,46.024z M29.224,46.775c-0.322,0-0.596-0.059-0.824-0.177
		c-0.227-0.116-0.396-0.278-0.51-0.482s-0.171-0.438-0.171-0.695c0-0.189,0.033-0.364,0.094-0.527
		c0.06-0.161,0.157-0.305,0.282-0.429c0.127-0.123,0.286-0.22,0.476-0.29c0.19-0.068,0.408-0.103,0.654-0.103
		s0.464,0.034,0.655,0.103c0.19,0.07,0.348,0.167,0.472,0.288c0.126,0.125,0.22,0.268,0.284,0.431
		c0.062,0.163,0.093,0.34,0.093,0.527c0,0.188-0.031,0.365-0.093,0.529c-0.064,0.164-0.158,0.308-0.285,0.431
		c-0.124,0.125-0.282,0.222-0.473,0.291C29.688,46.74,29.47,46.775,29.224,46.775L29.224,46.775z M29.224,46.118
		c0.164,0,0.288-0.045,0.373-0.139c0.083-0.091,0.136-0.19,0.157-0.291c0.021-0.102,0.032-0.192,0.032-0.268
		c0-0.206-0.049-0.372-0.146-0.501c-0.098-0.128-0.235-0.192-0.417-0.192s-0.322,0.063-0.418,0.191
		c-0.095,0.127-0.145,0.294-0.145,0.502c0,0.076,0.011,0.166,0.032,0.268c0.021,0.101,0.074,0.2,0.158,0.291
		C28.934,46.073,29.059,46.118,29.224,46.118L29.224,46.118z M31.252,46.68v-1.855h-0.33v-0.657h0.33v-0.693h0.909v0.693h0.511
		v0.657h-0.511v1.855H31.252L31.252,46.68z M34.857,44.473v-0.306h0.875v2.513h-0.875v-0.297c-0.207,0.263-0.482,0.393-0.822,0.393
		c-0.241,0-0.451-0.063-0.628-0.187c-0.179-0.123-0.313-0.288-0.406-0.494c-0.092-0.21-0.138-0.433-0.138-0.676
		c0-0.221,0.042-0.434,0.123-0.642c0.08-0.205,0.21-0.373,0.387-0.508c0.178-0.133,0.398-0.197,0.662-0.197
		c0.165,0,0.316,0.028,0.446,0.086C34.617,44.217,34.741,44.321,34.857,44.473L34.857,44.473z M34.346,46.024
		c0.162,0,0.295-0.053,0.396-0.163c0.102-0.108,0.152-0.255,0.152-0.442c0-0.119-0.022-0.225-0.069-0.315
		c-0.046-0.089-0.111-0.16-0.194-0.21c-0.085-0.048-0.18-0.071-0.284-0.071c-0.175,0-0.31,0.06-0.402,0.178
		c-0.092,0.12-0.139,0.26-0.139,0.419c0,0.17,0.047,0.312,0.14,0.432C34.037,45.967,34.171,46.024,34.346,46.024L34.346,46.024z
		 M37.192,44.167v0.307c0.113-0.143,0.235-0.242,0.364-0.307c0.125-0.063,0.281-0.095,0.462-0.095c0.236,0,0.443,0.058,0.62,0.171
		c0.178,0.116,0.314,0.276,0.407,0.481c0.097,0.206,0.144,0.437,0.144,0.694c0,0.243-0.047,0.47-0.141,0.676
		c-0.095,0.208-0.23,0.372-0.407,0.495c-0.178,0.123-0.385,0.186-0.623,0.186c-0.314,0-0.579-0.118-0.792-0.351v1.35h-0.911v-3.607
		H37.192L37.192,44.167z M37.7,46.024c0.161,0,0.293-0.053,0.396-0.162c0.1-0.108,0.149-0.256,0.149-0.443
		c0-0.119-0.021-0.225-0.068-0.315c-0.047-0.089-0.109-0.16-0.194-0.208c-0.083-0.05-0.179-0.073-0.283-0.073
		c-0.131,0-0.239,0.031-0.321,0.093c-0.082,0.065-0.14,0.144-0.174,0.233c-0.033,0.093-0.05,0.182-0.05,0.271
		c0,0.092,0.017,0.182,0.05,0.276c0.034,0.09,0.092,0.17,0.174,0.233C37.461,45.993,37.569,46.024,37.7,46.024L37.7,46.024z
		 M39.637,46.68v-3.825h0.911v3.825H39.637L39.637,46.68z M41.098,44.167h0.911v1.374c0,0.128,0.021,0.242,0.071,0.339
		c0.049,0.097,0.158,0.145,0.328,0.145c0.171,0,0.279-0.048,0.328-0.145s0.074-0.211,0.074-0.339v-1.374h0.91v1.355
		c0,0.182-0.027,0.364-0.084,0.547c-0.055,0.183-0.181,0.345-0.375,0.489c-0.195,0.144-0.479,0.217-0.854,0.217
		c-0.373,0-0.656-0.073-0.853-0.219c-0.195-0.143-0.318-0.308-0.375-0.49c-0.056-0.185-0.083-0.366-0.083-0.544V44.167
		L41.098,44.167z M44.084,46.523l0.256-0.63c0.241,0.158,0.475,0.234,0.703,0.234c0.101,0,0.173-0.02,0.209-0.059
		c0.037-0.04,0.057-0.079,0.057-0.118c0-0.109-0.098-0.18-0.293-0.207c-0.279-0.045-0.49-0.125-0.632-0.237
		c-0.145-0.116-0.215-0.297-0.215-0.548c0-0.146,0.03-0.286,0.095-0.42c0.063-0.134,0.171-0.247,0.324-0.334
		c0.155-0.089,0.358-0.133,0.609-0.133c0.347,0,0.675,0.071,0.984,0.218l-0.287,0.585c-0.198-0.135-0.393-0.204-0.577-0.204
		c-0.186,0-0.275,0.073-0.275,0.215c0,0.058,0.022,0.107,0.067,0.143c0.046,0.038,0.15,0.066,0.313,0.087
		c0.201,0.018,0.383,0.078,0.549,0.179c0.165,0.104,0.247,0.299,0.247,0.586c0,0.259-0.089,0.475-0.264,0.647
		c-0.176,0.171-0.459,0.259-0.85,0.259C44.694,46.784,44.354,46.696,44.084,46.523L44.084,46.523z M46.729,46.242
		c0-0.147,0.053-0.273,0.157-0.375c0.106-0.104,0.229-0.153,0.373-0.153s0.268,0.05,0.373,0.153
		c0.106,0.102,0.159,0.229,0.159,0.375c0,0.097-0.025,0.187-0.073,0.269c-0.048,0.079-0.114,0.146-0.194,0.192
		c-0.083,0.049-0.171,0.072-0.265,0.072c-0.095,0-0.183-0.023-0.265-0.072c-0.081-0.046-0.146-0.113-0.194-0.192
		C46.754,46.429,46.729,46.339,46.729,46.242L46.729,46.242z M48.375,44.167h0.911v1.374c0,0.128,0.023,0.242,0.073,0.339
		c0.049,0.097,0.157,0.145,0.329,0.145c0.168,0,0.278-0.048,0.326-0.145s0.073-0.211,0.073-0.339v-1.374h0.911v1.355
		c0,0.182-0.027,0.364-0.083,0.547c-0.055,0.183-0.18,0.345-0.374,0.489c-0.196,0.144-0.479,0.217-0.854,0.217
		s-0.657-0.073-0.854-0.219c-0.194-0.143-0.319-0.308-0.376-0.49c-0.054-0.185-0.084-0.366-0.084-0.544V44.167L48.375,44.167z
		 M53.404,44.473v-0.306h0.875v2.513h-0.875v-0.297c-0.209,0.263-0.484,0.393-0.823,0.393c-0.241,0-0.451-0.063-0.629-0.187
		c-0.177-0.123-0.313-0.288-0.404-0.494c-0.092-0.21-0.138-0.433-0.138-0.676c0-0.221,0.04-0.434,0.123-0.642
		c0.079-0.205,0.208-0.373,0.387-0.508c0.177-0.133,0.398-0.197,0.661-0.197c0.166,0,0.315,0.028,0.449,0.086
		C53.164,44.217,53.288,44.321,53.404,44.473L53.404,44.473z M52.893,46.024c0.162,0,0.294-0.053,0.396-0.163
		c0.102-0.108,0.151-0.255,0.151-0.442c0-0.119-0.021-0.225-0.07-0.315c-0.045-0.089-0.109-0.16-0.194-0.21
		c-0.083-0.048-0.178-0.071-0.282-0.071c-0.176,0-0.311,0.06-0.403,0.178c-0.092,0.12-0.138,0.26-0.138,0.419
		c0,0.17,0.046,0.312,0.141,0.432C52.582,45.967,52.719,46.024,52.893,46.024L52.893,46.024z"/>
	<g>
		<rect x="4.686" y="41.183" fill="#EC1C24" width="49.606" height="0.218"/>
	</g>
</g>
</svg>
