<?xml version="1.0" encoding="utf-8"?>
<!-- Generator: Adobe Illustrator 16.0.3, SVG Export Plug-In . SVG Version: 6.00 Build 0)  -->
<!DOCTYPE svg PUBLIC "-//W3C//DTD SVG 1.1//EN" "http://www.w3.org/Graphics/SVG/1.1/DTD/svg11.dtd">
<svg version="1.1" id="Layer_1" xmlns="http://www.w3.org/2000/svg" xmlns:xlink="http://www.w3.org/1999/xlink" x="0px" y="0px"
	 width="70px" height="70px" viewBox="0 0 70 70" enable-background="new 0 0 70 70" xml:space="preserve">
<rect fill="#FFFFFF" width="70" height="70"/>
<g>
	<path fill="#1E0E00" d="M57.038,38.833c0,0.579-0.004,1.184,0.264,1.711c0.162,0.335,0.493,0.574,0.86,0.628
		c0.593,0.095,1.187-0.086,1.74-0.28c0.031,0.199,0.062,0.396,0.098,0.593c-0.681,0.222-1.408,0.402-2.126,0.257
		c-0.46-0.086-0.879-0.377-1.111-0.784c-0.33-0.56-0.396-1.229-0.4-1.865c-0.002-1.211,0.002-2.419,0.002-3.628h-1.557v-0.559h1.557
		v-2.072h0.674v2.072h2.681v0.559h-2.681V38.833z"/>
	<path fill="#1E0E00" d="M25.492,34.912c0.839-0.205,1.739-0.192,2.563,0.076c0.439,0.158,0.881,0.405,1.13,0.819
		c0.147,0.223,0.192,0.493,0.216,0.757c-0.208-0.012-0.418-0.012-0.627-0.002c0.012-0.412-0.29-0.759-0.647-0.925
		c-0.709-0.338-1.536-0.364-2.296-0.211c-0.402,0.101-0.825,0.252-1.094,0.586c-0.222,0.265-0.247,0.647-0.154,0.97
		c0.097,0.296,0.365,0.493,0.643,0.608c0.509,0.212,1.066,0.251,1.609,0.303c0.669,0.097,1.364,0.181,1.963,0.515
		c0.354,0.188,0.637,0.515,0.735,0.908c0.13,0.55,0.046,1.18-0.339,1.613c-0.452,0.519-1.143,0.748-1.804,0.845
		c-0.883,0.108-1.824,0.04-2.62-0.386c-0.579-0.307-0.994-0.902-1.046-1.558c0.216-0.002,0.433-0.002,0.648,0
		c0.064,0.442,0.349,0.83,0.739,1.048c0.714,0.394,1.576,0.456,2.368,0.303c0.432-0.098,0.878-0.262,1.182-0.603
		c0.373-0.403,0.376-1.094-0.002-1.495c-0.232-0.243-0.562-0.354-0.879-0.438c-0.922-0.21-1.894-0.177-2.787-0.516
		c-0.405-0.153-0.801-0.423-0.964-0.842c-0.19-0.481-0.134-1.053,0.128-1.497C24.448,35.319,24.971,35.049,25.492,34.912"/>
	<path fill="#1E0E00" d="M31.551,36.032c0.409-0.658,1.11-1.114,1.876-1.229c0.678-0.11,1.432-0.02,1.987,0.415
		c0.332,0.252,0.547,0.625,0.687,1.011c0.293-0.652,0.883-1.167,1.582-1.338c0.771-0.2,1.672-0.216,2.344,0.271
		c0.692,0.513,0.967,1.408,0.986,2.238c0.007,1.421,0,2.847,0.002,4.269h-0.69c0-1.402,0.002-2.808,0-4.21
		c-0.008-0.59-0.133-1.234-0.566-1.664c-0.366-0.376-0.928-0.475-1.431-0.417c-0.577,0.054-1.128,0.358-1.478,0.821
		c-0.34,0.438-0.503,0.997-0.498,1.548v3.922h-0.66c0-1.344,0.003-2.691,0-4.038c-0.013-0.596-0.117-1.229-0.502-1.705
		c-0.259-0.326-0.661-0.512-1.069-0.549c-0.631-0.057-1.305,0.094-1.79,0.518c-0.497,0.428-0.734,1.097-0.736,1.741
		c-0.005,1.345,0,2.689-0.002,4.033c-0.224,0-0.449,0-0.674,0v-4.917c-0.024-0.396,0.056-0.899-0.286-1.187
		c-0.171-0.107-0.384-0.081-0.576-0.06c-0.003-0.197-0.014-0.395-0.024-0.593c0.388-0.059,0.83-0.101,1.164,0.148
		C31.487,35.288,31.551,35.687,31.551,36.032"/>
	<path fill="#1E0E00" d="M42.849,38.967L42.849,38.967c-0.268,0.521-0.199,1.206,0.184,1.653c0.31,0.349,0.776,0.52,1.23,0.566
		c0.652,0.059,1.325-0.071,1.904-0.383c0.479-0.262,0.872-0.714,0.993-1.253c0.016-0.305,0-0.607,0.008-0.911
		c-0.862-0.459-1.863-0.712-2.842-0.59C43.742,38.143,43.137,38.426,42.849,38.967 M42.546,35.308
		c0.846-0.448,1.827-0.603,2.776-0.549c0.686,0.046,1.401,0.243,1.904,0.732c0.4,0.386,0.589,0.951,0.584,1.498
		c0,1.111-0.011,2.225-0.011,3.336c0.003,0.266-0.009,0.552,0.135,0.786c0.171,0.215,0.479,0.185,0.725,0.163
		c0.005,0.153,0.015,0.306,0.024,0.461c-0.391,0.059-0.878,0.108-1.177-0.205c-0.243-0.303-0.233-0.72-0.229-1.088
		c-0.357,0.648-1.036,1.054-1.743,1.21c-0.719,0.161-1.5,0.206-2.188-0.093c-0.593-0.238-1.101-0.729-1.259-1.357
		c-0.164-0.684,0.015-1.452,0.503-1.968c0.466-0.487,1.138-0.723,1.797-0.767c0.954-0.051,1.929,0.135,2.78,0.579
		c-0.037-0.583,0.1-1.206-0.153-1.755c-0.267-0.562-0.899-0.813-1.48-0.896c-0.959-0.124-1.979,0.001-2.831,0.476
		C42.651,35.684,42.6,35.495,42.546,35.308"/>
	<path fill="#1E0E00" d="M50.783,35.793c0.315-0.534,0.872-0.914,1.487-1c0.793-0.11,1.644,0.034,2.307,0.501
		c-0.082,0.192-0.163,0.386-0.231,0.583c-0.534-0.362-1.201-0.514-1.841-0.438c-0.667,0.083-1.304,0.515-1.556,1.149
		c-0.15,0.345-0.141,0.729-0.137,1.1v3.979H50.14c-0.001-1.758,0-3.514-0.001-5.271c-0.005-0.256,0.01-0.537-0.146-0.757
		c-0.176-0.204-0.473-0.176-0.715-0.153c-0.024-0.19-0.027-0.382-0.036-0.573c0.395-0.049,0.837-0.121,1.196,0.098
		C50.705,35.171,50.783,35.503,50.783,35.793"/>
	<g opacity="0.9">
		<g>
			<defs>
				<rect id="SVGID_1_" x="14.139" y="28.18" width="6.006" height="8.615"/>
			</defs>
			<clipPath id="SVGID_2_">
				<use xlink:href="#SVGID_1_"  overflow="visible"/>
			</clipPath>
			<g clip-path="url(#SVGID_2_)">
				<defs>
					<path id="SVGID_3_" d="M20.016,34.707v-0.488c-0.802-2.03-2.327-4.222-4.009-5.908C14.303,34.02,18.11,36.678,20.016,34.707"/>
				</defs>
				<clipPath id="SVGID_4_">
					<use xlink:href="#SVGID_3_"  overflow="visible"/>
				</clipPath>
				<g clip-path="url(#SVGID_4_)">
					<g>
						<defs>
							<rect id="SVGID_5_" x="14.108" y="28.05" width="6.05" height="8.749"/>
						</defs>
						<clipPath id="SVGID_6_">
							<use xlink:href="#SVGID_5_"  overflow="visible"/>
						</clipPath>
						<g clip-path="url(#SVGID_6_)">
							<defs>
								<rect id="SVGID_7_" x="14.108" y="28.05" width="6.05" height="8.749"/>
							</defs>
							<clipPath id="SVGID_8_">
								<use xlink:href="#SVGID_7_"  overflow="visible"/>
							</clipPath>
							<g clip-path="url(#SVGID_8_)">
								
									<image overflow="visible" width="26" height="37" xlink:href="49B92101.jpg"  transform="matrix(0.24 0 0 0.24 14.1084 28.0498)">
								</image>
							</g>
						</g>
					</g>
				</g>
			</g>
		</g>
	</g>
	<g>
		<g>
			<defs>
				<rect id="SVGID_9_" x="15.54" y="28.494" width="4.594" height="7.357"/>
			</defs>
			<clipPath id="SVGID_10_">
				<use xlink:href="#SVGID_9_"  overflow="visible"/>
			</clipPath>
			<g clip-path="url(#SVGID_10_)">
				<defs>
					<path id="SVGID_11_" d="M17.057,31.891v0.257c0.037,1.294,0.645,2.205,1.411,2.532h1.279c0.088-0.037,0.173-0.081,0.259-0.133
						v-1.016c-0.298-1.626-0.993-3.412-1.867-4.909C17.398,29.845,17.083,30.957,17.057,31.891"/>
				</defs>
				<clipPath id="SVGID_12_">
					<use xlink:href="#SVGID_11_"  overflow="visible"/>
				</clipPath>
				<g clip-path="url(#SVGID_12_)">
					<g>
						<defs>
							<rect id="SVGID_13_" x="15.584" y="27.105" width="4.508" height="7.371"/>
						</defs>
						<clipPath id="SVGID_14_">
							<use xlink:href="#SVGID_13_"  overflow="visible"/>
						</clipPath>
						<g clip-path="url(#SVGID_14_)">
							<defs>
								<rect id="SVGID_15_" x="15.584" y="27.105" width="4.508" height="7.37"/>
							</defs>
							<clipPath id="SVGID_16_">
								<use xlink:href="#SVGID_15_"  overflow="visible"/>
							</clipPath>
							<g clip-path="url(#SVGID_16_)">
								
									<image overflow="visible" width="19" height="31" xlink:href="49B92103.jpg"  transform="matrix(0.24 0 0 0.24 15.584 27.1055)">
								</image>
							</g>
						</g>
					</g>
				</g>
			</g>
		</g>
	</g>
	<g>
		<defs>
			<path id="SVGID_17_" d="M21.589,32.044c-0.187,0.012-0.595,0.122-0.935,0.308c-0.466,0.257-0.904,0.663-1.309,1.166
				c-1.352,1.683-2.347,4.445-2.941,6.283l0.392-0.066c0.568-0.136,1.562-0.261,2.536-0.674c1.847-0.785,3.139-1.97,1.616-3.864
				c-0.268-0.335-0.498-0.765-0.498-1.447c0-0.908,0.442-1.658,1.199-1.701c-0.003-0.001-0.007-0.003-0.012-0.003H21.589z"/>
		</defs>
		<clipPath id="SVGID_18_">
			<use xlink:href="#SVGID_17_"  overflow="visible"/>
		</clipPath>
		<g clip-path="url(#SVGID_18_)">
			<g>
				<defs>
					<rect id="SVGID_19_" x="15.574" y="31.908" width="6.952" height="8.906"/>
				</defs>
				<clipPath id="SVGID_20_">
					<use xlink:href="#SVGID_19_"  overflow="visible"/>
				</clipPath>
				<g clip-path="url(#SVGID_20_)">
					<defs>
						<rect id="SVGID_21_" x="15.574" y="31.908" width="6.952" height="8.906"/>
					</defs>
					<clipPath id="SVGID_22_">
						<use xlink:href="#SVGID_21_"  overflow="visible"/>
					</clipPath>
					<g transform="matrix(1 0 0 1 -9.536743e-007 0)" clip-path="url(#SVGID_22_)">
						
							<image overflow="visible" width="29" height="38" xlink:href="49B92106.jpg"  transform="matrix(0.24 0 0 0.24 15.5742 31.9077)">
						</image>
					</g>
				</g>
			</g>
		</g>
	</g>
	<g>
		<defs>
			<path id="SVGID_23_" d="M21.675,32.044c-0.011,0-0.023,0-0.033,0.002c0.002,0.001,0.005,0.001,0.007,0.001
				c-0.756,0.042-1.199,0.792-1.199,1.701c0,0.682,0.23,1.112,0.498,1.447c0.698,0.869,0.805,1.589,0.536,2.188h0.02
				c0.377-0.654,0.346-1.624,0.321-2.368c-0.035-1.042,0.159-1.94,2.9-2.215c0.491-0.05,0.999-0.083,1.478-0.122v-0.011
				c-0.553,0-2.708,0-2.708-0.002c-0.427,0.003-0.71-0.28-1.108-0.46c-0.218-0.099-0.422-0.151-0.608-0.16H21.675z"/>
		</defs>
		<clipPath id="SVGID_24_">
			<use xlink:href="#SVGID_23_"  overflow="visible"/>
		</clipPath>
		<g clip-path="url(#SVGID_24_)">
			<g>
				<defs>
					<rect id="SVGID_25_" x="20.474" y="32.065" width="5.753" height="5.34"/>
				</defs>
				<clipPath id="SVGID_26_">
					<use xlink:href="#SVGID_25_"  overflow="visible"/>
				</clipPath>
				<g clip-path="url(#SVGID_26_)">
					<defs>
						<rect id="SVGID_27_" x="20.474" y="32.066" width="5.753" height="5.339"/>
					</defs>
					<clipPath id="SVGID_28_">
						<use xlink:href="#SVGID_27_"  overflow="visible"/>
					</clipPath>
					<g clip-path="url(#SVGID_28_)">
						
							<image overflow="visible" width="24" height="23" xlink:href="49B92107.jpg"  transform="matrix(0.24 0 0 0.24 20.4741 32.0659)">
						</image>
					</g>
				</g>
			</g>
		</g>
	</g>
	<g opacity="0.9">
		<g>
			<defs>
				<rect id="SVGID_29_" x="11.072" y="29.858" width="8.388" height="7.933"/>
			</defs>
			<clipPath id="SVGID_30_">
				<use xlink:href="#SVGID_29_"  overflow="visible"/>
			</clipPath>
			<g clip-path="url(#SVGID_30_)">
				<defs>
					<path id="SVGID_31_" d="M11.199,29.987c1.572,7.023,7.044,7.748,8.131,4.746v-0.597c-2.1-1.789-5.183-3.311-8.123-4.149H11.199
						z"/>
				</defs>
				<clipPath id="SVGID_32_">
					<use xlink:href="#SVGID_31_"  overflow="visible"/>
				</clipPath>
				<g clip-path="url(#SVGID_32_)">
					<g>
						<defs>
							<rect id="SVGID_33_" x="10.813" y="29.848" width="8.643" height="7.946"/>
						</defs>
						<clipPath id="SVGID_34_">
							<use xlink:href="#SVGID_33_"  overflow="visible"/>
						</clipPath>
						<g clip-path="url(#SVGID_34_)">
							<defs>
								<rect id="SVGID_35_" x="10.813" y="29.849" width="8.643" height="7.945"/>
							</defs>
							<clipPath id="SVGID_36_">
								<use xlink:href="#SVGID_35_"  overflow="visible"/>
							</clipPath>
							<g clip-path="url(#SVGID_36_)">
								
									<image overflow="visible" width="37" height="34" xlink:href="49B92102.jpg"  transform="matrix(0.24 0 0 0.24 10.8125 29.8486)">
								</image>
							</g>
						</g>
					</g>
				</g>
			</g>
		</g>
	</g>
	<g>
		<g>
			<defs>
				<rect id="SVGID_37_" x="11.349" y="33.008" width="8.661" height="6.682"/>
			</defs>
			<clipPath id="SVGID_38_">
				<use xlink:href="#SVGID_37_"  overflow="visible"/>
			</clipPath>
			<g clip-path="url(#SVGID_38_)">
				<defs>
					<path id="SVGID_39_" d="M11.476,33.351c2.996,6.338,8.535,4.332,7.987,0.907l-0.003-0.012c-1.958-0.672-3.69-1.028-5.721-1.028
						C13.028,33.218,12.28,33.262,11.476,33.351"/>
				</defs>
				<clipPath id="SVGID_40_">
					<use xlink:href="#SVGID_39_"  overflow="visible"/>
				</clipPath>
				<g clip-path="url(#SVGID_40_)">
					<g>
						<defs>
							<rect id="SVGID_41_" x="10.81" y="33.109" width="9.227" height="6.602"/>
						</defs>
						<clipPath id="SVGID_42_">
							<use xlink:href="#SVGID_41_"  overflow="visible"/>
						</clipPath>
						<g clip-path="url(#SVGID_42_)">
							<defs>
								<rect id="SVGID_43_" x="10.81" y="33.109" width="9.227" height="6.602"/>
							</defs>
							<clipPath id="SVGID_44_">
								<use xlink:href="#SVGID_43_"  overflow="visible"/>
							</clipPath>
							<g clip-path="url(#SVGID_44_)">
								
									<image overflow="visible" width="39" height="28" xlink:href="49B9210D.jpg"  transform="matrix(0.24 0 0 0.24 10.8096 33.1089)">
								</image>
							</g>
						</g>
					</g>
				</g>
			</g>
		</g>
	</g>
	<g>
		<g>
			<defs>
				<rect id="SVGID_45_" x="10" y="34.097" width="11.14" height="7.271"/>
			</defs>
			<clipPath id="SVGID_46_">
				<use xlink:href="#SVGID_45_"  overflow="visible"/>
			</clipPath>
			<g clip-path="url(#SVGID_46_)">
				<defs>
					<path id="SVGID_47_" d="M11.549,35.667c4.682,5.222,9.407,1.594,7.914-1.409l-0.007-0.012c-0.344-0.013-0.68-0.02-1.009-0.02
						C16.104,34.227,14.073,34.603,11.549,35.667"/>
				</defs>
				<clipPath id="SVGID_48_">
					<use xlink:href="#SVGID_47_"  overflow="visible"/>
				</clipPath>
				<g clip-path="url(#SVGID_48_)">
					<g>
						<defs>
							<rect id="SVGID_49_" x="11.074" y="34.1" width="9.898" height="6.804"/>
						</defs>
						<clipPath id="SVGID_50_">
							<use xlink:href="#SVGID_49_"  overflow="visible"/>
						</clipPath>
						<g clip-path="url(#SVGID_50_)">
							<defs>
								<rect id="SVGID_51_" x="11.074" y="34.1" width="9.898" height="6.804"/>
							</defs>
							<clipPath id="SVGID_52_">
								<use xlink:href="#SVGID_51_"  overflow="visible"/>
							</clipPath>
							<g clip-path="url(#SVGID_52_)">
								
									<image overflow="visible" width="42" height="29" xlink:href="49B9210E.jpg"  transform="matrix(0.24 0 0 0.24 11.0737 34.1001)">
								</image>
							</g>
						</g>
					</g>
				</g>
			</g>
		</g>
	</g>
</g>
</svg>
