<?xml version="1.0" encoding="utf-8"?>
<!-- Generator: Adobe Illustrator 16.0.3, SVG Export Plug-In . SVG Version: 6.00 Build 0)  -->
<!DOCTYPE svg PUBLIC "-//W3C//DTD SVG 1.1//EN" "http://www.w3.org/Graphics/SVG/1.1/DTD/svg11.dtd">
<svg version="1.1" id="Layer_1" xmlns="http://www.w3.org/2000/svg" xmlns:xlink="http://www.w3.org/1999/xlink" x="0px" y="0px"
	 width="70px" height="70px" viewBox="38 0 70 70" enable-background="new 38 0 70 70" xml:space="preserve">
<rect x="38" fill="#FFFFFF" width="70" height="70"/>
<g>
	<g>
		<g>
			
				<linearGradient id="SVGID_1_" gradientUnits="userSpaceOnUse" x1="-649.8071" y1="1516.3916" x2="-649.8071" y2="1505.4911" gradientTransform="matrix(1 0 0 -1 702.9697 1545.9746)">
				<stop  offset="0" style="stop-color:#008053"/>
				<stop  offset="0.6" style="stop-color:#7FCAAD"/>
				<stop  offset="1" style="stop-color:#00A66D"/>
			</linearGradient>
			<rect x="48" y="29.837" fill="url(#SVGID_1_)" width="10.325" height="10.326"/>
			
				<linearGradient id="SVGID_2_" gradientUnits="userSpaceOnUse" x1="-649.8228" y1="1518.7021" x2="-649.8228" y2="1506.4543" gradientTransform="matrix(1 0 0 -1 702.9697 1545.9746)">
				<stop  offset="0" style="stop-color:#00A66D"/>
				<stop  offset="0.3" style="stop-color:#7FCAAD"/>
				<stop  offset="0.55" style="stop-color:#00A66D"/>
				<stop  offset="0.8352" style="stop-color:#008053"/>
				<stop  offset="0.8861" style="stop-color:#00895C"/>
				<stop  offset="0.969" style="stop-color:#00A173"/>
				<stop  offset="1" style="stop-color:#00AC7D"/>
			</linearGradient>
			<path fill="url(#SVGID_2_)" d="M58.006,35.06c0,2.154,0.1,4.361,0.1,4.361c-0.004,0.248-0.163,0.406-0.361,0.406h-8.938
				c-0.199,0-0.338-0.178-0.361-0.406c0,0-0.257-1.884-0.257-4.764c0-2.878,0.257-4.233,0.257-4.233
				c0.03-0.236,0.163-0.405,0.361-0.405h8.938c0.199,0,0.366,0.186,0.361,0.405C58.106,30.424,58.006,32.904,58.006,35.06z"/>
			<g>
				<g>
					
						<linearGradient id="SVGID_3_" gradientUnits="userSpaceOnUse" x1="-647.8608" y1="1507.1289" x2="-647.8608" y2="1515.0579" gradientTransform="matrix(1 0 0 -1 702.9697 1545.9746)">
						<stop  offset="0" style="stop-color:#00B286"/>
						<stop  offset="1" style="stop-color:#00A66D"/>
					</linearGradient>
					<path fill="url(#SVGID_3_)" d="M56.018,32.625c-0.638,0.374-0.833,0.404-1.527,0.82l0.035-0.077
						c0.362-0.396,0.522-0.563,0.76-0.914c-0.641,0.034-1.568,0.11-2.232,0.258l0,0l0,0l0,0l0.034-0.072
						c0.603-0.292,1.721-0.584,2.291-0.658c-0.138-0.196-1.271-0.81-1.555-0.927l0,0l0,0l0,0l0.034-0.072
						c0.858,0.097,1.995,0.499,2.492,0.803c0.21-0.066,0.423-0.072,0.812-0.105c0,0-0.057,0.234-0.48,0.524l0,0l0,0l0,0
						c0.105,0.28-0.147,1.838-0.355,2.252l0,0l0,0l0,0C56.318,33.804,56.26,32.982,56.018,32.625z"/>
					
						<linearGradient id="SVGID_4_" gradientUnits="userSpaceOnUse" x1="-652.7788" y1="1507.1309" x2="-652.7788" y2="1515.0577" gradientTransform="matrix(1 0 0 -1 702.9697 1545.9746)">
						<stop  offset="0" style="stop-color:#00B286"/>
						<stop  offset="1" style="stop-color:#00A66D"/>
					</linearGradient>
					<path fill="url(#SVGID_4_)" d="M51.353,38.207l0.033-0.072c-0.34-0.131-0.679-0.234-0.953-0.493l0,0l0,0l0,0l0,0l0,0l0,0l0,0
						l0,0l0,0l0,0l0,0l0,0l0,0l0,0l0,0l0,0l0,0l0,0l0,0l0,0l0,0l0,0l0,0l0,0l0,0l0,0l0,0l0,0l0,0l0,0l0,0
						c0.086-0.241,0.185-0.428,0.346-0.667l0,0l0,0l0,0l0,0l0,0l0,0l0,0l0,0l0,0l0,0l0,0l0,0l0,0l0,0l0,0l0,0l0,0l0,0l0,0l0,0l0,0
						l0,0l0,0l0,0l0,0l0,0l0,0l0,0l0,0l0,0l0,0l0.034-0.073c-0.291,0.044-0.556,0.15-0.808,0.2l0,0l0,0l0,0l0,0l0,0l0,0l0,0l0,0l0,0
						l0,0l0,0l0,0l0,0l0,0l0,0l0,0l0,0l0,0l0,0l0,0l0,0l0,0l0,0l0,0l0,0l0,0l0,0l0,0l0,0l0,0l0,0
						c-0.198-0.349-0.275-0.828-0.375-1.282l-0.035,0.072l0,0l0,0l0,0l0,0l0,0l0,0l0,0l0,0l0,0l0,0l0,0l0,0l0,0l0,0l0,0
						c-0.056,0.52-0.078,0.891-0.004,1.306l0,0l0,0l0,0l0,0l0,0l0,0l0,0l0,0l0,0l0,0l0,0l0,0l0,0l0,0l0,0l0,0l0,0l0,0l0,0l0,0l0,0
						l0,0l0,0l0,0l0,0l0,0l0,0l0,0l0,0l0,0l0,0c-0.21,0.058-0.395,0.065-0.563,0.137l-0.032,0.072l0,0l0,0l0,0l0,0l0,0l0,0l0,0l0,0
						l0,0l0,0l0,0l0,0l0,0l0,0l0,0l0,0l0,0l0,0l0,0l0,0l0,0l0,0l0,0l0,0l0,0l0,0l0,0l0,0l0,0l0,0l0,0
						c0.268,0.166,0.487,0.293,0.792,0.436l0,0l0,0l0,0l0,0l0,0l0,0l0,0l0,0l0,0l0,0l0,0l0,0l0,0l0,0l0,0l0,0l0,0l0,0l0,0l0,0l0,0
						l0,0l0,0l0,0l0,0l0,0l0,0l0,0l0,0l0,0l0,0c0.163,0.35,0.332,0.586,0.604,0.854l0,0l0,0l0,0l0,0l0,0l0,0l0,0l0,0l0,0l0,0l0,0
						l0,0l0,0l0,0l0,0l0,0l0,0l0,0l0,0l0,0l0,0l0,0l0,0l0,0l0,0l0,0l0,0l0,0l0,0l0,0l0,0l0.033-0.071
						c-0.049-0.2-0.113-0.364-0.089-0.581l0,0l0,0l0,0l0,0l0,0l0,0l0,0l0,0l0,0l0,0l0,0l0,0l0,0l0,0l0,0l0,0l0,0l0,0l0,0l0,0l0,0
						l0,0l0,0l0,0l0,0l0,0l0,0l0,0l0,0l0,0l0,0C50.676,38.144,50.966,38.195,51.353,38.207z"/>
					
						<linearGradient id="SVGID_5_" gradientUnits="userSpaceOnUse" x1="-651.2471" y1="1507.1338" x2="-651.2471" y2="1515.0553" gradientTransform="matrix(1 0 0 -1 702.9697 1545.9746)">
						<stop  offset="0" style="stop-color:#00B286"/>
						<stop  offset="1" style="stop-color:#00A66D"/>
					</linearGradient>
					<path fill="url(#SVGID_5_)" d="M52.294,33.021c0,0-0.136,0.242-0.245,0.563h-0.026l0,0l0,0c0.794,0.107,1.546,0.43,1.734,0.541
						l-0.034,0.07l0,0l0,0l0,0l0,0l0,0l0,0l0,0c-0.825-0.145-1.259-0.129-1.566-0.102l0,0l0,0l0,0
						c-0.307,0.031-0.37,0.068-0.37,0.068l0,0l0,0l0,0l0,0l0,0l0,0l0,0c-0.177,0.387-0.281,1.019-0.322,1.252l-0.034,0.072l0,0l0,0
						l0,0l0,0l0,0l0,0l0,0c-0.152-0.362-0.369-1.088-0.369-1.088l0,0l0,0l0,0l0,0l0,0l0,0l0,0c-0.416,0.224-1.374,1.124-1.374,1.124
						l0,0l0,0l0,0l0,0l0,0l0,0l0,0c0.529-1.054,1.063-1.535,1.063-1.535l0,0l0,0l0,0l0,0l0,0l0,0l0,0
						c-0.186-0.186-0.667-0.279-1.018-0.295l0,0l0,0l0,0l0.033-0.071c0.221-0.064,0.676-0.092,0.98-0.105l0,0l0,0l0,0l0,0l0,0l0,0
						l0,0c0.362-0.012,0.579,0.01,0.579,0.01l0,0l0,0l0,0C51.646,33.27,52.126,33.045,52.294,33.021z"/>
					
						<linearGradient id="SVGID_6_" gradientUnits="userSpaceOnUse" x1="-649.9224" y1="1507.1318" x2="-649.9224" y2="1515.0588" gradientTransform="matrix(1 0 0 -1 702.9697 1545.9746)">
						<stop  offset="0" style="stop-color:#00B286"/>
						<stop  offset="1" style="stop-color:#00A66D"/>
					</linearGradient>
					<path fill="url(#SVGID_6_)" d="M53.306,37.553c-0.167,0.227-0.309,0.403-0.493,0.61l0,0l0,0l0,0l0,0l0,0l0,0l0,0l0,0l0,0l0,0
						l0,0l0,0l0,0l0,0l0,0l0,0l0,0l0,0l0,0l0,0l0,0l0,0l0,0l0,0l0,0l0,0l0,0l0,0l0,0l0,0l0,0c-0.271,0.075-0.598,0.041-0.848,0.05
						l-0.033,0.072l0,0l0,0l0,0l0,0l0,0l0,0l0,0l0,0l0,0l0,0l0,0l0,0l0,0l0,0l0,0l0,0l0,0l0,0l0,0l0,0l0,0l0,0l0,0l0,0l0,0l0,0l0,0
						l0,0l0,0l0,0l0,0c0.188,0.098,0.374,0.157,0.571,0.198l0,0l0,0l0,0l0,0l0,0l0,0l0,0l0,0l0,0l0,0l0,0l0,0l0,0l0,0l0,0l0,0l0,0
						l0,0l0,0l0,0l0,0l0,0l0,0l0,0l0,0l0,0l0,0l0,0l0,0l0,0l0,0c-0.16,0.146-0.375,0.256-0.525,0.358l-0.034,0.07l0,0l0,0l0,0l0,0
						l0,0l0,0l0,0l0,0l0,0l0,0l0,0l0,0l0,0l0,0l0,0l0,0l0,0l0,0l0,0l0,0l0,0l0,0l0,0l0,0l0,0l0,0l0,0l0,0l0,0l0,0l0,0
						c0.323-0.076,0.748-0.213,1.063-0.398l0,0l0,0l0,0l0,0l0,0l0,0l0,0l0,0l0,0l0,0l0,0l0,0l0,0l0,0l0,0l0,0l0,0l0,0l0,0l0,0l0,0
						l0,0l0,0l0,0l0,0l0,0l0,0l0,0l0,0l0,0l0,0c0.165,0.007,0.319-0.005,0.432-0.027l0,0l0,0l0,0l0,0l0,0l0,0l0,0l0,0l0,0l0,0l0,0
						l0,0l0,0l0,0l0,0l0,0l0,0l0,0l0,0l0,0l0,0l0,0l0,0l0,0l0,0l0,0l0,0l0,0l0,0l0,0l0,0c0,0,0.034-0.073,0.034-0.071
						c-0.021-0.073-0.085-0.118-0.104-0.22l0,0l0,0l0,0l0,0l0,0l0,0l0,0l0,0l0,0l0,0l0,0l0,0l0,0l0,0l0,0l0,0l0,0l0,0l0,0l0,0l0,0
						l0,0l0,0l0,0l0,0l0,0l0,0l0,0l0,0l0,0l0,0c0.296-0.23,0.511-0.439,0.76-0.689l0,0l0,0l0,0l0,0l0,0l0,0l0,0l0,0l0,0l0,0l0,0l0,0
						l0,0l0,0l0,0l0,0l0,0l0,0l0,0l0,0l0,0l0,0l0,0l0,0l0,0l0,0l0,0l0,0l0,0l0,0l0,0l0.035-0.072
						c-0.245,0.169-0.542,0.401-0.829,0.538l0,0l0,0l0,0l0,0l0,0l0,0l0,0l0,0l0,0l0,0l0,0l0,0l0,0l0,0l0,0l0,0l0,0l0,0l0,0l0,0l0,0
						l0,0l0,0l0,0l0,0l0,0l0,0l0,0l0,0l0,0l0,0C53.323,37.831,53.313,37.71,53.306,37.553z"/>
				</g>
				<g>
					<path fill="#FFFFFF" d="M56.051,32.553c-0.637,0.374-0.833,0.406-1.525,0.82c0.403-0.438,0.542-0.624,0.793-0.99
						c-0.639,0.034-1.567,0.111-2.23,0.257l0,0l0,0l0,0c0.578-0.308,1.722-0.65,2.326-0.731c-0.14-0.193-1.274-0.808-1.556-0.926
						l0,0l0,0l0,0c0.897,0.07,1.994,0.405,2.525,0.73c0.209-0.065,0.426-0.068,0.815-0.103l0,0l0,0l0,0
						c-0.098,0.17-0.102,0.268-0.484,0.522l0,0l0,0l0,0c0.106,0.282-0.147,1.838-0.355,2.251l0,0l0,0l0,0
						C56.351,33.731,56.294,32.91,56.051,32.553z"/>
					<path fill="#FFFFFF" d="M51.386,38.135c-0.367-0.136-0.63-0.294-0.921-0.565l0,0l0,0l0,0l0,0l0,0l0,0l0,0l0,0l0,0l0,0l0,0l0,0
						l0,0l0,0l0,0l0,0l0,0l0,0l0,0l0,0l0,0l0,0l0,0l0,0l0,0l0,0l0,0l0,0l0,0l0,0l0,0c0.086-0.239,0.186-0.427,0.348-0.668l0,0l0,0
						l0,0l0,0l0,0l0,0l0,0l0,0l0,0l0,0l0,0l0,0l0,0l0,0l0,0l0,0l0,0l0,0l0,0l0,0l0,0l0,0l0,0l0,0l0,0l0,0l0,0l0,0l0,0l0,0l0,0
						c-0.298,0.045-0.518,0.079-0.774,0.127l0,0l0,0l0,0l0,0l0,0l0,0l0,0l0,0l0,0l0,0l0,0l0,0l0,0l0,0l0,0l0,0l0,0l0,0l0,0l0,0l0,0
						l0,0l0,0l0,0l0,0l0,0l0,0l0,0l0,0l0,0l0,0c-0.208-0.365-0.303-0.718-0.408-1.209l0,0l0,0l0,0l0,0l0,0l0,0l0,0l0,0l0,0l0,0l0,0
						l0,0l0,0l0,0l0,0c-0.057,0.52-0.079,0.892-0.006,1.307l0,0l0,0l0,0l0,0l0,0l0,0l0,0l0,0l0,0l0,0l0,0l0,0l0,0l0,0l0,0l0,0l0,0
						l0,0l0,0l0,0l0,0l0,0l0,0l0,0l0,0l0,0l0,0l0,0l0,0l0,0l0,0c-0.234,0.064-0.402,0.122-0.595,0.209l0,0l0,0l0,0l0,0l0,0l0,0l0,0
						l0,0l0,0l0,0l0,0l0,0l0,0l0,0l0,0l0,0l0,0l0,0l0,0l0,0l0,0l0,0l0,0l0,0l0,0l0,0l0,0l0,0l0,0l0,0l0,0
						c0.271,0.166,0.491,0.294,0.793,0.436l0,0l0,0l0,0l0,0l0,0l0,0l0,0l0,0l0,0l0,0l0,0l0,0l0,0l0,0l0,0l0,0l0,0l0,0l0,0l0,0l0,0
						l0,0l0,0l0,0l0,0l0,0l0,0l0,0l0,0l0,0l0,0c0.164,0.35,0.331,0.585,0.604,0.854l0,0l0,0l0,0l0,0l0,0l0,0l0,0l0,0l0,0l0,0l0,0
						l0,0l0,0l0,0l0,0l0,0l0,0l0,0l0,0l0,0l0,0l0,0l0,0l0,0l0,0l0,0l0,0l0,0l0,0l0,0l0,0c-0.063-0.229-0.08-0.412-0.054-0.652l0,0
						l0,0l0,0l0,0l0,0l0,0l0,0l0,0l0,0l0,0l0,0l0,0l0,0l0,0l0,0l0,0l0,0l0,0l0,0l0,0l0,0l0,0l0,0l0,0l0,0l0,0l0,0l0,0l0,0l0,0l0,0
						C50.71,38.072,51,38.122,51.386,38.135z"/>
					<path fill="#FFFFFF" d="M52.338,32.959L52.338,32.959L52.338,32.959L52.338,32.959L52.338,32.959
						c-0.113,0.148-0.246,0.424-0.282,0.553l0,0l0,0l0,0c0.944,0.129,1.701,0.613,1.701,0.613l0,0l0,0l0,0l0,0l0,0l0,0l0,0
						c-0.825-0.146-1.26-0.129-1.569-0.102l0,0l0,0l0,0c-0.306,0.029-0.368,0.065-0.368,0.065l0,0l0,0l0,0l0,0l0,0l0,0l0,0
						c-0.222,0.487-0.355,1.325-0.355,1.325l0,0l0,0l0,0l0,0l0,0l0,0l0,0c-0.15-0.361-0.368-1.086-0.368-1.086l0,0l0,0l0,0l0,0l0,0
						l0,0l0,0c-0.417,0.222-1.374,1.122-1.374,1.122l0,0l0,0l0,0l0,0l0,0l0,0l0,0c0.526-1.054,1.062-1.533,1.062-1.533l0,0l0,0l0,0
						l0,0l0,0l0,0l0,0c-0.184-0.187-0.667-0.28-1.019-0.296l0,0l0,0l0,0c0.183-0.074,0.653-0.162,1.014-0.179l0,0l0,0l0,0l0,0l0,0
						l0,0l0,0c0.361-0.01,0.58,0.011,0.58,0.011l0,0l0,0l0,0C51.681,33.198,52.17,32.984,52.338,32.959z"/>
					<path fill="#FFFFFF" d="M53.339,37.48c-0.166,0.228-0.309,0.404-0.494,0.61l0,0l0,0l0,0l0,0l0,0l0,0l0,0l0,0l0,0l0,0l0,0l0,0
						l0,0l0,0l0,0l0,0l0,0l0,0l0,0l0,0l0,0l0,0l0,0l0,0l0,0l0,0l0,0l0,0l0,0l0,0l0,0c-0.317,0.09-0.57,0.122-0.88,0.122l0,0l0,0l0,0
						l0,0l0,0l0,0l0,0l0,0l0,0l0,0l0,0l0,0l0,0l0,0l0,0l0,0l0,0l0,0l0,0l0,0l0,0l0,0l0,0l0,0l0,0l0,0l0,0l0,0l0,0l0,0l0,0
						c0.189,0.099,0.373,0.157,0.571,0.199l0,0l0,0l0,0l0,0l0,0l0,0l0,0l0,0l0,0l0,0l0,0l0,0l0,0l0,0l0,0l0,0l0,0l0,0l0,0l0,0l0,0
						l0,0l0,0l0,0l0,0l0,0l0,0l0,0l0,0l0,0l0,0c-0.198,0.18-0.365,0.307-0.558,0.429l0,0l0,0l0,0l0,0l0,0l0,0l0,0l0,0l0,0l0,0l0,0
						l0,0l0,0l0,0l0,0l0,0l0,0l0,0l0,0l0,0l0,0l0,0l0,0l0,0l0,0l0,0l0,0l0,0l0,0l0,0l0,0c0.322-0.076,0.747-0.213,1.063-0.399l0,0
						l0,0l0,0l0,0l0,0l0,0l0,0l0,0l0,0l0,0l0,0l0,0l0,0l0,0l0,0l0,0l0,0l0,0l0,0l0,0l0,0l0,0l0,0l0,0l0,0l0,0l0,0l0,0l0,0l0,0l0,0
						c0.165,0.007,0.32-0.005,0.432-0.027l0,0l0,0l0,0l0,0l0,0l0,0l0,0l0,0l0,0l0,0l0,0l0,0l0,0l0,0l0,0l0,0l0,0l0,0l0,0l0,0l0,0
						l0,0l0,0l0,0l0,0l0,0l0,0l0,0l0,0l0,0l0,0c-0.028-0.096-0.048-0.167-0.071-0.292l0,0l0,0l0,0l0,0l0,0l0,0l0,0l0,0l0,0l0,0l0,0
						l0,0l0,0l0,0l0,0l0,0l0,0l0,0l0,0l0,0l0,0l0,0l0,0l0,0l0,0l0,0l0,0l0,0l0,0l0,0l0,0c0.298-0.229,0.513-0.438,0.761-0.688l0,0
						l0,0l0,0l0,0l0,0l0,0l0,0l0,0l0,0l0,0l0,0l0,0l0,0l0,0l0,0l0,0l0,0l0,0l0,0l0,0l0,0l0,0l0,0l0,0l0,0l0,0l0,0l0,0l0,0l0,0l0,0
						c-0.263,0.184-0.491,0.321-0.796,0.466l0,0l0,0l0,0l0,0l0,0l0,0l0,0l0,0l0,0l0,0l0,0l0,0l0,0l0,0l0,0l0,0l0,0l0,0l0,0l0,0l0,0
						l0,0l0,0l0,0l0,0l0,0l0,0l0,0l0,0l0,0l0,0C53.354,37.76,53.346,37.639,53.339,37.48z"/>
				</g>
			</g>
		</g>
	</g>
	<g>
		<g>
			<g>
				<g>
					<path fill="#231F20" d="M62.01,36.789c0.342,0,0.718,0.123,0.718,0.439c0,0.171-0.149,0.325-0.368,0.402
						c0.292,0.105,0.46,0.273,0.46,0.494c0,0.384-0.468,0.515-0.907,0.515h-1.005c0.024-0.239,0.032-0.587,0.032-0.972
						c0-0.254-0.004-0.639-0.029-0.879H62.01z M61.728,37.023c-0.089,0-0.178,0.007-0.222,0.013
						c-0.009,0.24-0.013,0.357-0.013,0.632c0,0.334,0,0.457,0.013,0.722h0.268c0.315,0,0.467-0.094,0.467-0.285
						c0-0.213-0.195-0.313-0.452-0.313h-0.156l0.107-0.277h0.113c0.131,0,0.305-0.068,0.305-0.237
						C62.158,37.098,61.997,37.023,61.728,37.023z"/>
					<path fill="#231F20" d="M64.86,36.789c-0.019,0.209-0.029,0.697-0.029,0.879c0,0.167,0.004,0.718,0.029,0.972h-0.437
						l-0.701-1.034c-0.058-0.081-0.098-0.16-0.116-0.254v0.588c0,0.222,0.007,0.539,0.027,0.7h-0.499
						c0.031-0.28,0.035-0.811,0.035-0.972c0-0.176-0.009-0.67-0.023-0.879h0.566l0.591,0.961c0.031,0.049,0.041,0.072,0.054,0.113
						v-1.074H64.86z"/>
					<path fill="#231F20" d="M66.208,36.789c0.402,0,0.886,0.113,0.886,0.542c0,0.379-0.343,0.566-1.04,0.566
						c-0.042,0-0.154,0-0.185-0.003c0.012,0.258,0.009,0.569,0.027,0.745h-0.608c0.024-0.254,0.031-0.673,0.031-0.972
						c0-0.264-0.007-0.704-0.031-0.879H66.208z M65.875,37.046c0,0.121-0.005,0.246-0.005,0.365c0,0.089,0.004,0.157,0.005,0.222
						c0.022,0.005,0.118,0.005,0.179,0.005c0.195,0,0.467-0.056,0.467-0.307c0-0.243-0.279-0.288-0.488-0.288
						C66.006,37.043,65.903,37.043,65.875,37.046z"/>
					<path fill="#231F20" d="M69.008,36.789c0.403,0,0.887,0.113,0.887,0.542c0,0.379-0.343,0.566-1.04,0.566
						c-0.042,0-0.155,0-0.186-0.003c0.014,0.258,0.011,0.569,0.028,0.745H68.09c0.023-0.254,0.03-0.673,0.03-0.972
						c0-0.264-0.007-0.704-0.03-0.879H69.008z M68.677,37.046c0,0.121-0.007,0.246-0.007,0.365c0,0.089,0.003,0.157,0.007,0.222
						c0.021,0.005,0.117,0.005,0.179,0.005c0.194,0,0.467-0.056,0.467-0.307c0-0.243-0.279-0.288-0.488-0.288
						C68.807,37.043,68.705,37.043,68.677,37.046z"/>
					<path fill="#231F20" d="M70.975,36.789c0.069,0.219,0.679,1.552,0.82,1.851h-0.607c-0.025-0.073-0.072-0.172-0.162-0.405
						c-0.093-0.004-0.189-0.004-0.316-0.004c-0.123,0-0.212,0.004-0.312,0.008c-0.056,0.15-0.103,0.271-0.148,0.401h-0.528
						c0.103-0.23,0.71-1.555,0.82-1.851H70.975z M70.923,37.953c-0.072-0.178-0.171-0.401-0.22-0.556
						c-0.05,0.157-0.161,0.401-0.215,0.556c0.068,0.003,0.161,0.008,0.222,0.008C70.797,37.961,70.841,37.956,70.923,37.953z"/>
					<path fill="#231F20" d="M72.931,36.789c0.405,0,0.889,0.145,0.889,0.573c0,0.23-0.171,0.396-0.44,0.501
						c0.057,0.098,0.505,0.681,0.595,0.776h-0.663c-0.118-0.223-0.341-0.608-0.559-0.934c0.263,0.034,0.494-0.093,0.494-0.347
						c0-0.244-0.283-0.316-0.42-0.316c-0.061,0-0.178,0-0.219,0.003c-0.011,0.228-0.015,0.499-0.015,0.622
						c0,0.161,0,0.691,0.032,0.972h-0.618c0.03-0.275,0.038-0.601,0.038-0.972c0-0.313-0.004-0.689-0.031-0.879H72.931z"/>
					<path fill="#231F20" d="M74.826,36.789c-0.013,0.209-0.023,0.703-0.023,0.883c0,0.163,0,0.713,0.023,0.968h-0.61
						c0.031-0.28,0.035-0.811,0.035-0.968c0-0.175-0.011-0.674-0.024-0.883H74.826z"/>
					<path fill="#231F20" d="M76.327,36.789c0.343,0,0.716,0.123,0.716,0.439c0,0.171-0.146,0.325-0.367,0.402
						c0.293,0.105,0.46,0.273,0.46,0.494c0,0.384-0.466,0.515-0.906,0.515h-1.005c0.023-0.239,0.031-0.587,0.031-0.972
						c0-0.254-0.004-0.639-0.028-0.879H76.327z M76.046,37.023c-0.09,0-0.18,0.007-0.223,0.013c-0.011,0.24-0.015,0.357-0.015,0.632
						c0,0.334,0,0.457,0.015,0.722h0.266c0.316,0,0.468-0.094,0.468-0.285c0-0.213-0.195-0.313-0.454-0.313h-0.153l0.105-0.277
						h0.113c0.131,0,0.307-0.068,0.307-0.237C76.475,37.098,76.313,37.023,76.046,37.023z"/>
					<path fill="#231F20" d="M78.458,36.789c0.069,0.219,0.68,1.552,0.82,1.851h-0.606c-0.024-0.073-0.071-0.172-0.163-0.405
						c-0.093-0.004-0.188-0.004-0.315-0.004c-0.122,0-0.212,0.004-0.312,0.008c-0.056,0.15-0.104,0.271-0.148,0.401h-0.529
						c0.104-0.23,0.712-1.555,0.822-1.851H78.458z M78.407,37.953c-0.072-0.178-0.172-0.401-0.221-0.556
						c-0.051,0.157-0.16,0.401-0.216,0.556c0.068,0.003,0.161,0.008,0.223,0.008C78.279,37.961,78.324,37.956,78.407,37.953z"/>
					<path fill="#231F20" d="M80.233,36.742c0.236,0,0.466,0.034,0.61,0.078v0.472c-0.203-0.118-0.401-0.218-0.667-0.218
						c-0.208,0-0.222,0.083-0.222,0.145c0,0.313,1.054,0.315,1.054,0.875c0,0.364-0.34,0.595-0.905,0.595
						c-0.254,0-0.495-0.052-0.66-0.11v-0.449c0.389,0.182,0.594,0.239,0.771,0.239c0.146,0,0.251-0.064,0.251-0.188
						c0-0.353-1.05-0.318-1.05-0.92C79.416,36.93,79.745,36.742,80.233,36.742z"/>
					<path fill="#231F20" d="M84,37.74c-0.01,0.182-0.021,0.567-0.026,0.786c-0.199,0.103-0.513,0.161-0.813,0.161
						c-0.688,0-1.127-0.433-1.127-0.965c0-0.56,0.461-0.981,1.212-0.981c0.172,0,0.429,0.027,0.61,0.071l-0.134,0.365
						c-0.126-0.08-0.339-0.145-0.483-0.145c-0.433,0-0.587,0.384-0.587,0.693c0,0.519,0.278,0.687,0.591,0.687
						c0.037,0,0.157-0.004,0.194-0.013c0-0.225-0.003-0.509-0.02-0.66H84z"/>
					<path fill="#231F20" d="M85.28,36.789c0.405,0,0.889,0.145,0.889,0.573c0,0.23-0.17,0.396-0.438,0.501
						c0.055,0.098,0.505,0.681,0.595,0.776h-0.663c-0.117-0.223-0.339-0.608-0.56-0.934c0.265,0.034,0.495-0.093,0.495-0.347
						c0-0.244-0.282-0.316-0.42-0.316c-0.061,0-0.179,0-0.219,0.003c-0.011,0.228-0.015,0.499-0.015,0.622
						c0,0.161,0,0.691,0.031,0.972h-0.618c0.031-0.275,0.039-0.601,0.039-0.972c0-0.313-0.005-0.689-0.032-0.879H85.28z"/>
					<path fill="#231F20" d="M87.429,38.691c-0.575,0-1.008-0.395-1.008-0.975c0-0.584,0.433-0.975,1.008-0.975
						c0.574,0,1.007,0.391,1.007,0.975C88.436,38.296,88.003,38.691,87.429,38.691z M87.429,36.979
						c-0.267,0-0.436,0.261-0.436,0.738c0,0.477,0.169,0.731,0.436,0.731c0.266,0,0.43-0.255,0.43-0.731
						C87.858,37.239,87.694,36.979,87.429,36.979z"/>
					<path fill="#231F20" d="M89.293,36.789c-0.01,0.123-0.014,0.251-0.014,0.381v0.883c0,0.24,0.076,0.38,0.313,0.38
						c0.205,0,0.408-0.082,0.408-0.46v-0.896c0-0.188-0.003-0.21-0.017-0.289h0.511c-0.02,0.162-0.02,0.464-0.02,0.763v0.524
						c0,0.427-0.3,0.611-0.889,0.611c-0.536,0-0.865-0.113-0.865-0.639v-0.676c0-0.171-0.007-0.453-0.028-0.584L89.293,36.789
						L89.293,36.789z"/>
					<path fill="#231F20" d="M91.775,36.789c0.401,0,0.886,0.113,0.886,0.542c0,0.379-0.345,0.566-1.04,0.566
						c-0.042,0-0.154,0-0.187-0.003c0.015,0.258,0.011,0.569,0.028,0.745h-0.607c0.023-0.254,0.031-0.673,0.031-0.972
						c0-0.264-0.008-0.704-0.031-0.879H91.775z M91.441,37.046c0,0.121-0.007,0.246-0.007,0.365c0,0.089,0.004,0.157,0.007,0.222
						c0.021,0.005,0.118,0.005,0.18,0.005c0.195,0,0.466-0.056,0.466-0.307c0-0.243-0.277-0.288-0.487-0.288
						C91.572,37.043,91.47,37.043,91.441,37.046z"/>
				</g>
			</g>
		</g>
		<g>
			<g>
				<g>
					<path fill="#231F20" d="M61.875,31.38c-0.022,0.24-0.026,0.476-0.026,0.717v1.885c0,0.337,0.174,0.619,0.717,0.619
						c0.466,0,0.779-0.148,0.779-0.921v-1.768c0-0.379-0.01-0.414-0.025-0.532h0.784c-0.042,0.261-0.042,0.87-0.042,1.47v1.04
						c0,0.809-0.477,1.146-1.572,1.146c-0.994,0-1.542-0.262-1.542-1.326v-1.214c0-0.349-0.011-0.896-0.042-1.116H61.875
						L61.875,31.38z"/>
					<path fill="#231F20" d="M68.159,31.38c-0.19,0.199-1.174,1.3-1.435,1.563c0.205,0.275,1.393,1.808,1.608,2.022h-1.131
						c-0.236-0.39-0.923-1.291-1.25-1.706c0,0.43,0.004,1.275,0.051,1.706h-0.994c0.05-0.497,0.057-1.563,0.057-1.875
						c0-0.348-0.022-1.295-0.052-1.71h0.984c-0.026,0.379-0.046,1.193-0.046,1.604c0.64-0.646,0.948-1.102,1.321-1.604H68.159z"/>
					<path fill="#231F20" d="M70.574,31.38c0.753,0,1.649,0.21,1.649,1.039c0,0.466-0.271,0.779-0.808,0.942
						c0.076,0.153,0.94,1.47,1.084,1.604H71.43c-0.236-0.445-0.768-1.347-1.158-1.931c0.067,0.015,0.165,0.025,0.277,0.025
						c0.312,0,0.753-0.226,0.753-0.641c0-0.518-0.625-0.609-0.938-0.609c-0.158,0-0.312,0.011-0.389,0.021
						c-0.021,0.445-0.032,1.003-0.032,1.254c0,0.317,0,1.378,0.057,1.88h-0.999c0.052-0.496,0.062-1.137,0.062-1.88
						c0-0.625-0.005-1.372-0.051-1.705H70.574L70.574,31.38z"/>
					<path fill="#231F20" d="M74.45,31.308c0.442,0,0.846,0.066,1.103,0.139v0.788c-0.313-0.174-0.652-0.338-1.22-0.338
						c-0.513,0-0.543,0.189-0.543,0.323c0,0.65,2.08,0.563,2.08,1.699c0,0.702-0.626,1.117-1.681,1.117
						c-0.486,0-0.911-0.087-1.194-0.185v-0.783c0.64,0.302,1.045,0.405,1.409,0.405c0.405,0,0.615-0.118,0.615-0.385
						c0-0.702-2.08-0.599-2.08-1.793C72.94,31.667,73.544,31.308,74.45,31.308z"/>
					<path fill="#231F20" d="M77.677,31.38c-0.03,0.415-0.053,1.357-0.053,1.71c0,0.312,0.007,1.378,0.053,1.875h-0.993
						c0.051-0.497,0.055-1.563,0.055-1.875c0-0.348-0.02-1.295-0.046-1.71H77.677z"/>
					<path fill="#231F20" d="M80.457,31.38c0.639,0,1.316,0.235,1.316,0.829c0,0.358-0.303,0.676-0.759,0.794
						c0.62,0.189,0.942,0.522,0.942,0.979c0,0.728-0.861,0.983-1.68,0.983h-1.664c0.045-0.472,0.056-1.147,0.056-1.88
						c0-0.491-0.005-1.234-0.051-1.705H80.457z M79.903,31.779c-0.117,0-0.251,0.01-0.317,0.021c-0.021,0.477-0.03,0.732-0.03,1.285
						c0,0.65,0,0.923,0.025,1.45c0.117,0.006,0.308,0.006,0.415,0.006c0.691,0,1.034-0.201,1.034-0.601
						c0-0.471-0.567-0.64-0.999-0.64h-0.199l0.199-0.507h0.124c0.292,0,0.707-0.133,0.707-0.492
						C80.862,31.923,80.605,31.779,79.903,31.779z"/>
					<path fill="#231F20" d="M84.445,31.38c0.64,0,1.316,0.235,1.316,0.829c0,0.358-0.302,0.676-0.758,0.794
						c0.619,0.189,0.942,0.522,0.942,0.979c0,0.728-0.861,0.983-1.68,0.983h-1.665c0.046-0.472,0.057-1.147,0.057-1.88
						c0-0.491-0.006-1.234-0.051-1.705H84.445z M83.892,31.779c-0.117,0-0.25,0.01-0.317,0.021c-0.021,0.477-0.03,0.732-0.03,1.285
						c0,0.65,0,0.923,0.025,1.45c0.118,0.006,0.308,0.006,0.415,0.006c0.691,0,1.034-0.201,1.034-0.601
						c0-0.471-0.567-0.64-0.998-0.64h-0.2l0.2-0.507h0.123c0.292,0,0.708-0.133,0.708-0.492
						C84.852,31.923,84.595,31.779,83.892,31.779z"/>
					<path fill="#231F20" d="M88.476,31.38c0.138,0.368,1.316,2.99,1.592,3.585h-0.988c-0.057-0.164-0.174-0.461-0.328-0.846
						c-0.205-0.005-0.414-0.01-0.705-0.01c-0.272,0-0.477,0.006-0.712,0.01c-0.113,0.303-0.205,0.579-0.287,0.846h-0.86
						c0.205-0.445,1.407-3.059,1.598-3.585H88.476z M88.563,33.648c-0.234-0.563-0.44-1.045-0.513-1.214
						c-0.164,0.349-0.343,0.758-0.532,1.214c0.153,0.005,0.363,0.01,0.532,0.01C88.214,33.659,88.389,33.653,88.563,33.648z"/>
					<path fill="#231F20" d="M93.766,31.38c-0.036,0.409-0.058,1.357-0.058,1.705c0,0.316,0.004,1.383,0.062,1.88H93.1l-1.537-2.259
						c-0.133-0.2-0.169-0.302-0.194-0.395c0,0.549-0.006,0.819-0.006,1.307c0,0.44,0.011,1.07,0.047,1.347h-0.835
						c0.051-0.497,0.056-1.563,0.056-1.88c0-0.348-0.021-1.296-0.045-1.705h0.941l1.147,1.685c0.246,0.358,0.296,0.436,0.338,0.568
						h0.005c-0.03-0.445-0.04-0.906-0.062-1.352L92.92,31.38H93.766z"/>
					<path fill="#231F20" d="M97.825,31.38c-0.189,0.199-1.173,1.3-1.434,1.563c0.204,0.275,1.393,1.808,1.608,2.022h-1.133
						c-0.234-0.39-0.921-1.291-1.25-1.706c0,0.43,0.006,1.275,0.052,1.706h-0.993c0.051-0.497,0.056-1.563,0.056-1.875
						c0-0.348-0.021-1.295-0.051-1.71h0.983c-0.025,0.379-0.048,1.193-0.048,1.604c0.641-0.646,0.949-1.102,1.323-1.604H97.825z"/>
				</g>
			</g>
		</g>
	</g>
</g>
</svg>
