<?xml version="1.0" encoding="utf-8"?>
<!-- Generator: Adobe Illustrator 16.0.3, SVG Export Plug-In . SVG Version: 6.00 Build 0)  -->
<!DOCTYPE svg PUBLIC "-//W3C//DTD SVG 1.1//EN" "http://www.w3.org/Graphics/SVG/1.1/DTD/svg11.dtd">
<svg version="1.1" id="Layer_1" xmlns="http://www.w3.org/2000/svg" xmlns:xlink="http://www.w3.org/1999/xlink" x="0px" y="0px"
	 width="204.095px" height="48.189px" viewBox="0 0 204.095 48.189" enable-background="new 0 0 204.095 48.189"
	 xml:space="preserve">
<g>
	<rect x="53.097" y="41.764" fill="#FFFFFF" width="0.891" height="3.918"/>
	<polygon fill="#FFFFFF" points="65.382,44.025 63.94,44.025 63.94,44.955 65.552,44.955 65.552,45.681 63.052,45.681 
		63.052,41.763 65.47,41.763 65.47,42.491 63.94,42.491 63.94,43.303 65.382,43.303 	"/>
	<polygon fill="#FFFFFF" points="71.955,44.025 70.513,44.025 70.513,44.955 72.123,44.955 72.123,45.681 69.623,45.681 
		69.623,41.763 72.042,41.763 72.042,42.491 70.513,42.491 70.513,43.303 71.955,43.303 	"/>
	<polygon fill="#FFFFFF" points="83.382,44.025 81.94,44.025 81.94,44.955 83.552,44.955 83.552,45.681 81.052,45.681 
		81.052,41.763 83.47,41.763 83.47,42.491 81.94,42.491 81.94,43.303 83.382,43.303 	"/>
	<polygon fill="#FFFFFF" points="94.163,44.025 92.721,44.025 92.721,44.955 94.331,44.955 94.331,45.681 91.831,45.681 
		91.831,41.763 94.25,41.763 94.25,42.491 92.721,42.491 92.721,43.303 94.163,43.303 	"/>
	<rect x="123.381" y="41.764" fill="#FFFFFF" width="0.889" height="3.918"/>
	<polygon fill="#FFFFFF" points="125.82,42.508 124.768,42.508 124.768,41.763 127.779,41.763 127.779,42.508 126.709,42.508 
		126.709,45.681 125.82,45.681 	"/>
	<polygon fill="#FFFFFF" points="134.93,42.508 133.877,42.508 133.877,41.763 136.889,41.763 136.889,42.508 135.82,42.508 
		135.82,45.681 134.93,45.681 	"/>
	<polygon fill="#FFFFFF" points="148.789,42.508 147.736,42.508 147.736,41.763 150.748,41.763 150.748,42.508 149.68,42.508 
		149.68,45.681 148.789,45.681 	"/>
	<path fill="#FFFFFF" d="M13.585,21.903v7.196c0,0.428-0.036,0.78-0.114,1.052c0.044,0.924,0.133,1.628,0.269,2.11
		c0.137,0.482,0.416,0.863,0.84,1.142s1.105,0.49,2.047,0.636c1.086,0.127,1.629,0.495,1.629,1.1c0,0.705-0.403,1.053-1.206,1.053
		c-0.753,0-2.062-0.033-3.927-0.102c-1.864-0.068-3.253-0.103-4.169-0.103c-0.624,0-1.849,0.034-3.669,0.103
		c-1.822,0.068-3.106,0.102-3.851,0.102c-0.394,0-0.709-0.061-0.95-0.186c-0.237-0.123-0.357-0.412-0.357-0.867
		c0-0.358,0.143-0.631,0.429-0.818c0.287-0.189,0.617-0.283,0.994-0.283c1.018-0.137,1.757-0.348,2.219-0.63
		s0.759-0.667,0.892-1.155c0.133-0.486,0.198-1.189,0.198-2.104v-1.053V10.43V9.376c0-1.42-0.173-2.41-0.519-2.972
		C3.993,5.846,3.165,5.471,1.856,5.282c-0.572-0.067-1.006-0.17-1.296-0.305C0.271,4.84,0.126,4.594,0.126,4.236
		c0-0.45,0.098-0.728,0.294-0.834c0.197-0.106,0.502-0.16,0.911-0.16c1.095,0,2.528,0.04,4.298,0.117
		c1.771,0.077,3.055,0.115,3.85,0.115c1.07,0,2.326-0.038,3.772-0.115c1.445-0.077,2.711-0.117,3.798-0.117
		c0.803,0,1.206,0.315,1.206,0.943c0,0.348-0.104,0.587-0.309,0.715c-0.205,0.127-0.576,0.255-1.115,0.382
		c-1.104,0.189-1.871,0.434-2.303,0.732c-0.431,0.301-0.697,0.743-0.796,1.331c-0.098,0.586-0.147,1.616-0.147,3.09v6.694
		c0,0.239-0.036,0.434-0.114,0.579c0.078,0.273,0.183,0.41,0.319,0.41c0.129,0,0.602-0.328,1.422-0.989
		c0.332-0.351,0.9-0.927,1.703-1.728c0.801-0.802,1.563-1.566,2.285-2.3c0.719-0.734,2.077-2.149,4.076-4.247
		c1.297-1.372,1.945-2.283,1.945-2.738c0-0.557-0.51-0.835-1.525-0.835c-0.804-0.075-1.382-0.179-1.732-0.305
		c-0.35-0.128-0.525-0.426-0.525-0.892c0-0.384,0.111-0.62,0.333-0.708c0.222-0.091,0.586-0.136,1.091-0.136h12.655h0.358
		c0.77,0,1.156,0.247,1.156,0.739c0,0.868-0.964,1.301-2.887,1.301c-2.205,0-4.111,0.72-5.718,2.156l-5.464,5.045
		c-1.299,1.301-1.948,2.162-1.948,2.58c0,0.335,0.249,0.737,0.744,1.207L33.94,30.519c1.256,1.532,2.111,2.461,2.564,2.785
		c0.375,0.308,0.908,0.505,1.596,0.59c0.688,0.086,1.129,0.163,1.322,0.232c0.191,0.067,0.287,0.338,0.287,0.808
		c0,0.84-0.717,1.257-2.153,1.257c-0.813,0-2.078-0.033-3.796-0.102c-1.719-0.068-2.992-0.103-3.821-0.103
		c-0.794,0-1.987,0.034-3.577,0.103c-1.591,0.068-2.757,0.102-3.5,0.102c-0.949,0-1.424-0.417-1.424-1.255
		c0-0.377,0.119-0.634,0.359-0.769c0.238-0.138,0.58-0.235,1.025-0.297c0.444-0.06,0.772-0.133,0.981-0.218
		c0.209-0.086,0.315-0.269,0.315-0.551c0-0.214-0.059-0.423-0.174-0.624c-0.115-0.199-0.289-0.427-0.519-0.679
		s-0.456-0.502-0.679-0.75l-7.436-9.248c-0.699-0.846-1.189-1.322-1.472-1.422c-0.146,0-0.269,0.313-0.371,0.947
		C13.549,21.473,13.585,21.664,13.585,21.903"/>
	<path fill="#FFFFFF" d="M37.31,18.548c-0.564-1.147-1.059-2.05-1.487-2.704c-0.428-0.655-0.784-1.098-1.069-1.331
		c-0.287-0.23-0.586-0.366-0.898-0.404c-0.313-0.036-0.594-0.065-0.84-0.082c-1.018-0.215-1.526-0.617-1.526-1.209
		c0-0.563,0.577-0.847,1.731-0.847h13.234c1.23,0,1.848,0.283,1.848,0.846c0,0.489-0.285,0.812-0.854,0.97s-1.139,0.316-1.712,0.475
		c-0.574,0.158-0.858,0.479-0.858,0.969c0,0.325,0.28,1.078,0.846,2.258l3.886,8.249c0.067,0.085,0.188,0.283,0.358,0.59
		c0.17,0.309,0.316,0.542,0.436,0.701c0.12,0.157,0.24,0.236,0.361,0.236c0.238,0,0.447-0.19,0.627-0.57
		c0.18-0.381,0.338-0.734,0.475-1.059l3.514-7.93c0.393-0.855,0.59-1.541,0.59-2.053c0-0.582-0.195-0.975-0.584-1.182
		c-0.388-0.204-0.957-0.345-1.705-0.423c-0.748-0.076-1.291-0.184-1.629-0.321c-0.338-0.136-0.506-0.439-0.506-0.91
		c0-0.563,0.598-0.846,1.795-0.846h8.977c0.548,0,0.912,0.048,1.097,0.146s0.276,0.333,0.276,0.699c0,0.712-0.475,1.115-1.424,1.208
		c-0.84,0.078-1.448,0.205-1.827,0.385c-0.38,0.182-0.802,0.639-1.265,1.374c-0.461,0.737-1.146,2.061-2.051,3.971l-7.721,16.257
		c-0.059,0.152-0.563,1.357-1.506,3.613c-0.945,2.256-1.461,3.526-1.545,3.809c-0.463,1.385-0.783,2.275-0.963,2.672
		c-0.18,0.395-0.504,0.691-0.976,0.891c-0.47,0.201-1.26,0.301-2.372,0.301c-1.557,0-2.714-0.186-3.475-0.556
		c-0.762-0.369-1.141-1.146-1.141-2.327c0-2.201,0.927-3.384,2.781-3.546c0.907,0.138,1.711,0.206,2.411,0.206
		c0.89,0,1.718-0.361,2.481-1.087c0.765-0.724,1.15-1.535,1.15-2.435c0-0.763-0.352-1.709-1.054-2.84L37.31,18.548z"/>
	<path fill="#FFFFFF" d="M66.709,21.122v-0.948c0-0.863-0.149-1.533-0.448-2.008s-0.937-0.733-1.91-0.775
		c-0.078,0-0.186,0.032-0.322,0.103c-0.436-0.087-0.754-0.184-0.955-0.296c-0.201-0.109-0.301-0.346-0.301-0.704
		c0-0.323,0.18-0.563,0.539-0.717c0.357-0.153,0.932-0.334,1.717-0.537c1.104-0.213,2.326-0.655,3.668-1.326
		c1.344-0.67,2.379-1.415,3.105-2.234c0.59-0.598,1.206-0.896,1.848-0.896c0.315,0,0.533,0.139,0.654,0.416
		c0.118,0.278,0.178,0.784,0.178,1.52v16.18c0,0.983-0.032,1.7-0.102,2.151c0.025,0.787,0.079,1.354,0.16,1.7
		c0.081,0.346,0.225,0.594,0.432,0.743c0.203,0.149,0.524,0.259,0.959,0.321c0.437,0.064,0.988,0.139,1.655,0.224
		c0.386,0.042,0.683,0.175,0.892,0.397s0.314,0.424,0.314,0.604c0,0.7-0.543,1.051-1.629,1.051H64.028
		c-1.119,0-1.68-0.351-1.68-1.053c0-0.41,0.159-0.688,0.48-0.832c0.32-0.145,0.791-0.24,1.411-0.281
		c0.62-0.045,1.092-0.111,1.417-0.207c0.326-0.094,0.535-0.3,0.63-0.617c0.28-0.614,0.422-2.017,0.422-4.206V21.122z"/>
	<path fill="#FFFFFF" d="M65.863,4.876c0-1.203,0.476-2.168,1.429-2.895c0.955-0.728,2.021-1.089,3.201-1.089
		c1.24,0,2.319,0.349,3.238,1.051c0.92,0.699,1.38,1.679,1.38,2.933c0,1.357-0.467,2.415-1.399,3.171
		c-0.932,0.756-2.039,1.136-3.32,1.136c-1.258,0-2.327-0.389-3.208-1.16C66.304,7.249,65.863,6.202,65.863,4.876"/>
	<path fill="#FFFFFF" d="M80.512,17.805c-0.573-1.215-0.983-2.032-1.231-2.455s-0.553-0.741-0.918-0.956
		C78,14.18,77.456,14.021,76.728,13.92c-0.47-0.068-0.787-0.159-0.955-0.27c-0.166-0.111-0.25-0.338-0.25-0.679
		c0-0.668,0.578-1.001,1.731-1.001h13.134c1.086,0,1.631,0.315,1.631,0.948c0,0.419-0.145,0.693-0.432,0.821
		s-0.734,0.223-1.34,0.283c-0.607,0.058-1.061,0.159-1.36,0.301c-0.298,0.14-0.448,0.442-0.448,0.905
		c0,0.171,0.076,0.465,0.23,0.878c0.154,0.415,0.27,0.756,0.348,1.02l3.731,8.404c0.394,1.019,0.692,1.527,0.897,1.527
		c0.274,0,0.553-0.44,0.834-1.322l2.795-6.196c0.806-1.778,1.207-3.007,1.207-3.683c-0.103-1.035-0.895-1.647-2.373-1.834
		c-0.642-0.077-1.09-0.17-1.347-0.277c-0.257-0.106-0.385-0.364-0.385-0.774c0-0.668,0.44-1.001,1.319-1.001h9.247
		c1.01,0,1.516,0.315,1.516,0.948c0,0.539-0.402,0.906-1.205,1.102c-1.205,0.173-1.983,0.356-2.335,0.552
		c-0.352,0.198-0.762,0.8-1.232,1.808l-8.617,17.969c-0.488,0.931-0.858,1.523-1.11,1.775c-0.252,0.251-0.708,0.377-1.366,0.377
		c-0.357,0-0.656-0.033-0.891-0.102c-0.236-0.067-0.42-0.178-0.551-0.326c-0.133-0.151-0.285-0.424-0.457-0.822
		c-0.172-0.396-0.291-0.665-0.358-0.802L80.512,17.805z"/>
	<path fill="#FFFFFF" d="M116.889,17.03c0,1.089,0.107,1.706,0.322,1.852c0.639,0.453,1.586,0.68,2.832,0.68
		c1.418,0,2.574-0.352,3.469-1.054c0.893-0.703,1.537-1.602,1.928-2.695c0.395-1.094,0.592-2.231,0.592-3.416
		c0-1.945-0.57-3.618-1.711-5.018c-1.143-1.398-2.637-2.096-4.482-2.096c-1.154,0-1.934,0.309-2.34,0.926s-0.609,1.539-0.609,2.767
		v2.366V17.03z M116.889,22.533v6.566c0,1.274,0.049,2.196,0.148,2.765c0.098,0.568,0.367,1.029,0.809,1.386
		c0.439,0.354,1.172,0.617,2.197,0.789c1.086,0.127,1.629,0.496,1.629,1.101c0,0.704-0.402,1.052-1.207,1.052
		c-0.754,0-2.063-0.033-3.928-0.102c-1.867-0.069-3.258-0.104-4.172-0.104c-0.625,0-1.85,0.034-3.672,0.104
		c-1.822,0.068-3.107,0.102-3.852,0.102c-0.393,0-0.709-0.061-0.95-0.186c-0.238-0.123-0.359-0.412-0.359-0.866
		c0-0.36,0.145-0.632,0.432-0.819c0.284-0.189,0.616-0.283,0.991-0.283c1.018-0.138,1.758-0.348,2.219-0.629
		c0.461-0.283,0.76-0.668,0.891-1.156c0.133-0.486,0.201-1.189,0.201-2.104v-1.053V10.43V9.376c0-1.017-0.063-1.779-0.182-2.285
		c-0.119-0.503-0.389-0.897-0.814-1.18c-0.422-0.282-1.092-0.491-2.006-0.629c-0.65-0.084-1.1-0.175-1.353-0.268
		c-0.252-0.095-0.379-0.318-0.379-0.677c0-0.731,0.402-1.096,1.206-1.096c1.053,0,2.248,0.039,3.582,0.117
		c1.334,0.076,2.404,0.114,3.207,0.114c1.729,0,3.674-0.038,5.836-0.114c2.158-0.078,3.98-0.117,5.459-0.117
		c1.893,0,3.424,0.117,4.602,0.354c1.176,0.235,2.309,0.694,3.396,1.378c2.729,1.722,4.094,4.193,4.094,7.419
		c-0.043,1.678-0.463,3.289-1.258,4.839c-0.793,1.549-1.973,2.818-3.533,3.812c-1.563,0.993-3.449,1.489-5.664,1.489
		c-0.908,0-1.695-0.073-2.361-0.217c-0.668-0.145-1.52-0.362-2.561-0.65c-1.039-0.29-1.729-0.435-2.072-0.435
		c-0.357,0-0.584,0.227-0.678,0.677C116.855,22.052,116.889,22.259,116.889,22.533"/>
	<path fill="#FFFFFF" d="M142.273,22.53c0,1.923,0.277,3.822,0.828,5.699c0.553,1.875,1.35,3.416,2.395,4.624
		c1.043,1.211,2.266,1.815,3.67,1.815c1.709,0,3.096-0.877,4.15-2.632c1.057-1.757,1.584-4.171,1.584-7.238
		c0-2.077-0.301-4.02-0.91-5.827c-0.607-1.808-1.43-3.241-2.471-4.301c-1.037-1.059-2.174-1.591-3.406-1.591
		c-1.105,0-2.098,0.392-2.984,1.169c-0.885,0.777-1.582,1.89-2.092,3.339C142.529,19.035,142.273,20.683,142.273,22.53
		 M133.752,23.901c0-2.427,0.709-4.601,2.125-6.52c1.414-1.918,3.268-3.402,5.557-4.455c2.287-1.05,4.686-1.575,7.191-1.575
		c2.121,0,4.078,0.321,5.865,0.962c1.789,0.641,3.332,1.522,4.627,2.647c1.297,1.122,2.299,2.424,3.008,3.902
		c0.711,1.478,1.066,3.017,1.066,4.615c0,2.546-0.707,4.806-2.123,6.774c-1.416,1.97-3.266,3.487-5.551,4.55
		c-2.285,1.065-4.686,1.596-7.199,1.596c-2.457,0-4.799-0.472-7.033-1.414c-2.232-0.944-4.047-2.363-5.441-4.257
		C134.449,28.833,133.752,26.559,133.752,23.901"/>
	<path fill="#FFFFFF" d="M164.541,29.938c0.086-0.717,0.18-1.201,0.287-1.453c0.107-0.253,0.43-0.381,0.969-0.381
		c0.471,0,0.895,0.326,1.264,0.975c0.373,0.65,0.828,1.449,1.367,2.391c0.539,0.944,1.268,1.714,2.184,2.308
		c0.914,0.596,2.15,0.891,3.709,0.891c0.699,0,1.449-0.12,2.246-0.362c0.795-0.244,1.477-0.624,2.045-1.135
		c0.57-0.515,0.854-1.154,0.854-1.926c0-0.955-0.365-1.725-1.098-2.305c-0.73-0.582-1.82-1.107-3.266-1.578
		c-2.061-0.668-3.508-1.148-4.338-1.449c-0.83-0.297-1.754-0.744-2.771-1.339c-1.02-0.594-1.85-1.33-2.49-2.211
		s-0.961-1.909-0.961-3.09c0-1.428,0.477-2.75,1.436-3.968s2.246-2.181,3.863-2.891c1.617-0.708,3.371-1.063,5.262-1.063
		c2.121,0,4.557,0.316,7.303,0.947c0.717,0.215,1.152,0.414,1.301,0.599c0.148,0.184,0.225,0.663,0.225,1.441v1.321
		c-0.078,0.471-0.172,0.981-0.289,1.534c-0.115,0.55-0.387,0.826-0.814,0.826c-0.486,0-1.098-0.402-1.832-1.208
		c-0.893-1.206-1.49-1.979-1.795-2.325c-0.305-0.347-0.748-0.651-1.336-0.911c-0.586-0.262-1.367-0.392-2.346-0.392
		c-1.232,0-2.26,0.235-3.082,0.705c-0.82,0.469-1.232,1.162-1.232,2.078c0,0.99,0.41,1.667,1.23,2.03
		c0.822,0.365,2.57,0.974,5.24,1.832c2.672,0.86,4.645,1.827,5.922,2.897c1.275,1.074,1.914,2.618,1.914,4.637
		c0,1.57-0.459,3.056-1.375,4.455c-0.914,1.396-2.295,2.525-4.137,3.39c-1.846,0.863-4.09,1.293-6.732,1.293
		c-2.959,0-5.416-0.524-7.365-1.576c-0.592-0.299-0.982-0.62-1.176-0.962c-0.191-0.341-0.289-0.931-0.289-1.769L164.541,29.938z"/>
	<path fill="#FFFFFF" d="M197.064,16.584v8.742c0,1.481,0.055,2.726,0.166,3.728s0.354,1.813,0.721,2.435
		c0.369,0.623,0.916,0.935,1.646,0.935c0.512,0,0.975-0.102,1.387-0.304c0.412-0.199,0.859-0.461,1.344-0.78
		c0.484-0.321,0.82-0.482,1.01-0.482c0.162,0,0.309,0.068,0.436,0.204c0.129,0.139,0.195,0.313,0.195,0.525
		c0,0.476-0.389,1.112-1.162,1.907c-0.777,0.797-1.795,1.498-3.057,2.102c-1.264,0.604-2.609,0.906-4.039,0.906
		c-1.979,0-3.549-0.67-4.719-2.008s-1.752-3.353-1.752-6.04V17.365c0-1.283-0.072-2.077-0.219-2.383
		c-0.145-0.303-0.543-0.455-1.193-0.455c-0.428,0-0.816,0.034-1.166,0.104c-0.734-0.128-1.104-0.369-1.104-0.726
		c0-0.279,0.129-0.517,0.385-0.713c0.258-0.194,0.672-0.428,1.246-0.699c3.336-1.322,5.668-3.21,6.996-5.66
		c0.617-1.154,1.229-1.731,1.836-1.731c0.564,0,0.848,0.384,0.848,1.153v0.781v3.627c0,0.667,0.049,1.073,0.146,1.219
		c0.1,0.145,0.418,0.247,0.957,0.308c0.215-0.075,0.424-0.115,0.629-0.115h2.887h0.594c0.443,0,0.748,0.06,0.91,0.178
		c0.162,0.119,0.244,0.391,0.244,0.813c0,0.695-0.102,1.112-0.309,1.251c-0.205,0.143-0.721,0.211-1.543,0.211h-2.572
		c-0.643,0-1.068,0.03-1.279,0.092c-0.211,0.059-0.34,0.211-0.393,0.455C197.09,15.319,197.064,15.821,197.064,16.584"/>
	<path fill="#FFFFFF" d="M54.837,45.681v-3.918h1.035l0.814,1.437c0.231,0.412,0.465,0.901,0.639,1.343h0.018
		c-0.059-0.518-0.076-1.047-0.076-1.64v-1.14h0.814v3.918h-0.93l-0.838-1.512c-0.232-0.418-0.487-0.924-0.68-1.383l-0.018,0.006
		c0.023,0.518,0.035,1.07,0.035,1.709v1.18H54.837z"/>
	<path fill="#FFFFFF" d="M59.82,45.013c0.077,0.018,0.199,0.018,0.308,0.018c0.804,0.006,1.326-0.436,1.326-1.373
		c0.008-0.813-0.471-1.244-1.232-1.244c-0.198,0-0.324,0.019-0.401,0.037V45.013z M58.931,41.816c0.326-0.053,0.75-0.08,1.197-0.08
		c0.744,0,1.228,0.133,1.605,0.418c0.407,0.301,0.663,0.785,0.663,1.477c0,0.75-0.272,1.266-0.652,1.586
		c-0.413,0.345-1.04,0.506-1.807,0.506c-0.46,0-0.785-0.027-1.007-0.059V41.816z"/>
	<path fill="#FFFFFF" d="M67.141,43.594c0.075,0.019,0.169,0.022,0.297,0.022c0.472,0,0.763-0.236,0.763-0.637
		c0-0.361-0.25-0.576-0.693-0.576c-0.18,0-0.301,0.017-0.366,0.035V43.594z M66.264,41.816c0.272-0.046,0.655-0.08,1.196-0.08
		c0.547,0,0.937,0.104,1.199,0.313c0.248,0.197,0.418,0.523,0.418,0.906c0,0.384-0.129,0.711-0.361,0.931
		c-0.303,0.284-0.75,0.413-1.272,0.413c-0.116,0-0.221-0.005-0.303-0.018v1.4h-0.877V41.816z"/>
	<path fill="#FFFFFF" d="M72.835,45.681v-3.918h1.035l0.813,1.437c0.232,0.412,0.465,0.901,0.641,1.343h0.018
		c-0.06-0.518-0.076-1.047-0.076-1.64v-1.14h0.814v3.918h-0.932l-0.836-1.512c-0.232-0.418-0.489-0.924-0.68-1.383l-0.019,0.006
		c0.024,0.518,0.036,1.07,0.036,1.709v1.18H72.835z"/>
	<path fill="#FFFFFF" d="M77.821,45.013c0.074,0.018,0.196,0.018,0.308,0.018c0.803,0.006,1.325-0.436,1.325-1.373
		c0.006-0.813-0.471-1.244-1.232-1.244c-0.198,0-0.326,0.019-0.4,0.037V45.013z M76.932,41.816c0.325-0.053,0.749-0.08,1.197-0.08
		c0.743,0,1.226,0.133,1.604,0.418c0.407,0.301,0.663,0.785,0.663,1.477c0,0.75-0.274,1.266-0.651,1.586
		c-0.414,0.345-1.041,0.506-1.808,0.506c-0.46,0-0.786-0.027-1.006-0.059V41.816z"/>
	<path fill="#FFFFFF" d="M84.263,45.681v-3.918h1.035L86.11,43.2c0.234,0.412,0.466,0.901,0.641,1.343h0.018
		c-0.059-0.518-0.076-1.047-0.076-1.64v-1.14h0.814v3.918h-0.931l-0.838-1.512c-0.231-0.418-0.487-0.924-0.681-1.383l-0.018,0.006
		c0.025,0.518,0.036,1.07,0.036,1.709v1.18H84.263z"/>
	<path fill="#FFFFFF" d="M91.212,45.572c-0.162,0.08-0.529,0.174-1.006,0.174c-1.354,0-2.051-0.849-2.051-1.964
		c0-1.339,0.952-2.082,2.139-2.082c0.459,0,0.808,0.093,0.965,0.175l-0.18,0.703c-0.182-0.076-0.431-0.146-0.744-0.146
		c-0.703,0-1.252,0.425-1.252,1.297c0,0.784,0.467,1.278,1.256,1.278c0.269,0,0.566-0.058,0.74-0.127L91.212,45.572z"/>
	<path fill="#FFFFFF" d="M95.518,45.746c-0.297,0-0.511-0.227-0.511-0.534c0-0.315,0.214-0.542,0.521-0.542
		c0.309,0,0.518,0.223,0.518,0.542c0,0.308-0.209,0.534-0.522,0.534H95.518z"/>
	<path fill="#FFFFFF" d="M100.546,45.572c-0.162,0.08-0.529,0.174-1.006,0.174c-1.354,0-2.052-0.849-2.052-1.964
		c0-1.339,0.953-2.082,2.14-2.082c0.459,0,0.808,0.093,0.965,0.175l-0.182,0.703c-0.179-0.076-0.428-0.146-0.742-0.146
		c-0.705,0-1.252,0.425-1.252,1.297c0,0.784,0.467,1.278,1.256,1.278c0.269,0,0.564-0.058,0.738-0.127L100.546,45.572z"/>
	<path fill="#FFFFFF" d="M101.831,43.735c0,0.767,0.359,1.308,0.953,1.308c0.598,0,0.941-0.57,0.941-1.332
		c0-0.701-0.338-1.307-0.947-1.307C102.181,42.404,101.831,42.972,101.831,43.735 M104.66,43.683c0,1.283-0.776,2.063-1.925,2.063
		c-1.162,0-1.842-0.878-1.842-1.994c0-1.174,0.752-2.052,1.908-2.052C104.004,41.7,104.66,42.601,104.66,43.683"/>
	<path fill="#FFFFFF" d="M108.6,44.181c-0.018-0.471-0.035-1.039-0.035-1.609h-0.018c-0.121,0.499-0.283,1.059-0.438,1.516
		l-0.475,1.532h-0.691l-0.42-1.513c-0.129-0.465-0.262-1.023-0.354-1.535h-0.012c-0.023,0.529-0.041,1.133-0.068,1.622l-0.072,1.487
		h-0.82l0.25-3.918h1.182l0.383,1.308c0.123,0.448,0.244,0.942,0.334,1.401h0.016c0.111-0.453,0.244-0.969,0.371-1.405l0.418-1.304
		h1.158l0.215,3.918h-0.865L108.6,44.181z"/>
	<path fill="#FFFFFF" d="M113.596,44.181c-0.018-0.471-0.035-1.039-0.035-1.609h-0.018c-0.123,0.499-0.285,1.059-0.436,1.516
		l-0.479,1.532h-0.691l-0.418-1.513c-0.129-0.465-0.262-1.023-0.355-1.535h-0.01c-0.025,0.529-0.041,1.133-0.07,1.622l-0.07,1.487
		h-0.82l0.252-3.918h1.18l0.383,1.308c0.123,0.448,0.244,0.942,0.332,1.401h0.018c0.109-0.453,0.244-0.969,0.371-1.405l0.418-1.304
		h1.158l0.215,3.918h-0.865L113.596,44.181z"/>
	<path fill="#FFFFFF" d="M116.135,41.763v2.256c0,0.674,0.256,1.017,0.709,1.017c0.465,0,0.721-0.325,0.721-1.017v-2.256h0.883
		v2.197c0,1.211-0.609,1.785-1.633,1.785c-0.988,0-1.57-0.547-1.57-1.796v-2.187H116.135z"/>
	<path fill="#FFFFFF" d="M119.287,45.681v-3.918h1.035l0.813,1.437c0.232,0.412,0.467,0.901,0.641,1.343h0.016
		c-0.057-0.518-0.074-1.047-0.074-1.64v-1.14h0.814v3.918h-0.93l-0.838-1.512c-0.232-0.418-0.488-0.924-0.682-1.383l-0.018,0.006
		c0.025,0.518,0.037,1.07,0.037,1.709v1.18H119.287z"/>
	<path fill="#FFFFFF" d="M129.334,45.681v-1.604l-1.236-2.314h1.012l0.402,0.941c0.121,0.286,0.201,0.495,0.303,0.752h0.01
		c0.086-0.244,0.18-0.472,0.297-0.752l0.396-0.941h0.992l-1.291,2.285v1.633H129.334z"/>
	<path fill="#FFFFFF" d="M132.023,45.746c-0.297,0-0.512-0.227-0.512-0.534c0-0.315,0.215-0.542,0.523-0.542
		c0.307,0,0.518,0.223,0.518,0.542c0,0.308-0.211,0.534-0.525,0.534H132.023z"/>
	<path fill="#FFFFFF" d="M138.264,43.502h0.35c0.441,0,0.703-0.222,0.703-0.563c0-0.361-0.244-0.541-0.652-0.548
		c-0.213,0-0.336,0.019-0.4,0.029V43.502z M137.385,41.816c0.285-0.046,0.711-0.08,1.182-0.08c0.582,0,0.988,0.086,1.268,0.308
		c0.232,0.184,0.359,0.458,0.359,0.819c0,0.498-0.355,0.842-0.691,0.965v0.017c0.273,0.11,0.424,0.373,0.523,0.733
		c0.123,0.44,0.244,0.953,0.32,1.104h-0.908c-0.063-0.115-0.154-0.43-0.271-0.912c-0.105-0.488-0.273-0.623-0.633-0.628h-0.27v1.54
		h-0.879V41.816z"/>
	<path fill="#FFFFFF" d="M141.766,41.763v2.256c0,0.674,0.258,1.017,0.709,1.017c0.467,0,0.723-0.325,0.723-1.017v-2.256h0.883
		v2.197c0,1.211-0.611,1.785-1.633,1.785c-0.988,0-1.57-0.547-1.57-1.796v-2.187H141.766z"/>
	<path fill="#FFFFFF" d="M144.891,44.769c0.238,0.122,0.605,0.244,0.982,0.244c0.406,0,0.623-0.168,0.623-0.424
		c0-0.244-0.188-0.385-0.658-0.553c-0.652-0.227-1.076-0.588-1.076-1.156c0-0.67,0.559-1.18,1.484-1.18c0.439,0,0.766,0.092,1,0.197
		l-0.199,0.715c-0.156-0.076-0.436-0.186-0.82-0.186c-0.383,0-0.568,0.174-0.568,0.377c0,0.251,0.221,0.361,0.727,0.553
		c0.691,0.255,1.018,0.616,1.018,1.168c0,0.656-0.506,1.221-1.582,1.221c-0.447,0-0.889-0.123-1.109-0.242L144.891,44.769z"/>
</g>
</svg>
