<?xml version="1.0" encoding="utf-8"?>
<!-- Generator: Adobe Illustrator 16.0.4, SVG Export Plug-In . SVG Version: 6.00 Build 0)  -->
<!DOCTYPE svg PUBLIC "-//W3C//DTD SVG 1.1//EN" "http://www.w3.org/Graphics/SVG/1.1/DTD/svg11.dtd">
<svg version="1.1" id="Layer_1" xmlns="http://www.w3.org/2000/svg" xmlns:xlink="http://www.w3.org/1999/xlink" x="0px" y="0px"
	 width="182px" height="29px" viewBox="0 0 182 29" enable-background="new 0 0 182 29" xml:space="preserve">
<g>
	<g>
		<path fill="#FFFFFF" d="M7.131,28.576v-5.117H5.627l-2.1,5.117H0.432l2.52-6.152c-0.58-0.402-1.018-0.906-1.314-1.508
			c-0.296-0.604-0.443-1.324-0.443-2.164c0-0.723,0.104-1.357,0.312-1.904c0.208-0.547,0.508-1.004,0.898-1.372
			c0.391-0.368,0.863-0.646,1.42-0.835s1.184-0.283,1.881-0.283h4.307v14.218H7.131z M4.074,18.977c0,0.789,0.14,1.359,0.42,1.715
			c0.279,0.354,0.716,0.531,1.309,0.531h1.328V16.75H5.705c-0.573,0-0.988,0.193-1.246,0.582
			C4.202,17.719,4.074,18.268,4.074,18.977z"/>
		<path fill="#FFFFFF" d="M15.528,23.576v5h-2.871V14.358h4.844c0.723,0,1.368,0.117,1.938,0.352s1.053,0.562,1.45,0.982
			c0.397,0.42,0.702,0.918,0.913,1.494s0.317,1.203,0.317,1.879c0,0.691-0.106,1.314-0.317,1.871s-0.516,1.029-0.913,1.42
			s-0.882,0.691-1.455,0.904c-0.573,0.211-1.218,0.316-1.934,0.316H15.528z M15.528,21.184h1.973c0.3,0,0.558-0.051,0.776-0.156
			c0.219-0.104,0.396-0.248,0.537-0.434s0.242-0.408,0.308-0.664c0.065-0.258,0.098-0.539,0.098-0.846
			c0-0.305-0.032-0.598-0.098-0.879c-0.065-0.279-0.167-0.527-0.308-0.742s-0.318-0.387-0.537-0.518
			c-0.219-0.129-0.477-0.195-0.776-0.195h-1.973V21.184z"/>
		<path fill="#FFFFFF" d="M28.184,14.358l2.686,10.283l2.676-10.283h3.75v14.218h-2.881v-3.848l0.264-5.928l-2.842,9.775h-1.953
			l-2.842-9.775l0.264,5.928v3.848h-2.871V14.358H28.184z"/>
		<path fill="#FFFFFF" d="M46.963,25.666h-3.916l-0.762,2.91h-3.037l4.443-14.218h2.627l4.473,14.218h-3.066L46.963,25.666z
			 M43.672,23.273h2.656L45,18.205L43.672,23.273z"/>
		<path fill="#FFFFFF" d="M55.391,23.576v5H52.52V14.358h4.844c0.723,0,1.369,0.117,1.938,0.352c0.57,0.234,1.053,0.562,1.451,0.982
			c0.396,0.42,0.701,0.918,0.912,1.494c0.213,0.576,0.318,1.203,0.318,1.879c0,0.691-0.105,1.314-0.318,1.871
			c-0.211,0.557-0.516,1.029-0.912,1.42c-0.398,0.391-0.883,0.691-1.455,0.904c-0.574,0.211-1.219,0.316-1.934,0.316H55.391z
			 M55.391,21.184h1.973c0.299,0,0.559-0.051,0.775-0.156c0.219-0.104,0.398-0.248,0.537-0.434c0.141-0.186,0.242-0.408,0.309-0.664
			c0.064-0.258,0.098-0.539,0.098-0.846c0-0.305-0.033-0.598-0.098-0.879c-0.066-0.279-0.168-0.527-0.309-0.742
			c-0.139-0.215-0.318-0.387-0.537-0.518c-0.217-0.129-0.477-0.195-0.775-0.195h-1.973V21.184z"/>
		<path fill="#FFFFFF" d="M74.307,22.746c0,0.996-0.125,1.873-0.371,2.627c-0.248,0.756-0.594,1.385-1.041,1.885
			c-0.445,0.502-0.982,0.879-1.611,1.133c-0.627,0.254-1.322,0.381-2.084,0.381s-1.459-0.127-2.09-0.381
			c-0.633-0.254-1.174-0.631-1.627-1.133c-0.451-0.5-0.803-1.129-1.055-1.885c-0.25-0.754-0.375-1.631-0.375-2.627v-2.363
			c0-1.021,0.123-1.922,0.371-2.699c0.246-0.779,0.596-1.428,1.045-1.949c0.449-0.52,0.988-0.913,1.621-1.176
			c0.631-0.264,1.328-0.396,2.09-0.396s1.457,0.132,2.084,0.396c0.629,0.264,1.17,0.656,1.621,1.176
			c0.453,0.521,0.803,1.17,1.051,1.949c0.246,0.777,0.371,1.678,0.371,2.699V22.746z M71.426,20.363
			c0-0.676-0.049-1.254-0.146-1.732s-0.242-0.871-0.43-1.178c-0.189-0.305-0.424-0.529-0.703-0.674
			c-0.281-0.143-0.604-0.215-0.967-0.215c-0.371,0-0.697,0.072-0.977,0.215c-0.281,0.145-0.516,0.369-0.703,0.674
			c-0.189,0.307-0.332,0.699-0.43,1.178s-0.146,1.057-0.146,1.732v2.383c0,0.645,0.049,1.197,0.146,1.656s0.242,0.834,0.434,1.127
			c0.193,0.293,0.43,0.508,0.713,0.645s0.611,0.205,0.982,0.205c0.363,0,0.686-0.068,0.961-0.205
			c0.277-0.137,0.51-0.352,0.699-0.645c0.188-0.293,0.33-0.668,0.424-1.127c0.096-0.459,0.143-1.012,0.143-1.656V20.363z"/>
		<path fill="#FFFFFF" d="M80.908,22.775h-1.25v5.801h-2.871V14.358h2.871v5.683h0.967l2.471-5.683h3.496l-3.477,6.621l3.867,7.598
			h-3.418L80.908,22.775z"/>
		<path fill="#FFFFFF" d="M93.455,28.576V14.358h4.395c0.711,0,1.346,0.078,1.91,0.234c0.562,0.156,1.039,0.396,1.43,0.718
			c0.391,0.323,0.689,0.727,0.895,1.215s0.307,1.064,0.307,1.729c0,0.326-0.033,0.639-0.102,0.938
			c-0.068,0.301-0.176,0.58-0.322,0.84c-0.146,0.262-0.332,0.496-0.557,0.709c-0.225,0.211-0.494,0.385-0.807,0.521
			c0.365,0.105,0.674,0.262,0.928,0.475c0.254,0.211,0.459,0.457,0.615,0.736c0.156,0.281,0.271,0.584,0.342,0.914
			c0.072,0.328,0.107,0.666,0.107,1.01c0,1.381-0.379,2.422-1.137,3.125c-0.76,0.703-1.857,1.055-3.297,1.055H93.455z
			 M96.326,20.305h1.494c0.574,0,0.998-0.148,1.275-0.443c0.275-0.297,0.414-0.73,0.414-1.305c0-0.645-0.129-1.105-0.391-1.387
			c-0.26-0.279-0.684-0.42-1.27-0.42h-1.523V20.305z M96.326,22.395v3.799h1.836c0.281,0,0.52-0.045,0.719-0.137
			c0.197-0.09,0.361-0.219,0.488-0.385s0.219-0.359,0.277-0.582c0.059-0.221,0.088-0.465,0.088-0.732
			c0-0.605-0.111-1.084-0.336-1.436s-0.604-0.527-1.139-0.527H96.326z"/>
		<path fill="#FFFFFF" d="M111.863,25.666h-3.916l-0.762,2.91h-3.037l4.443-14.218h2.627l4.473,14.218h-3.066L111.863,25.666z
			 M108.572,23.273h2.656l-1.328-5.068L108.572,23.273z"/>
		<path fill="#FFFFFF" d="M121.561,22.775h-1.25v5.801h-2.871V14.358h2.871v5.683h0.967l2.471-5.683h3.496l-3.477,6.621l3.867,7.598
			h-3.418L121.561,22.775z"/>
		<path fill="#FFFFFF" d="M135.887,25.666h-3.916l-0.762,2.91h-3.037l4.443-14.218h2.627l4.473,14.218h-3.066L135.887,25.666z
			 M132.596,23.273h2.656l-1.328-5.068L132.596,23.273z"/>
		<path fill="#FFFFFF" d="M151.412,28.576h-2.861v-6.084h-4.238v6.084h-2.871V14.358h2.871v5.751h4.238v-5.751h2.861V28.576z"/>
		<path fill="#FFFFFF" d="M163.756,23.84c-0.07,1.621-0.527,2.85-1.367,3.682c-0.84,0.834-2.023,1.25-3.555,1.25
			c-0.787,0-1.49-0.129-2.109-0.391c-0.617-0.26-1.139-0.646-1.562-1.162c-0.422-0.514-0.746-1.15-0.971-1.908
			c-0.225-0.76-0.338-1.633-0.338-2.623v-2.422c0-0.988,0.115-1.865,0.348-2.627c0.23-0.762,0.564-1.398,1-1.914
			c0.438-0.514,0.965-0.903,1.582-1.167c0.619-0.264,1.316-0.396,2.09-0.396c1.551,0,2.727,0.433,3.531,1.299
			c0.803,0.867,1.262,2.109,1.371,3.73h-2.881c-0.012-0.508-0.057-0.932-0.131-1.273c-0.076-0.342-0.191-0.613-0.348-0.816
			c-0.156-0.201-0.359-0.344-0.609-0.43c-0.252-0.084-0.562-0.127-0.934-0.127c-0.383,0-0.711,0.066-0.98,0.195
			c-0.271,0.131-0.49,0.34-0.66,0.631c-0.168,0.289-0.295,0.67-0.375,1.143c-0.082,0.471-0.123,1.049-0.123,1.732v2.441
			c0,0.664,0.033,1.23,0.098,1.699c0.066,0.469,0.18,0.852,0.342,1.148c0.164,0.295,0.379,0.512,0.645,0.648
			c0.268,0.137,0.605,0.205,1.016,0.205c0.352,0,0.652-0.037,0.904-0.111c0.25-0.076,0.457-0.207,0.619-0.396
			c0.164-0.188,0.287-0.449,0.371-0.781c0.086-0.332,0.137-0.752,0.156-1.26H163.756z"/>
		<path fill="#FFFFFF" d="M168.922,28.576h-2.871V14.358h2.871V28.576z"/>
		<path fill="#FFFFFF" d="M178.697,14.358h2.871v14.218h-2.871v-9.414l-4.189,9.414h-2.881V14.358h2.881v9.423L178.697,14.358z
			 M180.006,10.608c0,0.43-0.08,0.822-0.24,1.177c-0.158,0.354-0.385,0.659-0.678,0.913s-0.648,0.452-1.064,0.596
			c-0.418,0.144-0.887,0.215-1.406,0.215c-0.521,0-0.992-0.071-1.412-0.215s-0.775-0.342-1.068-0.596s-0.52-0.559-0.68-0.913
			c-0.158-0.354-0.238-0.747-0.238-1.177h2.021c0,0.169,0.023,0.33,0.072,0.483s0.129,0.288,0.24,0.405
			c0.109,0.117,0.252,0.212,0.424,0.283c0.174,0.071,0.387,0.107,0.641,0.107c0.246,0,0.457-0.036,0.629-0.107
			c0.174-0.071,0.312-0.166,0.42-0.283s0.186-0.252,0.234-0.405s0.074-0.314,0.074-0.483H180.006z"/>
	</g>
	<g>
		<path fill="#FFFFFF" d="M2.463,3.189l-0.66,0.766v2.039H1.357V0.306h0.445v3.031l0.625-0.781l1.762-2.25h0.559L2.764,2.837
			L4.9,5.994H4.357L2.463,3.189z"/>
		<path fill="#FFFFFF" d="M6.623,5.279l1.008-3.512h0.465L6.607,6.669C6.576,6.766,6.537,6.874,6.49,6.994S6.381,7.225,6.303,7.33
			S6.129,7.522,6.016,7.593S5.765,7.701,5.604,7.701c-0.023,0-0.05-0.002-0.078-0.006C5.496,7.691,5.467,7.686,5.438,7.681
			C5.407,7.676,5.379,7.67,5.354,7.664C5.327,7.657,5.307,7.651,5.291,7.646L5.287,7.248c0.025,0.008,0.061,0.015,0.104,0.02
			s0.074,0.008,0.096,0.008c0.104,0,0.195-0.017,0.275-0.049c0.079-0.032,0.149-0.081,0.211-0.145
			c0.061-0.063,0.115-0.144,0.162-0.238s0.088-0.205,0.125-0.33l0.164-0.547L5.096,1.767h0.477L6.623,5.279z"/>
		<path fill="#FFFFFF" d="M8.83,0.548c0-0.089,0.024-0.164,0.074-0.227c0.049-0.062,0.119-0.094,0.211-0.094
			c0.091,0,0.162,0.031,0.213,0.094s0.076,0.138,0.076,0.227S9.379,0.711,9.328,0.773S9.206,0.865,9.115,0.865
			c-0.092,0-0.162-0.03-0.211-0.092C8.854,0.711,8.83,0.637,8.83,0.548z M9.33,5.994H8.893V1.767H9.33V5.994z"/>
		<path fill="#FFFFFF" d="M11.65,5.314l1.039-3.547h0.445l-1.316,4.227h-0.344L10.15,1.767h0.445L11.65,5.314z"/>
		<path fill="#FFFFFF" d="M16.26,3.681v2.312h-0.445V0.306h1.652c0.266,0,0.499,0.042,0.701,0.125c0.201,0.083,0.371,0.2,0.508,0.35
			s0.239,0.329,0.309,0.537c0.068,0.208,0.104,0.438,0.104,0.688c0,0.263-0.035,0.499-0.104,0.707
			c-0.069,0.208-0.172,0.384-0.309,0.527s-0.307,0.253-0.508,0.328c-0.202,0.075-0.436,0.113-0.701,0.113H16.26z M16.26,3.263h1.207
			c0.208,0,0.387-0.032,0.535-0.096s0.27-0.151,0.365-0.264c0.095-0.112,0.164-0.244,0.209-0.396
			c0.044-0.152,0.066-0.317,0.066-0.494c0-0.172-0.022-0.336-0.066-0.492c-0.045-0.156-0.114-0.293-0.209-0.41
			c-0.096-0.117-0.217-0.21-0.365-0.279s-0.327-0.104-0.535-0.104H16.26V3.263z"/>
		<path fill="#FFFFFF" d="M19.818,3.666c0-0.32,0.037-0.603,0.113-0.848c0.075-0.245,0.181-0.451,0.316-0.619
			c0.135-0.168,0.297-0.295,0.486-0.381c0.188-0.086,0.397-0.129,0.627-0.129c0.231,0,0.442,0.043,0.633,0.129
			c0.189,0.086,0.353,0.213,0.488,0.381c0.135,0.168,0.24,0.374,0.314,0.619s0.111,0.527,0.111,0.848v0.438
			c0,0.32-0.037,0.603-0.111,0.848s-0.18,0.45-0.314,0.615c-0.136,0.165-0.298,0.291-0.486,0.377
			c-0.189,0.086-0.398,0.129-0.627,0.129c-0.232,0-0.443-0.043-0.633-0.129c-0.19-0.086-0.354-0.212-0.488-0.377
			c-0.136-0.165-0.241-0.37-0.316-0.615c-0.076-0.245-0.113-0.527-0.113-0.848V3.666z M20.256,4.103c0,0.242,0.024,0.46,0.074,0.652
			c0.049,0.192,0.121,0.356,0.217,0.492c0.095,0.136,0.211,0.239,0.35,0.312c0.138,0.073,0.295,0.109,0.473,0.109
			c0.188,0,0.35-0.036,0.488-0.109c0.138-0.073,0.252-0.177,0.344-0.312c0.091-0.136,0.159-0.3,0.205-0.492
			c0.045-0.192,0.068-0.41,0.068-0.652V3.666c0-0.237-0.025-0.452-0.074-0.646c-0.05-0.194-0.122-0.359-0.217-0.496
			c-0.096-0.137-0.212-0.242-0.35-0.316c-0.139-0.074-0.296-0.111-0.473-0.111c-0.175,0-0.33,0.037-0.467,0.111
			s-0.253,0.18-0.348,0.316c-0.096,0.137-0.168,0.302-0.217,0.496c-0.05,0.194-0.074,0.409-0.074,0.646V4.103z"/>
		<path fill="#FFFFFF" d="M26.021,4.955c0-0.086-0.017-0.167-0.049-0.242c-0.033-0.075-0.086-0.148-0.16-0.219
			s-0.172-0.142-0.293-0.215s-0.271-0.151-0.451-0.234c-0.193-0.086-0.365-0.169-0.516-0.248c-0.151-0.079-0.278-0.165-0.381-0.258
			c-0.104-0.093-0.182-0.196-0.236-0.312s-0.082-0.253-0.082-0.412c0-0.156,0.029-0.303,0.088-0.439s0.143-0.256,0.252-0.357
			s0.242-0.182,0.398-0.24s0.33-0.088,0.523-0.088c0.205,0,0.391,0.03,0.555,0.092s0.303,0.146,0.416,0.256s0.199,0.24,0.26,0.393
			c0.06,0.152,0.09,0.318,0.09,0.498h-0.434c0-0.109-0.02-0.214-0.059-0.314s-0.097-0.188-0.172-0.266
			c-0.076-0.077-0.168-0.138-0.277-0.184s-0.236-0.068-0.379-0.068c-0.148,0-0.275,0.021-0.379,0.061
			c-0.104,0.04-0.19,0.094-0.258,0.16c-0.068,0.066-0.117,0.142-0.148,0.227s-0.047,0.17-0.047,0.256s0.013,0.162,0.039,0.229
			c0.025,0.066,0.073,0.131,0.143,0.193c0.068,0.062,0.162,0.127,0.279,0.193s0.268,0.144,0.453,0.232
			c0.195,0.086,0.371,0.169,0.527,0.25s0.288,0.17,0.396,0.268c0.107,0.098,0.191,0.208,0.25,0.33s0.088,0.269,0.088,0.438
			c0,0.175-0.031,0.332-0.094,0.473s-0.152,0.261-0.268,0.359c-0.116,0.099-0.256,0.175-0.418,0.229
			c-0.163,0.054-0.344,0.08-0.541,0.08c-0.229,0-0.432-0.033-0.605-0.1c-0.175-0.066-0.321-0.155-0.439-0.268
			c-0.119-0.112-0.209-0.242-0.27-0.391c-0.062-0.148-0.092-0.306-0.092-0.473h0.438c0.008,0.167,0.042,0.304,0.104,0.41
			c0.061,0.106,0.137,0.191,0.229,0.254c0.091,0.062,0.192,0.105,0.305,0.129c0.111,0.023,0.223,0.035,0.332,0.035
			c0.143,0,0.27-0.019,0.381-0.057c0.11-0.038,0.203-0.089,0.277-0.152s0.13-0.14,0.168-0.227
			C26.002,5.147,26.021,5.053,26.021,4.955z"/>
		<path fill="#FFFFFF" d="M28.131,0.689v1.078h0.723v0.391h-0.723v2.809c0,0.146,0.012,0.264,0.037,0.354
			c0.024,0.09,0.058,0.159,0.1,0.209c0.041,0.05,0.089,0.083,0.143,0.1c0.053,0.017,0.109,0.025,0.17,0.025
			c0.057,0,0.113-0.005,0.168-0.014s0.103-0.018,0.145-0.025l0.012,0.391c-0.047,0.021-0.109,0.037-0.186,0.049
			c-0.077,0.012-0.157,0.018-0.24,0.018c-0.112,0-0.216-0.019-0.311-0.055c-0.096-0.036-0.178-0.098-0.248-0.184
			s-0.125-0.2-0.164-0.342s-0.059-0.318-0.059-0.529V2.158h-0.652V1.767h0.652V0.689H28.131z"/>
	</g>
</g>
</svg>
