<?xml version="1.0" encoding="utf-8"?>
<!-- Generator: Adobe Illustrator 16.0.3, SVG Export Plug-In . SVG Version: 6.00 Build 0)  -->
<!DOCTYPE svg PUBLIC "-//W3C//DTD SVG 1.1//EN" "http://www.w3.org/Graphics/SVG/1.1/DTD/svg11.dtd">
<svg version="1.1" id="Layer_1" xmlns="http://www.w3.org/2000/svg" xmlns:xlink="http://www.w3.org/1999/xlink" x="0px" y="0px"
	 width="167px" height="23px" viewBox="0 0 167 23" enable-background="new 0 0 167 23" xml:space="preserve">
<g>
	<polygon fill="#EF5451" points="29.993,1.397 27.255,2.38 23.049,3.891 19.995,4.994 16.862,6.113 12.914,7.531 8.483,9.117 
		4.672,10.479 4.672,10.489 0.188,12.094 4.672,14.15 7.228,15.333 10.599,13.394 14.888,10.926 18.428,8.889 19.997,7.981 
		24.685,5.291 26.803,4.072 29.524,2.508 33.882,0 	"/>
	<polygon fill="#EF5451" points="28.88,3.833 25.905,6.113 20.608,10.17 17.805,12.318 13.236,15.82 11.024,17.515 15.019,19.413 
		15.019,19.413 19.748,21.663 22.229,17.857 23.993,15.154 26.377,11.5 28.88,7.667 29.993,5.96 32.063,2.79 33.882,0 	"/>
	<polygon fill="#D32E2E" points="26.803,4.072 24.685,5.291 19.997,7.981 18.428,8.889 14.888,10.926 10.599,13.394 7.228,15.333 
		10.11,23 10.5,20.663 10.766,19.067 11.024,17.515 11.024,17.514 15.136,14.364 17.805,12.318 20.608,10.17 22.964,8.364 
		25.905,6.113 28.88,3.833 33.882,0 	"/>
	<polygon fill="#B72025" points="11.024,17.515 10.766,19.067 10.11,23 12.438,20.811 14.292,19.065 	"/>
	<g>
		<path fill="#F1F1F2" d="M41.906,20.467v-3.664H40.83l-1.504,3.664H37.11l1.804-4.405c-0.416-0.289-0.729-0.649-0.941-1.081
			s-0.317-0.947-0.317-1.549c0-0.517,0.074-0.972,0.224-1.363c0.149-0.392,0.363-0.719,0.643-0.982
			c0.28-0.264,0.619-0.463,1.017-0.598c0.398-0.135,0.847-0.203,1.347-0.203h3.083v10.182H41.906z M39.718,13.593
			c0,0.564,0.1,0.974,0.3,1.228s0.513,0.381,0.937,0.381h0.951v-3.202h-1.02c-0.411,0-0.708,0.139-0.893,0.415
			C39.81,12.692,39.718,13.084,39.718,13.593z"/>
		<path fill="#F1F1F2" d="M47.919,16.886v3.581h-2.055V10.285h3.468c0.518,0,0.979,0.084,1.388,0.252
			c0.408,0.167,0.753,0.402,1.038,0.703c0.285,0.3,0.504,0.657,0.654,1.07c0.151,0.413,0.228,0.862,0.228,1.347
			c0,0.494-0.077,0.939-0.228,1.338c-0.15,0.399-0.37,0.739-0.654,1.018c-0.284,0.28-0.63,0.496-1.042,0.647
			c-0.411,0.152-0.872,0.227-1.384,0.227H47.919z M47.919,15.173h1.413c0.214,0,0.399-0.037,0.556-0.112
			c0.156-0.074,0.284-0.178,0.385-0.311c0.1-0.133,0.173-0.292,0.22-0.476s0.07-0.386,0.07-0.605c0-0.218-0.023-0.428-0.07-0.629
			c-0.047-0.2-0.12-0.377-0.22-0.531c-0.101-0.153-0.229-0.277-0.385-0.37c-0.157-0.093-0.342-0.14-0.556-0.14h-1.413V15.173z"/>
		<path fill="#F1F1F2" d="M56.981,10.285l1.923,7.363l1.916-7.363h2.685v10.182h-2.063v-2.756l0.189-4.244l-2.035,7h-1.398l-2.035-7
			l0.189,4.244v2.756h-2.056V10.285H56.981z"/>
		<path fill="#F1F1F2" d="M70.428,18.383h-2.804l-0.546,2.084h-2.175l3.182-10.182h1.881l3.203,10.182h-2.196L70.428,18.383z
			 M68.071,16.67h1.901l-0.951-3.63L68.071,16.67z"/>
		<path fill="#F1F1F2" d="M76.462,16.886v3.581h-2.055V10.285h3.467c0.518,0,0.981,0.084,1.388,0.252
			c0.408,0.167,0.753,0.402,1.039,0.703c0.285,0.3,0.502,0.657,0.653,1.07c0.152,0.413,0.228,0.862,0.228,1.347
			c0,0.494-0.076,0.939-0.228,1.338c-0.151,0.399-0.369,0.739-0.653,1.018c-0.286,0.28-0.632,0.496-1.042,0.647
			c-0.411,0.152-0.874,0.227-1.385,0.227H76.462z M76.462,15.173h1.412c0.214,0,0.4-0.037,0.556-0.112
			c0.157-0.074,0.286-0.178,0.385-0.311c0.1-0.133,0.173-0.292,0.221-0.476c0.045-0.184,0.07-0.386,0.07-0.605
			c0-0.218-0.024-0.428-0.07-0.629c-0.048-0.2-0.121-0.377-0.221-0.531c-0.099-0.153-0.228-0.277-0.385-0.37
			c-0.155-0.093-0.341-0.14-0.556-0.14h-1.412V15.173z"/>
		<path fill="#F1F1F2" d="M90.007,16.292c0,0.714-0.089,1.341-0.266,1.881c-0.178,0.541-0.425,0.991-0.745,1.35
			c-0.318,0.359-0.703,0.63-1.153,0.812c-0.449,0.182-0.947,0.272-1.493,0.272c-0.545,0-1.044-0.091-1.495-0.272
			c-0.454-0.182-0.842-0.452-1.166-0.812c-0.324-0.358-0.576-0.809-0.755-1.35c-0.18-0.54-0.269-1.167-0.269-1.881V14.6
			c0-0.731,0.088-1.376,0.266-1.934c0.176-0.557,0.426-1.022,0.748-1.395c0.322-0.373,0.708-0.654,1.161-0.843
			c0.451-0.188,0.951-0.282,1.497-0.282c0.544,0,1.042,0.094,1.491,0.282c0.45,0.189,0.838,0.47,1.161,0.843
			c0.324,0.373,0.574,0.838,0.752,1.395c0.177,0.558,0.266,1.202,0.266,1.934V16.292z M87.944,14.586
			c0-0.485-0.034-0.898-0.104-1.241s-0.174-0.623-0.309-0.843c-0.135-0.219-0.303-0.38-0.503-0.482
			c-0.201-0.103-0.433-0.154-0.691-0.154c-0.266,0-0.5,0.051-0.7,0.154c-0.201,0.103-0.369,0.264-0.504,0.482
			c-0.136,0.22-0.237,0.5-0.307,0.843c-0.07,0.343-0.104,0.756-0.104,1.241v1.706c0,0.461,0.034,0.856,0.104,1.186
			c0.069,0.328,0.173,0.598,0.31,0.808c0.139,0.21,0.308,0.363,0.511,0.461c0.202,0.099,0.438,0.147,0.703,0.147
			c0.261,0,0.491-0.049,0.688-0.147c0.199-0.098,0.365-0.251,0.501-0.461c0.134-0.21,0.236-0.479,0.304-0.808
			c0.068-0.329,0.102-0.725,0.102-1.186V14.586z"/>
		<path fill="#F1F1F2" d="M94.734,16.313H93.84v4.153h-2.057V10.285h2.057v4.07h0.691l1.77-4.07h2.504l-2.49,4.741l2.769,5.44
			h-2.447L94.734,16.313z"/>
		<path fill="#F1F1F2" d="M103.719,20.467V10.285h3.146c0.509,0,0.964,0.056,1.368,0.167c0.402,0.112,0.743,0.284,1.022,0.515
			c0.28,0.23,0.494,0.521,0.642,0.871c0.146,0.349,0.219,0.762,0.219,1.237c0,0.233-0.023,0.457-0.072,0.672
			c-0.05,0.214-0.126,0.415-0.231,0.601c-0.104,0.188-0.237,0.355-0.398,0.508c-0.161,0.151-0.354,0.275-0.577,0.374
			c0.261,0.075,0.482,0.188,0.664,0.339s0.329,0.327,0.441,0.527c0.111,0.201,0.193,0.419,0.244,0.654
			c0.052,0.236,0.076,0.477,0.076,0.724c0,0.988-0.271,1.734-0.813,2.237c-0.545,0.504-1.331,0.756-2.361,0.756H103.719z
			 M105.773,14.544h1.071c0.41,0,0.714-0.106,0.912-0.318c0.197-0.212,0.297-0.522,0.297-0.934c0-0.461-0.092-0.792-0.28-0.993
			c-0.185-0.2-0.489-0.3-0.908-0.3h-1.092V14.544z M105.773,16.04v2.721h1.315c0.201,0,0.372-0.033,0.515-0.099
			c0.142-0.064,0.258-0.157,0.35-0.276c0.091-0.118,0.156-0.257,0.198-0.415c0.043-0.159,0.063-0.334,0.063-0.525
			c0-0.433-0.08-0.775-0.241-1.027c-0.16-0.252-0.432-0.378-0.814-0.378H105.773z"/>
		<path fill="#F1F1F2" d="M116.899,18.383h-2.804l-0.546,2.084h-2.175l3.182-10.182h1.882l3.202,10.182h-2.195L116.899,18.383z
			 M114.543,16.67h1.901l-0.95-3.63L114.543,16.67z"/>
		<path fill="#F1F1F2" d="M123.843,16.313h-0.895v4.153h-2.057V10.285h2.057v4.07h0.692l1.769-4.07h2.504l-2.489,4.741l2.769,5.44
			h-2.447L123.843,16.313z"/>
		<path fill="#F1F1F2" d="M134.101,18.383h-2.804l-0.546,2.084h-2.174l3.181-10.182h1.882l3.202,10.182h-2.195L134.101,18.383z
			 M131.744,16.67h1.902l-0.95-3.63L131.744,16.67z"/>
		<path fill="#F1F1F2" d="M145.218,20.467h-2.049V16.11h-3.034v4.356h-2.057V10.285h2.057v4.119h3.034v-4.119h2.049V20.467z"/>
		<path fill="#F1F1F2" d="M154.057,17.075c-0.051,1.16-0.377,2.04-0.979,2.636c-0.601,0.597-1.448,0.896-2.545,0.896
			c-0.563,0-1.067-0.093-1.51-0.279c-0.442-0.188-0.816-0.464-1.119-0.833c-0.303-0.368-0.535-0.823-0.695-1.366
			c-0.16-0.544-0.242-1.17-0.242-1.878v-1.733c0-0.709,0.083-1.337,0.249-1.882c0.165-0.545,0.404-1.002,0.716-1.371
			c0.313-0.369,0.691-0.646,1.133-0.836c0.443-0.188,0.943-0.282,1.496-0.282c1.111,0,1.952,0.31,2.529,0.929
			c0.574,0.621,0.903,1.511,0.981,2.672h-2.063c-0.009-0.364-0.04-0.668-0.094-0.912c-0.055-0.245-0.138-0.44-0.249-0.584
			c-0.112-0.146-0.257-0.247-0.436-0.308c-0.181-0.061-0.403-0.091-0.67-0.091c-0.273,0-0.509,0.047-0.701,0.139
			c-0.194,0.094-0.352,0.243-0.473,0.451c-0.12,0.208-0.212,0.481-0.269,0.818c-0.06,0.338-0.088,0.752-0.088,1.241v1.748
			c0,0.476,0.023,0.881,0.069,1.217c0.048,0.335,0.129,0.609,0.245,0.822c0.117,0.211,0.271,0.366,0.461,0.464
			c0.191,0.099,0.435,0.147,0.728,0.147c0.251,0,0.468-0.026,0.647-0.081c0.18-0.054,0.327-0.147,0.443-0.282
			c0.118-0.135,0.206-0.322,0.266-0.56c0.062-0.238,0.099-0.538,0.111-0.902H154.057z"/>
		<path fill="#F1F1F2" d="M157.756,20.467H155.7V10.285h2.056V20.467z"/>
		<path fill="#F1F1F2" d="M164.755,10.285h2.057v10.182h-2.057v-6.741l-2.999,6.741h-2.063V10.285h2.063v6.748L164.755,10.285z
			 M165.692,7.6c0,0.308-0.058,0.589-0.173,0.843c-0.113,0.254-0.274,0.472-0.484,0.654c-0.21,0.182-0.464,0.324-0.763,0.427
			s-0.635,0.153-1.006,0.153c-0.375,0-0.712-0.05-1.012-0.153c-0.301-0.103-0.556-0.245-0.765-0.427
			c-0.21-0.182-0.373-0.4-0.487-0.654c-0.113-0.254-0.171-0.535-0.171-0.843h1.448c0,0.121,0.017,0.236,0.051,0.346
			c0.036,0.11,0.093,0.207,0.173,0.291c0.078,0.083,0.181,0.151,0.303,0.203c0.125,0.051,0.277,0.077,0.46,0.077
			c0.176,0,0.326-0.026,0.45-0.077c0.124-0.051,0.224-0.119,0.3-0.203c0.077-0.084,0.133-0.181,0.168-0.291s0.053-0.225,0.053-0.346
			H165.692z"/>
	</g>
	<g>
		<path fill="#F1F1F2" d="M38.883,2.859l-0.591,0.686V5.37h-0.398V0.279h0.398v2.713l0.56-0.699l1.577-2.014h0.5l-1.776,2.266
			l1.913,2.825h-0.487L38.883,2.859z"/>
		<path fill="#F1F1F2" d="M42.607,4.73l0.902-3.143h0.417l-1.333,4.388c-0.028,0.086-0.063,0.183-0.105,0.29s-0.098,0.208-0.167,0.3
			c-0.07,0.093-0.155,0.172-0.257,0.237c-0.101,0.064-0.224,0.096-0.369,0.096c-0.021,0-0.044-0.002-0.07-0.005
			c-0.025-0.004-0.052-0.008-0.079-0.013c-0.026-0.005-0.052-0.01-0.075-0.015c-0.023-0.007-0.042-0.011-0.056-0.016l-0.003-0.356
			c0.024,0.006,0.055,0.012,0.093,0.017c0.039,0.005,0.067,0.007,0.086,0.007c0.093,0,0.176-0.015,0.247-0.043
			c0.07-0.03,0.133-0.073,0.188-0.13c0.055-0.057,0.103-0.127,0.145-0.212s0.08-0.184,0.112-0.296l0.147-0.489L41.24,1.587h0.427
			L42.607,4.73z"/>
		<path fill="#F1F1F2" d="M44.583,0.496c0-0.079,0.021-0.147,0.066-0.203c0.045-0.056,0.108-0.084,0.189-0.084
			c0.08,0,0.145,0.028,0.19,0.084c0.046,0.056,0.068,0.124,0.068,0.203c0,0.079-0.022,0.146-0.068,0.201
			c-0.045,0.054-0.11,0.082-0.19,0.082c-0.082,0-0.145-0.028-0.189-0.082C44.604,0.642,44.583,0.575,44.583,0.496z M45.03,5.37
			h-0.392V1.587h0.392V5.37z"/>
		<path fill="#F1F1F2" d="M47.107,4.761l0.93-3.174h0.398L47.257,5.37H46.95l-1.185-3.783h0.398L47.107,4.761z"/>
		<path fill="#F1F1F2" d="M51.232,3.3v2.07h-0.397V0.279h1.479c0.238,0,0.446,0.037,0.628,0.112
			c0.181,0.075,0.332,0.179,0.454,0.313c0.122,0.133,0.214,0.293,0.276,0.48c0.062,0.187,0.093,0.392,0.093,0.615
			c0,0.236-0.031,0.446-0.093,0.633c-0.062,0.187-0.154,0.344-0.276,0.472c-0.123,0.128-0.273,0.226-0.454,0.293
			C52.759,3.266,52.551,3.3,52.313,3.3H51.232z M51.232,2.926h1.081c0.186,0,0.346-0.029,0.479-0.086
			c0.133-0.056,0.242-0.135,0.327-0.235c0.085-0.1,0.148-0.219,0.188-0.354c0.039-0.137,0.059-0.284,0.059-0.443
			c0-0.153-0.02-0.3-0.059-0.44c-0.04-0.14-0.102-0.262-0.188-0.367c-0.085-0.105-0.193-0.188-0.327-0.25
			c-0.133-0.061-0.293-0.092-0.479-0.092h-1.081V2.926z"/>
		<path fill="#F1F1F2" d="M54.418,3.286c0-0.287,0.034-0.54,0.101-0.758c0.068-0.219,0.162-0.404,0.283-0.555
			c0.122-0.149,0.266-0.264,0.436-0.34c0.168-0.077,0.356-0.116,0.562-0.116c0.207,0,0.396,0.039,0.566,0.116
			c0.169,0.077,0.315,0.191,0.437,0.34c0.122,0.151,0.215,0.335,0.281,0.555c0.067,0.219,0.1,0.472,0.1,0.758v0.392
			c0,0.286-0.033,0.54-0.1,0.758c-0.065,0.219-0.159,0.403-0.281,0.55c-0.122,0.148-0.267,0.261-0.435,0.338
			c-0.169,0.077-0.356,0.115-0.562,0.115c-0.208,0-0.397-0.039-0.566-0.115c-0.17-0.077-0.315-0.189-0.437-0.338
			c-0.122-0.147-0.215-0.331-0.283-0.55c-0.067-0.219-0.101-0.472-0.101-0.758V3.286z M54.809,3.678
			c0,0.216,0.022,0.411,0.066,0.583s0.109,0.319,0.194,0.44c0.085,0.121,0.19,0.215,0.313,0.28c0.123,0.065,0.264,0.098,0.423,0.098
			c0.167,0,0.313-0.033,0.437-0.098c0.123-0.065,0.227-0.159,0.308-0.28c0.081-0.121,0.142-0.268,0.182-0.44
			c0.042-0.173,0.062-0.367,0.062-0.583V3.286c0-0.212-0.022-0.405-0.066-0.579s-0.108-0.322-0.194-0.444
			c-0.085-0.123-0.19-0.216-0.313-0.284c-0.124-0.065-0.265-0.099-0.423-0.099c-0.156,0-0.297,0.034-0.418,0.099
			c-0.123,0.067-0.227,0.161-0.312,0.284c-0.084,0.122-0.15,0.27-0.194,0.444s-0.066,0.367-0.066,0.579V3.678z"/>
		<path fill="#F1F1F2" d="M59.969,4.44c0-0.077-0.014-0.149-0.043-0.217c-0.029-0.068-0.077-0.133-0.144-0.196
			c-0.065-0.063-0.153-0.127-0.261-0.192c-0.109-0.065-0.243-0.135-0.404-0.21c-0.172-0.077-0.326-0.151-0.461-0.222
			c-0.136-0.072-0.249-0.148-0.341-0.23c-0.092-0.083-0.162-0.177-0.211-0.28c-0.049-0.104-0.073-0.227-0.073-0.369
			c0-0.14,0.026-0.271,0.079-0.393c0.052-0.123,0.127-0.229,0.226-0.32s0.217-0.163,0.356-0.215
			c0.141-0.052,0.297-0.079,0.469-0.079c0.185,0,0.349,0.028,0.496,0.083c0.147,0.054,0.271,0.13,0.373,0.228
			c0.102,0.098,0.179,0.215,0.232,0.352c0.055,0.136,0.081,0.285,0.081,0.445h-0.387c0-0.098-0.018-0.192-0.053-0.282
			c-0.035-0.09-0.087-0.169-0.154-0.237c-0.066-0.069-0.149-0.124-0.248-0.164c-0.098-0.041-0.21-0.062-0.339-0.062
			c-0.133,0-0.246,0.018-0.339,0.055c-0.093,0.036-0.169,0.083-0.23,0.143c-0.061,0.06-0.104,0.127-0.133,0.203
			c-0.028,0.076-0.042,0.152-0.042,0.229s0.012,0.146,0.035,0.204c0.023,0.06,0.066,0.118,0.128,0.173
			c0.062,0.056,0.145,0.113,0.25,0.173c0.105,0.059,0.24,0.129,0.405,0.208c0.175,0.077,0.332,0.151,0.472,0.224
			c0.14,0.072,0.258,0.152,0.355,0.24c0.097,0.087,0.17,0.185,0.224,0.295c0.052,0.11,0.079,0.24,0.079,0.392
			c0,0.156-0.028,0.297-0.084,0.423s-0.136,0.232-0.239,0.321c-0.105,0.089-0.229,0.157-0.375,0.205
			c-0.146,0.048-0.306,0.071-0.484,0.071c-0.206,0-0.386-0.029-0.542-0.089c-0.156-0.059-0.288-0.139-0.394-0.239
			c-0.105-0.1-0.186-0.217-0.241-0.35s-0.082-0.274-0.082-0.423h0.392c0.006,0.148,0.037,0.271,0.092,0.367
			c0.055,0.096,0.124,0.172,0.205,0.228c0.083,0.056,0.173,0.094,0.273,0.116c0.099,0.021,0.198,0.031,0.297,0.031
			c0.129,0,0.242-0.017,0.341-0.051c0.098-0.034,0.182-0.079,0.247-0.136c0.067-0.058,0.117-0.125,0.152-0.203
			C59.953,4.611,59.969,4.528,59.969,4.44z"/>
		<path fill="#F1F1F2" d="M61.858,0.622v0.965h0.647v0.35h-0.647V4.45c0,0.13,0.011,0.236,0.034,0.317
			c0.021,0.079,0.052,0.143,0.089,0.187c0.037,0.044,0.08,0.074,0.127,0.089c0.048,0.016,0.098,0.023,0.151,0.023
			c0.052,0,0.102-0.004,0.151-0.012c0.049-0.008,0.093-0.017,0.129-0.023l0.011,0.35c-0.042,0.019-0.097,0.033-0.166,0.044
			c-0.069,0.009-0.14,0.015-0.215,0.015c-0.1,0-0.192-0.016-0.277-0.049c-0.086-0.033-0.16-0.087-0.223-0.164
			c-0.063-0.077-0.112-0.179-0.147-0.306c-0.035-0.127-0.052-0.286-0.052-0.475v-2.51h-0.584v-0.35h0.584V0.622H61.858z"/>
	</g>
</g>
</svg>
