<?xml version="1.0" encoding="utf-8"?>
<!-- Generator: Adobe Illustrator 16.0.4, SVG Export Plug-In . SVG Version: 6.00 Build 0)  -->
<!DOCTYPE svg PUBLIC "-//W3C//DTD SVG 1.1//EN" "http://www.w3.org/Graphics/SVG/1.1/DTD/svg11.dtd">
<svg version="1.1" id="Layer_1" xmlns="http://www.w3.org/2000/svg" xmlns:xlink="http://www.w3.org/1999/xlink" x="0px" y="0px"
	 width="227px" height="33px" viewBox="0 0 227 33" enable-background="new 0 0 227 33" xml:space="preserve">
<g>
	<polygon fill="#E94947" points="41.899,2.438 38.075,3.811 32.201,5.92 27.936,7.461 23.561,9.024 18.047,11.004 11.859,13.219 
		6.537,15.122 6.537,15.135 0.275,17.375 6.537,20.248 10.105,21.9 14.814,19.191 20.805,15.747 25.748,12.901 27.938,11.633 
		34.486,7.875 37.444,6.174 41.245,3.989 47.33,0.487 	"/>
	<polygon fill="#E94947" points="40.345,5.84 36.189,9.024 28.793,14.69 24.877,17.689 18.496,22.58 15.408,24.947 20.986,27.598 
		20.986,27.598 27.59,30.74 31.055,25.426 33.52,21.65 36.85,16.547 40.345,11.194 41.899,8.811 44.79,4.383 47.33,0.487 	"/>
	<polygon fill="#D12422" points="37.444,6.174 34.486,7.875 27.938,11.633 25.748,12.901 20.805,15.747 14.814,19.191 10.105,21.9 
		14.131,32.607 14.676,29.344 15.047,27.115 15.408,24.947 15.408,24.945 21.15,20.547 24.877,17.689 28.793,14.69 32.082,12.168 
		36.189,9.024 40.345,5.84 47.33,0.487 	"/>
	<polygon fill="#B61918" points="15.408,24.947 15.047,27.115 14.131,32.607 17.381,29.549 19.971,27.113 	"/>
	<g>
		<path fill="#231F20" d="M54.738,29.309H51.75l2.559-6.201c-0.593-0.396-1.039-0.898-1.338-1.506
			c-0.3-0.609-0.449-1.322-0.449-2.141c0-1.406,0.398-2.485,1.195-3.239c0.798-0.755,1.903-1.132,3.316-1.132h4.297v14.218h-2.773
			v-5.215h-1.66L54.738,29.309z M58.557,17.307h-1.523c-0.58,0-1.015,0.195-1.305,0.585c-0.289,0.391-0.434,0.961-0.434,1.709
			c0,0.736,0.15,1.322,0.453,1.758c0.303,0.438,0.751,0.654,1.344,0.654h1.465V17.307z"/>
		<path fill="#231F20" d="M66.554,24.201v5.107h-2.783V15.09h4.941c1.419,0,2.539,0.42,3.359,1.259s1.23,1.938,1.23,3.297
			c0,1.365-0.411,2.467-1.235,3.301c-0.824,0.836-1.941,1.254-3.354,1.254H66.554z M66.554,21.984h2.158
			c0.593,0,1.045-0.219,1.357-0.654c0.312-0.438,0.469-0.992,0.469-1.664c0-0.68-0.155-1.242-0.464-1.689
			c-0.309-0.445-0.764-0.669-1.362-0.669h-2.158V21.984z"/>
		<path fill="#231F20" d="M79.033,15.09l2.549,10.439h0.059l2.578-10.439h3.623v14.218h-2.764v-4.131l0.234-5.527l-0.059-0.01
			l-2.715,9.668h-1.846l-2.686-9.59l-0.059,0.01l0.244,5.449v4.131H75.43V15.09H79.033z"/>
		<path fill="#231F20" d="M96.914,26.271h-3.75l-0.762,3.037H89.6l4.004-14.218h2.891l3.994,14.218h-2.803L96.914,26.271z
			 M93.73,24.055h2.617l-1.279-5.029H95.01L93.73,24.055z"/>
		<path fill="#231F20" d="M104.775,24.201v5.107h-2.783V15.09h4.941c1.418,0,2.539,0.42,3.359,1.259s1.23,1.938,1.23,3.297
			c0,1.365-0.412,2.467-1.236,3.301c-0.822,0.836-1.941,1.254-3.354,1.254H104.775z M104.775,21.984h2.158
			c0.592,0,1.045-0.219,1.357-0.654c0.312-0.438,0.469-0.992,0.469-1.664c0-0.68-0.154-1.242-0.465-1.689
			c-0.309-0.445-0.764-0.669-1.361-0.669h-2.158V21.984z"/>
		<path fill="#231F20" d="M123.281,24.201c0,1.668-0.453,2.969-1.357,3.906c-0.906,0.938-2.109,1.406-3.613,1.406
			s-2.705-0.469-3.604-1.406s-1.348-2.238-1.348-3.906v-3.984c0-1.66,0.449-2.963,1.348-3.911s2.096-1.421,3.594-1.421
			c1.496,0,2.701,0.474,3.613,1.421c0.91,0.947,1.367,2.25,1.367,3.911V24.201z M120.518,20.188c0-1.02-0.189-1.787-0.566-2.307
			c-0.379-0.519-0.928-0.779-1.65-0.779c-0.73,0-1.277,0.258-1.641,0.773c-0.365,0.516-0.547,1.287-0.547,2.312v4.016
			c0,1.031,0.186,1.805,0.557,2.32s0.918,0.773,1.641,0.773c0.715,0,1.262-0.258,1.641-0.773c0.377-0.516,0.566-1.289,0.566-2.32
			V20.188z"/>
		<path fill="#231F20" d="M129.482,23.4h-1.211v5.908h-2.783V15.09h2.783v5.781h0.898l2.773-5.781h3.408l-3.877,6.494l4.199,7.725
			h-3.379L129.482,23.4z"/>
		<path fill="#231F20" d="M141.775,29.309V15.09h4.189c1.465,0,2.609,0.325,3.434,0.977c0.822,0.651,1.234,1.621,1.234,2.91
			c0,0.678-0.148,1.277-0.449,1.803c-0.299,0.523-0.748,0.916-1.348,1.176c0.75,0.176,1.303,0.557,1.66,1.143
			c0.359,0.586,0.537,1.273,0.537,2.061c0,1.361-0.389,2.393-1.166,3.096c-0.779,0.703-1.893,1.055-3.346,1.055H141.775z
			 M144.559,21.096h1.533c0.566-0.012,1.002-0.178,1.305-0.494s0.453-0.771,0.453-1.365c0-0.666-0.156-1.154-0.469-1.465
			c-0.312-0.309-0.783-0.464-1.416-0.464h-1.406V21.096z M144.559,23.039v4.053h1.963c0.586,0,1.023-0.162,1.314-0.488
			c0.289-0.324,0.434-0.811,0.434-1.455c0-0.676-0.123-1.197-0.371-1.562c-0.246-0.363-0.645-0.547-1.191-0.547H144.559z"/>
		<path fill="#231F20" d="M159.666,26.271h-3.75l-0.762,3.037h-2.803l4.004-14.218h2.891l3.994,14.218h-2.803L159.666,26.271z
			 M156.482,24.055h2.617l-1.279-5.029h-0.059L156.482,24.055z"/>
		<path fill="#231F20" d="M168.738,23.4h-1.211v5.908h-2.783V15.09h2.783v5.781h0.898l2.773-5.781h3.408l-3.877,6.494l4.199,7.725
			h-3.379L168.738,23.4z"/>
		<path fill="#231F20" d="M182.645,26.271h-3.75l-0.762,3.037h-2.803l4.004-14.218h2.891l3.994,14.218h-2.803L182.645,26.271z
			 M179.461,24.055h2.617l-1.279-5.029h-0.059L179.461,24.055z"/>
		<path fill="#231F20" d="M197.691,29.309h-2.773V23.42h-4.414v5.889h-2.783V15.09h2.783v6.113h4.414V15.09h2.773V29.309z"/>
		<path fill="#231F20" d="M209.156,24.729l0.029,0.059c0.014,1.562-0.357,2.742-1.113,3.535c-0.754,0.795-1.867,1.191-3.34,1.191
			c-1.471,0-2.646-0.451-3.525-1.352c-0.879-0.902-1.318-2.18-1.318-3.834V20.08c0-1.646,0.426-2.924,1.275-3.833
			s1.986-1.362,3.412-1.362c1.512,0,2.652,0.403,3.424,1.211s1.17,2.001,1.195,3.583l-0.029,0.059h-2.676
			c0.039-0.934-0.088-1.607-0.381-2.02c-0.293-0.411-0.803-0.617-1.533-0.617c-0.625,0-1.104,0.244-1.436,0.734
			c-0.332,0.488-0.498,1.229-0.498,2.219v4.271c0,1.004,0.178,1.75,0.533,2.238c0.354,0.488,0.873,0.732,1.557,0.732
			c0.672,0,1.139-0.193,1.402-0.58c0.264-0.389,0.379-1.051,0.346-1.988H209.156z"/>
		<path fill="#231F20" d="M214.176,29.309h-2.764V15.09h2.764V29.309z"/>
		<path fill="#231F20" d="M223.951,15.09h2.773v14.218h-2.773V20.48l-0.059-0.01l-4.346,8.838h-2.773V15.09h2.773v8.828l0.059,0.01
			L223.951,15.09z M224.781,10.784l0.02,0.059c0.025,0.84-0.24,1.521-0.797,2.046s-1.303,0.786-2.24,0.786
			c-0.951,0-1.707-0.264-2.266-0.791c-0.561-0.527-0.824-1.208-0.791-2.041l0.02-0.059h2.021c0,0.345,0.082,0.628,0.248,0.85
			s0.422,0.332,0.768,0.332c0.332,0,0.578-0.11,0.736-0.332c0.16-0.222,0.24-0.505,0.24-0.85H224.781z"/>
	</g>
	<g>
		<path fill="#231F20" d="M53.811,3.81h-0.609v2.676h-0.469V0.798h0.469v2.613h0.594l1.801-2.613h0.547l-1.953,2.789l2.094,2.898
			h-0.582L53.811,3.81z"/>
		<path fill="#231F20" d="M57.799,5.322l0.109,0.426h0.023l1-3.488h0.523l-1.508,4.902c-0.092,0.281-0.212,0.523-0.361,0.727
			c-0.15,0.203-0.364,0.305-0.643,0.305c-0.047,0-0.105-0.007-0.176-0.02s-0.123-0.024-0.156-0.035l0.051-0.402
			c0.025,0.005,0.068,0.011,0.129,0.018c0.06,0.007,0.104,0.01,0.133,0.01c0.158,0,0.287-0.074,0.387-0.223
			c0.099-0.148,0.178-0.332,0.238-0.551l0.176-0.559l-1.336-4.172h0.52L57.799,5.322z"/>
		<path fill="#231F20" d="M60.643,1.056H60.17V0.392h0.473V1.056z M60.643,6.486H60.17V2.259h0.473V6.486z"/>
		<path fill="#231F20" d="M62.803,5.419l0.094,0.41h0.023l0.102-0.41l0.906-3.16h0.48l-1.316,4.227h-0.367L61.4,2.259h0.484
			L62.803,5.419z"/>
		<path fill="#231F20" d="M67.369,4.13v2.355H66.9V0.798h1.684c0.497,0,0.883,0.152,1.156,0.457s0.41,0.707,0.41,1.207
			c0,0.505-0.137,0.909-0.41,1.213S69.081,4.13,68.584,4.13H67.369z M67.369,3.72h1.215c0.364,0,0.638-0.119,0.82-0.357
			c0.182-0.238,0.273-0.536,0.273-0.893c0-0.362-0.092-0.662-0.273-0.9c-0.183-0.238-0.456-0.357-0.82-0.357h-1.215V3.72z"/>
		<path fill="#231F20" d="M70.764,4.064c0-0.547,0.141-0.997,0.422-1.352s0.658-0.531,1.133-0.531c0.474,0,0.852,0.177,1.135,0.529
			c0.282,0.353,0.424,0.804,0.424,1.354v0.621c0,0.555-0.141,1.007-0.422,1.357s-0.659,0.525-1.133,0.525
			c-0.477,0-0.855-0.175-1.137-0.525s-0.422-0.803-0.422-1.357V4.064z M71.236,4.69c0,0.423,0.094,0.774,0.281,1.057
			s0.455,0.423,0.805,0.423c0.341,0,0.606-0.142,0.797-0.425c0.189-0.283,0.285-0.635,0.285-1.055V4.067
			c0-0.415-0.096-0.764-0.285-1.047c-0.19-0.283-0.457-0.425-0.801-0.425c-0.347,0-0.613,0.142-0.801,0.425
			s-0.281,0.632-0.281,1.047V4.69z"/>
		<path fill="#231F20" d="M76.775,5.479c0-0.194-0.063-0.36-0.189-0.501c-0.127-0.14-0.357-0.287-0.693-0.441
			c-0.43-0.177-0.744-0.357-0.943-0.541S74.65,3.572,74.65,3.275c0-0.302,0.118-0.56,0.355-0.773c0.236-0.214,0.544-0.32,0.922-0.32
			c0.4,0,0.719,0.118,0.953,0.355s0.346,0.532,0.336,0.887l-0.008,0.023h-0.441c0-0.229-0.076-0.429-0.227-0.598
			c-0.151-0.169-0.355-0.254-0.613-0.254c-0.264,0-0.464,0.066-0.602,0.199c-0.139,0.133-0.207,0.288-0.207,0.465
			c0,0.188,0.055,0.338,0.164,0.451s0.344,0.256,0.703,0.428c0.422,0.169,0.736,0.354,0.945,0.553
			c0.208,0.199,0.312,0.451,0.312,0.756c0,0.336-0.121,0.606-0.361,0.812c-0.241,0.206-0.56,0.309-0.955,0.309
			c-0.436,0-0.775-0.123-1.021-0.368s-0.363-0.537-0.35-0.874l0.008-0.023h0.438c0.016,0.304,0.113,0.523,0.293,0.661
			s0.391,0.206,0.633,0.206c0.263,0,0.47-0.066,0.621-0.2C76.699,5.835,76.775,5.672,76.775,5.479z"/>
		<path fill="#231F20" d="M78.814,1.181v1.078h0.734v0.398h-0.734v2.739c0,0.273,0.039,0.467,0.117,0.581S79.112,6.15,79.24,6.15
			c0.062,0,0.123-0.004,0.184-0.012c0.06-0.008,0.127-0.02,0.203-0.035l0.062,0.359c-0.062,0.031-0.145,0.057-0.244,0.076
			c-0.101,0.02-0.201,0.029-0.303,0.029c-0.25,0-0.446-0.094-0.588-0.281c-0.143-0.188-0.213-0.483-0.213-0.89V2.658h-0.586V2.259
			h0.586V1.181H78.814z"/>
	</g>
</g>
</svg>
