<?xml version="1.0" encoding="utf-8"?>
<!-- Generator: Adobe Illustrator 16.0.3, SVG Export Plug-In . SVG Version: 6.00 Build 0)  -->
<!DOCTYPE svg PUBLIC "-//W3C//DTD SVG 1.1//EN" "http://www.w3.org/Graphics/SVG/1.1/DTD/svg11.dtd">
<svg version="1.1" id="Layer_1" xmlns="http://www.w3.org/2000/svg" xmlns:xlink="http://www.w3.org/1999/xlink" x="0px" y="0px"
	 width="178px" height="500px" viewBox="0 0 178 500" enable-background="new 0 0 178 500" xml:space="preserve">
<g>
	<g>
		<g>
			
				<circle fill="none" stroke="#EEEEEE" stroke-width="1.2" stroke-linecap="round" stroke-linejoin="round" stroke-dasharray="7.8244,7.8244" cx="101.283" cy="89.043" r="47.333"/>
		</g>
		<g>
			
				<circle fill="none" stroke="#EEEEEE" stroke-width="1.2" stroke-linecap="round" stroke-linejoin="round" stroke-dasharray="8.0299,8.0299" cx="101.283" cy="89.043" r="76.676"/>
		</g>
		<g>
			
				<circle fill="none" stroke="#EEEEEE" stroke-width="1.2" stroke-linecap="round" stroke-linejoin="round" stroke-dasharray="7.8888,7.8888" cx="101.283" cy="89.043" r="62.786"/>
		</g>
	</g>
	<path fill="#E0E0E0" d="M116.573,21.258"/>
	<path fill="#E0E0E0" d="M0.846,499.862c-0.116,0.118-0.29,0.168-0.466,0.118c-0.248-0.082-0.394-0.34-0.318-0.593
		c0.646-2.253,1.343-4.518,2.068-6.723c0.081-0.248,0.343-0.377,0.594-0.293c0.248,0.086,0.378,0.357,0.297,0.6
		c-0.72,2.2-1.412,4.452-2.057,6.694C0.938,499.744,0.9,499.807,0.846,499.862z M4.422,488.729c-0.125,0.123-0.314,0.17-0.493,0.105
		c-0.247-0.096-0.373-0.364-0.286-0.605c0.781-2.205,1.608-4.414,2.473-6.584c0.096-0.24,0.37-0.354,0.613-0.25
		c0.24,0.1,0.357,0.377,0.262,0.617c-0.854,2.153-1.688,4.358-2.459,6.544C4.505,488.622,4.468,488.684,4.422,488.729z
		 M8.673,477.845c-0.129,0.134-0.335,0.177-0.521,0.096c-0.241-0.105-0.352-0.389-0.248-0.622c0.777-1.824,1.596-3.668,2.438-5.476
		c0.145-0.316,0.292-0.622,0.437-0.933c0.112-0.231,0.392-0.328,0.629-0.215c0.231,0.119,0.337,0.396,0.226,0.632
		c-0.148,0.306-0.29,0.617-0.435,0.928c-0.84,1.797-1.658,3.635-2.43,5.445C8.748,477.762,8.714,477.804,8.673,477.845z
		 M13.609,467.268c-0.14,0.138-0.36,0.174-0.553,0.077c-0.228-0.12-0.321-0.408-0.2-0.637c1.056-2.06,2.181-4.132,3.346-6.163
		c0.129-0.224,0.416-0.298,0.642-0.168c0.229,0.136,0.309,0.429,0.182,0.65c-1.161,2.017-2.281,4.078-3.331,6.126
		C13.67,467.196,13.641,467.232,13.609,467.268z M19.334,457.115c-0.151,0.15-0.396,0.177-0.584,0.058
		c-0.224-0.141-0.295-0.429-0.161-0.648c1.203-1.965,2.479-3.94,3.795-5.894c0.144-0.215,0.437-0.269,0.652-0.118
		c0.218,0.146,0.273,0.44,0.132,0.65c-1.307,1.947-2.576,3.919-3.77,5.864C19.375,457.063,19.356,457.09,19.334,457.115z
		 M25.762,447.402c-0.157,0.154-0.417,0.18-0.607,0.044c-0.207-0.155-0.264-0.451-0.109-0.66c1.305-1.849,2.708-3.748,4.155-5.64
		c0.155-0.205,0.447-0.236,0.657-0.079c0.209,0.162,0.25,0.463,0.092,0.658c-1.438,1.888-2.831,3.778-4.138,5.613
		C25.795,447.362,25.782,447.379,25.762,447.402z M32.773,438.1c-0.165,0.169-0.435,0.187-0.625,0.031
		c-0.202-0.167-0.238-0.461-0.081-0.666c1.39-1.744,2.881-3.565,4.428-5.405c0.158-0.201,0.459-0.222,0.66-0.051
		c0.204,0.169,0.231,0.465,0.063,0.661c-1.542,1.838-3.021,3.649-4.41,5.389C32.799,438.071,32.785,438.088,32.773,438.1z
		 M40.212,429.155c-0.173,0.175-0.451,0.187-0.641,0.019c-0.198-0.166-0.226-0.469-0.055-0.662c1.46-1.686,2.971-3.406,4.624-5.252
		c0.161-0.185,0.464-0.199,0.661-0.026c0.194,0.175,0.215,0.474,0.041,0.665c-1.646,1.841-3.154,3.555-4.606,5.233
		C40.228,429.141,40.221,429.147,40.212,429.155z M48.062,420.576c-0.174,0.172-0.521,0.122-0.71-0.053
		c-0.191-0.176-0.236-0.507-0.065-0.695c1.567-1.726,3.127-3.455,4.711-5.171c0.169-0.207,0.461-0.205,0.653-0.026
		c0.196,0.172,0.265,0.534,0.092,0.721c-1.577,1.713-3.355,3.228-4.663,5.208C48.073,420.563,48.067,420.569,48.062,420.576z
		 M55.959,412.009c-0.176,0.172-0.533,0.114-0.72-0.063c-0.192-0.182-0.238-0.508-0.064-0.7l0.346-0.404
		c1.46-1.578,2.914-3.168,4.371-4.755c0.165-0.203,0.472-0.205,0.665-0.024c0.194,0.176,0.202,0.47,0.029,0.665
		c-1.459,1.587-2.857,3.234-4.316,4.81l-0.297,0.459C55.969,411.997,55.962,412.004,55.959,412.009z M63.857,403.434
		c-0.172,0.177-0.526,0.109-0.719-0.063c-0.194-0.177-0.246-0.508-0.072-0.698c1.716-1.889,3.231-3.607,4.663-5.213
		c0.168-0.198,0.458-0.216,0.654-0.041c0.193,0.174,0.278,0.535,0.112,0.727c-1.432,1.613-3.155,3.132-4.622,5.273
		C63.867,403.423,63.863,403.43,63.857,403.434z M71.479,394.58c-0.171,0.175-0.45,0.183-0.637,0.021
		c-0.2-0.178-0.225-0.476-0.057-0.667c1.603-1.848,3.09-3.592,4.53-5.328c0.163-0.202,0.462-0.221,0.661-0.05
		c0.207,0.169,0.235,0.463,0.069,0.663c-1.427,1.72-2.953,3.513-4.542,5.337C71.497,394.563,71.486,394.576,71.479,394.58z
		 M78.978,385.632c-0.166,0.167-0.439,0.184-0.629,0.026c-0.204-0.169-0.238-0.463-0.078-0.66c1.481-1.85,2.923-3.698,4.291-5.508
		c0.154-0.203,0.451-0.241,0.661-0.08c0.205,0.158,0.251,0.458,0.094,0.66c-1.368,1.812-2.816,3.667-4.307,5.523
		C79.001,385.607,78.987,385.619,78.978,385.632z M86.045,376.368c-0.163,0.162-0.421,0.18-0.612,0.04
		c-0.212-0.152-0.259-0.447-0.108-0.657c1.374-1.909,2.71-3.831,3.974-5.73c0.143-0.21,0.437-0.268,0.652-0.115
		c0.218,0.146,0.276,0.439,0.134,0.654c-1.266,1.902-2.616,3.837-3.99,5.756C86.077,376.337,86.059,376.354,86.045,376.368z
		 M92.568,366.716c-0.153,0.153-0.396,0.18-0.588,0.061c-0.222-0.146-0.288-0.435-0.151-0.653c1.246-1.974,2.453-3.981,3.598-5.979
		c0.127-0.224,0.415-0.298,0.637-0.163c0.231,0.127,0.306,0.424,0.178,0.642c-1.146,2.008-2.36,4.023-3.606,6.01
		C92.611,366.664,92.592,366.69,92.568,366.716z M98.429,356.64c-0.146,0.141-0.369,0.18-0.555,0.079
		c-0.233-0.127-0.319-0.417-0.2-0.641c1.102-2.053,2.159-4.15,3.15-6.228c0.114-0.235,0.395-0.326,0.627-0.211
		c0.235,0.12,0.335,0.4,0.224,0.632c-0.997,2.09-2.062,4.197-3.168,6.267C98.485,356.571,98.46,356.606,98.429,356.64z
		 M103.534,346.153c-0.133,0.135-0.339,0.18-0.521,0.094c-0.24-0.107-0.351-0.388-0.244-0.622c0.931-2.119,1.832-4.288,2.67-6.451
		c0.093-0.247,0.366-0.353,0.609-0.26c0.239,0.098,0.362,0.371,0.271,0.612c-0.843,2.179-1.75,4.363-2.69,6.489
		C103.606,346.072,103.573,346.118,103.534,346.153z M107.835,335.303c-0.125,0.125-0.315,0.17-0.49,0.107
		c-0.248-0.093-0.376-0.365-0.29-0.607c0.763-2.175,1.497-4.411,2.17-6.64c0.076-0.248,0.339-0.388,0.585-0.313
		c0.255,0.083,0.393,0.353,0.321,0.599c-0.682,2.243-1.418,4.494-2.188,6.683C107.917,335.195,107.88,335.257,107.835,335.303z
		 M111.305,324.144c-0.119,0.117-0.292,0.17-0.458,0.117c-0.253-0.072-0.403-0.337-0.335-0.589c0.605-2.233,1.172-4.513,1.685-6.793
		c0.059-0.251,0.31-0.408,0.564-0.344c0.255,0.062,0.411,0.317,0.354,0.569c-0.518,2.291-1.087,4.592-1.692,6.837
		C111.399,324.019,111.357,324.09,111.305,324.144z M113.96,312.745c-0.105,0.107-0.265,0.16-0.427,0.129
		c-0.253-0.061-0.422-0.308-0.375-0.563c0.451-2.263,0.86-4.589,1.223-6.903c0.043-0.259,0.28-0.427,0.539-0.381
		c0.255,0.042,0.431,0.29,0.392,0.546c-0.364,2.331-0.779,4.665-1.225,6.94C114.063,312.6,114.022,312.685,113.96,312.745z
		 M115.851,301.184c-0.102,0.1-0.247,0.149-0.394,0.126c-0.259-0.036-0.445-0.283-0.412-0.532c0.214-1.606,0.408-3.248,0.58-4.874
		c0.07-0.687,0.138-1.388,0.194-2.104c0.025-0.261,0.255-0.444,0.51-0.421c0.26,0.024,0.452,0.258,0.433,0.516
		c-0.061,0.725-0.123,1.436-0.2,2.126c-0.174,1.636-0.37,3.285-0.58,4.893C115.966,301.023,115.921,301.112,115.851,301.184z
		 M116.908,289.479c-0.09,0.091-0.213,0.144-0.354,0.138c-0.261-0.016-0.46-0.239-0.446-0.499c0.088-2.196,0.131-4.572,0.121-7.057
		c0-0.258,0.212-0.461,0.475-0.461c0.257,0.01,0.468,0.22,0.474,0.479c0,2.503-0.041,4.883-0.131,7.095
		C117.038,289.293,116.987,289.4,116.908,289.479z M116.978,277.691c-0.087,0.085-0.202,0.135-0.331,0.133
		c-0.259,0.002-0.477-0.21-0.48-0.465c-0.055-2.238-0.141-4.614-0.265-7.065c-0.012-0.263,0.188-0.481,0.443-0.486
		c0.264-0.012,0.481,0.195,0.499,0.451c0.122,2.467,0.208,4.846,0.261,7.095C117.112,277.481,117.062,277.604,116.978,277.691z
		 M116.438,265.9c-0.074,0.076-0.185,0.124-0.304,0.134c-0.259,0.008-0.484-0.196-0.502-0.451c-0.141-2.264-0.317-4.637-0.509-7.062
		c-0.025-0.259,0.174-0.479,0.431-0.501c0.257-0.015,0.486,0.185,0.506,0.447c0.195,2.427,0.368,4.806,0.515,7.073
		C116.579,265.684,116.528,265.808,116.438,265.9z M115.521,254.124c-0.076,0.079-0.183,0.125-0.296,0.135
		c-0.261,0.016-0.488-0.175-0.512-0.436c-0.205-2.272-0.435-4.647-0.688-7.053c-0.029-0.262,0.159-0.486,0.419-0.512
		c0.257-0.017,0.492,0.171,0.516,0.438c0.255,2.405,0.484,4.78,0.695,7.059C115.664,253.896,115.615,254.034,115.521,254.124z
		 M114.324,242.37c-0.074,0.077-0.174,0.12-0.282,0.134c-0.263,0.021-0.491-0.168-0.527-0.427c-0.252-2.291-0.528-4.661-0.82-7.046
		c-0.033-0.26,0.156-0.497,0.407-0.518c0.261-0.031,0.5,0.163,0.529,0.419c0.292,2.391,0.564,4.768,0.822,7.056
		C114.472,242.137,114.42,242.272,114.324,242.37z M112.912,230.635c-0.071,0.071-0.167,0.115-0.282,0.132
		c-0.253,0.025-0.488-0.166-0.523-0.418c-0.304-2.362-0.611-4.706-0.931-7.029c-0.037-0.258,0.143-0.494,0.401-0.529
		c0.259-0.024,0.498,0.158,0.533,0.416c0.315,2.334,0.627,4.682,0.929,7.04C113.063,230.398,113.01,230.539,112.912,230.635z
		 M111.32,218.913c-0.068,0.07-0.158,0.118-0.267,0.135c-0.256,0.027-0.497-0.154-0.532-0.416c-0.337-2.369-0.68-4.712-1.025-7.017
		c-0.039-0.263,0.142-0.494,0.395-0.525c0.259-0.038,0.503,0.148,0.54,0.405c0.344,2.301,0.687,4.648,1.023,7.027
		C111.476,218.671,111.417,218.815,111.32,218.913z M109.591,207.211c-0.071,0.072-0.161,0.12-0.263,0.137
		c-0.257,0.03-0.5-0.146-0.543-0.408c-0.368-2.396-0.734-4.741-1.099-7.01c-0.042-0.259,0.135-0.499,0.392-0.537
		c0.251-0.033,0.493,0.147,0.539,0.402c0.362,2.275,0.732,4.617,1.103,7.019C109.741,206.971,109.69,207.113,109.591,207.211z
		 M107.726,195.529c-0.069,0.068-0.155,0.111-0.259,0.126c-0.257,0.037-0.502-0.141-0.543-0.398
		c-0.401-2.44-0.793-4.782-1.178-7.002c-0.045-0.258,0.132-0.5,0.385-0.536c0.264-0.04,0.499,0.139,0.546,0.395
		c0.381,2.226,0.776,4.566,1.178,7.012C107.88,195.278,107.827,195.428,107.726,195.529z M105.748,183.854
		c-0.068,0.065-0.16,0.112-0.259,0.122c-0.258,0.045-0.501-0.131-0.544-0.387c-0.445-2.548-0.868-4.894-1.252-6.994
		c-0.044-0.255,0.125-0.5,0.378-0.54c0.261-0.042,0.501,0.133,0.551,0.391c0.382,2.104,0.801,4.447,1.248,7
		C105.899,183.6,105.849,183.754,105.748,183.854z M103.638,172.191c-0.068,0.068-0.15,0.111-0.248,0.13
		c-0.255,0.04-0.506-0.131-0.553-0.391c-0.817-4.394-1.33-6.979-1.334-7.006c-0.052-0.255,0.113-0.505,0.37-0.548
		c0.259-0.04,0.501,0.128,0.555,0.382c0.006,0.023,0.521,2.614,1.338,7.02C103.795,171.938,103.74,172.091,103.638,172.191z"/>
	<g opacity="0.5">
		<polygon fill="#37474F" points="116.631,170.549 103.413,1.785 90.193,170.549 87.989,171.123 87.989,171.123 103.413,167.445 
			119.322,171.25 119.322,171.25 		"/>
		<polygon fill="#37474F" points="103.413,1.785 103.35,1.945 31.632,185.848 87.989,171.123 90.193,170.549 		"/>
		<polygon fill="#37474F" points="119.322,171.25 175.19,185.848 103.474,1.945 103.413,1.785 116.631,170.549 		"/>
	</g>
	<g>
		<polygon fill="#C62828" points="114.485,168.763 101.268,0 88.05,168.763 85.843,169.338 85.843,169.338 101.268,165.659 
			117.177,169.462 117.177,169.462 		"/>
		<polygon fill="#EF5350" points="101.268,0 101.205,0.159 29.487,184.06 85.843,169.338 88.05,168.763 		"/>
		<polygon fill="#EF5350" points="117.177,169.462 173.045,184.06 101.33,0.159 101.268,0 114.485,168.763 		"/>
	</g>
</g>
</svg>
