<?xml version="1.0" encoding="utf-8"?>
<!-- Generator: Adobe Illustrator 16.0.3, SVG Export Plug-In . SVG Version: 6.00 Build 0)  -->
<!DOCTYPE svg PUBLIC "-//W3C//DTD SVG 1.1//EN" "http://www.w3.org/Graphics/SVG/1.1/DTD/svg11.dtd">
<svg version="1.1" id="Layer_1" xmlns="http://www.w3.org/2000/svg" xmlns:xlink="http://www.w3.org/1999/xlink" x="0px" y="0px"
	 width="157px" height="350px" viewBox="10.5 0 157 350" enable-background="new 10.5 0 157 350" xml:space="preserve">
<path fill="#37474F" d="M0.846,499.862c-0.116,0.118-0.29,0.168-0.466,0.118c-0.248-0.082-0.394-0.341-0.318-0.594
	c0.646-2.253,1.343-4.518,2.068-6.723c0.081-0.248,0.343-0.377,0.594-0.293c0.248,0.086,0.378,0.357,0.297,0.6
	c-0.72,2.2-1.412,4.452-2.057,6.694C0.938,499.744,0.9,499.807,0.846,499.862z"/>
<g>
	<g>
		<g>
			<g>
				<path fill="#37474F" d="M89.101,138.443c-0.335,0-0.606-0.271-0.606-0.606c-0.001-0.334,0.271-0.607,0.605-0.607
					c2.605-0.005,5.218-0.224,7.769-0.652c0.334-0.05,0.645,0.167,0.699,0.498c0.055,0.33-0.168,0.643-0.498,0.698
					C94.455,138.213,91.773,138.438,89.101,138.443L89.101,138.443z M81.232,137.815c-0.032,0-0.065-0.002-0.099-0.008
					c-2.631-0.43-5.242-1.083-7.758-1.94c-0.318-0.108-0.487-0.453-0.379-0.77c0.107-0.317,0.45-0.49,0.77-0.378
					c2.453,0.835,4.998,1.472,7.563,1.891c0.331,0.054,0.555,0.366,0.5,0.696C81.781,137.604,81.523,137.815,81.232,137.815z
					 M104.623,135.835c-0.252,0-0.486-0.157-0.574-0.409c-0.107-0.317,0.059-0.662,0.377-0.771c2.447-0.845,4.846-1.903,7.127-3.146
					c0.297-0.162,0.662-0.051,0.824,0.242c0.16,0.294,0.051,0.663-0.242,0.823c-2.342,1.275-4.803,2.36-7.314,3.228
					C104.754,135.824,104.688,135.835,104.623,135.835z M66.328,132.741c-0.098,0-0.196-0.023-0.287-0.073
					c-2.342-1.263-4.598-2.731-6.704-4.365c-0.264-0.206-0.313-0.586-0.107-0.851c0.205-0.264,0.586-0.313,0.851-0.107
					c2.054,1.592,4.252,3.024,6.536,4.255c0.295,0.159,0.405,0.527,0.246,0.822C66.752,132.625,66.543,132.741,66.328,132.741z
					 M118.443,128.314c-0.18,0-0.359-0.08-0.479-0.233c-0.205-0.264-0.16-0.645,0.104-0.852c2.045-1.6,3.973-3.38,5.729-5.292
					c0.229-0.247,0.611-0.262,0.857-0.036c0.246,0.226,0.262,0.61,0.035,0.856c-1.801,1.96-3.775,3.786-5.873,5.427
					C118.705,128.272,118.574,128.314,118.443,128.314z M53.886,123.094c-0.163,0-0.326-0.065-0.445-0.194
					c-1.809-1.954-3.468-4.072-4.932-6.294c-0.185-0.28-0.106-0.656,0.173-0.84c0.279-0.183,0.656-0.106,0.84,0.173
					c1.427,2.167,3.045,4.232,4.81,6.137c0.227,0.246,0.212,0.63-0.034,0.857C54.181,123.041,54.033,123.094,53.886,123.094z
					 M129.09,116.719c-0.113,0-0.229-0.032-0.33-0.099c-0.281-0.183-0.359-0.559-0.176-0.839c1.42-2.175,2.668-4.484,3.707-6.861
					c0.137-0.307,0.498-0.444,0.799-0.313c0.307,0.134,0.447,0.492,0.313,0.799c-1.066,2.438-2.346,4.807-3.805,7.038
					C129.482,116.623,129.289,116.719,129.09,116.719z M45.234,109.949c-0.233,0-0.455-0.135-0.556-0.361
					c-1.078-2.436-1.958-4.978-2.618-7.557c-0.083-0.324,0.113-0.654,0.438-0.738c0.325-0.082,0.655,0.113,0.738,0.438
					c0.643,2.514,1.5,4.992,2.551,7.367c0.135,0.306-0.003,0.664-0.309,0.8C45.399,109.933,45.316,109.949,45.234,109.949z
					 M135.402,102.293c-0.049,0-0.098-0.006-0.148-0.018c-0.324-0.082-0.521-0.411-0.439-0.736c0.631-2.511,1.055-5.1,1.266-7.693
					c0.027-0.335,0.34-0.592,0.652-0.556c0.334,0.027,0.584,0.319,0.557,0.653c-0.215,2.66-0.652,5.314-1.299,7.89
					C135.922,102.11,135.674,102.293,135.402,102.293z M41.334,94.702c-0.312,0-0.578-0.239-0.604-0.555
					c-0.115-1.367-0.174-2.763-0.175-4.149c0-1.278,0.051-2.572,0.151-3.845c0.025-0.334,0.311-0.589,0.651-0.557
					c0.334,0.026,0.583,0.318,0.558,0.652c-0.098,1.242-0.147,2.504-0.147,3.75c0.001,1.352,0.058,2.713,0.171,4.047
					c0.028,0.333-0.219,0.627-0.553,0.655C41.367,94.701,41.351,94.702,41.334,94.702z M136.676,86.605
					c-0.313,0-0.578-0.24-0.604-0.557c-0.215-2.59-0.646-5.178-1.283-7.689c-0.082-0.325,0.115-0.655,0.439-0.737
					c0.324-0.084,0.654,0.113,0.736,0.438c0.652,2.577,1.096,5.23,1.314,7.888c0.029,0.334-0.219,0.627-0.553,0.654
					C136.709,86.604,136.691,86.605,136.676,86.605z M42.576,79.011c-0.049,0-0.098-0.006-0.147-0.019
					c-0.325-0.08-0.522-0.41-0.441-0.735c0.643-2.584,1.508-5.133,2.571-7.577c0.133-0.307,0.49-0.447,0.797-0.314
					c0.308,0.134,0.448,0.491,0.315,0.798c-1.037,2.382-1.88,4.867-2.507,7.387C43.095,78.827,42.848,79.011,42.576,79.011z
					 M132.809,71.35c-0.232,0-0.455-0.135-0.555-0.362c-1.043-2.373-2.295-4.677-3.719-6.849c-0.184-0.28-0.107-0.656,0.174-0.84
					c0.281-0.186,0.656-0.105,0.84,0.175c1.461,2.229,2.744,4.592,3.814,7.025c0.135,0.307-0.004,0.664-0.311,0.799
					C132.975,71.333,132.891,71.35,132.809,71.35z M48.856,64.572c-0.114,0-0.228-0.031-0.33-0.098
					c-0.281-0.182-0.361-0.558-0.179-0.838c1.45-2.231,3.096-4.36,4.896-6.326c0.227-0.249,0.611-0.263,0.857-0.039
					c0.247,0.226,0.264,0.61,0.038,0.857c-1.755,1.917-3.36,3.992-4.774,6.167C49.249,64.475,49.054,64.572,48.856,64.572z
					 M124.184,58.187c-0.164,0-0.326-0.066-0.447-0.195c-1.758-1.908-3.688-3.685-5.738-5.281c-0.264-0.206-0.311-0.587-0.105-0.851
					s0.584-0.312,0.852-0.105c2.102,1.637,4.082,3.458,5.885,5.416c0.229,0.246,0.211,0.63-0.035,0.857
					C124.479,58.133,124.33,58.187,124.184,58.187z M59.481,52.956c-0.179,0-0.358-0.079-0.478-0.232
					c-0.207-0.263-0.161-0.645,0.103-0.851c2.096-1.646,4.341-3.128,6.673-4.404c0.294-0.159,0.664-0.052,0.823,0.241
					c0.161,0.294,0.052,0.663-0.241,0.823c-2.274,1.244-4.463,2.689-6.506,4.293C59.744,52.913,59.611,52.956,59.481,52.956z
					 M111.76,48.515c-0.098,0-0.197-0.024-0.289-0.074c-2.283-1.238-4.686-2.292-7.141-3.135c-0.316-0.108-0.484-0.454-0.377-0.77
					c0.109-0.317,0.453-0.488,0.77-0.377c2.518,0.864,4.982,1.946,7.328,3.216c0.293,0.16,0.402,0.528,0.242,0.822
					C112.184,48.399,111.977,48.515,111.76,48.515z M73.284,45.405c-0.25,0-0.486-0.157-0.572-0.407
					c-0.111-0.316,0.057-0.663,0.373-0.772c2.513-0.874,5.12-1.543,7.747-1.989c0.337-0.056,0.644,0.166,0.7,0.496
					c0.056,0.331-0.167,0.644-0.497,0.7c-2.561,0.435-5.102,1.087-7.552,1.939C73.417,45.394,73.35,45.405,73.284,45.405z
					 M96.873,43.408c-0.033,0-0.066-0.002-0.1-0.008c-2.553-0.422-5.166-0.636-7.772-0.636h-0.196c-0.002,0-0.004,0-0.005,0
					c-0.332,0-0.604-0.269-0.605-0.602c-0.003-0.335,0.266-0.608,0.601-0.611h0.211c2.667,0,5.347,0.22,7.964,0.652
					c0.33,0.054,0.555,0.367,0.498,0.697C97.42,43.197,97.164,43.408,96.873,43.408z"/>
			</g>
		</g>
		<g>
			<g>
				<path fill="#37474F" d="M89.083,168.101h-0.082c-2.696,0-5.414-0.139-8.078-0.413c-0.333-0.034-0.576-0.332-0.541-0.665
					c0.034-0.333,0.319-0.586,0.665-0.541c2.624,0.27,5.299,0.406,7.954,0.406c0.334,0,0.647,0.271,0.647,0.606
					S89.418,168.101,89.083,168.101z M97.18,167.674c-0.305,0-0.568-0.231-0.602-0.543c-0.035-0.333,0.207-0.631,0.541-0.666
					c2.66-0.279,5.334-0.702,7.945-1.257c0.324-0.069,0.65,0.139,0.721,0.467c0.068,0.328-0.141,0.65-0.467,0.719
					c-2.654,0.564-5.371,0.994-8.074,1.277C97.223,167.673,97.203,167.674,97.18,167.674z M72.973,166.441
					c-0.042,0-0.084-0.004-0.125-0.013c-2.657-0.559-5.315-1.266-7.901-2.102c-0.319-0.103-0.494-0.444-0.39-0.763
					c0.103-0.318,0.442-0.497,0.763-0.391c2.545,0.823,5.162,1.519,7.778,2.069c0.328,0.069,0.537,0.391,0.469,0.718
					C73.506,166.245,73.253,166.441,72.973,166.441z M113.023,164.306c-0.256,0-0.494-0.163-0.576-0.418
					c-0.104-0.318,0.07-0.661,0.389-0.765c2.543-0.829,5.068-1.802,7.508-2.893c0.307-0.137,0.664,0,0.801,0.307
					c0.137,0.306,0,0.664-0.305,0.801c-2.479,1.107-5.045,2.096-7.629,2.938C113.148,164.297,113.086,164.306,113.023,164.306z
					 M57.557,161.457c-0.082,0-0.166-0.017-0.246-0.052c-2.477-1.101-4.929-2.349-7.286-3.708c-0.29-0.167-0.389-0.538-0.222-0.828
					c0.167-0.29,0.538-0.392,0.828-0.222c2.321,1.338,4.734,2.566,7.173,3.65c0.306,0.136,0.444,0.495,0.308,0.8
					C58.011,161.322,57.79,161.457,57.557,161.457z M127.811,157.698c-0.209,0-0.414-0.108-0.525-0.302
					c-0.168-0.29-0.07-0.661,0.221-0.829c2.309-1.338,4.576-2.816,6.74-4.394c0.27-0.199,0.65-0.138,0.848,0.132
					c0.197,0.271,0.137,0.65-0.133,0.848c-2.199,1.602-4.502,3.104-6.848,4.463C128.018,157.672,127.914,157.698,127.811,157.698z
					 M43.523,153.361c-0.124,0-0.248-0.037-0.355-0.116c-2.197-1.595-4.335-3.324-6.356-5.14c-0.249-0.224-0.269-0.607-0.045-0.856
					c0.224-0.25,0.608-0.27,0.856-0.046c1.99,1.788,4.096,3.49,6.259,5.061c0.271,0.196,0.331,0.576,0.134,0.847
					C43.896,153.274,43.71,153.361,43.523,153.361z M140.902,148.157c-0.166,0-0.332-0.067-0.451-0.2
					c-0.225-0.248-0.205-0.632,0.043-0.856c1.986-1.792,3.898-3.708,5.686-5.694c0.225-0.25,0.607-0.269,0.857-0.045
					c0.248,0.224,0.27,0.607,0.045,0.856c-1.814,2.018-3.758,3.964-5.773,5.784C141.191,148.105,141.047,148.157,140.902,148.157z
					 M31.475,142.533c-0.166,0-0.331-0.067-0.45-0.2c-1.821-2.017-3.556-4.15-5.156-6.343c-0.197-0.271-0.138-0.65,0.133-0.847
					c0.271-0.197,0.649-0.138,0.847,0.133c1.575,2.158,3.283,4.259,5.076,6.244c0.224,0.249,0.205,0.632-0.043,0.857
					C31.765,142.481,31.62,142.533,31.475,142.533z M151.732,136.114c-0.123,0-0.248-0.038-0.355-0.116
					c-0.271-0.197-0.33-0.576-0.135-0.847c1.572-2.16,3.047-4.431,4.387-6.748c0.166-0.29,0.539-0.39,0.828-0.222
					c0.289,0.167,0.389,0.539,0.221,0.829c-1.359,2.354-2.857,4.66-4.453,6.855C152.105,136.027,151.92,136.114,151.732,136.114z
					 M21.928,129.449c-0.209,0-0.413-0.108-0.525-0.302c-1.363-2.349-2.617-4.795-3.726-7.273c-0.136-0.306,0.001-0.664,0.306-0.801
					c0.306-0.139,0.664,0,0.801,0.306c1.092,2.439,2.326,4.847,3.668,7.16c0.167,0.29,0.069,0.661-0.22,0.829
					C22.136,129.423,22.032,129.449,21.928,129.449z M159.838,122.085c-0.084,0-0.168-0.017-0.246-0.053
					c-0.307-0.136-0.443-0.494-0.309-0.801c1.088-2.444,2.057-4.973,2.879-7.515c0.105-0.319,0.445-0.493,0.766-0.39
					c0.318,0.104,0.492,0.445,0.389,0.764c-0.836,2.583-1.82,5.151-2.926,7.634C160.291,121.951,160.07,122.085,159.838,122.085z
					 M15.311,114.667c-0.256,0-0.493-0.163-0.577-0.419c-0.843-2.583-1.556-5.238-2.122-7.893c-0.07-0.328,0.139-0.649,0.467-0.719
					c0.325-0.068,0.649,0.139,0.72,0.467c0.557,2.613,1.259,5.227,2.088,7.77c0.105,0.318-0.07,0.661-0.388,0.765
					C15.438,114.657,15.373,114.667,15.311,114.667z M164.83,106.672c-0.041,0-0.084-0.004-0.125-0.013
					c-0.328-0.069-0.537-0.391-0.469-0.719c0.551-2.61,0.969-5.285,1.244-7.948c0.035-0.334,0.334-0.582,0.666-0.541
					c0.334,0.034,0.576,0.332,0.541,0.665c-0.279,2.707-0.705,5.423-1.264,8.075C165.363,106.477,165.111,106.672,164.83,106.672z
					 M11.932,98.826c-0.306,0-0.568-0.231-0.602-0.543c-0.284-2.693-0.43-5.439-0.434-8.16c0-0.335,0.271-0.607,0.606-0.607
					c0,0,0,0,0.001,0c0.334,0,0.606,0.271,0.606,0.605c0.004,2.68,0.148,5.383,0.428,8.035c0.035,0.333-0.207,0.632-0.539,0.667
					C11.976,98.825,11.954,98.826,11.932,98.826z M166.498,90.563c-0.334,0-0.605-0.271-0.605-0.606
					c-0.002-2.682-0.145-5.385-0.42-8.036c-0.035-0.333,0.207-0.631,0.539-0.666c0.33-0.037,0.633,0.206,0.666,0.541
					c0.281,2.692,0.424,5.437,0.426,8.16C167.105,90.291,166.834,90.562,166.498,90.563L166.498,90.563z M11.91,82.629
					c-0.021,0-0.042-0.001-0.062-0.003c-0.334-0.034-0.576-0.332-0.542-0.665c0.276-2.707,0.699-5.424,1.255-8.076
					c0.068-0.327,0.389-0.537,0.718-0.469c0.329,0.069,0.538,0.391,0.47,0.718c-0.549,2.611-0.964,5.286-1.237,7.95
					C12.48,82.397,12.217,82.629,11.91,82.629z M164.811,74.454c-0.279,0-0.531-0.195-0.592-0.481
					c-0.553-2.612-1.252-5.227-2.08-7.771c-0.104-0.318,0.07-0.661,0.389-0.765c0.318-0.103,0.662,0.071,0.766,0.39
					c0.84,2.585,1.551,5.241,2.113,7.896c0.068,0.328-0.141,0.649-0.469,0.719C164.895,74.45,164.854,74.454,164.811,74.454z
					 M15.235,66.777c-0.061,0-0.125-0.009-0.187-0.029c-0.318-0.103-0.494-0.445-0.39-0.764c0.834-2.585,1.816-5.155,2.917-7.637
					c0.136-0.305,0.495-0.442,0.8-0.308c0.306,0.136,0.444,0.494,0.308,0.8c-1.083,2.443-2.051,4.973-2.872,7.518
					C15.729,66.614,15.492,66.777,15.235,66.777z M159.805,59.051c-0.232,0-0.453-0.134-0.553-0.359
					c-1.088-2.436-2.32-4.846-3.662-7.164c-0.168-0.29-0.068-0.661,0.223-0.829c0.291-0.169,0.66-0.068,0.828,0.221
					c1.361,2.354,2.613,4.803,3.719,7.277c0.135,0.306-0.002,0.664-0.307,0.801C159.973,59.034,159.889,59.051,159.805,59.051z
					 M21.806,51.968c-0.103,0-0.208-0.026-0.303-0.081c-0.29-0.167-0.39-0.539-0.222-0.829c1.354-2.349,2.85-4.657,4.446-6.859
					c0.196-0.272,0.575-0.332,0.847-0.135c0.271,0.197,0.332,0.576,0.135,0.847c-1.571,2.168-3.044,4.441-4.376,6.753
					C22.219,51.858,22.015,51.968,21.806,51.968z M151.691,45.035c-0.186,0-0.371-0.086-0.49-0.25
					c-1.574-2.161-3.279-4.264-5.068-6.25c-0.225-0.249-0.205-0.632,0.045-0.856c0.246-0.224,0.631-0.205,0.855,0.044
					c1.818,2.017,3.551,4.152,5.148,6.348c0.197,0.271,0.139,0.65-0.133,0.847C151.941,44.997,151.816,45.035,151.691,45.035z
					 M31.315,38.851c-0.145,0-0.289-0.051-0.406-0.155c-0.249-0.224-0.269-0.607-0.045-0.856c1.813-2.021,3.755-3.969,5.77-5.79
					c0.249-0.225,0.632-0.206,0.855,0.042c0.225,0.249,0.207,0.632-0.042,0.856c-1.983,1.793-3.895,3.712-5.68,5.701
					C31.647,38.783,31.481,38.851,31.315,38.851z M140.846,33.002c-0.145,0-0.289-0.051-0.404-0.156
					c-1.988-1.79-4.092-3.495-6.252-5.067c-0.271-0.197-0.332-0.577-0.135-0.848s0.578-0.329,0.848-0.133
					c2.195,1.597,4.332,3.329,6.35,5.146c0.248,0.224,0.27,0.607,0.045,0.856C141.178,32.935,141.012,33.002,140.846,33.002z
					 M43.331,27.986c-0.187,0-0.371-0.086-0.49-0.249c-0.198-0.271-0.139-0.65,0.131-0.847c2.192-1.602,4.494-3.106,6.841-4.47
					c0.29-0.168,0.661-0.07,0.829,0.219c0.168,0.29,0.07,0.661-0.219,0.829c-2.311,1.343-4.577,2.824-6.735,4.401
					C43.58,27.949,43.455,27.986,43.331,27.986z M127.744,23.471c-0.102,0-0.207-0.026-0.303-0.081
					c-2.316-1.34-4.729-2.571-7.168-3.659c-0.307-0.136-0.443-0.495-0.307-0.8c0.137-0.307,0.498-0.443,0.799-0.307
					c2.479,1.104,4.93,2.354,7.283,3.716c0.289,0.167,0.389,0.539,0.223,0.829C128.158,23.363,127.955,23.471,127.744,23.471z
					 M57.333,19.851c-0.232,0-0.453-0.133-0.554-0.358c-0.137-0.306,0-0.665,0.305-0.801c2.481-1.112,5.047-2.103,7.625-2.946
					c0.322-0.104,0.661,0.07,0.765,0.388c0.105,0.318-0.069,0.661-0.388,0.765c-2.539,0.83-5.063,1.806-7.505,2.9
					C57.5,19.833,57.417,19.851,57.333,19.851z M112.945,16.877c-0.061,0-0.125-0.009-0.188-0.029
					c-2.539-0.825-5.154-1.523-7.773-2.078c-0.328-0.069-0.537-0.391-0.467-0.719c0.068-0.328,0.395-0.537,0.719-0.468
					c2.66,0.563,5.316,1.272,7.896,2.11c0.318,0.104,0.494,0.445,0.391,0.764C113.439,16.714,113.201,16.877,112.945,16.877z
					 M72.728,14.818c-0.279,0-0.531-0.195-0.592-0.48c-0.07-0.328,0.138-0.65,0.466-0.72c2.653-0.567,5.37-1,8.072-1.286
					c0.326-0.041,0.632,0.206,0.667,0.539s-0.207,0.632-0.539,0.667c-2.661,0.282-5.335,0.707-7.946,1.266
					C72.813,14.813,72.771,14.818,72.728,14.818z M97.1,13.525c-0.021,0-0.043-0.001-0.063-0.004
					c-2.65-0.275-5.354-0.415-8.036-0.415h-0.167c-0.335,0-0.606-0.271-0.606-0.606c0-0.335,0.271-0.606,0.606-0.606h0.167
					c2.723,0,5.469,0.142,8.159,0.421c0.334,0.035,0.576,0.333,0.541,0.666C97.67,13.292,97.406,13.525,97.1,13.525z"/>
			</g>
		</g>
		<g>
			<g>
				<path fill="#37474F" d="M89.108,154.063c-0.335,0-0.606-0.271-0.606-0.606c-0.001-0.335,0.271-0.607,0.605-0.607
					c2.629-0.004,5.28-0.173,7.874-0.501c0.33-0.045,0.637,0.193,0.678,0.526c0.043,0.332-0.193,0.636-0.525,0.677
					C94.49,153.886,91.789,154.058,89.108,154.063L89.108,154.063z M81.159,153.582c-0.025,0-0.05-0.001-0.075-0.004
					c-2.658-0.328-5.317-0.827-7.904-1.484c-0.325-0.083-0.521-0.413-0.438-0.737c0.082-0.325,0.41-0.521,0.737-0.438
					c2.538,0.645,5.146,1.135,7.753,1.456c0.333,0.041,0.569,0.344,0.528,0.676C81.722,153.357,81.461,153.582,81.159,153.582z
					 M104.879,152.059c-0.27,0-0.518-0.182-0.588-0.456c-0.082-0.324,0.113-0.655,0.438-0.738c2.537-0.653,5.061-1.476,7.5-2.447
					c0.309-0.123,0.664,0.028,0.787,0.339c0.123,0.311-0.027,0.664-0.34,0.788c-2.486,0.989-5.059,1.829-7.646,2.495
					C104.98,152.053,104.928,152.059,104.879,152.059z M65.743,149.665c-0.074,0-0.15-0.013-0.223-0.042
					c-2.484-0.979-4.936-2.129-7.284-3.417c-0.294-0.161-0.401-0.529-0.24-0.823c0.16-0.293,0.528-0.401,0.823-0.24
					c2.304,1.263,4.708,2.391,7.146,3.352c0.312,0.123,0.465,0.475,0.342,0.787C66.213,149.519,65.985,149.665,65.743,149.665z
					 M119.65,146.183c-0.213,0-0.42-0.113-0.531-0.313c-0.162-0.293-0.055-0.662,0.238-0.824c2.289-1.265,4.525-2.691,6.648-4.24
					c0.271-0.199,0.65-0.137,0.848,0.133c0.197,0.271,0.139,0.65-0.133,0.847c-2.164,1.578-4.443,3.032-6.777,4.322
					C119.85,146.159,119.75,146.183,119.65,146.183z M51.795,142.017c-0.124,0-0.248-0.038-0.355-0.115
					c-2.163-1.567-4.25-3.29-6.205-5.118c-0.245-0.229-0.257-0.613-0.028-0.857s0.613-0.257,0.857-0.028
					c1.917,1.794,3.965,3.484,6.087,5.021c0.271,0.197,0.332,0.576,0.135,0.847C52.168,141.93,51.983,142.017,51.795,142.017z
					 M132.49,136.815c-0.16,0-0.32-0.064-0.439-0.191c-0.23-0.244-0.219-0.628,0.025-0.857c1.91-1.797,3.725-3.734,5.396-5.756
					c0.215-0.258,0.596-0.295,0.854-0.081c0.258,0.213,0.295,0.596,0.082,0.854c-1.705,2.061-3.555,4.035-5.502,5.868
					C132.789,136.761,132.641,136.815,132.49,136.815z M40.185,131.151c-0.175,0-0.348-0.074-0.467-0.218
					c-1.71-2.056-3.306-4.24-4.744-6.491c-0.181-0.282-0.098-0.658,0.184-0.837c0.282-0.18,0.658-0.099,0.838,0.184
					c1.411,2.208,2.977,4.351,4.655,6.368c0.214,0.257,0.179,0.64-0.079,0.854C40.458,131.105,40.321,131.151,40.185,131.151z
					 M142.621,124.556c-0.109,0-0.223-0.03-0.322-0.094c-0.283-0.18-0.367-0.554-0.188-0.837c1.406-2.217,2.686-4.545,3.801-6.917
					c0.143-0.304,0.506-0.434,0.807-0.291c0.303,0.143,0.434,0.503,0.291,0.807c-1.137,2.418-2.439,4.79-3.875,7.05
					C143.02,124.456,142.824,124.556,142.621,124.556z M31.628,117.757c-0.227,0-0.444-0.128-0.548-0.347
					c-1.147-2.417-2.149-4.931-2.98-7.47c-0.104-0.318,0.069-0.661,0.388-0.765c0.319-0.103,0.66,0.07,0.765,0.388
					c0.815,2.491,1.798,4.956,2.923,7.328c0.143,0.302,0.015,0.664-0.288,0.807C31.804,117.738,31.715,117.757,31.628,117.757z
					 M149.389,110.16c-0.063,0-0.125-0.009-0.186-0.03c-0.32-0.103-0.494-0.445-0.391-0.764c0.807-2.491,1.461-5.063,1.949-7.644
					c0.061-0.33,0.379-0.542,0.707-0.484c0.33,0.062,0.547,0.379,0.484,0.708c-0.496,2.632-1.164,5.254-1.988,7.793
					C149.883,109.996,149.645,110.16,149.389,110.16z M26.683,102.646c-0.286,0-0.539-0.202-0.595-0.492
					c-0.503-2.621-0.846-5.305-1.017-7.977c-0.022-0.334,0.232-0.623,0.565-0.644c0.34-0.023,0.623,0.232,0.645,0.566
					c0.168,2.622,0.504,5.255,0.998,7.826c0.063,0.329-0.152,0.647-0.481,0.71C26.759,102.642,26.721,102.646,26.683,102.646z
					 M152.34,94.537c-0.014,0-0.025,0-0.039-0.001c-0.334-0.021-0.588-0.308-0.568-0.642c0.08-1.288,0.121-2.599,0.121-3.896
					c0-1.331-0.043-2.675-0.127-3.995c-0.02-0.334,0.234-0.622,0.566-0.643c0.35-0.031,0.623,0.233,0.645,0.567
					c0.084,1.345,0.127,2.715,0.127,4.071c0,1.322-0.041,2.658-0.121,3.97C152.924,94.289,152.656,94.537,152.34,94.537z
					 M25.656,86.778c-0.012,0-0.023,0-0.036-0.001c-0.334-0.02-0.589-0.307-0.57-0.642c0.159-2.676,0.489-5.361,0.978-7.981
					c0.063-0.33,0.382-0.547,0.708-0.484c0.33,0.062,0.547,0.378,0.484,0.708c-0.48,2.571-0.803,5.205-0.959,7.831
					C26.242,86.529,25.975,86.778,25.656,86.778z M151.336,78.667c-0.285,0-0.539-0.202-0.596-0.493
					c-0.488-2.573-1.146-5.144-1.959-7.641c-0.104-0.318,0.07-0.661,0.389-0.765s0.662,0.071,0.764,0.39
					c0.828,2.545,1.5,5.167,2,7.79c0.063,0.329-0.154,0.646-0.482,0.708C151.412,78.664,151.373,78.667,151.336,78.667z
					 M28.58,71.15c-0.062,0-0.124-0.009-0.186-0.029c-0.319-0.103-0.495-0.444-0.392-0.763c0.819-2.546,1.811-5.065,2.944-7.489
					c0.142-0.303,0.501-0.435,0.807-0.292c0.303,0.142,0.434,0.503,0.292,0.807c-1.113,2.377-2.084,4.849-2.888,7.346
					C29.074,70.986,28.836,71.15,28.58,71.15z M146.418,63.548c-0.227,0-0.445-0.128-0.549-0.347
					c-1.119-2.371-2.398-4.693-3.807-6.905c-0.182-0.283-0.098-0.658,0.186-0.837c0.283-0.182,0.656-0.097,0.836,0.186
					c1.436,2.255,2.742,4.623,3.883,7.038c0.143,0.303,0.014,0.665-0.291,0.808C146.594,63.529,146.506,63.548,146.418,63.548z
					 M35.322,56.742c-0.111,0-0.223-0.03-0.324-0.094c-0.283-0.179-0.367-0.554-0.188-0.837c1.427-2.257,3.013-4.45,4.715-6.516
					c0.212-0.259,0.594-0.296,0.854-0.083c0.258,0.213,0.295,0.595,0.083,0.854c-1.67,2.027-3.227,4.178-4.626,6.394
					C35.72,56.642,35.522,56.742,35.322,56.742z M137.885,50.139c-0.174,0-0.348-0.075-0.467-0.22
					c-1.674-2.021-3.492-3.956-5.404-5.749c-0.242-0.229-0.254-0.613-0.025-0.857c0.229-0.244,0.613-0.256,0.857-0.027
					c1.945,1.829,3.799,3.8,5.506,5.86c0.215,0.257,0.178,0.64-0.08,0.854C138.158,50.093,138.021,50.139,137.885,50.139z
					 M45.431,44.466c-0.161,0-0.322-0.063-0.44-0.19c-0.23-0.243-0.219-0.627,0.023-0.857c1.944-1.836,4.022-3.567,6.179-5.146
					c0.269-0.199,0.649-0.14,0.847,0.13c0.198,0.271,0.139,0.65-0.13,0.848c-2.116,1.549-4.155,3.248-6.062,5.049
					C45.73,44.411,45.581,44.466,45.431,44.466z M126.293,39.254c-0.123,0-0.248-0.038-0.357-0.116
					c-2.121-1.544-4.361-2.969-6.658-4.234c-0.295-0.161-0.4-0.53-0.24-0.823c0.162-0.293,0.529-0.402,0.824-0.239
					c2.342,1.289,4.627,2.742,6.789,4.315c0.271,0.197,0.33,0.577,0.135,0.847C126.666,39.167,126.48,39.254,126.293,39.254z
					 M58.258,35.076c-0.213,0-0.419-0.112-0.531-0.313c-0.162-0.292-0.056-0.662,0.237-0.824c2.336-1.297,4.779-2.457,7.258-3.449
					c0.312-0.123,0.664,0.027,0.789,0.337c0.125,0.312-0.026,0.664-0.337,0.789c-2.433,0.973-4.829,2.112-7.122,3.384
					C58.458,35.051,58.358,35.076,58.258,35.076z M112.357,31.582c-0.074,0-0.15-0.014-0.223-0.043
					c-2.439-0.966-4.965-1.786-7.508-2.436c-0.324-0.083-0.521-0.413-0.438-0.738c0.082-0.324,0.41-0.523,0.736-0.437
					c2.592,0.663,5.168,1.499,7.654,2.484c0.313,0.123,0.465,0.476,0.342,0.787C112.828,31.437,112.6,31.582,112.357,31.582z
					 M73.016,29.175c-0.27,0-0.515-0.181-0.586-0.454c-0.083-0.324,0.111-0.655,0.435-0.739c2.584-0.67,5.241-1.183,7.897-1.525
					c0.325-0.043,0.637,0.191,0.678,0.524c0.043,0.333-0.191,0.636-0.524,0.679c-2.605,0.335-5.212,0.838-7.746,1.496
					C73.118,29.169,73.066,29.175,73.016,29.175z M96.951,27.638c-0.025,0-0.051-0.001-0.076-0.005
					c-2.594-0.324-5.244-0.488-7.874-0.488l-0.216,0c-0.334,0-0.606-0.271-0.606-0.606s0.271-0.606,0.606-0.606l0.211,0
					c2.685,0,5.384,0.167,8.029,0.498c0.332,0.041,0.568,0.344,0.527,0.676C97.514,27.414,97.252,27.638,96.951,27.638z"/>
			</g>
		</g>
	</g>
	<path fill="#E0E0E0" d="M104.455,21.486"/>
	<path fill="#37474F" d="M91.275,349.86c-0.135,0.137-0.342,0.182-0.525,0.095c-0.242-0.108-0.355-0.392-0.246-0.628
		c0.939-2.143,1.852-4.334,2.697-6.521c0.094-0.25,0.369-0.356,0.615-0.263c0.242,0.099,0.367,0.375,0.273,0.619
		c-0.85,2.202-1.768,4.409-2.719,6.558C91.348,349.779,91.316,349.825,91.275,349.86z"/>
	<path fill="#37474F" d="M95.623,338.894c-0.127,0.127-0.318,0.172-0.494,0.109c-0.252-0.094-0.381-0.369-0.295-0.614
		c0.771-2.198,1.514-4.458,2.193-6.711c0.076-0.251,0.344-0.392,0.592-0.316c0.258,0.084,0.396,0.357,0.324,0.605
		c-0.689,2.268-1.434,4.543-2.211,6.755C95.705,338.785,95.668,338.848,95.623,338.894z"/>
	<path fill="#37474F" d="M99.129,327.615c-0.119,0.118-0.293,0.173-0.461,0.118c-0.256-0.071-0.408-0.34-0.34-0.595
		c0.611-2.257,1.186-4.562,1.703-6.866c0.061-0.253,0.314-0.412,0.57-0.347c0.258,0.062,0.416,0.319,0.357,0.575
		c-0.521,2.314-1.1,4.641-1.709,6.91C99.225,327.489,99.184,327.561,99.129,327.615z"/>
	<path fill="#37474F" d="M101.814,316.095c-0.107,0.107-0.268,0.162-0.432,0.13c-0.258-0.062-0.428-0.311-0.379-0.569
		c0.455-2.287,0.867-4.638,1.234-6.976c0.045-0.262,0.283-0.432,0.545-0.386c0.258,0.043,0.438,0.294,0.396,0.552
		c-0.367,2.356-0.787,4.716-1.238,7.014C101.918,315.947,101.875,316.033,101.814,316.095z"/>
	<path fill="#37474F" d="M103.725,304.409c-0.104,0.102-0.25,0.151-0.398,0.128c-0.262-0.036-0.449-0.285-0.416-0.537
		c0.217-1.624,0.412-3.284,0.586-4.927c0.072-0.694,0.141-1.403,0.195-2.127c0.025-0.264,0.26-0.449,0.518-0.425
		c0.262,0.023,0.457,0.26,0.436,0.521c-0.061,0.733-0.123,1.452-0.201,2.15c-0.176,1.653-0.375,3.319-0.586,4.944
		C103.842,304.247,103.795,304.337,103.725,304.409z"/>
	<path fill="#37474F" d="M104.793,292.579c-0.09,0.093-0.215,0.146-0.357,0.14c-0.264-0.016-0.465-0.241-0.451-0.504
		c0.088-2.22,0.133-4.621,0.121-7.133c0-0.261,0.217-0.467,0.482-0.467c0.258,0.011,0.473,0.224,0.479,0.485
		c0,2.529-0.043,4.935-0.133,7.171C104.924,292.392,104.873,292.5,104.793,292.579z"/>
	<path fill="#37474F" d="M104.865,280.666c-0.09,0.084-0.207,0.136-0.336,0.134c-0.262,0.002-0.482-0.212-0.484-0.47
		c-0.057-2.263-0.145-4.664-0.268-7.142c-0.012-0.265,0.189-0.486,0.447-0.49c0.268-0.013,0.486,0.196,0.504,0.455
		c0.123,2.494,0.209,4.898,0.264,7.171C104.998,280.452,104.949,280.577,104.865,280.666z"/>
	<path fill="#37474F" d="M104.318,268.748c-0.074,0.077-0.188,0.125-0.309,0.136c-0.26,0.008-0.488-0.198-0.506-0.456
		c-0.143-2.289-0.322-4.688-0.516-7.138c-0.025-0.263,0.176-0.484,0.438-0.507c0.258-0.015,0.49,0.188,0.512,0.452
		c0.195,2.453,0.371,4.857,0.52,7.148C104.461,268.529,104.408,268.655,104.318,268.748z"/>
	<path fill="#37474F" d="M103.393,256.846c-0.078,0.08-0.186,0.126-0.301,0.137c-0.264,0.017-0.494-0.177-0.518-0.441
		c-0.207-2.296-0.439-4.696-0.695-7.127c-0.029-0.265,0.16-0.491,0.424-0.518c0.26-0.017,0.496,0.173,0.521,0.442
		c0.258,2.43,0.488,4.832,0.701,7.134C103.535,256.616,103.486,256.755,103.393,256.846z"/>
	<path fill="#37474F" d="M102.182,244.966c-0.074,0.078-0.176,0.122-0.285,0.135c-0.266,0.021-0.496-0.169-0.531-0.431
		c-0.256-2.315-0.535-4.711-0.83-7.122c-0.033-0.262,0.158-0.501,0.41-0.523c0.266-0.032,0.506,0.165,0.535,0.423
		c0.295,2.417,0.57,4.819,0.832,7.131C102.332,244.731,102.279,244.867,102.182,244.966z"/>
	<path fill="#37474F" d="M100.754,233.105c-0.072,0.072-0.168,0.117-0.285,0.134c-0.256,0.025-0.492-0.168-0.527-0.422
		c-0.309-2.388-0.617-4.757-0.941-7.104c-0.037-0.261,0.145-0.499,0.404-0.535c0.262-0.024,0.504,0.16,0.539,0.42
		c0.318,2.359,0.633,4.732,0.939,7.115C100.906,232.866,100.854,233.009,100.754,233.105z"/>
	<path fill="#37474F" d="M99.146,221.258c-0.07,0.07-0.16,0.119-0.271,0.136c-0.258,0.027-0.502-0.156-0.537-0.42
		c-0.342-2.394-0.688-4.763-1.035-7.092c-0.041-0.266,0.143-0.5,0.398-0.531c0.262-0.039,0.508,0.149,0.547,0.41
		c0.348,2.326,0.693,4.698,1.033,7.102C99.303,221.014,99.244,221.159,99.146,221.258z"/>
	<path fill="#37474F" d="M97.398,209.431c-0.072,0.073-0.164,0.122-0.266,0.139c-0.262,0.03-0.506-0.147-0.549-0.413
		c-0.373-2.421-0.742-4.792-1.111-7.085c-0.043-0.262,0.135-0.504,0.396-0.542c0.254-0.034,0.496,0.148,0.545,0.406
		c0.365,2.299,0.74,4.667,1.115,7.094C97.549,209.188,97.498,209.332,97.398,209.431z"/>
	<path fill="#37474F" d="M95.514,197.624c-0.07,0.069-0.158,0.112-0.264,0.127c-0.258,0.038-0.506-0.142-0.549-0.402
		c-0.404-2.466-0.801-4.833-1.189-7.077c-0.045-0.26,0.133-0.505,0.389-0.541c0.268-0.041,0.504,0.14,0.553,0.399
		c0.385,2.25,0.783,4.615,1.191,7.087C95.668,197.37,95.615,197.522,95.514,197.624z"/>
	<path fill="#37474F" d="M93.514,185.824c-0.068,0.065-0.162,0.113-0.262,0.124c-0.262,0.045-0.506-0.132-0.549-0.392
		c-0.451-2.575-0.879-4.946-1.266-7.068c-0.047-0.258,0.125-0.505,0.381-0.546c0.264-0.042,0.508,0.134,0.557,0.395
		c0.387,2.126,0.811,4.495,1.262,7.075C93.666,185.567,93.617,185.723,93.514,185.824z"/>
	<path fill="#37474F" d="M91.381,174.036c-0.068,0.068-0.15,0.112-0.25,0.131c-0.258,0.041-0.512-0.132-0.559-0.395
		c-0.826-4.441-1.345-7.054-1.349-7.081c-0.053-0.258,0.114-0.51,0.375-0.554c0.262-0.041,0.506,0.129,0.561,0.386
		c0.006,0.023,0.527,2.642,1.352,7.095C91.539,173.78,91.484,173.935,91.381,174.036z"/>
	<g opacity="0.5">
		<polygon fill="#37474F" points="104.514,172.376 91.154,1.805 77.792,172.376 75.563,172.957 75.563,172.957 91.154,169.239 
			107.232,173.084 107.232,173.084 		"/>
		<polygon fill="#37474F" points="91.154,1.805 91.09,1.966 18.604,187.839 75.563,172.957 77.792,172.376 		"/>
		<polygon fill="#37474F" points="107.232,173.084 163.699,187.839 91.217,1.966 91.154,1.805 104.514,172.376 		"/>
	</g>
	<g>
		<polygon fill="#C62828" points="102.344,170.571 88.985,0 75.626,170.571 73.395,171.152 73.395,171.152 88.985,167.434 
			105.064,171.277 105.064,171.277 		"/>
		<polygon fill="#EF5350" points="88.985,0 88.922,0.161 16.435,186.032 73.395,171.152 75.626,170.571 		"/>
		<polygon fill="#EF5350" points="105.064,171.277 161.531,186.032 89.048,0.161 88.985,0 102.344,170.571 		"/>
	</g>
</g>
</svg>
