<?xml version="1.0" encoding="utf-8"?>
<!-- Generator: Adobe Illustrator 16.0.3, SVG Export Plug-In . SVG Version: 6.00 Build 0)  -->
<!DOCTYPE svg PUBLIC "-//W3C//DTD SVG 1.1//EN" "http://www.w3.org/Graphics/SVG/1.1/DTD/svg11.dtd">
<svg version="1.1" id="Layer_1" xmlns="http://www.w3.org/2000/svg" xmlns:xlink="http://www.w3.org/1999/xlink" x="0px" y="0px"
	 width="30px" height="30px" viewBox="0 0 30 30" enable-background="new 0 0 30 30" xml:space="preserve">
<path fill="#FFFFFF" d="M7.38,27.5H2.073V10.517H7.38V27.5z M4.59,8.392H4.552c-1.92,0-3.166-1.298-3.166-2.943
	c0-1.677,1.282-2.949,3.242-2.949c1.957,0,3.162,1.268,3.2,2.944C7.828,7.09,6.585,8.392,4.59,8.392z M28.613,27.5h-6.018v-8.789
	c0-2.3-0.941-3.869-3.012-3.869c-1.582,0-2.463,1.059-2.873,2.079c-0.152,0.366-0.13,0.878-0.13,1.389v9.19h-5.962
	c0,0,0.078-15.568,0-16.983h5.962v2.666c0.353-1.166,2.257-2.83,5.3-2.83c3.77,0,6.732,2.443,6.732,7.704V27.5z"/>
</svg>
