<?xml version="1.0" encoding="utf-8"?>
<!-- Generator: Adobe Illustrator 16.0.3, SVG Export Plug-In . SVG Version: 6.00 Build 0)  -->
<!DOCTYPE svg PUBLIC "-//W3C//DTD SVG 1.1//EN" "http://www.w3.org/Graphics/SVG/1.1/DTD/svg11.dtd">
<svg version="1.1" id="Layer_1" xmlns="http://www.w3.org/2000/svg" xmlns:xlink="http://www.w3.org/1999/xlink" x="0px" y="0px"
	 width="166px" height="30px" viewBox="0 0 166 30" enable-background="new 0 0 166 30" xml:space="preserve">
<g>
	<path fill="#FFFFFF" d="M43.472,18.082v-6.308c0-1.75-0.197-2.439-0.936-3.301c-0.591-0.689-1.404-1.059-2.316-1.059
		c-0.616,0-1.133,0.122-3.154,0.789c-0.319,0.123-0.813,0.27-1.43,0.468V7.339L31.026,8.15c1.063,1.445,1.644,3.288,1.644,5.438
		c0,1.558-0.298,2.972-0.853,4.206l-0.069,0.154l-0.108,0.217c-0.303,0.596-0.666,1.144-1.088,1.643h6.663v-0.764l-1.579-0.961
		V9.607c0.888-0.125,1.283-0.148,1.899-0.148c1.699,0,2.143,0.641,2.143,3.08v5.543L38.2,19.043v0.764h7.367v-0.764L43.472,18.082"
		/>
	<path fill="#FFFFFF" d="M11.938,18.451l1.379-3.301h1.455l-0.32,3.992c-0.839,0.246-1.11,0.321-2.169,0.517
		c-1.577,0.297-2.441,0.396-3.548,0.396c-5.371,0-8.601-3.08-8.601-8.18c0-5.323,3.647-8.748,9.339-8.748
		c1.774,0,3.673,0.296,5.126,0.79v3.991h-1.43L11.914,4.58c-0.543-0.026-0.987-0.026-1.331-0.026c-3.941,0-6.283,2.639-6.283,7.122
		c0,4.51,2.095,6.9,6.061,6.9C10.879,18.576,11.198,18.55,11.938,18.451"/>
	<path fill="#FFFFFF" d="M16.688,14.092c0-3.968,2.686-6.556,6.876-6.556c4.041,0,6.602,2.39,6.602,6.135
		c0,3.917-2.735,6.504-6.874,6.504C19.276,20.176,16.688,17.785,16.688,14.092L16.688,14.092z M20.605,13.598
		c0,1.528,0.297,2.932,0.814,3.893c0.468,0.863,1.059,1.208,2.021,1.208c1.798,0,2.809-1.651,2.809-4.657
		c0-1.502-0.295-2.882-0.813-3.892c-0.469-0.864-1.109-1.257-2.045-1.257C21.591,8.892,20.605,10.543,20.605,13.598"/>
	<path fill="#FFFFFF" d="M47.229,9.139h-1.822V8.153c1.577-0.518,2.314-0.863,2.686-1.232c0.122-0.123,0.345-0.418,0.64-0.936
		c0.247-0.394,0.444-0.739,0.592-1.035c0.023-0.05,0.073-0.124,0.099-0.223h1.602v2.932h3.819v1.48h-3.819v6.973
		c0,1.602,0.493,2.168,1.872,2.168c0.568,0,1.133-0.049,1.897-0.197l0.271,1.109c-1.627,0.518-3.401,0.862-4.46,0.862
		c-2.341,0-3.376-0.936-3.376-3.08V9.139"/>
	<path fill="#FFFFFF" d="M62.245,9.704v8.378l2.563,0.961v0.764h-8.453v-0.764l2.07-0.961V9.78l-2.07-0.641V8.375l5.891-1.035v1.38
		c1.871-0.986,2.66-1.305,3.274-1.305c0.569,0,1.135,0.197,1.876,0.616v3.203h-2.687l-0.691-1.774
		C63.081,9.458,62.859,9.482,62.245,9.704"/>
	<path fill="#FFFFFF" d="M68.57,14.092c0-3.968,2.686-6.556,6.874-6.556c4.041,0,6.604,2.39,6.604,6.135
		c0,3.917-2.735,6.504-6.874,6.504C71.158,20.176,68.57,17.785,68.57,14.092L68.57,14.092z M72.489,13.598
		c0,1.528,0.295,2.932,0.812,3.893c0.47,0.863,1.061,1.208,2.021,1.208c1.799,0,2.809-1.651,2.809-4.657
		c0-1.502-0.296-2.882-0.814-3.892c-0.468-0.864-1.105-1.257-2.043-1.257C73.476,8.892,72.489,10.543,72.489,13.598"/>
	<polyline fill="#FFFFFF" points="84.772,18.082 84.772,4.851 82.679,4.21 82.679,3.445 88.566,2.337 88.566,18.082 90.66,19.043 
		90.66,19.807 82.679,19.807 82.679,19.043 84.772,18.082 	"/>
	<path fill="#FFFFFF" d="M98.072,12.933v5.149l2.068,0.961v0.764h-8.08v-0.764l2.068-0.961V5.097l-2.068-0.962V3.373h7.168
		c2.49,0,3.92,0.27,5.002,0.961c1.16,0.714,1.923,2.168,1.923,3.671c0,2.957-2.637,4.929-6.556,4.929H98.072L98.072,12.933z
		 M98.072,11.726h0.59c2.293,0,3.451-1.232,3.451-3.671c0-2.341-1.012-3.45-3.105-3.45h-0.936V11.726"/>
	<path fill="#FFFFFF" d="M111.189,8.866l-1.133,2.243h-2.488V8.621c2.514-0.788,4.015-1.085,5.469-1.085
		c1.208,0,2.021,0.173,2.761,0.543c1.134,0.566,1.454,1.182,1.454,2.637v6.505v0.32v0.146c0.023,0.146,0.148,0.246,0.467,0.322
		l1.627,0.393v0.739l-0.566,0.173l-1.061,0.294c-0.591,0.175-0.959,0.274-1.108,0.323c-0.32,0.072-0.69,0.122-1.06,0.122
		c-0.984,0-1.43-0.271-1.847-1.183l-0.938,0.469c-1.157,0.566-1.675,0.714-2.611,0.714c-2.146,0-3.695-1.329-3.695-3.203
		c0-1.552,1.033-2.661,2.833-3.031c0.937-0.198,2.933-0.445,4.189-0.542h0.097v-2.661c0-1.307-0.394-1.799-1.429-1.799
		C111.881,8.818,111.559,8.818,111.189,8.866L111.189,8.866z M113.579,14.338l-0.394,0.048c-0.172,0.024-0.443,0.073-0.813,0.123
		c-1.627,0.197-2.218,0.715-2.218,1.872c0,1.16,0.641,1.701,2.07,1.701c0.442,0,0.763-0.023,1.354-0.123V14.338"/>
	<path fill="#FFFFFF" d="M124.438,19.833l-4.559-10.449l-1.479-0.96V7.659h6.998v0.766l-1.604,0.96l1.727,4.731l0.421,1.034
		l0.295,0.789l2.487-6.555l-1.625-0.96V7.659h4.903v0.766l-1.43,0.96l-5.075,12.172c-0.715,1.674-1.355,2.563-2.291,3.078
		c-0.691,0.396-1.455,0.568-2.367,0.568c-0.74,0-1.354-0.074-2.191-0.298v-2.534h2.289l0.444,1.621
		c1.159-0.244,1.726-0.859,2.44-2.607L124.438,19.833"/>
	<g>
		<path fill="#FFFFFF" d="M146.58,20.049c0-0.691-0.244-1.846-1.167-3.084c-0.923-1.237-6.274-4.774-6.933-10.279
			c-1.908,2.465-2.615,5.636-2.615,7.944c0,2.272,0.578,6.11,2.428,8.309c0.982,1.171,2.195,1.821,3.653,1.821
			C144.506,24.76,146.58,22.65,146.58,20.049"/>
	</g>
	<g>
		<path fill="#FFFFFF" d="M145.816,10.716c0.693,0,1.846-0.244,3.085-1.166c1.236-0.923,4.774-6.275,10.278-6.935
			C156.716,0.708,153.544,0,151.236,0c-2.273,0-6.113,0.579-8.31,2.429c-1.172,0.982-1.821,2.195-1.821,3.654
			C141.105,8.643,143.217,10.716,145.816,10.716"/>
	</g>
	<g>
		<path fill="#FFFFFF" d="M155.151,9.954c0,0.69,0.243,1.845,1.165,3.082c0.923,1.239,6.273,4.776,6.934,10.277
			c1.908-2.461,2.615-5.633,2.615-7.939c0-2.273-0.578-6.112-2.428-8.31c-0.982-1.171-2.195-1.822-3.654-1.822
			C157.225,5.241,155.151,7.353,155.151,9.954"/>
	</g>
	<g>
		<path fill="#FFFFFF" d="M155.913,19.286c-0.691,0-1.846,0.245-3.083,1.167c-1.238,0.921-4.775,6.273-10.279,6.933
			c2.463,1.905,5.635,2.614,7.943,2.614c2.271,0,6.111-0.58,8.309-2.43c1.172-0.98,1.822-2.193,1.822-3.652
			C160.625,21.36,158.514,19.286,155.913,19.286"/>
	</g>
</g>
</svg>
