<?xml version="1.0" encoding="utf-8"?>
<!-- Generator: Adobe Illustrator 16.0.3, SVG Export Plug-In . SVG Version: 6.00 Build 0)  -->
<!DOCTYPE svg PUBLIC "-//W3C//DTD SVG 1.1//EN" "http://www.w3.org/Graphics/SVG/1.1/DTD/svg11.dtd">
<svg version="1.1" id="Layer_1" xmlns="http://www.w3.org/2000/svg" xmlns:xlink="http://www.w3.org/1999/xlink" x="0px" y="0px"
	 width="193.5px" height="133px" viewBox="0 0 193.5 133" enable-background="new 0 0 193.5 133" xml:space="preserve">
<g>
	<polygon fill="#00ACC1" points="167.093,11.656 152.227,16.993 129.393,25.192 112.814,31.183 95.809,37.253 74.376,44.951 
		50.323,53.561 29.635,60.956 29.635,61.009 5.294,69.721 29.635,80.885 43.506,87.312 61.811,76.781 85.092,63.386 104.312,52.327 
		112.819,47.396 138.276,32.793 149.773,26.176 164.549,17.68 188.206,4.067 	"/>
	<polygon fill="#00ACC1" points="161.049,24.878 144.899,37.253 116.148,59.281 100.926,70.943 76.118,89.951 64.115,99.151 
		85.802,109.458 85.802,109.458 111.468,121.671 124.94,101.016 134.521,86.337 147.466,66.498 161.049,45.688 167.093,36.425 
		178.325,19.214 188.206,4.067 	"/>
	<polygon fill="#00838F" points="149.773,26.176 138.276,32.793 112.819,47.396 104.312,52.327 85.092,63.386 61.811,76.781 
		43.506,87.312 59.153,128.933 61.271,116.242 62.714,107.58 64.115,99.151 64.119,99.148 86.44,82.046 100.926,70.943 
		116.148,59.281 128.934,49.48 144.899,37.253 161.049,24.878 188.206,4.067 	"/>
	<polygon fill="#006064" points="64.115,99.151 62.714,107.58 59.153,128.933 71.787,117.044 81.85,107.575 	"/>
</g>
</svg>
