<?xml version="1.0" encoding="utf-8"?>
<!-- Generator: Adobe Illustrator 16.0.4, SVG Export Plug-In . SVG Version: 6.00 Build 0)  -->
<!DOCTYPE svg PUBLIC "-//W3C//DTD SVG 1.1//EN" "http://www.w3.org/Graphics/SVG/1.1/DTD/svg11.dtd">
<svg version="1.1" id="Layer_1" xmlns="http://www.w3.org/2000/svg" xmlns:xlink="http://www.w3.org/1999/xlink" x="0px" y="0px"
	 width="230px" height="33px" viewBox="0 0 230 33" enable-background="new 0 0 230 33" xml:space="preserve">
<g>
	<polygon fill="#DADADA" points="41.971,2.391 38.147,3.764 32.273,5.874 28.008,7.415 23.633,8.976 18.12,10.957 11.932,13.171 
		6.61,15.074 6.61,15.087 0.348,17.329 6.61,20.201 10.178,21.854 14.887,19.145 20.876,15.699 25.821,12.854 28.009,11.585 
		34.558,7.829 37.516,6.126 41.317,3.941 47.403,0.439 	"/>
	<polygon fill="#DADADA" points="40.417,5.792 36.262,8.976 28.866,14.643 24.95,17.643 18.568,22.533 15.48,24.9 21.059,27.551 
		21.059,27.551 27.662,30.693 31.127,25.379 33.592,21.604 36.922,16.5 40.417,11.146 41.971,8.763 44.861,4.335 47.403,0.439 	"/>
	<polygon fill="#C6C6C6" points="37.516,6.126 34.558,7.829 28.009,11.585 25.821,12.854 20.876,15.699 14.887,19.145 
		10.178,21.854 14.204,32.561 14.749,29.297 15.12,27.068 15.48,24.9 15.481,24.898 21.223,20.5 24.95,17.643 28.866,14.643 
		32.155,12.122 36.262,8.976 40.417,5.792 47.403,0.439 	"/>
	<polygon fill="#9D9D9C" points="15.48,24.9 15.12,27.068 14.204,32.561 17.454,29.502 20.042,27.066 	"/>
	<g>
		<g>
			<path fill="#DADADA" d="M65.776,16.737v11.197h-2.477v-4.521h-1.127c-0.204,0-0.395,0.029-0.57,0.082
				c-0.178,0.053-0.344,0.15-0.499,0.289s-0.3,0.33-0.435,0.57c-0.134,0.242-0.26,0.545-0.378,0.91l-0.772,2.67h-2.605l0.852-3.105
				c0.107-0.385,0.269-0.75,0.483-1.094c0.214-0.342,0.548-0.584,0.997-0.723c-0.321-0.098-0.604-0.242-0.844-0.436
				c-0.242-0.193-0.443-0.42-0.604-0.684c-0.161-0.262-0.279-0.547-0.355-0.852c-0.074-0.307-0.111-0.621-0.111-0.943
				c0-0.535,0.096-1.012,0.289-1.43c0.193-0.42,0.453-0.77,0.781-1.055c0.326-0.283,0.71-0.5,1.149-0.652
				c0.44-0.148,0.906-0.225,1.399-0.225H65.776z M59.905,20.195c0,0.418,0.145,0.705,0.435,0.861s0.659,0.232,1.109,0.232h1.851
				v-2.348h-1.931c-0.462,0-0.821,0.104-1.078,0.312C60.034,19.465,59.905,19.777,59.905,20.195z"/>
			<path fill="#DADADA" d="M77.729,20.34c0,0.504-0.102,0.971-0.307,1.4c-0.203,0.43-0.479,0.799-0.828,1.109
				c-0.348,0.312-0.758,0.555-1.23,0.732c-0.472,0.178-0.977,0.266-1.512,0.266h-2.188v4.086h-2.479V16.737h4.617
				c0.59,0,1.126,0.084,1.609,0.25c0.482,0.166,0.895,0.406,1.238,0.714c0.343,0.312,0.609,0.691,0.797,1.135
				C77.635,19.281,77.729,19.783,77.729,20.34z M75.219,20.293c0-0.451-0.135-0.785-0.402-1.006s-0.648-0.33-1.143-0.33h-2.01v2.67
				h2.074c0.408,0,0.756-0.119,1.046-0.361S75.219,20.699,75.219,20.293z"/>
			<path fill="#DADADA" d="M88.153,27.934v-5.324l-0.049-0.018l-1.013,2.27l-0.757,1.576h-1.897l-0.789-1.656l-0.98-2.189
				l-0.048,0.049v5.293h-2.479V16.737h2.24l1.514,3.25l1.451,3.363h0.064l1.4-3.363l1.483-3.25h2.336v11.197H88.153z"/>
			<path fill="#DADADA" d="M100.749,27.934l-0.836-2.285h-3.748l-0.836,2.285h-2.607l4.344-11.197h1.947l4.342,11.197H100.749z
				 M98.722,22.271l-0.659-2.221h-0.064l-0.645,2.188l-0.418,1.318h2.205L98.722,22.271z"/>
			<path fill="#DADADA" d="M114.198,20.34c0,0.504-0.102,0.971-0.306,1.4s-0.481,0.799-0.829,1.109
				c-0.348,0.312-0.759,0.555-1.23,0.732s-0.977,0.266-1.512,0.266h-2.188v4.086h-2.479V16.737h4.617c0.59,0,1.127,0.084,1.609,0.25
				s0.895,0.406,1.238,0.714c0.344,0.312,0.607,0.691,0.796,1.135C114.104,19.281,114.198,19.783,114.198,20.34z M111.688,20.293
				c0-0.451-0.135-0.785-0.402-1.006s-0.648-0.33-1.143-0.33h-2.01v2.67h2.074c0.408,0,0.757-0.119,1.047-0.361
				C111.543,21.023,111.688,20.699,111.688,20.293z"/>
			<path fill="#DADADA" d="M120.473,16.657c0.676,0,1.283,0.109,1.824,0.33c0.543,0.221,1.004,0.523,1.385,0.91
				c0.379,0.385,0.672,0.846,0.875,1.383c0.203,0.535,0.307,1.115,0.307,1.736v2.639c0,0.666-0.104,1.268-0.312,1.811
				c-0.211,0.541-0.506,1.002-0.885,1.383c-0.381,0.381-0.844,0.674-1.385,0.877c-0.541,0.205-1.145,0.305-1.809,0.305
				c-0.73,0-1.365-0.117-1.906-0.354c-0.543-0.236-0.992-0.555-1.352-0.957s-0.629-0.869-0.805-1.398
				c-0.178-0.531-0.266-1.086-0.266-1.666v-2.639c0-0.578,0.088-1.131,0.266-1.656c0.176-0.525,0.445-0.99,0.805-1.391
				c0.359-0.402,0.809-0.722,1.352-0.957C119.107,16.776,119.742,16.657,120.473,16.657z M120.447,18.973
				c-0.312,0-0.582,0.051-0.809,0.152c-0.225,0.104-0.414,0.24-0.564,0.412c-0.15,0.17-0.264,0.367-0.34,0.586
				c-0.074,0.221-0.113,0.441-0.113,0.668v3.041c0,0.246,0.039,0.482,0.113,0.707c0.076,0.225,0.189,0.424,0.34,0.596
				s0.34,0.311,0.564,0.418c0.227,0.107,0.496,0.16,0.809,0.16c0.604,0,1.068-0.178,1.398-0.537
				c0.328-0.361,0.492-0.807,0.492-1.344v-3.041c0-0.494-0.164-0.92-0.492-1.279C121.516,19.152,121.051,18.973,120.447,18.973z"/>
			<path fill="#DADADA" d="M134.209,22.158c0.451,0.15,0.803,0.418,1.055,0.805s0.453,0.848,0.604,1.383l1.078,3.588h-2.525
				l-0.854-2.848c-0.117-0.365-0.252-0.662-0.402-0.893s-0.312-0.408-0.49-0.531s-0.365-0.205-0.562-0.25
				c-0.199-0.041-0.404-0.062-0.621-0.062h-1.189v4.584h-2.477V16.721h2.477v4.488h1.109c0.172,0,0.357-0.016,0.557-0.047
				c0.197-0.033,0.389-0.105,0.57-0.219c0.182-0.111,0.354-0.275,0.514-0.49c0.162-0.215,0.297-0.51,0.402-0.885l0.902-2.798h2.396
				l-1.014,3.265c-0.15,0.525-0.354,0.967-0.611,1.326s-0.559,0.609-0.9,0.748L134.209,22.158z"/>
			<path fill="#DADADA" d="M153.707,24.604c0,0.504-0.094,0.961-0.281,1.367c-0.188,0.408-0.439,0.756-0.756,1.045
				c-0.318,0.291-0.688,0.516-1.111,0.678c-0.422,0.16-0.869,0.24-1.342,0.24h-5.102V16.737h4.715c0.59,0,1.115,0.078,1.576,0.234
				c0.461,0.154,0.852,0.371,1.166,0.65c0.316,0.279,0.557,0.615,0.717,1.006c0.16,0.393,0.242,0.818,0.242,1.279
				c0,0.408-0.109,0.814-0.322,1.223c-0.215,0.408-0.574,0.729-1.078,0.965v0.064c0.258,0.098,0.482,0.236,0.676,0.418
				c0.193,0.184,0.355,0.387,0.49,0.611s0.236,0.461,0.305,0.709C153.672,24.143,153.707,24.379,153.707,24.604z M150.908,20.018
				c0-0.311-0.107-0.564-0.322-0.764c-0.215-0.197-0.578-0.297-1.094-0.297h-1.898v2.236h1.898c0.516,0,0.879-0.117,1.094-0.354
				S150.908,20.33,150.908,20.018z M151.166,24.492c0-0.162-0.027-0.316-0.08-0.469c-0.055-0.148-0.141-0.283-0.258-0.4
				c-0.119-0.119-0.271-0.213-0.459-0.283c-0.188-0.068-0.41-0.104-0.668-0.104h-2.107v2.477h2.107c0.525,0,0.902-0.123,1.127-0.369
				S151.166,24.812,151.166,24.492z"/>
			<path fill="#DADADA" d="M163.391,27.934l-0.836-2.285h-3.748l-0.836,2.285h-2.605l4.342-11.197h1.947l4.344,11.197H163.391z
				 M161.365,22.271l-0.66-2.221h-0.064l-0.645,2.188l-0.418,1.318h2.205L161.365,22.271z"/>
			<path fill="#DADADA" d="M174.699,22.158c0.451,0.15,0.803,0.418,1.055,0.805s0.453,0.848,0.604,1.383l1.078,3.588h-2.525
				l-0.854-2.848c-0.117-0.365-0.252-0.662-0.402-0.893s-0.312-0.408-0.49-0.531s-0.365-0.205-0.564-0.25
				c-0.197-0.041-0.404-0.062-0.617-0.062h-1.191v4.584h-2.477V16.721h2.477v4.488h1.109c0.172,0,0.357-0.016,0.555-0.047
				c0.199-0.033,0.391-0.105,0.572-0.219c0.182-0.111,0.354-0.275,0.516-0.49c0.16-0.215,0.293-0.51,0.402-0.885l0.9-2.798h2.396
				l-1.014,3.265c-0.15,0.525-0.354,0.967-0.611,1.326s-0.559,0.609-0.9,0.748L174.699,22.158z"/>
			<path fill="#DADADA" d="M186.814,27.934l-0.838-2.285h-3.748l-0.836,2.285h-2.605l4.344-11.197h1.945l4.344,11.197H186.814z
				 M184.787,22.271l-0.66-2.221h-0.064l-0.643,2.188l-0.418,1.318h2.203L184.787,22.271z"/>
			<path fill="#DADADA" d="M197.865,27.934v-4.568h-3.668v4.568h-2.477V16.737h2.477v4.488h3.668v-4.488h2.445v11.197H197.865z"/>
			<path fill="#DADADA" d="M211.797,25.215c-0.279,0.879-0.781,1.568-1.504,2.066c-0.725,0.498-1.611,0.748-2.662,0.748
				c-0.73,0-1.365-0.105-1.904-0.32s-0.988-0.516-1.346-0.902c-0.357-0.385-0.623-0.846-0.799-1.383s-0.264-1.125-0.264-1.77v-2.639
				c0-0.578,0.088-1.131,0.264-1.656s0.441-0.99,0.799-1.391c0.357-0.402,0.807-0.722,1.346-0.957
				c0.539-0.236,1.174-0.355,1.904-0.355c1.072,0,1.965,0.262,2.678,0.781c0.713,0.519,1.209,1.208,1.488,2.066l-2.35,0.836
				c-0.086-0.385-0.283-0.709-0.594-0.973c-0.312-0.262-0.725-0.395-1.24-0.395c-0.311,0-0.578,0.051-0.805,0.152
				c-0.225,0.104-0.412,0.24-0.561,0.412c-0.15,0.17-0.266,0.367-0.34,0.586c-0.074,0.221-0.111,0.441-0.111,0.668v3.041
				c0,0.246,0.037,0.482,0.111,0.707s0.189,0.424,0.34,0.596c0.148,0.172,0.336,0.311,0.561,0.418
				c0.227,0.107,0.494,0.16,0.805,0.16c0.506,0,0.914-0.131,1.23-0.393c0.316-0.264,0.518-0.6,0.604-1.006L211.797,25.215z"/>
			<path fill="#DADADA" d="M214.58,27.934V16.737h2.477v11.197H214.58z"/>
			<path fill="#DADADA" d="M220.434,27.934V16.737h2.479v7.013h0.049l2.301-3.586l2.348-3.427h2.043v11.197h-2.477v-6.771h-0.049
				l-1.641,2.654l-2.848,4.117H220.434z M225.084,16.128c-0.461,0-0.848-0.09-1.158-0.266c-0.311-0.178-0.561-0.398-0.748-0.66
				c-0.188-0.264-0.328-0.545-0.418-0.844c-0.092-0.301-0.152-0.576-0.186-0.822h1.609c0,0.107,0.018,0.225,0.057,0.346
				c0.037,0.125,0.094,0.242,0.168,0.355c0.076,0.111,0.168,0.205,0.281,0.281c0.113,0.074,0.244,0.111,0.395,0.111
				s0.281-0.037,0.395-0.111c0.113-0.076,0.207-0.17,0.281-0.281c0.074-0.113,0.131-0.23,0.168-0.355
				c0.039-0.121,0.059-0.238,0.059-0.346h1.607c-0.033,0.246-0.094,0.521-0.186,0.822c-0.09,0.299-0.23,0.58-0.418,0.844
				c-0.188,0.262-0.438,0.482-0.748,0.66C225.932,16.038,225.545,16.128,225.084,16.128z"/>
		</g>
		<g>
			<path fill="#DADADA" d="M61.36,11.688c-0.066-0.102-0.152-0.25-0.262-0.439s-0.234-0.4-0.376-0.631
				c-0.143-0.232-0.288-0.477-0.436-0.729c-0.147-0.254-0.292-0.498-0.435-0.73c-0.141-0.23-0.27-0.441-0.381-0.631
				c-0.113-0.189-0.197-0.338-0.256-0.439c-0.07,0.084-0.174,0.207-0.309,0.371s-0.278,0.338-0.43,0.521s-0.294,0.357-0.429,0.521
				c-0.136,0.164-0.235,0.287-0.3,0.371v1.814h-0.656V4.97h0.656v3.959h0.02l1.447-1.777l1.806-2.182h0.743
				c-0.059,0.072-0.144,0.176-0.256,0.311c-0.113,0.135-0.238,0.287-0.377,0.459c-0.139,0.17-0.285,0.348-0.439,0.535
				C60.538,6.46,60.391,6.64,60.252,6.81c-0.138,0.17-0.262,0.322-0.371,0.459c-0.109,0.135-0.193,0.238-0.25,0.309
				c0.064,0.115,0.162,0.281,0.294,0.496c0.132,0.217,0.278,0.457,0.438,0.725c0.161,0.268,0.33,0.547,0.507,0.84
				s0.346,0.57,0.507,0.834s0.306,0.504,0.435,0.721c0.128,0.215,0.229,0.381,0.3,0.496H61.36z"/>
			<path fill="#DADADA" d="M63.69,13.44c-0.21,0.119-0.436,0.18-0.682,0.18H62.69v-0.541H63c0.147,0,0.281-0.043,0.399-0.131
				c0.119-0.086,0.215-0.246,0.285-0.479l0.262-0.801l-1.768-4.758h0.676l0.782,2.211l0.599,1.766h0.029
				c0.063-0.193,0.15-0.451,0.26-0.777c0.109-0.324,0.229-0.67,0.357-1.037l0.743-2.162h0.637l-2.065,5.82
				C64.067,13.085,63.898,13.321,63.69,13.44z"/>
			<path fill="#DADADA" d="M67.092,5.599V4.97h0.637v0.629H67.092z M67.112,11.688V6.901h0.607v4.787H67.112z"/>
			<path fill="#DADADA" d="M70.711,10.839c0.09-0.258,0.183-0.531,0.279-0.824s0.186-0.568,0.271-0.824
				c0.127-0.375,0.258-0.754,0.391-1.141c0.131-0.387,0.262-0.766,0.391-1.139h0.675l-1.757,4.777h-0.56
				c-0.296-0.791-0.593-1.588-0.888-2.389s-0.588-1.598-0.879-2.389h0.666c0.135,0.367,0.27,0.744,0.4,1.135
				c0.132,0.389,0.263,0.77,0.392,1.145c0.026,0.068,0.065,0.182,0.12,0.336s0.112,0.316,0.174,0.488
				c0.061,0.17,0.119,0.332,0.174,0.486s0.096,0.268,0.12,0.338H70.711z"/>
			<path fill="#DADADA" d="M80.499,6.97c0,0.225-0.045,0.453-0.132,0.684c-0.086,0.232-0.215,0.439-0.386,0.623
				c-0.17,0.184-0.383,0.334-0.637,0.449s-0.549,0.174-0.884,0.174h-1.892v2.789h-0.656V4.97h2.433c0.271,0,0.536,0.039,0.796,0.113
				c0.262,0.072,0.491,0.189,0.689,0.348c0.2,0.156,0.361,0.363,0.482,0.617C80.436,6.302,80.499,6.608,80.499,6.97z M79.801,6.94
				c0-0.232-0.036-0.434-0.109-0.604c-0.074-0.17-0.178-0.312-0.31-0.424C79.25,5.8,79.096,5.714,78.918,5.657
				c-0.176-0.059-0.365-0.088-0.563-0.088h-1.786v2.723h1.824c0.244,0,0.455-0.041,0.633-0.121c0.177-0.082,0.323-0.184,0.438-0.309
				c0.116-0.127,0.2-0.27,0.257-0.43C79.775,7.271,79.801,7.106,79.801,6.94z"/>
			<path fill="#DADADA" d="M83.176,6.864c0.347,0,0.65,0.066,0.914,0.201s0.475,0.328,0.635,0.578
				c0.109,0.17,0.197,0.393,0.261,0.672s0.093,0.619,0.087,1.018c-0.007,0.381-0.047,0.701-0.12,0.965
				c-0.075,0.266-0.172,0.486-0.295,0.666c-0.179,0.271-0.407,0.469-0.683,0.594c-0.277,0.127-0.578,0.189-0.906,0.189
				c-0.653,0-1.145-0.213-1.473-0.637c-0.154-0.207-0.265-0.457-0.332-0.748c-0.067-0.293-0.101-0.646-0.101-1.057
				c0-0.361,0.032-0.668,0.097-0.918c0.063-0.25,0.157-0.473,0.279-0.666c0.166-0.27,0.388-0.48,0.664-0.633
				C82.479,6.938,82.803,6.864,83.176,6.864z M83.152,7.403c-0.245,0-0.46,0.055-0.647,0.164c-0.187,0.109-0.334,0.258-0.443,0.445
				c-0.096,0.152-0.169,0.332-0.217,0.535c-0.049,0.203-0.072,0.457-0.072,0.768c0,0.309,0.023,0.566,0.072,0.775
				c0.048,0.209,0.117,0.389,0.207,0.537c0.109,0.18,0.252,0.318,0.43,0.42c0.176,0.098,0.385,0.148,0.623,0.148
				c0.25,0,0.477-0.055,0.676-0.164s0.354-0.287,0.463-0.531c0.064-0.129,0.117-0.287,0.159-0.473
				c0.04-0.186,0.062-0.424,0.062-0.713c0-0.311-0.019-0.561-0.054-0.748c-0.035-0.191-0.085-0.35-0.148-0.479
				C84.03,7.632,83.661,7.403,83.152,7.403z"/>
			<path fill="#DADADA" d="M89.638,10.327c0,0.418-0.165,0.76-0.493,1.023s-0.781,0.396-1.36,0.396c-0.349,0-0.69-0.051-1.028-0.15
				s-0.645-0.262-0.922-0.486l0.377-0.473c0.457,0.379,0.998,0.568,1.621,0.568c0.143,0,0.285-0.016,0.43-0.049
				s0.273-0.082,0.387-0.154c0.111-0.07,0.203-0.16,0.274-0.27s0.106-0.244,0.106-0.406c0-0.141-0.033-0.26-0.098-0.357
				c-0.064-0.096-0.152-0.174-0.265-0.236c-0.112-0.061-0.242-0.105-0.391-0.139c-0.147-0.033-0.302-0.059-0.464-0.078
				c-0.199-0.025-0.398-0.057-0.598-0.096s-0.381-0.102-0.541-0.188c-0.16-0.088-0.293-0.207-0.396-0.359
				c-0.103-0.15-0.153-0.352-0.153-0.602c0-0.219,0.045-0.416,0.136-0.594c0.093-0.178,0.216-0.326,0.372-0.449
				s0.34-0.215,0.553-0.279s0.44-0.098,0.686-0.098c0.354,0,0.66,0.041,0.922,0.121c0.26,0.08,0.5,0.201,0.72,0.363l-0.339,0.48
				c-0.187-0.119-0.385-0.219-0.594-0.293s-0.442-0.111-0.699-0.111c-0.341,0-0.617,0.072-0.826,0.217
				c-0.208,0.145-0.316,0.35-0.322,0.615c0,0.133,0.031,0.242,0.096,0.326s0.154,0.152,0.273,0.207
				c0.117,0.055,0.258,0.098,0.422,0.131c0.162,0.033,0.347,0.061,0.551,0.086c0.18,0.02,0.361,0.057,0.547,0.107
				s0.352,0.127,0.504,0.227c0.15,0.1,0.272,0.23,0.369,0.391C89.589,9.882,89.638,10.083,89.638,10.327z"/>
			<path fill="#DADADA" d="M92.041,11.688c-0.347,0-0.606-0.098-0.782-0.289c-0.173-0.193-0.26-0.471-0.26-0.83V7.423H90.39V6.901
				h0.608V5.677h0.607v1.225h0.812v0.521h-0.812v3.029c0,0.092,0.007,0.18,0.02,0.262c0.014,0.084,0.042,0.158,0.088,0.223
				c0.045,0.064,0.104,0.113,0.178,0.148c0.074,0.037,0.176,0.053,0.305,0.053h0.356v0.551H92.041z"/>
		</g>
	</g>
</g>
</svg>
