<?xml version="1.0" encoding="utf-8"?>
<!-- Generator: Adobe Illustrator 16.0.3, SVG Export Plug-In . SVG Version: 6.00 Build 0)  -->
<!DOCTYPE svg PUBLIC "-//W3C//DTD SVG 1.1//EN" "http://www.w3.org/Graphics/SVG/1.1/DTD/svg11.dtd">
<svg version="1.1" id="Layer_1" xmlns="http://www.w3.org/2000/svg" xmlns:xlink="http://www.w3.org/1999/xlink" x="0px" y="0px"
	 width="208.542px" height="51.363px" viewBox="0 0 208.542 51.363" enable-background="new 0 0 208.542 51.363"
	 xml:space="preserve">
<g>
	<rect x="55.32" y="43.351" fill="#FFFFFF" width="0.891" height="3.918"/>
	<polygon fill="#FFFFFF" points="67.605,45.612 66.164,45.612 66.164,46.542 67.775,46.542 67.775,47.268 65.275,47.268 
		65.275,43.35 67.693,43.35 67.693,44.078 66.164,44.078 66.164,44.89 67.605,44.89 	"/>
	<polygon fill="#FFFFFF" points="74.179,45.612 72.736,45.612 72.736,46.542 74.347,46.542 74.347,47.268 71.847,47.268 
		71.847,43.35 74.266,43.35 74.266,44.078 72.736,44.078 72.736,44.89 74.179,44.89 	"/>
	<polygon fill="#FFFFFF" points="85.605,45.612 84.164,45.612 84.164,46.542 85.775,46.542 85.775,47.268 83.275,47.268 
		83.275,43.35 85.693,43.35 85.693,44.078 84.164,44.078 84.164,44.89 85.605,44.89 	"/>
	<polygon fill="#FFFFFF" points="96.387,45.612 94.944,45.612 94.944,46.542 96.555,46.542 96.555,47.268 94.055,47.268 
		94.055,43.35 96.474,43.35 96.474,44.078 94.944,44.078 94.944,44.89 96.387,44.89 	"/>
	<rect x="125.604" y="43.351" fill="#FFFFFF" width="0.89" height="3.918"/>
	<polygon fill="#FFFFFF" points="128.044,44.094 126.992,44.094 126.992,43.35 130.003,43.35 130.003,44.094 128.933,44.094 
		128.933,47.268 128.044,47.268 	"/>
	<polygon fill="#FFFFFF" points="137.153,44.094 136.101,44.094 136.101,43.35 139.112,43.35 139.112,44.094 138.044,44.094 
		138.044,47.268 137.153,47.268 	"/>
	<polygon fill="#FFFFFF" points="151.013,44.094 149.96,44.094 149.96,43.35 152.972,43.35 152.972,44.094 151.903,44.094 
		151.903,47.268 151.013,47.268 	"/>
	<path fill="#FFFFFF" d="M15.809,23.49v7.196c0,0.428-0.036,0.779-0.114,1.052c0.044,0.924,0.133,1.628,0.269,2.11
		c0.137,0.481,0.416,0.862,0.84,1.142c0.424,0.279,1.105,0.49,2.047,0.636c1.086,0.127,1.629,0.495,1.629,1.101
		c0,0.705-0.403,1.053-1.206,1.053c-0.753,0-2.062-0.033-3.927-0.103c-1.864-0.067-3.253-0.103-4.169-0.103
		c-0.624,0-1.848,0.034-3.669,0.103c-1.822,0.068-3.106,0.103-3.85,0.103c-0.394,0-0.709-0.062-0.95-0.187
		c-0.238-0.123-0.358-0.411-0.358-0.866c0-0.358,0.143-0.632,0.429-0.818c0.287-0.189,0.617-0.283,0.994-0.283
		c1.018-0.137,1.757-0.348,2.219-0.63c0.462-0.282,0.759-0.667,0.891-1.155c0.133-0.485,0.199-1.188,0.199-2.104v-1.053V12.017
		v-1.055c0-1.42-0.173-2.41-0.519-2.972C6.216,7.433,5.388,7.058,4.08,6.869c-0.573-0.067-1.006-0.17-1.296-0.305
		c-0.29-0.138-0.435-0.383-0.435-0.741c0-0.45,0.098-0.729,0.294-0.834c0.197-0.106,0.502-0.16,0.911-0.16
		c1.095,0,2.529,0.04,4.298,0.117c1.771,0.077,3.055,0.115,3.85,0.115c1.07,0,2.326-0.038,3.772-0.115
		c1.445-0.077,2.711-0.117,3.798-0.117c0.803,0,1.206,0.315,1.206,0.943c0,0.348-0.104,0.587-0.309,0.715
		c-0.205,0.127-0.576,0.255-1.115,0.382c-1.104,0.189-1.871,0.434-2.303,0.732c-0.431,0.301-0.697,0.742-0.796,1.331
		c-0.098,0.586-0.147,1.615-0.147,3.09v6.693c0,0.239-0.036,0.435-0.114,0.579c0.078,0.273,0.183,0.41,0.319,0.41
		c0.129,0,0.602-0.328,1.422-0.989c0.332-0.351,0.9-0.927,1.703-1.728c0.801-0.802,1.563-1.566,2.285-2.3
		c0.719-0.734,2.077-2.149,4.076-4.247c1.297-1.372,1.945-2.283,1.945-2.738c0-0.557-0.51-0.835-1.525-0.835
		c-0.804-0.075-1.382-0.179-1.732-0.305c-0.35-0.128-0.525-0.426-0.525-0.893c0-0.384,0.111-0.62,0.333-0.708
		c0.222-0.091,0.586-0.136,1.091-0.136h12.655H38.1c0.77,0,1.156,0.247,1.156,0.739c0,0.868-0.964,1.301-2.887,1.301
		c-2.205,0-4.111,0.72-5.718,2.156l-5.464,5.045c-1.299,1.301-1.948,2.162-1.948,2.58c0,0.335,0.249,0.736,0.744,1.207
		l12.181,14.249c1.256,1.531,2.111,2.461,2.564,2.785c0.375,0.308,0.908,0.505,1.596,0.59c0.688,0.086,1.129,0.163,1.322,0.231
		c0.191,0.067,0.287,0.338,0.287,0.809c0,0.84-0.717,1.257-2.153,1.257c-0.813,0-2.078-0.033-3.796-0.103
		c-1.719-0.067-2.992-0.103-3.821-0.103c-0.794,0-1.987,0.034-3.577,0.103c-1.591,0.068-2.757,0.103-3.5,0.103
		c-0.949,0-1.424-0.417-1.424-1.255c0-0.377,0.119-0.634,0.359-0.77c0.238-0.138,0.58-0.234,1.025-0.297
		c0.444-0.06,0.772-0.133,0.981-0.218c0.209-0.086,0.315-0.27,0.315-0.551c0-0.214-0.059-0.423-0.174-0.624
		c-0.115-0.199-0.289-0.428-0.519-0.68s-0.456-0.502-0.679-0.75l-7.436-9.248c-0.699-0.846-1.189-1.321-1.472-1.422
		c-0.146,0-0.269,0.313-0.371,0.947C15.772,23.06,15.809,23.25,15.809,23.49"/>
	<path fill="#FFFFFF" d="M39.533,20.135c-0.564-1.146-1.059-2.05-1.487-2.703c-0.428-0.655-0.784-1.099-1.069-1.331
		c-0.287-0.23-0.586-0.366-0.898-0.404c-0.313-0.036-0.594-0.065-0.84-0.082c-1.018-0.215-1.526-0.617-1.526-1.209
		c0-0.563,0.577-0.847,1.731-0.847h13.234c1.23,0,1.848,0.282,1.848,0.846c0,0.489-0.285,0.812-0.854,0.97
		c-0.569,0.158-1.139,0.316-1.712,0.476c-0.574,0.157-0.858,0.479-0.858,0.969c0,0.325,0.28,1.078,0.846,2.258l3.886,8.249
		c0.067,0.085,0.188,0.283,0.358,0.59c0.17,0.31,0.316,0.542,0.436,0.701c0.12,0.157,0.24,0.236,0.361,0.236
		c0.238,0,0.447-0.19,0.627-0.57c0.18-0.381,0.338-0.734,0.475-1.059l3.514-7.931c0.393-0.854,0.59-1.541,0.59-2.053
		c0-0.582-0.195-0.975-0.584-1.182c-0.388-0.204-0.957-0.346-1.705-0.424c-0.748-0.075-1.291-0.184-1.629-0.32
		c-0.338-0.137-0.506-0.439-0.506-0.91c0-0.563,0.598-0.846,1.795-0.846h8.977c0.548,0,0.912,0.048,1.097,0.146
		s0.276,0.333,0.276,0.699c0,0.712-0.475,1.115-1.424,1.208c-0.84,0.078-1.448,0.205-1.827,0.385
		c-0.38,0.182-0.802,0.639-1.265,1.374c-0.461,0.737-1.146,2.062-2.051,3.971l-7.721,16.258c-0.059,0.151-0.563,1.356-1.506,3.612
		c-0.945,2.256-1.461,3.526-1.545,3.81c-0.463,1.385-0.783,2.274-0.963,2.672c-0.18,0.395-0.504,0.69-0.976,0.891
		c-0.47,0.201-1.26,0.301-2.372,0.301c-1.557,0-2.714-0.186-3.475-0.556c-0.762-0.37-1.141-1.146-1.141-2.328
		c0-2.201,0.927-3.384,2.781-3.546c0.907,0.138,1.711,0.206,2.411,0.206c0.89,0,1.718-0.361,2.481-1.087
		c0.765-0.724,1.15-1.535,1.15-2.435c0-0.764-0.352-1.709-1.054-2.841L39.533,20.135z"/>
	<path fill="#FFFFFF" d="M68.933,22.708V21.76c0-0.862-0.149-1.532-0.448-2.008c-0.299-0.475-0.937-0.732-1.91-0.774
		c-0.078,0-0.186,0.031-0.322,0.103c-0.436-0.087-0.754-0.184-0.955-0.296c-0.201-0.109-0.301-0.346-0.301-0.704
		c0-0.323,0.18-0.563,0.539-0.717c0.357-0.153,0.932-0.334,1.717-0.537c1.104-0.213,2.326-0.655,3.668-1.326
		c1.344-0.67,2.379-1.415,3.105-2.233c0.59-0.599,1.206-0.896,1.848-0.896c0.315,0,0.533,0.139,0.654,0.416
		c0.118,0.278,0.178,0.784,0.178,1.521v16.18c0,0.982-0.032,1.7-0.102,2.151c0.025,0.786,0.079,1.354,0.16,1.699
		c0.081,0.347,0.225,0.595,0.432,0.743c0.203,0.149,0.524,0.259,0.959,0.321c0.437,0.063,0.988,0.139,1.655,0.224
		c0.386,0.042,0.683,0.175,0.892,0.397c0.209,0.222,0.314,0.424,0.314,0.604c0,0.7-0.543,1.051-1.629,1.051H66.252
		c-1.119,0-1.68-0.351-1.68-1.053c0-0.41,0.159-0.688,0.48-0.832c0.32-0.145,0.791-0.24,1.411-0.281
		c0.62-0.045,1.092-0.11,1.417-0.206c0.326-0.095,0.535-0.301,0.63-0.617c0.28-0.614,0.422-2.018,0.422-4.206L68.933,22.708
		L68.933,22.708z"/>
	<path fill="#FFFFFF" d="M68.087,6.463c0-1.203,0.476-2.168,1.429-2.895c0.955-0.729,2.021-1.089,3.201-1.089
		c1.24,0,2.319,0.349,3.238,1.051c0.92,0.699,1.38,1.679,1.38,2.933c0,1.357-0.467,2.415-1.399,3.171
		c-0.932,0.757-2.039,1.137-3.32,1.137c-1.258,0-2.327-0.39-3.208-1.16C68.527,8.835,68.087,7.789,68.087,6.463"/>
	<path fill="#FFFFFF" d="M82.735,19.392c-0.573-1.216-0.983-2.032-1.231-2.455s-0.553-0.741-0.918-0.956
		c-0.362-0.214-0.906-0.373-1.635-0.475c-0.47-0.067-0.787-0.158-0.955-0.27c-0.166-0.111-0.25-0.338-0.25-0.679
		c0-0.668,0.578-1.001,1.731-1.001h13.134c1.086,0,1.631,0.314,1.631,0.947c0,0.419-0.145,0.693-0.432,0.821
		s-0.734,0.223-1.34,0.283c-0.607,0.058-1.061,0.159-1.36,0.301c-0.298,0.14-0.448,0.442-0.448,0.905
		c0,0.171,0.076,0.465,0.23,0.878c0.154,0.415,0.27,0.756,0.348,1.02l3.731,8.404c0.394,1.019,0.692,1.527,0.897,1.527
		c0.274,0,0.553-0.44,0.834-1.322l2.795-6.196c0.806-1.777,1.207-3.007,1.207-3.683c-0.103-1.035-0.895-1.647-2.373-1.834
		c-0.642-0.077-1.09-0.17-1.347-0.277c-0.257-0.105-0.385-0.364-0.385-0.773c0-0.668,0.44-1.001,1.319-1.001h9.248
		c1.01,0,1.516,0.314,1.516,0.947c0,0.539-0.402,0.906-1.205,1.103c-1.205,0.173-1.984,0.355-2.335,0.552
		c-0.353,0.198-0.762,0.8-1.232,1.808l-8.617,17.97c-0.488,0.931-0.858,1.522-1.11,1.774c-0.252,0.251-0.708,0.377-1.366,0.377
		c-0.357,0-0.656-0.032-0.891-0.102c-0.236-0.067-0.42-0.178-0.551-0.326c-0.133-0.151-0.285-0.424-0.457-0.822
		c-0.172-0.396-0.291-0.665-0.358-0.802L82.735,19.392z"/>
	<path fill="#FFFFFF" d="M119.112,18.617c0,1.089,0.107,1.706,0.322,1.852c0.639,0.453,1.586,0.681,2.832,0.681
		c1.418,0,2.573-0.353,3.469-1.055c0.894-0.702,1.537-1.602,1.929-2.694c0.395-1.094,0.592-2.231,0.592-3.416
		c0-1.945-0.57-3.618-1.711-5.019c-1.144-1.397-2.637-2.096-4.482-2.096c-1.154,0-1.934,0.31-2.34,0.926
		c-0.406,0.617-0.609,1.539-0.609,2.768v2.366L119.112,18.617L119.112,18.617z M119.112,24.12v6.566c0,1.273,0.05,2.195,0.147,2.765
		c0.099,0.568,0.367,1.029,0.81,1.386c0.438,0.354,1.173,0.617,2.197,0.789c1.086,0.127,1.629,0.496,1.629,1.102
		c0,0.704-0.401,1.052-1.207,1.052c-0.754,0-2.063-0.033-3.929-0.103c-1.866-0.068-3.258-0.104-4.172-0.104
		c-0.625,0-1.85,0.034-3.672,0.104c-1.821,0.068-3.106,0.103-3.852,0.103c-0.393,0-0.709-0.062-0.951-0.187
		c-0.238-0.122-0.359-0.411-0.359-0.865c0-0.36,0.146-0.632,0.433-0.819c0.285-0.189,0.617-0.283,0.992-0.283
		c1.018-0.138,1.758-0.348,2.219-0.629c0.461-0.283,0.761-0.668,0.892-1.156c0.133-0.485,0.2-1.188,0.2-2.104v-1.053V12.017v-1.055
		c0-1.017-0.063-1.778-0.182-2.285c-0.119-0.503-0.39-0.896-0.813-1.18c-0.423-0.282-1.093-0.491-2.007-0.629
		c-0.649-0.084-1.1-0.175-1.353-0.268c-0.252-0.096-0.379-0.318-0.379-0.678c0-0.73,0.402-1.096,1.207-1.096
		c1.053,0,2.248,0.039,3.582,0.117c1.334,0.076,2.404,0.114,3.207,0.114c1.729,0,3.674-0.038,5.836-0.114
		c2.158-0.078,3.979-0.117,5.459-0.117c1.893,0,3.424,0.117,4.602,0.354c1.176,0.234,2.309,0.693,3.396,1.378
		c2.729,1.722,4.094,4.192,4.094,7.419c-0.043,1.678-0.463,3.289-1.258,4.839c-0.793,1.549-1.973,2.817-3.533,3.812
		c-1.563,0.993-3.449,1.489-5.664,1.489c-0.908,0-1.695-0.073-2.361-0.217c-0.668-0.146-1.52-0.362-2.561-0.65
		c-1.039-0.29-1.729-0.435-2.072-0.435c-0.357,0-0.584,0.227-0.678,0.677C119.08,23.639,119.112,23.846,119.112,24.12"/>
	<path fill="#FFFFFF" d="M144.498,24.117c0,1.923,0.276,3.822,0.828,5.699c0.553,1.875,1.35,3.416,2.395,4.624
		c1.043,1.211,2.266,1.814,3.67,1.814c1.709,0,3.096-0.877,4.15-2.632c1.057-1.757,1.584-4.171,1.584-7.238
		c0-2.076-0.302-4.02-0.91-5.826c-0.607-1.809-1.43-3.241-2.471-4.302c-1.037-1.059-2.175-1.591-3.406-1.591
		c-1.105,0-2.099,0.393-2.984,1.169c-0.885,0.777-1.582,1.891-2.092,3.339C144.753,20.622,144.498,22.27,144.498,24.117
		 M135.976,25.488c0-2.427,0.709-4.601,2.125-6.521c1.414-1.918,3.268-3.401,5.557-4.454c2.287-1.051,4.687-1.575,7.191-1.575
		c2.121,0,4.078,0.32,5.865,0.962c1.789,0.641,3.332,1.521,4.627,2.646c1.297,1.122,2.299,2.425,3.008,3.902
		c0.711,1.478,1.066,3.017,1.066,4.615c0,2.546-0.707,4.806-2.123,6.773c-1.416,1.971-3.267,3.487-5.551,4.551
		c-2.285,1.064-4.687,1.596-7.199,1.596c-2.457,0-4.799-0.472-7.033-1.414c-2.232-0.944-4.047-2.363-5.441-4.257
		C136.673,30.419,135.976,28.146,135.976,25.488"/>
	<path fill="#FFFFFF" d="M166.765,31.525c0.086-0.717,0.18-1.201,0.287-1.453c0.107-0.253,0.43-0.381,0.969-0.381
		c0.471,0,0.895,0.326,1.264,0.975c0.373,0.65,0.828,1.449,1.367,2.392c0.539,0.943,1.268,1.714,2.184,2.308
		c0.914,0.596,2.15,0.891,3.709,0.891c0.699,0,1.449-0.12,2.246-0.361c0.795-0.244,1.478-0.624,2.045-1.136
		c0.57-0.515,0.854-1.153,0.854-1.926c0-0.955-0.364-1.725-1.099-2.305c-0.729-0.582-1.819-1.107-3.266-1.578
		c-2.061-0.668-3.508-1.148-4.338-1.449c-0.83-0.297-1.754-0.744-2.771-1.339c-1.02-0.594-1.85-1.33-2.489-2.211
		s-0.961-1.909-0.961-3.09c0-1.428,0.478-2.75,1.437-3.968c0.959-1.219,2.246-2.182,3.862-2.892
		c1.617-0.708,3.371-1.063,5.263-1.063c2.121,0,4.557,0.315,7.303,0.946c0.717,0.216,1.152,0.414,1.301,0.6
		c0.148,0.184,0.225,0.663,0.225,1.44v1.321c-0.078,0.471-0.172,0.981-0.289,1.534c-0.115,0.55-0.387,0.826-0.813,0.826
		c-0.486,0-1.099-0.402-1.832-1.208c-0.894-1.206-1.49-1.979-1.796-2.325c-0.305-0.347-0.747-0.651-1.336-0.911
		c-0.586-0.262-1.366-0.392-2.346-0.392c-1.231,0-2.26,0.234-3.082,0.705c-0.82,0.469-1.231,1.162-1.231,2.078
		c0,0.989,0.409,1.667,1.229,2.029c0.822,0.365,2.57,0.975,5.24,1.832c2.672,0.86,4.645,1.827,5.922,2.897
		c1.275,1.074,1.914,2.618,1.914,4.637c0,1.57-0.459,3.056-1.375,4.455c-0.914,1.396-2.295,2.525-4.137,3.39
		c-1.846,0.863-4.09,1.293-6.732,1.293c-2.959,0-5.416-0.523-7.365-1.575c-0.592-0.3-0.981-0.62-1.176-0.963
		c-0.19-0.341-0.289-0.931-0.289-1.769L166.765,31.525z"/>
	<path fill="#FFFFFF" d="M199.289,18.171v8.742c0,1.481,0.055,2.727,0.166,3.729c0.11,1.002,0.354,1.813,0.721,2.435
		c0.369,0.623,0.916,0.935,1.646,0.935c0.513,0,0.976-0.102,1.388-0.304c0.412-0.199,0.858-0.461,1.344-0.78
		c0.484-0.32,0.82-0.481,1.01-0.481c0.162,0,0.309,0.068,0.436,0.204c0.129,0.139,0.195,0.313,0.195,0.524
		c0,0.477-0.389,1.112-1.162,1.907c-0.777,0.797-1.795,1.498-3.057,2.103c-1.264,0.604-2.609,0.905-4.039,0.905
		c-1.979,0-3.549-0.67-4.719-2.008s-1.752-3.353-1.752-6.04V18.952c0-1.283-0.072-2.077-0.219-2.383
		c-0.146-0.303-0.543-0.455-1.193-0.455c-0.428,0-0.816,0.034-1.166,0.104c-0.734-0.128-1.104-0.368-1.104-0.726
		c0-0.279,0.13-0.517,0.386-0.713c0.258-0.194,0.672-0.428,1.246-0.699c3.336-1.322,5.668-3.21,6.996-5.66
		c0.616-1.153,1.229-1.73,1.836-1.73c0.563,0,0.848,0.384,0.848,1.152v0.781v3.627c0,0.667,0.049,1.073,0.146,1.219
		c0.101,0.146,0.418,0.247,0.957,0.309c0.216-0.075,0.425-0.115,0.63-0.115h2.887h0.594c0.443,0,0.748,0.061,0.91,0.178
		c0.162,0.119,0.244,0.392,0.244,0.813c0,0.695-0.103,1.112-0.31,1.251c-0.205,0.143-0.721,0.211-1.543,0.211h-2.571
		c-0.644,0-1.068,0.03-1.279,0.092c-0.211,0.06-0.34,0.211-0.394,0.455C199.313,16.906,199.289,17.408,199.289,18.171"/>
	<path fill="#FFFFFF" d="M57.061,47.268V43.35h1.035l0.814,1.437c0.231,0.412,0.465,0.901,0.639,1.343h0.018
		c-0.059-0.518-0.076-1.047-0.076-1.64v-1.14h0.814v3.918h-0.93l-0.838-1.513c-0.232-0.418-0.487-0.924-0.68-1.383l-0.018,0.006
		c0.023,0.519,0.035,1.07,0.035,1.709v1.181H57.061z"/>
	<path fill="#FFFFFF" d="M62.044,46.6c0.077,0.018,0.199,0.018,0.308,0.018c0.804,0.006,1.326-0.436,1.326-1.373
		C63.686,44.431,63.207,44,62.445,44c-0.198,0-0.324,0.02-0.401,0.037V46.6z M61.154,43.403c0.326-0.053,0.75-0.08,1.197-0.08
		c0.744,0,1.228,0.133,1.605,0.418c0.407,0.301,0.663,0.785,0.663,1.477c0,0.75-0.272,1.267-0.652,1.587
		c-0.413,0.345-1.04,0.506-1.807,0.506c-0.46,0-0.785-0.027-1.007-0.06L61.154,43.403L61.154,43.403z"/>
	<path fill="#FFFFFF" d="M69.364,45.181c0.075,0.019,0.169,0.021,0.297,0.021c0.472,0,0.763-0.236,0.763-0.637
		c0-0.361-0.25-0.576-0.693-0.576c-0.18,0-0.301,0.017-0.366,0.035v1.156H69.364z M68.487,43.403c0.272-0.046,0.655-0.08,1.196-0.08
		c0.547,0,0.937,0.104,1.199,0.313c0.248,0.197,0.418,0.523,0.418,0.906c0,0.384-0.129,0.711-0.361,0.932
		c-0.303,0.283-0.75,0.412-1.272,0.412c-0.116,0-0.221-0.005-0.303-0.018v1.4h-0.877V43.403z"/>
	<path fill="#FFFFFF" d="M75.059,47.268V43.35h1.035l0.813,1.437c0.232,0.412,0.465,0.901,0.641,1.343h0.018
		c-0.06-0.518-0.076-1.047-0.076-1.64v-1.14h0.814v3.918h-0.932l-0.836-1.513c-0.232-0.418-0.489-0.924-0.68-1.383l-0.019,0.006
		c0.024,0.519,0.036,1.07,0.036,1.709v1.181H75.059z"/>
	<path fill="#FFFFFF" d="M80.045,46.6c0.074,0.018,0.196,0.018,0.308,0.018c0.803,0.006,1.325-0.436,1.325-1.373
		C81.684,44.431,81.207,44,80.445,44c-0.198,0-0.326,0.02-0.4,0.037V46.6z M79.155,43.403c0.325-0.053,0.749-0.08,1.197-0.08
		c0.743,0,1.226,0.133,1.604,0.418c0.407,0.301,0.663,0.785,0.663,1.477c0,0.75-0.274,1.267-0.651,1.587
		c-0.414,0.345-1.041,0.506-1.808,0.506c-0.46,0-0.786-0.027-1.006-0.06L79.155,43.403L79.155,43.403z"/>
	<path fill="#FFFFFF" d="M86.486,47.268V43.35h1.035l0.813,1.437c0.234,0.412,0.466,0.901,0.641,1.343h0.018
		c-0.059-0.518-0.076-1.047-0.076-1.64v-1.14h0.814v3.918H88.8l-0.838-1.513c-0.231-0.418-0.487-0.924-0.681-1.383l-0.018,0.006
		c0.025,0.519,0.036,1.07,0.036,1.709v1.181H86.486z"/>
	<path fill="#FFFFFF" d="M93.436,47.159c-0.162,0.08-0.529,0.174-1.006,0.174c-1.354,0-2.051-0.849-2.051-1.964
		c0-1.339,0.952-2.082,2.139-2.082c0.459,0,0.808,0.093,0.965,0.175l-0.18,0.703c-0.182-0.076-0.431-0.146-0.744-0.146
		c-0.703,0-1.252,0.425-1.252,1.297c0,0.784,0.467,1.277,1.256,1.277c0.269,0,0.566-0.058,0.74-0.127L93.436,47.159z"/>
	<path fill="#FFFFFF" d="M97.741,47.333c-0.297,0-0.511-0.227-0.511-0.534c0-0.314,0.214-0.542,0.521-0.542
		c0.309,0,0.518,0.224,0.518,0.542c0,0.309-0.209,0.534-0.522,0.534H97.741z"/>
	<path fill="#FFFFFF" d="M102.77,47.159c-0.162,0.08-0.529,0.174-1.006,0.174c-1.354,0-2.052-0.849-2.052-1.964
		c0-1.339,0.953-2.082,2.14-2.082c0.459,0,0.808,0.093,0.965,0.175l-0.182,0.703c-0.179-0.076-0.428-0.146-0.742-0.146
		c-0.705,0-1.252,0.425-1.252,1.297c0,0.784,0.467,1.277,1.256,1.277c0.269,0,0.564-0.058,0.738-0.127L102.77,47.159z"/>
	<path fill="#FFFFFF" d="M104.054,45.322c0,0.767,0.359,1.308,0.953,1.308c0.598,0,0.941-0.569,0.941-1.332
		c0-0.7-0.339-1.307-0.947-1.307C104.404,43.991,104.054,44.559,104.054,45.322 M106.884,45.27c0,1.282-0.777,2.063-1.926,2.063
		c-1.162,0-1.84-0.878-1.84-1.994c0-1.174,0.751-2.052,1.908-2.052C106.228,43.287,106.884,44.188,106.884,45.27"/>
	<path fill="#FFFFFF" d="M110.823,45.768c-0.018-0.472-0.034-1.039-0.034-1.609h-0.019c-0.121,0.499-0.283,1.059-0.438,1.516
		l-0.475,1.532h-0.691l-0.42-1.513c-0.129-0.465-0.262-1.023-0.354-1.535h-0.012c-0.023,0.529-0.041,1.133-0.068,1.622l-0.072,1.487
		h-0.82l0.25-3.918h1.183l0.383,1.308c0.123,0.448,0.244,0.942,0.334,1.401h0.017c0.11-0.453,0.244-0.97,0.371-1.405l0.418-1.304
		h1.158l0.215,3.918h-0.865L110.823,45.768z"/>
	<path fill="#FFFFFF" d="M115.819,45.768c-0.019-0.472-0.034-1.039-0.034-1.609h-0.019c-0.123,0.499-0.285,1.059-0.437,1.516
		l-0.479,1.532h-0.691l-0.418-1.513c-0.129-0.465-0.262-1.023-0.354-1.535h-0.011c-0.024,0.529-0.041,1.133-0.069,1.622l-0.07,1.487
		h-0.819l0.252-3.918h1.18l0.383,1.308c0.123,0.448,0.244,0.942,0.332,1.401h0.018c0.109-0.453,0.244-0.97,0.371-1.405l0.418-1.304
		h1.158l0.215,3.918h-0.865L115.819,45.768z"/>
	<path fill="#FFFFFF" d="M118.358,43.35v2.256c0,0.674,0.256,1.017,0.709,1.017c0.466,0,0.722-0.325,0.722-1.017V43.35h0.883v2.196
		c0,1.211-0.609,1.785-1.633,1.785c-0.988,0-1.57-0.547-1.57-1.796V43.35H118.358z"/>
	<path fill="#FFFFFF" d="M121.511,47.268V43.35h1.035l0.813,1.437c0.232,0.412,0.467,0.901,0.641,1.343h0.017
		c-0.058-0.518-0.074-1.047-0.074-1.64v-1.14h0.813v3.918h-0.93l-0.838-1.513c-0.232-0.418-0.488-0.924-0.682-1.383l-0.018,0.006
		c0.024,0.519,0.037,1.07,0.037,1.709v1.181H121.511z"/>
	<path fill="#FFFFFF" d="M131.558,47.268v-1.604l-1.236-2.313h1.012l0.402,0.94c0.121,0.286,0.201,0.495,0.303,0.752h0.01
		c0.086-0.244,0.181-0.472,0.298-0.752l0.396-0.94h0.992l-1.291,2.284v1.634H131.558z"/>
	<path fill="#FFFFFF" d="M134.248,47.333c-0.297,0-0.513-0.227-0.513-0.534c0-0.314,0.216-0.542,0.522-0.542
		c0.308,0,0.519,0.224,0.519,0.542c0,0.309-0.211,0.534-0.524,0.534H134.248z"/>
	<path fill="#FFFFFF" d="M140.487,45.089h0.351c0.44,0,0.703-0.222,0.703-0.563c0-0.361-0.244-0.541-0.652-0.548
		c-0.213,0-0.336,0.019-0.4,0.028L140.487,45.089L140.487,45.089z M139.608,43.403c0.285-0.046,0.711-0.08,1.183-0.08
		c0.582,0,0.987,0.086,1.268,0.308c0.232,0.185,0.359,0.458,0.359,0.819c0,0.498-0.355,0.842-0.691,0.965v0.018
		c0.273,0.109,0.424,0.373,0.523,0.732c0.123,0.44,0.244,0.953,0.319,1.104h-0.907c-0.063-0.115-0.154-0.431-0.271-0.912
		c-0.105-0.488-0.273-0.623-0.633-0.628h-0.271v1.54h-0.879V43.403L139.608,43.403z"/>
	<path fill="#FFFFFF" d="M143.989,43.35v2.256c0,0.674,0.259,1.017,0.709,1.017c0.468,0,0.724-0.325,0.724-1.017V43.35h0.883v2.196
		c0,1.211-0.611,1.785-1.633,1.785c-0.988,0-1.57-0.547-1.57-1.796V43.35H143.989z"/>
	<path fill="#FFFFFF" d="M147.114,46.356c0.238,0.122,0.605,0.244,0.982,0.244c0.405,0,0.623-0.168,0.623-0.425
		c0-0.243-0.188-0.385-0.658-0.553c-0.651-0.227-1.076-0.588-1.076-1.156c0-0.67,0.56-1.18,1.483-1.18c0.439,0,0.767,0.092,1,0.197
		l-0.198,0.715c-0.156-0.076-0.437-0.186-0.819-0.186c-0.384,0-0.568,0.174-0.568,0.377c0,0.251,0.221,0.36,0.727,0.553
		c0.691,0.255,1.018,0.616,1.018,1.168c0,0.656-0.506,1.221-1.582,1.221c-0.446,0-0.889-0.123-1.108-0.242L147.114,46.356z"/>
</g>
</svg>
