<?xml version="1.0" encoding="utf-8"?>
<!-- Generator: Adobe Illustrator 16.0.3, SVG Export Plug-In . SVG Version: 6.00 Build 0)  -->
<!DOCTYPE svg PUBLIC "-//W3C//DTD SVG 1.1//EN" "http://www.w3.org/Graphics/SVG/1.1/DTD/svg11.dtd">
<svg version="1.1" id="Layer_1" xmlns="http://www.w3.org/2000/svg" xmlns:xlink="http://www.w3.org/1999/xlink" x="0px" y="0px"
	 width="300px" height="48px" viewBox="0 0 300 48" enable-background="new 0 0 300 48" xml:space="preserve">
<g>
	<g>
		<polygon fill="#FFFFFF" points="61.55,3.138 55.895,5.167 47.209,8.287 40.902,10.565 34.434,12.875 26.28,15.803 17.13,19.077 
			9.259,21.891 9.259,21.911 0,25.226 9.259,29.473 14.537,31.919 21.5,27.912 30.356,22.815 37.667,18.608 40.903,16.733 
			50.587,11.177 54.962,8.661 60.582,5.429 69.581,0.249 		"/>
		<polygon fill="#FFFFFF" points="59.25,8.166 53.107,12.875 42.171,21.255 36.38,25.69 26.942,32.922 22.376,36.422 30.626,40.343 
			30.626,40.343 40.39,44.989 45.515,37.131 49.159,31.547 54.084,24 59.25,16.083 61.55,12.56 65.823,6.013 69.581,0.249 		"/>
		<polygon fill="#C5C7C9" points="54.962,8.661 50.587,11.177 40.903,16.733 37.667,18.608 30.356,22.815 21.5,27.912 
			14.537,31.919 20.489,47.751 21.294,42.924 21.844,39.629 22.376,36.422 22.378,36.42 30.869,29.913 36.38,25.69 42.171,21.255 
			47.034,17.526 53.107,12.875 59.25,8.166 69.581,0.249 		"/>
		<polygon fill="#808184" points="22.376,36.422 21.844,39.629 20.489,47.751 25.294,43.228 29.123,39.627 		"/>
	</g>
	<g>
		<g>
			<path fill="#FFFFFF" d="M89.666,17.24c-0.093-0.145-0.214-0.352-0.368-0.62c-0.154-0.268-0.331-0.564-0.532-0.891
				c-0.2-0.325-0.405-0.672-0.613-1.03c-0.208-0.357-0.413-0.702-0.611-1.027c-0.202-0.328-0.382-0.625-0.541-0.891
				c-0.157-0.27-0.277-0.478-0.36-0.622c-0.1,0.118-0.246,0.293-0.437,0.525c-0.188,0.23-0.392,0.478-0.606,0.736
				c-0.211,0.256-0.413,0.501-0.605,0.734c-0.192,0.232-0.331,0.406-0.42,0.525v2.56h-0.927V7.758h0.927v5.586h0.025l2.043-2.506
				l2.548-3.08h1.05c-0.082,0.101-0.202,0.245-0.36,0.436c-0.159,0.191-0.337,0.407-0.531,0.646
				c-0.195,0.242-0.402,0.495-0.621,0.759c-0.218,0.264-0.425,0.517-0.618,0.756c-0.196,0.242-0.372,0.456-0.525,0.646
				c-0.155,0.19-0.272,0.337-0.355,0.437c0.093,0.163,0.23,0.397,0.416,0.703c0.188,0.304,0.393,0.643,0.621,1.021
				c0.225,0.376,0.465,0.771,0.715,1.184c0.249,0.415,0.487,0.808,0.717,1.179c0.226,0.372,0.429,0.711,0.609,1.015
				c0.183,0.305,0.323,0.539,0.425,0.701H89.666z"/>
			<path fill="#FFFFFF" d="M92.955,19.713c-0.296,0.171-0.615,0.253-0.96,0.253h-0.449v-0.762h0.437
				c0.207,0,0.396-0.063,0.564-0.186c0.167-0.122,0.301-0.348,0.403-0.674l0.366-1.132l-2.494-6.717h0.954l1.104,3.12l0.845,2.494
				h0.041c0.091-0.272,0.215-0.637,0.367-1.097c0.156-0.458,0.324-0.948,0.506-1.465l1.048-3.053h0.898l-2.914,8.219
				C93.49,19.213,93.249,19.546,92.955,19.713z"/>
			<path fill="#FFFFFF" d="M97.759,8.643V7.758h0.898v0.885H97.759z M97.787,17.24v-6.757h0.858v6.757H97.787z"/>
			<path fill="#FFFFFF" d="M102.867,16.041c0.128-0.362,0.26-0.751,0.396-1.165c0.135-0.411,0.264-0.8,0.383-1.162
				c0.181-0.527,0.364-1.064,0.551-1.608c0.185-0.546,0.37-1.082,0.552-1.609h0.954l-2.48,6.744h-0.791
				c-0.419-1.115-0.835-2.241-1.253-3.371c-0.417-1.13-0.832-2.256-1.239-3.373h0.938c0.191,0.518,0.38,1.051,0.566,1.601
				c0.186,0.549,0.37,1.09,0.552,1.617c0.038,0.099,0.094,0.256,0.17,0.476c0.077,0.218,0.159,0.449,0.246,0.687
				c0.088,0.242,0.168,0.471,0.245,0.69c0.077,0.217,0.134,0.376,0.17,0.475H102.867z"/>
			<path fill="#FFFFFF" d="M116.684,10.578c0,0.318-0.063,0.643-0.187,0.967c-0.123,0.328-0.304,0.621-0.544,0.881
				c-0.24,0.259-0.54,0.469-0.897,0.632c-0.362,0.163-0.776,0.247-1.249,0.247h-2.67v3.936h-0.927V7.758h3.434
				c0.383,0,0.757,0.054,1.125,0.157c0.368,0.104,0.692,0.268,0.974,0.491c0.28,0.224,0.51,0.513,0.68,0.872
				C116.594,9.637,116.684,10.069,116.684,10.578z M115.7,10.538c0-0.328-0.049-0.611-0.155-0.852
				c-0.103-0.24-0.249-0.441-0.438-0.599c-0.186-0.16-0.403-0.28-0.652-0.361c-0.249-0.084-0.519-0.124-0.799-0.124h-2.52v3.844
				h2.577c0.344,0,0.641-0.057,0.892-0.172c0.249-0.114,0.456-0.257,0.619-0.435s0.283-0.379,0.362-0.607
				C115.662,11.005,115.7,10.774,115.7,10.538z"/>
			<path fill="#FFFFFF" d="M120.462,10.43c0.491,0,0.921,0.094,1.291,0.286c0.374,0.188,0.672,0.463,0.897,0.814
				c0.154,0.24,0.278,0.556,0.368,0.951c0.092,0.394,0.132,0.873,0.123,1.434c-0.012,0.538-0.066,0.99-0.171,1.364
				s-0.241,0.685-0.414,0.941c-0.254,0.381-0.574,0.659-0.965,0.835c-0.39,0.18-0.814,0.266-1.278,0.266
				c-0.923,0-1.617-0.299-2.078-0.897c-0.22-0.289-0.376-0.643-0.471-1.055c-0.096-0.416-0.142-0.91-0.142-1.494
				c0-0.508,0.044-0.939,0.136-1.293c0.09-0.354,0.222-0.667,0.392-0.939c0.238-0.383,0.55-0.68,0.939-0.894
				C119.48,10.534,119.938,10.43,120.462,10.43z M120.429,11.191c-0.346,0-0.648,0.077-0.914,0.231
				c-0.262,0.155-0.472,0.364-0.626,0.63c-0.136,0.216-0.238,0.467-0.308,0.754c-0.065,0.286-0.101,0.646-0.101,1.083
				c0,0.436,0.035,0.802,0.101,1.097c0.069,0.295,0.169,0.548,0.295,0.756c0.154,0.255,0.355,0.453,0.608,0.592
				c0.247,0.142,0.54,0.211,0.877,0.211c0.355,0,0.672-0.075,0.956-0.23c0.28-0.154,0.498-0.403,0.651-0.748
				c0.09-0.183,0.165-0.404,0.228-0.668c0.055-0.262,0.088-0.601,0.088-1.009c0-0.437-0.027-0.788-0.077-1.055
				c-0.049-0.268-0.122-0.493-0.212-0.676C121.669,11.516,121.146,11.191,120.429,11.191z"/>
			<path fill="#FFFFFF" d="M129.585,15.319c0,0.592-0.232,1.071-0.695,1.443c-0.462,0.375-1.103,0.559-1.921,0.559
				c-0.491,0-0.975-0.067-1.451-0.211c-0.478-0.139-0.91-0.368-1.302-0.687l0.531-0.667c0.645,0.535,1.41,0.805,2.289,0.805
				c0.201,0,0.402-0.024,0.607-0.07c0.204-0.045,0.385-0.118,0.544-0.218c0.158-0.099,0.288-0.227,0.391-0.383
				c0.097-0.151,0.15-0.344,0.15-0.571c0-0.199-0.046-0.368-0.138-0.503c-0.092-0.136-0.216-0.248-0.374-0.336
				c-0.161-0.086-0.344-0.147-0.553-0.195c-0.209-0.046-0.427-0.083-0.655-0.11c-0.282-0.036-0.563-0.08-0.843-0.136
				c-0.284-0.055-0.538-0.143-0.762-0.265c-0.23-0.123-0.414-0.292-0.563-0.506c-0.143-0.213-0.216-0.496-0.216-0.852
				c0-0.306,0.064-0.586,0.192-0.839c0.132-0.247,0.304-0.458,0.525-0.632c0.22-0.172,0.479-0.302,0.78-0.394
				s0.621-0.138,0.969-0.138c0.5,0,0.933,0.057,1.3,0.171c0.368,0.113,0.705,0.281,1.017,0.511l-0.479,0.68
				c-0.264-0.169-0.544-0.308-0.839-0.414c-0.293-0.104-0.623-0.156-0.987-0.156c-0.479,0-0.869,0.102-1.163,0.307
				c-0.294,0.203-0.448,0.49-0.455,0.866c0,0.19,0.044,0.344,0.135,0.463c0.088,0.117,0.217,0.214,0.387,0.293
				c0.165,0.075,0.362,0.138,0.594,0.184c0.23,0.045,0.488,0.084,0.778,0.12c0.25,0.027,0.509,0.079,0.771,0.152
				s0.498,0.178,0.711,0.32c0.214,0.142,0.386,0.322,0.521,0.55C129.517,14.688,129.585,14.974,129.585,15.319z"/>
			<path fill="#FFFFFF" d="M132.977,17.24c-0.489,0-0.857-0.137-1.103-0.406c-0.245-0.272-0.368-0.665-0.368-1.172v-4.441h-0.858
				v-0.737h0.858V8.752h0.857v1.731h1.146v0.737h-1.146v4.274c0,0.129,0.011,0.253,0.025,0.368c0.021,0.119,0.061,0.224,0.124,0.317
				c0.064,0.09,0.146,0.157,0.251,0.207c0.104,0.053,0.249,0.076,0.431,0.076h0.504v0.776H132.977z"/>
		</g>
		<g>
			<path fill="#FFFFFF" d="M83.645,40.108V24.55h10.997v3.084h-7.555v3.151h6.437v2.975h-6.437v3.263h7.555v3.086H83.645z"/>
			<path fill="#FFFFFF" d="M109.462,40.108V32.71l-0.068-0.023l-1.408,3.151l-1.051,2.19h-2.638l-1.095-2.301l-1.362-3.041
				l-0.066,0.067v7.354h-3.444V24.55h3.111l2.105,4.516l2.017,4.672h0.088l1.948-4.672l2.059-4.516h3.247v15.559H109.462z"/>
			<path fill="#FFFFFF" d="M129.289,29.557c0,0.701-0.144,1.352-0.426,1.944c-0.283,0.596-0.668,1.112-1.153,1.546
				c-0.481,0.431-1.053,0.77-1.707,1.015c-0.655,0.247-1.356,0.37-2.104,0.37h-3.039v5.677h-3.441V24.55h6.417
				c0.818,0,1.563,0.115,2.236,0.346c0.668,0.231,1.239,0.563,1.721,0.995c0.477,0.432,0.843,0.957,1.106,1.576
				C129.156,28.084,129.289,28.782,129.289,29.557z M125.8,29.489c0-0.627-0.185-1.09-0.559-1.396
				c-0.372-0.307-0.901-0.46-1.584-0.46h-2.798v3.712h2.886c0.565,0,1.05-0.167,1.452-0.502
				C125.599,30.505,125.8,30.056,125.8,29.489z"/>
			<path fill="#FFFFFF" d="M132.642,40.108V24.55h3.44v12.473h7.556v3.086H132.642z"/>
			<path fill="#FFFFFF" d="M151.573,24.438c0.936,0,1.785,0.154,2.538,0.458c0.755,0.308,1.39,0.728,1.923,1.264
				c0.527,0.537,0.933,1.178,1.214,1.923c0.286,0.746,0.427,1.552,0.427,2.414v3.666c0,0.925-0.146,1.762-0.434,2.515
				c-0.291,0.753-0.703,1.394-1.23,1.923s-1.169,0.936-1.923,1.218c-0.753,0.284-1.592,0.427-2.515,0.427
				c-1.013,0-1.896-0.165-2.65-0.493c-0.751-0.325-1.377-0.771-1.875-1.331c-0.5-0.559-0.874-1.207-1.119-1.944
				c-0.245-0.736-0.368-1.51-0.368-2.313v-3.666c0-0.806,0.123-1.573,0.368-2.304c0.245-0.729,0.619-1.374,1.119-1.933
				c0.498-0.559,1.124-1.001,1.875-1.329C149.678,24.601,150.561,24.438,151.573,24.438z M151.538,27.657
				c-0.434,0-0.806,0.071-1.123,0.213c-0.313,0.141-0.574,0.331-0.785,0.567c-0.209,0.242-0.364,0.513-0.471,0.816
				c-0.104,0.307-0.157,0.615-0.157,0.929v4.227c0,0.343,0.053,0.669,0.157,0.981c0.106,0.313,0.262,0.59,0.471,0.828
				c0.211,0.238,0.473,0.433,0.785,0.58c0.317,0.148,0.689,0.224,1.123,0.224c0.839,0,1.487-0.249,1.943-0.747
				c0.456-0.5,0.685-1.122,0.685-1.866v-4.227c0-0.685-0.229-1.278-0.685-1.778C153.025,27.906,152.377,27.657,151.538,27.657z"/>
			<path fill="#FFFFFF" d="M168.654,33.737v6.371h-3.289v-6.371l-5.005-9.188h3.687l1.586,3.352l1.34,3.02h0.094l1.316-2.996
				l1.61-3.375h3.687L168.654,33.737z"/>
			<path fill="#FFFFFF" d="M188.031,40.108V32.71l-0.065-0.023l-1.41,3.151l-1.048,2.19h-2.637l-1.099-2.301l-1.363-3.041
				l-0.067,0.067v7.354H176.9V24.55h3.111l2.104,4.516l2.017,4.672h0.09l1.946-4.672l2.061-4.516h3.243v15.559H188.031z"/>
			<path fill="#FFFFFF" d="M195.989,40.108V24.55h10.997v3.084h-7.555v3.151h6.436v2.975h-6.436v3.263h7.555v3.086H195.989z"/>
			<path fill="#FFFFFF" d="M220.423,40.108l-3.958-5.723l-2.3-3.711l-0.048,0.022v9.411h-3.44V24.55h3.062l3.266,4.762l2.994,4.671
				l0.042-0.021V24.55h3.443v15.559H220.423z"/>
			<path fill="#FFFFFF" d="M234.46,27.634v12.475h-3.442V27.634h-4.247V24.55h11.937v3.084H234.46z"/>
			<path fill="#FFFFFF" d="M253.506,27.634v3.287h6.438v2.974h-6.438v6.214h-3.44V24.55h10.997v3.084H253.506z"/>
			<path fill="#FFFFFF" d="M272.976,40.108l-1.161-3.176h-5.211l-1.16,3.176h-3.623l6.038-15.559h2.703l6.034,15.559H272.976z
				 M270.158,32.241l-0.913-3.086h-0.09l-0.896,3.04l-0.583,1.833h3.063L270.158,32.241z"/>
			<path fill="#FFFFFF" d="M279.859,40.108V24.55h3.444v15.559H279.859z"/>
			<path fill="#FFFFFF" d="M296.11,40.108l-2.457-6.014h-2.236v6.014h-3.443V24.55h6.885c0.687,0,1.333,0.106,1.934,0.313
				c0.604,0.209,1.138,0.512,1.601,0.907c0.46,0.392,0.828,0.881,1.094,1.461c0.269,0.583,0.402,1.247,0.402,1.991
				c0,0.938-0.24,1.785-0.727,2.536c-0.485,0.754-1.196,1.333-2.134,1.734L300,40.108H296.11z M296.313,29.245
				c0-0.58-0.18-0.998-0.535-1.253c-0.359-0.254-0.83-0.381-1.41-0.381h-2.95v3.399h2.837c0.628,0,1.128-0.15,1.5-0.447
				C296.125,30.267,296.313,29.825,296.313,29.245z"/>
		</g>
	</g>
</g>
</svg>
