<?xml version="1.0" encoding="utf-8"?>
<!-- Generator: Adobe Illustrator 16.0.3, SVG Export Plug-In . SVG Version: 6.00 Build 0)  -->
<!DOCTYPE svg PUBLIC "-//W3C//DTD SVG 1.1//EN" "http://www.w3.org/Graphics/SVG/1.1/DTD/svg11.dtd">
<svg version="1.1" id="Layer_1" xmlns="http://www.w3.org/2000/svg" xmlns:xlink="http://www.w3.org/1999/xlink" x="0px" y="0px"
	 width="204.096px" height="34.016px" viewBox="0 0 204.096 34.016" enable-background="new 0 0 204.096 34.016"
	 xml:space="preserve">
<g>
	<g>
		<polygon fill="#00ACC1" points="41.727,2.899 37.902,4.272 32.028,6.381 27.764,7.922 23.389,9.484 17.875,11.464 11.688,13.679 
			6.365,15.582 6.365,15.595 0.104,17.836 6.365,20.708 9.934,22.362 14.643,19.653 20.632,16.207 25.576,13.362 27.765,12.093 
			34.313,8.336 37.271,6.634 41.072,4.449 47.158,0.948 		"/>
		<polygon fill="#00ACC1" points="40.172,6.3 36.018,9.484 28.621,15.151 24.705,18.151 18.323,23.041 15.235,25.408 20.814,28.059 
			20.814,28.059 27.417,31.201 30.883,25.887 33.348,22.111 36.678,17.007 40.172,11.654 41.727,9.271 44.616,4.843 47.158,0.948 		
			"/>
		<polygon fill="#01838F" points="37.271,6.634 34.313,8.336 27.765,12.093 25.576,13.362 20.632,16.207 14.643,19.653 
			9.934,22.362 13.959,33.069 14.504,29.804 14.875,27.576 15.235,25.408 15.236,25.407 20.979,21.007 24.705,18.151 28.621,15.151 
			31.91,12.629 36.018,9.484 40.172,6.3 47.158,0.948 		"/>
		<polygon fill="#016064" points="15.235,25.408 14.875,27.576 13.959,33.069 17.209,30.01 19.798,27.575 		"/>
	</g>
	<g>
		<g>
			<path fill="#6A6B6D" d="M60.74,12.437c-0.063-0.099-0.145-0.237-0.249-0.42c-0.104-0.181-0.224-0.382-0.359-0.602
				c-0.136-0.223-0.273-0.455-0.415-0.697c-0.141-0.242-0.278-0.475-0.413-0.695C59.167,9.801,59.045,9.6,58.938,9.42
				c-0.106-0.183-0.188-0.323-0.243-0.421c-0.068,0.081-0.167,0.199-0.296,0.354c-0.128,0.156-0.266,0.323-0.41,0.498
				c-0.143,0.174-0.279,0.34-0.409,0.497c-0.13,0.156-0.224,0.274-0.284,0.355v1.73h-0.627V6.023h0.627V9.8h0.019l1.382-1.694
				l1.723-2.083h0.71c-0.056,0.068-0.137,0.166-0.244,0.295c-0.106,0.13-0.228,0.274-0.358,0.438s-0.272,0.334-0.42,0.512
				c-0.147,0.18-0.287,0.351-0.418,0.513c-0.133,0.162-0.251,0.309-0.355,0.438c-0.104,0.129-0.184,0.228-0.24,0.295
				c0.063,0.11,0.156,0.27,0.281,0.475c0.127,0.206,0.267,0.437,0.42,0.691c0.152,0.255,0.314,0.521,0.483,0.801
				c0.169,0.28,0.33,0.546,0.484,0.797c0.152,0.252,0.29,0.48,0.412,0.688c0.123,0.205,0.22,0.364,0.287,0.475H60.74V12.437z"/>
			<path fill="#6A6B6D" d="M62.965,14.108c-0.199,0.115-0.416,0.171-0.648,0.171h-0.304v-0.516h0.295
				c0.141,0,0.268-0.042,0.382-0.125c0.112-0.083,0.204-0.235,0.271-0.456l0.248-0.765l-1.687-4.543h0.646l0.746,2.109l0.571,1.688
				h0.028c0.061-0.186,0.145-0.432,0.248-0.742c0.104-0.31,0.219-0.641,0.342-0.99l0.709-2.063h0.606l-1.971,5.558
				C63.326,13.77,63.164,13.995,62.965,14.108z"/>
			<path fill="#6A6B6D" d="M66.213,6.622v-0.6h0.607v0.6H66.213z M66.232,12.437V7.867h0.58v4.569H66.232z"/>
			<path fill="#6A6B6D" d="M69.668,11.625c0.086-0.245,0.175-0.508,0.269-0.787c0.092-0.279,0.178-0.542,0.258-0.787
				c0.123-0.356,0.247-0.719,0.373-1.088c0.125-0.368,0.25-0.731,0.373-1.088h0.645l-1.676,4.562h-0.535
				c-0.283-0.755-0.564-1.517-0.848-2.279c-0.282-0.766-0.563-1.525-0.838-2.281h0.635c0.129,0.351,0.257,0.711,0.383,1.083
				c0.125,0.371,0.25,0.735,0.373,1.093c0.025,0.067,0.063,0.174,0.115,0.322c0.052,0.146,0.106,0.303,0.166,0.465
				c0.059,0.163,0.113,0.317,0.166,0.466c0.052,0.146,0.09,0.254,0.115,0.321L69.668,11.625L69.668,11.625z"/>
			<path fill="#6A6B6D" d="M79.012,7.931c0,0.216-0.043,0.436-0.126,0.654c-0.083,0.222-0.206,0.419-0.368,0.595
				c-0.162,0.175-0.365,0.317-0.607,0.428c-0.244,0.11-0.524,0.167-0.844,0.167H75.26v2.662h-0.626V6.023h2.322
				c0.258,0,0.511,0.036,0.76,0.106s0.469,0.181,0.659,0.332c0.189,0.149,0.345,0.347,0.46,0.589
				C78.951,7.294,79.012,7.587,79.012,7.931z M78.347,7.903c0-0.222-0.034-0.412-0.105-0.575c-0.07-0.162-0.169-0.299-0.296-0.404
				c-0.125-0.108-0.272-0.19-0.441-0.244c-0.168-0.057-0.35-0.084-0.539-0.084H75.26v2.599h1.742c0.233,0,0.436-0.037,0.604-0.114
				s0.309-0.176,0.419-0.295c0.109-0.119,0.191-0.257,0.245-0.41C78.32,8.219,78.347,8.063,78.347,7.903z"/>
			<path fill="#6A6B6D" d="M81.566,7.83c0.332,0,0.623,0.063,0.873,0.192c0.252,0.128,0.454,0.313,0.606,0.553
				c0.104,0.16,0.188,0.374,0.248,0.642c0.063,0.267,0.09,0.591,0.084,0.971c-0.008,0.363-0.046,0.67-0.114,0.922
				c-0.071,0.253-0.164,0.465-0.281,0.638c-0.172,0.258-0.39,0.445-0.652,0.564c-0.264,0.121-0.551,0.181-0.864,0.181
				c-0.624,0-1.093-0.202-1.404-0.607c-0.148-0.196-0.254-0.435-0.318-0.714c-0.063-0.28-0.096-0.615-0.096-1.01
				c0-0.345,0.03-0.637,0.092-0.875c0.061-0.239,0.15-0.45,0.266-0.637c0.16-0.258,0.371-0.459,0.636-0.604
				C80.904,7.901,81.212,7.83,81.566,7.83z M81.545,8.346c-0.233,0-0.438,0.052-0.617,0.156c-0.179,0.104-0.319,0.246-0.425,0.425
				c-0.092,0.146-0.161,0.316-0.208,0.511c-0.045,0.193-0.067,0.438-0.067,0.732s0.022,0.542,0.067,0.741
				c0.047,0.199,0.113,0.371,0.199,0.512c0.104,0.172,0.24,0.306,0.41,0.4c0.168,0.095,0.366,0.143,0.594,0.143
				c0.24,0,0.455-0.052,0.646-0.156c0.188-0.104,0.337-0.271,0.44-0.506c0.062-0.123,0.111-0.272,0.152-0.451
				c0.039-0.178,0.06-0.405,0.06-0.683c0-0.295-0.018-0.533-0.052-0.714c-0.033-0.182-0.082-0.333-0.143-0.457
				C82.383,8.564,82.029,8.346,81.545,8.346z"/>
			<path fill="#6A6B6D" d="M87.736,11.137c0,0.4-0.157,0.725-0.471,0.978s-0.746,0.378-1.3,0.378c-0.332,0-0.657-0.048-0.979-0.144
				c-0.323-0.095-0.616-0.25-0.881-0.465l0.358-0.451c0.437,0.361,0.953,0.544,1.549,0.544c0.136,0,0.271-0.016,0.41-0.047
				s0.261-0.08,0.367-0.146c0.107-0.067,0.195-0.153,0.265-0.26c0.065-0.104,0.102-0.231,0.102-0.387
				c0-0.135-0.031-0.248-0.093-0.341c-0.063-0.091-0.146-0.167-0.253-0.227c-0.108-0.059-0.232-0.102-0.373-0.133
				c-0.143-0.03-0.289-0.056-0.443-0.075c-0.19-0.023-0.381-0.054-0.57-0.091c-0.19-0.037-0.362-0.097-0.516-0.18
				c-0.154-0.083-0.279-0.197-0.379-0.342c-0.098-0.145-0.146-0.336-0.146-0.575c0-0.208,0.043-0.397,0.131-0.567
				c0.089-0.168,0.205-0.311,0.354-0.428c0.149-0.116,0.324-0.205,0.527-0.267c0.203-0.063,0.421-0.094,0.654-0.094
				c0.339,0,0.631,0.038,0.88,0.115c0.249,0.076,0.478,0.191,0.688,0.347l-0.324,0.46c-0.178-0.115-0.367-0.209-0.565-0.28
				c-0.199-0.071-0.422-0.105-0.668-0.105c-0.325,0-0.588,0.068-0.787,0.207s-0.304,0.332-0.31,0.585
				c0,0.129,0.031,0.233,0.093,0.313c0.061,0.08,0.146,0.146,0.262,0.198c0.111,0.051,0.245,0.093,0.4,0.124
				c0.155,0.03,0.331,0.058,0.526,0.082c0.17,0.019,0.345,0.053,0.521,0.103c0.178,0.05,0.337,0.12,0.479,0.217
				c0.146,0.095,0.261,0.219,0.354,0.372C87.69,10.709,87.736,10.903,87.736,11.137z"/>
			<path fill="#6A6B6D" d="M90.03,12.437c-0.331,0-0.579-0.093-0.746-0.274c-0.166-0.186-0.249-0.45-0.249-0.793V8.365h-0.58V7.866
				h0.58V6.696h0.58v1.171h0.775v0.499h-0.775v2.891c0,0.087,0.007,0.171,0.018,0.249c0.015,0.08,0.041,0.151,0.084,0.214
				c0.043,0.062,0.101,0.107,0.171,0.141c0.069,0.035,0.168,0.053,0.291,0.053h0.341v0.524H90.03z"/>
		</g>
		<g>
			<path fill="#231F20" d="M56.668,27.901V17.379h7.438v2.086h-5.109v2.131h4.354v2.01h-4.354v2.207h5.109v2.088H56.668z"/>
			<path fill="#231F20" d="M74.127,27.901v-5.004l-0.045-0.016l-0.952,2.131l-0.712,1.48h-1.783l-0.739-1.556l-0.922-2.057
				l-0.045,0.045V27.9h-2.329V17.379h2.104l1.424,3.053l1.363,3.16h0.06l1.317-3.16l1.393-3.053h2.195v10.521H74.127z"/>
			<path fill="#231F20" d="M87.535,20.764c0,0.476-0.096,0.914-0.287,1.316c-0.19,0.401-0.451,0.75-0.778,1.043
				c-0.326,0.291-0.713,0.521-1.155,0.688c-0.443,0.167-0.917,0.25-1.422,0.25h-2.057v3.84h-2.328V17.379h4.341
				c0.554,0,1.058,0.078,1.512,0.233c0.453,0.156,0.84,0.381,1.164,0.673c0.322,0.293,0.57,0.647,0.748,1.065
				C87.447,19.77,87.535,20.241,87.535,20.764z M85.177,20.719c0-0.424-0.125-0.738-0.379-0.943
				c-0.252-0.207-0.608-0.311-1.071-0.311h-1.892v2.51h1.951c0.383,0,0.71-0.113,0.982-0.34
				C85.041,21.407,85.177,21.102,85.177,20.719z"/>
			<path fill="#231F20" d="M89.803,27.901V17.379h2.327v8.434h5.109v2.088H89.803z"/>
			<path fill="#231F20" d="M102.607,17.303c0.633,0,1.207,0.104,1.715,0.312c0.51,0.206,0.941,0.49,1.301,0.854
				c0.357,0.363,0.631,0.797,0.822,1.301s0.287,1.049,0.287,1.631v2.48c0,0.625-0.099,1.19-0.293,1.699
				c-0.197,0.51-0.476,0.942-0.832,1.301c-0.357,0.357-0.791,0.633-1.301,0.824c-0.509,0.19-1.076,0.289-1.699,0.289
				c-0.687,0-1.283-0.113-1.792-0.334c-0.509-0.222-0.934-0.521-1.271-0.9c-0.338-0.377-0.59-0.816-0.757-1.314
				c-0.166-0.497-0.248-1.021-0.248-1.563v-2.48c0-0.543,0.082-1.063,0.248-1.557c0.167-0.492,0.419-0.93,0.757-1.307
				c0.337-0.379,0.762-0.679,1.271-0.899C101.324,17.414,101.922,17.303,102.607,17.303z M102.584,19.481
				c-0.294,0-0.547,0.047-0.76,0.144c-0.213,0.096-0.389,0.225-0.531,0.385c-0.142,0.162-0.247,0.346-0.317,0.553
				c-0.071,0.207-0.106,0.416-0.106,0.627v2.857c0,0.231,0.035,0.453,0.106,0.664c0.07,0.213,0.177,0.397,0.317,0.561
				c0.144,0.16,0.318,0.291,0.531,0.394c0.213,0.1,0.466,0.149,0.76,0.149c0.566,0,1.004-0.168,1.313-0.506
				c0.309-0.338,0.463-0.758,0.463-1.262v-2.857c0-0.463-0.154-0.862-0.463-1.201C103.588,19.65,103.15,19.481,102.584,19.481z"/>
			<path fill="#231F20" d="M114.156,23.592v4.309h-2.223v-4.309l-3.386-6.213h2.492l1.074,2.266l0.906,2.041h0.063l0.892-2.024
				l1.088-2.282h2.494L114.156,23.592z"/>
			<path fill="#231F20" d="M127.262,27.901v-5.004l-0.046-0.016l-0.952,2.131l-0.709,1.48h-1.783l-0.742-1.556l-0.922-2.057
				l-0.045,0.045V27.9h-2.328V17.379h2.104l1.425,3.053l1.362,3.16h0.062l1.315-3.16l1.394-3.053h2.194v10.521H127.262z"/>
			<path fill="#231F20" d="M132.643,27.901V17.379h7.438v2.086h-5.108v2.131h4.354v2.01h-4.354v2.207h5.108v2.088H132.643z"/>
			<path fill="#231F20" d="M149.166,27.901l-2.676-3.87l-1.557-2.511l-0.031,0.017v6.364h-2.326V17.379h2.07l2.207,3.219l2.024,3.16
				l0.029-0.016v-6.364h2.328V27.9L149.166,27.901L149.166,27.901z"/>
			<path fill="#231F20" d="M158.658,19.465v8.436h-2.328v-8.436h-2.871v-2.086h8.072v2.086H158.658z"/>
			<path fill="#231F20" d="M171.539,19.465v2.221h4.354v2.013h-4.354v4.202h-2.328V17.379h7.438v2.086H171.539z"/>
			<path fill="#231F20" d="M184.705,27.901l-0.785-2.147h-3.522l-0.785,2.147h-2.449l4.082-10.521h1.828l4.082,10.521H184.705z
				 M182.801,22.579l-0.618-2.086h-0.062l-0.604,2.057l-0.394,1.238h2.07L182.801,22.579z"/>
			<path fill="#231F20" d="M189.361,27.901V17.379h2.328v10.521H189.361z"/>
			<path fill="#231F20" d="M200.35,27.901l-1.662-4.067h-1.513v4.067h-2.327V17.379h4.655c0.466,0,0.9,0.071,1.31,0.212
				s0.768,0.346,1.08,0.613c0.313,0.266,0.561,0.596,0.739,0.987c0.183,0.396,0.273,0.845,0.273,1.347
				c0,0.635-0.164,1.207-0.492,1.715c-0.328,0.51-0.809,0.902-1.442,1.174l2.01,4.475L200.35,27.901L200.35,27.901z M200.486,20.553
				c0-0.393-0.121-0.674-0.361-0.846c-0.242-0.172-0.561-0.258-0.953-0.258h-1.996v2.297h1.921c0.424,0,0.762-0.101,1.014-0.302
				C200.362,21.244,200.486,20.946,200.486,20.553z"/>
		</g>
	</g>
</g>
</svg>
