<?xml version="1.0" encoding="utf-8"?>
<!-- Generator: Adobe Illustrator 16.0.3, SVG Export Plug-In . SVG Version: 6.00 Build 0)  -->
<!DOCTYPE svg PUBLIC "-//W3C//DTD SVG 1.1//EN" "http://www.w3.org/Graphics/SVG/1.1/DTD/svg11.dtd">
<svg version="1.1" id="Layer_1" xmlns="http://www.w3.org/2000/svg" xmlns:xlink="http://www.w3.org/1999/xlink" x="0px" y="0px"
	 width="50px" height="25px" viewBox="0 0 50 25" enable-background="new 0 0 50 25" xml:space="preserve">
<g>
	<path fill="#00ADEE" d="M1.925,18.268c-0.79-0.321-1.011-0.977-1.011-1.5c0,0-0.05-2.035-0.05-4.271c0-2.222,0.05-5.133,0.05-5.133
		c0-0.521,0.221-1.177,1.011-1.497c5.03-2.049,13.493-3.999,23.081-3.999c9.584,0,18.048,1.95,23.074,3.999
		c0.79,0.32,1.011,0.976,1.011,1.497c0,0,0.053,2.911,0.053,5.133c0,2.235-0.053,4.271-0.053,4.271c0,0.523-0.221,1.179-1.011,1.5
		c-5.026,2.043-13.49,4.867-23.074,4.867C15.418,23.135,6.955,20.311,1.925,18.268z"/>
	<g>
		<path fill="#00ADEE" d="M34.058,17.993c0,2.275-4.071,3.191-9.095,3.191s-9.096-0.916-9.096-3.191
			c0-2.053,4.072-4.845,9.096-4.845S34.058,15.94,34.058,17.993z"/>
		<path fill="#02ADEE" d="M24.962,13.186c5.003,0,9.058,2.777,9.058,4.821c0,2.264-4.055,3.176-9.057,3.176
			s-9.057-0.912-9.057-3.176C15.905,15.963,19.959,13.186,24.962,13.186z"/>
		<path fill="#03AEEE" d="M24.962,13.224c4.981,0,9.019,2.763,9.019,4.796c0,2.254-4.037,3.161-9.019,3.161
			c-4.981,0-9.02-0.907-9.02-3.161C15.943,15.987,19.981,13.224,24.962,13.224z"/>
		<path fill="#05AEEE" d="M24.961,13.262c4.96,0,8.982,2.748,8.982,4.772c0,2.243-4.021,3.146-8.98,3.146
			c-4.96,0-8.981-0.902-8.981-3.146C15.981,16.01,20.001,13.262,24.961,13.262z"/>
		<path fill="#06AFEE" d="M24.961,13.299c4.939,0,8.944,2.734,8.944,4.748c0,2.232-4.003,3.13-8.942,3.13s-8.943-0.898-8.943-3.13
			C16.02,16.033,20.022,13.299,24.961,13.299z"/>
		<path fill="#08AFEF" d="M24.961,13.337c4.918,0,8.906,2.72,8.906,4.724c0,2.221-3.986,3.115-8.904,3.115s-8.905-0.894-8.905-3.115
			C16.058,16.057,20.042,13.337,24.961,13.337z"/>
		<path fill="#0AB0EF" d="M24.96,13.375c4.897,0,8.869,2.705,8.869,4.699c0,2.211-3.969,3.101-8.866,3.101
			c-4.897,0-8.867-0.89-8.867-3.101C16.096,16.08,20.063,13.375,24.96,13.375z"/>
		<path fill="#0BB0EF" d="M24.959,13.413c4.876,0,8.832,2.69,8.832,4.675c0,2.2-3.952,3.085-8.828,3.085s-8.829-0.885-8.829-3.085
			C16.134,16.103,20.083,13.413,24.959,13.413z"/>
		<path fill="#0DB1EF" d="M24.959,13.45c4.855,0,8.793,2.676,8.793,4.65c0,2.189-3.935,3.07-8.79,3.07s-8.791-0.881-8.791-3.07
			C16.172,16.126,20.104,13.45,24.959,13.45z"/>
		<path fill="#0EB1EF" d="M24.958,13.487c4.833,0,8.756,2.662,8.756,4.627c0,2.179-3.918,3.055-8.752,3.055
			c-4.833,0-8.752-0.876-8.752-3.055C16.21,16.149,20.125,13.487,24.958,13.487z"/>
		<path fill="#10B2EF" d="M24.958,13.525c4.813,0,8.719,2.647,8.719,4.603c0,2.167-3.9,3.04-8.714,3.04
			c-4.813,0-8.714-0.872-8.714-3.04C16.249,16.173,20.146,13.525,24.958,13.525z"/>
		<path fill="#11B2EF" d="M24.958,13.563c4.792,0,8.681,2.633,8.681,4.578c0,2.157-3.884,3.024-8.676,3.024
			s-8.676-0.867-8.676-3.024C16.287,16.196,20.166,13.563,24.958,13.563z"/>
		<path fill="#13B3EF" d="M24.957,13.601c4.771,0,8.643,2.618,8.643,4.554c0,2.146-3.866,3.009-8.637,3.009
			c-4.771,0-8.638-0.863-8.638-3.009C16.325,16.219,20.187,13.601,24.957,13.601z"/>
		<path fill="#15B3EF" d="M24.957,13.639c4.75,0,8.605,2.604,8.605,4.53c0,2.135-3.85,2.994-8.599,2.994
			c-4.75,0-8.601-0.858-8.601-2.994C16.363,16.243,20.208,13.639,24.957,13.639z"/>
		<path fill="#16B4EF" d="M24.957,13.677c4.728,0,8.567,2.589,8.567,4.506c0,2.124-3.832,2.978-8.561,2.978
			s-8.562-0.854-8.562-2.978C16.401,16.266,20.228,13.677,24.957,13.677z"/>
		<path fill="#18B4F0" d="M24.956,13.714c4.707,0,8.529,2.575,8.529,4.481c0,2.114-3.814,2.963-8.522,2.963
			c-4.708,0-8.523-0.849-8.523-2.963C16.439,16.289,20.249,13.714,24.956,13.714z"/>
		<path fill="#19B5F0" d="M24.955,13.752c4.687,0,8.492,2.56,8.492,4.457c0,2.103-3.798,2.948-8.484,2.948s-8.486-0.845-8.486-2.948
			C16.477,16.312,20.269,13.752,24.955,13.752z"/>
		<path fill="#1BB5F0" d="M24.955,13.79c4.665,0,8.454,2.546,8.454,4.433c0,2.092-3.781,2.933-8.446,2.933
			c-4.666,0-8.448-0.84-8.448-2.933C16.515,16.335,20.289,13.79,24.955,13.79z"/>
		<path fill="#1DB6F0" d="M24.955,13.828c4.644,0,8.417,2.531,8.417,4.409c0,2.081-3.764,2.918-8.408,2.918
			s-8.409-0.837-8.409-2.918C16.554,16.359,20.31,13.828,24.955,13.828z"/>
		<path fill="#1EB6F0" d="M24.954,13.865c4.623,0,8.379,2.517,8.379,4.384c0,2.071-3.747,2.903-8.37,2.903
			c-4.624,0-8.372-0.832-8.372-2.903C16.591,16.382,20.331,13.865,24.954,13.865z"/>
		<path fill="#20B7F0" d="M24.954,13.903c4.602,0,8.341,2.502,8.341,4.36c0,2.06-3.73,2.887-8.332,2.887
			c-4.603,0-8.333-0.828-8.333-2.887C16.629,16.405,20.351,13.903,24.954,13.903z"/>
		<path fill="#21B7F0" d="M24.953,13.941c4.582,0,8.305,2.488,8.305,4.336c0,2.049-3.713,2.872-8.295,2.872
			c-4.581,0-8.294-0.823-8.294-2.872C16.668,16.429,20.372,13.941,24.953,13.941z"/>
		<path fill="#23B8F0" d="M24.953,13.979c4.56,0,8.266,2.473,8.266,4.312c0,2.039-3.695,2.857-8.256,2.857
			c-4.56,0-8.257-0.818-8.257-2.857C16.706,16.452,20.393,13.979,24.953,13.979z"/>
		<path fill="#24B8F0" d="M24.952,14.016c4.539,0,8.229,2.458,8.229,4.288c0,2.027-3.679,2.841-8.218,2.841
			s-8.219-0.814-8.219-2.841C16.744,16.475,20.413,14.016,24.952,14.016z"/>
		<path fill="#26B9F0" d="M24.952,14.054c4.518,0,8.191,2.444,8.191,4.263c0,2.017-3.662,2.827-8.18,2.827
			c-4.519,0-8.181-0.81-8.181-2.827C16.782,16.498,20.433,14.054,24.952,14.054z"/>
		<path fill="#28B9F1" d="M24.951,14.091c4.497,0,8.153,2.43,8.153,4.239c0,2.005-3.645,2.811-8.142,2.811
			c-4.497,0-8.143-0.806-8.143-2.811C16.82,16.521,20.454,14.091,24.951,14.091z"/>
		<path fill="#29BAF1" d="M24.951,14.129c4.476,0,8.115,2.416,8.115,4.215c0,1.995-3.628,2.796-8.104,2.796
			c-4.476,0-8.104-0.801-8.104-2.796C16.858,16.545,20.475,14.129,24.951,14.129z"/>
		<path fill="#2BBAF1" d="M24.95,14.167c4.455,0,8.078,2.4,8.078,4.19c0,1.984-3.61,2.781-8.065,2.781s-8.066-0.796-8.066-2.781
			C16.896,16.567,20.496,14.167,24.95,14.167z"/>
		<path fill="#2CBBF1" d="M24.95,14.205c4.434,0,8.04,2.386,8.04,4.167c0,1.974-3.594,2.765-8.027,2.765
			c-4.434,0-8.028-0.792-8.028-2.765C16.935,16.591,20.516,14.205,24.95,14.205z"/>
		<path fill="#2EBBF1" d="M24.95,14.243c4.413,0,8.003,2.372,8.003,4.142c0,1.963-3.577,2.75-7.99,2.75
			c-4.413,0-7.99-0.788-7.99-2.75C16.973,16.614,20.537,14.243,24.95,14.243z"/>
		<path fill="#30BCF1" d="M24.949,14.28c4.392,0,7.965,2.357,7.965,4.118c0,1.952-3.56,2.735-7.951,2.735s-7.952-0.783-7.952-2.735
			C17.011,16.637,20.557,14.28,24.949,14.28z"/>
		<path fill="#31BCF1" d="M24.948,14.318c4.371,0,7.928,2.343,7.928,4.094c0,1.941-3.543,2.72-7.913,2.72
			c-4.371,0-7.914-0.779-7.914-2.72C17.049,16.661,20.577,14.318,24.948,14.318z"/>
		<path fill="#33BDF1" d="M24.948,14.356c4.35,0,7.89,2.328,7.89,4.069c0,1.93-3.525,2.705-7.875,2.705s-7.876-0.774-7.876-2.705
			C17.087,16.684,20.598,14.356,24.948,14.356z"/>
		<path fill="#34BDF1" d="M24.947,14.394c4.328,0,7.852,2.313,7.852,4.045c0,1.919-3.508,2.689-7.836,2.689
			c-4.329,0-7.838-0.77-7.838-2.689C17.125,16.707,20.618,14.394,24.947,14.394z"/>
		<path fill="#36BEF1" d="M24.947,14.432c4.308,0,7.814,2.299,7.814,4.021c0,1.909-3.491,2.674-7.799,2.674
			s-7.799-0.765-7.799-2.674C17.164,16.73,20.64,14.432,24.947,14.432z"/>
		<path fill="#37BEF2" d="M24.947,14.469c4.286,0,7.777,2.284,7.777,3.996c0,1.898-3.475,2.659-7.761,2.659
			c-4.287,0-7.761-0.761-7.761-2.659C17.202,16.753,20.66,14.469,24.947,14.469z"/>
		<path fill="#39BFF2" d="M24.946,14.507c4.266,0,7.74,2.27,7.74,3.972c0,1.887-3.457,2.644-7.723,2.644s-7.724-0.756-7.724-2.644
			C17.239,16.776,20.681,14.507,24.946,14.507z"/>
		<path fill="#3BBFF2" d="M24.946,14.545c4.244,0,7.701,2.256,7.701,3.948c0,1.876-3.44,2.628-7.684,2.628
			c-4.245,0-7.686-0.752-7.686-2.628C17.278,16.801,20.701,14.545,24.946,14.545z"/>
		<path fill="#3CC0F2" d="M24.945,14.582c4.224,0,7.664,2.241,7.664,3.924c0,1.866-3.423,2.613-7.646,2.613
			c-4.223,0-7.647-0.748-7.647-2.613C17.315,16.823,20.722,14.582,24.945,14.582z"/>
		<path fill="#3EC0F2" d="M24.945,14.62c4.202,0,7.625,2.227,7.625,3.899c0,1.855-3.405,2.598-7.607,2.598
			c-4.203,0-7.609-0.743-7.609-2.598C17.354,16.846,20.742,14.62,24.945,14.62z"/>
		<path fill="#3FC1F2" d="M24.944,14.657c4.181,0,7.589,2.212,7.589,3.876c0,1.844-3.389,2.583-7.57,2.583s-7.57-0.739-7.57-2.583
			C17.393,16.87,20.763,14.657,24.944,14.657z"/>
		<path fill="#41C1F2" d="M24.944,14.695c4.16,0,7.551,2.198,7.551,3.852c0,1.833-3.372,2.568-7.532,2.568s-7.532-0.734-7.532-2.568
			C17.431,16.893,20.784,14.695,24.944,14.695z"/>
		<path fill="#43C2F2" d="M24.943,14.733c4.139,0,7.514,2.183,7.514,3.827c0,1.823-3.355,2.553-7.494,2.553
			c-4.14,0-7.494-0.73-7.494-2.553C17.469,16.916,20.804,14.733,24.943,14.733z"/>
		<path fill="#44C2F2" d="M24.942,14.771c4.118,0,7.476,2.168,7.476,3.803c0,1.812-3.338,2.538-7.456,2.538
			s-7.457-0.726-7.457-2.538C17.506,16.939,20.825,14.771,24.942,14.771z"/>
		<path fill="#46C3F2" d="M24.942,14.809c4.097,0,7.438,2.154,7.438,3.778c0,1.801-3.321,2.522-7.418,2.522
			c-4.097,0-7.418-0.722-7.418-2.522C17.544,16.963,20.845,14.809,24.942,14.809z"/>
		<path fill="#47C3F3" d="M24.942,14.847c4.075,0,7.399,2.14,7.399,3.754c0,1.79-3.303,2.506-7.379,2.506
			c-4.076,0-7.38-0.717-7.38-2.506C17.583,16.986,20.866,14.847,24.942,14.847z"/>
		<path fill="#49C4F3" d="M24.941,14.884c4.055,0,7.363,2.125,7.363,3.73c0,1.779-3.287,2.491-7.342,2.491s-7.342-0.712-7.342-2.491
			C17.621,17.009,20.887,14.884,24.941,14.884z"/>
		<path fill="#4AC4F3" d="M24.94,14.921c4.034,0,7.325,2.111,7.325,3.707c0,1.769-3.27,2.476-7.303,2.476
			c-4.034,0-7.304-0.708-7.304-2.476C17.659,17.032,20.906,14.921,24.94,14.921z"/>
		<path fill="#4CC5F3" d="M24.94,14.959c4.013,0,7.288,2.097,7.288,3.682c0,1.759-3.253,2.462-7.266,2.462s-7.266-0.703-7.266-2.462
			C17.697,17.056,20.928,14.959,24.94,14.959z"/>
		<path fill="#4EC5F3" d="M24.94,14.997c3.991,0,7.249,2.082,7.249,3.658c0,1.748-3.234,2.446-7.227,2.446
			c-3.992,0-7.228-0.698-7.228-2.446C17.735,17.079,20.948,14.997,24.94,14.997z"/>
		<path fill="#4FC6F3" d="M24.939,15.035c3.971,0,7.212,2.067,7.212,3.634c0,1.736-3.218,2.43-7.188,2.43s-7.189-0.694-7.189-2.43
			C17.773,17.102,20.969,15.035,24.939,15.035z"/>
		<path fill="#51C6F3" d="M24.939,15.072c3.95,0,7.174,2.053,7.174,3.609c0,1.725-3.201,2.416-7.15,2.416
			c-3.95,0-7.151-0.69-7.151-2.416C17.812,17.125,20.989,15.072,24.939,15.072z"/>
		<path fill="#52C7F3" d="M24.938,15.11c3.929,0,7.138,2.038,7.138,3.585c0,1.714-3.186,2.4-7.113,2.4
			c-3.929,0-7.113-0.686-7.113-2.4C17.85,17.148,21.01,15.11,24.938,15.11z"/>
		<path fill="#54C7F3" d="M24.938,15.148c3.907,0,7.099,2.024,7.099,3.561c0,1.704-3.166,2.385-7.074,2.385
			c-3.907,0-7.075-0.681-7.075-2.385C17.888,17.172,21.031,15.148,24.938,15.148z"/>
		<path fill="#56C8F4" d="M24.938,15.186c3.887,0,7.062,2.009,7.062,3.536c0,1.693-3.149,2.37-7.036,2.37s-7.037-0.677-7.037-2.37
			C17.926,17.195,21.051,15.186,24.938,15.186z"/>
		<path fill="#57C8F4" d="M24.938,15.224c3.864,0,7.023,1.994,7.023,3.512c0,1.683-3.133,2.354-6.998,2.354
			c-3.866,0-6.999-0.672-6.999-2.354C17.964,17.218,21.071,15.224,24.938,15.224z"/>
		<path fill="#59C9F4" d="M24.937,15.261c3.845,0,6.986,1.98,6.986,3.488c0,1.672-3.116,2.34-6.96,2.34
			c-3.845,0-6.96-0.668-6.96-2.34C18.002,17.241,21.092,15.261,24.937,15.261z"/>
		<path fill="#5AC9F4" d="M24.937,15.299c3.823,0,6.948,1.966,6.948,3.463c0,1.661-3.099,2.324-6.921,2.324
			c-3.824,0-6.922-0.664-6.922-2.324C18.041,17.265,21.113,15.299,24.937,15.299z"/>
		<path fill="#5CCAF4" d="M24.936,15.337c3.803,0,6.911,1.951,6.911,3.439c0,1.649-3.082,2.309-6.884,2.309
			c-3.803,0-6.884-0.659-6.884-2.309C18.079,17.288,21.133,15.337,24.936,15.337z"/>
		<path fill="#5ECAF4" d="M24.935,15.374c3.781,0,6.874,1.937,6.874,3.415c0,1.64-3.065,2.294-6.846,2.294s-6.846-0.654-6.846-2.294
			C18.116,17.311,21.154,15.374,24.935,15.374z"/>
		<path fill="#5FCBF4" d="M24.935,15.412c3.76,0,6.835,1.922,6.835,3.391c0,1.629-3.048,2.279-6.808,2.279
			c-3.76,0-6.809-0.65-6.809-2.279C18.154,17.334,21.175,15.412,24.935,15.412z"/>
		<path fill="#61CBF4" d="M24.935,15.45c3.739,0,6.798,1.907,6.798,3.367c0,1.617-3.03,2.263-6.77,2.263
			c-3.739,0-6.77-0.646-6.77-2.263C18.193,17.357,21.196,15.45,24.935,15.45z"/>
		<path fill="#62CCF4" d="M24.934,15.487c3.718,0,6.76,1.894,6.76,3.343c0,1.607-3.014,2.248-6.731,2.248
			c-3.718,0-6.731-0.641-6.731-2.248C18.231,17.381,21.216,15.487,24.934,15.487z"/>
		<path fill="#64CCF4" d="M24.933,15.525c3.697,0,6.723,1.878,6.723,3.319c0,1.596-2.997,2.233-6.694,2.233
			s-6.693-0.637-6.693-2.233C18.269,17.403,21.236,15.525,24.933,15.525z"/>
		<path fill="#65CDF5" d="M24.934,15.563c3.676,0,6.684,1.865,6.684,3.294c0,1.585-2.979,2.218-6.654,2.218
			s-6.655-0.633-6.655-2.218C18.308,17.428,21.257,15.563,24.934,15.563z"/>
		<path fill="#67CDF5" d="M24.933,15.601c3.655,0,6.647,1.851,6.647,3.271c0,1.574-2.963,2.202-6.617,2.202
			c-3.655,0-6.617-0.628-6.617-2.202C18.346,17.451,21.278,15.601,24.933,15.601z"/>
		<path fill="#69CEF5" d="M24.933,15.639c3.634,0,6.609,1.835,6.609,3.245c0,1.564-2.945,2.188-6.579,2.188s-6.58-0.624-6.58-2.188
			C18.383,17.474,21.298,15.639,24.933,15.639z"/>
		<path fill="#6ACEF5" d="M24.932,15.676c3.612,0,6.572,1.821,6.572,3.222c0,1.553-2.929,2.172-6.541,2.172
			c-3.613,0-6.542-0.619-6.542-2.172C18.421,17.497,21.318,15.676,24.932,15.676z"/>
		<path fill="#6CCFF5" d="M24.932,15.714c3.591,0,6.533,1.806,6.533,3.197c0,1.542-2.91,2.157-6.502,2.157s-6.503-0.615-6.503-2.157
			C18.46,17.52,21.34,15.714,24.932,15.714z"/>
		<path fill="#6DCFF5" d="M24.931,15.752c3.571,0,6.497,1.792,6.497,3.173c0,1.532-2.895,2.142-6.465,2.142s-6.465-0.61-6.465-2.142
			C18.498,17.543,21.36,15.752,24.931,15.752z"/>
		<path fill="#6FD0F5" d="M24.93,15.789c3.549,0,6.459,1.777,6.459,3.149c0,1.521-2.878,2.126-6.427,2.126
			c-3.55,0-6.427-0.605-6.427-2.126C18.536,17.566,21.38,15.789,24.93,15.789z"/>
		<path fill="#71D0F5" d="M24.93,15.827c3.528,0,6.422,1.763,6.422,3.125c0,1.51-2.86,2.111-6.389,2.111
			c-3.529,0-6.389-0.602-6.389-2.111C18.574,17.59,21.401,15.827,24.93,15.827z"/>
		<path fill="#72D1F5" d="M24.929,15.864c3.507,0,6.383,1.749,6.383,3.101c0,1.499-2.843,2.096-6.35,2.096
			c-3.508,0-6.351-0.597-6.351-2.096C18.612,17.613,21.422,15.864,24.929,15.864z"/>
		<path fill="#74D1F5" d="M24.929,15.902c3.487,0,6.346,1.734,6.346,3.076c0,1.488-2.826,2.081-6.313,2.081
			s-6.313-0.593-6.313-2.081C18.65,17.637,21.442,15.902,24.929,15.902z"/>
		<path fill="#75D2F6" d="M24.928,15.94c3.465,0,6.308,1.719,6.308,3.052c0,1.478-2.809,2.065-6.273,2.065
			c-3.466,0-6.274-0.588-6.274-2.065C18.688,17.66,21.463,15.94,24.928,15.94z"/>
		<path fill="#77D2F6" d="M24.928,15.978c3.444,0,6.271,1.705,6.271,3.028c0,1.467-2.791,2.05-6.235,2.05s-6.236-0.583-6.236-2.05
			C18.727,17.683,21.483,15.978,24.928,15.978z"/>
		<path fill="#78D3F6" d="M24.927,16.016c3.423,0,6.233,1.69,6.233,3.003c0,1.456-2.774,2.036-6.197,2.036
			c-3.423,0-6.198-0.58-6.198-2.036C18.765,17.706,21.504,16.016,24.927,16.016z"/>
		<path fill="#7AD3F6" d="M24.927,16.054c3.402,0,6.196,1.676,6.196,2.979c0,1.445-2.759,2.021-6.16,2.021
			c-3.402,0-6.16-0.575-6.16-2.021C18.803,17.729,21.524,16.054,24.927,16.054z"/>
		<path fill="#7CD4F6" d="M24.927,16.091c3.381,0,6.157,1.661,6.157,2.955c0,1.435-2.74,2.005-6.121,2.005
			c-3.381,0-6.122-0.57-6.122-2.005C18.841,17.752,21.545,16.091,24.927,16.091z"/>
		<path fill="#7DD4F6" d="M24.926,16.129c3.36,0,6.12,1.647,6.12,2.931c0,1.423-2.724,1.99-6.083,1.99
			c-3.36,0-6.084-0.566-6.084-1.99C18.879,17.776,21.566,16.129,24.926,16.129z"/>
		<path fill="#7FD5F6" d="M24.926,16.167c3.338,0,6.082,1.632,6.082,2.907c0,1.413-2.706,1.974-6.045,1.974
			c-3.339,0-6.046-0.562-6.046-1.974C18.917,17.799,21.586,16.167,24.926,16.167z"/>
		<path fill="#80D5F6" d="M24.925,16.205c3.318,0,6.045,1.618,6.045,2.882c0,1.402-2.689,1.959-6.007,1.959
			c-3.318,0-6.007-0.557-6.007-1.959C18.956,17.822,21.607,16.205,24.925,16.205z"/>
		<path fill="#82D6F6" d="M24.925,16.242c3.296,0,6.007,1.603,6.007,2.858c0,1.391-2.672,1.944-5.969,1.944
			s-5.969-0.553-5.969-1.944C18.994,17.845,21.628,16.242,24.925,16.242z"/>
		<path fill="#84D6F6" d="M24.925,16.28c3.275,0,5.969,1.589,5.969,2.833c0,1.381-2.655,1.929-5.931,1.929
			c-3.276,0-5.931-0.548-5.931-1.929C19.032,17.869,21.648,16.28,24.925,16.28z"/>
		<path fill="#85D7F7" d="M24.924,16.317c3.254,0,5.932,1.574,5.932,2.81c0,1.37-2.639,1.914-5.893,1.914
			c-3.255,0-5.893-0.544-5.893-1.914C19.07,17.892,21.669,16.317,24.924,16.317z"/>
		<path fill="#87D7F7" d="M24.923,16.355c3.234,0,5.894,1.56,5.894,2.785c0,1.359-2.621,1.898-5.854,1.898
			c-3.234,0-5.855-0.539-5.855-1.898C19.107,17.915,21.689,16.355,24.923,16.355z"/>
		<path fill="#88D8F7" d="M24.923,16.393c3.212,0,5.856,1.545,5.856,2.761c0,1.348-2.604,1.883-5.816,1.883
			s-5.817-0.535-5.817-1.883C19.146,17.938,21.71,16.393,24.923,16.393z"/>
		<path fill="#8AD8F7" d="M24.922,16.431c3.192,0,5.819,1.531,5.819,2.737c0,1.337-2.587,1.868-5.778,1.868
			c-3.192,0-5.779-0.53-5.779-1.868C19.184,17.961,21.73,16.431,24.922,16.431z"/>
		<path fill="#8BD9F7" d="M24.922,16.468c3.17,0,5.781,1.517,5.781,2.712c0,1.327-2.57,1.853-5.74,1.853
			c-3.171,0-5.741-0.526-5.741-1.853C19.222,17.985,21.751,16.468,24.922,16.468z"/>
		<path fill="#8DD9F7" d="M24.921,16.506c3.149,0,5.744,1.502,5.744,2.688c0,1.316-2.554,1.838-5.702,1.838
			c-3.149,0-5.703-0.521-5.703-1.838C19.26,18.008,21.771,16.506,24.921,16.506z"/>
		<path fill="#8FDAF7" d="M24.921,16.544c3.128,0,5.706,1.487,5.706,2.664c0,1.305-2.536,1.822-5.664,1.822
			c-3.129,0-5.664-0.518-5.664-1.822C19.299,18.031,21.792,16.544,24.921,16.544z"/>
		<path fill="#90DAF7" d="M24.92,16.582c3.107,0,5.668,1.473,5.668,2.64c0,1.294-2.519,1.807-5.626,1.807s-5.626-0.513-5.626-1.807
			C19.337,18.055,21.813,16.582,24.92,16.582z"/>
		<path fill="#92DBF7" d="M24.92,16.619c3.086,0,5.631,1.458,5.631,2.616c0,1.283-2.502,1.792-5.588,1.792
			c-3.086,0-5.588-0.508-5.588-1.792C19.375,18.077,21.833,16.619,24.92,16.619z"/>
		<path fill="#93DBF7" d="M24.92,16.657c3.064,0,5.593,1.444,5.593,2.591c0,1.272-2.485,1.776-5.55,1.776
			c-3.065,0-5.55-0.504-5.55-1.776C19.413,18.101,21.854,16.657,24.92,16.657z"/>
		<path fill="#95DCF8" d="M24.919,16.694c3.044,0,5.556,1.43,5.556,2.568c0,1.262-2.468,1.761-5.512,1.761
			c-3.044,0-5.512-0.5-5.512-1.761C19.451,18.124,21.875,16.694,24.919,16.694z"/>
		<path fill="#97DCF8" d="M24.919,16.732c3.022,0,5.518,1.415,5.518,2.543c0,1.251-2.45,1.746-5.474,1.746s-5.474-0.495-5.474-1.746
			C19.489,18.147,21.896,16.732,24.919,16.732z"/>
		<path fill="#98DDF8" d="M24.918,16.771c3.002,0,5.48,1.4,5.48,2.519c0,1.24-2.434,1.731-5.436,1.731
			c-3.002,0-5.436-0.491-5.436-1.731C19.527,18.171,21.916,16.771,24.918,16.771z"/>
		<path fill="#9ADDF8" d="M24.918,16.808c2.98,0,5.441,1.387,5.441,2.495c0,1.229-2.416,1.716-5.396,1.716
			c-2.981,0-5.397-0.486-5.397-1.716C19.565,18.194,21.937,16.808,24.918,16.808z"/>
		<path fill="#9BDEF8" d="M24.917,16.846c2.959,0,5.405,1.371,5.405,2.47c0,1.219-2.399,1.701-5.359,1.701s-5.359-0.481-5.359-1.701
			C19.604,18.217,21.957,16.846,24.917,16.846z"/>
		<path fill="#9DDEF8" d="M24.917,16.884c2.938,0,5.367,1.356,5.367,2.445c0,1.208-2.383,1.686-5.321,1.686
			c-2.939,0-5.321-0.477-5.321-1.686C19.642,18.24,21.978,16.884,24.917,16.884z"/>
		<path fill="#9FDFF8" d="M24.917,16.921c2.917,0,5.33,1.343,5.33,2.422c0,1.197-2.365,1.67-5.283,1.67s-5.283-0.473-5.283-1.67
			C19.68,18.264,21.998,16.921,24.917,16.921z"/>
		<path fill="#A0DFF8" d="M24.916,16.959c2.896,0,5.291,1.328,5.291,2.397c0,1.187-2.348,1.655-5.244,1.655
			c-2.897,0-5.245-0.469-5.245-1.655C19.718,18.287,22.019,16.959,24.916,16.959z"/>
		<path fill="#A2E0F8" d="M24.916,16.997c2.875,0,5.253,1.313,5.253,2.374c0,1.176-2.331,1.64-5.206,1.64
			c-2.876,0-5.207-0.464-5.207-1.64C19.756,18.31,22.039,16.997,24.916,16.997z"/>
		<path fill="#A3E0F9" d="M24.915,17.034c2.854,0,5.217,1.299,5.217,2.35c0,1.165-2.314,1.624-5.169,1.624
			c-2.855,0-5.169-0.459-5.169-1.624C19.794,18.333,22.06,17.034,24.915,17.034z"/>
		<path fill="#A5E1F9" d="M24.914,17.072c2.834,0,5.18,1.284,5.18,2.325c0,1.153-2.298,1.609-5.131,1.609
			c-2.834,0-5.131-0.456-5.131-1.609C19.832,18.356,22.081,17.072,24.914,17.072z"/>
		<path fill="#A6E1F9" d="M24.914,17.11c2.813,0,5.141,1.27,5.141,2.301c0,1.143-2.279,1.594-5.092,1.594
			c-2.813,0-5.092-0.451-5.092-1.594C19.871,18.38,22.101,17.11,24.914,17.11z"/>
		<path fill="#A8E2F9" d="M24.913,17.147c2.792,0,5.104,1.255,5.104,2.276c0,1.133-2.263,1.579-5.054,1.579
			c-2.792,0-5.054-0.446-5.054-1.579C19.909,18.403,22.122,17.147,24.913,17.147z"/>
		<path fill="#AAE2F9" d="M24.913,17.185c2.771,0,5.065,1.241,5.065,2.252c0,1.122-2.245,1.563-5.016,1.563
			s-5.016-0.442-5.016-1.563C19.947,18.426,22.143,17.185,24.913,17.185z"/>
		<path fill="#ABE3F9" d="M24.913,17.223c2.749,0,5.028,1.226,5.028,2.228c0,1.111-2.229,1.548-4.979,1.548
			c-2.75,0-4.979-0.437-4.979-1.548C19.984,18.449,22.163,17.223,24.913,17.223z"/>
		<path fill="#ADE3F9" d="M24.912,17.261c2.729,0,4.99,1.212,4.99,2.204c0,1.1-2.212,1.534-4.939,1.534
			c-2.729,0-4.94-0.434-4.94-1.534C20.022,18.473,22.184,17.261,24.912,17.261z"/>
		<path fill="#AEE4F9" d="M24.912,17.298c2.707,0,4.952,1.198,4.952,2.179c0,1.09-2.194,1.519-4.901,1.519
			c-2.708,0-4.902-0.429-4.902-1.519C20.061,18.496,22.204,17.298,24.912,17.298z"/>
		<path fill="#B0E4F9" d="M24.911,17.336c2.687,0,4.915,1.184,4.915,2.156c0,1.079-2.178,1.503-4.863,1.503
			c-2.687,0-4.864-0.424-4.864-1.503C20.099,18.52,22.225,17.336,24.911,17.336z"/>
		<path fill="#B2E5F9" d="M24.911,17.374c2.665,0,4.877,1.169,4.877,2.132c0,1.067-2.16,1.487-4.825,1.487
			c-2.666,0-4.826-0.42-4.826-1.487C20.137,18.542,22.246,17.374,24.911,17.374z"/>
		<path fill="#B3E5FA" d="M24.911,17.412c2.644,0,4.839,1.154,4.839,2.107c0,1.057-2.144,1.472-4.787,1.472
			c-2.645,0-4.788-0.415-4.788-1.472C20.175,18.565,22.266,17.412,24.911,17.412z"/>
		<path fill="#B5E6FA" d="M24.91,17.449c2.623,0,4.802,1.14,4.802,2.083c0,1.046-2.126,1.457-4.749,1.457s-4.749-0.411-4.749-1.457
			C20.214,18.589,22.287,17.449,24.91,17.449z"/>
		<path fill="#B6E6FA" d="M24.91,17.487c2.601,0,4.764,1.125,4.764,2.058c0,1.036-2.109,1.442-4.711,1.442
			c-2.603,0-4.711-0.406-4.711-1.442C20.252,18.612,22.307,17.487,24.91,17.487z"/>
		<path fill="#B8E7FA" d="M24.909,17.524c2.581,0,4.727,1.111,4.727,2.035c0,1.025-2.093,1.427-4.673,1.427
			c-2.581,0-4.673-0.402-4.673-1.427C20.29,18.635,22.327,17.524,24.909,17.524z"/>
		<path fill="#B9E7FA" d="M24.908,17.563c2.56,0,4.689,1.096,4.689,2.01c0,1.015-2.075,1.412-4.635,1.412
			c-2.56,0-4.635-0.397-4.635-1.412C20.328,18.658,22.348,17.563,24.908,17.563z"/>
		<path fill="#BBE8FA" d="M24.908,17.601c2.538,0,4.651,1.082,4.651,1.985c0,1.003-2.059,1.396-4.597,1.396
			c-2.54,0-4.597-0.394-4.597-1.396C20.366,18.682,22.369,17.601,24.908,17.601z"/>
		<path fill="#BDE8FA" d="M24.907,17.638c2.518,0,4.614,1.067,4.614,1.961c0,0.992-2.041,1.381-4.559,1.381
			c-2.518,0-4.559-0.389-4.559-1.381C20.404,18.705,22.39,17.638,24.907,17.638z"/>
		<path fill="#BEE9FA" d="M24.907,17.676c2.496,0,4.576,1.052,4.576,1.937c0,0.982-2.024,1.366-4.521,1.366
			c-2.497,0-4.521-0.384-4.521-1.366C20.442,18.728,22.41,17.676,24.907,17.676z"/>
		<path fill="#C0E9FA" d="M24.906,17.713c2.476,0,4.539,1.038,4.539,1.914c0,0.97-2.008,1.351-4.482,1.351
			c-2.476,0-4.482-0.38-4.482-1.351C20.48,18.751,22.431,17.713,24.906,17.713z"/>
		<path fill="#C1EAFA" d="M24.906,17.751c2.454,0,4.501,1.023,4.501,1.889c0,0.96-1.99,1.335-4.444,1.335
			c-2.455,0-4.444-0.375-4.444-1.335C20.519,18.774,22.451,17.751,24.906,17.751z"/>
		<path fill="#C3EAFB" d="M24.906,17.789c2.433,0,4.463,1.009,4.463,1.865c0,0.949-1.973,1.32-4.406,1.32s-4.406-0.371-4.406-1.32
			C20.557,18.798,22.472,17.789,24.906,17.789z"/>
		<path fill="#C5EBFB" d="M24.905,17.827c2.412,0,4.426,0.995,4.426,1.84c0,0.938-1.956,1.305-4.368,1.305
			c-2.413,0-4.368-0.367-4.368-1.305C20.595,18.821,22.492,17.827,24.905,17.827z"/>
		<path fill="#C6EBFB" d="M24.905,17.864c2.391,0,4.388,0.98,4.388,1.816c0,0.927-1.939,1.29-4.33,1.29
			c-2.392,0-4.33-0.362-4.33-1.29C20.633,18.845,22.513,17.864,24.905,17.864z"/>
		<path fill="#C8ECFB" d="M24.904,17.902c2.37,0,4.351,0.966,4.351,1.792c0,0.917-1.922,1.274-4.292,1.274
			c-2.371,0-4.292-0.358-4.292-1.274C20.671,18.868,22.534,17.902,24.904,17.902z"/>
		<path fill="#C9ECFB" d="M24.904,17.94c2.349,0,4.313,0.951,4.313,1.768c0,0.906-1.905,1.259-4.254,1.259
			c-2.35,0-4.254-0.353-4.254-1.259C20.709,18.891,22.554,17.94,24.904,17.94z"/>
		<path fill="#CBEDFB" d="M24.903,17.978c2.328,0,4.274,0.937,4.274,1.743c0,0.896-1.887,1.244-4.215,1.244
			c-2.329,0-4.215-0.349-4.215-1.244C20.748,18.914,22.575,17.978,24.903,17.978z"/>
		<path fill="#CCEDFB" d="M24.903,18.015c2.307,0,4.238,0.922,4.238,1.719c0,0.885-1.871,1.229-4.178,1.229
			c-2.308,0-4.177-0.344-4.177-1.229C20.786,18.937,22.595,18.015,24.903,18.015z"/>
		<path fill="#CEEEFB" d="M24.902,18.053c2.286,0,4.2,0.908,4.2,1.695c0,0.874-1.854,1.214-4.14,1.214
			c-2.287,0-4.139-0.34-4.139-1.214C20.824,18.961,22.616,18.053,24.902,18.053z"/>
		<path fill="#D0EEFB" d="M24.902,18.091c2.265,0,4.163,0.893,4.163,1.67c0,0.863-1.837,1.199-4.102,1.199
			c-2.266,0-4.102-0.336-4.102-1.199C20.861,18.984,22.636,18.091,24.902,18.091z"/>
		<path fill="#D1EFFB" d="M24.901,18.128c2.244,0,4.124,0.879,4.124,1.647c0,0.852-1.818,1.183-4.063,1.183
			s-4.063-0.332-4.063-1.183C20.899,19.007,22.657,18.128,24.901,18.128z"/>
		<path fill="#D3EFFC" d="M24.901,18.166c2.223,0,4.086,0.864,4.086,1.623c0,0.841-1.802,1.168-4.024,1.168
			c-2.224,0-4.025-0.327-4.025-1.168C20.938,19.03,22.678,18.166,24.901,18.166z"/>
		<path fill="#D4F0FC" d="M24.9,18.204c2.201,0,4.05,0.85,4.05,1.599c0,0.831-1.786,1.153-3.987,1.153
			c-2.203,0-3.987-0.322-3.987-1.153C20.976,19.053,22.698,18.204,24.9,18.204z"/>
		<path fill="#D6F0FC" d="M24.9,18.241c2.181,0,4.012,0.835,4.012,1.574c0,0.82-1.769,1.138-3.949,1.138
			c-2.181,0-3.949-0.318-3.949-1.138C21.014,19.077,22.719,18.241,24.9,18.241z"/>
		<path fill="#D8F1FC" d="M24.899,18.279c2.159,0,3.974,0.82,3.974,1.55c0,0.809-1.751,1.123-3.91,1.123
			c-2.16,0-3.911-0.313-3.911-1.123C21.052,19.1,22.739,18.279,24.899,18.279z"/>
		<path fill="#D9F1FC" d="M24.899,18.317c2.138,0,3.936,0.806,3.936,1.525c0,0.798-1.733,1.107-3.872,1.107
			c-2.139,0-3.873-0.309-3.873-1.107C21.09,19.123,22.76,18.317,24.899,18.317z"/>
		<path fill="#DBF2FC" d="M24.899,18.355c2.117,0,3.898,0.792,3.898,1.501c0,0.788-1.717,1.092-3.834,1.092
			c-2.118,0-3.834-0.304-3.834-1.092C21.128,19.146,22.78,18.355,24.899,18.355z"/>
		<path fill="#DCF2FC" d="M24.898,18.393c2.096,0,3.861,0.777,3.861,1.477c0,0.776-1.699,1.077-3.796,1.077s-3.796-0.3-3.796-1.077
			C21.167,19.17,22.801,18.393,24.898,18.393z"/>
		<path fill="#DEF3FC" d="M24.898,18.43c2.075,0,3.823,0.763,3.823,1.453c0,0.766-1.683,1.062-3.758,1.062
			c-2.076,0-3.758-0.295-3.758-1.062C21.205,19.193,22.822,18.43,24.898,18.43z"/>
		<path fill="#DFF3FC" d="M24.897,18.468c2.054,0,3.786,0.748,3.786,1.428c0,0.755-1.665,1.046-3.72,1.046
			c-2.055,0-3.72-0.291-3.72-1.046C21.243,19.216,22.842,18.468,24.897,18.468z"/>
		<path fill="#E1F4FC" d="M24.897,18.506c2.033,0,3.748,0.733,3.748,1.404c0,0.744-1.648,1.031-3.682,1.031
			c-2.034,0-3.682-0.287-3.682-1.031C21.281,19.239,22.863,18.506,24.897,18.506z"/>
		<path fill="#E3F4FD" d="M24.896,18.543c2.012,0,3.71,0.719,3.71,1.38c0,0.733-1.632,1.016-3.644,1.016
			c-2.013,0-3.644-0.282-3.644-1.016C21.319,19.262,22.883,18.543,24.896,18.543z"/>
		<path fill="#E4F5FD" d="M24.896,18.581c1.991,0,3.672,0.705,3.672,1.356c0,0.723-1.614,1.001-3.605,1.001
			c-1.992,0-3.605-0.278-3.605-1.001C21.357,19.286,22.904,18.581,24.896,18.581z"/>
		<path fill="#E6F5FD" d="M24.896,18.619c1.97,0,3.635,0.69,3.635,1.332c0,0.712-1.598,0.985-3.567,0.985
			c-1.971,0-3.567-0.273-3.567-0.985C21.396,19.309,22.925,18.619,24.896,18.619z"/>
		<path fill="#E7F6FD" d="M24.895,18.657c1.949,0,3.597,0.676,3.597,1.307c0,0.701-1.58,0.971-3.529,0.971
			c-1.95,0-3.529-0.27-3.529-0.971C21.434,19.333,22.945,18.657,24.895,18.657z"/>
		<path fill="#E9F6FD" d="M28.454,19.978c0,0.69-1.563,0.955-3.491,0.955c-1.929,0-3.491-0.265-3.491-0.955
			c0-0.622,1.494-1.283,3.423-1.283C26.822,18.694,28.454,19.355,28.454,19.978z"/>
	</g>
	<g>
		<path fill="#001689" d="M39.09,13.786c0,5.656-6.186,6.757-14.195,6.757c-8.009,0-14.116-1.064-14.127-6.757
			c-0.008-4.052,6.151-6.613,14.161-6.613S39.09,9.734,39.09,13.786z"/>
		<path fill="#001689" d="M39.057,13.804c0,5.639-6.172,6.739-14.162,6.739c-7.99,0-14.083-1.064-14.094-6.739
			c-0.008-4.049,6.138-6.61,14.128-6.61C32.919,7.194,39.057,9.755,39.057,13.804z"/>
		<path fill="#00178A" d="M39.023,13.822c0,5.622-6.157,6.723-14.128,6.723c-7.97,0-14.051-1.065-14.061-6.723
			c-0.008-4.046,6.124-6.605,14.095-6.605C32.899,7.217,39.023,9.776,39.023,13.822z"/>
		<path fill="#00188A" d="M38.99,13.839c0,5.606-6.144,6.707-14.095,6.707c-7.951,0-14.018-1.065-14.028-6.707
			c-0.008-4.042,6.11-6.602,14.062-6.602C32.88,7.238,38.99,9.797,38.99,13.839z"/>
		<path fill="#00198B" d="M38.957,13.858c0,5.589-6.129,6.689-14.062,6.689c-7.932,0-13.985-1.065-13.996-6.689
			c-0.007-4.04,6.097-6.598,14.029-6.598C32.861,7.26,38.957,9.818,38.957,13.858z"/>
		<path fill="#00198B" d="M38.924,13.875c0,5.572-6.115,6.672-14.029,6.672c-7.912,0-13.952-1.065-13.962-6.672
			c-0.007-4.036,6.083-6.594,13.996-6.594C32.842,7.282,38.924,9.839,38.924,13.875z"/>
		<path fill="#001A8C" d="M38.891,13.894c0,5.555-6.102,6.656-13.995,6.656c-7.893,0-13.919-1.065-13.929-6.656
			c-0.008-4.033,6.068-6.59,13.962-6.59C32.822,7.304,38.891,9.86,38.891,13.894z"/>
		<path fill="#001B8C" d="M38.858,13.912c0,5.538-6.088,6.639-13.962,6.639S11.01,19.484,11,13.912
			c-0.007-4.03,6.055-6.586,13.93-6.586C32.803,7.326,38.858,9.882,38.858,13.912z"/>
		<path fill="#011C8C" d="M38.825,13.929c0,5.521-6.074,6.623-13.929,6.623c-7.854,0-13.854-1.066-13.864-6.623
			c-0.007-4.027,6.042-6.582,13.896-6.582C32.784,7.347,38.825,9.902,38.825,13.929z"/>
		<path fill="#041C8D" d="M38.792,13.947c0,5.504-6.061,6.605-13.896,6.605c-7.834,0-13.821-1.066-13.831-6.605
			c-0.008-4.024,6.027-6.578,13.863-6.578S38.792,9.923,38.792,13.947z"/>
		<path fill="#081D8D" d="M38.759,13.965c0,5.488-6.046,6.588-13.863,6.588c-7.815,0-13.787-1.066-13.797-6.588
			c-0.007-4.021,6.014-6.574,13.83-6.574S38.759,9.944,38.759,13.965z"/>
		<path fill="#0C1E8E" d="M38.727,13.983c0,5.471-6.032,6.571-13.83,6.571c-7.796,0-13.755-1.066-13.765-6.571
			c-0.007-4.018,6-6.57,13.797-6.57S38.727,9.965,38.727,13.983z"/>
		<path fill="#0F1F8E" d="M38.692,14.001c0,5.454-6.018,6.555-13.795,6.555c-7.777,0-13.722-1.067-13.732-6.555
			c-0.007-4.015,5.986-6.566,13.764-6.566C32.706,7.435,38.692,9.986,38.692,14.001z"/>
		<path fill="#12208F" d="M38.659,14.019c0,5.437-6.004,6.538-13.763,6.538c-7.757,0-13.689-1.067-13.699-6.538
			c-0.007-4.012,5.972-6.563,13.73-6.563S38.659,10.007,38.659,14.019z"/>
		<path fill="#14208F" d="M38.626,14.037c0,5.42-5.989,6.521-13.729,6.521c-7.738,0-13.656-1.067-13.666-6.521
			c-0.007-4.008,5.959-6.558,13.698-6.558C32.668,7.479,38.626,10.028,38.626,14.037z"/>
		<path fill="#162190" d="M38.594,14.055c0,5.403-5.977,6.505-13.696,6.505s-13.624-1.068-13.634-6.505
			C11.257,10.05,17.209,7.5,24.929,7.5C32.648,7.5,38.594,10.05,38.594,14.055z"/>
		<path fill="#182290" d="M38.561,14.073c0,5.386-5.963,6.487-13.663,6.487c-7.699,0-13.59-1.068-13.6-6.487
			c-0.007-4.002,5.931-6.551,13.631-6.551C32.629,7.522,38.561,10.07,38.561,14.073z"/>
		<path fill="#1B2391" d="M38.527,14.09c0,5.37-5.949,6.47-13.63,6.47c-7.68,0-13.558-1.068-13.567-6.47
			c-0.007-3.999,5.917-6.547,13.598-6.547S38.527,10.091,38.527,14.09z"/>
		<path fill="#1C2491" d="M38.494,14.108c0,5.353-5.935,6.454-13.596,6.454c-7.661,0-13.525-1.068-13.535-6.454
			c-0.007-3.996,5.903-6.543,13.565-6.543S38.494,10.112,38.494,14.108z"/>
		<path fill="#1E2492" d="M38.461,14.126c0,5.336-5.92,6.437-13.563,6.437c-7.642,0-13.492-1.068-13.502-6.437
			c-0.007-3.993,5.89-6.539,13.533-6.539C32.571,7.587,38.461,10.133,38.461,14.126z"/>
		<path fill="#202592" d="M38.428,14.145c0,5.319-5.906,6.42-13.529,6.42c-7.622,0-13.459-1.069-13.469-6.42
			c-0.007-3.99,5.876-6.536,13.499-6.536S38.428,10.154,38.428,14.145z"/>
		<path fill="#222693" d="M38.395,14.162c0,5.302-5.893,6.403-13.496,6.403c-7.603,0-13.427-1.069-13.436-6.403
			c-0.007-3.987,5.862-6.531,13.466-6.531C32.532,7.631,38.395,10.175,38.395,14.162z"/>
		<path fill="#232793" d="M38.361,14.18c0,5.286-5.878,6.387-13.463,6.387c-7.583,0-13.393-1.069-13.403-6.387
			c-0.007-3.983,5.849-6.527,13.433-6.527C32.513,7.652,38.361,10.196,38.361,14.18z"/>
		<path fill="#252794" d="M38.328,14.198c0,5.269-5.864,6.369-13.429,6.369s-13.361-1.069-13.371-6.369
			c-0.006-3.981,5.835-6.524,13.4-6.524C32.494,7.674,38.328,10.217,38.328,14.198z"/>
		<path fill="#262894" d="M38.296,14.216c0,5.252-5.851,6.353-13.396,6.353c-7.545,0-13.328-1.069-13.337-6.353
			c-0.007-3.978,5.821-6.52,13.367-6.52C32.475,7.696,38.296,10.238,38.296,14.216z"/>
		<path fill="#282994" d="M38.262,14.234c0,5.235-5.836,6.335-13.363,6.335c-7.525,0-13.295-1.07-13.304-6.335
			c-0.007-3.975,5.808-6.516,13.333-6.516C32.455,7.718,38.262,10.259,38.262,14.234z"/>
		<path fill="#292A95" d="M38.229,14.251c0,5.218-5.823,6.319-13.33,6.319c-7.506,0-13.262-1.07-13.271-6.319
			C11.622,10.28,17.421,7.74,24.929,7.74C32.436,7.74,38.229,10.28,38.229,14.251z"/>
		<path fill="#2B2B95" d="M38.196,14.27c0,5.202-5.809,6.302-13.296,6.302s-13.23-1.07-13.239-6.302
			c-0.007-3.968,5.779-6.508,13.267-6.508C32.417,7.762,38.196,10.302,38.196,14.27z"/>
		<path fill="#2C2B96" d="M38.163,14.288c0,5.184-5.795,6.285-13.263,6.285c-7.467,0-13.197-1.07-13.206-6.285
			c-0.007-3.965,5.766-6.504,13.234-6.504C32.396,7.784,38.163,10.322,38.163,14.288z"/>
		<path fill="#2E2C96" d="M38.13,14.305c0,5.167-5.781,6.269-13.23,6.269c-7.448,0-13.164-1.071-13.173-6.269
			c-0.006-3.962,5.752-6.5,13.201-6.5C32.378,7.805,38.13,10.343,38.13,14.305z"/>
		<path fill="#2F2D97" d="M38.097,14.323c0,5.151-5.767,6.251-13.197,6.251c-7.429,0-13.13-1.071-13.14-6.251
			c-0.006-3.959,5.739-6.496,13.168-6.496S38.097,10.364,38.097,14.323z"/>
		<path fill="#302E97" d="M38.063,14.341c0,5.134-5.753,6.235-13.163,6.235c-7.409,0-13.098-1.071-13.106-6.235
			c-0.006-3.956,5.725-6.492,13.135-6.492C32.34,7.849,38.063,10.385,38.063,14.341z"/>
		<path fill="#322F98" d="M38.03,14.359c0,5.117-5.738,6.218-13.129,6.218c-7.391,0-13.065-1.071-13.074-6.218
			c-0.006-3.953,5.711-6.489,13.102-6.489C32.32,7.871,38.03,10.406,38.03,14.359z"/>
		<path fill="#332F98" d="M37.997,14.377c0,5.1-5.725,6.201-13.097,6.201c-7.371,0-13.032-1.071-13.041-6.201
			c-0.006-3.95,5.697-6.484,13.069-6.484S37.997,10.427,37.997,14.377z"/>
		<path fill="#343099" d="M37.965,14.395c0,5.083-5.712,6.185-13.064,6.185c-7.351,0-13-1.072-13.008-6.185
			c-0.006-3.947,5.684-6.48,13.036-6.48C32.281,7.914,37.965,10.448,37.965,14.395z"/>
		<path fill="#353199" d="M37.932,14.413c0,5.066-5.697,6.167-13.03,6.167c-7.332,0-12.966-1.071-12.975-6.167
			c-0.006-3.943,5.67-6.477,13.002-6.477C32.262,7.936,37.932,10.47,37.932,14.413z"/>
		<path fill="#36329A" d="M37.898,14.431c0,5.05-5.684,6.15-12.997,6.15c-7.313,0-12.934-1.072-12.942-6.15
			c-0.006-3.94,5.656-6.473,12.97-6.473C32.242,7.958,37.898,10.49,37.898,14.431z"/>
		<path fill="#38339A" d="M37.865,14.449c0,5.032-5.67,6.133-12.964,6.133S12,19.51,11.992,14.449
			c-0.006-3.938,5.642-6.469,12.937-6.469C32.223,7.979,37.865,10.511,37.865,14.449z"/>
		<path fill="#39349B" d="M37.832,14.466c0,5.016-5.655,6.117-12.93,6.117c-7.274,0-12.868-1.073-12.876-6.117
			c-0.006-3.934,5.628-6.464,12.903-6.464C32.203,8.002,37.832,10.532,37.832,14.466z"/>
		<path fill="#3A349B" d="M37.799,14.484c0,4.999-5.641,6.1-12.896,6.1c-7.255,0-12.835-1.073-12.844-6.1
			c-0.006-3.931,5.615-6.461,12.87-6.461C32.185,8.023,37.799,10.553,37.799,14.484z"/>
		<path fill="#3B359C" d="M37.766,14.502c0,4.982-5.627,6.083-12.863,6.083c-7.236,0-12.803-1.072-12.811-6.083
			c-0.006-3.928,5.601-6.458,12.837-6.458S37.766,10.574,37.766,14.502z"/>
		<path fill="#3C369C" d="M37.732,14.521c0,4.965-5.613,6.065-12.83,6.065s-12.77-1.073-12.778-6.065
			c-0.006-3.926,5.587-6.454,12.804-6.454C32.146,8.067,37.732,10.595,37.732,14.521z"/>
		<path fill="#3E379C" d="M37.699,14.538c0,4.948-5.6,6.049-12.797,6.049c-7.197,0-12.736-1.073-12.745-6.049
			c-0.006-3.922,5.573-6.449,12.771-6.449C32.127,8.089,37.699,10.616,37.699,14.538z"/>
		<path fill="#3F389D" d="M37.667,14.556c0,4.932-5.586,6.033-12.764,6.033s-12.704-1.074-12.712-6.033
			c-0.006-3.919,5.56-6.445,12.738-6.445C32.107,8.111,37.667,10.637,37.667,14.556z"/>
		<path fill="#40389D" d="M37.633,14.574c0,4.914-5.571,6.015-12.729,6.015c-7.159,0-12.671-1.074-12.68-6.015
			c-0.006-3.916,5.546-6.442,12.705-6.442C32.088,8.132,37.633,10.658,37.633,14.574z"/>
		<path fill="#41399E" d="M37.6,14.591c0,4.898-5.557,6-12.697,6c-7.139,0-12.638-1.074-12.646-6
			c-0.006-3.913,5.532-6.438,12.672-6.438S37.6,10.679,37.6,14.591z"/>
		<path fill="#423A9E" d="M37.567,14.609c0,4.881-5.544,5.982-12.664,5.982c-7.12,0-12.605-1.074-12.613-5.982
			c-0.006-3.909,5.518-6.434,12.639-6.434C32.049,8.176,37.567,10.7,37.567,14.609z"/>
		<path fill="#433B9F" d="M37.534,14.628c0,4.864-5.529,5.965-12.631,5.965c-7.1,0-12.572-1.075-12.58-5.965
			c-0.006-3.906,5.505-6.43,12.605-6.43C32.03,8.198,37.534,10.722,37.534,14.628z"/>
		<path fill="#443C9F" d="M37.501,14.646c0,4.847-5.516,5.948-12.598,5.948c-7.081,0-12.539-1.074-12.547-5.948
			c-0.006-3.903,5.49-6.426,12.572-6.426C32.01,8.22,37.501,10.742,37.501,14.646z"/>
		<path fill="#453DA0" d="M37.468,14.663c0,4.831-5.502,5.932-12.564,5.932S12.397,19.52,12.39,14.663
			c-0.006-3.9,5.477-6.422,12.539-6.422C31.99,8.241,37.468,10.763,37.468,14.663z"/>
		<path fill="#463DA0" d="M37.436,14.682c0,4.813-5.488,5.914-12.532,5.914c-7.042,0-12.473-1.074-12.481-5.914
			c-0.006-3.897,5.463-6.419,12.506-6.419S37.436,10.784,37.436,14.682z"/>
		<path fill="#473EA1" d="M37.402,14.7c0,4.796-5.475,5.897-12.498,5.897c-7.023,0-12.44-1.075-12.448-5.897
			c-0.006-3.895,5.449-6.415,12.473-6.415S37.402,10.805,37.402,14.7z"/>
		<path fill="#483FA1" d="M37.369,14.717c0,4.78-5.461,5.881-12.465,5.881c-7.003,0-12.408-1.076-12.415-5.881
			c-0.006-3.891,5.436-6.411,12.439-6.411C31.934,8.307,37.369,10.826,37.369,14.717z"/>
		<path fill="#4A40A2" d="M37.335,14.734c0,4.764-5.445,5.864-12.431,5.864c-6.984,0-12.375-1.075-12.383-5.864
			c-0.005-3.888,5.422-6.406,12.407-6.406S37.335,10.847,37.335,14.734z"/>
		<path fill="#4B41A2" d="M37.303,14.753c0,4.747-5.433,5.848-12.398,5.848s-12.342-1.076-12.35-5.848
			c-0.005-3.885,5.408-6.402,12.374-6.402S37.303,10.868,37.303,14.753z"/>
		<path fill="#4C42A3" d="M37.27,14.771c0,4.729-5.418,5.83-12.364,5.83c-6.946,0-12.31-1.076-12.317-5.83
			c-0.005-3.882,5.395-6.398,12.341-6.398C31.875,8.373,37.27,10.89,37.27,14.771z"/>
		<path fill="#4D42A3" d="M37.236,14.789c0,4.712-5.404,5.813-12.331,5.813c-6.926,0-12.276-1.076-12.284-5.813
			c-0.005-3.879,5.38-6.395,12.308-6.395C31.855,8.394,37.236,10.91,37.236,14.789z"/>
		<path fill="#4E43A4" d="M37.203,14.807c0,4.696-5.391,5.796-12.298,5.796s-12.244-1.076-12.251-5.796
			c-0.006-3.876,5.366-6.391,12.274-6.391C31.836,8.416,37.203,10.931,37.203,14.807z"/>
		<path fill="#4F44A4" d="M37.17,14.824c0,4.68-5.376,5.78-12.264,5.78s-12.211-1.076-12.218-5.78
			c-0.006-3.872,5.353-6.387,12.241-6.387S37.17,10.952,37.17,14.824z"/>
		<path fill="#5045A4" d="M37.137,14.843c0,4.662-5.361,5.763-12.23,5.763c-6.868,0-12.179-1.077-12.186-5.763
			c-0.005-3.87,5.339-6.383,12.208-6.383S37.137,10.973,37.137,14.843z"/>
		<path fill="#5146A5" d="M37.104,14.86c0,4.646-5.348,5.746-12.197,5.746c-6.849,0-12.146-1.077-12.152-5.746
			c-0.006-3.866,5.325-6.379,12.175-6.379S37.104,10.994,37.104,14.86z"/>
		<path fill="#5247A5" d="M37.07,14.878c0,4.629-5.334,5.729-12.164,5.729s-12.112-1.077-12.12-5.729
			c-0.005-3.863,5.312-6.375,12.143-6.375C31.759,8.503,37.07,11.015,37.07,14.878z"/>
		<path fill="#5347A6" d="M37.037,14.896c0,4.611-5.32,5.712-12.131,5.712s-12.079-1.077-12.087-5.712
			c-0.005-3.86,5.299-6.372,12.109-6.372C31.74,8.524,37.037,11.036,37.037,14.896z"/>
		<path fill="#5448A6" d="M37.005,14.915c0,4.594-5.307,5.695-12.098,5.695s-12.047-1.077-12.054-5.695
			c-0.006-3.857,5.284-6.368,12.075-6.368C31.721,8.547,37.005,11.057,37.005,14.915z"/>
		<path fill="#5549A7" d="M36.972,14.933c0,4.577-5.293,5.678-12.065,5.678c-6.771,0-12.014-1.078-12.021-5.678
			c-0.005-3.854,5.271-6.364,12.043-6.364S36.972,11.078,36.972,14.933z"/>
		<path fill="#564AA7" d="M36.938,14.949c0,4.562-5.278,5.662-12.031,5.662s-11.981-1.078-11.988-5.662
			c-0.005-3.851,5.257-6.359,12.01-6.359S36.938,11.099,36.938,14.949z"/>
		<path fill="#574BA8" d="M36.905,14.968c0,4.544-5.265,5.646-11.998,5.646s-11.948-1.078-11.955-5.646
			c-0.005-3.848,5.243-6.355,11.977-6.355C31.662,8.612,36.905,11.12,36.905,14.968z"/>
		<path fill="#584CA8" d="M36.873,14.986c0,4.527-5.251,5.628-11.966,5.628c-6.713,0-11.915-1.079-11.922-5.628
			c-0.005-3.845,5.229-6.353,11.943-6.353C31.644,8.634,36.873,11.142,36.873,14.986z"/>
		<path fill="#594DA9" d="M36.839,15.004c0,4.51-5.236,5.611-11.932,5.611c-6.694,0-11.882-1.079-11.889-5.611
			c-0.005-3.842,5.215-6.348,11.91-6.348S36.839,11.162,36.839,15.004z"/>
		<path fill="#5A4DA9" d="M36.806,15.021c0,4.493-5.223,5.594-11.898,5.594s-11.85-1.079-11.857-5.594
			c-0.004-3.839,5.202-6.344,11.878-6.344C31.604,8.677,36.806,11.183,36.806,15.021z"/>
		<path fill="#5B4EAA" d="M36.772,15.04c0,4.477-5.208,5.578-11.865,5.578c-6.655,0-11.817-1.079-11.823-5.578
			c-0.005-3.835,5.188-6.34,11.844-6.34S36.772,11.204,36.772,15.04z"/>
		<path fill="#5C4FAA" d="M36.74,15.058c0,4.46-5.195,5.561-11.832,5.561c-6.636,0-11.784-1.079-11.79-5.561
			c-0.005-3.833,5.174-6.336,11.811-6.336C31.566,8.722,36.74,11.225,36.74,15.058z"/>
		<path fill="#5D50AB" d="M36.707,15.075c0,4.443-5.182,5.544-11.799,5.544s-11.751-1.08-11.758-5.544
			c-0.004-3.829,5.161-6.333,11.778-6.333S36.707,11.246,36.707,15.075z"/>
		<path fill="#5E51AB" d="M36.674,15.093c0,4.426-5.168,5.527-11.766,5.527s-11.719-1.08-11.725-5.527
			c-0.005-3.826,5.146-6.328,11.745-6.328S36.674,11.267,36.674,15.093z"/>
		<path fill="#5E52AB" d="M36.641,15.111c0,4.409-5.153,5.51-11.732,5.51s-11.685-1.079-11.692-5.51
			c-0.005-3.823,5.133-6.325,11.712-6.325S36.641,11.288,36.641,15.111z"/>
		<path fill="#5F53AC" d="M36.607,15.129c0,4.392-5.139,5.494-11.698,5.494c-6.559,0-11.652-1.081-11.659-5.494
			c-0.004-3.82,5.12-6.321,11.679-6.321C31.488,8.809,36.607,11.31,36.607,15.129z"/>
		<path fill="#6053AC" d="M36.574,15.147c0,4.375-5.125,5.476-11.665,5.476s-11.62-1.08-11.626-5.476
			C13.278,11.33,18.388,8.83,24.929,8.83C31.469,8.83,36.574,11.33,36.574,15.147z"/>
		<path fill="#6154AD" d="M36.541,15.165c0,4.359-5.111,5.46-11.632,5.46s-11.587-1.081-11.593-5.46
			c-0.005-3.814,5.091-6.313,11.612-6.313C31.449,8.852,36.541,11.351,36.541,15.165z"/>
		<path fill="#6255AD" d="M36.508,15.183c0,4.342-5.097,5.443-11.598,5.443s-11.554-1.081-11.56-5.443
			c-0.005-3.811,5.077-6.309,11.579-6.309S36.508,11.372,36.508,15.183z"/>
		<path fill="#6356AE" d="M36.475,15.201c0,4.324-5.083,5.426-11.565,5.426s-11.521-1.081-11.527-5.426
			c-0.005-3.808,5.063-6.306,11.546-6.306S36.475,11.393,36.475,15.201z"/>
		<path fill="#6457AE" d="M36.441,15.219c0,4.308-5.068,5.409-11.531,5.409s-11.488-1.082-11.495-5.409
			c-0.004-3.805,5.051-6.301,11.514-6.301S36.441,11.414,36.441,15.219z"/>
		<path fill="#6558AF" d="M36.408,15.236c0,4.291-5.055,5.392-11.499,5.392c-6.442,0-11.455-1.081-11.461-5.392
			c-0.004-3.802,5.037-6.297,11.48-6.297C31.372,8.939,36.408,11.435,36.408,15.236z"/>
		<path fill="#6659AF" d="M36.375,15.254c0,4.274-5.041,5.375-11.465,5.375s-11.423-1.082-11.429-5.375
			c-0.004-3.799,5.023-6.293,11.447-6.293C31.353,8.961,36.375,11.456,36.375,15.254z"/>
		<path fill="#675AB0" d="M36.343,15.272c0,4.257-5.027,5.358-11.432,5.358s-11.39-1.082-11.396-5.358
			c-0.004-3.796,5.01-6.289,11.414-6.289C31.334,8.983,36.343,11.477,36.343,15.272z"/>
		<path fill="#685AB0" d="M36.31,15.29c0,4.241-5.014,5.342-11.399,5.342c-6.385,0-11.356-1.082-11.362-5.342
			c-0.004-3.792,4.995-6.286,11.381-6.286S36.31,11.498,36.31,15.29z"/>
		<path fill="#695BB1" d="M36.276,15.308c0,4.224-5,5.325-11.366,5.325c-6.365,0-11.324-1.082-11.329-5.325
			c-0.005-3.789,4.981-6.281,11.348-6.281C31.295,9.026,36.276,11.519,36.276,15.308z"/>
		<path fill="#6A5CB1" d="M36.243,15.326c0,4.207-4.985,5.308-11.332,5.308s-11.291-1.083-11.297-5.308
			c-0.004-3.786,4.967-6.278,11.314-6.278C31.275,9.048,36.243,11.54,36.243,15.326z"/>
		<path fill="#6B5DB2" d="M36.21,15.344c0,4.19-4.972,5.291-11.299,5.291s-11.258-1.083-11.264-5.291
			c-0.004-3.783,4.954-6.274,11.281-6.274C31.256,9.07,36.21,11.561,36.21,15.344z"/>
		<path fill="#6C5EB2" d="M36.178,15.361c0,4.174-4.958,5.274-11.267,5.274c-6.308,0-11.226-1.082-11.23-5.274
			c-0.004-3.779,4.939-6.27,11.248-6.27S36.178,11.582,36.178,15.361z"/>
		<path fill="#6D5FB2" d="M36.144,15.379c0,4.157-4.943,5.257-11.232,5.257c-6.288,0-11.192-1.083-11.198-5.257
			c-0.004-3.777,4.927-6.266,11.216-6.266S36.144,11.603,36.144,15.379z"/>
		<path fill="#6E60B3" d="M36.111,15.397c0,4.14-4.93,5.241-11.199,5.241s-11.16-1.083-11.166-5.241
			c-0.003-3.774,4.913-6.262,11.182-6.262S36.111,11.624,36.111,15.397z"/>
		<path fill="#6F61B3" d="M36.078,15.415c0,4.123-4.916,5.225-11.166,5.225s-11.127-1.083-11.133-5.225
			c-0.004-3.771,4.899-6.258,11.149-6.258C31.18,9.157,36.078,11.645,36.078,15.415z"/>
		<path fill="#6F61B4" d="M36.045,15.434c0,4.105-4.902,5.207-11.133,5.207s-11.094-1.083-11.099-5.207
			c-0.004-3.768,4.885-6.255,11.116-6.255C31.159,9.179,36.045,11.666,36.045,15.434z"/>
		<path fill="#7062B4" d="M36.012,15.451c0,4.089-4.888,5.19-11.1,5.19c-6.211,0-11.062-1.084-11.066-5.19
			c-0.004-3.765,4.871-6.25,11.083-6.25S36.012,11.687,36.012,15.451z"/>
		<path fill="#7163B5" d="M35.979,15.469c0,4.072-4.874,5.173-11.066,5.173s-11.028-1.084-11.034-5.173
			c-0.004-3.761,4.857-6.247,11.05-6.247S35.979,11.708,35.979,15.469z"/>
		<path fill="#7264B5" d="M35.945,15.487c0,4.055-4.859,5.156-11.032,5.156s-10.996-1.084-11.001-5.156
			c-0.004-3.759,4.844-6.243,11.017-6.243S35.945,11.729,35.945,15.487z"/>
		<path fill="#7365B6" d="M35.912,15.505c0,4.038-4.846,5.14-11,5.14c-6.153,0-10.962-1.084-10.967-5.14
			c-0.004-3.755,4.83-6.239,10.983-6.239S35.912,11.75,35.912,15.505z"/>
		<path fill="#7466B6" d="M35.879,15.523c0,4.021-4.832,5.123-10.966,5.123s-10.93-1.085-10.935-5.123
			c-0.003-3.752,4.817-6.235,10.951-6.235S35.879,11.771,35.879,15.523z"/>
		<path fill="#7567B7" d="M35.846,15.541c0,4.005-4.817,5.105-10.933,5.105c-6.114,0-10.896-1.084-10.901-5.105
			c-0.004-3.749,4.802-6.231,10.917-6.231C31.043,9.31,35.846,11.792,35.846,15.541z"/>
		<path fill="#7668B7" d="M35.813,15.559c0,3.988-4.804,5.089-10.899,5.089s-10.865-1.084-10.87-5.089
			c-0.003-3.746,4.789-6.227,10.885-6.227S35.813,11.813,35.813,15.559z"/>
		<path fill="#7769B8" d="M35.78,15.577c0,3.971-4.79,5.071-10.867,5.071c-6.076,0-10.832-1.085-10.836-5.071
			c-0.003-3.744,4.775-6.224,10.851-6.224S35.78,11.833,35.78,15.577z"/>
		<path fill="#7869B8" d="M35.747,15.595c0,3.954-4.776,5.055-10.833,5.055s-10.799-1.085-10.804-5.055
			c-0.003-3.74,4.762-6.22,10.818-6.22C30.986,9.375,35.747,11.854,35.747,15.595z"/>
		<path fill="#796AB8" d="M35.714,15.613c0,3.937-4.763,5.039-10.8,5.039s-10.766-1.086-10.771-5.039
			c-0.003-3.737,4.748-6.215,10.785-6.215C30.966,9.397,35.714,11.876,35.714,15.613z"/>
		<path fill="#7A6BB9" d="M35.681,15.63c0,3.921-4.748,5.022-10.766,5.022s-10.733-1.085-10.738-5.022
			c-0.003-3.733,4.733-6.211,10.752-6.211S35.681,11.896,35.681,15.63z"/>
		<path fill="#7A6CB9" d="M35.647,15.648c0,3.903-4.734,5.005-10.733,5.005c-5.998,0-10.699-1.086-10.704-5.005
			c-0.003-3.73,4.72-6.208,10.719-6.208S35.647,11.918,35.647,15.648z"/>
		<path fill="#7B6DBA" d="M35.614,15.666c0,3.887-4.72,4.988-10.7,4.988c-5.979,0-10.667-1.087-10.671-4.988
			c-0.003-3.728,4.706-6.204,10.686-6.204S35.614,11.938,35.614,15.666z"/>
		<path fill="#7C6EBA" d="M35.582,15.684c0,3.87-4.707,4.971-10.667,4.971s-10.635-1.086-10.639-4.971
			c-0.003-3.724,4.692-6.2,10.652-6.2S35.582,11.96,35.582,15.684z"/>
		<path fill="#7D6FBB" d="M35.549,15.702c0,3.853-4.693,4.954-10.634,4.954s-10.602-1.086-10.606-4.954
			c-0.003-3.721,4.679-6.196,10.62-6.196S35.549,11.981,35.549,15.702z"/>
		<path fill="#7E70BB" d="M35.516,15.72c0,3.836-4.679,4.938-10.601,4.938c-5.921,0-10.568-1.087-10.573-4.938
			c-0.003-3.718,4.665-6.192,10.586-6.192S35.516,12.001,35.516,15.72z"/>
		<path fill="#7F71BC" d="M35.482,15.738c0,3.819-4.665,4.92-10.567,4.92c-5.901,0-10.536-1.087-10.54-4.92
			c-0.003-3.715,4.651-6.188,10.554-6.188S35.482,12.022,35.482,15.738z"/>
		<path fill="#8072BC" d="M35.449,15.756c0,3.802-4.65,4.903-10.533,4.903s-10.503-1.087-10.507-4.903
			c-0.003-3.712,4.637-6.184,10.52-6.184S35.449,12.043,35.449,15.756z"/>
		<path fill="#8172BD" d="M35.416,15.773c0,3.786-4.637,4.887-10.5,4.887c-5.863,0-10.47-1.087-10.474-4.887
			c-0.003-3.709,4.624-6.18,10.487-6.18C30.792,9.594,35.416,12.064,35.416,15.773z"/>
		<path fill="#8273BD" d="M35.383,15.792c0,3.768-4.623,4.87-10.467,4.87s-10.438-1.088-10.441-4.87
			c-0.003-3.706,4.61-6.177,10.454-6.177C30.773,9.615,35.383,12.086,35.383,15.792z"/>
		<path fill="#8374BE" d="M35.35,15.81c0,3.751-4.608,4.854-10.434,4.854c-5.824,0-10.404-1.089-10.408-4.854
			c-0.003-3.703,4.596-6.173,10.421-6.173S35.35,12.106,35.35,15.81z"/>
		<path fill="#8375BE" d="M35.316,15.827c0,3.735-4.595,4.836-10.4,4.836s-10.372-1.087-10.375-4.836
			c-0.003-3.699,4.582-6.168,10.388-6.168S35.316,12.128,35.316,15.827z"/>
		<path fill="#8476BE" d="M35.283,15.846c0,3.718-4.58,4.819-10.367,4.819c-5.786,0-10.338-1.088-10.342-4.819
			c-0.002-3.697,4.569-6.165,10.355-6.165S35.283,12.148,35.283,15.846z"/>
		<path fill="#8577BF" d="M35.25,15.863c0,3.701-4.566,4.803-10.333,4.803c-5.766,0-10.306-1.089-10.309-4.803
			c-0.003-3.693,4.555-6.161,10.321-6.161S35.25,12.17,35.25,15.863z"/>
		<path fill="#8678BF" d="M35.217,15.881c0,3.685-4.553,4.786-10.3,4.786s-10.273-1.089-10.277-4.786
			c-0.002-3.69,4.542-6.157,10.289-6.157S35.217,12.191,35.217,15.881z"/>
		<path fill="#8779C0" d="M35.184,15.898c0,3.668-4.538,4.77-10.267,4.77c-5.728,0-10.24-1.089-10.244-4.77
			c-0.002-3.687,4.527-6.152,10.255-6.152S35.184,12.211,35.184,15.898z"/>
		<path fill="#887AC0" d="M35.15,15.917c0,3.65-4.524,4.752-10.233,4.752c-5.708,0-10.207-1.089-10.211-4.752
			c-0.002-3.685,4.514-6.149,10.223-6.149S35.15,12.232,35.15,15.917z"/>
		<path fill="#897BC1" d="M35.117,15.935c0,3.634-4.51,4.735-10.2,4.735c-5.689,0-10.174-1.089-10.178-4.735
			c-0.002-3.681,4.5-6.145,10.189-6.145S35.117,12.253,35.117,15.935z"/>
		<path fill="#8A7CC1" d="M35.085,15.953c0,3.618-4.497,4.718-10.167,4.718c-5.67,0-10.142-1.089-10.146-4.718
			c-0.003-3.678,4.486-6.141,10.156-6.141C30.599,9.812,35.085,12.274,35.085,15.953z"/>
		<path fill="#8B7CC2" d="M35.052,15.971c0,3.601-4.483,4.701-10.134,4.701c-5.651,0-10.109-1.089-10.112-4.701
			c-0.002-3.675,4.472-6.137,10.123-6.137C30.58,9.833,35.052,12.296,35.052,15.971z"/>
		<path fill="#8C7DC2" d="M35.019,15.988c0,3.584-4.469,4.685-10.101,4.685c-5.631,0-10.075-1.09-10.079-4.685
			c-0.002-3.672,4.458-6.133,10.09-6.133S35.019,12.316,35.019,15.988z"/>
		<path fill="#8C7EC3" d="M34.985,16.006c0,3.567-4.455,4.668-10.067,4.668c-5.611,0-10.043-1.09-10.046-4.668
			c-0.002-3.668,4.444-6.129,10.057-6.129S34.985,12.338,34.985,16.006z"/>
		<path fill="#8D7FC3" d="M34.952,16.024c0,3.55-4.441,4.65-10.034,4.65c-5.593,0-10.01-1.09-10.013-4.65
			c-0.002-3.666,4.431-6.126,10.023-6.126S34.952,12.358,34.952,16.024z"/>
		<path fill="#8E80C4" d="M34.919,16.042c0,3.533-4.427,4.634-10,4.634c-5.574,0-9.978-1.09-9.981-4.634
			c-0.002-3.662,4.417-6.121,9.991-6.121S34.919,12.38,34.919,16.042z"/>
		<path fill="#8F81C4" d="M34.887,16.061c0,3.516-4.414,4.617-9.968,4.617s-9.944-1.091-9.947-4.617
			c-0.002-3.66,4.403-6.118,9.957-6.118S34.887,12.4,34.887,16.061z"/>
		<path fill="#9082C4" d="M34.854,16.078c0,3.499-4.399,4.601-9.935,4.601c-5.535,0-9.912-1.092-9.915-4.601
			c-0.002-3.657,4.389-6.114,9.924-6.114S34.854,12.421,34.854,16.078z"/>
		<path fill="#9183C5" d="M34.82,16.096c0,3.482-4.386,4.583-9.901,4.583c-5.515,0-9.878-1.09-9.881-4.583
			c-0.002-3.654,4.375-6.111,9.891-6.111S34.82,12.442,34.82,16.096z"/>
		<path fill="#9284C5" d="M34.787,16.114c0,3.465-4.372,4.566-9.868,4.566s-9.846-1.091-9.849-4.566
			c-0.002-3.651,4.362-6.106,9.858-6.106S34.787,12.463,34.787,16.114z"/>
		<path fill="#9385C6" d="M34.754,16.132c0,3.448-4.357,4.55-9.834,4.55s-9.813-1.092-9.816-4.55
			c-0.002-3.647,4.348-6.103,9.825-6.103C30.405,10.029,34.754,12.484,34.754,16.132z"/>
		<path fill="#9486C6" d="M34.721,16.149c0,3.432-4.344,4.533-9.801,4.533c-5.458,0-9.78-1.092-9.783-4.533
			c-0.002-3.644,4.334-6.098,9.792-6.098C30.387,10.051,34.721,12.506,34.721,16.149z"/>
		<path fill="#9487C7" d="M34.688,16.167c0,3.415-4.329,4.516-9.768,4.516c-5.438,0-9.747-1.092-9.75-4.516
			c-0.002-3.641,4.32-6.094,9.759-6.094S34.688,12.526,34.688,16.167z"/>
		<path fill="#9588C7" d="M34.654,16.186c0,3.398-4.315,4.499-9.734,4.499s-9.715-1.092-9.717-4.499
			c-0.002-3.638,4.307-6.091,9.726-6.091S34.654,12.548,34.654,16.186z"/>
		<path fill="#9688C8" d="M34.621,16.203c0,3.381-4.302,4.483-9.701,4.483c-5.399,0-9.681-1.093-9.684-4.483
			c-0.002-3.635,4.293-6.086,9.692-6.086S34.621,12.568,34.621,16.203z"/>
		<path fill="#9789C8" d="M34.588,16.221c0,3.364-4.287,4.466-9.667,4.466c-5.38,0-9.649-1.093-9.651-4.466
			c-0.002-3.631,4.279-6.083,9.66-6.083C30.309,10.139,34.588,12.59,34.588,16.221z"/>
		<path fill="#988AC9" d="M34.555,16.239c0,3.348-4.273,4.449-9.634,4.449c-5.361,0-9.616-1.093-9.619-4.449
			c-0.001-3.629,4.266-6.079,9.626-6.079C30.29,10.16,34.555,12.61,34.555,16.239z"/>
		<path fill="#998BC9" d="M34.522,16.257c0,3.331-4.26,4.432-9.602,4.432s-9.583-1.093-9.586-4.432
			c-0.001-3.625,4.252-6.075,9.594-6.075S34.522,12.631,34.522,16.257z"/>
		<path fill="#9A8CCA" d="M34.489,16.275c0,3.314-4.246,4.416-9.568,4.416c-5.322,0-9.55-1.094-9.552-4.416
			c-0.002-3.623,4.238-6.071,9.56-6.071S34.489,12.652,34.489,16.275z"/>
		<path fill="#9B8DCA" d="M34.456,16.293c0,3.297-4.232,4.398-9.535,4.398c-5.303,0-9.518-1.093-9.52-4.398
			c-0.001-3.62,4.225-6.067,9.527-6.067S34.456,12.673,34.456,16.293z"/>
		<path fill="#9C8ECA" d="M34.423,16.311c0,3.28-4.218,4.381-9.501,4.381c-5.284,0-9.485-1.094-9.487-4.381
			c-0.001-3.617,4.21-6.064,9.494-6.064C30.212,10.247,34.423,12.694,34.423,16.311z"/>
		<path fill="#9C8FCB" d="M34.39,16.329c0,3.263-4.204,4.364-9.468,4.364c-5.264,0-9.452-1.094-9.454-4.364
			c-0.002-3.614,4.197-6.06,9.461-6.06C30.193,10.27,34.39,12.715,34.39,16.329z"/>
		<path fill="#9D90CB" d="M34.356,16.347c0,3.246-4.189,4.348-9.435,4.348c-5.245,0-9.419-1.094-9.421-4.348
			c-0.001-3.61,4.183-6.056,9.428-6.056C30.174,10.291,34.356,12.736,34.356,16.347z"/>
		<path fill="#9E91CC" d="M34.323,16.365c0,3.229-4.176,4.331-9.401,4.331c-5.225,0-9.386-1.095-9.388-4.331
			c-0.001-3.607,4.169-6.052,9.395-6.052S34.323,12.758,34.323,16.365z"/>
		<path fill="#9F92CC" d="M34.291,16.382c0,3.213-4.163,4.314-9.369,4.314c-5.207,0-9.353-1.094-9.355-4.314
			c-0.002-3.604,4.155-6.048,9.361-6.048S34.291,12.778,34.291,16.382z"/>
		<path fill="#A093CD" d="M34.258,16.4c0,3.196-4.148,4.297-9.336,4.297c-5.186,0-9.32-1.095-9.322-4.297
			c-0.001-3.601,4.142-6.044,9.329-6.044C30.115,10.356,34.258,12.799,34.258,16.4z"/>
		<path fill="#A194CD" d="M34.225,16.418c0,3.179-4.135,4.281-9.302,4.281c-5.167,0-9.287-1.095-9.289-4.281
			c-0.001-3.598,4.128-6.04,9.295-6.04C30.097,10.378,34.225,12.82,34.225,16.418z"/>
		<path fill="#A295CE" d="M34.191,16.436c0,3.162-4.12,4.263-9.269,4.263s-9.255-1.095-9.257-4.263
			c-0.001-3.595,4.114-6.036,9.263-6.036S34.191,12.841,34.191,16.436z"/>
		<path fill="#A396CE" d="M34.158,16.454c0,3.145-4.106,4.247-9.235,4.247c-5.128,0-9.222-1.095-9.223-4.247
			c-0.001-3.592,4.1-6.032,9.229-6.032S34.158,12.862,34.158,16.454z"/>
		<path fill="#A496CF" d="M34.125,16.472c0,3.128-4.093,4.23-9.202,4.23c-5.109,0-9.188-1.096-9.19-4.23
			c-0.001-3.588,4.087-6.028,9.196-6.028S34.125,12.883,34.125,16.472z"/>
		<path fill="#A497CF" d="M34.092,16.49c0,3.111-4.078,4.213-9.168,4.213s-9.156-1.096-9.158-4.213
			c-0.001-3.585,4.073-6.024,9.163-6.024C30.019,10.466,34.092,12.904,34.092,16.49z"/>
		<path fill="#A598CF" d="M34.059,16.508c0,3.095-4.064,4.196-9.135,4.196c-5.071,0-9.124-1.095-9.125-4.196
			c-0.001-3.583,4.059-6.021,9.13-6.021C30,10.487,34.059,12.925,34.059,16.508z"/>
		<path fill="#A699D0" d="M34.025,16.526c0,3.078-4.05,4.179-9.102,4.179c-5.051,0-9.09-1.096-9.092-4.179
			c-0.001-3.58,4.045-6.017,9.097-6.017C29.98,10.509,34.025,12.946,34.025,16.526z"/>
		<path fill="#A79AD0" d="M33.992,16.544c0,3.061-4.036,4.162-9.068,4.162c-5.032,0-9.058-1.096-9.059-4.162
			c-0.001-3.576,4.032-6.013,9.064-6.013S33.992,12.968,33.992,16.544z"/>
		<path fill="#A89BD1" d="M33.96,16.562c0,3.044-4.023,4.146-9.036,4.146s-9.024-1.097-9.026-4.146
			c-0.001-3.573,4.018-6.009,9.031-6.009S33.96,12.988,33.96,16.562z"/>
		<path fill="#A99CD1" d="M33.927,16.58c0,3.027-4.009,4.128-9.002,4.128s-8.992-1.097-8.994-4.128
			c-0.001-3.57,4.004-6.005,8.998-6.005C29.922,10.575,33.927,13.009,33.927,16.58z"/>
		<path fill="#AA9DD2" d="M33.894,16.598c0,3.01-3.995,4.111-8.969,4.111c-4.974,0-8.959-1.097-8.96-4.111
			c-0.001-3.567,3.99-6.001,8.964-6.001C29.903,10.596,33.894,13.03,33.894,16.598z"/>
		<path fill="#AB9ED2" d="M33.859,16.615c0,2.993-3.98,4.095-8.935,4.095s-8.926-1.098-8.927-4.095
			c-0.001-3.564,3.977-5.997,8.932-5.997S33.859,13.051,33.859,16.615z"/>
		<path fill="#AB9FD3" d="M33.827,16.633c0,2.977-3.967,4.078-8.902,4.078s-8.893-1.097-8.895-4.078
			c0-3.561,3.963-5.993,8.898-5.993S33.827,13.072,33.827,16.633z"/>
		<path fill="#ACA0D3" d="M33.794,16.651c0,2.96-3.953,4.062-8.869,4.062c-4.916,0-8.861-1.098-8.862-4.062
			c-0.001-3.558,3.949-5.989,8.865-5.989S33.794,13.093,33.794,16.651z"/>
		<path fill="#ADA1D4" d="M33.761,16.669c0,2.943-3.938,4.044-8.835,4.044s-8.828-1.098-8.829-4.044
			c-0.001-3.555,3.935-5.985,8.832-5.985C29.825,10.684,33.761,13.114,33.761,16.669z"/>
		<path fill="#AEA2D4" d="M33.728,16.687c0,2.927-3.925,4.028-8.802,4.028s-8.795-1.099-8.796-4.028
			c0-3.551,3.922-5.981,8.799-5.981C29.807,10.706,33.728,13.135,33.728,16.687z"/>
		<path fill="#AFA3D5" d="M33.694,16.705c0,2.91-3.911,4.011-8.769,4.011c-4.858,0-8.762-1.098-8.763-4.011
			c-0.001-3.548,3.908-5.977,8.766-5.977C29.787,10.728,33.694,13.156,33.694,16.705z"/>
		<path fill="#B0A4D5" d="M33.661,16.723c0,2.893-3.896,3.994-8.735,3.994c-4.838,0-8.729-1.099-8.73-3.994
			c0-3.545,3.894-5.974,8.733-5.974S33.661,13.178,33.661,16.723z"/>
		<path fill="#B1A5D5" d="M33.628,16.741c0,2.875-3.883,3.977-8.702,3.977c-4.82,0-8.696-1.099-8.697-3.977
			c0-3.542,3.88-5.97,8.7-5.97C29.748,10.771,33.628,13.198,33.628,16.741z"/>
		<path fill="#B2A6D6" d="M33.596,16.758c0,2.859-3.869,3.96-8.669,3.96s-8.664-1.099-8.665-3.96c0-3.539,3.867-5.965,8.667-5.965
			C29.729,10.793,33.596,13.219,33.596,16.758z"/>
		<path fill="#B3A7D6" d="M33.563,16.776c0,2.842-3.855,3.943-8.636,3.943c-4.78,0-8.63-1.099-8.631-3.943
			c0-3.536,3.853-5.962,8.633-5.962C29.71,10.814,33.563,13.24,33.563,16.776z"/>
		<path fill="#B3A8D7" d="M33.529,16.794c0,2.825-3.842,3.926-8.603,3.926c-4.762,0-8.598-1.099-8.599-3.926
			c0-3.533,3.839-5.958,8.601-5.958S33.529,13.261,33.529,16.794z"/>
		<path fill="#B4A9D7" d="M33.496,16.813c0,2.808-3.827,3.91-8.569,3.91s-8.565-1.1-8.565-3.91c0-3.53,3.825-5.955,8.567-5.955
			S33.496,13.282,33.496,16.813z"/>
		<path fill="#B5AAD8" d="M33.463,16.83c0,2.792-3.813,3.893-8.536,3.893s-8.532-1.1-8.532-3.893c0-3.527,3.812-5.95,8.534-5.95
			S33.463,13.303,33.463,16.83z"/>
		<path fill="#B6ABD8" d="M33.43,16.848c0,2.774-3.799,3.875-8.502,3.875s-8.499-1.1-8.5-3.875c0-3.524,3.797-5.946,8.501-5.946
			C29.633,10.902,33.43,13.324,33.43,16.848z"/>
		<path fill="#B7ACD9" d="M33.396,16.866c0,2.757-3.785,3.859-8.469,3.859s-8.466-1.1-8.467-3.859c0-3.521,3.784-5.943,8.468-5.943
			C29.612,10.923,33.396,13.345,33.396,16.866z"/>
		<path fill="#B8ACD9" d="M33.363,16.884c0,2.741-3.771,3.842-8.436,3.842c-4.665,0-8.434-1.101-8.434-3.842
			c0-3.518,3.771-5.938,8.435-5.938C29.594,10.945,33.363,13.366,33.363,16.884z"/>
		<path fill="#B9ADDA" d="M33.33,16.901c0,2.724-3.757,3.826-8.402,3.826c-4.645,0-8.401-1.101-8.401-3.826
			c0-3.514,3.756-5.934,8.402-5.934S33.33,13.388,33.33,16.901z"/>
		<path fill="#BAAEDA" d="M33.298,16.919c0,2.707-3.744,3.809-8.37,3.809s-8.368-1.101-8.368-3.809c0-3.511,3.742-5.931,8.369-5.931
			C29.555,10.989,33.298,13.408,33.298,16.919z"/>
		<path fill="#BAAFDA" d="M33.265,16.938c0,2.69-3.729,3.792-8.336,3.792s-8.335-1.101-8.335-3.792c0-3.508,3.729-5.927,8.336-5.927
			C29.536,11.011,33.265,13.429,33.265,16.938z"/>
		<path fill="#BBB0DB" d="M33.231,16.956c0,2.673-3.716,3.775-8.303,3.775c-4.588,0-8.302-1.101-8.303-3.775
			c0-3.505,3.715-5.923,8.303-5.923C29.516,11.032,33.231,13.45,33.231,16.956z"/>
		<path fill="#BCB1DB" d="M33.198,16.973c0,2.657-3.702,3.758-8.27,3.758s-8.269-1.102-8.269-3.758c0-3.502,3.701-5.918,8.27-5.918
			S33.198,13.471,33.198,16.973z"/>
		<path fill="#BCB1DB" d="M33.165,16.991c0,2.64-3.688,3.741-8.236,3.741s-8.236-1.102-8.236-3.741c0-3.499,3.688-5.915,8.236-5.915
			S33.165,13.492,33.165,16.991z"/>
		<path fill="#BDB2DC" d="M24.928,11.163c4.522,0,8.187,2.393,8.187,5.864c0,2.622-3.665,3.717-8.187,3.717
			s-8.188-1.095-8.188-3.717C16.741,13.556,20.406,11.163,24.928,11.163z"/>
		<path fill="#BEB3DC" d="M24.928,11.249c4.494,0,8.138,2.371,8.138,5.814c0,2.604-3.644,3.692-8.138,3.692
			c-4.495,0-8.138-1.088-8.138-3.692C16.79,13.62,20.433,11.249,24.928,11.249z"/>
		<path fill="#BFB4DD" d="M24.927,11.336c4.467,0,8.089,2.348,8.089,5.763c0,2.585-3.622,3.667-8.089,3.667
			c-4.468,0-8.089-1.082-8.089-3.667C16.838,13.684,20.459,11.336,24.927,11.336z"/>
		<path fill="#C0B5DD" d="M24.927,11.424c4.44,0,8.04,2.324,8.04,5.711c0,2.568-3.6,3.644-8.04,3.644c-4.44,0-8.04-1.075-8.04-3.644
			C16.887,13.748,20.487,11.424,24.927,11.424z"/>
		<path fill="#C1B6DE" d="M24.926,11.51c4.414,0,7.991,2.302,7.991,5.662c0,2.55-3.577,3.619-7.991,3.619
			c-4.413,0-7.991-1.069-7.991-3.619C16.936,13.812,20.513,11.51,24.926,11.51z"/>
		<path fill="#C2B7DE" d="M24.926,11.597c4.386,0,7.941,2.279,7.941,5.61c0,2.532-3.556,3.595-7.941,3.595
			c-4.386,0-7.942-1.063-7.942-3.595C16.984,13.876,20.54,11.597,24.926,11.597z"/>
		<path fill="#C2B8DF" d="M24.925,11.683c4.359,0,7.893,2.257,7.893,5.561c0,2.514-3.534,3.57-7.893,3.57s-7.893-1.056-7.893-3.57
			C17.033,13.94,20.566,11.683,24.925,11.683z"/>
		<path fill="#C3B9DF" d="M24.925,11.771c4.332,0,7.843,2.233,7.843,5.509c0,2.497-3.512,3.545-7.843,3.545
			c-4.333,0-7.844-1.049-7.844-3.545C17.082,14.004,20.593,11.771,24.925,11.771z"/>
		<path fill="#C4BADF" d="M24.924,11.857c4.304,0,7.794,2.211,7.794,5.458c0,2.479-3.49,3.521-7.794,3.521
			c-4.305,0-7.794-1.042-7.794-3.521C17.13,14.068,20.62,11.857,24.924,11.857z"/>
		<path fill="#C5BBE0" d="M24.923,11.943c4.278,0,7.746,2.188,7.746,5.408c0,2.46-3.468,3.496-7.746,3.496
			c-4.277,0-7.745-1.036-7.745-3.496C17.178,14.131,20.646,11.943,24.923,11.943z"/>
		<path fill="#C6BCE0" d="M24.923,12.03c4.25,0,7.697,2.165,7.697,5.357c0,2.442-3.446,3.472-7.697,3.472s-7.697-1.029-7.697-3.472
			C17.227,14.195,20.673,12.03,24.923,12.03z"/>
		<path fill="#C7BDE1" d="M24.923,12.117c4.224,0,7.647,2.143,7.647,5.307c0,2.425-3.424,3.447-7.647,3.447
			c-4.223,0-7.647-1.022-7.647-3.447C17.276,14.26,20.7,12.117,24.923,12.117z"/>
		<path fill="#C8BEE1" d="M24.922,12.204c4.197,0,7.599,2.12,7.599,5.256c0,2.407-3.401,3.423-7.599,3.423
			c-4.195,0-7.598-1.017-7.598-3.423C17.324,14.323,20.727,12.204,24.922,12.204z"/>
		<path fill="#C9BFE2" d="M24.922,12.29c4.169,0,7.549,2.097,7.549,5.206c0,2.389-3.38,3.399-7.549,3.399
			c-4.169,0-7.549-1.01-7.549-3.399C17.373,14.387,20.752,12.29,24.922,12.29z"/>
		<path fill="#C9C0E2" d="M24.921,12.377c4.142,0,7.5,2.074,7.5,5.155c0,2.37-3.358,3.374-7.5,3.374s-7.5-1.004-7.5-3.374
			C17.422,14.451,20.779,12.377,24.921,12.377z"/>
		<path fill="#CAC1E3" d="M24.921,12.464c4.115,0,7.451,2.052,7.451,5.104c0,2.353-3.336,3.35-7.451,3.35
			c-4.115,0-7.451-0.997-7.451-3.35C17.47,14.516,20.806,12.464,24.921,12.464z"/>
		<path fill="#CBC2E3" d="M24.92,12.551c4.087,0,7.402,2.028,7.402,5.053c0,2.335-3.314,3.325-7.402,3.325
			c-4.088,0-7.402-0.99-7.402-3.325C17.519,14.579,20.833,12.551,24.92,12.551z"/>
		<path fill="#CCC3E4" d="M24.92,12.637c4.061,0,7.353,2.006,7.353,5.003c0,2.317-3.292,3.301-7.353,3.301s-7.353-0.983-7.353-3.301
			C17.567,14.643,20.859,12.637,24.92,12.637z"/>
		<path fill="#CDC4E4" d="M24.92,12.724c4.033,0,7.303,1.983,7.303,4.952c0,2.3-3.27,3.276-7.303,3.276
			c-4.034,0-7.304-0.977-7.304-3.276C17.616,14.707,20.886,12.724,24.92,12.724z"/>
		<path fill="#CEC5E4" d="M24.919,12.812c4.007,0,7.255,1.96,7.255,4.9c0,2.282-3.248,3.252-7.255,3.252
			c-4.006,0-7.254-0.97-7.254-3.252C17.665,14.771,20.913,12.812,24.919,12.812z"/>
		<path fill="#CFC6E5" d="M24.918,12.897c3.98,0,7.206,1.938,7.206,4.851c0,2.263-3.226,3.227-7.206,3.227
			c-3.979,0-7.205-0.964-7.205-3.227C17.713,14.835,20.939,12.897,24.918,12.897z"/>
		<path fill="#D0C7E5" d="M24.918,12.984c3.952,0,7.156,1.914,7.156,4.8c0,2.245-3.204,3.203-7.156,3.203
			c-3.953,0-7.156-0.958-7.156-3.203C17.762,14.898,20.965,12.984,24.918,12.984z"/>
		<path fill="#D1C8E6" d="M24.917,13.071c3.925,0,7.108,1.892,7.108,4.749c0,2.228-3.183,3.179-7.108,3.179
			s-7.107-0.951-7.107-3.179C17.81,14.963,20.992,13.071,24.917,13.071z"/>
		<path fill="#D1C9E6" d="M24.917,13.158c3.898,0,7.059,1.869,7.059,4.698c0,2.209-3.16,3.154-7.059,3.154
			c-3.898,0-7.058-0.944-7.058-3.154C17.859,15.027,21.019,13.158,24.917,13.158z"/>
		<path fill="#D2CAE7" d="M24.917,13.245c3.87,0,7.009,1.846,7.009,4.647c0,2.192-3.139,3.13-7.009,3.13
			c-3.871,0-7.01-0.938-7.01-3.13C17.907,15.091,21.046,13.245,24.917,13.245z"/>
		<path fill="#D3CBE7" d="M24.916,13.331c3.844,0,6.96,1.823,6.96,4.597c0,2.174-3.116,3.105-6.96,3.105s-6.96-0.932-6.96-3.105
			C17.956,15.154,21.072,13.331,24.916,13.331z"/>
		<path fill="#D4CCE8" d="M24.915,13.418c3.817,0,6.911,1.8,6.911,4.546c0,2.156-3.094,3.081-6.911,3.081
			c-3.816,0-6.91-0.925-6.91-3.081C18.005,15.218,21.099,13.418,24.915,13.418z"/>
		<path fill="#D5CDE8" d="M24.916,13.505c3.79,0,6.862,1.777,6.862,4.496c0,2.138-3.072,3.056-6.862,3.056S18.054,20.139,18.054,18
			C18.054,15.282,21.126,13.505,24.916,13.505z"/>
		<path fill="#D6CEE8" d="M24.915,13.591c3.762,0,6.813,1.755,6.813,4.445c0,2.12-3.051,3.031-6.813,3.031s-6.813-0.911-6.813-3.031
			C18.102,15.346,21.152,13.591,24.915,13.591z"/>
		<path fill="#D7CFE9" d="M24.914,13.678c3.736,0,6.764,1.732,6.764,4.395c0,2.102-3.028,3.007-6.764,3.007
			c-3.735,0-6.763-0.905-6.763-3.007C18.15,15.41,21.179,13.678,24.914,13.678z"/>
		<path fill="#D8D0E9" d="M24.914,13.765c3.708,0,6.715,1.709,6.715,4.343c0,2.084-3.007,2.982-6.715,2.982
			c-3.709,0-6.715-0.898-6.715-2.982C18.199,15.474,21.205,13.765,24.914,13.765z"/>
		<path fill="#D8D1EA" d="M24.913,13.852c3.682,0,6.666,1.687,6.666,4.293c0,2.066-2.984,2.958-6.666,2.958
			c-3.681,0-6.665-0.892-6.665-2.958C18.248,15.538,21.232,13.852,24.913,13.852z"/>
		<path fill="#D9D2EA" d="M24.912,13.938c3.654,0,6.617,1.664,6.617,4.242c0,2.048-2.963,2.934-6.617,2.934
			c-3.653,0-6.616-0.886-6.616-2.934C18.296,15.602,21.259,13.938,24.912,13.938z"/>
		<path fill="#DAD3EB" d="M24.912,14.024c3.627,0,6.567,1.642,6.567,4.191c0,2.031-2.94,2.91-6.567,2.91s-6.567-0.878-6.567-2.91
			C18.345,15.666,21.285,14.024,24.912,14.024z"/>
		<path fill="#DBD4EB" d="M24.912,14.112c3.6,0,6.518,1.618,6.518,4.141c0,2.013-2.918,2.885-6.518,2.885
			c-3.6,0-6.518-0.872-6.518-2.885C18.394,15.73,21.312,14.112,24.912,14.112z"/>
		<path fill="#DCD5EC" d="M24.911,14.198c3.573,0,6.47,1.596,6.47,4.09c0,1.995-2.896,2.861-6.47,2.861
			c-3.572,0-6.469-0.866-6.469-2.861C18.442,15.794,21.339,14.198,24.911,14.198z"/>
		<path fill="#DDD6EC" d="M24.91,14.285c3.546,0,6.421,1.573,6.421,4.039c0,1.978-2.875,2.836-6.421,2.836
			c-3.545,0-6.42-0.858-6.42-2.836C18.49,15.858,21.365,14.285,24.91,14.285z"/>
		<path fill="#DED7ED" d="M24.91,14.372c3.52,0,6.371,1.55,6.371,3.988c0,1.959-2.852,2.812-6.371,2.812
			c-3.519,0-6.371-0.853-6.371-2.812C18.54,15.922,21.392,14.372,24.91,14.372z"/>
		<path fill="#DFD8ED" d="M24.91,14.459c3.491,0,6.321,1.527,6.321,3.938c0,1.941-2.83,2.787-6.321,2.787
			c-3.492,0-6.322-0.846-6.322-2.787C18.588,15.986,21.418,14.459,24.91,14.459z"/>
		<path fill="#E0D9ED" d="M24.909,14.545c3.465,0,6.273,1.504,6.273,3.887c0,1.923-2.809,2.763-6.273,2.763
			c-3.464,0-6.272-0.84-6.272-2.763C18.637,16.05,21.445,14.545,24.909,14.545z"/>
		<path fill="#E0DAEE" d="M24.909,14.632c3.437,0,6.224,1.481,6.224,3.836c0,1.905-2.787,2.737-6.224,2.737
			s-6.224-0.832-6.224-2.737C18.685,16.113,21.472,14.632,24.909,14.632z"/>
		<path fill="#E1DBEE" d="M24.908,14.719c3.41,0,6.175,1.459,6.175,3.786c0,1.887-2.765,2.713-6.175,2.713
			c-3.41,0-6.174-0.827-6.174-2.713C18.734,16.178,21.499,14.719,24.908,14.719z"/>
		<path fill="#E2DCEF" d="M24.907,14.806c3.384,0,6.126,1.436,6.126,3.735c0,1.869-2.742,2.689-6.126,2.689
			c-3.382,0-6.125-0.82-6.125-2.689C18.782,16.241,21.525,14.806,24.907,14.806z"/>
		<path fill="#E3DDEF" d="M24.907,14.893c3.356,0,6.077,1.413,6.077,3.684c0,1.852-2.721,2.665-6.077,2.665
			c-3.355,0-6.076-0.813-6.076-2.665C18.831,16.306,21.552,14.893,24.907,14.893z"/>
		<path fill="#E4DEF0" d="M24.907,14.979c3.328,0,6.027,1.39,6.027,3.633c0,1.834-2.699,2.641-6.027,2.641
			c-3.329,0-6.028-0.807-6.028-2.641C18.879,16.369,21.578,14.979,24.907,14.979z"/>
		<path fill="#E5DFF0" d="M24.906,15.066c3.303,0,5.979,1.368,5.979,3.583c0,1.815-2.676,2.615-5.979,2.615
			c-3.302,0-5.978-0.8-5.978-2.615C18.929,16.434,21.604,15.066,24.906,15.066z"/>
		<path fill="#E6E0F1" d="M24.906,15.152c3.275,0,5.929,1.345,5.929,3.533c0,1.797-2.654,2.591-5.929,2.591
			c-3.274,0-5.929-0.794-5.929-2.591C18.977,16.497,21.631,15.152,24.906,15.152z"/>
		<path fill="#E7E1F1" d="M24.905,15.239c3.248,0,5.88,1.322,5.88,3.481c0,1.78-2.632,2.566-5.88,2.566
			c-3.247,0-5.88-0.786-5.88-2.566C19.025,16.562,21.658,15.239,24.905,15.239z"/>
		<path fill="#E7E2F2" d="M24.905,15.326c3.22,0,5.832,1.299,5.832,3.431c0,1.762-2.611,2.542-5.832,2.542
			c-3.22,0-5.831-0.78-5.831-2.542C19.074,16.625,21.685,15.326,24.905,15.326z"/>
		<path fill="#E8E3F2" d="M24.904,15.413c3.193,0,5.782,1.276,5.782,3.38c0,1.744-2.589,2.518-5.782,2.518
			c-3.192,0-5.782-0.773-5.782-2.518C19.122,16.689,21.712,15.413,24.904,15.413z"/>
		<path fill="#E9E4F2" d="M24.904,15.5c3.166,0,5.732,1.253,5.732,3.33c0,1.726-2.566,2.493-5.732,2.493s-5.733-0.768-5.733-2.493
			C19.171,16.753,21.738,15.5,24.904,15.5z"/>
		<path fill="#EAE5F3" d="M24.903,15.586c3.14,0,5.685,1.231,5.685,3.279c0,1.708-2.545,2.469-5.685,2.469
			c-3.139,0-5.684-0.761-5.684-2.469C19.22,16.817,21.765,15.586,24.903,15.586z"/>
		<path fill="#EBE6F3" d="M24.903,15.673c3.112,0,5.635,1.208,5.635,3.228c0,1.69-2.523,2.444-5.635,2.444
			c-3.111,0-5.634-0.754-5.634-2.444C19.269,16.881,21.792,15.673,24.903,15.673z"/>
		<path fill="#ECE7F4" d="M24.902,15.76c3.085,0,5.586,1.185,5.586,3.177c0,1.672-2.501,2.42-5.586,2.42
			c-3.084,0-5.585-0.748-5.585-2.42C19.317,16.945,21.818,15.76,24.902,15.76z"/>
		<path fill="#EDE8F4" d="M24.902,15.847c3.058,0,5.537,1.162,5.537,3.127c0,1.654-2.479,2.395-5.537,2.395
			c-3.057,0-5.536-0.741-5.536-2.395C19.366,17.009,21.845,15.847,24.902,15.847z"/>
		<path fill="#EEE9F5" d="M24.901,15.933c3.031,0,5.487,1.14,5.487,3.076c0,1.636-2.456,2.371-5.487,2.371
			c-3.03,0-5.487-0.734-5.487-2.371C19.414,17.073,21.871,15.933,24.901,15.933z"/>
		<path fill="#EFEAF5" d="M24.9,16.02c3.004,0,5.439,1.117,5.439,3.025c0,1.619-2.436,2.347-5.439,2.347
			c-3.002,0-5.438-0.728-5.438-2.347C19.463,17.137,21.898,16.02,24.9,16.02z"/>
		<path fill="#EFEBF6" d="M24.9,16.106c2.977,0,5.39,1.094,5.39,2.975c0,1.601-2.413,2.322-5.39,2.322
			c-2.976,0-5.389-0.721-5.389-2.322C19.511,17.201,21.925,16.106,24.9,16.106z"/>
		<path fill="#F0ECF6" d="M24.9,16.193c2.95,0,5.34,1.071,5.34,2.924c0,1.583-2.391,2.298-5.34,2.298
			c-2.949,0-5.34-0.715-5.34-2.298C19.56,17.265,21.951,16.193,24.9,16.193z"/>
		<path fill="#F1EDF6" d="M24.899,16.28c2.923,0,5.292,1.048,5.292,2.873c0,1.564-2.369,2.273-5.292,2.273
			c-2.921,0-5.291-0.708-5.291-2.273C19.609,17.328,21.978,16.28,24.899,16.28z"/>
		<path fill="#F1EDF6" d="M24.899,16.367c2.895,0,5.243,1.026,5.243,2.823c0,1.547-2.348,2.249-5.243,2.249
			c-2.895,0-5.242-0.702-5.242-2.249C19.657,17.393,22.004,16.367,24.899,16.367z"/>
		<path fill="#F2EEF7" d="M24.898,16.454c2.868,0,5.193,1.002,5.193,2.771c0,1.529-2.325,2.224-5.193,2.224
			c-2.867,0-5.192-0.695-5.192-2.224C19.706,17.456,22.031,16.454,24.898,16.454z"/>
		<path fill="#F3EFF7" d="M24.898,16.541c2.841,0,5.144,0.979,5.144,2.721c0,1.512-2.303,2.2-5.144,2.2
			c-2.84,0-5.144-0.688-5.144-2.2C19.754,17.52,22.058,16.541,24.898,16.541z"/>
		<path fill="#F4F0F8" d="M24.897,16.627c2.814,0,5.095,0.957,5.095,2.671c0,1.493-2.28,2.175-5.095,2.175
			c-2.813,0-5.094-0.682-5.094-2.175C19.803,17.584,22.084,16.627,24.897,16.627z"/>
		<path fill="#F5F1F8" d="M24.897,16.714c2.787,0,5.046,0.934,5.046,2.62c0,1.475-2.26,2.15-5.046,2.15
			c-2.786,0-5.045-0.675-5.045-2.15C19.852,17.648,22.111,16.714,24.897,16.714z"/>
		<path fill="#F6F2F9" d="M24.896,16.801c2.76,0,4.997,0.911,4.997,2.569c0,1.458-2.237,2.126-4.997,2.126
			c-2.759,0-4.996-0.669-4.996-2.126C19.9,17.712,22.138,16.801,24.896,16.801z"/>
		<path fill="#F7F3F9" d="M24.896,16.887c2.733,0,4.948,0.889,4.948,2.518c0,1.44-2.215,2.102-4.948,2.102
			c-2.731,0-4.947-0.662-4.947-2.102C19.949,17.776,22.165,16.887,24.896,16.887z"/>
		<path fill="#F7F4FA" d="M24.896,16.974c2.706,0,4.899,0.866,4.899,2.468c0,1.421-2.193,2.077-4.899,2.077
			c-2.705,0-4.898-0.656-4.898-2.077C19.998,17.84,22.191,16.974,24.896,16.974z"/>
		<path fill="#F8F5FA" d="M24.895,17.061c2.678,0,4.85,0.843,4.85,2.417c0,1.404-2.172,2.053-4.85,2.053
			c-2.677,0-4.849-0.649-4.849-2.053C20.046,17.904,22.218,17.061,24.895,17.061z"/>
		<path fill="#F9F6FA" d="M29.695,19.514c0,1.386-2.149,2.028-4.801,2.028c-2.65,0-4.8-0.643-4.8-2.028
			c0-1.546,2.149-2.366,4.8-2.366C27.546,17.147,29.695,17.968,29.695,19.514z"/>
	</g>
	<g>
		<g>
			<path fill="#001689" d="M49.091,7.364c0-0.521-0.221-1.177-1.011-1.497c-5.026-2.049-13.49-3.999-23.074-3.999
				c-9.588,0-18.051,1.95-23.081,3.999c-0.79,0.32-1.011,0.976-1.011,1.497c0,0-0.05,2.911-0.05,5.133
				c0,2.235,0.05,4.271,0.05,4.271c0,0.523,0.221,1.179,1.011,1.5c5.03,2.043,13.493,4.867,23.081,4.867
				c9.584,0,18.048-2.824,23.074-4.867c0.79-0.321,1.011-0.977,1.011-1.5c0,0,0.053-2.035,0.053-4.271
				C49.144,10.275,49.091,7.364,49.091,7.364z M29.34,20.392c-0.717,0.781-2.437,1.15-4.445,1.15c-2.005,0-3.723-0.368-4.44-1.147
				c-5.721-0.443-9.678-2.027-9.687-6.608c-0.008-4.052,6.151-6.613,14.161-6.613S39.09,9.734,39.09,13.786
				C39.09,18.34,35.081,19.94,29.34,20.392z"/>
		</g>
	</g>
	<g>
		<g>
			<defs>
				<rect id="SVGID_1_" x="4.369" y="6.791" width="42.55" height="9.016"/>
			</defs>
			<clipPath id="SVGID_2_">
				<use xlink:href="#SVGID_1_"  overflow="visible"/>
			</clipPath>
			<defs>
				<filter id="Adobe_OpacityMaskFilter" filterUnits="userSpaceOnUse" x="4.369" y="6.791" width="42.633" height="9.012">
					<feColorMatrix  type="matrix" values="1 0 0 0 0  0 1 0 0 0  0 0 1 0 0  0 0 0 1 0"/>
				</filter>
			</defs>
			<mask maskUnits="userSpaceOnUse" x="4.369" y="6.791" width="42.633" height="9.012" id="SVGID_3_">
				<g filter="url(#Adobe_OpacityMaskFilter)">
					<g>
						<g>
							<defs>
								<rect id="SVGID_4_" x="4.369" y="6.791" width="42.633" height="9.012"/>
							</defs>
							<clipPath id="SVGID_5_" clip-path="url(#SVGID_2_)">
								<use xlink:href="#SVGID_4_"  overflow="visible"/>
							</clipPath>
							<g>
								<defs>
									<rect id="SVGID_6_" x="4.369" y="6.791" width="42.633" height="9.012"/>
								</defs>
								<clipPath id="SVGID_7_" clip-path="url(#SVGID_5_)">
									<use xlink:href="#SVGID_6_"  overflow="visible"/>
								</clipPath>
								<g transform="matrix(1 0 0 1 0 0)" clip-path="url(#SVGID_7_)">
									
										<image overflow="visible" width="1476" height="312" xlink:href="FC562397.jpg"  transform="matrix(0.0289 0 0 0.0289 4.3691 6.791)">
									</image>
								</g>
							</g>
						</g>
					</g>
				</g>
			</mask>
			<g clip-path="url(#SVGID_2_)" mask="url(#SVGID_3_)">
				<g>
					<defs>
						<rect id="SVGID_8_" x="4.369" y="6.791" width="42.55" height="9.012"/>
					</defs>
					<clipPath id="SVGID_9_">
						<use xlink:href="#SVGID_8_"  overflow="visible"/>
					</clipPath>
					<polyline clip-path="url(#SVGID_9_)" fill="#001689" points="4.369,6.791 47.002,6.791 47.002,15.803 4.369,15.803 
						4.369,6.791 					"/>
				</g>
			</g>
			<g clip-path="url(#SVGID_2_)">
				<defs>
					<rect id="SVGID_10_" x="4.63" y="7.052" width="41.346" height="7.812"/>
				</defs>
				<clipPath id="SVGID_11_">
					<use xlink:href="#SVGID_10_"  overflow="visible"/>
				</clipPath>
				<g clip-path="url(#SVGID_11_)">
					<defs>
						<rect id="SVGID_12_" x="4.63" y="7.052" width="41.346" height="7.812"/>
					</defs>
					<clipPath id="SVGID_13_">
						<use xlink:href="#SVGID_12_"  overflow="visible"/>
					</clipPath>
				</g>
			</g>
		</g>
	</g>
	<g>
		<g>
			<g>
				<path fill="#FFFFFF" d="M24.412,7.333h-1.571v3.546c-0.508-0.768-1.063-1.437-1.632-2.013c-0.613-0.621-1.277-1.224-1.735-1.533
					h-1.32v7.273h1.577V9.621c1.333,1.15,2.679,2.908,3.269,4.988c0,0,0.005,0,0.008-0.003h1.405V7.333z"/>
				<path fill="#FFFFFF" d="M38.809,7.333H37.24v3.546c-0.511-0.768-1.064-1.437-1.634-2.013c-0.618-0.621-1.278-1.224-1.737-1.533
					h-1.32v7.273h1.579V9.621c1.33,1.15,2.678,2.908,3.268,4.988c0,0,0.003,0,0.01-0.003h1.403V7.333z"/>
				<g>
					<path fill="#FFFFFF" d="M42.662,13.474c-1.235-0.048-1.782-1.104-1.882-1.906l0.002-0.003l5.104-0.007
						c0.037-0.221,0.078-0.553,0.076-0.852c-0.01-0.786-0.12-1.645-0.742-2.483c-0.74-0.997-1.813-1.117-2.555-1.117
						c-0.938,0-1.755,0.342-2.354,0.942c-0.688,0.692-1.073,1.731-1.087,2.924c-0.011,1.212,0.29,2.315,1.021,3.04
						c0.6,0.598,1.477,0.941,2.519,0.874c0.71-0.046,1.998-0.206,3.029-1.657l-1.502-0.354
						C43.776,13.406,43.173,13.494,42.662,13.474z M40.839,10.141c0.229-1.226,1.255-1.664,1.866-1.664
						c0.393,0,0.888,0.148,1.208,0.449c0.447,0.422,0.533,0.97,0.553,1.229l0.007,0.159h-0.191l-3.263,0.002h-0.212L40.839,10.141z"
						/>
				</g>
				<path fill="#FFFFFF" d="M32.165,10.971c0,2.146-1.646,3.886-3.682,3.886c-2.03,0-3.678-1.74-3.678-3.886
					c0-2.148,1.647-3.889,3.678-3.889C30.519,7.082,32.165,8.822,32.165,10.971z M28.483,8.508c-1.226,0-2.223,1.103-2.223,2.463
					c0,1.357,0.997,2.462,2.223,2.462c1.228,0,2.223-1.104,2.223-2.462C30.706,9.61,29.711,8.508,28.483,8.508z"/>
				<path fill="#FFFFFF" d="M6.777,7.105c-0.998,0-1.855,0.115-2.16,0.175C4.7,7.572,4.734,8.257,4.734,10.976
					c0,2.72-0.054,3.463-0.081,3.704c0.192,0.074,1.022,0.187,1.868,0.182c1.614-0.009,4.528-0.699,4.587-4.014
					C11.166,7.473,8.154,7.106,6.777,7.105z M6.762,13.471c-0.17-0.002-0.325-0.011-0.462-0.026V8.511
					c0.173-0.008,0.377-0.015,0.595-0.017c0.793-0.007,2.704,0.311,2.704,2.468C9.599,13.12,7.736,13.478,6.762,13.471z"/>
				<g>
					<path fill="#FFFFFF" d="M15.119,7.333h-1.537c-1.666,1.809-2.517,4.622-2.746,7.273h1.599c0.041-0.535,0.108-1.065,0.204-1.592
						h3.354c0.097,0.526,0.164,1.057,0.207,1.592h1.65C17.618,11.955,16.789,9.142,15.119,7.333z M12.951,11.679
						c0.312-1.086,0.76-2.113,1.359-3.021c0.598,0.907,1.049,1.935,1.363,3.021H12.951z"/>
				</g>
			</g>
		</g>
		<path fill="#EE3124" d="M24.917,21.568c-7.983,0-14.223-4.545-13.547-5.22c0.618-0.618,5.393,3.119,13.547,3.119
			c8.151,0,12.929-3.737,13.544-3.119C39.136,17.023,32.896,21.568,24.917,21.568z"/>
		<g>
			<g>
				<path fill="#FFFFFF" d="M49.848,7.188c0-1.042-0.353-1.61-1.503-2.111c-4.488-1.963-12.896-4.7-23.34-4.7
					c-10.45,0-18.858,2.737-23.348,4.7C0.51,5.577,0.155,6.146,0.155,7.188c0,0-0.155,3.086-0.155,5.309
					c0,2.234,0.155,4.512,0.155,4.512c0,1.036,0.354,1.465,1.502,1.968c4.489,1.963,12.897,5.648,23.348,5.648
					c10.444,0,18.852-3.686,23.34-5.648c1.15-0.503,1.503-0.932,1.503-1.968c0,0,0.152-2.277,0.152-4.512
					C50,10.273,49.848,7.188,49.848,7.188z M49.09,16.766c0,0.523-0.222,1.179-1.011,1.5c-5.026,2.044-13.491,4.867-23.074,4.867
					c-9.589,0-18.052-2.823-23.081-4.867c-0.79-0.321-1.012-0.977-1.012-1.5c0,0-0.05-2.035-0.05-4.27
					c0-2.223,0.05-5.134,0.05-5.134c0-0.521,0.222-1.177,1.012-1.496c5.029-2.05,13.492-3.999,23.081-3.999
					c9.583,0,18.048,1.949,23.074,3.999c0.789,0.319,1.011,0.975,1.011,1.496c0,0,0.052,2.911,0.052,5.134
					C49.142,14.73,49.09,16.766,49.09,16.766z"/>
			</g>
		</g>
	</g>
</g>
</svg>
