<?xml version="1.0" encoding="utf-8"?>
<!-- Generator: Adobe Illustrator 16.0.3, SVG Export Plug-In . SVG Version: 6.00 Build 0)  -->
<!DOCTYPE svg PUBLIC "-//W3C//DTD SVG 1.1//EN" "http://www.w3.org/Graphics/SVG/1.1/DTD/svg11.dtd">
<svg version="1.1" id="Layer_1" xmlns="http://www.w3.org/2000/svg" xmlns:xlink="http://www.w3.org/1999/xlink" x="0px" y="0px"
	 width="65.667px" height="38px" viewBox="2.833 15.833 65.667 38" enable-background="new 2.833 15.833 65.667 38"
	 xml:space="preserve">
<g>
	<g>
		<path fill-rule="evenodd" clip-rule="evenodd" fill="#231F20" d="M8.452,17.004v10.479c1.598-1.907,3.509-2.858,5.726-2.858
			c1.137,0,2.167,0.213,3.084,0.649c0.917,0.434,1.603,0.982,2.069,1.648c0.466,0.671,0.787,1.421,0.954,2.233
			c0.167,0.818,0.255,2.082,0.255,3.795v11.204h-4.951V34.067c0-2.013-0.094-3.273-0.278-3.814
			c-0.193-0.536-0.524-0.963-1.001-1.289c-0.475-0.312-1.074-0.477-1.791-0.477c-0.818,0-1.556,0.21-2.202,0.616
			c-0.651,0.401-1.12,1.021-1.413,1.842c-0.305,0.82-0.458,2.035-0.452,3.646l-0.006,9.563H3.5v-27.15H8.452z"/>
		<path fill-rule="evenodd" clip-rule="evenodd" fill="#231F20" d="M27.967,17.004v10.479c1.593-1.907,3.51-2.858,5.725-2.858
			c1.139,0,2.162,0.213,3.084,0.649c0.918,0.434,1.605,0.982,2.072,1.648c0.463,0.671,0.775,1.421,0.949,2.233
			c0.17,0.818,0.258,2.082,0.258,3.795v11.204h-4.951V34.067c0-2.013-0.093-3.273-0.279-3.814c-0.19-0.536-0.525-0.963-1-1.289
			c-0.47-0.312-1.076-0.477-1.79-0.477c-0.819,0-1.557,0.21-2.198,0.616c-0.65,0.401-1.115,1.021-1.421,1.842
			c-0.299,0.82-0.449,2.035-0.449,3.646v9.563h-4.953v-27.15H27.967z"/>
	</g>
	<g>
		<polygon fill-rule="evenodd" clip-rule="evenodd" fill="#231F20" points="3.511,52.571 3.511,47.097 4.174,47.097 4.174,49.341 
			6.755,49.341 6.755,47.097 7.416,47.097 7.416,52.571 6.755,52.571 6.755,49.991 4.174,49.991 4.174,52.571 		"/>
		<path fill-rule="evenodd" clip-rule="evenodd" fill="#231F20" d="M10.862,51.29l0.633,0.09c-0.099,0.399-0.282,0.716-0.55,0.942
			c-0.269,0.22-0.613,0.342-1.035,0.342c-0.531,0-0.947-0.182-1.254-0.546c-0.304-0.354-0.467-0.857-0.467-1.496
			c0-0.673,0.163-1.182,0.471-1.556c0.308-0.364,0.72-0.554,1.214-0.554c0.482,0,0.872,0.175,1.178,0.541
			c0.309,0.354,0.466,0.873,0.466,1.519c-0.005,0.04,0,0.103-0.005,0.185h-2.69c0.021,0.438,0.14,0.768,0.336,1.002
			c0.202,0.232,0.454,0.347,0.755,0.347c0.22,0,0.417-0.069,0.575-0.204C10.643,51.779,10.771,51.569,10.862,51.29 M8.858,50.198
			h2.011c-0.022-0.324-0.097-0.578-0.226-0.743c-0.198-0.262-0.448-0.389-0.762-0.389c-0.278,0-0.511,0.104-0.702,0.302
			C8.985,49.582,8.88,49.856,8.858,50.198z"/>
		<path fill-rule="evenodd" clip-rule="evenodd" fill="#231F20" d="M14.577,52.075c-0.221,0.218-0.442,0.369-0.651,0.452
			c-0.208,0.092-0.43,0.137-0.667,0.137c-0.404,0-0.706-0.117-0.915-0.321c-0.213-0.225-0.321-0.481-0.324-0.818
			c0-0.196,0.039-0.371,0.122-0.533c0.08-0.17,0.185-0.297,0.313-0.387c0.135-0.095,0.278-0.172,0.441-0.212
			c0.116-0.042,0.298-0.072,0.542-0.104c0.499-0.064,0.853-0.147,1.092-0.242c0.005-0.085,0.005-0.146,0.005-0.172
			c0-0.265-0.063-0.471-0.18-0.576c-0.152-0.157-0.384-0.231-0.69-0.231c-0.286,0-0.501,0.053-0.633,0.172
			c-0.136,0.107-0.247,0.312-0.303,0.584l-0.599-0.096c0.05-0.271,0.14-0.503,0.266-0.673c0.121-0.187,0.302-0.312,0.536-0.401
			c0.237-0.103,0.506-0.14,0.813-0.14c0.314,0,0.563,0.037,0.754,0.125c0.192,0.079,0.338,0.177,0.426,0.294
			c0.092,0.122,0.162,0.267,0.191,0.461c0.019,0.11,0.035,0.322,0.035,0.619v0.895c0,0.626,0.006,1.018,0.036,1.189
			c0.021,0.167,0.081,0.319,0.151,0.476h-0.634C14.636,52.425,14.6,52.263,14.577,52.075 M14.531,50.572
			c-0.222,0.103-0.559,0.185-0.995,0.262c-0.255,0.035-0.435,0.082-0.54,0.14c-0.1,0.05-0.187,0.114-0.233,0.207
			c-0.064,0.1-0.092,0.204-0.092,0.321c0,0.178,0.062,0.329,0.19,0.446c0.124,0.122,0.298,0.18,0.541,0.18
			c0.232,0,0.442-0.058,0.627-0.164c0.18-0.115,0.314-0.272,0.401-0.469c0.065-0.157,0.1-0.372,0.1-0.674V50.572z"/>
		<path fill-rule="evenodd" clip-rule="evenodd" fill="#231F20" d="M18.394,52.571V52.07c-0.226,0.39-0.563,0.594-1.004,0.594
			c-0.291,0-0.552-0.093-0.792-0.267c-0.238-0.177-0.429-0.414-0.563-0.729c-0.134-0.312-0.197-0.678-0.197-1.079
			c0-0.392,0.059-0.756,0.175-1.075c0.127-0.321,0.307-0.57,0.547-0.745c0.237-0.167,0.506-0.257,0.807-0.257
			c0.214,0,0.406,0.053,0.576,0.152c0.176,0.1,0.308,0.242,0.419,0.394v-1.962h0.603v5.475H18.394 M16.472,50.59
			c-0.006,0.504,0.093,0.895,0.283,1.132c0.205,0.262,0.426,0.384,0.694,0.384c0.266,0,0.493-0.114,0.68-0.356
			c0.186-0.247,0.277-0.613,0.277-1.097c0-0.552-0.098-0.945-0.285-1.204c-0.186-0.255-0.422-0.382-0.703-0.382
			c-0.267,0-0.494,0.127-0.68,0.374C16.559,49.683,16.466,50.063,16.472,50.59z"/>
		<polygon fill-rule="evenodd" clip-rule="evenodd" fill="#231F20" points="19.993,52.571 19.993,47.097 20.645,47.097 
			20.645,49.341 23.23,49.341 23.23,47.097 23.893,47.097 23.893,52.571 23.23,52.571 23.23,49.991 20.645,49.991 20.645,52.571 		
			"/>
		<path fill-rule="evenodd" clip-rule="evenodd" fill="#231F20" d="M27.239,52.571v-0.58c-0.278,0.438-0.661,0.673-1.145,0.673
			c-0.214,0-0.414-0.045-0.597-0.137c-0.181-0.098-0.32-0.205-0.408-0.332c-0.094-0.147-0.152-0.31-0.191-0.504
			c-0.025-0.137-0.036-0.349-0.036-0.638v-2.451h0.609v2.201c0,0.354,0.019,0.589,0.042,0.711c0.035,0.177,0.115,0.307,0.246,0.409
			c0.121,0.112,0.279,0.151,0.458,0.151c0.18,0,0.353-0.052,0.516-0.156c0.157-0.098,0.274-0.239,0.343-0.417
			c0.065-0.18,0.1-0.438,0.1-0.775v-2.124h0.604v3.969H27.239z"/>
		<path fill-rule="evenodd" clip-rule="evenodd" fill="#231F20" d="M28.704,52.571v-3.969h0.555v0.568
			c0.259-0.437,0.649-0.658,1.148-0.658c0.211,0,0.419,0.037,0.594,0.125c0.186,0.097,0.325,0.202,0.413,0.334
			c0.087,0.147,0.151,0.309,0.187,0.504c0.028,0.134,0.039,0.347,0.039,0.655v2.44h-0.615v-2.413c0-0.271-0.023-0.476-0.07-0.608
			c-0.045-0.146-0.128-0.252-0.252-0.326c-0.12-0.095-0.267-0.127-0.426-0.127c-0.263,0-0.491,0.084-0.674,0.271
			c-0.193,0.182-0.287,0.523-0.275,1.037l-0.011,2.166H28.704z"/>
		<path fill-rule="evenodd" clip-rule="evenodd" fill="#231F20" d="M33.872,51.964l0.087,0.603c-0.168,0.033-0.322,0.053-0.46,0.053
			c-0.222,0-0.396-0.032-0.517-0.117c-0.124-0.077-0.209-0.175-0.262-0.302c-0.04-0.13-0.069-0.396-0.069-0.798v-2.283h-0.455
			v-0.517h0.455v-0.978l0.61-0.406l-0.006,1.384h0.617v0.517h-0.617v2.323c0,0.197,0.011,0.316,0.035,0.374
			c0.018,0.05,0.06,0.103,0.105,0.132c0.06,0.022,0.115,0.043,0.216,0.043C33.674,51.991,33.76,51.991,33.872,51.964z"/>
		<path fill-rule="evenodd" clip-rule="evenodd" fill="#231F20" d="M36.902,51.29l0.629,0.09c-0.098,0.399-0.283,0.716-0.551,0.942
			c-0.268,0.22-0.611,0.342-1.029,0.342c-0.523,0-0.946-0.182-1.255-0.546c-0.307-0.354-0.465-0.857-0.465-1.496
			c0-0.673,0.158-1.182,0.471-1.556c0.308-0.364,0.714-0.554,1.216-0.554c0.48,0,0.871,0.175,1.184,0.541
			c0.297,0.354,0.453,0.873,0.453,1.519c0,0.04-0.004,0.103-0.004,0.185h-2.69c0.029,0.438,0.139,0.768,0.337,1.002
			c0.203,0.232,0.451,0.347,0.754,0.347c0.223,0,0.418-0.069,0.572-0.204C36.684,51.779,36.811,51.569,36.902,51.29 M34.9,50.198
			h2.01c-0.027-0.324-0.104-0.578-0.232-0.743c-0.195-0.262-0.449-0.389-0.756-0.389c-0.278,0-0.518,0.104-0.701,0.302
			C35.021,49.582,34.918,49.856,34.9,50.198z"/>
		<path fill-rule="evenodd" clip-rule="evenodd" fill="#231F20" d="M38.26,52.571v-3.969h0.551v0.596
			c0.139-0.279,0.266-0.456,0.389-0.559c0.117-0.09,0.252-0.127,0.391-0.127c0.207,0,0.418,0.077,0.629,0.222l-0.211,0.629
			c-0.15-0.107-0.301-0.149-0.447-0.149c-0.133,0-0.25,0.037-0.361,0.127c-0.102,0.09-0.184,0.209-0.229,0.374
			c-0.066,0.227-0.1,0.496-0.1,0.775v2.081H38.26z"/>
	</g>
	<path fill-rule="evenodd" clip-rule="evenodd" fill="#FFFFFF" stroke="#FFFFFF" stroke-width="1.02" stroke-linejoin="bevel" d="
		M46.383,37.017c0-5.42,4.393-9.818,9.811-9.818s9.811,4.398,9.811,9.818c0,5.413-4.393,9.806-9.811,9.806
		S46.383,42.43,46.383,37.017z"/>
	<path fill-rule="evenodd" clip-rule="evenodd" fill="#D71920" d="M67.834,36.683c0,6.585-5.342,11.92-11.93,11.92
		c-6.592,0-11.934-5.335-11.934-11.92c0-6.595,5.342-11.932,11.934-11.932C62.492,24.751,67.834,30.088,67.834,36.683z"/>
	<g>
		<g>
			<path fill-rule="evenodd" clip-rule="evenodd" fill="#FFFFFF" d="M47.9,33.107v5.482c0,2.114,1.172,3.057,2.813,3.057
				c1.156,0,2.047-0.509,2.541-1.391h0.021v1.166h2.094v-8.314h-2.18v4.802c0,1.481-0.979,1.905-1.686,1.905
				c-0.682,0-1.43-0.274-1.43-1.539v-5.168H47.9z"/>
			<path fill-rule="evenodd" clip-rule="evenodd" fill="#FFFFFF" d="M58.75,35.798c0.059-0.472,0.246-1.155,1.35-1.155
				c0.551,0,1.436,0.048,1.436,0.976c0,0.404-0.346,0.646-1.273,0.733c-2.086,0.161-3.875,0.952-3.875,2.869
				c0,1.71,1.264,2.426,2.521,2.426c1.482,0,2.191-0.693,2.688-1.209c0.043,0.461,0.072,0.586,0.199,0.984h2.344v-0.331
				c-0.262-0.098-0.471-0.316-0.471-1.276v-4.503c0-2.058-2.133-2.414-3.309-2.414c-1.709,0-3.469,0.356-3.707,2.9H58.75z
				 M61.535,37.378v1.06c0,1.01-0.994,1.65-1.955,1.65c-0.436,0-1.016-0.239-1.016-1.007c0-0.9,0.662-1.122,1.48-1.254
				C60.941,37.695,61.311,37.548,61.535,37.378z"/>
		</g>
	</g>
</g>
</svg>
