<?xml version="1.0" encoding="utf-8"?>
<!-- Generator: Adobe Illustrator 16.0.3, SVG Export Plug-In . SVG Version: 6.00 Build 0)  -->
<!DOCTYPE svg PUBLIC "-//W3C//DTD SVG 1.1//EN" "http://www.w3.org/Graphics/SVG/1.1/DTD/svg11.dtd">
<svg version="1.1" id="Layer_4" xmlns="http://www.w3.org/2000/svg" xmlns:xlink="http://www.w3.org/1999/xlink" x="0px" y="0px"
	 width="200.202px" height="90.313px" viewBox="0 0 200.202 90.313" enable-background="new 0 0 200.202 90.313"
	 xml:space="preserve">
<g>
	<path fill-rule="evenodd" clip-rule="evenodd" fill="#E31837" d="M10.312,64.204c1.754,0,2.021,0.996,1.199,2.571
		c-0.277,0.571-0.867,1.424-1.825,1.98c-0.581,0.343-1.19,0.458-1.865,0.488H3.367l0.67-1.336H8.4
		c0.942,0.013,1.605-0.498,1.917-1.115c0.47-0.897,0.175-1.259-0.636-1.259h-4.43l0.67-1.33H10.312z M14.093,56.938l-0.355-0.609
		l3.922-1.936l0.87-1.674l-5.35,2.691l-1.454-2.539l-0.851,1.684l1.509,2.382H9.646L8.976,58.24h6.73l0.662-1.303H14.093z
		 M14.495,47.461l1.599-3.156c0.852-1.665,2.328-1.967,2.9-1.967c0.751,0,1.215,0.351,1.113,0.969
		c0.509-0.521,0.854-0.795,2.107-0.795c0.985,0,1.233,0,1.491-0.271h0.176l-0.749,1.435c-0.363,0.093-0.728,0.149-1.425,0.149
		c-0.916,0-1.301,0.04-1.792,1.01l-0.689,1.355h2.621l-0.639,1.271H14.495z M18.879,44.662c0.338-0.689,0.272-1.019-0.406-1.019
		c-0.35-0.008-0.945,0.144-1.343,0.915l-0.837,1.628l1.804,0.004L18.879,44.662z M27.21,35.701l-0.697,1.385l-5.584-2.241
		l0.76-1.508l7.857-2.184l-0.732,1.411l-1.59,0.405l-1.173,2.3L27.21,35.701z M25.064,34.919l0.816-1.584l-3.055,0.769l-0.007,0.024
		L25.064,34.919z M26.203,24.516l-0.663,1.299l6.723,0.02l0.666-1.311L26.203,24.516z M35.801,14.907l-0.023,0.017l-5.939,2.478
		l-0.697,1.371h6.717l0.631-1.219h-4.792l0.004-0.02l6.111-2.539l0.646-1.304l-6.722-0.004l-0.612,1.214L35.801,14.907z
		 M37.07,3.243l-2.354,4.591h6.73l2.426-4.727h-1.2l-1.757,3.457l-1.747-0.006l1.558-3.032h-1.186l-1.565,3.032H36.57l1.697-3.314
		H37.07z"/>
	<path fill="#06357A" d="M117.094,42.367c-0.297,1.493-1.074,4.613-2.745,7.011c-2.237,3.178-6.362,5.316-9.585,4.969
		c-1.803-0.195-3.157-0.89-4.023-2.063c-1.008-1.366-1.276-3.316-0.797-5.795c0.974-5.043,4.434-18.834,6.422-23.71
		c2.095-5.134,4.958-6.338,9.197-6.684c0.271-0.021,0.53-0.031,0.779-0.031c3.518,0,5.617,2.085,5.617,5.578
		c0,1.929-0.682,4.561-1.145,6.127h17.093c0.557-2.615,2.199-11.201,0.64-15.004c-1.724-4.217-4.326-10.588-17.137-10.588
		c-1.038,0-2.138,0.043-3.27,0.128C102.1,3.522,93.471,9.32,88.361,22.317c-4.205,10.666-4.49,11.701-5.339,14.774
		c-0.223,0.809-0.483,1.754-0.862,3.044c-3.187,10.954-2.863,18.25,0.988,22.307c5.536,5.839,10.826,6.305,17.167,6.305
		c10.719,0,18.821-3.025,24.768-9.25c6.254-6.544,7.178-9.792,8.069-12.933l0.046-0.159c0.493-1.718,0.807-3.126,0.985-4.038
		H117.094z"/>
	<path fill="#06357A" d="M48.574,4.737l-33.09,63.405h18.999l4.717-8.53h18.161l0.775,8.218h18.037L71.325,4.737H48.574z
		 M46.424,46.541l8.311-15.021l1.406,15.024L46.424,46.541z"/>
	<path fill="#06357A" d="M196.819,12.765c-1.726-4.216-4.334-10.587-17.139-10.587c-1.037,0-2.137,0.043-3.269,0.128
		c-16.045,1.216-24.672,7.014-29.776,20.011c-4.204,10.657-4.49,11.693-5.341,14.768c-0.224,0.81-0.485,1.758-0.866,3.051
		c-3.185,10.954-2.862,18.25,0.989,22.303c5.538,5.842,10.826,6.308,17.165,6.308c10.723,0,18.825-3.025,24.773-9.251
		c6.264-6.56,7.183-9.81,8.07-12.953l0.038-0.136c0.496-1.72,0.811-3.128,0.991-4.041h-17.092c-0.297,1.493-1.077,4.613-2.742,7.011
		c-2.239,3.178-6.363,5.317-9.587,4.969c-1.803-0.195-3.157-0.889-4.022-2.062c-1.01-1.366-1.278-3.316-0.8-5.795
		c0.846-4.371,4.324-18.563,6.426-23.711c2.09-5.133,4.953-6.338,9.191-6.684c0.271-0.021,0.53-0.031,0.779-0.031
		c3.518,0,5.617,2.085,5.617,5.578c0,1.929-0.682,4.561-1.145,6.127h17.092C196.731,25.155,198.375,16.567,196.819,12.765z"/>
	<rect x="2.857" y="73.061" fill="#E31837" width="193.298" height="1"/>
	<g>
		<path fill="#06357A" d="M10.138,78.503v1.651H7.391v7.72H5.478v-7.72H2.73v-1.651H10.138z"/>
		<path fill="#06357A" d="M11.234,87.874v-9.371h1.912v3.564h3.529v-3.564h1.913v9.371h-1.913v-4.189h-3.529v4.189H11.234z"/>
		<path fill="#06357A" d="M27.217,80.172h-4.846v2h4.448v1.616h-4.448v2.399h5.069v1.687h-6.947v-9.354h6.724V80.172z"/>
		<path fill="#06357A" d="M33.335,79.485c0.736-0.771,1.674-1.156,2.813-1.156c1.522,0,2.636,0.518,3.34,1.552
			c0.389,0.582,0.598,1.165,0.627,1.752h-1.913c-0.121-0.452-0.277-0.791-0.467-1.021c-0.34-0.409-0.843-0.613-1.51-0.613
			c-0.681,0-1.216,0.287-1.608,0.865c-0.393,0.576-0.588,1.391-0.588,2.445c0,1.054,0.206,1.845,0.619,2.368
			c0.413,0.526,0.938,0.789,1.573,0.789c0.652,0,1.149-0.226,1.492-0.678c0.189-0.243,0.346-0.608,0.471-1.096h1.913
			c-0.164,1.02-0.583,1.848-1.257,2.484c-0.673,0.639-1.535,0.958-2.588,0.958c-1.302,0-2.325-0.432-3.07-1.297
			c-0.746-0.867-1.118-2.059-1.118-3.571C32.063,81.63,32.487,80.372,33.335,79.485z"/>
		<path fill="#06357A" d="M41.636,87.874v-9.371h1.912v3.564h3.53v-3.564h1.912v9.371h-1.912v-4.189h-3.53v4.189H41.636z"/>
		<path fill="#06357A" d="M53.449,78.503h2.172l3.234,9.371H56.78l-0.603-1.93h-3.364l-0.622,1.93h-2.01L53.449,78.503z
			 M53.334,84.327h2.338l-1.151-3.682L53.334,84.327z"/>
		<path fill="#06357A" d="M66.119,78.503h2.745v9.371h-1.773v-6.339c0-0.183,0.002-0.438,0.006-0.766
			c0.005-0.328,0.007-0.582,0.007-0.761l-1.738,7.865h-1.863l-1.726-7.865c0,0.179,0.001,0.433,0.006,0.761
			c0.004,0.328,0.006,0.583,0.006,0.766v6.339h-1.773v-9.371h2.777l1.669,7.367L66.119,78.503z"/>
		<path fill="#06357A" d="M77.462,79.498c0.28,0.397,0.42,0.874,0.42,1.428c0,0.572-0.139,1.03-0.417,1.376
			c-0.156,0.195-0.386,0.374-0.689,0.532c0.464,0.177,0.813,0.452,1.049,0.828c0.235,0.379,0.354,0.837,0.354,1.378
			c0,0.557-0.136,1.055-0.407,1.495c-0.174,0.294-0.39,0.542-0.649,0.739c-0.292,0.23-0.637,0.387-1.034,0.472
			s-0.829,0.128-1.294,0.128h-4.126v-9.371h4.423C76.206,78.521,76.996,78.851,77.462,79.498z M72.492,80.12v2.068h2.214
			c0.396,0,0.717-0.078,0.963-0.232c0.247-0.154,0.37-0.43,0.37-0.823c0-0.439-0.163-0.726-0.489-0.867
			c-0.281-0.098-0.64-0.146-1.076-0.146H72.492z M72.492,83.736v2.521h2.235c0.399,0,0.71-0.057,0.933-0.168
			c0.403-0.204,0.605-0.598,0.605-1.18c0-0.491-0.196-0.83-0.587-1.013c-0.218-0.104-0.525-0.157-0.92-0.161H72.492z"/>
		<path fill="#06357A" d="M86.598,80.172h-4.846v2H86.2v1.616h-4.448v2.399h5.069v1.687h-6.947v-9.354h6.724V80.172z"/>
		<path fill="#06357A" d="M94.175,78.744c0.338,0.147,0.624,0.365,0.858,0.654c0.194,0.236,0.348,0.497,0.461,0.786
			c0.113,0.287,0.171,0.615,0.171,0.982c0,0.446-0.11,0.883-0.33,1.311c-0.218,0.431-0.58,0.732-1.084,0.911
			c0.419,0.174,0.716,0.422,0.891,0.741c0.174,0.319,0.262,0.809,0.262,1.467v0.633c0,0.428,0.018,0.719,0.053,0.873
			c0.052,0.241,0.174,0.42,0.365,0.535v0.236h-2.113c-0.059-0.208-0.1-0.376-0.124-0.504c-0.05-0.263-0.077-0.532-0.081-0.811
			l-0.013-0.874c-0.008-0.598-0.108-0.997-0.304-1.197c-0.194-0.2-0.559-0.3-1.092-0.3h-1.873v3.686h-1.878v-9.371h4.385
			C93.355,78.516,93.837,78.597,94.175,78.744z M90.222,80.12v2.521h2.063c0.409,0,0.717-0.052,0.923-0.151
			c0.362-0.179,0.543-0.533,0.543-1.059c0-0.567-0.175-0.95-0.526-1.146c-0.197-0.111-0.492-0.165-0.887-0.165H90.222z"/>
		<path fill="#06357A" d="M108.082,87.042c-0.692,0.729-1.693,1.093-3.001,1.093c-1.31,0-2.311-0.364-3.002-1.093
			c-0.928-0.894-1.392-2.18-1.392-3.862c0-1.715,0.464-3.003,1.392-3.861c0.691-0.73,1.692-1.094,3.002-1.094
			c1.308,0,2.309,0.363,3.001,1.094c0.924,0.858,1.386,2.146,1.386,3.861C109.468,84.862,109.006,86.148,108.082,87.042z
			 M106.888,85.612c0.444-0.572,0.667-1.383,0.667-2.433c0-1.047-0.223-1.855-0.667-2.428c-0.444-0.573-1.044-0.858-1.802-0.858
			c-0.756,0-1.359,0.285-1.811,0.854c-0.45,0.569-0.676,1.38-0.676,2.432c0,1.05,0.226,1.86,0.676,2.433
			c0.451,0.569,1.055,0.854,1.811,0.854C105.844,86.466,106.443,86.182,106.888,85.612z"/>
		<path fill="#06357A" d="M110.933,78.503h6.485v1.651h-4.573v2.156h3.999v1.617h-3.999v3.946h-1.912V78.503z"/>
		<path fill="#06357A" d="M123.112,79.485c0.736-0.771,1.674-1.156,2.812-1.156c1.523,0,2.637,0.518,3.341,1.552
			c0.389,0.582,0.598,1.165,0.627,1.752h-1.912c-0.122-0.452-0.277-0.791-0.468-1.021c-0.34-0.409-0.843-0.613-1.511-0.613
			c-0.679,0-1.215,0.287-1.606,0.865c-0.393,0.576-0.588,1.391-0.588,2.445c0,1.054,0.205,1.845,0.618,2.368
			c0.413,0.526,0.938,0.789,1.573,0.789c0.652,0,1.149-0.226,1.492-0.678c0.188-0.243,0.347-0.608,0.472-1.096h1.912
			c-0.164,1.02-0.582,1.848-1.256,2.484c-0.674,0.639-1.537,0.958-2.589,0.958c-1.302,0-2.325-0.432-3.07-1.297
			c-0.746-0.867-1.117-2.059-1.117-3.571C121.842,81.63,122.265,80.372,123.112,79.485z"/>
		<path fill="#06357A" d="M138.478,87.042c-0.692,0.729-1.692,1.093-3.002,1.093c-1.309,0-2.309-0.364-3.001-1.093
			c-0.928-0.894-1.392-2.18-1.392-3.862c0-1.715,0.464-3.003,1.392-3.861c0.692-0.73,1.692-1.094,3.001-1.094
			c1.31,0,2.31,0.363,3.002,1.094c0.924,0.858,1.386,2.146,1.386,3.861C139.863,84.862,139.401,86.148,138.478,87.042z
			 M137.284,85.612c0.444-0.572,0.666-1.383,0.666-2.433c0-1.047-0.222-1.855-0.666-2.428c-0.444-0.573-1.045-0.858-1.802-0.858
			c-0.756,0-1.36,0.285-1.812,0.854c-0.449,0.569-0.676,1.38-0.676,2.432c0,1.05,0.227,1.86,0.676,2.433
			c0.451,0.569,1.056,0.854,1.812,0.854C136.239,86.466,136.84,86.182,137.284,85.612z"/>
		<path fill="#06357A" d="M147.415,78.503h2.746v9.371h-1.773v-6.339c0-0.183,0.002-0.438,0.006-0.766s0.006-0.582,0.006-0.761
			l-1.738,7.865h-1.862l-1.726-7.865c0,0.179,0.001,0.433,0.005,0.761c0.005,0.328,0.007,0.583,0.007,0.766v6.339h-1.773v-9.371
			h2.776l1.67,7.367L147.415,78.503z"/>
		<path fill="#06357A" d="M158.016,78.503h2.745v9.371h-1.773v-6.339c0-0.183,0.002-0.438,0.007-0.766
			c0.004-0.328,0.006-0.582,0.006-0.761l-1.738,7.865h-1.864l-1.726-7.865c0,0.179,0.003,0.433,0.007,0.761
			c0.003,0.328,0.006,0.583,0.006,0.766v6.339h-1.773v-9.371h2.777l1.669,7.367L158.016,78.503z"/>
		<path fill="#06357A" d="M169.306,80.172h-4.847v2h4.448v1.616h-4.448v2.399h5.07v1.687h-6.948v-9.354h6.725V80.172z"/>
		<path fill="#06357A" d="M176.882,78.744c0.338,0.147,0.623,0.365,0.858,0.654c0.193,0.236,0.348,0.497,0.46,0.786
			c0.113,0.287,0.17,0.615,0.17,0.982c0,0.446-0.108,0.883-0.328,1.311c-0.219,0.431-0.58,0.732-1.084,0.911
			c0.418,0.174,0.716,0.422,0.89,0.741c0.175,0.319,0.262,0.809,0.262,1.467v0.633c0,0.428,0.018,0.719,0.052,0.873
			c0.053,0.241,0.174,0.42,0.365,0.535v0.236h-2.112c-0.058-0.208-0.099-0.376-0.124-0.504c-0.05-0.263-0.076-0.532-0.08-0.811
			l-0.013-0.874c-0.008-0.598-0.109-0.997-0.304-1.197s-0.559-0.3-1.092-0.3h-1.874v3.686h-1.877v-9.371h4.385
			C176.063,78.516,176.545,78.597,176.882,78.744z M172.928,80.12v2.521h2.064c0.409,0,0.717-0.052,0.922-0.151
			c0.362-0.179,0.544-0.533,0.544-1.059c0-0.567-0.176-0.95-0.526-1.146c-0.196-0.111-0.492-0.165-0.887-0.165H172.928z"/>
		<path fill="#06357A" d="M181.077,79.485c0.736-0.771,1.674-1.156,2.813-1.156c1.522,0,2.636,0.518,3.34,1.552
			c0.39,0.582,0.598,1.165,0.626,1.752h-1.912c-0.122-0.452-0.277-0.791-0.468-1.021c-0.339-0.409-0.842-0.613-1.509-0.613
			c-0.681,0-1.216,0.287-1.608,0.865c-0.393,0.576-0.588,1.391-0.588,2.445c0,1.054,0.206,1.845,0.619,2.368
			c0.413,0.526,0.937,0.789,1.573,0.789c0.652,0,1.15-0.226,1.492-0.678c0.189-0.243,0.346-0.608,0.471-1.096h1.912
			c-0.164,1.02-0.582,1.848-1.256,2.484c-0.673,0.639-1.535,0.958-2.588,0.958c-1.302,0-2.326-0.432-3.07-1.297
			c-0.745-0.867-1.118-2.059-1.118-3.571C179.806,81.63,180.229,80.372,181.077,79.485z"/>
		<path fill="#06357A" d="M196.171,80.172h-4.846v2h4.449v1.616h-4.449v2.399h5.069v1.687h-6.947v-9.354h6.724V80.172z"/>
	</g>
</g>
</svg>
