<?xml version="1.0" encoding="utf-8"?>
<!-- Generator: Adobe Illustrator 16.0.3, SVG Export Plug-In . SVG Version: 6.00 Build 0)  -->
<!DOCTYPE svg PUBLIC "-//W3C//DTD SVG 1.1//EN" "http://www.w3.org/Graphics/SVG/1.1/DTD/svg11.dtd">
<svg version="1.1" id="Layer_4" xmlns="http://www.w3.org/2000/svg" xmlns:xlink="http://www.w3.org/1999/xlink" x="0px" y="0px"
	 width="119.151px" height="73.616px" viewBox="0 0 119.151 73.616" enable-background="new 0 0 119.151 73.616"
	 xml:space="preserve">
<g>
	<polygon fill="#0069AA" points="36.271,25.342 35.079,30.625 46.102,30.625 44.5,37.606 33.484,37.606 32.181,43.066 
		43.801,43.066 42.207,50.039 20.814,50.039 28.144,18.375 49.535,18.375 47.892,25.342 36.271,25.342 	"/>
	<path fill="#0069AA" d="M59.25,36.927h1.063c3.406,0,8.618-0.379,7.714,3.449c-0.854,3.486-6.066,3.365-9.144,3.365h-1.332
		L59.25,36.927L59.25,36.927z M61.641,50.039c7.339,0,15.043-2.183,16.692-8.821c1.065-4.419-0.639-7.479-6.222-8.064l0.054-0.084
		c3.562-1.312,5.268-3.615,5.957-6.471c1.484-6.052-2.712-8.224-9.834-8.224H53.409l-7.813,31.664H61.641L61.641,50.039z
		 M62.229,24.664h0.749c2.811,0,6.056,0.176,5.311,3.077c-0.642,2.679-3.618,3.051-6.375,3.051H60.74L62.229,24.664L62.229,24.664z"
		/>
	<path fill="#0069AA" d="M88.95,44.536l-1.798,5.503H76.748l10.249-31.664h10.658l18.347,31.664h-10.363l-3.237-5.503H88.95
		L88.95,44.536z M90.772,38.224h8.122l-5.229-10.075h-0.111L90.772,38.224L90.772,38.224z"/>
	<polygon points="21.514,52.589 21.368,53.353 22.708,53.353 22.514,54.364 21.172,54.364 21.017,55.147 22.426,55.147 
		22.233,56.158 19.628,56.158 20.519,51.573 23.122,51.573 22.926,52.589 21.514,52.589 	"/>
	<path d="M24.637,53.042l-0.33,1.659c-0.067,0.401-0.027,0.679,0.436,0.679c0.446,0,0.605-0.277,0.676-0.679l0.328-1.659h1.104
		l-0.36,1.865c-0.208,1.037-0.992,1.354-1.931,1.354c-0.929,0-1.59-0.317-1.385-1.354l0.361-1.865H24.637L24.637,53.042z"/>
	<path d="M28.558,53.552h0.01c0.291-0.388,0.691-0.561,1.125-0.561h0.209l-0.206,1.067c-0.135-0.081-0.287-0.107-0.451-0.107
		c-0.613,0-0.85,0.412-0.95,0.956l-0.238,1.25h-1.113l0.613-3.115h1.106L28.558,53.552L28.558,53.552z"/>
	<path d="M33.419,54.607c-0.213,1.054-1.194,1.655-2.194,1.655c-1.007,0-1.77-0.602-1.563-1.655
		c0.206-1.071,1.203-1.669,2.196-1.669C32.86,52.938,33.624,53.536,33.419,54.607L33.419,54.607z M30.832,54.607
		c-0.081,0.385,0.12,0.692,0.573,0.692c0.444,0,0.772-0.308,0.846-0.692c0.071-0.385-0.13-0.706-0.579-0.706
		C31.23,53.901,30.902,54.222,30.832,54.607L30.832,54.607z"/>
	<path d="M35.799,53.901c0.445,0,0.646,0.321,0.568,0.706c-0.072,0.385-0.395,0.692-0.844,0.692c-0.455,0-0.656-0.308-0.575-0.692
		C35.026,54.222,35.342,53.901,35.799,53.901L35.799,53.901z M35.291,53.042H34.18l-0.905,4.666h1.104l0.365-1.842
		c0.182,0.261,0.527,0.396,0.889,0.396c0.919,0,1.703-0.757,1.879-1.655c0.166-0.886-0.326-1.669-1.249-1.669
		c-0.364,0-0.774,0.142-1.036,0.456h-0.01L35.291,53.042L35.291,53.042z"/>
	<path d="M39.035,54.144c0.133-0.328,0.432-0.479,0.756-0.479c0.298,0,0.536,0.186,0.527,0.479H39.035L39.035,54.144z
		 M41.248,54.678c0.209-1.071-0.287-1.74-1.37-1.74c-1.016,0-1.849,0.628-2.046,1.669c-0.215,1.071,0.442,1.655,1.481,1.655
		c0.71,0,1.468-0.345,1.789-1.074H40.04c-0.162,0.213-0.349,0.284-0.583,0.284c-0.453,0-0.65-0.244-0.563-0.687h2.33L41.248,54.678
		L41.248,54.678z"/>
	<path d="M43.527,53.901c0.453,0,0.65,0.321,0.582,0.706c-0.09,0.385-0.408,0.692-0.856,0.692c-0.454,0-0.65-0.308-0.563-0.692
		C42.753,54.222,43.082,53.901,43.527,53.901L43.527,53.901z M45.478,53.042h-1.111l-0.056,0.304
		c-0.176-0.273-0.525-0.408-0.889-0.408c-0.922,0-1.708,0.764-1.883,1.662c-0.18,0.892,0.332,1.662,1.251,1.662
		c0.363,0,0.774-0.146,1.025-0.452h0.015l-0.068,0.348h1.109L45.478,53.042L45.478,53.042z"/>
	<path d="M47.24,53.441h0.01c0.329-0.368,0.66-0.503,1.092-0.503c0.844,0,1.072,0.527,0.927,1.29l-0.374,1.93h-1.105l0.293-1.521
		c0.063-0.301,0.207-0.824-0.336-0.824c-0.451,0-0.646,0.338-0.716,0.723l-0.324,1.622h-1.104l0.608-3.115h1.1L47.24,53.441
		L47.24,53.441z"/>
	<path d="M53.287,54.259h0.122c0.394,0,0.983-0.055,0.88,0.506c-0.093,0.501-0.692,0.48-1.047,0.48h-0.148L53.287,54.259
		L53.287,54.259z M53.564,56.158c0.836,0,1.718-0.314,1.907-1.277c0.122-0.642-0.074-1.084-0.71-1.159v-0.02
		c0.41-0.192,0.607-0.521,0.676-0.939c0.18-0.861-0.297-1.189-1.118-1.189h-1.698l-0.891,4.585H53.564L53.564,56.158z
		 M53.629,52.489h0.086c0.322,0,0.692,0.026,0.604,0.449c-0.069,0.385-0.413,0.442-0.726,0.442h-0.135L53.629,52.489L53.629,52.489z
		"/>
	<path d="M57.511,53.042l-0.328,1.659c-0.071,0.401-0.026,0.679,0.429,0.679c0.451,0,0.604-0.277,0.678-0.679l0.324-1.659h1.111
		l-0.365,1.865c-0.201,1.037-0.987,1.354-1.918,1.354c-0.939,0-1.605-0.317-1.4-1.354l0.366-1.865H57.511L57.511,53.042z"/>
	<path d="M62.33,53.85c-0.153-0.111-0.377-0.159-0.565-0.159c-0.127,0-0.356,0.048-0.391,0.213c-0.037,0.213,0.299,0.24,0.446,0.271
		c0.494,0.111,0.832,0.348,0.728,0.929c-0.157,0.814-0.975,1.159-1.697,1.159c-0.446,0-0.854-0.135-1.194-0.365l0.559-0.77
		c0.189,0.165,0.541,0.324,0.808,0.324c0.15,0,0.363-0.071,0.396-0.247c0.047-0.239-0.298-0.239-0.622-0.338
		c-0.333-0.098-0.644-0.26-0.536-0.827c0.145-0.761,0.913-1.102,1.584-1.102c0.352,0,0.697,0.054,0.996,0.202L62.33,53.85
		L62.33,53.85z"/>
	<path d="M64.047,56.158h-1.112l0.608-3.115h1.104L64.047,56.158L64.047,56.158z M64.945,51.843
		c-0.067,0.341-0.398,0.615-0.74,0.615c-0.34,0-0.558-0.274-0.503-0.615c0.07-0.348,0.407-0.615,0.746-0.615
		C64.788,51.228,65.013,51.496,64.945,51.843L64.945,51.843z"/>
	<path d="M66.401,53.441h0.012c0.338-0.368,0.667-0.503,1.102-0.503c0.831,0,1.067,0.527,0.919,1.29l-0.379,1.93h-1.1l0.291-1.521
		c0.054-0.301,0.213-0.824-0.34-0.824c-0.447,0-0.639,0.338-0.718,0.723l-0.311,1.622h-1.112l0.613-3.115h1.105L66.401,53.441
		L66.401,53.441z"/>
	<path d="M70.063,54.144c0.143-0.328,0.438-0.479,0.75-0.479c0.312,0,0.541,0.186,0.534,0.479H70.063L70.063,54.144z M72.282,54.678
		c0.2-1.071-0.294-1.74-1.374-1.74c-1.017,0-1.852,0.628-2.044,1.669c-0.216,1.071,0.447,1.655,1.475,1.655
		c0.711,0,1.475-0.345,1.789-1.074h-1.054c-0.166,0.213-0.354,0.284-0.583,0.284c-0.467,0-0.648-0.244-0.561-0.687h2.319
		L72.282,54.678L72.282,54.678z"/>
	<path d="M75.003,53.85c-0.155-0.111-0.378-0.159-0.567-0.159c-0.127,0-0.359,0.048-0.394,0.213
		c-0.035,0.213,0.301,0.24,0.446,0.271c0.498,0.111,0.834,0.348,0.731,0.929c-0.162,0.814-0.974,1.159-1.698,1.159
		c-0.44,0-0.852-0.135-1.19-0.365l0.561-0.77c0.189,0.165,0.537,0.324,0.808,0.324c0.144,0,0.359-0.071,0.389-0.247
		c0.047-0.239-0.299-0.239-0.622-0.338c-0.329-0.098-0.635-0.26-0.537-0.827c0.152-0.761,0.914-1.102,1.588-1.102
		c0.36,0,0.697,0.054,0.997,0.202L75.003,53.85L75.003,53.85z"/>
	<path d="M78.115,53.85c-0.154-0.111-0.377-0.159-0.571-0.159c-0.125,0-0.352,0.048-0.384,0.213
		c-0.039,0.213,0.298,0.24,0.439,0.271c0.51,0.111,0.843,0.348,0.736,0.929c-0.157,0.814-0.971,1.159-1.694,1.159
		c-0.444,0-0.856-0.135-1.19-0.365l0.556-0.77c0.19,0.165,0.537,0.324,0.814,0.324c0.135,0,0.356-0.071,0.38-0.247
		c0.045-0.239-0.292-0.239-0.625-0.338c-0.326-0.098-0.637-0.26-0.522-0.827c0.144-0.761,0.902-1.102,1.585-1.102
		c0.353,0,0.69,0.054,0.989,0.202L78.115,53.85L78.115,53.85z"/>
	<path d="M83.654,54.448h-0.988l0.762-1.456h0.016L83.654,54.448L83.654,54.448z M83.791,55.364l0.146,0.794h1.262l-0.826-4.585
		h-1.299l-2.652,4.585h1.269l0.463-0.794H83.791L83.791,55.364z"/>
	<path d="M88.066,53.85c-0.157-0.111-0.384-0.159-0.571-0.159c-0.126,0-0.356,0.048-0.385,0.213
		c-0.042,0.213,0.296,0.24,0.438,0.271c0.5,0.111,0.843,0.348,0.731,0.929c-0.155,0.814-0.975,1.159-1.694,1.159
		c-0.44,0-0.858-0.135-1.196-0.365l0.558-0.77c0.198,0.165,0.539,0.324,0.814,0.324c0.142,0,0.359-0.071,0.389-0.247
		c0.052-0.239-0.294-0.239-0.627-0.338c-0.329-0.098-0.637-0.26-0.525-0.827c0.147-0.761,0.905-1.102,1.59-1.102
		c0.343,0,0.686,0.054,0.984,0.202L88.066,53.85L88.066,53.85z"/>
	<path d="M91.177,53.85c-0.149-0.111-0.375-0.159-0.563-0.159c-0.132,0-0.362,0.048-0.389,0.213c-0.042,0.213,0.299,0.24,0.44,0.271
		c0.5,0.111,0.843,0.348,0.731,0.929c-0.158,0.814-0.978,1.159-1.701,1.159c-0.438,0-0.851-0.135-1.181-0.365l0.553-0.77
		c0.189,0.165,0.535,0.324,0.811,0.324c0.134,0,0.354-0.071,0.386-0.247c0.057-0.239-0.294-0.239-0.622-0.338
		c-0.331-0.098-0.639-0.26-0.537-0.827c0.152-0.761,0.907-1.102,1.591-1.102c0.355,0,0.696,0.054,0.994,0.202L91.177,53.85
		L91.177,53.85z"/>
	<path d="M93.871,53.901c0.449,0,0.646,0.321,0.576,0.706c-0.078,0.385-0.402,0.692-0.852,0.692c-0.448,0-0.654-0.308-0.574-0.692
		C93.099,54.222,93.413,53.901,93.871,53.901L93.871,53.901z M94.062,52.938c-1.012,0-1.993,0.598-2.206,1.669
		c-0.204,1.054,0.567,1.655,1.555,1.655c1.005,0,1.989-0.602,2.206-1.655C95.818,53.536,95.062,52.938,94.062,52.938L94.062,52.938z
		"/>
	<path d="M98.645,53.117c-0.192-0.125-0.434-0.179-0.692-0.179c-0.979,0-1.875,0.692-2.072,1.686
		c-0.187,0.942,0.456,1.639,1.383,1.639c0.264,0,0.539-0.054,0.805-0.179l0.179-0.937c-0.169,0.139-0.4,0.217-0.598,0.217
		c-0.453,0-0.705-0.324-0.624-0.764c0.085-0.436,0.48-0.764,0.906-0.764c0.218,0,0.39,0.095,0.531,0.217L98.645,53.117
		L98.645,53.117z"/>
	<path d="M99.85,56.158h-1.108l0.613-3.115h1.102L99.85,56.158L99.85,56.158z M100.748,51.843c-0.058,0.341-0.397,0.615-0.735,0.615
		c-0.343,0-0.567-0.274-0.5-0.615c0.064-0.348,0.397-0.615,0.738-0.615C100.596,51.228,100.817,51.496,100.748,51.843
		L100.748,51.843z"/>
	<path d="M102.642,53.901c0.453,0,0.647,0.321,0.576,0.706c-0.079,0.385-0.4,0.692-0.848,0.692c-0.45,0-0.645-0.308-0.578-0.692
		C101.873,54.222,102.188,53.901,102.642,53.901L102.642,53.901z M104.588,53.042h-1.1l-0.064,0.304
		c-0.179-0.273-0.525-0.408-0.885-0.408c-0.928,0-1.708,0.764-1.888,1.662c-0.174,0.892,0.326,1.662,1.252,1.662
		c0.363,0,0.777-0.146,1.027-0.452h0.009l-0.063,0.348h1.106L104.588,53.042L104.588,53.042z"/>
	<polygon points="105.924,56.158 104.826,56.158 105.252,53.952 104.896,53.952 105.071,53.042 105.433,53.042 105.615,52.11 
		106.716,52.11 106.535,53.042 107.16,53.042 106.984,53.952 106.363,53.952 105.924,56.158 	"/>
	<path d="M108.417,51.228c-0.346,0-0.677,0.268-0.739,0.615c-0.067,0.341,0.162,0.615,0.496,0.615c0.338,0,0.676-0.274,0.738-0.615
		C108.983,51.496,108.762,51.228,108.417,51.228L108.417,51.228z M108.62,53.042h-1.108l-0.611,3.115h1.108L108.62,53.042
		L108.62,53.042z"/>
	<path d="M112.563,54.607c-0.2,1.054-1.194,1.655-2.194,1.655s-1.764-0.602-1.552-1.655c0.2-1.071,1.188-1.669,2.19-1.669
		C112.016,52.938,112.772,53.536,112.563,54.607L112.563,54.607z M109.985,54.607c-0.088,0.385,0.111,0.692,0.565,0.692
		c0.451,0,0.772-0.308,0.852-0.692s-0.127-0.706-0.583-0.706C110.368,53.901,110.055,54.222,109.985,54.607L109.985,54.607z"/>
	<path d="M114.396,53.441h0.011c0.327-0.368,0.66-0.503,1.095-0.503c0.836,0,1.067,0.527,0.915,1.29l-0.377,1.93h-1.101l0.306-1.521
		c0.049-0.301,0.199-0.824-0.347-0.824c-0.447,0-0.641,0.338-0.715,0.723l-0.315,1.622h-1.104l0.606-3.115h1.105L114.396,53.441
		L114.396,53.441z"/>
	<g>
		<defs>
			<polygon id="SVGID_1_" points="52.143,59.752 54.535,57.817 53.833,60.82 56.416,62.489 53.354,62.759 52.556,65.719 
				51.359,62.891 48.289,63.06 50.613,61.04 49.508,58.178 52.143,59.752 			"/>
		</defs>
		<clipPath id="SVGID_2_">
			<use xlink:href="#SVGID_1_"  overflow="visible"/>
		</clipPath>
		<polygon clip-path="url(#SVGID_2_)" fill="#FCAF17" points="48.289,57.817 56.416,57.817 56.416,65.719 48.289,65.719 
			48.289,57.817 		"/>
		<path clip-path="url(#SVGID_2_)" fill="#FAB116" d="M48.542,61.773c0-2.105,1.708-3.812,3.81-3.812c2.1,0,3.809,1.706,3.809,3.812
			c0,2.104-1.709,3.804-3.809,3.804C50.25,65.577,48.542,63.877,48.542,61.773L48.542,61.773z"/>
		<path clip-path="url(#SVGID_2_)" fill="#F9B314" d="M48.746,61.773c0-2.004,1.613-3.615,3.605-3.615
			c1.993,0,3.606,1.611,3.606,3.615c0,1.993-1.613,3.604-3.606,3.604C50.359,65.377,48.746,63.766,48.746,61.773L48.746,61.773z"/>
		<path clip-path="url(#SVGID_2_)" fill="#F8B513" d="M48.941,61.773c0-1.875,1.529-3.412,3.41-3.412c1.877,0,3.41,1.537,3.41,3.412
			c0,1.882-1.533,3.402-3.41,3.402C50.471,65.175,48.941,63.655,48.941,61.773L48.941,61.773z"/>
		<path clip-path="url(#SVGID_2_)" fill="#F7B711" d="M49.141,61.773c0-1.764,1.44-3.206,3.211-3.206
			c1.771,0,3.211,1.442,3.211,3.206c0,1.773-1.439,3.206-3.211,3.206C50.581,64.979,49.141,63.546,49.141,61.773L49.141,61.773z"/>
		<path clip-path="url(#SVGID_2_)" fill="#F6BA10" d="M49.343,61.773c0-1.659,1.35-3,3.009-3c1.664,0,3,1.341,3,3
			c0,1.652-1.336,3.01-3,3.01C50.692,64.783,49.343,63.425,49.343,61.773L49.343,61.773z"/>
		<path clip-path="url(#SVGID_2_)" fill="#F5BC0E" d="M49.541,61.773c0-1.551,1.26-2.794,2.811-2.794
			c1.553,0,2.806,1.243,2.806,2.794c0,1.544-1.253,2.804-2.806,2.804C50.801,64.577,49.541,63.317,49.541,61.773L49.541,61.773z"/>
		<path clip-path="url(#SVGID_2_)" fill="#F5BE0B" d="M49.745,61.773c0-1.439,1.165-2.605,2.606-2.605
			c1.434,0,2.604,1.166,2.604,2.605c0,1.449-1.17,2.608-2.604,2.608C50.91,64.381,49.745,63.222,49.745,61.773L49.745,61.773z"/>
		<path clip-path="url(#SVGID_2_)" fill="#F4C109" d="M49.947,61.773c0-1.328,1.074-2.399,2.404-2.399s2.402,1.071,2.402,2.399
			c0,1.324-1.072,2.396-2.402,2.396S49.947,63.097,49.947,61.773L49.947,61.773z"/>
		<path clip-path="url(#SVGID_2_)" fill="#F4C306" d="M50.146,61.773c0-1.21,0.994-2.206,2.205-2.206
			c1.223,0,2.203,0.996,2.203,2.206c0,1.223-0.98,2.206-2.203,2.206C51.141,63.979,50.146,62.996,50.146,61.773L50.146,61.773z"/>
		<path clip-path="url(#SVGID_2_)" fill="#F3C504" d="M50.348,61.773c0-1.111,0.895-2.007,2.004-2.007
			c1.107,0,2.002,0.896,2.002,2.007c0,1.115-0.895,2-2.002,2C51.242,63.773,50.348,62.888,50.348,61.773L50.348,61.773z"/>
		<path clip-path="url(#SVGID_2_)" fill="#F3C701" d="M50.547,61.773c0-0.986,0.81-1.805,1.805-1.805
			c0.992,0,1.806,0.818,1.806,1.805s-0.813,1.808-1.806,1.808C51.356,63.581,50.547,62.759,50.547,61.773L50.547,61.773z"/>
		<path clip-path="url(#SVGID_2_)" fill="#F2C900" d="M50.755,61.773c0-0.879,0.706-1.599,1.597-1.599
			c0.882,0,1.606,0.72,1.606,1.599c0,0.882-0.725,1.608-1.606,1.608C51.461,63.381,50.755,62.655,50.755,61.773L50.755,61.773z"/>
		<path clip-path="url(#SVGID_2_)" fill="#F2CB00" d="M50.951,61.773c0-0.771,0.627-1.405,1.4-1.405
			c0.771,0,1.407,0.635,1.407,1.405c0,0.78-0.636,1.396-1.407,1.396C51.578,63.168,50.951,62.553,50.951,61.773L50.951,61.773z"/>
		<path clip-path="url(#SVGID_2_)" fill="#F1CD00" d="M51.146,61.773c0-0.669,0.534-1.21,1.205-1.21c0.66,0,1.203,0.541,1.203,1.21
			s-0.543,1.202-1.203,1.202C51.681,62.975,51.146,62.442,51.146,61.773L51.146,61.773z"/>
		<path clip-path="url(#SVGID_2_)" fill="#F1D000" d="M51.348,61.773c0-0.551,0.453-1,1.004-1c0.559,0,1.002,0.449,1.002,1
			s-0.443,1.007-1.002,1.007C51.801,62.78,51.348,62.324,51.348,61.773L51.348,61.773z"/>
		<path clip-path="url(#SVGID_2_)" fill="#F0D200" d="M51.546,61.773c0-0.442,0.364-0.801,0.806-0.801s0.799,0.358,0.799,0.801
			c0,0.439-0.357,0.794-0.799,0.794S51.546,62.212,51.546,61.773L51.546,61.773z"/>
		<path clip-path="url(#SVGID_2_)" fill="#EFD400" d="M51.745,61.773c0-0.328,0.276-0.599,0.606-0.599c0.331,0,0.6,0.271,0.6,0.599
			c0,0.331-0.269,0.602-0.6,0.602C52.021,62.375,51.745,62.104,51.745,61.773L51.745,61.773z"/>
		<path clip-path="url(#SVGID_2_)" fill="#EFD600" d="M51.951,61.773c0-0.213,0.174-0.398,0.4-0.398
			c0.221,0,0.402,0.186,0.402,0.398s-0.182,0.396-0.402,0.396C52.125,62.168,51.951,61.986,51.951,61.773L51.951,61.773z"/>
		<path clip-path="url(#SVGID_2_)" fill="#EED800" d="M52.157,61.773c0-0.108,0.086-0.206,0.194-0.206
			c0.109,0,0.197,0.098,0.197,0.206s-0.088,0.199-0.197,0.199C52.243,61.972,52.157,61.881,52.157,61.773L52.157,61.773z"/>
	</g>
	<g>
		<defs>
			<polygon id="SVGID_3_" points="41.964,64.219 44.926,63.375 43.113,65.861 44.841,68.405 41.918,67.453 40.028,69.891 
				40.028,66.817 37.133,65.766 40.059,64.824 40.16,61.739 41.964,64.219 			"/>
		</defs>
		<clipPath id="SVGID_4_">
			<use xlink:href="#SVGID_3_"  overflow="visible"/>
		</clipPath>
		<polygon clip-path="url(#SVGID_4_)" fill="#FCAF17" points="37.133,61.739 44.926,61.739 44.926,69.891 37.133,69.891 
			37.133,61.739 		"/>
		<path clip-path="url(#SVGID_4_)" fill="#FAB116" d="M37.239,65.81c0-2.091,1.692-3.78,3.786-3.78c2.092,0,3.787,1.689,3.787,3.78
			c0,2.099-1.695,3.791-3.787,3.791C38.932,69.601,37.239,67.909,37.239,65.81L37.239,65.81z"/>
		<path clip-path="url(#SVGID_4_)" fill="#F9B314" d="M37.439,65.81c0-1.979,1.602-3.581,3.586-3.581
			c1.982,0,3.586,1.602,3.586,3.581c0,1.986-1.604,3.595-3.586,3.595C39.041,69.405,37.439,67.796,37.439,65.81L37.439,65.81z"/>
		<path clip-path="url(#SVGID_4_)" fill="#F8B513" d="M37.635,65.81c0-1.871,1.52-3.375,3.391-3.375s3.395,1.504,3.395,3.375
			c0,1.872-1.523,3.379-3.395,3.379S37.635,67.682,37.635,65.81L37.635,65.81z"/>
		<path clip-path="url(#SVGID_4_)" fill="#F7B711" d="M37.839,65.81c0-1.76,1.424-3.183,3.187-3.183
			c1.756,0,3.184,1.423,3.184,3.183c0,1.761-1.428,3.187-3.184,3.187C39.263,68.997,37.839,67.571,37.839,65.81L37.839,65.81z"/>
		<path clip-path="url(#SVGID_4_)" fill="#F6BA10" d="M38.035,65.81c0-1.652,1.34-2.983,2.99-2.983c1.648,0,2.986,1.331,2.986,2.983
			c0,1.655-1.338,2.993-2.986,2.993C39.375,68.803,38.035,67.465,38.035,65.81L38.035,65.81z"/>
		<path clip-path="url(#SVGID_4_)" fill="#F5BC0E" d="M38.24,65.81c0-1.53,1.244-2.784,2.785-2.784s2.79,1.254,2.79,2.784
			c0,1.548-1.249,2.791-2.79,2.791S38.24,67.358,38.24,65.81L38.24,65.81z"/>
		<path clip-path="url(#SVGID_4_)" fill="#F5BE0B" d="M38.438,65.81c0-1.422,1.158-2.588,2.588-2.588
			c1.436,0,2.594,1.166,2.594,2.588c0,1.43-1.158,2.585-2.594,2.585C39.596,68.395,38.438,67.24,38.438,65.81L38.438,65.81z"/>
		<path clip-path="url(#SVGID_4_)" fill="#F4C109" d="M38.638,65.81c0-1.314,1.075-2.385,2.388-2.385
			c1.322,0,2.392,1.07,2.392,2.385c0,1.321-1.069,2.396-2.392,2.396C39.713,68.206,38.638,67.131,38.638,65.81L38.638,65.81z"/>
		<path clip-path="url(#SVGID_4_)" fill="#F4C306" d="M38.839,65.81c0-1.206,0.975-2.186,2.187-2.186
			c1.209,0,2.191,0.979,2.191,2.186c0,1.217-0.982,2.192-2.191,2.192C39.813,68.002,38.839,67.027,38.839,65.81L38.839,65.81z"/>
		<path clip-path="url(#SVGID_4_)" fill="#F3C504" d="M39.035,65.81c0-1.091,0.891-1.986,1.99-1.986
			c1.101,0,1.991,0.896,1.991,1.986c0,1.104-0.891,1.993-1.991,1.993C39.926,67.803,39.035,66.915,39.035,65.81L39.035,65.81z"/>
		<path clip-path="url(#SVGID_4_)" fill="#F3C701" d="M39.229,65.81c0-0.986,0.807-1.794,1.797-1.794c0.992,0,1.79,0.808,1.79,1.794
			s-0.798,1.801-1.79,1.801C40.035,67.611,39.229,66.796,39.229,65.81L39.229,65.81z"/>
		<path clip-path="url(#SVGID_4_)" fill="#F2C900" d="M39.428,65.81c0-0.878,0.715-1.591,1.598-1.591
			c0.885,0,1.594,0.713,1.594,1.591c0,0.886-0.709,1.602-1.594,1.602C40.143,67.412,39.428,66.696,39.428,65.81L39.428,65.81z"/>
		<path clip-path="url(#SVGID_4_)" fill="#F2CB00" d="M39.633,65.81c0-0.767,0.621-1.392,1.393-1.392
			c0.773,0,1.395,0.625,1.395,1.392c0,0.773-0.621,1.398-1.395,1.398C40.254,67.208,39.633,66.583,39.633,65.81L39.633,65.81z"/>
		<path clip-path="url(#SVGID_4_)" fill="#F1CD00" d="M39.83,65.81c0-0.658,0.536-1.206,1.195-1.206c0.66,0,1.195,0.548,1.195,1.206
			c0,0.666-0.535,1.192-1.195,1.192C40.366,67.002,39.83,66.476,39.83,65.81L39.83,65.81z"/>
		<path clip-path="url(#SVGID_4_)" fill="#F1D000" d="M40.031,65.81c0-0.551,0.446-0.986,0.994-0.986
			c0.555,0,0.992,0.436,0.992,0.986c0,0.544-0.438,1.007-0.992,1.007C40.478,66.817,40.031,66.354,40.031,65.81L40.031,65.81z"/>
		<path clip-path="url(#SVGID_4_)" fill="#F0D200" d="M40.23,65.81c0-0.446,0.357-0.79,0.795-0.79c0.443,0,0.799,0.344,0.799,0.79
			c0,0.436-0.355,0.801-0.799,0.801C40.588,66.611,40.23,66.246,40.23,65.81L40.23,65.81z"/>
		<path clip-path="url(#SVGID_4_)" fill="#EFD400" d="M40.429,65.81c0-0.327,0.267-0.598,0.597-0.598
			c0.334,0,0.601,0.271,0.601,0.598c0,0.331-0.267,0.602-0.601,0.602C40.695,66.412,40.429,66.141,40.429,65.81L40.429,65.81z"/>
		<path clip-path="url(#SVGID_4_)" fill="#EFD600" d="M40.631,65.81c0-0.209,0.176-0.402,0.395-0.402s0.404,0.193,0.404,0.402
			c0,0.217-0.186,0.398-0.404,0.398S40.631,66.027,40.631,65.81L40.631,65.81z"/>
		<path clip-path="url(#SVGID_4_)" fill="#EED800" d="M40.826,65.81c0-0.121,0.094-0.199,0.199-0.199
			c0.113,0,0.209,0.078,0.209,0.199c0,0.115-0.096,0.192-0.209,0.192C40.92,66.002,40.826,65.925,40.826,65.81L40.826,65.81z"/>
	</g>
	<g>
		<defs>
			<polygon id="SVGID_5_" points="30.994,64.482 34.051,64.766 31.46,66.418 32.137,69.428 29.766,67.465 27.113,69.043 
				28.237,66.175 25.929,64.145 28.997,64.331 30.213,61.516 30.994,64.482 			"/>
		</defs>
		<clipPath id="SVGID_6_">
			<use xlink:href="#SVGID_5_"  overflow="visible"/>
		</clipPath>
		<polygon clip-path="url(#SVGID_6_)" fill="#FCAF17" points="25.929,61.516 34.051,61.516 34.051,69.428 25.929,69.428 
			25.929,61.516 		"/>
		<path clip-path="url(#SVGID_6_)" fill="#FAB116" d="M26.183,65.458c0-2.102,1.705-3.801,3.808-3.801
			c2.102,0,3.813,1.699,3.813,3.801c0,2.112-1.711,3.814-3.813,3.814C27.887,69.273,26.183,67.571,26.183,65.458L26.183,65.458z"/>
		<path clip-path="url(#SVGID_6_)" fill="#F9B314" d="M26.378,65.458c0-1.982,1.615-3.595,3.612-3.595
			c1.994,0,3.608,1.612,3.608,3.595c0,1.994-1.615,3.605-3.608,3.605C27.994,69.064,26.378,67.453,26.378,65.458L26.378,65.458z"/>
		<path clip-path="url(#SVGID_6_)" fill="#F8B513" d="M26.583,65.458c0-1.878,1.529-3.405,3.407-3.405
			c1.889,0,3.411,1.527,3.411,3.405c0,1.882-1.522,3.416-3.411,3.416C28.112,68.875,26.583,67.34,26.583,65.458L26.583,65.458z"/>
		<path clip-path="url(#SVGID_6_)" fill="#F7B711" d="M26.781,65.458c0-1.764,1.434-3.206,3.209-3.206
			c1.769,0,3.207,1.442,3.207,3.206c0,1.774-1.438,3.213-3.207,3.213C28.215,68.671,26.781,67.233,26.781,65.458L26.781,65.458z"/>
		<path clip-path="url(#SVGID_6_)" fill="#F6BA10" d="M26.987,65.458c0-1.655,1.343-3.007,3.003-3.007
			c1.663,0,3.004,1.352,3.004,3.007c0,1.673-1.341,3.007-3.004,3.007C28.33,68.465,26.987,67.131,26.987,65.458L26.987,65.458z"/>
		<path clip-path="url(#SVGID_6_)" fill="#F5BC0E" d="M27.181,65.458c0-1.554,1.258-2.804,2.809-2.804s2.808,1.25,2.808,2.804
			c0,1.558-1.257,2.805-2.808,2.805S27.181,67.016,27.181,65.458L27.181,65.458z"/>
		<path clip-path="url(#SVGID_6_)" fill="#F5BE0B" d="M27.379,65.458c0-1.433,1.174-2.598,2.611-2.598
			c1.439,0,2.605,1.165,2.605,2.598c0,1.439-1.166,2.608-2.605,2.608C28.553,68.067,27.379,66.898,27.379,65.458L27.379,65.458z"/>
		<path clip-path="url(#SVGID_6_)" fill="#F4C109" d="M27.576,65.458c0-1.324,1.088-2.398,2.414-2.398s2.407,1.074,2.407,2.398
			c0,1.331-1.081,2.409-2.407,2.409S27.576,66.79,27.576,65.458L27.576,65.458z"/>
		<path clip-path="url(#SVGID_6_)" fill="#F4C306" d="M27.789,65.458c0-1.22,0.985-2.206,2.201-2.206
			c1.218,0,2.203,0.986,2.203,2.206c0,1.224-0.985,2.21-2.203,2.21C28.774,67.668,27.789,66.682,27.789,65.458L27.789,65.458z"/>
		<path clip-path="url(#SVGID_6_)" fill="#F3C504" d="M27.985,65.458c0-1.095,0.9-2.007,2.005-2.007
			c1.105,0,2.003,0.912,2.003,2.007c0,1.112-0.898,2.007-2.003,2.007C28.886,67.465,27.985,66.571,27.985,65.458L27.985,65.458z"/>
		<path clip-path="url(#SVGID_6_)" fill="#F3C701" d="M28.183,65.458c0-0.993,0.813-1.794,1.808-1.794
			c0.997,0,1.804,0.801,1.804,1.794c0,1-0.808,1.812-1.804,1.812C28.995,67.27,28.183,66.458,28.183,65.458L28.183,65.458z"/>
		<path clip-path="url(#SVGID_6_)" fill="#F2C900" d="M28.387,65.458c0-0.882,0.711-1.598,1.603-1.598
			c0.885,0,1.603,0.716,1.603,1.598s-0.718,1.608-1.603,1.608C29.099,67.067,28.387,66.34,28.387,65.458L28.387,65.458z"/>
		<path clip-path="url(#SVGID_6_)" fill="#F2CB00" d="M28.583,65.458c0-0.77,0.632-1.398,1.407-1.398s1.406,0.629,1.406,1.398
			c0,0.774-0.63,1.409-1.406,1.409S28.583,66.233,28.583,65.458L28.583,65.458z"/>
		<path clip-path="url(#SVGID_6_)" fill="#F1CD00" d="M28.788,65.458c0-0.658,0.537-1.199,1.203-1.199
			c0.667,0,1.201,0.541,1.201,1.199c0,0.673-0.534,1.206-1.201,1.206C29.325,66.665,28.788,66.131,28.788,65.458L28.788,65.458z"/>
		<path clip-path="url(#SVGID_6_)" fill="#F1D000" d="M28.987,65.458c0-0.557,0.448-1.007,1.003-1.007s1.003,0.45,1.003,1.007
			c0,0.558-0.448,1-1.003,1S28.987,66.016,28.987,65.458L28.987,65.458z"/>
		<path clip-path="url(#SVGID_6_)" fill="#F0D200" d="M29.183,65.458c0-0.432,0.365-0.797,0.808-0.797
			c0.441,0,0.806,0.365,0.806,0.797c0,0.446-0.365,0.812-0.806,0.812C29.548,66.27,29.183,65.905,29.183,65.458L29.183,65.458z"/>
		<path clip-path="url(#SVGID_6_)" fill="#EFD400" d="M29.387,65.458c0-0.341,0.269-0.598,0.603-0.598c0.328,0,0.6,0.257,0.6,0.598
			c0,0.338-0.272,0.608-0.6,0.608C29.656,66.067,29.387,65.796,29.387,65.458L29.387,65.458z"/>
		<path clip-path="url(#SVGID_6_)" fill="#EFD600" d="M29.592,65.458c0-0.22,0.174-0.392,0.398-0.392
			c0.223,0,0.397,0.172,0.397,0.392c0,0.23-0.174,0.402-0.397,0.402C29.766,65.861,29.592,65.689,29.592,65.458L29.592,65.458z"/>
		<path clip-path="url(#SVGID_6_)" fill="#EED800" d="M29.788,65.458c0-0.107,0.088-0.199,0.203-0.199
			c0.106,0,0.201,0.092,0.201,0.199c0,0.118-0.095,0.203-0.201,0.203C29.875,65.662,29.788,65.577,29.788,65.458L29.788,65.458z"/>
	</g>
	<g>
		<defs>
			<polygon id="SVGID_7_" points="20.647,60.732 23.331,62.246 20.289,62.692 19.689,65.719 18.307,62.972 15.253,63.324 
				17.44,61.174 16.152,58.38 18.89,59.79 21.148,57.702 20.647,60.732 			"/>
		</defs>
		<clipPath id="SVGID_8_">
			<use xlink:href="#SVGID_7_"  overflow="visible"/>
		</clipPath>
		<polygon clip-path="url(#SVGID_8_)" fill="#FCAF17" points="15.253,57.702 23.331,57.702 23.331,65.719 15.253,65.719 
			15.253,57.702 		"/>
		<path clip-path="url(#SVGID_8_)" fill="#FAB116" d="M15.471,61.702c0-2.102,1.711-3.808,3.814-3.808
			c2.113,0,3.826,1.706,3.826,3.808c0,2.122-1.713,3.828-3.826,3.828C17.182,65.53,15.471,63.824,15.471,61.702L15.471,61.702z"/>
		<path clip-path="url(#SVGID_8_)" fill="#F9B314" d="M15.672,61.702c0-1.993,1.62-3.608,3.613-3.608
			c2.003,0,3.624,1.615,3.624,3.608c0,2.007-1.62,3.622-3.624,3.622C17.292,65.324,15.672,63.708,15.672,61.702L15.672,61.702z"/>
		<path clip-path="url(#SVGID_8_)" fill="#F8B513" d="M15.866,61.702c0-1.878,1.536-3.416,3.419-3.416
			c1.897,0,3.423,1.538,3.423,3.416c0,1.899-1.525,3.416-3.423,3.416C17.402,65.118,15.866,63.601,15.866,61.702L15.866,61.702z"/>
		<path clip-path="url(#SVGID_8_)" fill="#F7B711" d="M16.072,61.702c0-1.764,1.446-3.209,3.213-3.209
			c1.777,0,3.22,1.445,3.22,3.209c0,1.78-1.442,3.224-3.22,3.224C17.519,64.925,16.072,63.482,16.072,61.702L16.072,61.702z"/>
		<path clip-path="url(#SVGID_8_)" fill="#F6BA10" d="M16.275,61.702c0-1.655,1.347-3.01,3.01-3.01c1.676,0,3.022,1.354,3.022,3.01
			c0,1.68-1.347,3.031-3.022,3.031C17.622,64.733,16.275,63.381,16.275,61.702L16.275,61.702z"/>
		<path clip-path="url(#SVGID_8_)" fill="#F5BC0E" d="M16.473,61.702c0-1.547,1.26-2.811,2.813-2.811
			c1.558,0,2.818,1.264,2.818,2.811c0,1.567-1.26,2.818-2.818,2.818C17.733,64.52,16.473,63.269,16.473,61.702L16.473,61.702z"/>
		<path clip-path="url(#SVGID_8_)" fill="#F5BE0B" d="M16.674,61.702c0-1.442,1.172-2.608,2.611-2.608
			c1.448,0,2.62,1.166,2.62,2.608c0,1.446-1.172,2.615-2.62,2.615C17.846,64.317,16.674,63.148,16.674,61.702L16.674,61.702z"/>
		<path clip-path="url(#SVGID_8_)" fill="#F4C109" d="M16.875,61.702c0-1.334,1.086-2.402,2.411-2.402
			c1.336,0,2.424,1.068,2.424,2.402c0,1.338-1.088,2.423-2.424,2.423C17.961,64.125,16.875,63.04,16.875,61.702L16.875,61.702z"/>
		<path clip-path="url(#SVGID_8_)" fill="#F4C306" d="M17.079,61.702c0-1.213,0.992-2.196,2.206-2.196
			c1.227,0,2.216,0.983,2.216,2.196c0,1.23-0.99,2.224-2.216,2.224C18.071,63.925,17.079,62.932,17.079,61.702L17.079,61.702z"/>
		<path clip-path="url(#SVGID_8_)" fill="#F3C504" d="M17.285,61.702c0-1.104,0.896-2.007,2-2.007c1.113,0,2.016,0.902,2.016,2.007
			c0,1.111-0.902,2.018-2.016,2.018C18.181,63.719,17.285,62.813,17.285,61.702L17.285,61.702z"/>
		<path clip-path="url(#SVGID_8_)" fill="#F3C701" d="M17.481,61.702c0-0.993,0.806-1.794,1.804-1.794
			c1.005,0,1.816,0.801,1.816,1.794c0,1-0.811,1.821-1.816,1.821C18.287,63.523,17.481,62.702,17.481,61.702L17.481,61.702z"/>
		<path clip-path="url(#SVGID_8_)" fill="#F2C900" d="M17.684,61.702c0-0.882,0.716-1.604,1.601-1.604
			c0.887,0,1.612,0.723,1.612,1.604c0,0.893-0.725,1.615-1.612,1.615C18.4,63.317,17.684,62.594,17.684,61.702L17.684,61.702z"/>
		<path clip-path="url(#SVGID_8_)" fill="#F2CB00" d="M17.883,61.702c0-0.764,0.626-1.398,1.402-1.398
			c0.786,0,1.407,0.635,1.407,1.398c0,0.787-0.622,1.412-1.407,1.412C18.51,63.114,17.883,62.489,17.883,61.702L17.883,61.702z"/>
		<path clip-path="url(#SVGID_8_)" fill="#F1CD00" d="M18.083,61.702c0-0.662,0.541-1.202,1.203-1.202
			c0.667,0,1.211,0.54,1.211,1.202c0,0.676-0.544,1.224-1.211,1.224C18.623,62.925,18.083,62.377,18.083,61.702L18.083,61.702z"/>
		<path clip-path="url(#SVGID_8_)" fill="#F1D000" d="M18.284,61.702c0-0.551,0.449-1.007,1.001-1.007
			c0.561,0,1.009,0.456,1.009,1.007c0,0.567-0.448,1.018-1.009,1.018C18.733,62.719,18.284,62.269,18.284,61.702L18.284,61.702z"/>
		<path clip-path="url(#SVGID_8_)" fill="#F0D200" d="M18.481,61.702c0-0.439,0.361-0.801,0.804-0.801
			c0.448,0,0.806,0.361,0.806,0.801c0,0.449-0.358,0.814-0.806,0.814C18.843,62.516,18.481,62.151,18.481,61.702L18.481,61.702z"/>
		<path clip-path="url(#SVGID_8_)" fill="#EFD400" d="M18.686,61.702c0-0.32,0.272-0.598,0.6-0.598c0.334,0,0.605,0.277,0.605,0.598
			c0,0.342-0.271,0.608-0.605,0.608C18.958,62.31,18.686,62.043,18.686,61.702L18.686,61.702z"/>
		<path clip-path="url(#SVGID_8_)" fill="#EFD600" d="M18.89,61.702c0-0.213,0.181-0.392,0.395-0.392
			c0.227,0,0.404,0.179,0.404,0.392c0,0.229-0.177,0.412-0.404,0.412C19.071,62.114,18.89,61.931,18.89,61.702L18.89,61.702z"/>
		<path clip-path="url(#SVGID_8_)" fill="#EED800" d="M19.086,61.702c0-0.102,0.088-0.186,0.199-0.186
			c0.112,0,0.208,0.084,0.208,0.186c0,0.122-0.096,0.203-0.208,0.203C19.174,61.905,19.086,61.824,19.086,61.702L19.086,61.702z"/>
	</g>
	<g>
		<defs>
			<polygon id="SVGID_9_" points="12.466,52.968 14.401,55.364 11.41,54.661 9.732,57.239 9.471,54.181 6.492,53.387 9.333,52.184 
				9.173,49.124 11.18,51.448 14.054,50.339 12.466,52.968 			"/>
		</defs>
		<clipPath id="SVGID_10_">
			<use xlink:href="#SVGID_9_"  overflow="visible"/>
		</clipPath>
		<polygon clip-path="url(#SVGID_10_)" fill="#FCAF17" points="6.492,49.124 14.401,49.124 14.401,57.239 6.492,57.239 
			6.492,49.124 		"/>
		<path clip-path="url(#SVGID_10_)" fill="#FAB116" d="M6.643,53.181c0-2.104,1.705-3.801,3.806-3.801
			c2.103,0,3.811,1.696,3.811,3.801s-1.708,3.805-3.811,3.805C8.347,56.986,6.643,55.286,6.643,53.181L6.643,53.181z"/>
		<path clip-path="url(#SVGID_10_)" fill="#F9B314" d="M6.84,53.181c0-1.993,1.615-3.605,3.608-3.605
			c1.993,0,3.605,1.612,3.605,3.605c0,1.997-1.612,3.608-3.605,3.608C8.455,56.79,6.84,55.178,6.84,53.181L6.84,53.181z"/>
		<path clip-path="url(#SVGID_10_)" fill="#F8B513" d="M7.038,53.181c0-1.886,1.529-3.402,3.411-3.402s3.411,1.517,3.411,3.402
			c0,1.892-1.529,3.405-3.411,3.405S7.038,55.073,7.038,53.181L7.038,53.181z"/>
		<path clip-path="url(#SVGID_10_)" fill="#F7B711" d="M7.242,53.181c0-1.773,1.435-3.203,3.207-3.203s3.206,1.43,3.206,3.203
			c0,1.784-1.434,3.213-3.206,3.213S7.242,54.965,7.242,53.181L7.242,53.181z"/>
		<path clip-path="url(#SVGID_10_)" fill="#F6BA10" d="M7.445,53.181c0-1.652,1.339-3.004,3.003-3.004
			c1.661,0,3.007,1.352,3.007,3.004c0,1.662-1.346,3.007-3.007,3.007C8.785,56.188,7.445,54.843,7.445,53.181L7.445,53.181z"/>
		<path clip-path="url(#SVGID_10_)" fill="#F5BC0E" d="M7.645,53.181c0-1.551,1.255-2.814,2.804-2.814
			c1.551,0,2.808,1.264,2.808,2.814c0,1.554-1.257,2.811-2.808,2.811C8.899,55.992,7.645,54.735,7.645,53.181L7.645,53.181z"/>
		<path clip-path="url(#SVGID_10_)" fill="#F5BE0B" d="M7.845,53.181c0-1.433,1.169-2.608,2.604-2.608
			c1.439,0,2.61,1.176,2.61,2.608c0,1.442-1.171,2.608-2.61,2.608C9.015,55.79,7.845,54.624,7.845,53.181L7.845,53.181z"/>
		<path clip-path="url(#SVGID_10_)" fill="#F4C109" d="M8.045,53.181c0-1.324,1.079-2.409,2.404-2.409c1.33,0,2.4,1.085,2.4,2.409
			c0,1.334-1.071,2.402-2.4,2.402C9.124,55.583,8.045,54.515,8.045,53.181L8.045,53.181z"/>
		<path clip-path="url(#SVGID_10_)" fill="#F4C306" d="M8.242,53.181c0-1.229,0.985-2.203,2.207-2.203
			c1.221,0,2.203,0.974,2.203,2.203c0,1.22-0.981,2.206-2.203,2.206C9.227,55.387,8.242,54.401,8.242,53.181L8.242,53.181z"/>
		<path clip-path="url(#SVGID_10_)" fill="#F3C504" d="M8.449,53.181c0-1.102,0.897-2,2-2c1.11,0,2.007,0.898,2.007,2
			c0,1.104-0.897,2.007-2.007,2.007C9.346,55.188,8.449,54.286,8.449,53.181L8.449,53.181z"/>
		<path clip-path="url(#SVGID_10_)" fill="#F3C701" d="M8.645,53.181c0-0.997,0.808-1.801,1.804-1.801
			c0.993,0,1.799,0.804,1.799,1.801c0,0.993-0.806,1.811-1.799,1.811C9.452,54.992,8.645,54.174,8.645,53.181L8.645,53.181z"/>
		<path clip-path="url(#SVGID_10_)" fill="#F2C900" d="M8.844,53.181c0-0.889,0.72-1.608,1.605-1.608
			c0.892,0,1.603,0.72,1.603,1.608c0,0.878-0.711,1.604-1.603,1.604C9.563,54.786,8.844,54.059,8.844,53.181L8.844,53.181z"/>
		<path clip-path="url(#SVGID_10_)" fill="#F2CB00" d="M9.046,53.181c0-0.78,0.628-1.396,1.402-1.396
			c0.777,0,1.402,0.615,1.402,1.396c0,0.771-0.625,1.396-1.402,1.396C9.675,54.577,9.046,53.952,9.046,53.181L9.046,53.181z"/>
		<path clip-path="url(#SVGID_10_)" fill="#F1CD00" d="M9.244,53.181c0-0.666,0.542-1.206,1.205-1.206
			c0.661,0,1.205,0.54,1.205,1.206c0,0.669-0.544,1.199-1.205,1.199C9.787,54.38,9.244,53.85,9.244,53.181L9.244,53.181z"/>
		<path clip-path="url(#SVGID_10_)" fill="#F1D000" d="M9.449,53.181c0-0.567,0.442-1.007,1-1.007c0.554,0,1.003,0.439,1.003,1.007
			c0,0.544-0.449,1-1.003,1C9.891,54.181,9.449,53.725,9.449,53.181L9.449,53.181z"/>
		<path clip-path="url(#SVGID_10_)" fill="#F0D200" d="M9.648,53.181c0-0.442,0.36-0.811,0.801-0.811
			c0.439,0,0.804,0.368,0.804,0.811c0,0.439-0.365,0.804-0.804,0.804C10.008,53.985,9.648,53.621,9.648,53.181L9.648,53.181z"/>
		<path clip-path="url(#SVGID_10_)" fill="#EFD400" d="M9.849,53.181c0-0.331,0.269-0.608,0.6-0.608
			c0.329,0,0.603,0.277,0.603,0.608c0,0.328-0.274,0.598-0.603,0.598C10.118,53.779,9.849,53.509,9.849,53.181L9.849,53.181z"/>
		<path clip-path="url(#SVGID_10_)" fill="#EFD600" d="M10.052,53.181c0-0.227,0.176-0.396,0.397-0.396
			c0.223,0,0.402,0.169,0.402,0.396s-0.179,0.398-0.402,0.398C10.228,53.58,10.052,53.408,10.052,53.181L10.052,53.181z"/>
		<path clip-path="url(#SVGID_10_)" fill="#EED800" d="M10.248,53.181c0-0.108,0.089-0.196,0.201-0.196
			c0.11,0,0.204,0.088,0.204,0.196s-0.094,0.199-0.204,0.199C10.337,53.38,10.248,53.29,10.248,53.181L10.248,53.181z"/>
	</g>
	<g>
		<defs>
			<polygon id="SVGID_11_" points="8.391,42.772 9.298,45.708 6.785,43.937 4.266,45.714 5.163,42.772 2.691,40.92 5.771,40.873 
				6.763,37.951 7.77,40.873 10.842,40.91 8.391,42.772 			"/>
		</defs>
		<clipPath id="SVGID_12_">
			<use xlink:href="#SVGID_11_"  overflow="visible"/>
		</clipPath>
		<polygon clip-path="url(#SVGID_12_)" fill="#FCAF17" points="2.691,37.951 10.842,37.951 10.842,45.714 2.691,45.714 
			2.691,37.951 		"/>
		<path clip-path="url(#SVGID_12_)" fill="#FAB116" d="M2.989,41.842c0-2.091,1.692-3.787,3.777-3.787
			c2.091,0,3.784,1.696,3.784,3.787c0,2.085-1.692,3.761-3.784,3.761C4.681,45.603,2.989,43.927,2.989,41.842L2.989,41.842z"/>
		<path clip-path="url(#SVGID_12_)" fill="#F9B314" d="M3.187,41.842c0-1.979,1.608-3.584,3.58-3.584
			c1.981,0,3.583,1.604,3.583,3.584c0,1.963-1.602,3.564-3.583,3.564C4.794,45.407,3.187,43.805,3.187,41.842L3.187,41.842z"/>
		<path clip-path="url(#SVGID_12_)" fill="#F8B513" d="M3.387,41.842c0-1.878,1.516-3.385,3.379-3.385
			c1.873,0,3.39,1.507,3.39,3.385c0,1.865-1.517,3.372-3.39,3.372C4.903,45.214,3.387,43.708,3.387,41.842L3.387,41.842z"/>
		<path clip-path="url(#SVGID_12_)" fill="#F7B711" d="M3.588,41.842c0-1.771,1.424-3.192,3.178-3.192
			c1.758,0,3.189,1.422,3.189,3.192c0,1.754-1.431,3.166-3.189,3.166C5.013,45.008,3.588,43.596,3.588,41.842L3.588,41.842z"/>
		<path clip-path="url(#SVGID_12_)" fill="#F6BA10" d="M3.784,41.842c0-1.662,1.336-2.993,2.982-2.993
			c1.652,0,2.985,1.331,2.985,2.993c0,1.636-1.333,2.974-2.985,2.974C5.121,44.816,3.784,43.478,3.784,41.842L3.784,41.842z"/>
		<path clip-path="url(#SVGID_12_)" fill="#F5BC0E" d="M3.984,41.842c0-1.544,1.25-2.79,2.782-2.79c1.537,0,2.787,1.246,2.787,2.79
			c0,1.527-1.25,2.777-2.787,2.777C5.234,44.62,3.984,43.37,3.984,41.842L3.984,41.842z"/>
		<path clip-path="url(#SVGID_12_)" fill="#F5BE0B" d="M4.187,41.842c0-1.436,1.154-2.591,2.58-2.591
			c1.427,0,2.586,1.155,2.586,2.591c0,1.416-1.159,2.571-2.586,2.571C5.34,44.414,4.187,43.258,4.187,41.842L4.187,41.842z"/>
		<path clip-path="url(#SVGID_12_)" fill="#F4C109" d="M4.384,41.842c0-1.327,1.071-2.395,2.382-2.395
			c1.321,0,2.39,1.067,2.39,2.395c0,1.308-1.069,2.375-2.39,2.375C5.455,44.217,4.384,43.15,4.384,41.842L4.384,41.842z"/>
		<path clip-path="url(#SVGID_12_)" fill="#F4C306" d="M4.578,41.842c0-1.213,0.983-2.192,2.188-2.192
			c1.218,0,2.191,0.979,2.191,2.192c0,1.199-0.973,2.18-2.191,2.18C5.562,44.022,4.578,43.042,4.578,41.842L4.578,41.842z"/>
		<path clip-path="url(#SVGID_12_)" fill="#F3C504" d="M4.786,41.842c0-1.104,0.88-2,1.98-2c1.098,0,1.993,0.896,1.993,2
			c0,1.095-0.895,1.98-1.993,1.98C5.666,43.823,4.786,42.937,4.786,41.842L4.786,41.842z"/>
		<path clip-path="url(#SVGID_12_)" fill="#F3C701" d="M4.977,41.842c0-0.993,0.808-1.794,1.789-1.794
			c0.997,0,1.792,0.801,1.792,1.794c0,0.983-0.795,1.777-1.792,1.777C5.785,43.62,4.977,42.826,4.977,41.842L4.977,41.842z"/>
		<path clip-path="url(#SVGID_12_)" fill="#F2C900" d="M5.178,41.842c0-0.892,0.709-1.602,1.588-1.602
			c0.88,0,1.595,0.71,1.595,1.602c0,0.872-0.715,1.585-1.595,1.585C5.888,43.427,5.178,42.714,5.178,41.842L5.178,41.842z"/>
		<path clip-path="url(#SVGID_12_)" fill="#F2CB00" d="M5.377,41.842c0-0.783,0.622-1.401,1.389-1.401
			c0.769,0,1.397,0.618,1.397,1.401c0,0.764-0.628,1.386-1.397,1.386C5.999,43.228,5.377,42.606,5.377,41.842L5.377,41.842z"/>
		<path clip-path="url(#SVGID_12_)" fill="#F1CD00" d="M5.573,41.842c0-0.676,0.536-1.206,1.193-1.206
			c0.664,0,1.191,0.53,1.191,1.206c0,0.652-0.527,1.187-1.191,1.187C6.109,43.029,5.573,42.495,5.573,41.842L5.573,41.842z"/>
		<path clip-path="url(#SVGID_12_)" fill="#F1D000" d="M5.772,41.842c0-0.551,0.45-1.007,0.994-1.007
			c0.552,0,1.003,0.456,1.003,1.007c0,0.544-0.451,0.986-1.003,0.986C6.222,42.829,5.772,42.386,5.772,41.842L5.772,41.842z"/>
		<path clip-path="url(#SVGID_12_)" fill="#F0D200" d="M5.976,41.842c0-0.442,0.354-0.814,0.791-0.814
			c0.444,0,0.801,0.372,0.801,0.814s-0.356,0.787-0.801,0.787C6.33,42.629,5.976,42.285,5.976,41.842L5.976,41.842z"/>
		<path clip-path="url(#SVGID_12_)" fill="#EFD400" d="M6.167,41.842c0-0.341,0.272-0.607,0.6-0.607
			c0.329,0,0.601,0.267,0.601,0.607c0,0.314-0.272,0.592-0.601,0.592C6.438,42.434,6.167,42.157,6.167,41.842L6.167,41.842z"/>
		<path clip-path="url(#SVGID_12_)" fill="#EFD600" d="M6.371,41.842c0-0.223,0.179-0.412,0.396-0.412
			c0.223,0,0.397,0.189,0.397,0.412c0,0.21-0.174,0.399-0.397,0.399C6.55,42.242,6.371,42.052,6.371,41.842L6.371,41.842z"/>
		<path clip-path="url(#SVGID_12_)" fill="#EED800" d="M6.572,41.842c0-0.121,0.088-0.199,0.194-0.199
			c0.111,0,0.203,0.078,0.203,0.199c0,0.102-0.091,0.192-0.203,0.192C6.66,42.035,6.572,41.944,6.572,41.842L6.572,41.842z"/>
	</g>
	<g>
		<defs>
			<polygon id="SVGID_13_" points="8.317,32.058 7.518,35.035 6.32,32.201 3.246,32.359 5.573,30.349 4.469,27.477 7.109,29.069 
				9.496,27.129 8.802,30.129 11.378,31.798 8.317,32.058 			"/>
		</defs>
		<clipPath id="SVGID_14_">
			<use xlink:href="#SVGID_13_"  overflow="visible"/>
		</clipPath>
		<polygon clip-path="url(#SVGID_14_)" fill="#FCAF17" points="4.337,26.227 12.118,27.595 10.709,35.606 2.924,34.227 
			4.337,26.227 		"/>
		<path clip-path="url(#SVGID_14_)" fill="#FAB116" d="M3.769,30.248c0.37-2.078,2.34-3.456,4.411-3.102
			c2.078,0.368,3.458,2.352,3.095,4.426c-0.37,2.064-2.35,3.449-4.419,3.088S3.409,32.312,3.769,30.248L3.769,30.248z"/>
		<path clip-path="url(#SVGID_14_)" fill="#F9B314" d="M3.969,30.285c0.346-1.956,2.22-3.273,4.179-2.936
			c1.961,0.357,3.269,2.223,2.924,4.192c-0.35,1.949-2.214,3.257-4.176,2.923C4.937,34.116,3.621,32.248,3.969,30.285L3.969,30.285z
			"/>
		<path clip-path="url(#SVGID_14_)" fill="#F8B513" d="M4.165,30.319c0.329-1.849,2.091-3.089,3.953-2.764
			c1.85,0.331,3.086,2.095,2.762,3.945c-0.33,1.849-2.1,3.092-3.951,2.764C5.079,33.927,3.84,32.169,4.165,30.319L4.165,30.319z"/>
		<path clip-path="url(#SVGID_14_)" fill="#F7B711" d="M4.366,30.349c0.306-1.74,1.971-2.913,3.711-2.599
			c1.744,0.305,2.913,1.97,2.602,3.713c-0.307,1.744-1.966,2.909-3.711,2.599C5.227,33.754,4.053,32.092,4.366,30.349L4.366,30.349z
			"/>
		<path clip-path="url(#SVGID_14_)" fill="#F6BA10" d="M4.556,30.389c0.292-1.635,1.855-2.733,3.489-2.439
			c1.63,0.291,2.73,1.849,2.438,3.48c-0.287,1.639-1.843,2.727-3.483,2.439C5.369,33.583,4.271,32.021,4.556,30.389L4.556,30.389z"
			/>
		<path clip-path="url(#SVGID_14_)" fill="#F5BC0E" d="M4.756,30.419c0.273-1.526,1.721-2.54,3.253-2.28
			c1.525,0.273,2.541,1.724,2.274,3.254c-0.269,1.533-1.725,2.551-3.245,2.271C5.506,33.4,4.494,31.94,4.756,30.419L4.756,30.419z"
			/>
		<path clip-path="url(#SVGID_14_)" fill="#F5BE0B" d="M4.955,30.451c0.247-1.409,1.602-2.352,3.019-2.105
			c1.417,0.25,2.363,1.595,2.115,3.018C9.833,32.785,8.482,33.72,7.07,33.47C5.651,33.224,4.705,31.87,4.955,30.451L4.955,30.451z"
			/>
		<path clip-path="url(#SVGID_14_)" fill="#F4C109" d="M5.156,30.484c0.231-1.308,1.478-2.172,2.782-1.942
			c1.311,0.223,2.183,1.479,1.949,2.787c-0.228,1.298-1.479,2.18-2.782,1.942C5.794,33.042,4.926,31.798,5.156,30.484L5.156,30.484z
			"/>
		<path clip-path="url(#SVGID_14_)" fill="#F4C306" d="M5.345,30.525c0.216-1.206,1.363-2,2.558-1.791
			c1.203,0.216,2,1.361,1.787,2.564c-0.209,1.192-1.353,2-2.549,1.787C5.938,32.87,5.141,31.72,5.345,30.525L5.345,30.525z"/>
		<path clip-path="url(#SVGID_14_)" fill="#F3C504" d="M5.544,30.555c0.193-1.078,1.24-1.821,2.33-1.622
			c1.083,0.199,1.816,1.236,1.622,2.331c-0.194,1.078-1.237,1.812-2.316,1.615C6.079,32.68,5.357,31.643,5.544,30.555L5.544,30.555z
			"/>
		<path clip-path="url(#SVGID_14_)" fill="#F3C701" d="M5.746,30.602c0.174-0.989,1.11-1.639,2.088-1.466
			c0.983,0.165,1.637,1.111,1.465,2.077c-0.174,0.987-1.115,1.643-2.091,1.467C6.222,32.507,5.573,31.572,5.746,30.602L5.746,30.602
			z"/>
		<path clip-path="url(#SVGID_14_)" fill="#F2C900" d="M5.938,30.625c0.157-0.864,0.99-1.449,1.864-1.294
			c0.875,0.146,1.451,0.98,1.3,1.855c-0.16,0.871-0.985,1.452-1.86,1.297C6.371,32.335,5.785,31.5,5.938,30.625L5.938,30.625z"/>
		<path clip-path="url(#SVGID_14_)" fill="#F2CB00" d="M6.141,30.673c0.137-0.773,0.858-1.277,1.628-1.152
			c0.755,0.142,1.267,0.868,1.133,1.625c-0.133,0.773-0.865,1.287-1.622,1.146C6.513,32.164,6.006,31.43,6.141,30.673L6.141,30.673z
			"/>
		<path clip-path="url(#SVGID_14_)" fill="#F1CD00" d="M6.337,30.697c0.115-0.646,0.74-1.091,1.394-0.977
			c0.654,0.122,1.093,0.743,0.977,1.402c-0.117,0.646-0.74,1.088-1.394,0.97C6.66,31.981,6.222,31.352,6.337,30.697L6.337,30.697z"
			/>
		<path clip-path="url(#SVGID_14_)" fill="#F1D000" d="M6.535,30.727c0.1-0.54,0.622-0.902,1.161-0.811
			c0.547,0.104,0.91,0.625,0.816,1.169c-0.103,0.551-0.622,0.905-1.166,0.808C6.801,31.798,6.438,31.271,6.535,30.727L6.535,30.727z
			"/>
		<path clip-path="url(#SVGID_14_)" fill="#F0D200" d="M6.73,30.768c0.076-0.433,0.497-0.717,0.929-0.655
			c0.438,0.081,0.728,0.503,0.654,0.938c-0.073,0.433-0.497,0.717-0.929,0.636C6.948,31.625,6.656,31.213,6.73,30.768L6.73,30.768z"
			/>
		<path clip-path="url(#SVGID_14_)" fill="#EFD400" d="M6.928,30.808c0.056-0.331,0.376-0.544,0.699-0.489
			c0.324,0.057,0.546,0.371,0.49,0.695c-0.063,0.328-0.373,0.541-0.701,0.486C7.094,31.444,6.873,31.129,6.928,30.808L6.928,30.808z
			"/>
		<path clip-path="url(#SVGID_14_)" fill="#EFD600" d="M7.126,30.849c0.037-0.233,0.248-0.379,0.463-0.331
			c0.221,0.037,0.366,0.243,0.331,0.456c-0.046,0.22-0.253,0.368-0.473,0.331C7.235,31.271,7.087,31.058,7.126,30.849L7.126,30.849z
			"/>
		<path clip-path="url(#SVGID_14_)" fill="#EED800" d="M7.323,30.879c0.017-0.118,0.124-0.189,0.233-0.166
			c0.106,0.014,0.176,0.122,0.159,0.22c-0.017,0.118-0.118,0.196-0.225,0.166C7.374,31.085,7.305,30.984,7.323,30.879L7.323,30.879z
			"/>
	</g>
	<g>
		<defs>
			<polygon id="SVGID_15_" points="12.185,21.569 10.714,24.273 10.212,21.233 7.188,20.664 9.912,19.263 9.509,16.206 
				11.699,18.363 14.476,17.044 13.099,19.79 15.221,22.02 12.185,21.569 			"/>
		</defs>
		<clipPath id="SVGID_16_">
			<use xlink:href="#SVGID_15_"  overflow="visible"/>
		</clipPath>
		<polygon clip-path="url(#SVGID_16_)" fill="#FCAF17" points="7.188,16.206 15.221,16.206 15.221,24.273 7.188,24.273 
			7.188,16.206 		"/>
		<path clip-path="url(#SVGID_16_)" fill="#FAB116" d="M7.374,20.229c0-2.098,1.72-3.811,3.83-3.811
			c2.117,0,3.818,1.713,3.818,3.811c0,2.12-1.701,3.825-3.818,3.825C9.094,24.054,7.374,22.349,7.374,20.229L7.374,20.229z"/>
		<path clip-path="url(#SVGID_16_)" fill="#F9B314" d="M7.583,20.229c0-1.99,1.613-3.615,3.62-3.615
			c2.002,0,3.624,1.625,3.624,3.615c0,2.007-1.622,3.625-3.624,3.625C9.197,23.854,7.583,22.236,7.583,20.229L7.583,20.229z"/>
		<path clip-path="url(#SVGID_16_)" fill="#F8B513" d="M7.781,20.229c0-1.882,1.532-3.405,3.422-3.405
			c1.889,0,3.423,1.523,3.423,3.405c0,1.898-1.534,3.419-3.423,3.419C9.313,23.648,7.781,22.127,7.781,20.229L7.781,20.229z"/>
		<path clip-path="url(#SVGID_16_)" fill="#F7B711" d="M7.984,20.229c0-1.775,1.439-3.203,3.22-3.203
			c1.781,0,3.215,1.428,3.215,3.203c0,1.791-1.434,3.225-3.215,3.225C9.423,23.454,7.984,22.02,7.984,20.229L7.984,20.229z"/>
		<path clip-path="url(#SVGID_16_)" fill="#F6BA10" d="M8.183,20.229c0-1.655,1.352-3.005,3.021-3.005
			c1.664,0,3.016,1.35,3.016,3.005c0,1.671-1.352,3.025-3.016,3.025C9.535,23.254,8.183,21.9,8.183,20.229L8.183,20.229z"/>
		<path clip-path="url(#SVGID_16_)" fill="#F5BC0E" d="M8.388,20.229c0-1.551,1.26-2.817,2.816-2.817
			c1.554,0,2.819,1.267,2.819,2.817c0,1.562-1.265,2.819-2.819,2.819C9.648,23.048,8.388,21.791,8.388,20.229L8.388,20.229z"/>
		<path clip-path="url(#SVGID_16_)" fill="#F5BE0B" d="M8.59,20.229c0-1.439,1.172-2.604,2.613-2.604
			c1.448,0,2.613,1.165,2.613,2.604c0,1.453-1.166,2.625-2.613,2.625C9.763,22.854,8.59,21.682,8.59,20.229L8.59,20.229z"/>
		<path clip-path="url(#SVGID_16_)" fill="#F4C109" d="M8.793,20.229c0-1.326,1.078-2.402,2.411-2.402
			c1.331,0,2.414,1.076,2.414,2.402c0,1.34-1.083,2.426-2.414,2.426C9.871,22.655,8.793,21.569,8.793,20.229L8.793,20.229z"/>
		<path clip-path="url(#SVGID_16_)" fill="#F4C306" d="M8.991,20.229c0-1.218,0.992-2.211,2.213-2.211
			c1.222,0,2.211,0.993,2.211,2.211c0,1.22-0.99,2.217-2.211,2.217C9.982,22.446,8.991,21.449,8.991,20.229L8.991,20.229z"/>
		<path clip-path="url(#SVGID_16_)" fill="#F3C504" d="M9.193,20.229c0-1.102,0.899-2.009,2.01-2.009c1.112,0,2.01,0.907,2.01,2.009
			c0,1.127-0.898,2.007-2.01,2.007C10.092,22.236,9.193,21.356,9.193,20.229L9.193,20.229z"/>
		<path clip-path="url(#SVGID_16_)" fill="#F3C701" d="M9.391,20.229c0-0.993,0.808-1.803,1.813-1.803
			c1.002,0,1.813,0.81,1.813,1.803c0,1.004-0.811,1.813-1.813,1.813C10.199,22.042,9.391,21.233,9.391,20.229L9.391,20.229z"/>
		<path clip-path="url(#SVGID_16_)" fill="#F2C900" d="M9.594,20.229c0-0.882,0.718-1.597,1.61-1.597
			c0.891,0,1.606,0.715,1.606,1.597c0,0.898-0.716,1.618-1.606,1.618C10.312,21.847,9.594,21.127,9.594,20.229L9.594,20.229z"/>
		<path clip-path="url(#SVGID_16_)" fill="#F2CB00" d="M9.8,20.229c0-0.775,0.622-1.405,1.404-1.405c0.777,0,1.411,0.63,1.411,1.405
			c0,0.791-0.633,1.419-1.411,1.419C10.421,21.648,9.8,21.02,9.8,20.229L9.8,20.229z"/>
		<path clip-path="url(#SVGID_16_)" fill="#F1CD00" d="M10,20.229c0-0.652,0.539-1.202,1.204-1.202c0.661,0,1.205,0.55,1.205,1.202
			c0,0.669-0.544,1.217-1.205,1.217C10.538,21.446,10,20.898,10,20.229L10,20.229z"/>
		<path clip-path="url(#SVGID_16_)" fill="#F1D000" d="M10.195,20.229c0-0.551,0.449-1.005,1.008-1.005
			c0.556,0,1.002,0.454,1.002,1.005c0,0.561-0.446,1.019-1.002,1.019C10.645,21.248,10.195,20.79,10.195,20.229L10.195,20.229z"/>
		<path clip-path="url(#SVGID_16_)" fill="#F0D200" d="M10.399,20.229c0-0.439,0.36-0.803,0.804-0.803s0.803,0.363,0.803,0.803
			c0,0.456-0.358,0.813-0.803,0.813S10.399,20.685,10.399,20.229L10.399,20.229z"/>
		<path clip-path="url(#SVGID_16_)" fill="#EFD400" d="M10.597,20.229c0-0.331,0.269-0.596,0.606-0.596
			c0.331,0,0.603,0.265,0.603,0.596c0,0.34-0.272,0.606-0.603,0.606C10.866,20.835,10.597,20.569,10.597,20.229L10.597,20.229z"/>
		<path clip-path="url(#SVGID_16_)" fill="#EFD600" d="M10.802,20.229c0-0.221,0.183-0.39,0.402-0.39
			c0.218,0,0.402,0.169,0.402,0.39c0,0.231-0.184,0.412-0.402,0.412C10.984,20.641,10.802,20.46,10.802,20.229L10.802,20.229z"/>
		<path clip-path="url(#SVGID_16_)" fill="#EED800" d="M11.003,20.229c0-0.109,0.087-0.192,0.201-0.192
			c0.11,0,0.198,0.083,0.198,0.192c0,0.123-0.088,0.206-0.198,0.206C11.09,20.435,11.003,20.352,11.003,20.229L11.003,20.229z"/>
	</g>
	<g>
		<defs>
			<polygon id="SVGID_17_" points="19.949,13.31 17.497,15.16 18.292,12.197 15.771,10.442 18.836,10.276 19.725,7.332 
				20.836,10.197 23.907,10.137 21.519,12.074 22.532,14.977 19.949,13.31 			"/>
		</defs>
		<clipPath id="SVGID_18_">
			<use xlink:href="#SVGID_17_"  overflow="visible"/>
		</clipPath>
		<polygon clip-path="url(#SVGID_18_)" fill="#FCAF17" points="15.771,7.332 23.907,7.332 23.907,15.16 15.771,15.16 15.771,7.332 
					"/>
		<path clip-path="url(#SVGID_18_)" fill="#FAB116" d="M16.043,11.254c0-2.107,1.696-3.807,3.792-3.807
			c2.097,0,3.796,1.699,3.796,3.807c0,2.086-1.699,3.785-3.796,3.785C17.74,15.04,16.043,13.34,16.043,11.254L16.043,11.254z"/>
		<path clip-path="url(#SVGID_18_)" fill="#F9B314" d="M16.243,11.254c0-1.994,1.608-3.601,3.593-3.601s3.6,1.606,3.6,3.601
			c0,1.984-1.615,3.588-3.6,3.588S16.243,13.239,16.243,11.254L16.243,11.254z"/>
		<path clip-path="url(#SVGID_18_)" fill="#F8B513" d="M16.44,11.254c0-1.881,1.521-3.406,3.396-3.406
			c1.878,0,3.394,1.525,3.394,3.406c0,1.871-1.516,3.396-3.394,3.396C17.961,14.651,16.44,13.125,16.44,11.254L16.44,11.254z"/>
		<path clip-path="url(#SVGID_18_)" fill="#F7B711" d="M16.643,11.254c0-1.772,1.428-3.196,3.193-3.196
			c1.772,0,3.201,1.424,3.201,3.196c0,1.763-1.429,3.188-3.201,3.188C18.071,14.442,16.643,13.017,16.643,11.254L16.643,11.254z"/>
		<path clip-path="url(#SVGID_18_)" fill="#F6BA10" d="M16.843,11.254c0-1.656,1.338-3.002,2.993-3.002c1.654,0,3,1.346,3,3.002
			c0,1.646-1.347,2.984-3,2.984C18.181,14.239,16.843,12.901,16.843,11.254L16.843,11.254z"/>
		<path clip-path="url(#SVGID_18_)" fill="#F5BC0E" d="M17.04,11.254c0-1.545,1.252-2.803,2.796-2.803
			c1.541,0,2.794,1.258,2.794,2.803c0,1.542-1.253,2.797-2.794,2.797C18.292,14.051,17.04,12.796,17.04,11.254L17.04,11.254z"/>
		<path clip-path="url(#SVGID_18_)" fill="#F5BE0B" d="M17.238,11.254c0-1.437,1.162-2.608,2.598-2.608
			c1.434,0,2.597,1.172,2.597,2.608c0,1.427-1.163,2.591-2.597,2.591C18.4,13.845,17.238,12.681,17.238,11.254L17.238,11.254z"/>
		<path clip-path="url(#SVGID_18_)" fill="#F4C109" d="M17.44,11.254c0-1.33,1.069-2.402,2.396-2.402
			c1.321,0,2.397,1.072,2.397,2.402c0,1.313-1.076,2.382-2.397,2.382C18.51,13.636,17.44,12.568,17.44,11.254L17.44,11.254z"/>
		<path clip-path="url(#SVGID_18_)" fill="#F4C306" d="M17.642,11.254c0-1.222,0.981-2.2,2.194-2.2c1.211,0,2.201,0.979,2.201,2.2
			c0,1.2-0.99,2.19-2.201,2.19C18.623,13.445,17.642,12.455,17.642,11.254L17.642,11.254z"/>
		<path clip-path="url(#SVGID_18_)" fill="#F3C504" d="M17.839,11.254c0-1.113,0.894-2.001,1.997-2.001
			c1.102,0,1.999,0.888,1.999,2.001c0,1.104-0.897,1.991-1.999,1.991C18.733,13.246,17.839,12.359,17.839,11.254L17.839,11.254z"/>
		<path clip-path="url(#SVGID_18_)" fill="#F3C701" d="M18.039,11.254c0-1.001,0.804-1.807,1.797-1.807
			c0.99,0,1.803,0.806,1.803,1.807c0,0.991-0.813,1.785-1.803,1.785C18.843,13.04,18.039,12.246,18.039,11.254L18.039,11.254z"/>
		<path clip-path="url(#SVGID_18_)" fill="#F2C900" d="M18.236,11.254c0-0.893,0.711-1.601,1.6-1.601
			c0.882,0,1.602,0.708,1.602,1.601c0,0.864-0.72,1.6-1.602,1.6C18.947,12.854,18.236,12.119,18.236,11.254L18.236,11.254z"/>
		<path clip-path="url(#SVGID_18_)" fill="#F2CB00" d="M18.442,11.254c0-0.772,0.622-1.402,1.394-1.402s1.4,0.63,1.4,1.402
			c0,0.77-0.628,1.394-1.4,1.394S18.442,12.024,18.442,11.254L18.442,11.254z"/>
		<path clip-path="url(#SVGID_18_)" fill="#F1CD00" d="M18.637,11.254c0-0.671,0.537-1.207,1.199-1.207
			c0.661,0,1.205,0.536,1.205,1.207c0,0.662-0.544,1.188-1.205,1.188C19.174,12.442,18.637,11.917,18.637,11.254L18.637,11.254z"/>
		<path clip-path="url(#SVGID_18_)" fill="#F1D000" d="M18.836,11.254c0-0.551,0.449-1.001,1-1.001c0.559,0,1,0.45,1,1.001
			c0,0.538-0.441,0.991-1,0.991C19.285,12.246,18.836,11.792,18.836,11.254L18.836,11.254z"/>
		<path clip-path="url(#SVGID_18_)" fill="#F0D200" d="M19.041,11.254c0-0.45,0.356-0.803,0.795-0.803
			c0.439,0,0.803,0.353,0.803,0.803c0,0.431-0.363,0.794-0.803,0.794C19.397,12.048,19.041,11.685,19.041,11.254L19.041,11.254z"/>
		<path clip-path="url(#SVGID_18_)" fill="#EFD400" d="M19.236,11.254c0-0.342,0.267-0.608,0.6-0.608
			c0.33,0,0.606,0.267,0.606,0.608c0,0.32-0.277,0.594-0.606,0.594C19.503,11.848,19.236,11.575,19.236,11.254L19.236,11.254z"/>
		<path clip-path="url(#SVGID_18_)" fill="#EFD600" d="M19.436,11.254c0-0.23,0.179-0.413,0.4-0.413
			c0.225,0,0.399,0.183,0.399,0.413c0,0.213-0.174,0.394-0.399,0.394C19.615,11.648,19.436,11.467,19.436,11.254L19.436,11.254z"/>
		<path clip-path="url(#SVGID_18_)" fill="#EED800" d="M19.635,11.254c0-0.11,0.09-0.215,0.201-0.215
			c0.113,0,0.205,0.104,0.205,0.215c0,0.101-0.091,0.188-0.205,0.188C19.725,11.442,19.635,11.355,19.635,11.254L19.635,11.254z"/>
	</g>
	<g>
		<defs>
			<polygon id="SVGID_19_" points="30.213,9.417 27.269,10.297 29.051,7.796 27.288,5.276 30.224,6.181 32.082,3.725 32.121,6.802 
				35.026,7.818 32.121,8.811 32.055,11.875 30.213,9.417 			"/>
		</defs>
		<clipPath id="SVGID_20_">
			<use xlink:href="#SVGID_19_"  overflow="visible"/>
		</clipPath>
		<polygon clip-path="url(#SVGID_20_)" fill="#FCAF17" points="27.269,3.725 35.026,3.725 35.026,11.875 27.269,11.875 
			27.269,3.725 		"/>
		<path clip-path="url(#SVGID_20_)" fill="#FAB116" d="M27.372,7.796c0-2.08,1.686-3.772,3.772-3.772
			c2.088,0,3.782,1.692,3.782,3.772c0,2.095-1.694,3.778-3.782,3.778C29.058,11.575,27.372,9.891,27.372,7.796L27.372,7.796z"/>
		<path clip-path="url(#SVGID_20_)" fill="#F9B314" d="M27.568,7.796c0-1.97,1.605-3.578,3.576-3.578
			c1.98,0,3.585,1.608,3.585,3.578c0,1.984-1.605,3.591-3.585,3.591C29.173,11.387,27.568,9.781,27.568,7.796L27.568,7.796z"/>
		<path clip-path="url(#SVGID_20_)" fill="#F8B513" d="M27.766,7.796c0-1.858,1.512-3.372,3.378-3.372s3.387,1.514,3.387,3.372
			c0,1.88-1.521,3.387-3.387,3.387S27.766,9.676,27.766,7.796L27.766,7.796z"/>
		<path clip-path="url(#SVGID_20_)" fill="#F7B711" d="M27.961,7.796c0-1.745,1.429-3.173,3.183-3.173
			c1.764,0,3.186,1.428,3.186,3.173c0,1.769-1.422,3.188-3.186,3.188C29.391,10.984,27.961,9.565,27.961,7.796L27.961,7.796z"/>
		<path clip-path="url(#SVGID_20_)" fill="#F6BA10" d="M28.167,7.796c0-1.638,1.33-2.97,2.977-2.97c1.654,0,2.994,1.332,2.994,2.97
			c0,1.651-1.34,2.993-2.994,2.993C29.497,10.79,28.167,9.448,28.167,7.796L28.167,7.796z"/>
		<path clip-path="url(#SVGID_20_)" fill="#F5BC0E" d="M28.365,7.796c0-1.536,1.249-2.772,2.779-2.772
			c1.542,0,2.786,1.236,2.786,2.772c0,1.544-1.243,2.787-2.786,2.787C29.614,10.583,28.365,9.34,28.365,7.796L28.365,7.796z"/>
		<path clip-path="url(#SVGID_20_)" fill="#F5BE0B" d="M28.561,7.796c0-1.425,1.157-2.578,2.583-2.578
			c1.436,0,2.586,1.153,2.586,2.578c0,1.434-1.15,2.591-2.586,2.591C29.718,10.387,28.561,9.23,28.561,7.796L28.561,7.796z"/>
		<path clip-path="url(#SVGID_20_)" fill="#F4C109" d="M28.766,7.796c0-1.308,1.064-2.372,2.378-2.372
			c1.321,0,2.387,1.064,2.387,2.372c0,1.329-1.066,2.396-2.387,2.396C29.83,10.193,28.766,9.125,28.766,7.796L28.766,7.796z"/>
		<path clip-path="url(#SVGID_20_)" fill="#F4C306" d="M28.958,7.796c0-1.194,0.979-2.173,2.186-2.173
			c1.215,0,2.189,0.979,2.189,2.173c0,1.213-0.975,2.199-2.189,2.199C29.937,9.996,28.958,9.009,28.958,7.796L28.958,7.796z"/>
		<path clip-path="url(#SVGID_20_)" fill="#F3C504" d="M29.159,7.796c0-1.087,0.889-1.979,1.985-1.979
			c1.1,0,1.994,0.892,1.994,1.979c0,1.107-0.894,1.988-1.994,1.988C30.048,9.785,29.159,8.904,29.159,7.796L29.159,7.796z"/>
		<path clip-path="url(#SVGID_20_)" fill="#F3C701" d="M29.357,7.796c0-0.974,0.804-1.779,1.787-1.779
			c0.993,0,1.796,0.806,1.796,1.779c0,0.993-0.803,1.802-1.796,1.802C30.161,9.598,29.357,8.79,29.357,7.796L29.357,7.796z"/>
		<path clip-path="url(#SVGID_20_)" fill="#F2C900" d="M29.555,7.796c0-0.865,0.716-1.582,1.589-1.582
			c0.882,0,1.597,0.717,1.597,1.582c0,0.88-0.715,1.6-1.597,1.6C30.271,9.396,29.555,8.676,29.555,7.796L29.555,7.796z"/>
		<path clip-path="url(#SVGID_20_)" fill="#F2CB00" d="M29.761,7.796c0-0.764,0.622-1.386,1.383-1.386
			c0.772,0,1.394,0.622,1.394,1.386c0,0.778-0.622,1.4-1.394,1.4C30.382,9.197,29.761,8.575,29.761,7.796L29.761,7.796z"/>
		<path clip-path="url(#SVGID_20_)" fill="#F1CD00" d="M29.955,7.796c0-0.652,0.535-1.18,1.189-1.18c0.661,0,1.198,0.527,1.198,1.18
			c0,0.67-0.537,1.199-1.198,1.199C30.49,8.996,29.955,8.466,29.955,7.796L29.955,7.796z"/>
		<path clip-path="url(#SVGID_20_)" fill="#F1D000" d="M30.151,7.796c0-0.544,0.444-0.994,0.993-0.994c0.556,0,1,0.45,1,0.994
			c0,0.557-0.444,1-1,1C30.595,8.796,30.151,8.353,30.151,7.796L30.151,7.796z"/>
		<path clip-path="url(#SVGID_20_)" fill="#F0D200" d="M30.355,7.796c0-0.428,0.346-0.788,0.789-0.788
			c0.443,0,0.803,0.36,0.803,0.788c0,0.449-0.36,0.813-0.803,0.813C30.702,8.609,30.355,8.246,30.355,7.796L30.355,7.796z"/>
		<path clip-path="url(#SVGID_20_)" fill="#EFD400" d="M30.553,7.796c0-0.323,0.265-0.597,0.591-0.597
			c0.331,0,0.598,0.273,0.598,0.597c0,0.338-0.267,0.614-0.598,0.614C30.818,8.411,30.553,8.134,30.553,7.796L30.553,7.796z"/>
		<path clip-path="url(#SVGID_20_)" fill="#EFD600" d="M30.75,7.796c0-0.222,0.183-0.394,0.394-0.394c0.22,0,0.4,0.172,0.4,0.394
			c0,0.228-0.181,0.4-0.4,0.4C30.933,8.197,30.75,8.024,30.75,7.796L30.75,7.796z"/>
		<path clip-path="url(#SVGID_20_)" fill="#EED800" d="M30.952,7.796c0-0.108,0.083-0.191,0.192-0.191
			c0.118,0,0.206,0.083,0.206,0.191c0,0.111-0.088,0.202-0.206,0.202C31.034,7.999,30.952,7.908,30.952,7.796L30.952,7.796z"/>
	</g>
	<g>
		<defs>
			<polygon id="SVGID_21_" points="41.449,9.239 38.425,8.654 41.176,7.26 40.795,4.208 42.966,6.383 45.753,5.088 44.355,7.827 
				46.454,10.073 43.417,9.575 41.926,12.276 41.449,9.239 			"/>
		</defs>
		<clipPath id="SVGID_22_">
			<use xlink:href="#SVGID_21_"  overflow="visible"/>
		</clipPath>
		<polygon clip-path="url(#SVGID_22_)" fill="#FCAF17" points="38.846,4.033 46.934,4.758 46.221,12.662 38.129,11.931 
			38.846,4.033 		"/>
		<path clip-path="url(#SVGID_22_)" fill="#FAB116" d="M38.736,7.999c0.191-2.095,2.045-3.637,4.142-3.446
			c2.097,0.194,3.644,2.037,3.451,4.139c-0.186,2.099-2.037,3.649-4.138,3.453C40.089,11.947,38.547,10.104,38.736,7.999
			L38.736,7.999z"/>
		<path clip-path="url(#SVGID_22_)" fill="#F9B314" d="M38.932,8.024c0.183-1.991,1.938-3.449,3.924-3.277
			c1.988,0.176,3.457,1.937,3.274,3.926c-0.183,1.988-1.938,3.446-3.923,3.274C40.217,11.766,38.76,10.005,38.932,8.024
			L38.932,8.024z"/>
		<path clip-path="url(#SVGID_22_)" fill="#F8B513" d="M39.138,8.04c0.164-1.881,1.823-3.259,3.701-3.087
			c1.879,0.166,3.263,1.828,3.09,3.701c-0.169,1.872-1.819,3.263-3.706,3.087C40.351,11.575,38.971,9.913,39.138,8.04L39.138,8.04z"
			/>
		<path clip-path="url(#SVGID_22_)" fill="#F7B711" d="M39.334,8.058c0.156-1.768,1.717-3.068,3.488-2.911
			c1.766,0.162,3.064,1.72,2.905,3.488c-0.157,1.768-1.716,3.068-3.479,2.911C40.484,11.387,39.175,9.818,39.334,8.058L39.334,8.058
			z"/>
		<path clip-path="url(#SVGID_22_)" fill="#F6BA10" d="M39.537,8.07c0.148-1.652,1.614-2.865,3.262-2.724
			c1.664,0.157,2.873,1.606,2.734,3.266c-0.152,1.664-1.616,2.877-3.269,2.735C40.609,11.19,39.39,9.732,39.537,8.07L39.537,8.07z"
			/>
		<path clip-path="url(#SVGID_22_)" fill="#F5BC0E" d="M39.736,8.095c0.142-1.543,1.503-2.685,3.045-2.551
			c1.555,0.146,2.689,1.51,2.547,3.064c-0.135,1.532-1.501,2.674-3.05,2.535C40.738,11.01,39.601,9.639,39.736,8.095L39.736,8.095z"
			/>
		<path clip-path="url(#SVGID_22_)" fill="#F5BE0B" d="M39.932,8.11c0.135-1.427,1.404-2.486,2.836-2.363
			c1.435,0.127,2.49,1.397,2.363,2.837c-0.135,1.434-1.4,2.489-2.829,2.363C40.863,10.818,39.807,9.546,39.932,8.11L39.932,8.11z"/>
		<path clip-path="url(#SVGID_22_)" fill="#F4C109" d="M40.135,8.125c0.119-1.323,1.295-2.289,2.618-2.173
			c1.323,0.12,2.292,1.286,2.181,2.615c-0.121,1.323-1.292,2.299-2.613,2.18C40.996,10.617,40.02,9.448,40.135,8.125L40.135,8.125z"
			/>
		<path clip-path="url(#SVGID_22_)" fill="#F4C306" d="M40.336,8.14c0.109-1.202,1.181-2.107,2.392-1.988
			c1.218,0.101,2.116,1.18,2.007,2.401c-0.106,1.209-1.188,2.101-2.402,1.993C41.123,10.442,40.225,9.366,40.336,8.14L40.336,8.14z"
			/>
		<path clip-path="url(#SVGID_22_)" fill="#F3C504" d="M40.538,8.167c0.099-1.106,1.071-1.922,2.176-1.821
			c1.102,0.102,1.921,1.078,1.817,2.191c-0.098,1.095-1.068,1.914-2.182,1.803C41.248,10.246,40.441,9.267,40.538,8.167
			L40.538,8.167z"/>
		<path clip-path="url(#SVGID_22_)" fill="#F3C701" d="M40.734,8.19c0.092-0.99,0.968-1.735,1.965-1.638
			c0.99,0.087,1.723,0.963,1.637,1.951c-0.095,1-0.97,1.735-1.967,1.638C41.378,10.047,40.641,9.174,40.734,8.19L40.734,8.19z"/>
		<path clip-path="url(#SVGID_22_)" fill="#F2C900" d="M40.934,8.197c0.08-0.872,0.859-1.527,1.74-1.457
			c0.891,0.087,1.535,0.865,1.461,1.757c-0.084,0.877-0.861,1.536-1.745,1.441C41.501,9.867,40.854,9.084,40.934,8.197L40.934,8.197
			z"/>
		<path clip-path="url(#SVGID_22_)" fill="#F2CB00" d="M41.139,8.215c0.063-0.768,0.75-1.342,1.518-1.27
			c0.772,0.078,1.346,0.757,1.273,1.527c-0.07,0.766-0.753,1.345-1.523,1.279C41.635,9.676,41.066,8.996,41.139,8.215L41.139,8.215z
			"/>
		<path clip-path="url(#SVGID_22_)" fill="#F1CD00" d="M41.336,8.234c0.061-0.659,0.645-1.149,1.306-1.09
			c0.665,0.056,1.15,0.652,1.089,1.308c-0.055,0.658-0.648,1.157-1.311,1.095C41.768,9.489,41.271,8.904,41.336,8.234L41.336,8.234z
			"/>
		<path clip-path="url(#SVGID_22_)" fill="#F1D000" d="M41.531,8.267c0.058-0.564,0.535-0.973,1.088-0.921
			c0.558,0.057,0.969,0.536,0.912,1.099c-0.051,0.551-0.533,0.951-1.084,0.896C41.893,9.291,41.484,8.811,41.531,8.267L41.531,8.267
			z"/>
		<path clip-path="url(#SVGID_22_)" fill="#F0D200" d="M41.736,8.279c0.037-0.452,0.424-0.764,0.866-0.738
			c0.442,0.05,0.772,0.431,0.733,0.877c-0.041,0.446-0.436,0.764-0.875,0.729C42.018,9.11,41.691,8.718,41.736,8.279L41.736,8.279z"
			/>
		<path clip-path="url(#SVGID_22_)" fill="#EFD400" d="M41.932,8.297c0.032-0.336,0.324-0.581,0.656-0.558
			c0.329,0.034,0.579,0.33,0.549,0.671c-0.027,0.326-0.324,0.564-0.657,0.543C42.148,8.919,41.906,8.624,41.932,8.297L41.932,8.297z
			"/>
		<path clip-path="url(#SVGID_22_)" fill="#EFD600" d="M42.133,8.306c0.018-0.227,0.217-0.375,0.434-0.354
			c0.224,0.019,0.386,0.206,0.365,0.428c-0.015,0.229-0.215,0.386-0.432,0.366C42.275,8.725,42.114,8.538,42.133,8.306L42.133,8.306
			z"/>
		<path clip-path="url(#SVGID_22_)" fill="#EED800" d="M42.332,8.325c0.016-0.109,0.108-0.19,0.227-0.185
			c0.102,0.019,0.186,0.112,0.174,0.222c-0.008,0.111-0.107,0.191-0.218,0.191C42.406,8.538,42.32,8.445,42.332,8.325L42.332,8.325z
			"/>
	</g>
	<g>
		<defs>
			<polygon id="SVGID_23_" points="51.598,13.355 48.922,11.861 51.968,11.403 52.576,8.387 53.953,11.144 57,10.79 54.801,12.935 
				56.086,15.741 53.365,14.317 51.092,16.405 51.598,13.355 			"/>
		</defs>
		<clipPath id="SVGID_24_">
			<use xlink:href="#SVGID_23_"  overflow="visible"/>
		</clipPath>
		<polygon clip-path="url(#SVGID_24_)" fill="#FCAF17" points="48.922,8.387 57,8.387 57,16.405 48.922,16.405 48.922,8.387 		"/>
		<path clip-path="url(#SVGID_24_)" fill="#FAB116" d="M49.141,12.396c0-2.12,1.715-3.821,3.824-3.821
			c2.111,0,3.814,1.701,3.814,3.821c0,2.108-1.703,3.816-3.814,3.816C50.855,16.212,49.141,14.504,49.141,12.396L49.141,12.396z"/>
		<path clip-path="url(#SVGID_24_)" fill="#F9B314" d="M49.343,12.396c0-2,1.622-3.615,3.622-3.615c1.995,0,3.618,1.615,3.618,3.615
			s-1.623,3.615-3.618,3.615C50.965,16.011,49.343,14.396,49.343,12.396L49.343,12.396z"/>
		<path clip-path="url(#SVGID_24_)" fill="#F8B513" d="M49.541,12.396c0-1.889,1.535-3.421,3.424-3.421
			c1.885,0,3.421,1.532,3.421,3.421c0,1.88-1.536,3.416-3.421,3.416C51.076,15.812,49.541,14.276,49.541,12.396L49.541,12.396z"/>
		<path clip-path="url(#SVGID_24_)" fill="#F7B711" d="M49.745,12.396c0-1.779,1.44-3.222,3.22-3.222
			c1.771,0,3.215,1.442,3.215,3.222c0,1.772-1.443,3.222-3.215,3.222C51.186,15.618,49.745,14.168,49.745,12.396L49.745,12.396z"/>
		<path clip-path="url(#SVGID_24_)" fill="#F6BA10" d="M49.947,12.396c0-1.671,1.355-3.019,3.018-3.019
			c1.667,0,3.019,1.348,3.019,3.019c0,1.659-1.352,3.009-3.019,3.009C51.303,15.405,49.947,14.055,49.947,12.396L49.947,12.396z"/>
		<path clip-path="url(#SVGID_24_)" fill="#F5BC0E" d="M50.146,12.396c0-1.555,1.261-2.821,2.818-2.821
			c1.555,0,2.814,1.267,2.814,2.821c0,1.551-1.26,2.81-2.814,2.81C51.407,15.206,50.146,13.947,50.146,12.396L50.146,12.396z"/>
		<path clip-path="url(#SVGID_24_)" fill="#F5BE0B" d="M50.348,12.396c0-1.449,1.171-2.615,2.617-2.615
			c1.442,0,2.615,1.166,2.615,2.615c0,1.438-1.173,2.61-2.615,2.61C51.519,15.006,50.348,13.833,50.348,12.396L50.348,12.396z"/>
		<path clip-path="url(#SVGID_24_)" fill="#F4C109" d="M50.547,12.396c0-1.333,1.08-2.416,2.418-2.416
			c1.334,0,2.412,1.083,2.412,2.416c0,1.329-1.078,2.409-2.412,2.409C51.627,14.805,50.547,13.725,50.547,12.396L50.547,12.396z"/>
		<path clip-path="url(#SVGID_24_)" fill="#F4C306" d="M50.755,12.396c0-1.222,0.987-2.225,2.21-2.225
			c1.218,0,2.211,1.003,2.211,2.225c0,1.213-0.993,2.203-2.211,2.203C51.742,14.599,50.755,13.609,50.755,12.396L50.755,12.396z"/>
		<path clip-path="url(#SVGID_24_)" fill="#F3C504" d="M50.951,12.396c0-1.113,0.905-2.009,2.014-2.009
			c1.107,0,2.007,0.896,2.007,2.009c0,1.104-0.899,2-2.007,2C51.856,14.396,50.951,13.5,50.951,12.396L50.951,12.396z"/>
		<path clip-path="url(#SVGID_24_)" fill="#F3C701" d="M51.15,12.396c0-0.993,0.817-1.816,1.814-1.816
			c0.993,0,1.814,0.823,1.814,1.816c0,1-0.821,1.806-1.814,1.806C51.968,14.202,51.15,13.396,51.15,12.396L51.15,12.396z"/>
		<path clip-path="url(#SVGID_24_)" fill="#F2C900" d="M51.356,12.396c0-0.898,0.715-1.615,1.608-1.615
			c0.887,0,1.609,0.717,1.609,1.615c0,0.892-0.723,1.6-1.609,1.6C52.071,13.996,51.356,13.288,51.356,12.396L51.356,12.396z"/>
		<path clip-path="url(#SVGID_24_)" fill="#F2CB00" d="M51.558,12.396c0-0.782,0.626-1.412,1.407-1.412
			c0.779,0,1.405,0.63,1.405,1.412c0,0.778-0.626,1.4-1.405,1.4C52.184,13.796,51.558,13.174,51.558,12.396L51.558,12.396z"/>
		<path clip-path="url(#SVGID_24_)" fill="#F1CD00" d="M51.76,12.396c0-0.664,0.536-1.213,1.205-1.213
			c0.664,0,1.197,0.549,1.197,1.213c0,0.662-0.533,1.213-1.197,1.213C52.296,13.609,51.76,13.058,51.76,12.396L51.76,12.396z"/>
		<path clip-path="url(#SVGID_24_)" fill="#F1D000" d="M51.959,12.396c0-0.558,0.448-1.009,1.006-1.009
			c0.557,0,1.005,0.451,1.005,1.009c0,0.551-0.448,1.009-1.005,1.009C52.407,13.405,51.959,12.947,51.959,12.396L51.959,12.396z"/>
		<path clip-path="url(#SVGID_24_)" fill="#F0D200" d="M52.164,12.396c0-0.449,0.354-0.813,0.801-0.813
			c0.444,0,0.806,0.363,0.806,0.813c0,0.442-0.361,0.803-0.806,0.803C52.519,13.199,52.164,12.838,52.164,12.396L52.164,12.396z"/>
		<path clip-path="url(#SVGID_24_)" fill="#EFD400" d="M52.359,12.396c0-0.342,0.274-0.606,0.605-0.606c0.329,0,0.6,0.265,0.6,0.606
			c0,0.329-0.271,0.591-0.6,0.591C52.634,12.987,52.359,12.725,52.359,12.396L52.359,12.396z"/>
		<path clip-path="url(#SVGID_24_)" fill="#EFD600" d="M52.566,12.396c0-0.229,0.17-0.412,0.398-0.412
			c0.219,0,0.404,0.184,0.404,0.412c0,0.218-0.186,0.4-0.404,0.4C52.736,12.796,52.566,12.614,52.566,12.396L52.566,12.396z"/>
		<path clip-path="url(#SVGID_24_)" fill="#EED800" d="M52.764,12.396c0-0.113,0.092-0.199,0.201-0.199
			c0.111,0,0.199,0.086,0.199,0.199c0,0.102-0.088,0.194-0.199,0.194C52.855,12.59,52.764,12.498,52.764,12.396L52.764,12.396z"/>
	</g>
</g>
</svg>
