<?xml version="1.0" encoding="utf-8"?>
<!-- Generator: Adobe Illustrator 16.0.3, SVG Export Plug-In . SVG Version: 6.00 Build 0)  -->
<!DOCTYPE svg PUBLIC "-//W3C//DTD SVG 1.1//EN" "http://www.w3.org/Graphics/SVG/1.1/DTD/svg11.dtd">
<svg version="1.1" id="Layer_4" xmlns="http://www.w3.org/2000/svg" xmlns:xlink="http://www.w3.org/1999/xlink" x="0px" y="0px"
	 width="119.151px" height="24.474px" viewBox="0 0 119.151 24.474" enable-background="new 0 0 119.151 24.474"
	 xml:space="preserve">
<g>
	<g>
		<path fill="#A93439" d="M109.888,1.742v5.971h-1.563V6.748h-0.035c-0.595,0.904-1.479,1.061-1.957,1.061
			c-0.739,0-2.195-0.156-2.195-2.279V1.742h1.622v3.525c0,0.404,0.05,1.214,1.052,1.214c0.942,0,1.456-0.845,1.456-1.682V1.742
			H109.888z"/>
		<path fill="#A93439" d="M111.99,1.842c0.74-0.299,1.432-0.404,2.267-0.404c2.506,0,2.731,1.442,2.731,2.374v3.901h-1.586V6.806
			h-0.025c-0.13,0.264-0.583,1.003-1.931,1.003c-1.564,0-2.197-0.919-2.197-1.885c0-0.848,0.442-2.039,3.067-2.039
			c0.228,0,0.467,0.055,0.693,0.007c0.237-0.046,0.309-0.37,0.32-0.526c0.038-0.531-0.723-0.795-1.361-0.795
			c-0.535,0-1.156,0.082-1.979,0.55V1.842z M115.092,4.909c-0.895,0-2.195,0.012-2.195,1.002c0,0.44,0.276,0.801,0.991,0.801
			c0.668,0,1.479-0.311,1.479-1.649V4.909H115.092z"/>
	</g>
	<g>
		<path fill="#A93439" d="M59.903,10.198c-2.454,0-3.497,2.289-3.497,4.333c0,2.024,1.043,4.314,3.497,4.314
			c2.452,0,3.497-2.29,3.497-4.314C63.4,12.487,62.355,10.198,59.903,10.198z"/>
		<path fill="#A93439" d="M25.99,16.954c0,1.109,0.868,1.936,2.038,1.936c1.974,0,3.223-1.332,3.223-3.586v-0.746h-1.147
			C28.208,14.558,25.99,14.878,25.99,16.954z"/>
		<path fill="#A93439" d="M95.228,4.762H7.55c-2.977,0-5.387,2.41-5.387,5.383v12.892h93.064c2.977,0,5.386-2.414,5.386-5.388
			v-7.504C100.613,7.172,98.204,4.762,95.228,4.762z M18.398,10.687c-0.362-0.138-0.726-0.201-1.109-0.201
			c-1.692,0-2.722,1.975-2.722,3.366v5.946h-1.269v-5.884v-2.148l-0.081-1.699h1.209v1.608h0.021c0.242-1.09,1.29-2.379,2.801-2.379
			c0.383,0,0.766,0.062,1.149,0.182V10.687z M31.454,19.798v-1.755h-0.041c-0.868,1.594-2.256,1.914-3.365,1.914
			c-2.238,0-3.386-1.328-3.386-2.922c0-2.622,2.299-3.311,4.309-3.484c0.387-0.035,0.764-0.05,1.111-0.058
			c0.075-0.002,0.395-0.105,0.456-0.147c0.295-0.225,0.512-0.544,0.598-0.916c0.017-0.074,0-0.444-0.027-0.54
			c-0.177-0.598-0.565-1.203-1.436-1.431c-0.229-0.06-0.494-0.092-0.798-0.092c-1.009,0-2.096,0.241-3.084,0.782V9.941
			c0.865-0.383,1.873-0.646,3.084-0.646c3.345,0,3.643,2.438,3.643,3.853v4.393l0.063,2.257H31.454z M44.848,19.928
			c-1.53,0-2.655-1.022-3.249-2.33h-0.062l-0.019,2.166h-1.207l0.082-2.023V6.471h1.287v4.687c0.88-1.614,2.105-2.044,3.167-2.044
			c2.331,0,4.52,1.535,4.52,5.418C49.367,18.436,47.2,19.928,44.848,19.928z M59.903,19.928c-2.904,0-4.848-2.146-4.848-5.396
			c0-3.27,1.924-5.418,4.848-5.418s4.843,2.148,4.843,5.418C64.746,17.782,62.806,19.928,59.903,19.928z M75.357,10.687H72.35v6.188
			c0,1.755,0.404,2.016,1.229,2.016c0.505,0,0.886-0.042,1.292-0.223v1.067c-0.565,0.201-1.071,0.223-1.434,0.223
			c-2.275,0-2.357-1.855-2.357-3.003v-6.268v-1.07V7.037l1.27-0.464v3.043h3.008V10.687z M87.988,19.798v-1.755h-0.043
			c-0.864,1.594-2.255,1.914-3.362,1.914c-2.238,0-3.385-1.328-3.385-2.922c0-2.622,2.297-3.311,4.309-3.484
			c0.387-0.035,0.764-0.05,1.11-0.058c0.075-0.002,0.396-0.105,0.456-0.147c0.296-0.225,0.511-0.544,0.598-0.916
			c0.018-0.074,0-0.444-0.028-0.54c-0.175-0.598-0.565-1.203-1.431-1.431c-0.234-0.06-0.498-0.092-0.803-0.092
			c-1.008,0-2.094,0.241-3.083,0.782V9.941c0.866-0.383,1.874-0.646,3.083-0.646c3.345,0,3.648,2.438,3.648,3.853v4.393l0.06,2.257
			H87.988z M93.66,19.957c-0.558,0-1.008-0.45-1.008-1.007s0.45-1.005,1.008-1.005c0.553,0,1.005,0.448,1.005,1.005
			S94.213,19.957,93.66,19.957z"/>
		<path fill="#A93439" d="M44.848,10.198c-1.224,0-3.167,1-3.167,4.333c0,3.293,1.943,4.314,3.167,4.314
			c1.229,0,3.171-1.021,3.171-4.314C48.019,11.198,46.076,10.198,44.848,10.198z"/>
		<path fill="#A93439" d="M82.528,16.954c0,1.109,0.868,1.936,2.034,1.936c1.974,0,3.226-1.332,3.226-3.586v-0.746h-1.149
			C84.743,14.558,82.528,14.878,82.528,16.954z"/>
	</g>
</g>
</svg>
