<?xml version="1.0" encoding="utf-8"?>
<!-- Generator: Adobe Illustrator 16.0.4, SVG Export Plug-In . SVG Version: 6.00 Build 0)  -->
<!DOCTYPE svg PUBLIC "-//W3C//DTD SVG 1.1//EN" "http://www.w3.org/Graphics/SVG/1.1/DTD/svg11.dtd">
<svg version="1.1" xmlns="http://www.w3.org/2000/svg" xmlns:xlink="http://www.w3.org/1999/xlink" x="0px" y="0px" width="1200px"
	 height="670px" viewBox="0 0 1200 670" enable-background="new 0 0 1200 670" xml:space="preserve">
<g id="Layer_2">
	<rect fill="#00ACC1" width="1200" height="671"/>
</g>
<g id="Layer_1">
	<g>
		<defs>
			<rect id="SVGID_1_" x="462" y="430" width="277" height="231"/>
		</defs>
		<clipPath id="SVGID_2_">
			<use xlink:href="#SVGID_1_"  overflow="visible"/>
		</clipPath>
		<circle opacity="0.2" clip-path="url(#SVGID_2_)" fill="#FFFDE7" cx="599.948" cy="582.758" r="134.672"/>
		<linearGradient id="SVGID_3_" gradientUnits="userSpaceOnUse" x1="599.708" y1="507.5107" x2="599.708" y2="658.0059">
			<stop  offset="0" style="stop-color:#FFF176"/>
			<stop  offset="0.4222" style="stop-color:#FFF178;stop-opacity:0.5778"/>
			<stop  offset="0.5743" style="stop-color:#FFF27F;stop-opacity:0.4257"/>
			<stop  offset="0.6827" style="stop-color:#FFF38A;stop-opacity:0.3173"/>
			<stop  offset="0.7704" style="stop-color:#FFF59B;stop-opacity:0.2296"/>
			<stop  offset="0.8454" style="stop-color:#FFF7B1;stop-opacity:0.1546"/>
			<stop  offset="0.9119" style="stop-color:#FFFACD;stop-opacity:0.0881"/>
			<stop  offset="0.9705" style="stop-color:#FFFDEC;stop-opacity:0.0295"/>
			<stop  offset="1" style="stop-color:#FFFFFF;stop-opacity:0"/>
		</linearGradient>
		
			<circle clip-path="url(#SVGID_2_)" fill-rule="evenodd" clip-rule="evenodd" fill="url(#SVGID_3_)" cx="599.708" cy="582.762" r="75.246"/>
	</g>
	<path fill="#263238" d="M147.877,590.674c-4.735-5.746-38.175-59.569-38.175-59.569c2.593,3.409,20.714,19.501,20.714,19.501
		c-2.039-3.198-9.908-18.499-9.908-18.499c1.677,1.591,19.378,12.832,19.378,12.832l-11.611-15.348
		c2.595,3.517,16.237,15.267,16.237,15.267l2.495-2.204c-7.809-6.302-32.66-40.776-32.66-40.776l6.764,2.908l-3.696-9.978
		l10.225,5.759l-6.896-10.464l8.041,6.665c-3.275-4.797-18.501-30.765-18.501-30.765l6.567,3.987l-1.406-4.83l5.22,2.498
		c-2.485-3.522-8.553-16.371-8.553-16.371l9.348,9.441c-4.957-5.555-14.269-25.76-14.269-25.76l7.933,6.551l-12.935-15.642
		c2.241,2.446,13.502,10.341,13.502,10.341c-7.615-7.311-26.685-45.526-26.685-45.526c-0.805,4.331-8.016,19.578-8.016,19.578
		c-3.034-3.121-12.104-18.142-12.104-18.142c2.811,3.298,10.268,7.918,10.268,7.918c-3.176-5.016-18.893-34.535-18.893-34.535
		c1.939,3.636,15.67,14.402,15.67,14.402c-3.681-3.842-11.979-17.652-14.521-21.949c3.315,4.979,11.688,11.42,11.688,11.42
		c-4.035-4.248-22.401-51.959-22.401-51.959c-0.641,7.346-14.995,41.058-14.995,41.058c-4.159-4.456-14.74-23.491-14.74-23.491
		c2.261,3.09,13.265,7.798,13.265,7.798c-3.484-5.2-34.062-74.657-34.062-74.657c-0.073,0.585-0.313,1.425-0.693,2.451v327.609
		h139.629l-12.63-22.795c1.706,3.314,13.571,14.332,13.571,14.332l-20.297-33.672C126.588,566.689,147.877,590.674,147.877,590.674z
		 M33.363,399.769c0.654-0.448,5.634-4.963,5.634-4.963s-4.28,6.874-4.486,7.202C34.3,402.339,32.754,400.178,33.363,399.769z
		 M28.081,387.764c1.638-0.785,6.717-6.053,6.717-6.053c-0.628,1.843-5.11,9.264-5.11,9.264L28.081,387.764z M33.896,368.344
		c-0.219,0.33-2.684,3.604-2.637,3.177c0.044-0.434-2.836-7.399-2.836-7.399C28.981,364.434,34.107,368.011,33.896,368.344z
		 M41.282,362.922c-1.329,5.642-6.696,13.074-6.696,13.074l-1.711-2.997C34.294,372.326,41.404,362.396,41.282,362.922z
		 M70.411,409.374l6.842,7.22l-2.677,4.044L70.411,409.374z M79.804,411.584l-0.952,2.395c0,0-5.428-8.218-5.872-8.533
		L79.804,411.584z"/>
	<path fill="#455A64" d="M-0.531,294.323c1.071,3.124,6.184,18.058,6.193,18.637c0.013,0.649,0.089-13.389-0.034-14.136
		c-0.128-0.759,2.083,5.682,2.208,6.653c0.136,0.972-2.707-22.194-2.707-22.194s7.639,14.877,7.646,15.198
		c0.005,0.323,19.573,41.649,19.805,41.972c0.223,0.318-11.68-6.491-11.68-6.491l1.459,7.636l-7.821-6.551
		c0,0,2.131,8.382,2.141,8.815c0.008,0.43-6.623-13.272-6.847-13.7c-0.233-0.431,1.91,14.322,1.921,15.008
		c0.011,0.685-8-16.307-8.227-16.732c-0.233-0.428-0.368,16.306-0.47,16.885c-0.089,0.498-2.808-37.711-3.587-48.674V294.323z"/>
	<path fill="#455A64" d="M-0.531,361.103c1.378-6.139,2.958-12.99,3.199-13.115c0.433-0.222-0.678,35.631-0.67,36.178
		c0.011,0.54-1.954-10.541-2.081-11.73c-0.03-0.253-0.199,0.409-0.448,1.566V361.103z"/>
	<path fill="#455A64" d="M8.691,363.659c0.229,0.645,1.901,19.821,2.102,18.968c0.212-0.873,1.4-8.021,1.644-6.729
		c0.242,1.296,5.723,18.042,5.651,17.5c-0.061-0.537-0.448-15.952-0.272-14.939c0.186,1.019,5.387,14.42,5.247,12.908
		c-0.135-1.51-1.773-25.224-1.773-25.224s5.193,7.571,4.964,6.824c-0.231-0.759-2.568-14.104-2.568-14.104s6.783,3.664,6.321,2.594
		c-0.456-1.072-4.812-10.498-4.812-10.498s9.418,9.547,9.183,8.694c-0.234-0.868-8.782-17.015-8.779-16.687
		c0.008,0.32-1.34,4.766-1.34,4.766l-2.495-4.061c0,0,0.29,4.212,0.18,3.777c-0.123-0.428-3.234-2.369-3.234-2.369
		s0.378,14.946,0.041,14.41c-0.344-0.533-6.628-7.225-6.627-6.902c0.01,0.324,2.077,17.344,1.739,16.702
		C13.516,368.652,8.691,363.659,8.691,363.659z"/>
	<path fill="#455A64" d="M6.998,397.8c0.229,0.318-2.555,33.4-1.978,32.636c0.572-0.766,3.821-9.994,3.853-8.382
		c0.027,1.622,2.092,18.347,2.185,17.624c0.105-0.712,4.458-15.039,4.727-12.777c0.258,2.261,9.011,23.597,9.011,23.597
		s0.618-20.634,0.965-19.669c0.349,0.967,8.656,16.15,8.656,16.15s-5.747-19.438-5.409-19.229
		c0.329,0.213,15.386,17.225,15.487,16.572c0.096-0.652-5.568-21.709-5.568-21.709s7.236,10.562,6.89,9.705
		c-0.342-0.858-13.09-23.738-13.09-23.738s7.01,3.874,6.66,2.798c-0.351-1.071-12.17-21.687-12.17-21.687s3.697,21.837,3.013,20.655
		c-0.676-1.172-7.88-10.01-7.977-9.03c-0.095,0.97,1.498,15.838,1.264,15.191c-0.23-0.639-7.719-13.033-7.598-12.602
		c0.11,0.438,0.241,19.645,0.241,19.645L6.998,397.8z"/>
	<path fill="#455A64" d="M35.631,492.334c0.091,0.317,0.344,9.987,0.165,9.11c-0.179-0.876-6.681-8.756-6.431-8.604
		c0.244,0.163,1.807,14.205,1.873,13.559c0.068-0.637-3.27-5.296-2.938-4.745c0.337,0.554,2.155,6.519,1.986,6.12
		c-0.169-0.394-3.862-6.168-3.614-5.928c0.25,0.232,1.564,9.728,1.482,9.482c-0.09-0.237-5.287-8.219-5.031-7.584
		c0.258,0.636,2.954,14.656,2.865,14.26c-0.088-0.395-5.91-11.25-5.91-11.25s1.068,9.337,0.977,8.937
		c-0.088-0.399-6.661-12.354-6.488-12.037c0.161,0.314,1.097,11.252,1.09,10.854c-0.01-0.402-5.768-7.979-5.682-7.657
		c0.085,0.318-2.238,19.538-2.062,19.814c0.175,0.284,3.772,5.748,3.772,5.748s0.225-8.725,0.232-8.087
		c0.013,0.638,0.541,7.185,0.535,6.864c-0.005-0.318,1.402-3.621,1.324-3.379c-0.08,0.241,0.074,7.739,0.074,7.739l4.726,6.441
		l1.05-10.681l1.92,6.836c0,0-0.35-10.145-0.265-9.91c0.087,0.24,8.821,23.435,8.821,23.435s-3.678-27.597-3.333-26.565
		c0.345,1.032,6.56,24.908,6.56,24.908s0.125-21.347,0.87-20.238c0.745,1.104,16.642,32.724,16.63,32.166
		c-0.01-0.559-10.289-32.679-9.88-32.525c0.409,0.156,15.081,18.207,14.829,17.727c-0.252-0.473-13.604-31.021-13.604-31.021
		s13.99,7.354,13.744,7.037c-0.254-0.312-12.114-16.096-11.872-16.179c0.241-0.084,12.393,4.738,12.063,4.266
		C55.773,510.775,35.631,492.334,35.631,492.334z"/>
	<path fill="#66215F" d="M61.299,523.307c0.332,0.315,4.662,9.993,4.496,9.756c-0.169-0.239-11.633-3.32-11.633-3.32
		s11.818,9.071,10.92,8.847c-0.899-0.225-10.801-2.21-10.801-2.21s7.369,20.021,7.036,19.463c-0.335-0.547-9.396-10.146-9.226-9.671
		c0.173,0.479,5.993,15.243,4.912,14.221c-1.084-1.017-7.194-9.782-6.268-8.123c0.926,1.667,11.726,26.336,11.726,26.336
		s-1.027-20.765-0.521-19.894c0.504,0.87,19.025,15.493,19.025,15.493l-9.371-17.978c0,0,9.122,8.632,8.789,8.236
		c-0.335-0.396-18.633-20.62-18.633-20.62s17.146,10.496,16.81,10.021c-0.335-0.471-11.386-12.193-11.386-12.193
		s9.123,4.156,8.953,3.921c-0.164-0.236-8.293-7.769-7.883-7.695c0.408,0.071,20.197,12.521,20.028,12.124
		c-0.173-0.397-22.728-26.068-22.394-25.839c0.33,0.241,4.078,9.05,3.576,8.494C68.957,532.127,61.299,523.307,61.299,523.307z"/>
	<path fill="#66215F" d="M82.205,534.614c0.333,0.314,9.9,17.718,9.732,17.4c-0.162-0.322-1.881-7.145-1.293-6.277
		c0.582,0.875,8.791,8.487,8.452,7.853c-0.335-0.637-5.963-9.856-5.306-9.526c0.657,0.329,9.515,7.616,9.515,7.616l-16.874-22.335
		l0.898,4.539c0,0-2.24-2.361-2.078-2.038c0.174,0.314,2.584,7.467,2.416,7.23C87.497,538.839,82.205,534.614,82.205,534.614z"/>
	<path fill="#455A64" d="M69.596,504.217c-0.487,0.326-2.99,1.646-2.741,1.963c0.257,0.32,1.538,18.204,1.7,17.636
		c0.16-0.561,3.543-12.049,3.643-10.692c0.109,1.361,2.387,14.669,2.619,13.864c0.23-0.802-0.344-14.384,0.347-12.396
		c0.688,1.988,6.421,16.914,6.243,16.361c-0.172-0.558,0.405-9.2,0.984-8.894c0.574,0.311,7.606,6.025,7.268,5.389
		c-0.338-0.63-8.393-13.604-7.237-12.503c1.162,1.093,10.036,6.107,10.036,6.107l-4.844-7.638c0,0,4.994,4.282,5.043,3.877
		c0.039-0.407-9.053-13.645-8.966-13.32c0.089,0.315-0.201,6.954-0.45,6.644c-0.253-0.313-5.725-5.579-5.471-5.265
		c0.249,0.313,1.012,6.462,0.842,6.139c-0.17-0.312-2.855-4.742-2.855-4.742s-0.73,4.89-0.817,4.413
		c-0.093-0.482-2.187-3.562-2.339-3.242c-0.159,0.324-1.664,2.913-1.587,2.592C71.087,510.185,69.596,504.217,69.596,504.217z"/>
	<path fill="#455A64" d="M68.795,487.28c-0.215,1.522-0.674,16.64-0.602,16.237c0.078-0.4-1.807-10.039-1.959-9.238
		c-0.146,0.803-1.887,8.188-1.82,7.387c0.064-0.798-0.158-12.945-0.229-12.626c-0.074,0.32,1.254,1.814,1.254,1.814
		s-1.698-7.646-1.361-7.329C64.414,483.839,68.795,487.28,68.795,487.28z"/>
	<path fill="#455A64" d="M73.863,487.834c0.174,0.716-1.01,16.339-0.779,15.611c0.232-0.733,1.324-8.029,1.828-7.317
		c0.5,0.71,7.091,9.146,7.006,8.832c-0.092-0.321-2.217-9.797-1.467-8.927c0.751,0.865,5.6,7.706,5.378,6.731
		c-0.224-0.983-4.711-10.263-4.043-9.514c0.665,0.747,5.554,5.221,5.554,5.221l-4.398-9.041c0,0,4.858,2.795,4.275,2.003
		c-0.59-0.783-5.553-9.571-5.553-9.571s-0.906,4.013-1.076,3.693c-0.171-0.317-3.069-2.926-2.735-2.28
		c0.343,0.646,2.069,9.409,2.218,9.005c0.143-0.403-3.898-7.607-3.728-7.213c0.169,0.398,0.536,7.267,0.372,7.189
		C76.55,492.184,73.863,487.834,73.863,487.834z"/>
	<path fill="#455A64" d="M56.273,415.495c0.349,0.751,3.914,33.395,3.896,32.321c-0.021-1.08,2.603-13.974,3.08-11.609
		c0.488,2.372,5.709,16.962,5.709,16.962s-1.104-12.188-0.187-10.148c0.921,2.037,10.607,14.508,10.494,14.238
		c-0.115-0.272-6.453-22.016-5.989-20.972c0.459,1.035,9.065,8.553,8.503,7.803c-0.562-0.749-12.522-29.167-12.522-29.167
		s4.99,14.401,4.645,13.439c-0.349-0.97-9.576-18.333-9.576-18.333s1.487,15.558,1.373,15.023c-0.127-0.542-7.655-12.5-7.343-11.861
		c0.315,0.645,4.912,17.73,4.559,16.222C62.552,427.908,56.273,415.495,56.273,415.495z"/>
	<path fill="#455A64" d="M53.006,411.021c0,0-5.465-4.225-5.243-3.9c0.222,0.315,4.83,27.224,4.779,25.82
		c-0.042-1.401-1.158-16.933-0.27-14.889c0.898,2.029,3.508,18.718,3.379,17.749C55.524,434.834,53.006,411.021,53.006,411.021z"/>
	<path fill="#455A64" d="M89.297,414.273c-0.122,0.507,0.454,25.143,0.454,25.143s4.325-9.139,4.372-6.656
		c0.046,2.476,1.333,12.814,1.435,12.497c0.11-0.329,0.692-16.747,1.736-13.526c1.047,3.219,7.948,13.136,7.825,12.714
		c-0.116-0.433-4.378-17.197-3.706-16.343c0.676,0.84,5.736,6.991,5.735,6.848c-0.002-0.153-5.728-12.683-5.393-12.362
		c0.333,0.316,7.692,5.479,7.355,5.267c-0.329-0.209-17.705-29.701-16.923-28.744c0.791,0.965,5.021,21.396,4.673,20.648
		c-0.348-0.754-3.547-7.064-3.415-6.311c0.116,0.753,0.327,12.192,0.211,11.658C93.527,424.566,89.297,414.273,89.297,414.273z"/>
	<path fill="#455A64" d="M38.016,433.851c0.242,0.715-0.632,20.077-0.475,19.678c0.156-0.404,2.537-8.682,2.965-7.492
		c0.424,1.2,3.863,11.052,3.863,11.052s-1.178-15.545-0.248-13.738c0.931,1.812,6.567,10.591,6.512,10.349
		c-0.053-0.239-2.852-10.639-2.602-10.416c0.25,0.228,8.993,5.751,8.985,5.35c-0.007-0.396-11.383-19.995-11.528-19.813
		c-0.15,0.176,0.984,9.201,0.727,8.646c-0.258-0.549-2.96-6.099-2.96-6.099s0.138,10.539,0.171,9.909
		c0.03-0.633-2.74-7.548-2.409-7.154c0.335,0.392,0.155,8.468,0.155,8.468L38.016,433.851z"/>
	<path fill="#455A64" d="M52.538,336.544c-0.306,1.193-7.359,31.317-6.724,29.903c0.635-1.407,7.706-18.041,6.98-15.659
		c-0.726,2.385-0.55,24.621-0.559,24.079c-0.006-0.536,2.471-22.279,2.729-19.689c0.254,2.586,6.179,15.487,5.938,15.153
		c-0.237-0.348-2.766-16.509-2.087-15.439c0.679,1.071,5.923,10.854,6.041,10.721c0.108-0.136-5.907-16.441-4.746-15.707
		c1.16,0.736,8.168,11.085,8.054,10.653c-0.121-0.426-11.479-29.048-11.271-28.408c0.2,0.645,0.161,18.996-0.166,17.919
		c-0.33-1.068-2.566-15.122-2.679-15.147c-0.109-0.02-1.059,14.455-1.082,13.164C52.945,346.789,52.538,336.544,52.538,336.544z"/>
	<g>
		<path fill-rule="evenodd" clip-rule="evenodd" fill="#37474F" d="M18.572,453.042c0.203,0,0.409,0,0.617,0
			c0.652,10.652,2.867,19.727,3.693,30.189c2.473-3.482,4.042-7.869,6.171-11.703c4.717,10.277,7.778,22.206,11.088,33.891
			c3.228-7.033,6.13-14.399,8.627-22.188c2.222,0.255,1.878,3.055,3.082,4.319c2.563-2.361,3.569-6.286,5.543-9.242
			c1.938-0.293,2.412,0.878,3.707,1.234c0.797-4.944,1.512-9.985,4.923-12.326c2.873,1.848,2.938,6.515,6.162,8.008
			c1.783-0.271-0.551-4.654,1.233-4.923c4.455,0.678,4.593,5.676,6.156,9.241c6.095,0.138,7.585,8.368,9.864,14.173
			c4.618-6.891,7.989-15.017,12.325-22.188c3.76,3.842,6.836,8.362,9.863,12.942c4.652-3.766,8.366-8.476,13.551-11.709
			c4.703,2.902,7.998,7.208,11.097,11.709c1.035-0.815,2.065-1.63,4.311-1.239c0.909,5.252,4.716,7.621,6.781,11.717
			c1.045-3.14,6.788-3.129,8.627-0.621c2.614-6.821,9.521-9.378,14.79-13.557c1.774,2.744,6.776,2.266,7.392,6.164
			c1.783-2.732,3.855-5.183,6.779-6.775c4.213,0.516,3.776,5.676,8.021,6.16c1.723-2.369,2.13-6.078,3.689-8.623
			c1.361,4.591,2.877,9.029,4.931,12.936c2.395-2.939,1.532-9.143,5.546-10.473c0.97,1.291,0.426,4.088,1.231,5.545
			c4.12-5.734,7.413-12.303,12.329-17.254c1.942,1.539,2.77,4.209,3.698,6.774c5.311,0.229,7.196,3.891,8.617,8.007
			c0.165,2.02-1.913,1.79-2.465,3.088c0.809,3.093,2.547,5.26,3.702,8.008c3.225-2.312,4.445-6.633,8.012-8.623
			c0.896,3.217,3.345,4.869,4.314,8.012c1.903-2.004,3.355-4.449,4.928-6.781c3.179,17.57,26.221,15.275,27.732,34.512
			c3.036-0.664,3.705-3.695,5.542-5.547c2.713-0.453,2.528,2,4.312,2.463c2.14-1.145,2.915-3.66,4.927-4.928
			c1.692-0.69,3.962-0.382,5.548,0.62c2.535-4.665,4.046-10.346,5.544-16.027c3.435,2.331,3.066,8.446,4.933,12.321
			c0.789,1.336,2.014-2.047,4.312-1.223c0.97,0.499,5.524,8.129,7.4,8.004c2.01-0.122,1.952-3.89,3.084-4.934
			c0.968-0.882,1.577,1.326,3.072,0.623c1.947-0.911,1.433-6.35,3.702-4.929c2.758-0.506,3.421,1.09,3.702,3.081
			c3.539-5.089,6.057-11.191,8.62-17.256c2.278,6.35,4.625,12.631,8.011,17.872c8.785-0.933,2.75-14.56,9.869-16.022
			c0.243,4.479,1.364,10.65,3.074,15.406c0.255,1.381,3.272,0.008,3.696,1.225c1.548,7.503,5.813,12.269,7.4,19.726
			c2.28-0.998,1.911-4.659,3.074-6.78c8.146,1.923,7.133,13.001,16.025,14.176c1.029,2.457,2.495,4.492,3.7,6.78
			c3.936-5.517,8.657-10.243,11.704-16.64c4.396,3.615,3.247,12.771,10.481,13.556c1.003,3.096,3.777,4.434,4.314,8.01
			c2.259-1.427,3.86-3.522,4.923-6.159c2.173,4.816,4.888,9.072,8.015,12.941c4.611-0.529,6.42-3.853,9.237-6.16
			c2.659,3.092,4.438,7.066,5.546,11.703c1.483,1.487,1.635-1.499,4.322-0.613c0.782,2.096,2.185,3.563,3.076,5.539
			c2.601-3.146,2.979-8.526,4.315-12.935c4.165,4.463,8.547,8.704,10.474,15.403c1.784-6.85,2.266-14.981,2.465-23.424
			c5.874-1.138,5.881,3.576,7.398,6.786c0.997-7.43,5.848-10.995,7.396-17.868c3.823,3.779,4.517,10.679,7.392,15.408
			c0.578,0.395,3.112-0.068,4.936,0.614c1.606,4.141,3.842,7.653,4.925,12.318c6.139-5.354,9.739-13.261,14.792-19.714
			c11.412,15.907,18.797,35.839,32.042,49.917c2.207-2.312,3.81-5.232,4.933-8.636c3.002,4.608,3.431,11.764,5.547,17.26
			c2.686-2.037,2.569-6.872,6.162-8.011c0.935,4.812,3.281,8.22,4.311,12.939c4.193-0.323,4.439-4.605,8.633-4.929
			c3.171,10.383,12.199,14.907,22.182,18.492c0,0.197,0,0.407,0,0.605c-174.459,0-355.412,0-533.046,0
			c-12.237,0-25.673-1.957-35.123,0c-2.538,0.537-2.149,0.714-4.312,2.47c-0.208,0-0.412,0-0.623,0
			C16.133,589.62,5.078,546.235-0.531,497.415c0-8.221,0-16.435,0-24.653c4.682,4.577,6.186,12.303,10.481,17.254
			C12.307,477.179,15.417,465.09,18.572,453.042z"/>
		<path fill-rule="evenodd" clip-rule="evenodd" fill="#37474F" d="M608.311,622.503c0,0.419,0,0.831,0,1.242
			c-188.273,2.862-381.84,0.406-572.481,1.228c2.163-1.756,1.774-1.933,4.312-2.47c9.45-1.957,22.886,0,35.123,0
			C252.898,622.503,433.852,622.503,608.311,622.503z"/>
	</g>
	<path fill-rule="evenodd" clip-rule="evenodd" fill="#37474F" d="M1203.174,351.538c-4.21,7.102-35.081,59.18-35.839,60.943
		l-5.873-10.372c0,0-2.778,11.571-5.056,15.957c0,0-7.842-9.272-8.818-8.872c-0.979,0.397-7.513,13.959-7.994,13.46
		c-0.497-0.505-2.945-4.289-3.432-3.294c-0.487,0.996-4.9,9.175-5.881,9.971c-0.975,0.801-2.117-2.592-2.772-1.79
		c-0.65,0.792-6.202,13.954-6.688,14.452l-3.427-4.784c0,0-2.454,9.37-3.105,10.567c-0.657,1.199-5.222-6.778-5.222-6.778
		l-2.775,10.867c0,0-1.633-1.396-2.287-2.69c-0.658-1.298-1.798,3.59-1.798,3.59l-4.242-7.28l-7.017,12.562l-4.571,2.795
		l-4.247-5.384l-7.504,12.363l-2.939,0.098l-6.366-9.072l-6.367,12.662l-2.937-0.899l-4.086,3.79l-3.105-2.891l-4.076,2.592
		c0,0-3.754-6.279-4.08-5.884c-0.329,0.403-2.941,4.29-2.941,4.29l-1.634-1.996l-3.587,1.699l-4.241-3.694l-2.453,3.093
		l-5.551-9.172l-2.443,3.289c-0.655-0.497-5.556,9.872-5.556,9.872l-3.26-1.69l-3.924,2.488l-3.751-6.881l-4.081,1.994l-10.28-4.088
		l-2.451,3.393l-1.472-0.103l-8.483,9.276l-2.616-3.295l-8.156,10.171l-3.757-1.494l-3.105,0.998l-3.097-4.686l-3.756,3.688
		l-5.883-0.402l-11.256,11.571l-4.247-1.4c0,0-11.751,12.664-12.41,12.865c-0.651,0.199-7.507-2.396-7.507-2.396l-3.911,4.093
		l-3.271-0.2l-13.55,13.957l-4.237-2.791l-5.393,6.579l-7.509,3.291l-3.746-2.888l-3.598,3.286l-1.798-0.997l-2.604,2.193
		l-2.287-3.588c0,0-8.814,6.581-9.31,6.183c-0.489-0.402-5.385-1.597-5.385-1.597l-3.593,4.786c0,0-2.285-1.697-2.938-1.398
		c-0.652,0.303-13.227,13.363-13.227,13.363s-2.605,0.298-2.771,0.696c-0.162,0.403-3.752,4.887-3.752,4.887l-3.922,1.598
		l-2.611-2.794l-5.057,4.586l-5.552-2.092c0,0-6.69,3.387-7.351,3.491c-0.646,0.097-3.916-0.996-3.916-0.996l-5.547,4.586
		l-14.527,5.081l-17.297,2.296c0,0-12.733,3.888-19.924,7.475c-7.184,3.592-15.992,6.883-19.096,8.078
		c-3.098,1.198-16.324,4.588-26.604,6.083c-10.287,1.497-43.917,4.927-49.299,8.019c0,0,49.24,13.439,58.711,13.047
		c9.463-0.403,32.113,4.847,40.274,4.943c8.164,0.1,41.071-18.629,35.522-18.133c-5.552,0.504-7.677,0.7-5.718,1.195
		c1.964,0.496,10.61,6.584,48.319,4.49c37.709-2.098,57.133-1.099,66.273-0.899c9.143,0.2,32.484,0.8,58.11,4.888
		c25.631,4.087,30.034,7.376,61.052,7.775c31.018,0.401,52.886,0,62.194,0.2c9.304,0.201,31.175-0.297,42.769-0.297
		c11.589,0,17.469,1.294,30.848,0.896c13.015-0.389,62.833,5.493,69.627,4.08V351.538z"/>
	<path fill-rule="evenodd" clip-rule="evenodd" fill="#455A64" d="M1093.891,471.599c0,0-3.284,13.995-4.959,17.575l-8.264-21.33
		l-1.052,25.462l-5.8-11.821l-1.447,9.714l-4.082-9.556l-1.414,7.942l-12.866-30.742l-3.599,45.234l-6.113-16.639l-1.438,7.71
		l-6.905-22.252l-5.253,29.863l-7.096-21.92l-2.27,31.759l-15.538-29.822l-3.574,21.506l-7.655-15.925l-2.836,26.047
		c0,0-8.235-17.017-8.42-16.61c-0.19,0.405-3.061,10.435-3.061,10.435l-7.075-18.992l-2.631,31.258c0,0-9.668-18.084-9.625-17.704
		c0.043,0.379-2.311,15.664-2.311,15.664l-3.715-5.588l-2.314,24.524c0,0-7.004-17.001-7.034-16.612
		c-0.033,0.387-1.763,19.838-1.763,19.838l-4.221-11.46l-1.553,10.806c0,0-5.891-13.968-5.84-13.515
		c0.052,0.457-2.908,16.502-2.908,16.502l-4.571-7.029l-0.473,6.062l-1.591-1.826l-0.961,12.663l-2.005-4.16l-1.748,5.665
		l-1.497-2.989l-0.557,3.913l-2.524-6.645l-1.642,11.352l-2.466-3.417l-0.732,6.476l-3.645-4.978l-0.851,6.101l-1.787-2.184
		l-1.049,4.355c0,0-1.131-8.654-1.17-8.339c-0.048,0.31-1.534,8.951-1.534,8.951l-4.249-8.993l-0.95,7.269l-1.938-4.863
		l-2.269,10.576l-3.508-8.537l-2.042,6.469l-1.551-2.135l-0.498,5.832c0,0-2.197-5.146-2.163-4.838
		c0.035,0.305-0.631,5.308-0.631,5.308s-2.439-6.578-2.55-6.183c-0.108,0.398-0.216,6.266-0.216,6.266l-2.015-6.242l-2.958,7.882
		c0,0-1.195-4.41-1.387-4.08c-0.192,0.328-1.232,5.453-1.232,5.453l-2.146-3.991l-1.515,4.331l-1.394-1.463l-1.451,3.552
		l-1.979-2.547l-0.95,2.493l-0.596-1.165l-0.369,1.507l-1.633-1.512l-1.514,4.331c0,0,6.897-1.009,14.975-1.769
		c8.077-0.759,22.029-2.026,23.062-1.761c1.031,0.272-1.638,1.188-0.844,1.406c0.797,0.217,4.658,4.404,16.934,1.938
		c12.278-2.464,21.876-3.395,32.913-4.562c11.037-1.175,17.01-1.464,29.211,0.161c12.199,1.626,16.049,3.656,25.928,3.156
		c9.878-0.5,23.149-0.998,33.809-2.741c10.664-1.745,17.33-2.729,21.404-2.806c4.074-0.073,8.188-1.153,13.874-1.952
		c5.688-0.797,16.603-3.021,16.603-3.021s8.777-18.466,12.417-38.837C1099.949,503.344,1093.891,471.599,1093.891,471.599z"/>
	<g>
		<path fill="#00796B" d="M1199.469,431.413c-18.66,5.9-39.318,13.055-51.016,19.097c-24.953,12.905-43.113,14.289-49.92,17.974
			c-6.803,3.686-26.104,11.98-39.715,22.579c-13.619,10.595-37.449,36.864-59.01,45.157
			c-21.557,8.296-118.004,38.246-150.896,46.077c-32.91,7.829-105.531,24.418-125.951,24.88c-3.518,0.079-7.441,0.119-11.555,0.119
			c-19.764,0-43.889-0.896-48.58-2.419c-5.672-1.844-30.643-5.532-44.25-6.453c-13.617-0.922-184.952-15.664-240.557-21.658
			c-55.595-5.987-136.152-13.818-141.818-17.967c-5.682-4.147-13.619-7.836-28.379-10.141
			c-14.747-2.305-153.189-21.657-166.795-24.419c-8.92-1.812-26.596-8.762-41.559-16.062v138.629h1200V431.413z"/>
	</g>
	<g>
		<path fill-rule="evenodd" clip-rule="evenodd" fill="#263238" d="M1200,333.349c-10.998,13.615-28.549,23.139-28.549,23.139
			c-2.907-2.026-5.549-4.76-5.549-4.76c2.908,2.291,8.725,2.646,8.725,2.646c-5.115-3.262-20.621-18.07-20.621-18.07
			c2.208,1.418,6.96,2.648,6.96,2.648c-4.05-3.43-9.156-12.596-9.156-12.596c1.931,2.377,8.013,5.548,8.013,5.548
			c-9.779-8.28-13.92-25.903-13.92-25.903c-2.028,10.748-14.716,32.603-14.716,32.603c3.174-1.323,8.462-5.638,8.462-5.638
			c-5.025,9.866-19.646,19.555-19.646,19.555c4.225-1.055,6.342-2.463,6.342-2.463c-2.551,3.872-9.363,9.937-9.363,9.937
			c5.264-0.204,11.476-1.836,11.476-1.836l-5.638,6.874c1.848-0.355,7.662-4.845,7.662-4.845
			c-4.052,6.523-14.098,15.858-14.098,15.858c4.142,0,10.135-2.82,10.135-2.82c-4.849,8.195-10.753,16.216-10.753,16.216
			c3.619-0.178,11.284-3.174,11.284-3.174c-7.31,7.755-20.795,13.298-20.795,13.298l2.819-0.083l-2.908,3.525
			c2.997,0.175,11.188-3.7,11.188-3.7c-4.758,7.137-16.562,13.392-16.562,13.392c4.139,0.706,13.484-4.669,13.484-4.669l-6.698,4.76
			c6.433-1.062,16.739-7.053,16.739-7.053c-7.488,14.186-19.596,18.268-19.596,18.268c3.482-0.41,11.662-2.76,11.662-2.76
			l-3.258,3.348c4.406-0.879,14.182-7.049,14.182-7.049c-4.931,7.49-16.559,18.322-16.559,18.322c1.764,0,5.812-1.496,5.812-1.496
			l-4.402,4.315c-9.336-7.576-11.986-25.633-11.986-25.633c-3.781,19.204-13.475,26.955-13.475,26.955
			c2.287-0.083,5.896-1.494,5.896-1.494c-5.458,12.512-13.92,21.322-13.92,21.322c3.88-0.264,7.934-3.612,7.934-3.612
			c-2.114,4.848-8.549,13.57-8.549,13.57l5.373-1.502c-0.703,2.734-2.641,7.05-2.641,7.05l4.843-0.356
			c-3.435,9.073-14.181,29.694-14.181,29.694c1.5,0.088,5.902-1.933,5.902-1.933c-1.584,4.05-7.226,12.332-7.226,12.332l5.555-3.615
			c-3.882,14.189-10.927,19.737-10.927,19.737h16.211c-5.088-0.103-13.527,5.132-12.864,6.015c0.66,0.876,13.108,2.094,9.524,2.53
			c-3.575,0.441-2.802,5.946,1.709,6.502c4.518,0.55,10.464,0.769,8.699,1.207c-1.761,0.443-3.412,2.752,1.871,2.538
			c5.287-0.224,53.859-0.338,53.859-0.338l2.312,10.182c-4.847-4.902-6.941-9.299-6.941-9.299c0.22,1.984,2.864,7.934,2.864,7.934
			c-5.505-3.639-15.749-8.154-15.749-8.154c1.988,2.428,19.826,13.881,19.826,13.881c-21.586-12.009-37.779-9.473-37.779-9.473
			c11.676-1.322,31.941,12.111,31.941,12.111c-12.669-6.717-23.789-5.172-23.789-5.172l1.318,1.541
			c8.82,0.221,27.316,10.794,27.316,10.794c9.815-0.466,31.045-0.63,54.912-0.642V333.349z M1169.43,359.571
			c0,0-2.646,2.059-4.85,2.789l2.788,1.323l-1.612,2.2c0,0,6.165,0.736,11.602-2.646c0,0-3.818,4.117-3.234,4.117
			c0.588,0,8.363-0.475,13.657-4.406l-9.395,9.69c0,0,13.8-3.377,19.382-8.081l-29.224,26.438l-2.935-1.032l-3.965-8.075
			c0,0,0.879-0.444,6.608,0.588l-6.021-4.698c0,0,12.186,1.766,14.975,1.617c0,0-12.335-4.552-15.123-7.493l14.684,4.112
			l4.261-1.171c0,0-16.307-3.818-20.707-15.419L1169.43,359.571z M1168.656,456.931l-10.133-16.412
			c0.882,0.882,5.619,4.848,5.836,5.285c0.221,0.439-2.312-6.604-2.312-6.604c1.211,2.642,8.699,13.984,8.699,13.984
			L1168.656,456.931z"/>
		<path fill="#455A64" d="M1200,350.013v-1.344c-1.865,0.459-3.727,0.898-3.423,0.742c0.167-0.082,1.502-1.234,3.423-2.963v-5.992
			l-9.438,5.727c0,0,4.982-5.071,9.438-9.534v-0.957c-2.641,2.057-5.035,3.884-5.035,3.884s2.38-2.794,5.035-5.882v-0.94
			c-9.601,9.187-26.416,24.497-34.694,28.996c0,0,8.175-2.29,12.556-5.344l1.244-0.976c-0.359,0.335-0.787,0.657-1.244,0.976
			l-10.209,7.991c0,0,17.768-8.521,23.496-12.926l-10.869,12.629C1180.279,364.1,1191.848,355.399,1200,350.013z"/>
		<path fill="#455A64" d="M1200,364.474l-6.059,10.194c0,0,2.716-3.088,6.059-6.987V364.474z"/>
		<path fill="#455A64" d="M1200,355.134c-6.239,6.961-12.48,13.407-15.875,15.467c2.888-1.506,11.079-5.845,15.875-9.025V355.134z"
			/>
		<path fill-rule="evenodd" clip-rule="evenodd" fill="#455A64" d="M1200,405.161v-13.457l-2.685,3.085c0,0,1.29-3.841,2.685-8.079
			v-7.909l-11.204,8.938l2.058-9.542c0,0-11.603,10.277-14.097,12.04l11.749-16.002c0,0-19.475,16.481-26.77,21.082l7.384-0.97
			l-14.243,16.004l8.076-1.759l21.292-12.631c0,0-6.752,16.01-9.692,19.236l9.544-10.129l-4.547,7.928c0,0,4.849-5.141,7.19-5.725
			l-10.134,18.501C1176.606,425.773,1193.715,410.599,1200,405.161z"/>
		<path fill-rule="evenodd" clip-rule="evenodd" fill="#455A64" d="M1200,409.852c-1.137,5.864-2.736,14.642-2.827,18.123
			c0,0,1.245-2.026,2.827-4.544V409.852z"/>
		<path fill-rule="evenodd" clip-rule="evenodd" fill="#455A64" d="M1143.422,367.178c-1.027-3.226-2.348-10.716-2.348-10.716
			l-2.353,3.524l1.47-5.435c0,0-6.312,7.929-6.898,9.104c-0.59,1.18,1.904-11.011,1.904-11.011
			c-4.252,3.23-14.977,6.756-14.977,6.756c2.35-0.88,7.639-7.639,7.639-7.639l-8.664,5.432c2.646-2.054,8.369-8.518,8.369-8.518
			l-7.93,3.383c2.936-1.764,17.622-16.304,17.622-16.304c-0.881,2.937-6.901,14.098-6.901,14.098
			c2.055-1.615,7.488-6.901,7.488-6.901l-1.323,3.673l4.554-4.257l-0.883,6.902c2.643-3.821,5.877-14.103,5.877-14.103
			C1145.551,339.604,1143.422,367.178,1143.422,367.178z"/>
		<path fill-rule="evenodd" clip-rule="evenodd" fill="#455A64" d="M1149.381,349.55c0.082-3.977,1.973-11.589,1.973-11.589
			c-1.025,7.34-0.901,29.277-0.901,29.277c-1.784-6.995-3.062-19.581-3.21-20.175C1147.096,346.476,1149.381,349.55,1149.381,349.55
			z"/>
		<path fill-rule="evenodd" clip-rule="evenodd" fill="#455A64" d="M1126.828,369.388c3.967-2.21,6.465-4.41,6.465-4.41l-0.59,4.41
			l3.673-3.526c-1.618,4.112-11.307,19.819-11.307,19.819c0.443-1.172,4.987-14.535,5.286-15.561
			c0.291-1.029-11.725,4.771-12.336,4.696c5.139-1.91,12.958-15.47,12.926-14.686
			C1130.82,362.682,1126.828,369.388,1126.828,369.388z"/>
		<path fill-rule="evenodd" clip-rule="evenodd" fill="#455A64" d="M1140.928,390.093l-1.029-19.236l1.762,6.165
			c0.29-1.469,2.789-8.224,2.789-8.224C1144.02,370.304,1140.928,390.093,1140.928,390.093z"/>
		<path fill-rule="evenodd" clip-rule="evenodd" fill="#455A64" d="M1126.828,390.093c2.937-1.618,6.168-4.555,6.168-4.555
			l-1.76,7.637l6.607-12.48c0.436,4.844-4.408,18.788-4.408,18.788c3.229-2.349,10.726-8.806,10.726-8.806
			c-2.059,3.235-11.313,21.295-11.604,21.881c-0.298,0.588,1.177-7.344,1.177-7.344c-2.062,1.173-10.703,9.16-11.312,9.254
			c2.205-4.264,7.343-15.424,7.343-15.424c-3.522,1.911-20.852,10.578-20.852,10.578c5.438-1.914,15.418-14.247,15.418-14.247
			l-17.475,6.461c2.648-0.731,10.281-6.753,10.281-6.753l-10.718,4.112c4.258-1.911,24.08-14.247,24.525-14.835
			C1131.383,383.773,1126.828,390.093,1126.828,390.093z"/>
		<path fill-rule="evenodd" clip-rule="evenodd" fill="#455A64" d="M1126.393,425.038l4.99-3.817l-6.019,13.66l8.663-12.484
			c-2.496,6.608-9.4,30.397-9.4,30.397l1.027-14.39l-7.635,8.223c1.91-3.671,6.169-16.891,6.169-16.891l-9.401,4.553
			c2.497-1.172,7.055-7.49,7.493-8.367c0.438-0.884-6.464,4.698-6.464,4.698c2.939-2.941,10.426-11.605,10.426-11.605l4.848-4.107
			C1130.674,416.862,1126.393,425.038,1126.393,425.038z"/>
		<path fill-rule="evenodd" clip-rule="evenodd" fill="#455A64" d="M1137.552,430.329l5.282-5.879
			c-1.465,4.703-7.488,23.936-7.488,23.936s1.175-9.844,1.175-10.423c0-0.591-6.021,11.747-6.021,11.747
			c2.058-7.933,9.232-37.426,9.398-36.861C1140.267,414.09,1137.552,430.329,1137.552,430.329z"/>
		<path fill-rule="evenodd" clip-rule="evenodd" fill="#455A64" d="M1147.537,427.679l-2.792-2.197l6.165,22.609
			c-2.197-8.663-2.789-33.184-2.789-34.068C1148.121,413.146,1147.537,427.679,1147.537,427.679z"/>
		<path fill-rule="evenodd" clip-rule="evenodd" fill="#455A64" d="M1110.089,445.155l5.872-4.258l-6.895,10.426l5.285-2.789
			c0,0,4.992-3.823,0.144,0.877c-4.844,4.702-24.377,24.822-24.377,24.822c0.886-2.934,8.519-16.449,8.959-17.186
			c0.442-0.729-8.372,2.941-8.959,2.941c-0.582,0,14.242-10.279,14.242-10.279c-2.196,1.318-15.056,4.064-15.056,4.064
			c6.375-2.981,23.726-14.93,23.726-14.93L1110.089,445.155z"/>
		<path fill-rule="evenodd" clip-rule="evenodd" fill="#455A64" d="M1112.173,469.255c1.058-1.891,4.821-4.569,4.821-4.569
			c-4.119,5.436-11.014,17.913-11.014,17.913c0.291-4.401,5.139-27.014,5.139-27.014l2.204-2.059l-0.886,10.275l3.084-8.953
			l4.261-4.696L1112.173,469.255z"/>
		<path fill-rule="evenodd" clip-rule="evenodd" fill="#455A64" d="M1127.416,474.526c1.321-2.5,4.405-8.371,4.405-8.371
			c-3.673,9.105-8.075,26.43-8.075,26.43c-1.616-10.573,0.148-31.716,0-32.307c-0.148-0.583,1.47,8.225,1.47,8.225
			c0.587-4.844,2.644-11.455,2.644-11.455l2.936-3.084L1127.416,474.526z"/>
		<path fill-rule="evenodd" clip-rule="evenodd" fill="#455A64" d="M1108.913,490.526l-3.669,6.905
			c5.283-3.671,12.922-17.032,12.922-17.032l-8.661,18.795l5.282-6.757l1.621,1.47c-3.824,5.437-17.477,31.426-17.477,31.426
			c-0.878-6.457,7.34-22.465,7.34-22.465l-18.062,7.631c6.462-4.552,21.142-28.19,21.735-29.076
			C1110.527,480.545,1108.913,490.526,1108.913,490.526z"/>
		<path fill-rule="evenodd" clip-rule="evenodd" fill="#455A64" d="M1174.11,481.573l-8.515,11.303l6.903-4.697
			c0,0,4.107-2.938,0,0.736c-4.11,3.67-26.14,26.58-26.14,26.58l14.393-20.56c-3.964,3.382-14.812,8.134-15.712,8.367
			c8.078-3.813,26.43-25.55,26.43-25.55L1174.11,481.573z"/>
		<path fill-rule="evenodd" clip-rule="evenodd" fill="#455A64" d="M1180.869,527.684c-0.735-6.609-1.176-16.004-1.176-16.004
			c-1.91,3.376-8.955,19.823-8.955,19.823c1.318-8.957,9.104-36.42,9.104-36.42s11.106-10.693,10.869-9.985
			C1188.813,490.687,1180.869,527.684,1180.869,527.684z"/>
		<path fill-rule="evenodd" clip-rule="evenodd" fill="#455A64" d="M1200,446.013v-1.963c-1.629,2.041-3.423,4.217-3.423,3.896
			c0-0.591,1.474-6.461,1.474-6.461l-3.969,0.438l-7.926,9.104l6.021-12.041l-1.173-0.143c0,0-12.338,8.069-14.397,9.835
			l8.231-13.508l-1.034-3.669c0,0-24.665,36.413-30.099,40.523c0,0,23.934-17.913,23.491-16.595
			c-0.439,1.327-7.336,12.778-9.397,15.274c0.645-0.205,18.941-12.187,23.642-15.711c0,0-6.459,21-8.366,28.637
			C1183.074,483.632,1194.244,458.19,1200,446.013z"/>
		<path fill-rule="evenodd" clip-rule="evenodd" fill="#455A64" d="M1142.135,556.821c0,0,4.698,4.701,9.322,8.367
			c0,0-5.068-16.32-5.355-22.767c0,0,6.238,15.059,9.395,21.739c0,0,6.096-16.074,9.766-19.602c0,0-5.432,15.347-5.727,21.067
			l5.213-8.217c0,0-1.688,6.461-0.883,10.791c0,0,5.506-14.243,4.846-22.83c0,0,1.103,15.485-0.291,19.817
			c0,0,8.811-9.838,13.804-12.473c0,0-6.535,5.134-8.444,10.641l7.421-1.842c0,0-4.116,5.438-4.782,9.553l-0.948-4.486
			c0,0-5.656,3.383-6.61,5.291l1.03-5.291c0,0-4.187,5.217-3.968,5.291c0.224,0.074,0.955-4.625,1.031-6.831
			c0,0-3.232,7.785-3.162,7.566c0.074-0.217-1.538-4.188-1.609-6.026l-2.057,6.026c0,0-3.086-5.212-2.717-7.708l-1.176,5.724
			c0,0-2.719-7.05-4.264-9.909l1.031,8.735C1153,569.449,1142.934,559.492,1142.135,556.821z"/>
	</g>
	<g>
		<path fill="#00695C" d="M1200,484.653c-7.137,11.617-13.877,24.39-27.102,24.39c-0.209,0-0.43-0.004-0.65-0.01
			c-14.752-0.463-62.406-3.227-62.406-3.227l-35.174,10.597c0,0-51.064,30.874-76.018,43.773
			c-24.963,12.906-27.24,15.207-53.322,18.894c-26.109,3.689-96.455,13.827-121.418,17.971
			c-24.963,4.149-80.559,16.129-96.447,17.512c-14.467,1.256-91.924,5.189-137.375,5.189c-4.473,0-8.635-0.037-12.402-0.119
			c-41.989-0.923-180.414-10.604-237.133-17.051c-56.75-6.45-110.072-16.589-116.879-19.354c-6.809-2.765-19.291-5.987-19.291-5.987
			s-137.29-17.517-147.51-18.433c-10.21-0.923-47.654-5.531-47.654-5.531s-3.63-2.871-9.219-7.27v100.809h1200V484.653z"/>
	</g>
	<path fill="#E0E0E0" d="M457.469,198.191"/>
	<g>
		<path fill="#004D40" d="M1199.717,567.097c-4.773,5.873-9.23,10.293-11.949,10.925c-7.955,1.843-11.363-13.363-17.045-15.666
			c-5.67-2.308-20.42-3.224-20.42-3.224l-22.707,11.746l-3.404,10.829c0,0-10.211,8.752-15.891,10.598
			c-5.672,1.845-14.75-6.45-14.75-6.45l-40.879,12.442c0,0-17.021,16.589-19.293,17.97c-2.268,1.384-35.176,5.529-71.512,10.138
			c-36.322,4.608-87.406,9.678-87.406,9.678l-15.889-15.668l-24.973,3.685l-20.428,13.361l-28.383,2.305
			c0,0-46.539,2.305-71.521,3.227c-24.953,0.921-72.637,0.462-82.854-0.922c-10.215-1.383-39.734-10.135-51.082-12.899
			c-11.354-2.766-35.197,11.057-35.197,11.057s-53.355,0.922-71.502,2.306c-18.168,1.38-49.939,0.459-76.059-0.924
			c-26.098-1.382-119.197-11.52-119.197-11.52s-21.564-12.438-26.102-14.284c-4.543-1.843-40.857,16.13-40.857,16.13l-40.869,6.453
			l-26.107-7.375c0,0-13.625-4.608-19.303-8.758c-5.67-4.145-23.832-19.812-23.832-19.812s-10.213,2.767-12.486,5.066
			c-2.27,2.305-6.816,0.466-22.711-6.91c-9.879-4.581-42.57-16.644-65.889-25.115v95.04l1200.496,1V567.097z"/>
	</g>
	<path fill-rule="evenodd" clip-rule="evenodd" fill="#26A69A" d="M649.58,632.493c-16.984-0.884-0.834,2.423,8.072,3.303
		c8.916,0.883,9.752,3.091,13.65,4.413c3.9,1.318-76.301,2.64-89.109,3.742c-12.81,1.104,36.197,3.971,49.568,4.631
		c13.369,0.662-15.596,3.086-25.9,3.749c-10.295,0.655,40.652,0.876,50.961,0.876c10.303,0-38.984,4.847-48.736,5.727
		c-9.741,0.885,30.916,3.309,44.002,4.189c13.09,0.879-39.822,0.442-51.514,0.442c-11.237,0,25.818,4.872,42.824,6.626h-96.842
		c-11.976-1.493-26.529-3.189-33.424-3.542c-12.804-0.659,50.126-0.883,64.05-1.103c13.921-0.219-40.101-4.181-49.285-5.729
		c-9.192-1.542,51.79-3.087,61.536-3.302c9.743-0.223-23.393-1.768-32.021-2.429c-8.634-0.657,37.031-3.084,52.073-4.627
		c15.033-1.539-58.759,0-61.916,0c-3.161,0-14.389-2.204-25.246-4.185c-10.861-1.989,5.573-2.209,13.088-2.866
		c7.518-0.662-13.359-3.304-25.061-5.511c-11.698-2.203,62.367-0.66,84.65-1.319c22.283-0.664-1.952-3.752-19.77-4.85
		c-17.819-1.104-70.737-0.662-80.761-1.764c-10.013-1.1,5.573-1.1,11.423-1.322c5.844-0.225,4.178-3.525-5.01-4.849
		c-9.189-1.325,20.883-1.101,30.629-1.983c9.75-0.883,0,0,5.843-1.318c5.849-1.322,42.608-1.765,50.533-2.424
		c7.926-0.663-50.808-0.663-56.931-0.885c-6.129-0.218-3.344-1.547,1.111-1.981c4.453-0.444-25.896-0.882-37.316-1.322
		c-11.412-0.441,34.81-1.985,45.665-2.203c10.862-0.223-20.882-1.322-11.411-2.204c9.466-0.887,48.175-5.733,57.08-6.171
		c8.914-0.438-20.283-3.431-19.215-3.751c2.23-0.657,56.812,1.548,78.258,2.868c21.438,1.32-37.045,4.189-50.687,5.291
		c-13.644,1.1,18.38,1.979,32.856,2.863c14.48,0.881,48.457,2.428,62.936,4.408c14.48,1.984-84.096,5.725-93.007,7.269
		c-8.908,1.544,85.21,6.168,97.462,6.615c12.25,0.437-8.072,1.541-16.988,1.321c-8.912-0.222,25.896,4.625,29.799,5.508
		C711.396,635.58,666.568,633.373,649.58,632.493z"/>
	<g opacity="0.8">
		<defs>
			<rect id="SVGID_4_" opacity="0.8" width="1200" height="559"/>
		</defs>
		<clipPath id="SVGID_5_">
			<use xlink:href="#SVGID_4_"  overflow="visible"/>
		</clipPath>
		<g opacity="0.6" clip-path="url(#SVGID_5_)">
			<g>
				<path opacity="0.4" fill="#FFFFFF" d="M1017.717,270.636c0-0.238-0.039-0.468-0.039-0.709c0-6.798,5.517-12.303,12.321-12.303
					c2.674,0,5.154,0.865,7.176,2.322c0-0.105-0.02-0.217-0.02-0.321c0-8.186,6.629-14.824,14.83-14.824
					c8.188,0,14.814,6.639,14.814,14.824c0,0.093,0,0.187,0,0.278c1.072-0.357,2.209-0.561,3.418-0.561
					c5.967,0,10.807,4.842,10.807,10.812c0,0.158-0.012,0.318-0.031,0.48H1017.717z"/>
				<path opacity="0.5" fill="#FFFFFF" d="M1025.511,348.833c-0.572-1.174-0.884-2.479-0.884-3.857c0-4.977,4.035-9.007,9.003-9.007
					c1.313,0,2.565,0.29,3.681,0.8c0.481-7.863,7.001-14.09,14.97-14.09c7.623,0,13.907,5.683,14.876,13.034
					c1.914-1.345,4.245-2.145,6.76-2.145c6.411,0,11.613,5.112,11.778,11.489c0.942-0.734,2.117-1.172,3.406-1.172
					c2.869,0,5.222,2.167,5.533,4.947H1025.511z"/>
				<path opacity="0.5" fill="#FFFFFF" d="M1144.447,329.534c-0.841-1.768-1.325-3.742-1.325-5.831
					c0-7.507,6.088-13.593,13.593-13.593c1.985,0,3.868,0.436,5.567,1.207c0.723-11.873,10.566-21.271,22.613-21.271
					c11.506,0,20.998,8.572,22.456,19.676c2.892-2.03,6.409-3.232,10.212-3.232c9.674,0,17.529,7.727,17.776,17.34
					c1.421-1.103,3.205-1.768,5.146-1.768c4.327,0,7.887,3.273,8.351,7.473H1144.447z"/>
				<path opacity="0.4" fill="#FFFFFF" d="M1304.82,366.881c-0.021-0.282-0.048-0.563-0.048-0.849
					c0-8.194,6.641-14.832,14.833-14.832c3.231,0,6.213,1.045,8.648,2.803c0-0.129-0.003-0.261-0.003-0.393
					c0-9.859,7.988-17.855,17.855-17.855c9.863,0,17.857,7.996,17.857,17.855c0,0.116-0.008,0.229-0.012,0.342
					c1.303-0.432,2.68-0.676,4.124-0.676c7.195,0,13.026,5.833,13.026,13.028c0,0.19-0.017,0.382-0.028,0.576H1304.82z"/>
				<path opacity="0.5" fill="#FFFFFF" d="M1212.356,237.703c-0.012-0.288-0.04-0.56-0.04-0.843c0-8.074,6.547-14.617,14.624-14.617
					c3.186,0,6.128,1.027,8.526,2.762c-0.003-0.13-0.011-0.259-0.011-0.389c0-9.723,7.881-17.604,17.605-17.604
					c9.719,0,17.608,7.882,17.608,17.604c0,0.111-0.009,0.222-0.011,0.335c1.277-0.425,2.645-0.665,4.061-0.665
					c7.097,0,12.849,5.748,12.849,12.842c0,0.191-0.021,0.377-0.031,0.575H1212.356z"/>
				<path opacity="0.25" fill="#FFFFFF" d="M970.2,433.288c-0.008-0.277-0.031-0.554-0.031-0.838c0-8.07,6.531-14.617,14.613-14.617
					c3.191,0,6.128,1.033,8.532,2.764c0-0.13-0.02-0.257-0.02-0.384c0-9.722,7.884-17.61,17.603-17.61
					c9.736,0,17.623,7.889,17.623,17.61c0,0.111-0.012,0.225-0.012,0.331c1.271-0.421,2.635-0.666,4.067-0.666
					c7.091,0,12.843,5.75,12.843,12.842c0,0.191-0.025,0.379-0.046,0.568H970.2z"/>
				<path opacity="0.2" fill="#FFFFFF" d="M926.681,218.625c-0.009-0.28-0.029-0.552-0.029-0.837
					c0-8.072,6.525-14.623,14.607-14.623c3.178,0,6.123,1.033,8.532,2.764c0-0.132-0.014-0.253-0.014-0.383
					c0-9.725,7.887-17.605,17.608-17.605c9.719,0,17.608,7.881,17.608,17.605c0,0.113-0.02,0.223-0.02,0.334
					c1.28-0.424,2.653-0.672,4.066-0.672c7.103,0,12.837,5.756,12.837,12.85c0,0.188-0.022,0.373-0.022,0.567H926.681z"/>
				<path opacity="0.3" fill="#FFFFFF" d="M858.894,369.301c-0.346-0.832-0.539-1.745-0.539-2.702c0-3.876,3.139-7.013,7.018-7.013
					c0.447,0,0.9,0.048,1.343,0.134c-0.241-0.939-0.374-1.911-0.374-2.922c0-6.564,5.311-11.885,11.877-11.885
					c2.229,0,4.324,0.629,6.089,1.697c1.668-10.338,10.594-18.247,21.378-18.247c11.965,0,21.652,9.673,21.687,21.618
					c2.71-2.809,6.485-4.557,10.685-4.557c8.145,0,14.746,6.572,14.819,14.707c0.853-0.348,1.762-0.546,2.73-0.546
					c3.862,0,7.009,3.137,7.009,7.013c0,0.957-0.193,1.87-0.541,2.702H858.894z"/>
				<path opacity="0.3" fill="#FFFFFF" d="M1314.472,203.28c-0.267-0.645-0.417-1.354-0.417-2.096c0-3.011,2.438-5.451,5.451-5.451
					c0.349,0,0.702,0.037,1.046,0.104c-0.188-0.729-0.292-1.484-0.292-2.269c0-5.102,4.129-9.237,9.229-9.237
					c1.733,0,3.362,0.489,4.732,1.32c1.297-8.033,8.229-14.178,16.612-14.178c9.297,0,16.824,7.517,16.85,16.797
					c2.104-2.182,5.041-3.541,8.303-3.541c6.329,0,11.458,5.107,11.515,11.428c0.663-0.271,1.368-0.424,2.121-0.424
					c3.002,0,5.445,2.44,5.445,5.451c0,0.741-0.147,1.451-0.416,2.096H1314.472z"/>
				<path opacity="0.3" fill="#FFFFFF" d="M1071.888,216.21c-0.348-0.832-0.54-1.746-0.54-2.7c0-3.87,3.146-7.009,7.012-7.009
					c0.456,0,0.92,0.043,1.342,0.128c-0.246-0.934-0.379-1.909-0.379-2.915c0-6.566,5.327-11.885,11.896-11.885
					c2.226,0,4.313,0.623,6.1,1.697c1.64-10.34,10.571-18.251,21.372-18.251c11.951,0,21.645,9.672,21.673,21.62
					c2.699-2.807,6.479-4.562,10.685-4.562c8.147,0,14.758,6.58,14.816,14.713c0.839-0.352,1.765-0.545,2.725-0.545
					c3.874,0,7.012,3.139,7.012,7.009c0,0.954-0.192,1.868-0.541,2.7H1071.888z"/>
				<path opacity="0.25" fill="#FFFFFF" d="M1305.384,290.593c-0.02-0.281-0.043-0.555-0.043-0.841
					c0-8.073,6.542-14.617,14.621-14.617c2.473,0,4.797,0.62,6.842,1.702c2.311-8.477,10.064-14.719,19.277-14.719
					c11.041,0,19.99,8.948,19.99,19.99c0,3.033-0.68,5.902-1.887,8.484H1305.384z"/>
				<path opacity="0.2" fill="#FFFFFF" d="M1235.354,426.741c-0.014-0.278-0.042-0.558-0.042-0.84
					c0-8.134,6.596-14.726,14.726-14.726c2.495,0,4.843,0.624,6.896,1.72c2.331-8.543,10.139-14.828,19.421-14.828
					c11.121,0,20.132,9.012,20.132,20.129c0,3.06-0.685,5.955-1.902,8.545H1235.354z"/>
			</g>
			<g>
				<path opacity="0.4" fill="#FFFFFF" d="M-67.926,270.636c0-0.238-0.043-0.468-0.043-0.709c0-6.798,5.519-12.303,12.317-12.303
					c2.678,0,5.158,0.865,7.181,2.322c0-0.105-0.022-0.217-0.022-0.321c0-8.186,6.632-14.824,14.833-14.824
					c8.186,0,14.813,6.639,14.813,14.824c0,0.093,0,0.187,0,0.278c1.07-0.357,2.206-0.561,3.417-0.561
					c5.968,0,10.808,4.842,10.808,10.812c0,0.158-0.012,0.318-0.033,0.48H-67.926z"/>
				<path opacity="0.4" fill="#FFFFFF" d="M48.301,402.603c-0.65-1.377-1.034-2.904-1.034-4.529c0-5.832,4.732-10.561,10.566-10.561
					c1.546,0,3.007,0.34,4.33,0.935c0.555-9.218,8.203-16.532,17.562-16.532c8.943,0,16.323,6.668,17.456,15.299
					c2.243-1.582,4.981-2.516,7.933-2.516c7.521,0,13.619,5.998,13.815,13.469c1.103-0.848,2.481-1.367,3.994-1.367
					c3.362,0,6.13,2.537,6.496,5.803H48.301z"/>
				<path opacity="0.5" fill="#FFFFFF" d="M-60.138,348.833c-0.572-1.174-0.881-2.479-0.881-3.857c0-4.977,4.033-9.007,9.004-9.007
					c1.31,0,2.561,0.29,3.677,0.8c0.484-7.863,7.003-14.09,14.973-14.09c7.62,0,13.905,5.683,14.876,13.034
					c1.914-1.345,4.242-2.145,6.76-2.145c6.411,0,11.611,5.112,11.777,11.489c0.94-0.734,2.118-1.172,3.41-1.172
					c2.865,0,5.221,2.167,5.53,4.947H-60.138z"/>
				<path opacity="0.5" fill="#FFFFFF" d="M58.802,329.534c-0.843-1.768-1.332-3.742-1.332-5.831c0-7.507,6.092-13.593,13.6-13.593
					c1.984,0,3.868,0.436,5.567,1.207c0.719-11.873,10.562-21.271,22.609-21.271c11.509,0,21.001,8.572,22.456,19.676
					c2.896-2.03,6.414-3.232,10.213-3.232c9.677,0,17.535,7.727,17.777,17.34c1.426-1.103,3.203-1.768,5.149-1.768
					c4.324,0,7.884,3.273,8.346,7.473H58.802z"/>
				<path opacity="0.4" fill="#FFFFFF" d="M219.173,366.881c-0.016-0.282-0.044-0.563-0.044-0.849
					c0-8.194,6.638-14.832,14.825-14.832c3.236,0,6.219,1.045,8.656,2.803c-0.005-0.129-0.008-0.261-0.008-0.393
					c0-9.859,7.991-17.855,17.855-17.855c9.865,0,17.859,7.996,17.859,17.855c0,0.116-0.009,0.229-0.009,0.342
					c1.301-0.432,2.677-0.676,4.118-0.676c7.202,0,13.03,5.833,13.03,13.028c0,0.19-0.017,0.382-0.028,0.576H219.173z"/>
				<path opacity="0.5" fill="#FFFFFF" d="M126.708,237.703c-0.007-0.288-0.036-0.56-0.036-0.843
					c0-8.074,6.549-14.617,14.621-14.617c3.19,0,6.128,1.027,8.528,2.762c-0.006-0.13-0.013-0.259-0.013-0.389
					c0-9.723,7.88-17.604,17.606-17.604c9.72,0,17.609,7.882,17.609,17.604c0,0.111-0.009,0.222-0.012,0.335
					c1.277-0.425,2.646-0.665,4.062-0.665c7.097,0,12.845,5.748,12.845,12.842c0,0.191-0.017,0.377-0.031,0.575H126.708z"/>
				<path opacity="0.25" fill="#FFFFFF" d="M-115.443,433.288c-0.013-0.277-0.036-0.554-0.036-0.838
					c0-8.07,6.53-14.617,14.611-14.617c3.196,0,6.13,1.033,8.534,2.764c0-0.13-0.019-0.257-0.019-0.384
					c0-9.722,7.886-17.61,17.602-17.61c9.739,0,17.623,7.889,17.623,17.61c0,0.111-0.013,0.225-0.013,0.331
					c1.275-0.421,2.635-0.666,4.069-0.666c7.09,0,12.844,5.75,12.844,12.842c0,0.191-0.026,0.379-0.048,0.568H-115.443z"/>
				<path opacity="0.2" fill="#FFFFFF" d="M-158.966,218.625c-0.012-0.28-0.028-0.552-0.028-0.837
					c0-8.072,6.522-14.623,14.604-14.623c3.18,0,6.121,1.033,8.535,2.764c0-0.132-0.018-0.253-0.018-0.383
					c0-9.725,7.888-17.605,17.61-17.605c9.721,0,17.61,7.881,17.61,17.605c0,0.113-0.021,0.223-0.021,0.334
					c1.281-0.424,2.655-0.672,4.066-0.672c7.104,0,12.839,5.756,12.839,12.85c0,0.188-0.021,0.373-0.021,0.567H-158.966z"/>
				<path opacity="0.3" fill="#FFFFFF" d="M-226.756,369.301c-0.344-0.832-0.538-1.745-0.538-2.702c0-3.876,3.141-7.013,7.021-7.013
					c0.444,0,0.902,0.048,1.338,0.134c-0.234-0.939-0.372-1.911-0.372-2.922c0-6.564,5.312-11.885,11.877-11.885
					c2.231,0,4.327,0.629,6.092,1.697c1.666-10.338,10.594-18.247,21.375-18.247c11.967,0,21.652,9.673,21.688,21.618
					c2.709-2.809,6.485-4.557,10.689-4.557c8.143,0,14.741,6.572,14.813,14.707c0.858-0.348,1.766-0.546,2.732-0.546
					c3.866,0,7.008,3.137,7.008,7.013c0,0.957-0.192,1.87-0.54,2.702H-226.756z"/>
				<path opacity="0.3" fill="#FFFFFF" d="M228.827,203.28c-0.27-0.645-0.418-1.354-0.418-2.096c0-3.011,2.438-5.451,5.451-5.451
					c0.349,0,0.702,0.037,1.042,0.104c-0.187-0.729-0.29-1.484-0.29-2.269c0-5.102,4.127-9.237,9.229-9.237
					c1.732,0,3.362,0.489,4.734,1.32c1.294-8.033,8.227-14.178,16.61-14.178c9.297,0,16.825,7.517,16.851,16.797
					c2.104-2.182,5.038-3.541,8.304-3.541c6.329,0,11.456,5.107,11.515,11.428c0.662-0.271,1.37-0.424,2.121-0.424
					c3.002,0,5.447,2.44,5.447,5.451c0,0.741-0.152,1.451-0.424,2.096H228.827z"/>
				<path opacity="0.3" fill="#FFFFFF" d="M-13.758,216.21c-0.351-0.832-0.542-1.746-0.542-2.7c0-3.87,3.147-7.009,7.014-7.009
					c0.455,0,0.918,0.043,1.342,0.128c-0.246-0.934-0.381-1.909-0.381-2.915c0-6.566,5.328-11.885,11.898-11.885
					c2.226,0,4.312,0.623,6.097,1.697c1.64-10.34,10.573-18.251,21.375-18.251c11.948,0,21.642,9.672,21.671,21.62
					c2.702-2.807,6.481-4.562,10.684-4.562c8.147,0,14.76,6.58,14.819,14.713c0.839-0.352,1.762-0.545,2.722-0.545
					c3.88,0,7.012,3.139,7.012,7.009c0,0.954-0.189,1.868-0.535,2.7H-13.758z"/>
				<path opacity="0.25" fill="#FFFFFF" d="M219.735,290.593c-0.018-0.281-0.041-0.555-0.041-0.841
					c0-8.073,6.543-14.617,14.619-14.617c2.475,0,4.799,0.62,6.845,1.702c2.311-8.477,10.064-14.719,19.276-14.719
					c11.043,0,19.989,8.948,19.989,19.99c0,3.033-0.679,5.902-1.885,8.484H219.735z"/>
				<path opacity="0.2" fill="#FFFFFF" d="M149.708,426.741c-0.016-0.278-0.043-0.558-0.043-0.84
					c0-8.134,6.596-14.726,14.725-14.726c2.495,0,4.843,0.624,6.897,1.72c2.327-8.543,10.14-14.828,19.421-14.828
					c11.121,0,20.132,9.012,20.132,20.129c0,3.06-0.687,5.955-1.904,8.545H149.708z"/>
			</g>
			<g>
				<path opacity="0.4" fill="#FFFFFF" d="M474.897,271.663c0-0.238-0.043-0.466-0.043-0.707c0-6.801,5.518-12.305,12.316-12.305
					c2.679,0,5.159,0.865,7.182,2.322c0-0.105-0.023-0.216-0.023-0.321c0-8.187,6.633-14.824,14.834-14.824
					c8.186,0,14.813,6.638,14.813,14.824c0,0.095,0,0.188,0,0.28c1.07-0.359,2.206-0.562,3.415-0.562
					c5.97,0,10.81,4.842,10.81,10.814c0,0.156-0.012,0.318-0.034,0.479H474.897z"/>
				<path opacity="0.4" fill="#FFFFFF" d="M591.124,403.63c-0.652-1.378-1.034-2.902-1.034-4.531c0-5.83,4.732-10.559,10.565-10.559
					c1.549,0,3.008,0.34,4.33,0.934c0.555-9.218,8.204-16.531,17.563-16.531c8.943,0,16.326,6.67,17.459,15.299
					c2.239-1.58,4.979-2.515,7.929-2.515c7.521,0,13.622,5.997,13.817,13.468c1.104-0.848,2.483-1.365,3.995-1.365
					c3.362,0,6.129,2.535,6.497,5.801H591.124z"/>
				<path opacity="0.4" fill="#FFFFFF" d="M829.034,449.661c-0.648-1.379-1.031-2.903-1.031-4.531c0-5.83,4.732-10.56,10.565-10.56
					c1.546,0,3.008,0.341,4.33,0.935c0.556-9.219,8.204-16.533,17.563-16.533c8.943,0,16.323,6.67,17.456,15.3
					c2.243-1.581,4.981-2.516,7.932-2.516c7.521,0,13.622,5.999,13.817,13.47c1.104-0.849,2.48-1.366,3.992-1.366
					c3.362,0,6.132,2.534,6.497,5.802H829.034z"/>
				<path opacity="0.5" fill="#FFFFFF" d="M482.685,349.861c-0.572-1.174-0.881-2.479-0.881-3.858c0-4.977,4.034-9.006,9.004-9.006
					c1.311,0,2.562,0.289,3.678,0.799c0.484-7.863,7.003-14.09,14.972-14.09c7.621,0,13.906,5.683,14.876,13.033
					c1.914-1.343,4.242-2.143,6.76-2.143c6.412,0,11.612,5.112,11.778,11.488c0.94-0.732,2.118-1.172,3.409-1.172
					c2.866,0,5.221,2.168,5.531,4.948H482.685z"/>
				<path opacity="0.5" fill="#FFFFFF" d="M601.627,330.562c-0.844-1.768-1.331-3.742-1.331-5.83
					c0-7.506,6.092-13.593,13.596-13.593c1.988,0,3.869,0.435,5.568,1.204c0.722-11.871,10.565-21.27,22.612-21.27
					c11.506,0,20.998,8.572,22.454,19.676c2.896-2.029,6.414-3.232,10.215-3.232c9.674,0,17.531,7.728,17.775,17.342
					c1.424-1.105,3.203-1.77,5.148-1.77c4.324,0,7.884,3.274,8.346,7.473H601.627z"/>
				<path opacity="0.4" fill="#FFFFFF" d="M761.997,367.909c-0.018-0.281-0.045-0.562-0.045-0.851
					c0-8.192,6.638-14.829,14.827-14.829c3.234,0,6.219,1.043,8.654,2.802c-0.005-0.128-0.005-0.261-0.005-0.393
					c0-9.858,7.988-17.855,17.854-17.855c9.863,0,17.858,7.997,17.858,17.855c0,0.115-0.009,0.229-0.009,0.342
					c1.303-0.433,2.676-0.675,4.12-0.675c7.199,0,13.027,5.832,13.027,13.027c0,0.19-0.018,0.381-0.029,0.576H761.997z"/>
				<path opacity="0.5" fill="#FFFFFF" d="M669.533,238.729c-0.009-0.287-0.037-0.56-0.037-0.842
					c0-8.073,6.548-14.617,14.621-14.617c3.188,0,6.128,1.027,8.529,2.762c-0.005-0.129-0.014-0.258-0.014-0.389
					c0-9.723,7.878-17.604,17.605-17.604c9.722,0,17.612,7.881,17.612,17.604c0,0.113-0.012,0.222-0.015,0.336
					c1.277-0.424,2.646-0.666,4.062-0.666c7.099,0,12.848,5.748,12.848,12.844c0,0.19-0.02,0.375-0.031,0.572H669.533z"/>
				<path opacity="0.25" fill="#FFFFFF" d="M427.379,434.317c-0.013-0.278-0.035-0.555-0.035-0.838
					c0-8.072,6.53-14.617,14.61-14.617c3.196,0,6.131,1.031,8.535,2.763c0-0.132-0.019-0.258-0.019-0.385
					c0-9.723,7.886-17.61,17.602-17.61c9.739,0,17.622,7.888,17.622,17.61c0,0.112-0.012,0.225-0.012,0.331
					c1.275-0.421,2.635-0.666,4.069-0.666c7.089,0,12.844,5.751,12.844,12.844c0,0.189-0.026,0.377-0.048,0.568H427.379z"/>
				<path opacity="0.2" fill="#FFFFFF" d="M383.857,219.651c-0.012-0.279-0.028-0.551-0.028-0.836
					c0-8.071,6.521-14.621,14.604-14.621c3.181,0,6.12,1.032,8.534,2.762c0-0.133-0.016-0.252-0.016-0.383
					c0-9.726,7.887-17.605,17.61-17.605c9.721,0,17.61,7.88,17.61,17.605c0,0.113-0.021,0.223-0.021,0.336
					c1.281-0.426,2.653-0.674,4.066-0.674c7.103,0,12.839,5.756,12.839,12.85c0,0.189-0.021,0.374-0.021,0.566H383.857z"/>
				<path opacity="0.3" fill="#FFFFFF" d="M316.065,370.328c-0.344-0.832-0.536-1.743-0.536-2.7c0-3.878,3.141-7.014,7.019-7.014
					c0.446,0,0.903,0.048,1.338,0.133c-0.233-0.939-0.371-1.91-0.371-2.92c0-6.565,5.313-11.888,11.877-11.888
					c2.232,0,4.328,0.631,6.092,1.699c1.667-10.339,10.594-18.247,21.375-18.247c11.968,0,21.653,9.673,21.688,21.617
					c2.71-2.807,6.486-4.557,10.689-4.557c8.144,0,14.742,6.572,14.814,14.707c0.857-0.349,1.766-0.545,2.732-0.545
					c3.865,0,7.008,3.136,7.008,7.014c0,0.957-0.193,1.868-0.54,2.7H316.065z"/>
				<path opacity="0.3" fill="#FFFFFF" d="M278.261,454.784c-0.345-0.831-0.537-1.742-0.537-2.699c0-3.878,3.141-7.014,7.021-7.014
					c0.444,0,0.901,0.048,1.338,0.133c-0.235-0.939-0.372-1.91-0.372-2.92c0-6.566,5.312-11.888,11.877-11.888
					c2.23,0,4.326,0.631,6.091,1.699c1.667-10.339,10.595-18.247,21.375-18.247c11.968,0,21.653,9.673,21.687,21.617
					c2.711-2.809,6.486-4.557,10.69-4.557c8.144,0,14.743,6.574,14.813,14.707c0.858-0.348,1.766-0.545,2.733-0.545
					c3.865,0,7.009,3.136,7.009,7.014c0,0.957-0.192,1.868-0.541,2.699H278.261z"/>
				<path opacity="0.3" fill="#FFFFFF" d="M771.651,204.31c-0.27-0.646-0.417-1.356-0.417-2.099c0-3.011,2.436-5.45,5.449-5.45
					c0.348,0,0.702,0.037,1.045,0.104c-0.19-0.729-0.292-1.485-0.292-2.27c0-5.103,4.126-9.236,9.229-9.236
					c1.733,0,3.361,0.489,4.734,1.319c1.294-8.032,8.224-14.178,16.609-14.178c9.297,0,16.824,7.518,16.853,16.797
					c2.102-2.182,5.038-3.541,8.301-3.541c6.329,0,11.457,5.107,11.517,11.428c0.663-0.271,1.368-0.424,2.118-0.424
					c3.002,0,5.449,2.439,5.449,5.45c0,0.742-0.15,1.452-0.422,2.099H771.651z"/>
				<path opacity="0.3" fill="#FFFFFF" d="M529.065,217.239c-0.352-0.834-0.543-1.748-0.543-2.701c0-3.869,3.148-7.009,7.014-7.009
					c0.456,0,0.919,0.044,1.341,0.127c-0.245-0.933-0.381-1.909-0.381-2.914c0-6.565,5.33-11.887,11.899-11.887
					c2.227,0,4.313,0.624,6.098,1.698c1.64-10.338,10.571-18.25,21.375-18.25c11.947,0,21.645,9.672,21.672,21.619
					c2.702-2.807,6.48-4.562,10.686-4.562c8.145,0,14.757,6.58,14.819,14.715c0.835-0.352,1.759-0.546,2.722-0.546
					c3.876,0,7.012,3.14,7.012,7.009c0,0.953-0.193,1.867-0.539,2.701H529.065z"/>
				<path opacity="0.25" fill="#FFFFFF" d="M762.561,291.62c-0.02-0.279-0.042-0.553-0.042-0.84c0-8.073,6.541-14.617,14.621-14.617
					c2.472,0,4.797,0.62,6.842,1.703c2.313-8.479,10.064-14.721,19.276-14.721c11.044,0,19.99,8.948,19.99,19.991
					c0,3.03-0.68,5.901-1.886,8.483H762.561z"/>
				<path opacity="0.2" fill="#FFFFFF" d="M692.53,427.77c-0.014-0.279-0.042-0.559-0.042-0.841c0-8.133,6.599-14.725,14.726-14.725
					c2.495,0,4.843,0.623,6.896,1.719c2.33-8.542,10.141-14.826,19.424-14.826c11.12,0,20.129,9.01,20.129,20.127
					c0,3.061-0.686,5.956-1.903,8.546H692.53z"/>
			</g>
		</g>
		<g opacity="0.6" clip-path="url(#SVGID_5_)">
			<g>
				<path opacity="0.4" fill="#FFFFFF" d="M1025.26-58.462c0-0.238-0.039-0.468-0.039-0.709c0-6.798,5.517-12.303,12.321-12.303
					c2.674,0,5.154,0.865,7.176,2.322c0-0.105-0.02-0.217-0.02-0.321c0-8.186,6.629-14.824,14.83-14.824
					c8.188,0,14.814,6.639,14.814,14.824c0,0.093,0,0.187,0,0.278c1.072-0.357,2.209-0.561,3.418-0.561
					c5.967,0,10.807,4.842,10.807,10.812c0,0.158-0.012,0.318-0.031,0.48H1025.26z"/>
				<path opacity="0.4" fill="#FFFFFF" d="M1141.489,73.505c-0.648-1.377-1.031-2.904-1.031-4.529
					c0-5.832,4.729-10.561,10.563-10.561c1.546,0,3.008,0.34,4.327,0.935c0.555-9.218,8.207-16.532,17.566-16.532
					c8.94,0,16.323,6.668,17.453,15.299c2.245-1.582,4.98-2.516,7.935-2.516c7.519,0,13.624,5.998,13.817,13.469
					c1.104-0.848,2.483-1.367,3.995-1.367c3.358,0,6.128,2.537,6.497,5.803H1141.489z"/>
				<path opacity="0.2" fill="#FFFFFF" d="M1142.826,156.442c-0.654-1.375-1.031-2.904-1.031-4.527
					c0-5.832,4.724-10.565,10.561-10.565c1.543,0,3.007,0.343,4.324,0.937c0.558-9.22,8.21-16.523,17.571-16.523
					c8.938,0,16.318,6.658,17.451,15.288c2.248-1.577,4.979-2.513,7.938-2.513c7.519,0,13.621,6.002,13.816,13.475
					c1.102-0.855,2.484-1.372,3.99-1.372c3.361,0,6.131,2.535,6.499,5.802H1142.826z"/>
				<path opacity="0.5" fill="#FFFFFF" d="M1033.054,19.735c-0.572-1.174-0.884-2.479-0.884-3.857c0-4.977,4.035-9.007,9.003-9.007
					c1.313,0,2.565,0.29,3.681,0.8c0.481-7.863,7.001-14.09,14.97-14.09c7.623,0,13.907,5.683,14.876,13.034
					c1.914-1.345,4.245-2.145,6.76-2.145c6.411,0,11.613,5.112,11.778,11.489c0.942-0.734,2.117-1.172,3.406-1.172
					c2.869,0,5.222,2.167,5.533,4.947H1033.054z"/>
				<path opacity="0.5" fill="#FFFFFF" d="M1151.99,0.437c-0.841-1.768-1.325-3.742-1.325-5.831c0-7.507,6.088-13.593,13.593-13.593
					c1.985,0,3.868,0.436,5.567,1.207c0.723-11.873,10.566-21.271,22.613-21.271c11.506,0,20.998,8.572,22.456,19.676
					c2.892-2.03,6.409-3.232,10.212-3.232c9.674,0,17.529,7.727,17.776,17.34c1.421-1.103,3.205-1.768,5.146-1.768
					c4.327,0,7.887,3.273,8.351,7.473H1151.99z"/>
				<path opacity="0.4" fill="#FFFFFF" d="M1312.363,37.783c-0.021-0.282-0.048-0.563-0.048-0.849
					c0-8.194,6.641-14.832,14.833-14.832c3.231,0,6.213,1.045,8.648,2.803c0-0.129-0.003-0.261-0.003-0.393
					c0-9.859,7.988-17.855,17.855-17.855c9.863,0,17.857,7.996,17.857,17.855c0,0.116-0.008,0.229-0.012,0.342
					c1.303-0.432,2.68-0.676,4.124-0.676c7.195,0,13.026,5.833,13.026,13.028c0,0.19-0.017,0.382-0.028,0.576H1312.363z"/>
				<path opacity="0.5" fill="#FFFFFF" d="M1219.899-91.395c-0.012-0.288-0.04-0.56-0.04-0.843c0-8.074,6.547-14.617,14.624-14.617
					c3.186,0,6.128,1.027,8.526,2.762c-0.003-0.13-0.011-0.259-0.011-0.389c0-9.723,7.881-17.604,17.605-17.604
					c9.719,0,17.608,7.882,17.608,17.604c0,0.111-0.009,0.222-0.011,0.335c1.277-0.425,2.645-0.665,4.061-0.665
					c7.097,0,12.849,5.748,12.849,12.842c0,0.191-0.021,0.377-0.031,0.575H1219.899z"/>
				<path opacity="0.25" fill="#FFFFFF" d="M977.743,104.19c-0.008-0.277-0.031-0.554-0.031-0.838
					c0-8.07,6.531-14.617,14.613-14.617c3.191,0,6.128,1.033,8.532,2.764c0-0.13-0.02-0.257-0.02-0.384
					c0-9.722,7.884-17.61,17.603-17.61c9.736,0,17.623,7.889,17.623,17.61c0,0.111-0.012,0.225-0.012,0.331
					c1.271-0.421,2.635-0.666,4.067-0.666c7.091,0,12.843,5.75,12.843,12.842c0,0.191-0.025,0.379-0.046,0.568H977.743z"/>
				<path opacity="0.2" fill="#FFFFFF" d="M934.224-110.473c-0.009-0.28-0.029-0.552-0.029-0.837
					c0-8.072,6.525-14.623,14.607-14.623c3.178,0,6.123,1.033,8.532,2.764c0-0.132-0.014-0.253-0.014-0.383
					c0-9.725,7.887-17.605,17.608-17.605c9.719,0,17.608,7.881,17.608,17.605c0,0.113-0.02,0.223-0.02,0.334
					c1.28-0.424,2.653-0.672,4.066-0.672c7.103,0,12.837,5.756,12.837,12.85c0,0.188-0.022,0.373-0.022,0.567H934.224z"/>
				<path opacity="0.3" fill="#FFFFFF" d="M866.437,40.203c-0.346-0.832-0.539-1.745-0.539-2.702c0-3.876,3.139-7.013,7.018-7.013
					c0.447,0,0.9,0.048,1.343,0.134c-0.241-0.939-0.374-1.911-0.374-2.922c0-6.564,5.311-11.885,11.877-11.885
					c2.229,0,4.324,0.629,6.089,1.697c1.668-10.338,10.594-18.247,21.378-18.247c11.965,0,21.652,9.673,21.687,21.618
					c2.71-2.809,6.485-4.557,10.685-4.557c8.145,0,14.746,6.572,14.819,14.707c0.853-0.348,1.762-0.546,2.73-0.546
					c3.862,0,7.009,3.137,7.009,7.013c0,0.957-0.193,1.87-0.541,2.702H866.437z"/>
				<path opacity="0.3" fill="#FFFFFF" d="M1322.015-125.817c-0.267-0.645-0.417-1.354-0.417-2.096c0-3.011,2.438-5.451,5.451-5.451
					c0.349,0,0.702,0.037,1.046,0.104c-0.188-0.729-0.292-1.484-0.292-2.269c0-5.102,4.129-9.237,9.229-9.237
					c1.733,0,3.362,0.489,4.732,1.32c1.297-8.033,8.229-14.178,16.612-14.178c9.297,0,16.824,7.517,16.85,16.797
					c2.104-2.182,5.041-3.541,8.303-3.541c6.329,0,11.458,5.107,11.515,11.428c0.663-0.271,1.368-0.424,2.121-0.424
					c3.002,0,5.445,2.44,5.445,5.451c0,0.741-0.147,1.451-0.416,2.096H1322.015z"/>
				<path opacity="0.3" fill="#FFFFFF" d="M1079.431-112.888c-0.348-0.832-0.54-1.746-0.54-2.7c0-3.87,3.146-7.009,7.012-7.009
					c0.456,0,0.92,0.043,1.342,0.128c-0.246-0.934-0.379-1.909-0.379-2.915c0-6.566,5.327-11.885,11.896-11.885
					c2.226,0,4.313,0.623,6.1,1.697c1.64-10.34,10.571-18.251,21.372-18.251c11.951,0,21.645,9.672,21.673,21.62
					c2.699-2.807,6.479-4.562,10.685-4.562c8.147,0,14.758,6.58,14.816,14.713c0.839-0.352,1.765-0.545,2.725-0.545
					c3.874,0,7.012,3.139,7.012,7.009c0,0.954-0.192,1.868-0.541,2.7H1079.431z"/>
				<path opacity="0.25" fill="#FFFFFF" d="M1312.927-38.505c-0.02-0.281-0.043-0.555-0.043-0.841
					c0-8.073,6.542-14.617,14.621-14.617c2.473,0,4.797,0.62,6.842,1.702c2.311-8.477,10.064-14.719,19.277-14.719
					c11.041,0,19.99,8.948,19.99,19.99c0,3.033-0.68,5.902-1.887,8.484H1312.927z"/>
				<path opacity="0.2" fill="#FFFFFF" d="M1242.896,97.644c-0.014-0.278-0.042-0.558-0.042-0.84
					c0-8.134,6.596-14.726,14.726-14.726c2.495,0,4.843,0.624,6.896,1.72c2.331-8.543,10.139-14.828,19.421-14.828
					c11.121,0,20.132,9.012,20.132,20.129c0,3.06-0.685,5.955-1.902,8.545H1242.896z"/>
				<path opacity="0.2" fill="#FFFFFF" d="M1041.643,156.442c-0.017-0.238-0.037-0.464-0.037-0.703
					c0-6.804,5.505-12.316,12.319-12.316c2.078,0,4.029,0.529,5.763,1.436c1.937-7.143,8.462-12.393,16.235-12.393
					c9.288,0,16.815,7.533,16.815,16.834c0,2.547-0.566,4.976-1.583,7.143H1041.643z"/>
			</g>
			<g>
				<path opacity="0.4" fill="#FFFFFF" d="M-60.383-58.462c0-0.238-0.043-0.468-0.043-0.709c0-6.798,5.519-12.303,12.317-12.303
					c2.678,0,5.158,0.865,7.181,2.322c0-0.105-0.022-0.217-0.022-0.321c0-8.186,6.632-14.824,14.833-14.824
					c8.186,0,14.813,6.639,14.813,14.824c0,0.093,0,0.187,0,0.278c1.07-0.357,2.206-0.561,3.417-0.561
					c5.968,0,10.808,4.842,10.808,10.812c0,0.158-0.012,0.318-0.033,0.48H-60.383z"/>
				<path opacity="0.4" fill="#FFFFFF" d="M55.844,73.505c-0.65-1.377-1.034-2.904-1.034-4.529c0-5.832,4.732-10.561,10.566-10.561
					c1.546,0,3.007,0.34,4.33,0.935c0.555-9.218,8.203-16.532,17.562-16.532c8.943,0,16.323,6.668,17.456,15.299
					c2.243-1.582,4.981-2.516,7.933-2.516c7.521,0,13.619,5.998,13.815,13.469c1.103-0.848,2.481-1.367,3.994-1.367
					c3.362,0,6.13,2.537,6.496,5.803H55.844z"/>
				<path opacity="0.2" fill="#FFFFFF" d="M57.179,156.442c-0.652-1.375-1.029-2.904-1.029-4.527
					c0-5.832,4.721-10.565,10.562-10.565c1.541,0,3.005,0.343,4.322,0.937c0.558-9.22,8.209-16.523,17.57-16.523
					c8.938,0,16.318,6.658,17.451,15.288c2.249-1.577,4.978-2.513,7.936-2.513c7.52,0,13.622,6.002,13.814,13.475
					c1.106-0.855,2.491-1.372,3.995-1.372c3.358,0,6.13,2.535,6.499,5.802H57.179z"/>
				<path opacity="0.5" fill="#FFFFFF" d="M-52.595,19.735c-0.572-1.174-0.881-2.479-0.881-3.857c0-4.977,4.033-9.007,9.004-9.007
					c1.31,0,2.561,0.29,3.677,0.8c0.484-7.863,7.003-14.09,14.973-14.09c7.62,0,13.905,5.683,14.876,13.034
					c1.914-1.345,4.242-2.145,6.76-2.145c6.411,0,11.611,5.112,11.777,11.489c0.94-0.734,2.118-1.172,3.41-1.172
					c2.865,0,5.221,2.167,5.53,4.947H-52.595z"/>
				<path opacity="0.5" fill="#FFFFFF" d="M66.345,0.437c-0.843-1.768-1.332-3.742-1.332-5.831c0-7.507,6.092-13.593,13.6-13.593
					c1.984,0,3.868,0.436,5.567,1.207c0.719-11.873,10.562-21.271,22.609-21.271c11.509,0,21.001,8.572,22.456,19.676
					c2.896-2.03,6.414-3.232,10.213-3.232c9.677,0,17.535,7.727,17.777,17.34c1.426-1.103,3.203-1.768,5.149-1.768
					c4.324,0,7.884,3.273,8.346,7.473H66.345z"/>
				<path opacity="0.4" fill="#FFFFFF" d="M226.716,37.783c-0.016-0.282-0.044-0.563-0.044-0.849
					c0-8.194,6.638-14.832,14.825-14.832c3.236,0,6.219,1.045,8.656,2.803c-0.005-0.129-0.008-0.261-0.008-0.393
					c0-9.859,7.991-17.855,17.855-17.855c9.865,0,17.859,7.996,17.859,17.855c0,0.116-0.009,0.229-0.009,0.342
					c1.301-0.432,2.677-0.676,4.118-0.676c7.202,0,13.03,5.833,13.03,13.028c0,0.19-0.017,0.382-0.028,0.576H226.716z"/>
				<path opacity="0.5" fill="#FFFFFF" d="M134.251-91.395c-0.007-0.288-0.036-0.56-0.036-0.843c0-8.074,6.549-14.617,14.621-14.617
					c3.19,0,6.128,1.027,8.528,2.762c-0.006-0.13-0.013-0.259-0.013-0.389c0-9.723,7.88-17.604,17.606-17.604
					c9.72,0,17.609,7.882,17.609,17.604c0,0.111-0.009,0.222-0.012,0.335c1.277-0.425,2.646-0.665,4.062-0.665
					c7.097,0,12.845,5.748,12.845,12.842c0,0.191-0.017,0.377-0.031,0.575H134.251z"/>
				<path opacity="0.25" fill="#FFFFFF" d="M-107.9,104.19c-0.013-0.277-0.036-0.554-0.036-0.838c0-8.07,6.53-14.617,14.611-14.617
					c3.196,0,6.13,1.033,8.534,2.764c0-0.13-0.019-0.257-0.019-0.384c0-9.722,7.886-17.61,17.602-17.61
					c9.739,0,17.623,7.889,17.623,17.61c0,0.111-0.013,0.225-0.013,0.331c1.275-0.421,2.635-0.666,4.069-0.666
					c7.09,0,12.844,5.75,12.844,12.842c0,0.191-0.026,0.379-0.048,0.568H-107.9z"/>
				<path opacity="0.2" fill="#FFFFFF" d="M-151.423-110.473c-0.012-0.28-0.028-0.552-0.028-0.837
					c0-8.072,6.522-14.623,14.604-14.623c3.18,0,6.121,1.033,8.535,2.764c0-0.132-0.018-0.253-0.018-0.383
					c0-9.725,7.888-17.605,17.61-17.605c9.721,0,17.61,7.881,17.61,17.605c0,0.113-0.021,0.223-0.021,0.334
					c1.281-0.424,2.655-0.672,4.066-0.672c7.104,0,12.839,5.756,12.839,12.85c0,0.188-0.021,0.373-0.021,0.567H-151.423z"/>
				<path opacity="0.3" fill="#FFFFFF" d="M-219.213,40.203c-0.344-0.832-0.538-1.745-0.538-2.702c0-3.876,3.141-7.013,7.021-7.013
					c0.444,0,0.902,0.048,1.338,0.134c-0.234-0.939-0.372-1.911-0.372-2.922c0-6.564,5.312-11.885,11.877-11.885
					c2.231,0,4.327,0.629,6.092,1.697c1.666-10.338,10.594-18.247,21.375-18.247c11.967,0,21.652,9.673,21.688,21.618
					c2.709-2.809,6.485-4.557,10.689-4.557c8.143,0,14.741,6.572,14.813,14.707c0.858-0.348,1.766-0.546,2.732-0.546
					c3.866,0,7.008,3.137,7.008,7.013c0,0.957-0.192,1.87-0.54,2.702H-219.213z"/>
				<path opacity="0.3" fill="#FFFFFF" d="M236.37-125.817c-0.27-0.645-0.418-1.354-0.418-2.096c0-3.011,2.438-5.451,5.451-5.451
					c0.349,0,0.702,0.037,1.042,0.104c-0.187-0.729-0.29-1.484-0.29-2.269c0-5.102,4.127-9.237,9.229-9.237
					c1.732,0,3.362,0.489,4.734,1.32c1.294-8.033,8.227-14.178,16.61-14.178c9.297,0,16.825,7.517,16.851,16.797
					c2.104-2.182,5.038-3.541,8.304-3.541c6.329,0,11.456,5.107,11.515,11.428c0.662-0.271,1.37-0.424,2.121-0.424
					c3.002,0,5.447,2.44,5.447,5.451c0,0.741-0.152,1.451-0.424,2.096H236.37z"/>
				<path opacity="0.3" fill="#FFFFFF" d="M-6.215-112.888c-0.351-0.832-0.542-1.746-0.542-2.7c0-3.87,3.147-7.009,7.014-7.009
					c0.455,0,0.918,0.043,1.342,0.128c-0.246-0.934-0.381-1.909-0.381-2.915c0-6.566,5.328-11.885,11.898-11.885
					c2.226,0,4.312,0.623,6.097,1.697c1.64-10.34,10.573-18.251,21.375-18.251c11.948,0,21.642,9.672,21.671,21.62
					c2.702-2.807,6.481-4.562,10.684-4.562c8.147,0,14.76,6.58,14.819,14.713c0.839-0.352,1.762-0.545,2.722-0.545
					c3.88,0,7.012,3.139,7.012,7.009c0,0.954-0.189,1.868-0.535,2.7H-6.215z"/>
				<path opacity="0.25" fill="#FFFFFF" d="M227.278-38.505c-0.018-0.281-0.041-0.555-0.041-0.841
					c0-8.073,6.543-14.617,14.619-14.617c2.475,0,4.799,0.62,6.845,1.702c2.311-8.477,10.064-14.719,19.276-14.719
					c11.043,0,19.989,8.948,19.989,19.99c0,3.033-0.679,5.902-1.885,8.484H227.278z"/>
				<path opacity="0.2" fill="#FFFFFF" d="M157.251,97.644c-0.016-0.278-0.043-0.558-0.043-0.84c0-8.134,6.596-14.726,14.725-14.726
					c2.495,0,4.843,0.624,6.897,1.72c2.327-8.543,10.14-14.828,19.421-14.828c11.121,0,20.132,9.012,20.132,20.129
					c0,3.06-0.687,5.955-1.904,8.545H157.251z"/>
				<path opacity="0.2" fill="#FFFFFF" d="M-44.005,156.442c-0.016-0.238-0.037-0.464-0.037-0.703
					c0-6.804,5.507-12.316,12.317-12.316c2.076,0,4.033,0.529,5.767,1.436c1.934-7.143,8.46-12.393,16.234-12.393
					c9.289,0,16.818,7.533,16.818,16.834c0,2.547-0.567,4.976-1.585,7.143H-44.005z"/>
			</g>
			<g>
				<path opacity="0.4" fill="#FFFFFF" d="M482.44-57.435c0-0.238-0.043-0.466-0.043-0.707c0-6.801,5.518-12.305,12.316-12.305
					c2.679,0,5.159,0.865,7.182,2.322c0-0.105-0.023-0.216-0.023-0.321c0-8.187,6.633-14.824,14.834-14.824
					c8.186,0,14.813,6.638,14.813,14.824c0,0.095,0,0.188,0,0.28c1.07-0.359,2.206-0.562,3.415-0.562
					c5.97,0,10.81,4.842,10.81,10.814c0,0.156-0.012,0.318-0.034,0.479H482.44z"/>
				<path opacity="0.4" fill="#FFFFFF" d="M598.667,74.532c-0.652-1.378-1.034-2.902-1.034-4.531c0-5.83,4.732-10.559,10.565-10.559
					c1.549,0,3.008,0.34,4.33,0.934c0.555-9.218,8.204-16.531,17.563-16.531c8.943,0,16.326,6.67,17.459,15.299
					c2.239-1.58,4.979-2.515,7.929-2.515c7.521,0,13.622,5.997,13.817,13.468c1.104-0.848,2.483-1.365,3.995-1.365
					c3.362,0,6.129,2.535,6.497,5.801H598.667z"/>
				<path opacity="0.4" fill="#FFFFFF" d="M836.577,120.563c-0.648-1.379-1.031-2.903-1.031-4.531c0-5.83,4.732-10.56,10.565-10.56
					c1.546,0,3.008,0.341,4.33,0.935c0.556-9.219,8.204-16.533,17.563-16.533c8.943,0,16.323,6.67,17.456,15.3
					c2.243-1.581,4.981-2.516,7.932-2.516c7.521,0,13.622,5.999,13.817,13.47c1.104-0.849,2.48-1.366,3.992-1.366
					c3.362,0,6.132,2.534,6.497,5.802H836.577z"/>
				<path opacity="0.2" fill="#FFFFFF" d="M600.003,157.47c-0.654-1.375-1.03-2.904-1.03-4.525c0-5.833,4.721-10.567,10.562-10.567
					c1.54,0,3.005,0.343,4.321,0.938c0.559-9.222,8.213-16.524,17.572-16.524c8.938,0,16.317,6.66,17.453,15.288
					c2.248-1.575,4.976-2.513,7.932-2.513c7.521,0,13.625,6.004,13.817,13.477c1.106-0.857,2.489-1.373,3.993-1.373
					c3.361,0,6.131,2.535,6.498,5.801H600.003z"/>
				<path opacity="0.5" fill="#FFFFFF" d="M490.228,20.764c-0.572-1.174-0.881-2.479-0.881-3.858c0-4.977,4.034-9.006,9.004-9.006
					c1.311,0,2.562,0.289,3.678,0.799c0.484-7.863,7.003-14.09,14.972-14.09c7.621,0,13.906,5.683,14.876,13.033
					c1.914-1.343,4.242-2.143,6.76-2.143c6.412,0,11.612,5.112,11.778,11.488c0.94-0.732,2.118-1.172,3.409-1.172
					c2.866,0,5.221,2.168,5.531,4.948H490.228z"/>
				<path opacity="0.5" fill="#FFFFFF" d="M609.17,1.464c-0.844-1.768-1.331-3.742-1.331-5.83c0-7.506,6.092-13.593,13.596-13.593
					c1.988,0,3.869,0.435,5.568,1.204c0.722-11.871,10.565-21.27,22.612-21.27c11.506,0,20.998,8.572,22.454,19.676
					c2.896-2.029,6.414-3.232,10.215-3.232c9.674,0,17.531,7.728,17.775,17.342c1.424-1.105,3.203-1.77,5.148-1.77
					c4.324,0,7.884,3.274,8.346,7.473H609.17z"/>
				<path opacity="0.4" fill="#FFFFFF" d="M769.54,38.812c-0.018-0.281-0.045-0.562-0.045-0.851c0-8.192,6.638-14.829,14.827-14.829
					c3.234,0,6.219,1.043,8.654,2.802c-0.005-0.128-0.005-0.261-0.005-0.393c0-9.858,7.988-17.855,17.854-17.855
					c9.863,0,17.858,7.997,17.858,17.855c0,0.115-0.009,0.229-0.009,0.342c1.303-0.433,2.676-0.675,4.12-0.675
					c7.199,0,13.027,5.832,13.027,13.027c0,0.19-0.018,0.381-0.029,0.576H769.54z"/>
				<path opacity="0.5" fill="#FFFFFF" d="M677.076-90.368c-0.009-0.287-0.037-0.56-0.037-0.842c0-8.073,6.548-14.617,14.621-14.617
					c3.188,0,6.128,1.027,8.529,2.762c-0.005-0.129-0.014-0.258-0.014-0.389c0-9.723,7.878-17.604,17.605-17.604
					c9.722,0,17.612,7.881,17.612,17.604c0,0.113-0.012,0.222-0.015,0.336c1.277-0.424,2.646-0.666,4.062-0.666
					c7.099,0,12.848,5.748,12.848,12.844c0,0.19-0.02,0.375-0.031,0.572H677.076z"/>
				<path opacity="0.25" fill="#FFFFFF" d="M434.922,105.22c-0.013-0.278-0.035-0.555-0.035-0.838c0-8.072,6.53-14.617,14.61-14.617
					c3.196,0,6.131,1.031,8.535,2.763c0-0.132-0.019-0.258-0.019-0.385c0-9.723,7.886-17.61,17.602-17.61
					c9.739,0,17.622,7.888,17.622,17.61c0,0.112-0.012,0.225-0.012,0.331c1.275-0.421,2.635-0.666,4.069-0.666
					c7.089,0,12.844,5.751,12.844,12.844c0,0.189-0.026,0.377-0.048,0.568H434.922z"/>
				<path opacity="0.2" fill="#FFFFFF" d="M391.4-109.446c-0.012-0.279-0.028-0.551-0.028-0.836c0-8.071,6.521-14.621,14.604-14.621
					c3.181,0,6.12,1.032,8.534,2.762c0-0.133-0.016-0.252-0.016-0.383c0-9.726,7.887-17.605,17.61-17.605
					c9.721,0,17.61,7.88,17.61,17.605c0,0.113-0.021,0.223-0.021,0.336c1.281-0.426,2.653-0.674,4.066-0.674
					c7.103,0,12.839,5.756,12.839,12.85c0,0.189-0.021,0.374-0.021,0.566H391.4z"/>
				<path opacity="0.3" fill="#FFFFFF" d="M323.608,41.23c-0.344-0.832-0.536-1.743-0.536-2.7c0-3.878,3.141-7.014,7.019-7.014
					c0.446,0,0.903,0.048,1.338,0.133c-0.233-0.939-0.371-1.91-0.371-2.92c0-6.565,5.313-11.888,11.877-11.888
					c2.232,0,4.328,0.631,6.092,1.699c1.667-10.339,10.594-18.247,21.375-18.247c11.968,0,21.653,9.673,21.688,21.617
					c2.71-2.807,6.486-4.557,10.689-4.557c8.144,0,14.742,6.572,14.814,14.707c0.857-0.349,1.766-0.545,2.732-0.545
					c3.865,0,7.008,3.136,7.008,7.014c0,0.957-0.193,1.868-0.54,2.7H323.608z"/>
				<path opacity="0.3" fill="#FFFFFF" d="M285.804,125.687c-0.345-0.831-0.537-1.742-0.537-2.699c0-3.878,3.141-7.014,7.021-7.014
					c0.444,0,0.901,0.048,1.338,0.133c-0.235-0.939-0.372-1.91-0.372-2.92c0-6.566,5.312-11.888,11.877-11.888
					c2.23,0,4.326,0.631,6.091,1.699c1.667-10.339,10.595-18.247,21.375-18.247c11.968,0,21.653,9.673,21.687,21.617
					c2.711-2.809,6.486-4.557,10.69-4.557c8.144,0,14.743,6.574,14.813,14.707c0.858-0.348,1.766-0.545,2.733-0.545
					c3.865,0,7.009,3.136,7.009,7.014c0,0.957-0.192,1.868-0.541,2.699H285.804z"/>
				<path opacity="0.3" fill="#FFFFFF" d="M779.194-124.788c-0.27-0.646-0.417-1.356-0.417-2.099c0-3.011,2.436-5.45,5.449-5.45
					c0.348,0,0.702,0.037,1.045,0.104c-0.19-0.729-0.292-1.485-0.292-2.27c0-5.103,4.126-9.236,9.229-9.236
					c1.733,0,3.361,0.489,4.734,1.319c1.294-8.032,8.224-14.178,16.609-14.178c9.297,0,16.824,7.518,16.853,16.797
					c2.102-2.182,5.038-3.541,8.301-3.541c6.329,0,11.457,5.107,11.517,11.428c0.663-0.271,1.368-0.424,2.118-0.424
					c3.002,0,5.449,2.439,5.449,5.45c0,0.742-0.15,1.452-0.422,2.099H779.194z"/>
				<path opacity="0.3" fill="#FFFFFF" d="M536.608-111.858c-0.352-0.834-0.543-1.748-0.543-2.701c0-3.869,3.148-7.009,7.014-7.009
					c0.456,0,0.919,0.044,1.341,0.127c-0.245-0.933-0.381-1.909-0.381-2.914c0-6.565,5.33-11.887,11.899-11.887
					c2.227,0,4.313,0.624,6.098,1.698c1.64-10.338,10.571-18.25,21.375-18.25c11.947,0,21.645,9.672,21.672,21.619
					c2.702-2.807,6.48-4.562,10.686-4.562c8.145,0,14.757,6.58,14.819,14.715c0.835-0.352,1.759-0.546,2.722-0.546
					c3.876,0,7.012,3.14,7.012,7.009c0,0.953-0.193,1.867-0.539,2.701H536.608z"/>
				<path opacity="0.25" fill="#FFFFFF" d="M770.104-37.478c-0.02-0.279-0.042-0.553-0.042-0.84c0-8.073,6.541-14.617,14.621-14.617
					c2.472,0,4.797,0.62,6.842,1.703c2.313-8.479,10.064-14.721,19.276-14.721c11.044,0,19.99,8.948,19.99,19.991
					c0,3.03-0.68,5.901-1.886,8.483H770.104z"/>
				<path opacity="0.2" fill="#FFFFFF" d="M700.073,98.672c-0.014-0.279-0.042-0.559-0.042-0.841
					c0-8.133,6.599-14.725,14.726-14.725c2.495,0,4.843,0.623,6.896,1.719c2.33-8.542,10.141-14.826,19.424-14.826
					c11.12,0,20.129,9.01,20.129,20.127c0,3.061-0.686,5.956-1.903,8.546H700.073z"/>
				<path opacity="0.2" fill="#FFFFFF" d="M498.818,157.47c-0.016-0.237-0.037-0.465-0.037-0.703
					c0-6.803,5.505-12.316,12.317-12.316c2.076,0,4.033,0.529,5.766,1.436c1.935-7.143,8.459-12.392,16.235-12.392
					c9.287,0,16.818,7.534,16.818,16.833c0,2.545-0.567,4.975-1.586,7.143H498.818z"/>
			</g>
		</g>
	</g>
</g>
<g id="Mobile" display="none">
	<g display="inline">
		<rect x="-1263" y="-2321" opacity="0.3" fill="#212121" width="332" height="672"/>
		<rect x="-395" y="-2321" opacity="0.3" fill="#212121" width="332" height="672"/>
	</g>
	<g display="inline">
		<rect y="-2322" opacity="0.3" fill="#212121" width="332" height="671"/>
		<rect x="868" y="-2322" opacity="0.3" fill="#212121" width="332" height="671"/>
	</g>
	<g display="inline">
		<rect y="-1469" opacity="0.3" fill="#212121" width="332" height="671"/>
		<rect x="868" y="-1469" opacity="0.3" fill="#212121" width="332" height="671"/>
	</g>
	<g display="inline">
		<rect y="-728" opacity="0.3" fill="#212121" width="332" height="671"/>
		<rect x="868" y="-728" opacity="0.3" fill="#212121" width="332" height="671"/>
	</g>
	<g display="inline">
		<rect opacity="0.3" fill="#212121" width="332" height="671"/>
		<rect x="868" opacity="0.3" fill="#212121" width="332" height="671"/>
	</g>
	<g display="inline">
		<rect x="1264" y="-2322" opacity="0.3" fill="#212121" width="332" height="671"/>
		<rect x="2132" y="-2322" opacity="0.3" fill="#212121" width="332" height="671"/>
	</g>
	<g display="inline">
		<rect x="1264" y="-1468" opacity="0.3" fill="#212121" width="332" height="671"/>
		<rect x="2132" y="-1468" opacity="0.3" fill="#212121" width="332" height="671"/>
	</g>
</g>
</svg>
